<svg xmlns="http://www.w3.org/2000/svg" viewBox="-2.5 -15.4 214.3 503.8" width="214.3" height="503.8" preserveAspectRatio="xMinYMin"><defs><radialGradient gradientUnits="userSpaceOnUse" r="819.2" cx="0" cy="0" spreadMethod="pad" gradientTransform="matrix(.132 0 0 .131 108.75 7.75)" id="a"><stop offset="0" stop-color="#fff"/><stop offset=".314" stop-color="#6282E0"/><stop offset=".502" stop-color="#03c"/><stop offset="1"/></radialGradient><radialGradient gradientUnits="userSpaceOnUse" r="819.2" cx="0" cy="0" spreadMethod="pad" gradientTransform="matrix(.11 0 0 .11 69.05 62.45)" id="b"><stop offset="0" stop-color="#fff"/><stop offset=".314" stop-color="#6282E0"/><stop offset=".502" stop-color="#03c"/><stop offset="1"/></radialGradient><linearGradient gradientUnits="userSpaceOnUse" x1="-819.2" x2="819.2" gradientTransform="matrix(-.005 .011 -.005 -.002 131.3 48.05)" id="c"><stop offset="0" stop-color="#D98651"/><stop offset=".533" stop-color="#DFA168"/><stop offset="1" stop-color="#D98651"/></linearGradient><linearGradient gradientUnits="userSpaceOnUse" x1="-819.2" x2="819.2" gradientTransform="matrix(-.008 -.05 .037 -.006 99.75 41.9)" id="d"><stop offset="0" stop-color="#D98651"/><stop offset=".533" stop-color="#DFA168"/><stop offset="1" stop-color="#D98651"/></linearGradient><linearGradient gradientUnits="userSpaceOnUse" x1="-819.2" x2="819.2" gradientTransform="matrix(.014 0 0 .037 131.5 113.8)" id="e"><stop offset="0" stop-color="#663332"/><stop offset=".478" stop-color="#746247"/><stop offset="1" stop-color="#633"/></linearGradient><radialGradient gradientUnits="userSpaceOnUse" r="819.2" cx="0" cy="0" spreadMethod="pad" gradientTransform="matrix(.135 0 0 .135 108.2 2.95)" id="f"><stop offset="0" stop-color="#fff"/><stop offset=".314" stop-color="#6282E0"/><stop offset=".502" stop-color="#03c"/><stop offset="1"/></radialGradient><linearGradient gradientUnits="userSpaceOnUse" x1="-819.2" x2="819.2" gradientTransform="matrix(.057 0 0 .072 97.35 148.6)" id="g"><stop offset="0" stop-color="#663332"/><stop offset=".478" stop-color="#746247"/><stop offset="1" stop-color="#633"/></linearGradient><radialGradient gradientUnits="userSpaceOnUse" r="819.2" cx="0" cy="0" spreadMethod="pad" gradientTransform="matrix(-.013 0 0 .013 19.1 130.5)" id="h"><stop offset=".051" stop-color="#E5B17C"/><stop offset=".71" stop-color="#c60"/><stop offset="1"/></radialGradient><radialGradient gradientUnits="userSpaceOnUse" r="819.2" cx="0" cy="0" spreadMethod="pad" gradientTransform="matrix(-.017 0 0 .017 18.4 137.7)" id="i"><stop offset=".051" stop-color="#E5B17C"/><stop offset=".71" stop-color="#c60"/><stop offset="1"/></radialGradient><radialGradient gradientUnits="userSpaceOnUse" r="819.2" cx="0" cy="0" spreadMethod="pad" gradientTransform="matrix(-.018 0 0 .018 12.75 143.6)" id="j"><stop offset=".051" stop-color="#E5B17C"/><stop offset=".71" stop-color="#c60"/><stop offset="1"/></radialGradient><radialGradient gradientUnits="userSpaceOnUse" r="819.2" cx="0" cy="0" spreadMethod="pad" gradientTransform="matrix(-.019 0 0 .019 24.75 146.65)" id="k"><stop offset=".051" stop-color="#E5B17C"/><stop offset=".71" stop-color="#c60"/><stop offset="1"/></radialGradient><linearGradient gradientUnits="userSpaceOnUse" x1="-819.2" x2="819.2" gradientTransform="matrix(.026 0 0 .018 29.75 149.75)" id="l"><stop offset="0" stop-color="#663332"/><stop offset=".478" stop-color="#746247"/><stop offset="1" stop-color="#633"/></linearGradient><linearGradient gradientUnits="userSpaceOnUse" x1="-819.2" x2="819.2" gradientTransform="matrix(.04 0 0 .036 88.3 177)" id="m"><stop offset="0" stop-color="#663332"/><stop offset=".478" stop-color="#746247"/><stop offset="1" stop-color="#633"/></linearGradient><radialGradient gradientUnits="userSpaceOnUse" r="819.2" cx="0" cy="0" spreadMethod="pad" gradientTransform="matrix(-.009 .004 .004 .009 118.15 134.75)" id="n"><stop offset=".051" stop-color="#E5B17C"/><stop offset=".71" stop-color="#c60"/><stop offset="1"/></radialGradient><radialGradient gradientUnits="userSpaceOnUse" r="819.2" cx="0" cy="0" spreadMethod="pad" gradientTransform="matrix(-.014 .006 .006 .014 126.8 144.7)" id="o"><stop offset=".051" stop-color="#E5B17C"/><stop offset=".71" stop-color="#c60"/><stop offset="1"/></radialGradient><radialGradient gradientUnits="userSpaceOnUse" r="819.2" cx="0" cy="0" spreadMethod="pad" gradientTransform="matrix(-.012 .005 .005 .012 119.7 140.1)" id="p"><stop offset=".051" stop-color="#E5B17C"/><stop offset=".71" stop-color="#c60"/><stop offset="1"/></radialGradient><radialGradient gradientUnits="userSpaceOnUse" r="819.2" cx="0" cy="0" spreadMethod="pad" gradientTransform="matrix(-.013 .005 .005 .013 117.35 145.95)" id="q"><stop offset=".051" stop-color="#E5B17C"/><stop offset=".71" stop-color="#c60"/><stop offset="1"/></radialGradient><radialGradient gradientUnits="userSpaceOnUse" r="819.2" cx="0" cy="0" spreadMethod="pad" gradientTransform="matrix(.014 .005 -.005 .013 137.45 170.35)" id="r"><stop offset=".051" stop-color="#E5B17C"/><stop offset=".71" stop-color="#c60"/><stop offset="1"/></radialGradient><radialGradient gradientUnits="userSpaceOnUse" r="819.2" cx="0" cy="0" spreadMethod="pad" gradientTransform="matrix(.01 .004 -.003 .009 135.85 159.1)" id="s"><stop offset=".051" stop-color="#E5B17C"/><stop offset=".71" stop-color="#c60"/><stop offset="1"/></radialGradient><radialGradient gradientUnits="userSpaceOnUse" r="819.2" cx="0" cy="0" spreadMethod="pad" gradientTransform="matrix(.013 .005 -.004 .012 134.55 164.5)" id="t"><stop offset=".051" stop-color="#E5B17C"/><stop offset=".71" stop-color="#c60"/><stop offset="1"/></radialGradient><radialGradient gradientUnits="userSpaceOnUse" r="819.2" cx="0" cy="0" spreadMethod="pad" gradientTransform="matrix(.015 .005 -.005 .014 127.2 169.15)" id="u"><stop offset=".051" stop-color="#E5B17C"/><stop offset=".71" stop-color="#c60"/><stop offset="1"/></radialGradient><radialGradient gradientUnits="userSpaceOnUse" r="819.2" cx="0" cy="0" spreadMethod="pad" gradientTransform="matrix(.017 0 0 .017 142.05 222.35)" id="v"><stop offset=".051" stop-color="#E5B17C"/><stop offset=".71" stop-color="#c60"/><stop offset="1"/></radialGradient><radialGradient gradientUnits="userSpaceOnUse" r="819.2" cx="0" cy="0" spreadMethod="pad" gradientTransform="matrix(.018 0 0 .018 147.7 228.25)" id="w"><stop offset=".051" stop-color="#E5B17C"/><stop offset=".71" stop-color="#c60"/><stop offset="1"/></radialGradient><radialGradient gradientUnits="userSpaceOnUse" r="819.2" cx="0" cy="0" spreadMethod="pad" gradientTransform="matrix(.013 0 0 .013 141.35 215.15)" id="x"><stop offset=".051" stop-color="#E5B17C"/><stop offset=".71" stop-color="#c60"/><stop offset="1"/></radialGradient><linearGradient gradientUnits="userSpaceOnUse" x1="-819.2" x2="819.2" gradientTransform="matrix(-.001 .01 -.013 -.001 121.3 223.45)" id="y"><stop offset="0" stop-color="#663332"/><stop offset=".478" stop-color="#746247"/><stop offset="1" stop-color="#633"/></linearGradient><radialGradient gradientUnits="userSpaceOnUse" r="819.2" cx="0" cy="0" spreadMethod="pad" gradientTransform="matrix(.019 0 0 .019 135.7 231.3)" id="z"><stop offset=".051" stop-color="#E5B17C"/><stop offset=".71" stop-color="#c60"/><stop offset="1"/></radialGradient><radialGradient gradientUnits="userSpaceOnUse" r="819.2" cx="0" cy="0" spreadMethod="pad" gradientTransform="matrix(.182 0 0 .182 59.75 225.95)" id="A"><stop offset="0" stop-color="#8F0101"/><stop offset="1"/></radialGradient><linearGradient gradientUnits="userSpaceOnUse" x1="-819.2" x2="819.2" gradientTransform="matrix(.012 0 0 .013 101.1 223.75)" id="B"><stop offset="0" stop-color="#999"/><stop offset="1" stop-color="#ccc"/></linearGradient><radialGradient gradientUnits="userSpaceOnUse" r="819.2" cx="0" cy="0" spreadMethod="pad" gradientTransform="matrix(.031 0 0 .031 66.65 212.05)" id="C"><stop offset="0" stop-color="#8F0101"/><stop offset="1"/></radialGradient><linearGradient gradientUnits="userSpaceOnUse" x1="-819.2" x2="819.2" gradientTransform="matrix(-.001 .008 -.005 0 87.35 222.6)" id="D"><stop offset="0" stop-color="#663332"/><stop offset=".478" stop-color="#746247"/><stop offset="1" stop-color="#633"/></linearGradient><linearGradient gradientUnits="userSpaceOnUse" x1="-819.2" x2="819.2" gradientTransform="matrix(-.001 .009 -.009 -.001 101.05 223.45)" id="E"><stop offset="0" stop-color="#663332"/><stop offset=".478" stop-color="#746247"/><stop offset="1" stop-color="#633"/></linearGradient><linearGradient gradientUnits="userSpaceOnUse" x1="-819.2" x2="819.2" gradientTransform="matrix(-.001 .01 -.022 -.002 73.5 219.8)" id="F"><stop offset="0" stop-color="#663332"/><stop offset=".478" stop-color="#746247"/><stop offset="1" stop-color="#633"/></linearGradient><radialGradient gradientUnits="userSpaceOnUse" r="819.2" cx="0" cy="0" spreadMethod="pad" gradientTransform="matrix(.026 0 0 .026 53.7 215.15)" id="G"><stop offset=".051" stop-color="#E5B17C"/><stop offset=".71" stop-color="#c60"/><stop offset="1"/></radialGradient><linearGradient gradientUnits="userSpaceOnUse" x1="-819.2" x2="819.2" gradientTransform="matrix(.023 0 0 .02 16.5 271.45)" id="H"><stop offset="0" stop-color="#663332"/><stop offset=".478" stop-color="#746247"/><stop offset="1" stop-color="#633"/></linearGradient><radialGradient gradientUnits="userSpaceOnUse" r="819.2" cx="0" cy="0" spreadMethod="pad" gradientTransform="matrix(.032 0 0 .032 53.9 313.2)" id="I"><stop offset=".051" stop-color="#E5B17C"/><stop offset=".71" stop-color="#c60"/><stop offset="1"/></radialGradient><radialGradient gradientUnits="userSpaceOnUse" r="819.2" cx="0" cy="0" spreadMethod="pad" gradientTransform="matrix(.049 0 0 .049 66.7 318.6)" id="J"><stop offset=".051" stop-color="#E5B17C"/><stop offset=".71" stop-color="#c60"/><stop offset="1"/></radialGradient><radialGradient gradientUnits="userSpaceOnUse" r="819.2" cx="0" cy="0" spreadMethod="pad" gradientTransform="matrix(.042 0 0 .042 57.3 328.4)" id="K"><stop offset=".051" stop-color="#E5B17C"/><stop offset=".71" stop-color="#c60"/><stop offset="1"/></radialGradient><linearGradient gradientUnits="userSpaceOnUse" x1="-819.2" x2="819.2" gradientTransform="matrix(.023 0 0 .018 190.2 257.6)" id="L"><stop offset="0" stop-color="#663332"/><stop offset=".478" stop-color="#746247"/><stop offset="1" stop-color="#633"/></linearGradient><linearGradient gradientUnits="userSpaceOnUse" x1="-819.2" x2="819.2" gradientTransform="matrix(.021 0 0 .012 154.2 405.4)" id="M"><stop offset="0" stop-color="#663332"/><stop offset=".478" stop-color="#746247"/><stop offset="1" stop-color="#633"/></linearGradient><linearGradient gradientUnits="userSpaceOnUse" x1="-819.2" x2="819.2" gradientTransform="matrix(.016 0 0 .018 156.4 424.55)" id="N"><stop offset="0" stop-color="#663332"/><stop offset=".478" stop-color="#746247"/><stop offset="1" stop-color="#633"/></linearGradient><linearGradient gradientUnits="userSpaceOnUse" x1="-819.2" x2="819.2" gradientTransform="matrix(.041 0 0 .026 178.15 442.7)" id="O"><stop offset="0" stop-color="#663332"/><stop offset=".478" stop-color="#746247"/><stop offset="1" stop-color="#633"/></linearGradient><linearGradient gradientUnits="userSpaceOnUse" x1="-819.2" x2="819.2" gradientTransform="matrix(.021 0 0 .012 57.55 419.9)" id="P"><stop offset="0" stop-color="#663332"/><stop offset=".478" stop-color="#746247"/><stop offset="1" stop-color="#633"/></linearGradient><linearGradient gradientUnits="userSpaceOnUse" x1="-819.2" x2="819.2" gradientTransform="matrix(.016 0 0 .014 60.35 434.75)" id="Q"><stop offset="0" stop-color="#663332"/><stop offset=".478" stop-color="#746247"/><stop offset="1" stop-color="#633"/></linearGradient><linearGradient gradientUnits="userSpaceOnUse" x1="-819.2" x2="819.2" gradientTransform="matrix(.027 0 0 .029 58.7 464.7)" id="R"><stop offset="0" stop-color="#663332"/><stop offset=".478" stop-color="#746247"/><stop offset="1" stop-color="#633"/></linearGradient><radialGradient gradientUnits="userSpaceOnUse" r="819.2" cx="0" cy="0" spreadMethod="pad" gradientTransform="matrix(.004 0 0 .004 100.6 41.1)" id="S"><stop offset=".706" stop-color="#f00"/><stop offset="1"/></radialGradient><radialGradient gradientUnits="userSpaceOnUse" r="819.2" cx="0" cy="0" spreadMethod="pad" gradientTransform="matrix(.004 0 0 .004 121.4 40.1)" id="T"><stop offset=".706" stop-color="#f00"/><stop offset="1"/></radialGradient><linearGradient gradientUnits="userSpaceOnUse" x1="-819.2" x2="819.2" gradientTransform="matrix(-.002 0 0 -.002 94.8 40.55)" id="U"><stop offset="0" stop-color="#fff"/><stop offset="1" stop-color="#666"/></linearGradient><linearGradient gradientUnits="userSpaceOnUse" x1="-819.2" x2="819.2" gradientTransform="matrix(.002 0 0 .002 105.7 42.05)" id="V"><stop offset="0" stop-color="#fff"/><stop offset="1" stop-color="#666"/></linearGradient><linearGradient gradientUnits="userSpaceOnUse" x1="-819.2" x2="819.2" gradientTransform="matrix(-.002 0 0 -.002 116.25 41.6)" id="W"><stop offset="0" stop-color="#fff"/><stop offset="1" stop-color="#666"/></linearGradient><linearGradient gradientUnits="userSpaceOnUse" x1="-819.2" x2="819.2" gradientTransform="matrix(.002 0 0 .002 126.5 39.3)" id="X"><stop offset="0" stop-color="#fff"/><stop offset="1" stop-color="#666"/></linearGradient></defs><path fill="#630" d="M116.35 60.4l-.5-.7q2.1-.7 2.4-.4l-.05.4-.55.5q-.75.55-1.3.2m-5.95-1.3l-.15.45q-.5.5-2 .6-.85-.55-1-1l3.15-.05"/><path fill="url(#a)" d="M77.05-14.9l.05-.4q5.25-.35 7.85.7 3.3 1.25 4.35 5.15v.35q.65-.55.6-2.2l-.3-1.85v-.7h1.7q1.45.55 3.9 2.2l2.55 1.9q1.55-1.55 5.6-2.75l3.25-.65q.7 0 .7.35h3.4l-1.35 1v4.75q.45-.35 2.7-.95l5.1-1.45h4.05v8.5l5.05-2.75 1.55-1.55q-.15 1.65.45 3.85 1.5 5.3 1.5 8.9 0 2.4-.7 3.35l-.7 1.1q0 1.3 1.35 1.6l2 .1v3.05l-.65 1.8q-.35 1.25-.35 1.6h2.4q.5 13.1 2.35 16.95h-.1l-.4-.7q-.5-.65-1.55-.7l3.1 7.05q2 5 2 8.35 0 .55-1.35 1.25-1.35.75-1.35 1l.15 4.05.2 3.7q0 6.55-2.05 10.05-2.15 2.55-2.4 3.55 1.5-.35 2.75-1.35.25 1.9 2.8 4.5 2.65 2.65 4.65 2.65l.05.1-3.4.95-3.1.65q-.35-.1-.35.8l.3.7 1.1 1.05 1.65 1.15-4.1.35-2.85-.2-2.35-.3-1.2-.2v3.1l.85 1.9q.95 1.9 2.65 4.45l2.6 3.8v.7l-3 .3-3.2-.25-.85-.35q-2.6-1.5-3.45-6.85-.25-1.65-2.25-3.75-1.85-2-1.85-3.05 0-.8 1.9-3.2 1.85-2.35 1.85-3.4l-.65-1.9-.4-.8-.3-1.05q0-.8 2.1-3.45 2.05-2.65 1.95-6.2-.05-2.55 1.7-4.75l2.15-2.8 1.6-2.6V38.4h-2.35l-2.35-12.85q-2-7.4-6.15-10.9v4.75q-5.95-6.25-8.85-7.1v3.05l.7 1V26.5q-8.8-11.8-11.6-13.2l.2.95.15 1.05-.3.7q-.35.25-.35.65 0 1.1.65 2.4v2.7q-2 .4-4.75-2.25-2.2-2.2-2.7-3.5l.2 1.75.8 3.35v5.4q-1.7-.3-3.85-3.05-1.4-1.7-2.25-3.35h-.35l1.05 1.65-3.3-.45q-1.7-.45-2.45-1.2l-.7-.35 2.75 3.35 2.85 3.1-.1.2-8.9-6h-3.65l3.65 3.5q3.45 3.15 4.1 4.25v3.1q-.45 0-7.5-2.75h-.25q0 .75 2 3.3 2.1 2.7 2.35 3.85l.6 3.45q.3 1.8.75 3 1.1 2.85 2.2 8.1l.85 4.8v5.1l-2.9-6.85q-1.75-3.85-2.55-6.7l-1.7-6.1-.35-1.1q-.85-1.55-2.95-1.3l-.3.05q-2.4.4-3.3 1-.95.55-.05 4.25.9 3.7 4.55 10.6 3.45 6.45 5.65 7.35l.25.05q1.2.3 1.8 2.55.5 1.95.5 5.5-.75 9 0 12.4v2h-2.7q-.2-.3-1.8-.85-1.5-.55-1.95-.55.25 1.8 2.7 7.55l-.15.15q-3.4-3.4-6.6-5.95L68.1 87.5l-3.8 2.2-2.85.9.9-.85 1.2-1.5V85.2l-.35-.7-2.3 2.75q-2.05 2.6-3.15 3.35v.05h-.1l-.25.1L52.25 92l-5.7 1.25 1.15-1.75.55-1.9-1.7 1.2q-1.1.85-2.05.85-2.35 0-6.75-3.75-3.4-2.85-6.05-6.1-.65-.75-1.2-2.95l-.9-3.5q2.1 2.5 7 4.3 3.95 1.45 6.05 1.45l1.55-.05 1-.95h.35q-1.6-.85-4.4-4.5l-3.4-4.3.05-.35q2.05.1 4.2 1.35 2.35 1.35 3 1.35l2.8-.1q.4-.15 1.45-1.3-1.35-.9-3.75-3.15-3.05-2.75-3.3-3.9l.2-.45q.75.3 2.2.95l4 1.5h4.8q0-.35.6-1.35-1.25-.7-5.4-5.15v-.25l7.45-.35.05-.2.3-.5q-2.5-1.6-3.7-3.4 0-.3-.35-.3 2.35-1.2 5.9-5.35 3.45-4.05 3.9-5.85-2.35 2.35-4.2 2.35-1.5 0-5.5-2.35l-5.2-3.4v-.35h1.7l3.05 2.7q2.05 0 2.4-3.9l.3-4.55q.3-.45 3.15-1.8 3.4-1.65 5-1.25Q60.55 29.75 51 26q-7.35-2.85-6.8-5.9l.05-.35q1.55.05 4.75 1.85 3.2 1.85 4.15 1.85 2.6 0 4.25-1.35 1.35-1.1 1.35-2.4 0-2.1-3.85-5.95L49.95 9.2v-.3h3.1l6.25 1q4.55 0 6.25-1.35 1.35-1.15 1.35-3.9T65.8.15l-.75-1.1h3.9V-3L66.2-6.35q0-1.05-.3-1.05h1.5l8.45.3q1.3.3 2.75 2.35 1.45 2.05.4-1 2.95 1.1 2.3-.85l-.6-1.35 1.45-.3q0-.4.35-.7.35-.25.35-.7l-1.9-1.75-3.9-3.5"/><path fill="url(#b)" d="M44.25 19.75l-.05.35v-.35h.05m-1.85 45l-.2.45-.35-.7.55.25M78.95 90.1l.15-.15v.3l-.15-.15M88 26.4l.1-.2.5.3v.35l-.6-.45m53.95 54.15l-.05-.1h.35l-.3.1m-6.6-43.5h.1v.3l-.1-.3m-97.6 33.9v.35l-.35-.35h.35"/><path fill="url(#c)" d="M130.85 38.4h.2v16.95l-1.6 2.6.7-6.8q0-6.2-.35-11.95l1.05-.8"/><path fill="url(#d)" d="M82.35 63.9q-.6-2.25-1.8-2.55l-.05-.2-.2.15q-2.2-.9-5.65-7.35-3.65-6.9-4.55-10.6-.9-3.7.05-4.25.9-.6 3.3-1l.3-.05q2.1-.25 2.95 1.3l.35 1.1 1.7 6.1q.8 2.85 2.55 6.7l2.9 6.85V55l-.85-4.8q-1.1-5.25-2.2-8.1-.45-1.2-.75-3l-.6-3.45q-.25-1.15-2.35-3.85-2-2.55-2-3.3h.25q7.05 2.75 7.5 2.75v-3.1q-.65-1.1-4.1-4.25l-3.65-3.5h3.65l8.9 6 .6.45v-.35l-.5-.3-2.85-3.1-2.75-3.35.7.35q.75.75 2.45 1.2l3.3.45-1.05-1.65h.35q.85 1.65 2.25 3.35 2.15 2.75 3.85 3.05v-5.4l-.8-3.35-.2-1.75q.5 1.3 2.7 3.5 2.75 2.65 4.75 2.25v-2.7q-.65-1.3-.65-2.4 0-.4.35-.65l.3-.7-.15-1.05-.2-.95q2.8 1.4 11.6 13.2V16.35l-.7-1V12.3q2.9.85 8.85 7.1v-4.75q4.15 3.5 6.15 10.9l2.35 12.85h1.05l.05.8q.35 5.75.35 11.95l-.7 6.8-2.15 2.8q-1.75 2.2-1.7 4.75.1 3.55-1.95 6.2-2.1 2.65-2.1 3.45l.3 1.05q-1.4 2.1-2.85 3.4-2.7 3.05-10.05 2.7l-6.55-1.15Q93.55 76.9 86.25 68.8l-3.9-4.9m30.35-3.6q3.65-.7 4.35-1.65.7-.95.85-.85l.3-1.35q.15-1.4-.95-3.8l-2.1-4.55q-3.1-5.35-2.85-10.15-.25 4.8 2.85 10.15l2.1 4.55q1.1 2.4.95 3.8l-.3 1.35q-.15-.1-.85.85t-4.35 1.65m3.65.1q.55.35 1.3-.2l.55-.5.05-.4q-.3-.3-2.4.4l.5.7m2.7-3.85q1.7 2.1.4 2.95l-1.8.7 1.8-.7q1.3-.85-.4-2.95m-8.65 2.55l-3.15.05q.15.45 1 1 1.5-.1 2-.6l.15-.45m9.55 9.25q.6-.65-.85-.9l-2.2-.35-2.05-.15-3.35.2-5.45.55-1.85.95 1.85-.95 5.45-.55 3.35-.2 2.05.15 2.2.35q1.45.25.85.9m-1.75.65q-.4 1-1.75 1.5l-3.9.55h-3q-1.25-.2-2.9-1.2 1.65 1 2.9 1.2h3l3.9-.55q1.35-.5 1.75-1.5m-11.95-8.65q-2.6-1.45-2-2.95l1.15-1.25-1.15 1.25q-.6 1.5 2 2.95m-29.2-19.9l-2.65-2-.65-.4.65.4 2.65 2"/><path fill="url(#e)" d="M127.55 99.5l3.2.25 3-.3v-.7l-2.6-3.8q-1.7-2.55-2.65-4.45l.35-4.8 2.35.3 2.85.2 4.1-.35-1.65-1.15-1.1-1.05q6.45-.1 7.95 6.05.1 5.45-1.1 14.05-2.45 17.25-9.1 33.15l-3.2 7.15-.05-.05v-.05l-.65-2.25-.3-1.1q-1.4-4.2-3.15-7.95v-.05l-.5-.25q-1.55-.75-5.35-.85l-.25-.3q5.55-14.05 7.85-31.7"/><path fill="url(#f)" d="M37.8 70.95l-.05.35v-.35h.05"/><path fill="url(#g)" d="M57.4 90.75l.25-.1h.1q2-.7 4.6-.9l-.9.85 2.85-.9h1.45q34.35 19.9 53.95 41.5l.25.3-.55-.05q-2.45-.05-4.6.05l-3.45 1.8-.85 2v.05l-.15 3.7-.1 5.5.15 2.3q-7.2-8-16-16.2-21.9-20.4-43.35-33.6l.4-1.2q.65-1.45 1.9-2.65 1.65-1.55 4.05-2.45m63.45 68.9l-2.55-3.35 4.8-.3.65-.35v-.05l6.15-3.8q1.45-2.05 0-7.8l.05.05q3.9 5.65 6.8 11.4l.2.35h-2.7q-4.55.15-6.3.95l-.5.25-.05.1q-1.6 3.75-2.7 8l-3.85-5.45m22.75 18.45l.15 6.05-2.95 23.35q-.9-13.2-7.35-26.95l3.9.15 5.6-.7.65-1.9"/><path fill="url(#h)" d="M22.85 134.25l-5.55-2.5-5.05-2.45q-2.1-1.05-2.6-1.7l.05-.1 1.95-1.95 5-.55q2.65.9 5.55 2.15 5.05 2.15 6.65 3.9l.45.55v.1q-.1 1.8-3.3 2.35l-3.15.2"/><path fill="url(#i)" d="M22.85 134.25l.25 1.05q.25 2.3-.45 5.7l-11.3-1.8-.35-.65-1.6-2.6q-1.05-1.55-1.4-2.7L7.65 132l2-4.4q.5.65 2.6 1.7l5.05 2.45 5.55 2.5"/><path fill="url(#j)" d="M7.65 132l.35 1.25q.35 1.15 1.4 2.7l1.6 2.6.35.65 11.3 1.8-.05.4q-.85 3.85-2.85 8.75l-1.15 2.6-2.75 5.55h-.05l-.95.15-3.95-1.3h-.05l-.45-.15-1.6-.55-6.05-3.35.1-4.85q.4-5.7 2.05-9.7L7.65 132"/><path fill="url(#k)" d="M22.65 141q.7-3.4.45-5.7l-.25-1.05 3.15-.2q3.2-.55 3.3-2.35l.15 3.75-.2 7.35-.1 1.4-.95 6.55q-1.15 4.6-3.2 5.9l-9.15 1.65 2.75-5.55 1.15-2.6q2-4.9 2.85-8.75l.05-.4"/><path fill="url(#l)" d="M29.45 135.45q16.65 1.4 21.65 14.4L49.95 156q-1.4 6.45-2.6 7.95l-.25.35-2.2-3q-3.25-3.85-7.3-6.5-4.5-2.95-9.4-4.05l.95-6.55.1-1.4.2-7.35"/><path fill="url(#m)" d="M56.25 205.7q-.45-.75-.45-2.15.05-4.4 4.35-13.35 1.8-3.7 12.85-9.7 14.5-7.8 22.05-14.15 8.95-7.5 15.65-17.55l.85 3.35 1.3 3.5 5.35.65h.1l2.55 3.35q-22.4 32.55-64.2 46.55l-.4-.5"/><path fill="url(#n)" d="M110.5 135.35v-.05l.85-2 3.45-1.8q2.15-.1 4.6-.05l.55.05q3.8.1 5.35.85l.5.25v.05q.45 1.35-1.7 2.65l-.55.35-1.65.7-4.7-.2-4.3-.3-2.4-.5"/><path fill="url(#o)" d="M121.9 136.35l1.65-.7.55-.35q2.15-1.3 1.7-2.65 1.75 3.75 3.15 7.95l.3 1.1.65 2.25v.05q1.45 5.75 0 7.8l-6.15 3.8.4-4.75q.25-5.5-.4-9.3l-.05-.3q-.6-3.3-1.8-4.9"/><path fill="url(#p)" d="M121.9 136.35q1.2 1.6 1.8 4.9l-8.6 1.95-2.35-1.8-1.8-1.55-.6-.8.15-3.7 2.4.5 4.3.3 4.7.2"/><path fill="url(#q)" d="M110.4 146.85l-.15-2.3.1-5.5.6.8 1.8 1.55 2.35 1.8 8.6-1.95.05.3q.65 3.8.4 9.3l-.4 4.75v.05l-.65.35-4.8.3h-.1l-5.35-.65-1.3-3.5-.85-3.35-.3-1.95"/><path fill="url(#r)" d="M144.5 163.4l.45 5.5q.35 3.35-.8 7.55l-.55 1.65-.65 1.9-5.6.7-3.9-.15-1.45-.1-.7-.4h-.05l-.7-4.75-.05-.65q-.6-5.15-.25-8.7l.05-.25 9.4 1.85 1.6-1.2.8-.6q1.25-.8 1.75-1.55l.65-.8"/><path fill="url(#s)" d="M136.95 155.8l2.2.05 3.85 1.8 1 1.95v.1l-2.45.45-2.5.2-2.15.15-5.05.25-2.45-1q-2.35-1.3-2-2.65l.05-.1.5-.25q1.75-.8 6.3-.95h2.7"/><path fill="url(#t)" d="M144 159.7l.5 3.7-.65.8q-.5.75-1.75 1.55l-.8.6-1.6 1.2-9.4-1.85q.4-3.35 1.55-4.95l5.05-.25 2.15-.15 2.5-.2 2.45-.45"/><path fill="url(#u)" d="M131.25 180.05l-6.8-3.75q-2.05-2.45-.1-10.15l.3-1 .05-.05q1.1-4.25 2.7-8-.35 1.35 2 2.65l2.45 1q-1.15 1.6-1.55 4.95l-.05.25q-.35 3.55.25 8.7l.05.65.7 4.75"/><path fill="url(#v)" d="M152.8 216.65l-.35 1.25q-.35 1.15-1.4 2.7l-1.95 3.25-11.3 1.8q-.9-4.25-.2-6.75l5.55-2.5 5.05-2.45q2.1-1.05 2.6-1.7l2 4.4"/><path fill="url(#w)" d="M152.8 216.65l2.75 6.55q1.65 4 2.05 9.7l.1 4.85-6.05 3.35-1.6.55-.45.15h-.05l-3.95 1.3-.95-.15h-.05l-2.75-5.55q-2.95-6.5-4-11.35l-.05-.4 11.3-1.8 1.95-3.25q1.05-1.55 1.4-2.7l.35-1.25"/><path fill="url(#x)" d="M150.8 212.25q-.5.65-2.6 1.7l-5.05 2.45-5.55 2.5-3.15-.2q-3.2-.55-3.3-2.35v-.1l.45-.55q1.6-1.75 6.65-3.9 2.9-1.25 5.55-2.15l5 .55 1.95 1.95.05.1"/><path fill="url(#y)" d="M131.15 216.35q-.3 5.35.05 11.1l.1 1.4q-7.5 2.8-20.8 2.4v-.05l.85-13.7v-.15q14.5.7 20.25-1.65l-.45.55v.1"/><path fill="url(#z)" d="M131.15 216.35q.1 1.8 3.3 2.35l3.15.2q-.7 2.5.2 6.75l.05.4q1.05 4.85 4 11.35l2.75 5.55-9.15-1.65q-3.25-2.05-4.15-12.45l-.1-1.4q-.35-5.75-.05-11.1"/><path fill="url(#A)" d="M144.6 242.95h.05l.95.15 3.95-1.3h.05l.45-.15 3.25 11.55q11.85 42.6 10.2 50.7l-1.6 16.15 7.3 6.75q-11.05 5.1-23.25 9.35-24.3 8.6-29.85 4.7l-6.25-1.55 1.05-7.8-1.9-2.7q-2.15-3.45-3.75-7.2-3.5-8.15-3.75-15.5l-.6 2.9q-5.05 25.25-6.7 27.2-1.6 1.95-1.25 6.35l.7 4.05q-13.25 2.6-27.05 3.05-27.65.9-30.6-9.9l-.45-1.45q11.1 7.5 22.95 4.9l6.3-2.45 5.7-38.5-13.15-.95q-13.4-1.35-16.95-3.75l-.15-.1v-.05l2.9-46.1q0-2.05 3.95-16.25l2 .75 4.4-6.6 1.35-6.15.05-.2 9 2 21.35 3.9 5.75.8-.05.45q-.15 3 2.85 3.2l13.5.85q3.05.15 3.2-2.8 13.3.4 20.8-2.4.9 10.4 4.15 12.45l9.15 1.65m-38.95 41.15l-4.15 22q-.15-3.55.5-6.9-.65 3.35-.5 6.9l4.15-22"/><path fill="url(#B)" d="M111.35 217.35v.15l-.85 13.7v.05q-.15 2.95-3.2 2.8l-13.5-.85q-3-.2-2.85-3.2l.05-.45.8-13.25.15-.85q.5-2.1 3.05-1.95l13.5.85q2.95.15 2.85 3m-18.05 7.5l-.35 4.95 15.1 1.35.9-13.95-15-1.5-.1 1.3-.35 5.35 7.3.8q1.35.65.65 1.55l-1 .8-7.1-.8h-.05v.15"/><path fill="url(#C)" d="M89 216.4q-11.8-1.55-24.55-4.3l-8.25-1.95v-.85l11.7 2.3q12.9 2.4 24.05 3.85l-.15.85-2.75.1H89"/><path fill="url(#D)" d="M89 216.4h.05l2.75-.1-.8 13.25-3.5-2.15q-3.45-2.85-4.15-6.2-.7-3.35 3.8-4.45l1.85-.35"/><path fill="url(#E)" d="M93.35 224.7l7.1.8 1-.8q.7-.9-.65-1.55l-7.3-.8.35-5.35.1-1.3 15 1.5-.9 13.95-15.1-1.35.35-4.95.05-.15"/><path fill="url(#F)" d="M89 216.4l-1.85.35q-4.5 1.1-3.8 4.45.7 3.35 4.15 6.2l3.5 2.15-5.75-.8-21.35-3.9-9-2L56 218l.2-7.85 8.25 1.95q12.75 2.75 24.55 4.3"/><path fill="url(#G)" d="M56.2 210.15L56 218l-1.1 4.85-.05.2-1.35 6.15-4.4 6.6-2-.75-.35-.15-.35-.7-3-3.75q-2.2-2.55 1.6-13.5 1.9-5.5 4.25-10.45l6.9 2.05.05.75v.85"/><path fill="url(#H)" d="M30.5 265.45l1.85 1.75 3.15 5.95-2.85 2.4q-2.85 2.7-2.85 4.15l-2.2-1.95.5 3.1q-5.8-.35-12 .2-12.35 1.15-14.15 5.75-1.05 2.75-2.5.15t-1.85-7.75q-1.05-14.2 7-21.4l10-2.6q10.45-1.7 12.05 2.9 1.65 4.65 3.85 7.35"/><path fill="url(#I)" d="M30.85 306.2l1.75-8.65q2.3 2.55 7.35 4.2 4.5 1.5 11.15 2.25l13.4.65-1.85 12.1-23.45 7.15-.4-.9-.25-.5-7.7-16.3"/><path fill="url(#J)" d="M32.6 297.55v-.15h7.55l.1.05.15.1q3.55 2.4 16.95 3.75l13.15.95-5.7 38.5-6.3 2.45 4.15-26.45 1.85-12.1-13.4-.65q-6.65-.75-11.15-2.25-5.05-1.65-7.35-4.2"/><path fill="url(#K)" d="M35.55 338.3l-.4-.3q-3.55-2.45-6.55-5.65l-2.35-2.7 4.6-23.45 7.7 16.3.25.5.4.9 23.45-7.15-4.15 26.45q-11.85 2.6-22.95-4.9"/><path fill="url(#L)" d="M175.55 247.2q1.35-4.4 12.05-4.1 5.35.15 10.4 1.2 6.2 4.3 8.45 15.05.65 3.4.9 7l.05 2.95q3.45 6.35-1.25-1.65-2.85-4.8-12.5-1.4-8.95 4.15-8.85 3.2.15-1.15-1-2.05l-1.2-.65q.9-1.05-5-3.3l-6.05-2.1 1.2-4.45 2.8-9.7"/><path fill="url(#M)" d="M143.45 414.7l-.6.3-5.95-10.25 9.95-5.45q11.55-5.25 16.4-2.5 4.85 2.75 7.05 3.6l1.25.25-4.4 10.5-1-.35q-2.55-.8-6.2-.9-8.7-.25-16.5 4.8"/><path fill="url(#N)" d="M143.45 414.7q7.8-5.05 16.5-4.8 3.65.1 6.2.9l3.2 10.85q-4.7-.95-10.15.75-10.85 3.4-14.7 16.85l-1.05-24.55"/><path fill="url(#O)" d="M169.35 421.65l9.9 9.35 3.9 4.4 18.75 7.75 6.05 6.6 3.85 7.75-8.55 3.1q-9.35 3.15-13.5 3.5-4.1.35-14.6-7.8l-9.65-8.2-7.2-2.2-13.8-6.6v-.05q3.85-13.45 14.7-16.85 5.45-1.7 10.15-.75"/><path fill="url(#P)" d="M47.5 426l-.1.05-6.65-12.7q13.7-5.6 25.05-2.25 5.7 1.7 8.6 4.45l-3.7 14.4-1.8-2.25q-4.8-5.85-13.65-4.35-2.75.5-5.55 1.65l-2.2 1"/><path fill="url(#Q)" d="M47.5 426l2.2-1q2.8-1.15 5.55-1.65 8.85-1.5 13.65 4.35l1.8 2.25-.15.5 2.2 13.8.6 1.8q-8.05-6.9-17.3-4.35-3.25.9-6.3 2.9l-2.35 1.85.1-20.45"/><path fill="url(#R)" d="M73.35 446.05l7.7 24.15-8.3 11.55-29.8 6.65-6.6-18.75 8.8-15.45 2.25-7.75 2.35-1.85q3.05-2 6.3-2.9 9.25-2.55 17.3 4.35"/><path fill="#1645D0" d="M125.45 33.55q1.85 1.5 2.25 3.25l.75 1.15-1.9-1.05q-2.25-1.45-6.7.55-4.35 2-6.7 2l.7-3.5 1.25-.5.5-.75 1.45 1.2 8.4-2.35m-34.05 4.2l3.75-4 9 1.9 1.65-1.55.65.85 1.5.5 1.2 4.1q-2.8.25-8.25-1.75-5.5-2-8.1-.05l-2.2 1.5.8-1.5"/><path fill="url(#S)" d="M102.75 43.65q-2.4.35-4.8-.65l-.5-.2Q97 42 97 41.05q0-1.35.9-2.3 2.1-.5 3.15 0l1.85.95.9.55.1.8q0 1.45-1 2.45l-.15.15m-.35-2.75q-.05-.6-.5-1.05-.45-.45-1.15-.45t-1.2.45q-.45.5-.45 1.2t.45 1.15q.5.5 1.2.5t1.15-.5l.35-.45.3-.15.15-.3-.15-.35-.15-.05"/><path fill="url(#T)" d="M124.1 38.4q.45.7.45 1.7l-.1.85V41l-2.55 1.45-2.3.45-.6-.5q-.95-.95-.95-2.3 0-.5.15-.9l.95-.7q.75-.45 2.05-.55l2.9.45m-.8 1.95l.25-.15.15-.3-.15-.35-.3-.1h-.05l-.4-.6q-.45-.45-1.15-.45t-1.2.45q-.45.5-.45 1.2t.45 1.15q.5.5 1.2.5t1.15-.5l.5-.8v-.05"/><path d="M123.3 40.4l-.5.8q-.45.5-1.15.5t-1.2-.5q-.45-.45-.45-1.15t.45-1.2q.5-.45 1.2-.45t1.15.45l.4.6-.3.1-.1.35.1.3.35.15.05.05m-21.05 1.35l-.35.45q-.45.5-1.15.5t-1.2-.5q-.45-.45-.45-1.15t.45-1.2q.5-.45 1.2-.45t1.15.45q.45.45.5 1.05l-.15-.05-.35.1-.1.35.1.3.35.15"/><path fill="#fff" d="M102.25 41.75l-.35-.15-.1-.3.1-.35.35-.1.15.05.15.05.15.35-.15.3-.3.15m20.95-2.3h.05l.3.1.15.35-.15.3-.25.15h-.05l-.35-.15-.1-.3.1-.35.3-.1"/><path fill="url(#U)" d="M97.9 38.75q-.9.95-.9 2.3 0 .95.45 1.75-4.2-1.8-4.35-2.35 2.85-1.25 4.8-1.7"/><path fill="url(#V)" d="M102.75 43.65l.15-.15q1-1 1-2.45l-.1-.8 3.35 1.65q-2.2 1.45-4.4 1.75"/><path fill="url(#W)" d="M119.6 42.9q-2.05-.1-5.1-1.35l3.25-2.2q-.3.3.45-.15-.15.4-.15.9 0 1.35.95 2.3l.6.5"/><path fill="url(#X)" d="M124.1 38.4l.3.05 2.55.7-1.75 1.2-.7.6h-.05l.1-.85q0-1-.45-1.7"/><path fill="none" stroke="#77411A" stroke-width=".05" stroke-linecap="round" stroke-linejoin="round" d="M129.75 38.4l.05.8 1.05-.8m-9 37.8q-1.4 2.1-2.85 3.4-2.7 3.05-10.05 2.7l-6.55-1.15Q93.55 76.9 86.25 68.8l-3.9-4.9m47.1-5.95l.7-6.8q0-6.2-.35-11.95m-56.05-1.15l.65.4 2.65 2m3.5 20.9l-.05-.2-.2.15"/><path fill="none" stroke="#8E5027" stroke-width=".05" stroke-linecap="round" stroke-linejoin="round" d="M112.3 37.95q-.25 4.8 2.85 10.15l2.1 4.55q1.1 2.4.95 3.8l-.3 1.35q-.15-.1-.85.85t-4.35 1.65m4.95-.1l1.8-.7q1.3-.85-.4-2.95m-13.65-.4l-1.15 1.25q-.6 1.5 2 2.95m.4 9.5q1.65 1 2.9 1.2h3l3.9-.55q1.35-.5 1.75-1.5m-14-.35l1.85-.95 5.45-.55 3.35-.2 2.05.15 2.2.35q1.45.25.85.9"/><path fill="none" stroke="#0028A2" stroke-width=".05" stroke-linecap="round" stroke-linejoin="round" d="M77.05-14.9l3.9 3.5 1.9 1.75q0 .45-.35.7-.35.3-.35.7l-1.45.3.6 1.35q.65 1.95-2.3.85 1.05 3.05-.4 1-1.45-2.05-2.75-2.35l-8.45-.3h-1.5q.3 0 .3 1.05L68.95-3v2.05h-3.9l.75 1.1q1.1 1.75 1.1 4.5t-1.35 3.9Q63.85 9.9 59.3 9.9l-6.25-1h-3.1v.3l4.95 4.55q3.85 3.85 3.85 5.95 0 1.3-1.35 2.4-1.65 1.35-4.25 1.35-.95 0-4.15-1.85-3.2-1.8-4.75-1.85h-.05v.35q-.55 3.05 6.8 5.9 9.55 3.75 11.85 5.95-1.6-.4-5 1.25Q55 34.55 54.7 35l-.3 4.55q-.35 3.9-2.4 3.9l-3.05-2.7h-1.7v.35l5.2 3.4q4 2.35 5.5 2.35 1.85 0 4.2-2.35-.45 1.8-3.9 5.85-3.55 4.15-5.9 5.35.35 0 .35.3 1.2 1.8 3.7 3.4l-.3.5-.05.2-7.45.35v.25q4.15 4.45 5.4 5.15-.6 1-.6 1.35h-4.8l-4-1.5q-1.45-.65-2.2-.95l-.55-.25.35.7q.25 1.15 3.3 3.9 2.4 2.25 3.75 3.15-1.05 1.15-1.45 1.3l-2.8.1q-.65 0-3-1.35-2.15-1.25-4.2-1.35h-.05m0 .35l3.4 4.3q2.8 3.65 4.4 4.5h-.35l-1 .95-1.55.05q-2.1 0-6.05-1.45-4.9-1.8-7-4.3l.9 3.5q.55 2.2 1.2 2.95 2.65 3.25 6.05 6.1 4.4 3.75 6.75 3.75.95 0 2.05-.85l1.7-1.2-.55 1.9-1.15 1.75 5.7-1.25 5.15-1.25.25-.1h.1v-.05q1.1-.75 3.15-3.35l2.3-2.75.35.7v3.05l-1.2 1.5-.9.85 2.85-.9 3.8-2.2 4.25-3.35q3.2 2.55 6.6 5.95l.15.15v-.3q-2.45-5.75-2.7-7.55.45 0 1.95.55 1.6.55 1.8.85h2.7v-2q-.75-3.4 0-12.4 0-3.55-.5-5.5-.6-2.25-1.8-2.55l-.25-.05q-2.2-.9-5.65-7.35-3.65-6.9-4.55-10.6-.9-3.7.05-4.25.9-.6 3.3-1l.3-.05q2.1-.25 2.95 1.3l.35 1.1 1.7 6.1q.8 2.85 2.55 6.7l2.9 6.85V55l-.85-4.8q-1.1-5.25-2.2-8.1-.45-1.2-.75-3l-.6-3.45q-.25-1.15-2.35-3.85-2-2.55-2-3.3h.25q7.05 2.75 7.5 2.75v-3.1q-.65-1.1-4.1-4.25l-3.65-3.5h3.65l8.9 6 .6.45v-.35l-.5-.3-2.85-3.1-2.75-3.35.7.35q.75.75 2.45 1.2l3.3.45-1.05-1.65h.35q.85 1.65 2.25 3.35 2.15 2.75 3.85 3.05v-5.4l-.8-3.35-.2-1.75q.5 1.3 2.7 3.5 2.75 2.65 4.75 2.25v-2.7q-.65-1.3-.65-2.4 0-.4.35-.65l.3-.7-.15-1.05-.2-.95q2.8 1.4 11.6 13.2V16.35l-.7-1V12.3q2.9.85 8.85 7.1v-4.75q4.15 3.5 6.15 10.9l2.35 12.85h2.35v16.95l-1.6 2.6-2.15 2.8q-1.75 2.2-1.7 4.75.1 3.55-1.95 6.2-2.1 2.65-2.1 3.45l.3 1.05.4.8.65 1.9q0 1.05-1.85 3.4-1.9 2.4-1.9 3.2 0 1.05 1.85 3.05 2 2.1 2.25 3.75.85 5.35 3.45 6.85l.85.35 3.2.25 3-.3v-.7l-2.6-3.8q-1.7-2.55-2.65-4.45l-.85-1.9v-3.1l1.2.2 2.35.3 2.85.2 4.1-.35-1.65-1.15-1.1-1.05-.3-.7q0-.9.35-.8l3.1-.65 3.4-.95.3-.1h-.35q-2 0-4.65-2.65-2.55-2.6-2.8-4.5-1.25 1-2.75 1.35.25-1 2.4-3.55 2.05-3.5 2.05-10.05l-.2-3.7-.15-4.05q0-.25 1.35-1 1.35-.7 1.35-1.25 0-3.35-2-8.35l-3.1-7.05q1.05.05 1.55.7l.4.7.1.3v-.3q-1.85-3.85-2.35-16.95h-2.4q0-.35.35-1.6l.65-1.8v-3.05l-2-.1q-1.35-.3-1.35-1.6l.7-1.1q.7-.95.7-3.35 0-3.6-1.5-8.9-.6-2.2-.45-3.85l-1.55 1.55-5.05 2.75v-8.5h-4.05L112.05-8q-2.25.6-2.7.95v-4.75l1.35-1h-3.4q0-.35-.7-.35l-3.25.65q-4.05 1.2-5.6 2.75l-2.55-1.9q-2.45-1.65-3.9-2.2h-1.7v.7l.3 1.85q.05 1.65-.6 2.2v-.35q-1.05-3.9-4.35-5.15-2.6-1.05-7.85-.7m3.6 7.35q-.45.05-.35-.15m47.45 2.85q.55-.95.55-2.15m-90.6 78.7l-.35-.35h.35m28 18.75H64.3"/><path fill="none" stroke="#502F29" stroke-width=".05" stroke-linecap="round" stroke-linejoin="round" d="M128.85 85.7l-.35 4.8m1.45 53.55l3.2-7.15q6.65-15.9 9.1-33.15 1.2-8.6 1.1-14.05-1.5-6.15-7.95-6.05m-84.35 13.4q21.45 13.2 43.35 33.6 8.8 8.2 16 16.2m9.3-15.65q-19.6-21.6-53.95-41.5m-8.35 1.05q-2.4.9-4.05 2.45-1.25 1.2-1.9 2.65m10.9-6.1q-2.6.2-4.6.9m52.95 58.15q-6.7 10.05-15.65 17.55Q87.5 172.7 73 180.5q-11.05 6-12.85 9.7-4.3 8.95-4.35 13.35 0 1.4.45 2.15m.4.5q41.8-14 64.2-46.55l-2.55-3.35m11.65-12.25q3.9 5.65 6.8 11.4l.2.35m6.65 22.3l.15 6.05-2.95 23.35q-.9-13.2-7.35-26.95m-8.75-15.45l-3.85-5.45m6.7-60.15q-2.3 17.65-7.85 31.7m11.9 84.5q-5.75 2.35-20.25 1.65m-.85 13.9q13.3.4 20.8-2.4m-40.3.7l-3.5-2.15q-3.45-2.85-4.15-6.2-.7-3.35 3.8-4.45l1.85-.35q-11.8-1.55-24.55-4.3l-8.25-1.95m-1.3 12.7l9 2 21.35 3.9 5.75.8m-60.5 35.9l1.85 1.75 3.15 5.95-2.85 2.4q-2.85 2.7-2.85 4.15l-2.2-1.95.5 3.1q-5.8-.35-12 .2-12.35 1.15-14.15 5.75-1.05 2.75-2.5.15t-1.85-7.75q-1.05-14.2 7-21.4l10-2.6q10.45-1.7 12.05 2.9 1.65 4.65 3.85 7.35m145.05-18.25l-2.8 9.7-1.2 4.45 6.05 2.1q5.9 2.25 5 3.3l1.2.65q1.15.9 1 2.05-.1.95 8.85-3.2 9.65-3.4 12.5 1.4 4.7 8 1.25 1.65l-.05-2.95q-.25-3.6-.9-7-2.25-10.75-8.45-15.05-5.05-1.05-10.4-1.2-10.7-.3-12.05 4.1m-6.2 174.45l9.9 9.35 3.9 4.4 18.75 7.75 6.05 6.6 3.85 7.75-8.55 3.1q-9.35 3.15-13.5 3.5-4.1.35-14.6-7.8l-9.65-8.2-7.2-2.2-13.8-6.6v-.05l-1.05-24.55-.6.3-5.95-10.25-.65.35m.65-.35l9.95-5.45q11.55-5.25 16.4-2.5 4.85 2.75 7.05 3.6l1.25.25-4.4 10.5-1-.35 3.2 10.85q-4.7-.95-10.15.75-10.85 3.4-14.7 16.85m21.65-28.45q-2.55-.8-6.2-.9-8.7-.25-16.5 4.8M70.7 429.95l3.7-14.4q-2.9-2.75-8.6-4.45-11.35-3.35-25.05 2.25l6.65 12.7.1-.05 2.2-1q2.8-1.15 5.55-1.65 8.85-1.5 13.65 4.35l1.8 2.25-.15.5 2.2 13.8.6 1.8 7.7 24.15-8.3 11.55-29.8 6.65-6.6-18.75 8.8-15.45 2.25-7.75.1-20.45m-.1 20.45l2.35-1.85q3.05-2 6.3-2.9 9.25-2.55 17.3 4.35"/><path fill="none" stroke="#000" stroke-width=".05" stroke-linecap="round" stroke-linejoin="round" d="M51.45 95.85l-.4 1.2m5.2 108.65l.4.5m54.7 11.15v.15l-.85 13.7v.05m-18.55-15.8q.5-2.1 3.05-1.95l13.5.85q2.95.15 2.85 3M91 229.55l.8-13.25-2.75.1H89m2.8-.1l.15-.85Q80.8 214 67.9 211.6l-11.7-2.3v.85m34.8 19.4l-.05.45q-.15 3 2.85 3.2l13.5.85q3.05.15 3.2-2.8m-63.4 3.8l-.35-.15m9.4-26.35l.05.75m-1.35 13.75l.05-.2m-7.8 12.2l2 .75"/><path fill="none" stroke="#7C3E00" stroke-width=".05" stroke-linecap="round" stroke-linejoin="round" d="M49.1 235.8l4.4-6.6 1.35-6.15m55.55-76.2l-.15-2.3.1-5.5m.15-3.7v-.05l.85-2 3.45-1.8q2.15-.1 4.6-.05l.55.05-.25-.3m-96.85 3.05l-5.55-2.5-5.05-2.45q-2.1-1.05-2.6-1.7l-2 4.4.35 1.25q.35 1.15 1.4 2.7l1.6 2.6.35.65 11.3 1.8q.7-3.4.45-5.7l-.25-1.05 3.15-.2q3.2-.55 3.3-2.35v-.1l-.45-.55q-1.6-1.75-6.65-3.9-2.9-1.25-5.55-2.15l-5 .55-1.95 1.95-.05.1m.75 29.4l-1.6-.55-6.05-3.35.1-4.85q.4-5.7 2.05-9.7L7.65 132m21.65-.3l.15 3.75-.2 7.35-.1 1.4-.95 6.55q-1.15 4.6-3.2 5.9l-9.15 1.65h-.05l-.95.15-3.95-1.3h-.05M22.65 141l-.05.4q-.85 3.85-2.85 8.75l-1.15 2.6-2.75 5.55m102.45-2h-.1l-5.35-.65-1.3-3.5-.85-3.35-.3-1.95m11.5-10.5l1.65-.7.55-.35q2.15-1.3 1.7-2.65v-.05l-.5-.25q-1.55-.75-5.35-.85m3.75 9.75q-.6-3.3-1.8-4.9l-4.7-.2-4.3-.3-2.4-.5m15.3-2.7q1.75 3.75 3.15 7.95l.3 1.1.65 2.25v.05l.05.05m7 11.75l2.2.05 3.85 1.8 1 1.95v.1m.5 3.7l.45 5.5q.35 3.35-.8 7.55l-.55 1.65m-10.15 2.45l-1.45-.1-.7-.4h-.05l-6.8-3.75q-2.05-2.45-.1-10.15l.3-1 .05-.05m-.95-9.5l.4-4.75q.25-5.5-.4-9.3l-.05-.3-8.6 1.95-2.35-1.8-1.8-1.55-.6-.8m19.95 26.65l9.4 1.85 1.6-1.2.8-.6q1.25-.8 1.75-1.55l.65-.8m-7.55-7.6h-2.7q-4.55.15-6.3.95l-.5.25-.05.1q-.35 1.35 2 2.65l2.45 1 5.05-.25 2.15-.15 2.5-.2 2.45-.45M129.9 144q1.45 5.75 0 7.8l-6.15 3.8v.05l-.65.35-4.8.3m12.95 23.75l-.7-4.75-.05-.65q-.6-5.15-.25-8.7l.05-.25q.4-3.35 1.55-4.95m-4.45-3.65q-1.6 3.75-2.7 8m8.75 15.45l3.9.15 5.6-.7.65-1.9m-5.8 47.55l11.3-1.8 1.95-3.25q1.05-1.55 1.4-2.7l.35-1.25-2-4.4q-.5.65-2.6 1.7l-5.05 2.45-5.55 2.5q-.7 2.5.2 6.75l.05.4q1.05 4.85 4 11.35l2.75 5.55h.05l.95.15 3.95-1.3h.05m.45-.15l1.6-.55 6.05-3.35-.1-4.85q-.4-5.7-2.05-9.7l-2.75-6.55m-21.2-.95q1.6-1.75 6.65-3.9 2.9-1.25 5.55-2.15l5 .55 1.95 1.95.05.1m-13.2 6.65l-3.15-.2q-3.2-.55-3.3-2.35-.3 5.35.05 11.1l.1 1.4q.9 10.4 4.15 12.45l9.15 1.65m-13.45-26.6v-.1l.45-.55m-75.4-5.55L56 218l-1.1 4.85M35.55 338.3l-.4-.3q-3.55-2.45-6.55-5.65l-2.35-2.7 4.6-23.45 1.75-8.65v-.15h7.55l.1.05m6.5-62.55l-.35-.7-3-3.75q-2.2-2.55 1.6-13.5 1.9-5.5 4.25-10.45l6.9 2.05M58.5 343.2l4.15-26.45-23.45 7.15-.4-.9m-.25-.5l-7.7-16.3m27.65 37l6.3-2.45 5.7-38.5-13.15-.95q-13.4-1.35-16.95-3.75m22.25 19.2l1.85-12.1-13.4-.65q-6.65-.75-11.15-2.25-5.05-1.65-7.35-4.2m2.95 40.75q11.1 7.5 22.95 4.9"/><path fill="none" stroke="#624035" stroke-width=".05" stroke-linecap="round" stroke-linejoin="round" d="M29.45 135.45q16.65 1.4 21.65 14.4L49.95 156q-1.4 6.45-2.6 7.95l-.25.35-2.2-3q-3.25-3.85-7.3-6.5-4.5-2.95-9.4-4.05"/><path fill="none" stroke="#58392F" stroke-width=".05" stroke-linecap="round" stroke-linejoin="round" d="M93.35 224.7l7.1.8 1-.8q.7-.9-.65-1.55l-7.3-.8.35-5.35.1-1.3 15 1.5-.9 13.95-15.1-1.35.35-4.95v-.15h.05"/><path fill="none" stroke="#360000" stroke-width=".05" stroke-linecap="round" stroke-linejoin="round" d="M150.05 241.65l3.25 11.55q11.85 42.6 10.2 50.7l-1.6 16.15 7.3 6.75q-11.05 5.1-23.25 9.35-24.3 8.6-29.85 4.7l-6.25-1.55 1.05-7.8-1.9-2.7q-2.15-3.45-3.75-7.2-3.5-8.15-3.75-15.5l-.6 2.9q-5.05 25.25-6.7 27.2-1.6 1.95-1.25 6.35l.7 4.05q-13.25 2.6-27.05 3.05-27.65.9-30.6-9.9l-.45-1.45m65.95-32.2q-.15-3.55.5-6.9m-.5 6.9l4.15-22"/><path fill="none" stroke="#333" stroke-width=".05" stroke-linecap="round" stroke-linejoin="round" d="M40.25 297.45v-.05l2.9-46.1q0-2.05 3.95-16.25M38.8 323l-.25-.5m1.85-24.95l-.15-.1"/><path fill="none" stroke="#77411A" stroke-width=".05" stroke-linecap="round" stroke-linejoin="round" d="M124.5 40.95l.7-.6 1.75-1.2-2.55-.7-.3-.05m.4 2.55l-.05.05-2.55 1.45-2.3.45q-2.05-.1-5.1-1.35l3.25-2.2q-.3.3.45-.15l.95-.7q.75-.45 2.05-.55l2.9.45m-26.65 4.4l.5.2q2.4 1 4.8.65l.15-.15q1-1 1-2.45l-.1-.8-.9-.55-1.85-.95q-1.05-.5-3.15 0m-.45 4.05q-4.2-1.8-4.35-2.35 2.85-1.25 4.8-1.7m4.85 4.9q2.2-.3 4.4-1.75l-3.35-1.65"/><path fill="none" stroke="#8E5027" stroke-width=".05" stroke-linecap="round" stroke-linejoin="round" d="M108.6 39.6l.85 1.95q.75 2.6-1.3 11.05"/></svg>