<svg xmlns="http://www.w3.org/2000/svg" viewBox="3.8 21.9 176.1 316.4" width="176.1" height="316.4" preserveAspectRatio="xMinYMin"><defs><linearGradient gradientUnits="userSpaceOnUse" x1="-819.2" x2="819.2" gradientTransform="matrix(.005 .021 -.039 .009 66.55 183.7)" id="a"><stop offset="0" stop-color="#663332"/><stop offset=".478" stop-color="#746247"/><stop offset="1" stop-color="#633"/></linearGradient><linearGradient gradientUnits="userSpaceOnUse" x1="-819.2" x2="819.2" gradientTransform="matrix(.005 .003 -.008 .016 55.05 127.75)" id="b"><stop offset="0" stop-color="#663332"/><stop offset=".478" stop-color="#746247"/><stop offset="1" stop-color="#633"/></linearGradient><linearGradient gradientUnits="userSpaceOnUse" x1="-819.2" x2="819.2" gradientTransform="matrix(-.001 -.009 .014 -.002 36.9 162.7)" id="c"><stop offset="0" stop-color="#663332"/><stop offset=".478" stop-color="#746247"/><stop offset="1" stop-color="#633"/></linearGradient><linearGradient gradientUnits="userSpaceOnUse" x1="-819.2" x2="819.2" gradientTransform="matrix(-.003 -.022 .045 -.007 86.8 174.45)" id="d"><stop offset="0" stop-color="#663332"/><stop offset=".478" stop-color="#746247"/><stop offset="1" stop-color="#633"/></linearGradient><linearGradient gradientUnits="userSpaceOnUse" x1="-819.2" x2="819.2" gradientTransform="matrix(.011 .006 -.006 .012 127.65 123.1)" id="e"><stop offset="0" stop-color="#663332"/><stop offset=".478" stop-color="#746247"/><stop offset="1" stop-color="#633"/></linearGradient><linearGradient gradientUnits="userSpaceOnUse" x1="-819.2" x2="819.2" gradientTransform="matrix(.005 .035 -.026 .004 129.65 177.4)" id="f"><stop offset="0" stop-color="#663332"/><stop offset=".478" stop-color="#746247"/><stop offset="1" stop-color="#633"/></linearGradient><linearGradient gradientUnits="userSpaceOnUse" x1="-819.2" x2="819.2" gradientTransform="matrix(-.001 -.004 .005 -.001 142.95 147.55)" id="g"><stop offset="0" stop-color="#663332"/><stop offset=".478" stop-color="#746247"/><stop offset="1" stop-color="#633"/></linearGradient><radialGradient gradientUnits="userSpaceOnUse" r="819.2" cx="0" cy="0" spreadMethod="pad" gradientTransform="matrix(.01 0 0 .01 126.4 219.8)" id="h"><stop offset=".051" stop-color="#E5B17C"/><stop offset=".71" stop-color="#c60"/><stop offset="1"/></radialGradient><radialGradient gradientUnits="userSpaceOnUse" r="819.2" cx="0" cy="0" spreadMethod="pad" gradientTransform="matrix(.013 0 0 .013 126.95 225.35)" id="i"><stop offset=".051" stop-color="#E5B17C"/><stop offset=".71" stop-color="#c60"/><stop offset="1"/></radialGradient><radialGradient gradientUnits="userSpaceOnUse" r="819.2" cx="0" cy="0" spreadMethod="pad" gradientTransform="matrix(.015 0 0 .015 122.05 232.25)" id="j"><stop offset=".051" stop-color="#E5B17C"/><stop offset=".71" stop-color="#c60"/><stop offset="1"/></radialGradient><radialGradient gradientUnits="userSpaceOnUse" r="819.2" cx="0" cy="0" spreadMethod="pad" gradientTransform="matrix(.014 0 0 .014 131.3 229.9)" id="k"><stop offset=".051" stop-color="#E5B17C"/><stop offset=".71" stop-color="#c60"/><stop offset="1"/></radialGradient><radialGradient gradientUnits="userSpaceOnUse" r="819.2" cx="0" cy="0" spreadMethod="pad" gradientTransform="matrix(.08 0 0 .08 79.95 245.55)" id="l"><stop offset="0" stop-color="#8F0101"/><stop offset="1"/></radialGradient><linearGradient gradientUnits="userSpaceOnUse" x1="-819.2" x2="819.2" gradientTransform="matrix(-.001 .008 -.01 -.001 110.95 226.2)" id="m"><stop offset="0" stop-color="#663332"/><stop offset=".478" stop-color="#746247"/><stop offset="1" stop-color="#633"/></linearGradient><linearGradient gradientUnits="userSpaceOnUse" x1="-819.2" x2="819.2" gradientTransform="matrix(.01 0 0 .01 95.4 226.45)" id="n"><stop offset="0" stop-color="#999"/><stop offset="1" stop-color="#ccc"/></linearGradient><linearGradient gradientUnits="userSpaceOnUse" x1="-819.2" x2="819.2" gradientTransform="matrix(-.001 .007 -.007 -.001 95.4 226.2)" id="o"><stop offset="0" stop-color="#663332"/><stop offset=".478" stop-color="#746247"/><stop offset="1" stop-color="#633"/></linearGradient><linearGradient gradientUnits="userSpaceOnUse" x1="-819.2" x2="819.2" gradientTransform="matrix(0 .006 -.004 0 84.8 225.55)" id="p"><stop offset="0" stop-color="#663332"/><stop offset=".478" stop-color="#746247"/><stop offset="1" stop-color="#633"/></linearGradient><linearGradient gradientUnits="userSpaceOnUse" x1="-819.2" x2="819.2" gradientTransform="matrix(-.001 .008 -.017 -.001 74.15 223.4)" id="q"><stop offset="0" stop-color="#663332"/><stop offset=".478" stop-color="#746247"/><stop offset="1" stop-color="#633"/></linearGradient><radialGradient gradientUnits="userSpaceOnUse" r="819.2" cx="0" cy="0" spreadMethod="pad" gradientTransform="matrix(.02 0 0 .02 58.9 219.8)" id="r"><stop offset=".051" stop-color="#E5B17C"/><stop offset=".71" stop-color="#c60"/><stop offset="1"/></radialGradient><linearGradient gradientUnits="userSpaceOnUse" x1="-819.2" x2="819.2" gradientTransform="matrix(.03 0 0 .043 89.6 67.5)" id="s"><stop offset="0" stop-color="#D98651"/><stop offset=".533" stop-color="#DFA168"/><stop offset="1" stop-color="#D98651"/></linearGradient><linearGradient gradientUnits="userSpaceOnUse" x1="-819.2" x2="819.2" gradientTransform="matrix(-.001 -.033 .002 0 115 49.3)" id="t"><stop offset="0" stop-color="#D98651"/><stop offset=".533" stop-color="#DFA168"/><stop offset="1" stop-color="#D98651"/></linearGradient><linearGradient gradientUnits="userSpaceOnUse" x1="-819.2" x2="819.2" gradientTransform="matrix(-.002 0 0 -.003 85.8 66.55)" id="u"><stop offset="0" stop-color="#fff"/><stop offset="1" stop-color="#666"/></linearGradient><linearGradient gradientUnits="userSpaceOnUse" x1="-819.2" x2="819.2" gradientTransform="matrix(.002 0 0 .002 95.5 66.45)" id="v"><stop offset="0" stop-color="#fff"/><stop offset="1" stop-color="#666"/></linearGradient><linearGradient gradientUnits="userSpaceOnUse" x1="-819.2" x2="819.2" gradientTransform="matrix(-.002 0 0 -.003 104.75 66.55)" id="w"><stop offset="0" stop-color="#fff"/><stop offset="1" stop-color="#666"/></linearGradient><linearGradient gradientUnits="userSpaceOnUse" x1="-819.2" x2="819.2" gradientTransform="matrix(.001 0 0 .001 112.4 66.05)" id="x"><stop offset="0" stop-color="#fff"/><stop offset="1" stop-color="#666"/></linearGradient><radialGradient gradientUnits="userSpaceOnUse" r="819.2" cx="0" cy="0" spreadMethod="pad" gradientTransform="matrix(.003 0 0 .003 90.45 66.4)" id="y"><stop offset=".663" stop-color="#03f"/><stop offset="1"/></radialGradient><radialGradient gradientUnits="userSpaceOnUse" r="819.2" cx="0" cy="0" spreadMethod="pad" gradientTransform="matrix(.003 0 0 .003 109.3 66.15)" id="z"><stop offset=".663" stop-color="#03f"/><stop offset="1"/></radialGradient><linearGradient gradientUnits="userSpaceOnUse" x1="-819.2" x2="819.2" gradientTransform="matrix(0 .002 -.008 0 99.3 90)" id="A"><stop offset="0" stop-color="#7E3434"/><stop offset=".506" stop-color="#B54A4A"/><stop offset="1" stop-color="#662B2B"/></linearGradient><linearGradient gradientUnits="userSpaceOnUse" x1="-819.2" x2="819.2" gradientTransform="matrix(0 -.001 .008 0 99.65 88.1)" id="B"><stop offset="0" stop-color="#7E3434"/><stop offset=".506" stop-color="#B54A4A"/><stop offset="1" stop-color="#662B2B"/></linearGradient><linearGradient gradientUnits="userSpaceOnUse" x1="-819.2" x2="819.2" gradientTransform="matrix(.017 .009 -.01 .02 128.05 314.15)" id="C"><stop offset="0" stop-color="#663332"/><stop offset=".478" stop-color="#746247"/><stop offset="1" stop-color="#633"/></linearGradient><linearGradient gradientUnits="userSpaceOnUse" x1="-819.2" x2="819.2" gradientTransform="matrix(.024 .012 -.01 .019 87.5 325.75)" id="D"><stop offset="0" stop-color="#663332"/><stop offset=".478" stop-color="#746247"/><stop offset="1" stop-color="#633"/></linearGradient><linearGradient gradientUnits="userSpaceOnUse" x1="-819.2" x2="819.2" gradientTransform="matrix(.002 .018 -.016 .002 15.7 276.3)" id="E"><stop offset="0" stop-color="#663332"/><stop offset=".478" stop-color="#746247"/><stop offset="1" stop-color="#633"/></linearGradient><linearGradient gradientUnits="userSpaceOnUse" x1="-819.2" x2="819.2" gradientTransform="matrix(.003 .02 -.017 .002 165.05 260.2)" id="F"><stop offset="0" stop-color="#663332"/><stop offset=".478" stop-color="#746247"/><stop offset="1" stop-color="#633"/></linearGradient><radialGradient gradientUnits="userSpaceOnUse" r="819.2" cx="0" cy="0" spreadMethod="pad" gradientTransform="matrix(-.011 .002 .002 .011 26.65 143.4)" id="G"><stop offset=".051" stop-color="#E5B17C"/><stop offset=".71" stop-color="#c60"/><stop offset="1"/></radialGradient><radialGradient gradientUnits="userSpaceOnUse" r="819.2" cx="0" cy="0" spreadMethod="pad" gradientTransform="matrix(-.014 .003 .003 .014 27.15 149.6)" id="H"><stop offset=".051" stop-color="#E5B17C"/><stop offset=".71" stop-color="#c60"/><stop offset="1"/></radialGradient><radialGradient gradientUnits="userSpaceOnUse" r="819.2" cx="0" cy="0" spreadMethod="pad" gradientTransform="matrix(-.016 .003 .003 .016 33.9 156.2)" id="I"><stop offset=".051" stop-color="#E5B17C"/><stop offset=".71" stop-color="#c60"/><stop offset="1"/></radialGradient><radialGradient gradientUnits="userSpaceOnUse" r="819.2" cx="0" cy="0" spreadMethod="pad" gradientTransform="matrix(-.016 .003 .003 .016 23.3 155.45)" id="J"><stop offset=".051" stop-color="#E5B17C"/><stop offset=".71" stop-color="#c60"/><stop offset="1"/></radialGradient><radialGradient gradientUnits="userSpaceOnUse" r="819.2" cx="0" cy="0" spreadMethod="pad" gradientTransform="matrix(.035 0 0 .035 78.8 320.45)" id="K"><stop offset=".051" stop-color="#E5B17C"/><stop offset=".71" stop-color="#c60"/><stop offset="1"/></radialGradient><radialGradient gradientUnits="userSpaceOnUse" r="819.2" cx="0" cy="0" spreadMethod="pad" gradientTransform="matrix(.023 0 0 .023 69.75 316.6)" id="L"><stop offset=".051" stop-color="#E5B17C"/><stop offset=".71" stop-color="#c60"/><stop offset="1"/></radialGradient><radialGradient gradientUnits="userSpaceOnUse" r="819.2" cx="0" cy="0" spreadMethod="pad" gradientTransform="matrix(.03 0 0 .03 72.15 327.35)" id="M"><stop offset=".051" stop-color="#E5B17C"/><stop offset=".71" stop-color="#c60"/><stop offset="1"/></radialGradient><radialGradient gradientUnits="userSpaceOnUse" r="819.2" cx="0" cy="0" spreadMethod="pad" gradientTransform="matrix(.007 .003 -.002 .007 145.7 303.1)" id="N"><stop offset=".051" stop-color="#E5B17C"/><stop offset=".71" stop-color="#c60"/><stop offset="1"/></radialGradient><radialGradient gradientUnits="userSpaceOnUse" r="819.2" cx="0" cy="0" spreadMethod="pad" gradientTransform="matrix(.011 .004 -.004 .01 139.45 310.3)" id="O"><stop offset=".051" stop-color="#E5B17C"/><stop offset=".71" stop-color="#c60"/><stop offset="1"/></radialGradient><radialGradient gradientUnits="userSpaceOnUse" r="819.2" cx="0" cy="0" spreadMethod="pad" gradientTransform="matrix(.01 .003 -.003 .009 144.75 306.95)" id="P"><stop offset=".051" stop-color="#E5B17C"/><stop offset=".71" stop-color="#c60"/><stop offset="1"/></radialGradient><radialGradient gradientUnits="userSpaceOnUse" r="819.2" cx="0" cy="0" spreadMethod="pad" gradientTransform="matrix(.01 .004 -.003 .009 146.85 311.15)" id="Q"><stop offset=".051" stop-color="#E5B17C"/><stop offset=".71" stop-color="#c60"/><stop offset="1"/></radialGradient><radialGradient gradientUnits="userSpaceOnUse" r="819.2" cx="0" cy="0" spreadMethod="pad" gradientTransform="matrix(.009 .005 -.005 .008 132.4 299.15)" id="R"><stop offset=".051" stop-color="#E5B17C"/><stop offset=".71" stop-color="#c60"/><stop offset="1"/></radialGradient><radialGradient gradientUnits="userSpaceOnUse" r="819.2" cx="0" cy="0" spreadMethod="pad" gradientTransform="matrix(.012 .007 -.006 .011 130.3 304)" id="S"><stop offset=".051" stop-color="#E5B17C"/><stop offset=".71" stop-color="#c60"/><stop offset="1"/></radialGradient><radialGradient gradientUnits="userSpaceOnUse" r="819.2" cx="0" cy="0" spreadMethod="pad" gradientTransform="matrix(.013 .007 -.007 .012 132.1 310)" id="T"><stop offset=".051" stop-color="#E5B17C"/><stop offset=".71" stop-color="#c60"/><stop offset="1"/></radialGradient><radialGradient gradientUnits="userSpaceOnUse" r="819.2" cx="0" cy="0" spreadMethod="pad" gradientTransform="matrix(.013 .008 -.007 .012 122.65 307.3)" id="U"><stop offset=".051" stop-color="#E5B17C"/><stop offset=".71" stop-color="#c60"/><stop offset="1"/></radialGradient><radialGradient gradientUnits="userSpaceOnUse" r="819.2" cx="0" cy="0" spreadMethod="pad" gradientTransform="matrix(.127 0 0 .127 99 44)" id="V"><stop offset="0" stop-color="#fff"/><stop offset=".314" stop-color="#6282E0"/><stop offset=".502" stop-color="#03c"/><stop offset="1"/></radialGradient></defs><path fill="url(#a)" d="M63.65 115.2l.35-.05 2.7-.2 1.05 7.05q1.7 8.6 4.75 16.4l1.4 3.3q8.3 19 23 26.65-1 2.2-4.15 5.35l-2.95 2.6-1.85 1.4-.2.15q-8.25 5.7-17.85 4.2-3.4-.5-6.5-1.85l-2.45-1.25q-10.55-5-12.2-15l.2-.3-.35-.7q-.65-5.35 1.05-12l1.2-4 1.4-3.65-1.4 3.65-1.2 4q-1.7 6.65-1.05 12-2.9-4.95-12.7-6.2l-6.95-.4-3 .1q-1.15-5.1-1.45-9.5-.2-2.75 0-5.25.85-13.4 11.9-18.5 5.15-2.4 10.05-4.1l6.15-1.9 2.7-.65-3.1 9.25q-2.6 10.65.05 17.5l.7-1.6 1.9-3.95 3.25-5.55.3-.25q.2-2.6 2.75-9.95l2.5-6.8"/><path fill="url(#b)" d="M63.65 115.2l-2.5 6.8q-2.55 7.35-2.75 9.95l-.3.25-3.25 5.55-1.9 3.95-.7 1.6q-2.65-6.85-.05-17.5l3.1-9.25.2-.05 8.15-1.3"/><path fill="url(#c)" d="M48.6 168.8q-2.9-5-13.4-6.45l-10-.4.75-5.5 3-.1 6.95.4q9.8 1.25 12.7 6.2l.15 1q-.5 1.9-.15 4.85"/><path fill="url(#d)" d="M48.6 168.8q-.35-2.95.15-4.85 1.65 10 12.2 15l2.45 1.25q3.1 1.35 6.5 1.85 9.6 1.5 17.85-4.2l.2-.15 1.85-1.4 2.95-2.6q3.15-3.15 4.15-5.35 2.4 1.25 4.95 2.2 2.35-.55 4.75-3.4-.1 3.05 1.15 5.15l2.25 2.5.2.2 1 .45q6.4 3.05 13.45 1.8l-2.25 12.25q-8.7 3.15-21.7 4.1-25.95 2-47.4-8.65l-.25-.6q-1.4-3.4-2.65-7.5-1.4-4.7-1.8-8.05"/><path fill="url(#e)" d="M121.9 111.15l1.55-.15 5.4.5 2.8 9.45q2.6 10.25.35 16.6-1.75-3.05-3.35-6.6l-1.35-3.6-1.45-4.6-.75-2.05-2.4-6.4q-.75-2.15-.75-2.6l-.05-.55"/><path fill="url(#f)" d="M121.9 111.15l.05.55q0 .45.75 2.6l2.4 6.4.75 2.05 1.45 4.6 1.35 3.6q1.6 3.55 3.35 6.6 2.25-6.35-.35-16.6l-2.8-9.45 1.55.35q2.75.7 6.4 2l1.05.45q8.05 4.2 6.9 27.25l.85 2.3h-.05q-4.25 1.45-6.8 3.3v.05l.65 1.35.95 2.65 1.05 4.55q1.7 11.35-7 17.65l-2.5 1.45q-3.2 1.6-6.65 2.3l-.6.1q-7.05 1.25-13.45-1.8l-1-.45-.2-.2-2.25-2.5q-1.25-2.1-1.15-5.15 1.65-2.05 3.35-5.2 7.9-14.95 7.95-47.65v-2.75l4-.4m10.1 26.4q2.8 4.7 6 8.1l.75 1.5-.75-1.5q-3.2-3.4-6-8.1m7.95 14.1l.4-.45-.4.45"/><path fill="url(#g)" d="M145.6 143.95l1.55 4.3-2.6.45q-2.6.75-4.2 2.5l-.95-2.65-.65-1.35v-.05q2.55-1.85 6.8-3.3l.05.1"/><path fill="url(#h)" d="M133.65 217.55l-2 1.35-3.85 1.85-1 .5h-.05l-3.25 1.45h-1.4l-.45-.05-.55-.1-.7-.15q-1.8-.5-1.85-1.65v-.1l.35-.4q1.2-1.35 5.1-3.05l1.95-.75 2.35-.9 3.85.45 1.5 1.5v.05"/><path fill="url(#i)" d="M133.65 217.55l1.55 3.4-.25.95-1.1 2.1-1.5 2.5-1.2.2-2.95.45-.05.05-1.2.2-.35.05-2.95.45q-.35-1.55-.35-2.75-.1-1.45.2-2.45l3.25-1.45h.05l1-.5 3.85-1.85 2-1.35"/><path fill="url(#j)" d="M118.55 220.75q.05 1.15 1.85 1.65l.7.15.55.1.45.05h1.4q-.3 1-.2 2.45 0 1.2.35 2.75l.05.3.55 2.1.1.35q.85 2.85 2.45 6.3l2.1 4.3-7.05-1.3q-1.35-.85-2.15-3.55l-.15-.4q-.6-2.2-.9-5.65l-.1-1.05-.05-1.85-.05-3.7v-.6l.1-2.4"/><path fill="url(#k)" d="M123.65 227.9l2.95-.45.35-.05 1.2-.2.05-.05 2.95-.45 1.2-.2 1.5-2.5 1.1-2.1.25-.95 2.15 5.05q1.25 3.1 1.55 7.5l.1 3.7-1.35.75-3.3 1.85-1.25.4-.35.15h-.05l-3.05 1-.7-.1h-.05l-2.1-4.3q-1.6-3.45-2.45-6.3l-.1-.35-.55-2.1-.05-.3"/><path fill="url(#l)" d="M128.9 241.25h.05l.7.1 3.05-1h.05l.35-.15 1.25-.4 3.3-1.85q3.85 9.65 5.75 24.3-7.4-.2-16.4 2.2-17.55 4.6-27.2 17.65.25-.25 0 .1-7.8-4-18.05-6.85-20.8-5.8-38.45-1.5-.4-8.8 0-18.85.6-14.6 7.2-24.3.15.55.45.9l2.3 2.9.3.5.25.15 1.55.55 3.4-5.05 1.05-4.75v-.15l6.95 1.55 16.45 3 4.45.6-.05.35q-.1 2.3 2.2 2.45l10.4.65q2.3.15 2.4-2.15 10.25.3 16.05-1.85.3 3.45.9 5.65l.15.4q.8 2.7 2.15 3.55l7.05 1.3M95.85 275.1q2.75-4.5 5.8-8.6 6.1-8.2 10.7-11.55-4.6 3.35-10.7 11.55-3.05 4.1-5.8 8.6l.95 1.55 3 5.45-3-5.45-.95-1.55q-4.95-10.35-12.5-15.55l-4.7-2.65-1.85-.7 1.85.7 4.7 2.65q7.55 5.2 12.5 15.55"/><path fill="url(#m)" d="M118.9 220.25l-.35.4v.1l-.1 2.4v.6l.05 3.7.05 1.85.1 1.05q-5.8 2.15-16.05 1.85v-.05l.7-10.55v-.1q11.15.55 15.6-1.25"/><path fill="url(#n)" d="M88.25 220.7l.1-.65q.4-1.65 2.35-1.5l10.4.65q2.25.1 2.2 2.3v.1l-.7 10.55v.05q-.1 2.3-2.4 2.15l-10.4-.65q-2.3-.15-2.2-2.45l.05-.35.6-10.2m1.15 6.6l-.15 2.4-.1 1.4 11.6 1.05.15-2.05.3-4.2v-.45l.25-4.05-11.55-1.15-.05 1-.25 3.55v.45l-.05.1 5.65.6q1.05.5.5 1.2l-.8.65-5.45-.65h-.05v.15"/><path fill="url(#o)" d="M89.4 227.3l.05-.15 5.45.65.8-.65q.55-.7-.5-1.2l-5.65-.6.05-.1v-.45l.25-3.55.05-1 11.55 1.15-.25 4.05v.45l-.3 4.2-.15 2.05-11.6-1.05.1-1.4.15-2.4"/><path fill="url(#p)" d="M86.1 220.75h.05l2.1-.05-.6 10.2q-1.3-.55-2.55-1.55l-.15-.1q-2.65-2.2-3.2-4.75v-.05l-.05-.5v-.25q.1-1.95 2.95-2.65l1.45-.3"/><path fill="url(#q)" d="M86.1 220.75l-1.45.3q-2.85.7-2.95 2.65v.25l.05.5v.05q.55 2.55 3.2 4.75l.15.1q1.25 1 2.55 1.55l-4.45-.6-16.45-3-6.95-1.55.15-.65.7-3.1.05-.75v-.4l.05-2.1v-.2l.05-1.65v-.95l6.4 1.5q9.8 2.1 18.9 3.3"/><path fill="#360000" d="M89.4 227.3v-.15h.05l-.05.15"/><path fill="url(#r)" d="M50.5 230.7q-.75-2.55 1.7-9.5 1.45-4.25 3.25-8.05l5.35 1.55v2.2l-.05 1.65v.2l-.05 2.1v.4l-.05.75-.7 3.1-.15.65v.15l-1.05 4.75-3.4 5.05-1.55-.55-.25-.15-.3-.5-2.3-2.9q-.3-.35-.45-.9"/><path fill="url(#s)" d="M68.15 64.75Q63.9 46.05 77.2 37.5q6.65-4.25 14.1-4.95 14.65-.9 19.85 8.65 1.7 3.15 2.35 7.5l.55 5.25V54q.4 2.95 0 7.25v1l-.1-.15-.05.6v.05l-.1.95-.15.8q.75 5.75.55 14l-.05.5-.1 3.2q-.7 3.55-4 9l-2.35 3.55-.85 1.15-3.95 5.65q-.8.65-2.05 1.05-4.35-.05-12.65-4.45l-7.4-4.45-.4-.2-1.6-1.05q-2.8-2.2-4.2-6.55l-.95-5.1q-.45.55-2.1.85-1.95.35-2.85-2.35l-.5-2.8q-.3 0-.85-.9-1.05-1.85-2.1-6.5l-.1-.45q-.8-4.15 2.5-3.95l.5.05q1.5.2 3.2 1.05-1.7-.85-3.2-1.05M73.6 80l.15.55-.15-.55m.05.8l.1-.2v-.05l-.1.25"/><path fill="url(#t)" d="M113.8 63.7q.85-.65 1.65-.5.3.05.6.25l.95.85V68l-1.65 3.7.55 1.1q.55 1.6.55 3.9 0 2.2-1 2.3h-.1l-1.15-.5q.2-8.25-.55-14l.15-.8"/><path fill="#630" d="M112.4 65.8v.2l-.1.4-.25-.45-.3-.4-.4-.5-1.3-.9-1.6-.15-.5.1-.8.25-1.9 1.3 1.15-1.3.6-.7.35-.55.3.15.1.1.05.2h.05l.1-.1.1-.15v-.15l.25-.3.2.35.05.1h.15l.05-.15q.05-.15.2-.15l.05.15.1.2.3-.2.15.05.05.2.1.35h.25l.1-.1.4-.15.5.45.65.4.05.05.05.45h.3l.05.1v.55h.3l.05.3m-1.35 2.8l-.3.1-.25.35-.45-.25-.4.3-.4-.1H109l-.05.3q-.2-.25-.4-.25l-.05.05v.2l-.55-.25-.4-.15q-.6-.15-1-.45l2.3.2 1.2-.1q1.05-.25 1.7-.8l.3-.3.3-.45.35.9h-.35v.5l-.3-.05-.25.05h-.05q-.35.1-.15.45l-.15-.05-.4-.2M89.5 64.15l-2.6.4q-1.95 1.1-2.4 2.2l.05.1-.45-.3-.45-.8h.6l-.15-.5.45.15h.25l-.05-.35v-.35l.75.15q-.15-.3.1-.5.2-.2.55 0 .1-.3.4-.35l.35.05.05-.45q.2-.1.7.4v-.35l.05-.05.6.35q.05-.25.25-.2l.35.05.45-.4.55.55.25-.2.3.2.3.25.35-.15.05-.05q.25 0 .75.4l.55.55h-.05q-1.55-.7-2.9-.8m-5.6 4.5v-.45l.4-1.05 2.3 1.35 4.2.6-.15.05-.1.35-.85-.25-.4.3-.55-.25-.15.1-.35.1-.55-.45-.35.25-.3-.2-.15-.25-.25.3-.1-.05-.3-.35-.35.15-.1-.55-.55.2q-.2-.15-.4-.15l-.95.25M97.45 82.6v-.85q.45-.6 2.4.5l-1.75.15-.65.2"/><path fill="url(#u)" d="M89.5 64.15l-.8.5q-.7.75-.7 1.75t.7 1.7l.7.5q-2.25-.05-4.6-1.65l-.3-.2q.45-1.1 2.4-2.2l2.6-.4"/><path fill="url(#v)" d="M92.15 68.1q.75-.7.75-1.7 0-.8-.5-1.45l.1.05q1.35.65 2.85 1.75-1.35.9-3.15 1.4l-.05-.05"/><path fill="url(#w)" d="M108.7 68.2l-.75-.05-3.2-.8-.7-.3.7-.9.5-.5 1.9-1.3.8-.25.5-.1-.5.25-.25.2q-.65.7-.65 1.6 0 .95.65 1.55l.25.25.75.35"/><path fill="url(#x)" d="M112.3 66.4l.1.15-.35.3-.3.25-.8.55-.05-.05q.65-.6.65-1.55l-.2-1 .4.5.3.4.25.45"/><path d="M110.7 65.7v.3q0 .55-.4.9l-.25.25-.65.15q-.55 0-.95-.4-.35-.35-.35-.9t.35-.95q.4-.35.95-.35l.5.1-.1.05-.2.45.2.4.25.2h.15l.45-.2h.05m-18.9.25l.05.35q0 .55-.4.9-.35.4-.9.4t-.95-.4q-.35-.35-.35-.9t.35-.95q.4-.35.95-.35l.45.1-.2.4.2.4q.15.2.4.2l.4-.15"/><path fill="#fff" d="M91.8 65.95l-.4.15q-.25 0-.4-.2l-.2-.4.2-.4v-.05l.4-.15.45.15.15.45-.15.4-.05.05m18.1-1.15l.15-.05.15-.05.45.15.15.45-.1.4h-.05l-.45.2h-.15l-.25-.2-.2-.4.2-.45.1-.05"/><path fill="url(#y)" d="M89.4 68.6l-.7-.5q-.7-.7-.7-1.7t.7-1.75l.8-.5q1.35.1 2.9.8.5.65.5 1.45 0 1-.75 1.7l-.05.1-1.45.3-1.25.1m1.6-3.5l-.45-.1q-.55 0-.95.35-.35.4-.35.95 0 .55.35.9.4.4.95.4.55 0 .9-.4.4-.35.4-.9l-.05-.35.05-.05.15-.4-.15-.45-.45-.15-.4.15v.05"/><path fill="url(#z)" d="M110.9 67.6l-.05.1-.25.1-.55.25-1.35.15-.75-.35-.25-.25q-.65-.6-.65-1.55 0-.9.65-1.6l.25-.2.5-.25 1.6.15 1.3.9.2 1q0 .95-.65 1.55m-1-2.8l-.5-.1q-.55 0-.95.35-.35.4-.35.95 0 .55.35.9.4.4.95.4l.65-.15.25-.25q.4-.35.4-.9v-.3l.1-.4-.15-.45-.45-.15-.15.05-.15.05"/><path fill="url(#A)" d="M105.7 88.45l-1.5 2.65-1.4.65h-3.55q-3.05.15-5.05-1.35l-1.35-1.65.45-.1.75-.1 4.55.35 3 .35.75-.25 2.35-.7 1 .15"/><path fill="url(#B)" d="M105.7 88.45l-1-.15-2.35.7-.75.25-3-.35-4.55-.35-.75.1 5.15-1.35h.3l1.3.6.05.05q.95.6 1.5.4l.5-.45.2-.25 2.2-.1 1.4.9h-.2"/><path fill="#0637CD" d="M103.15 61.85l5.05-1.95 1.85.1 1.2.65 1.45 2-.65-.7-.3-.25q-.7-.55-1.5-.75l-1.65.4-2.25 1.25q-.9.55-1.6.75l-.75.15q-.9.05-1.05-.5l.2-1.15m-6.45-.75q.7.75-.45 1.65l-.8.05q-1.5-.8-3.6-1.6-4.2-1.55-5.6-.1L82 63.5q-2.05 1.25 1.75-1.5t5.3-2.65l3.4.45q3.55.55 4.25 1.3"/><path fill="url(#C)" d="M108.8 317.3q7.5-8.05 15.8-13.5 16.5-10.85 20.25 2.25l-.75 11.25q-1.3-2.25-6.1-2.55-9.6-.55-28.2 11.05l-1-8.5"/><path fill="url(#D)" d="M108.8 317.3l1 8.5.5 4.25q-4.85-4.3-12.65-5.8-15.55-3-30.1 11.05l-4.5-10.5q4.85-6.35 13-10.5 16.3-8.25 32.75 3"/><path fill="url(#E)" d="M21.6 267.45l3.45 3.05 3.45 3.85-3.6-.1q-3.8.95-4.5 6.25l-2 .05q-2.4.25-4.35 1.1Q7.95 284.3 8.9 292q-2.6 0-4.1-3.25-3-6.5 2.9-23.9 2.75-1.65 5.8-2.65 6.2-2.1 7.6 1.2l.5 4.05"/><path fill="url(#F)" d="M157.3 247.8l4.75-3.05q5.15-2.45 7.1.4 3.1 4.6 7.7 13.45l2.7 5.75.35 8.45-3.05 2.3q-2.4-3.35-5.4-6-6.05-5.25-9.2-1.65l-1.15-3.1v5q-1.75-1.75-3.55-2.65-3.7-1.85-4.15 2.25-1.55-2-1.8-4.9-.6-5.8 5.65-10.1l.05-6.15"/><path fill="url(#G)" d="M35.5 142.85q.15 1.55-2.45 2.5l-2.6.6-5.1-1.25-2-.6-2.65-.7-2.45-1.05v-.1l1.4-1.95 4.15-1.2.7.1 4.3.85q4.6 1.1 6.2 2.3l.5.45v.05"/><path fill="url(#H)" d="M30.45 145.95l.35.9q.55 1.9.45 4.9l-8.85.2-1-.05-.35-.5-1.75-1.95q-1.15-1.15-1.6-2.05l-.5-1.05 1.05-4 2.45 1.05 2.65.7 2 .6 5.1 1.25"/><path fill="url(#I)" d="M30.45 145.95l2.6-.6q2.6-.95 2.45-2.5l.7 3.2.9 6.2.1 1.25q.35 3.25.2 5.65-.25 4.1-1.8 5.5l-7.5 2.75 1.5-5.1.55-2.35q1-4.45 1.15-7.9l-.05-.3q.1-3-.45-4.9l-.35-.9"/><path fill="url(#J)" d="M31.25 151.75l.05.3q-.15 3.45-1.15 7.9l-.55 2.35-1.5 5.1-.05.05-.8.2-3.55-.5h-.4l-1.45-.3L16.2 165l-.6-4.2q-.55-4.85.3-8.5l1.3-5.95.5 1.05q.45.9 1.6 2.05l1.75 1.95.35.5 1 .05 8.85-.2"/><path fill="url(#K)" d="M54.65 305.55v-.1H60l.1.05.1.05q1.2.8 3.9 1.45l.25.05 7.85 1.15 9.3.65-4.05 27.25-4.45 1.75 2.95-18.7 1.3-8.6-9.5-.45-3.6-.5-.6-.15h-.2l-3.5-.95q-3.55-1.15-5.2-2.95"/><path fill="url(#L)" d="M54.65 305.55q1.65 1.8 5.2 2.95l3.5.95h.2l.6.15 3.6.5 9.5.45-1.3 8.6-16.6 5.05-.3-.65-.15-.35-5.45-11.55 1.2-6.1"/><path fill="url(#M)" d="M75.95 319.15L73 337.85l-3.6.45-3.7-.2-.05-.05q-4.55-.75-8.9-3.7l-.3-.2q-2.5-1.7-4.6-4l-1.65-1.9 3.25-16.6 5.45 11.55.15.35.3.65 16.6-5.05"/><path fill="url(#N)" d="M139.6 301.65l.05-.05.35-.2q1.25-.55 4.55-.7h1.9l1.6.05 2.75 1.3.75 1.4v.05l-1.8.35-1.75.15-1.55.1-3.65.15-1.75-.7q-1.7-.95-1.45-1.9"/><path fill="url(#O)" d="M139.6 301.65q-.25.95 1.45 1.9l1.75.7q-.8 1.15-1.1 3.6l-.05.15q-.25 2.55.2 6.25v.45l.55 3.45-.15-.05-4.75-2.65q-1.45-1.7-.15-6.95l.05-.35.25-.7v-.05q.8-3.05 1.95-5.75"/><path fill="url(#P)" d="M151.55 303.5v.25l.05.15.3 2.3-.5.55-1.15 1.1h-.1l-.55.45-1.15.85-6.75-1.3q.3-2.45 1.1-3.6l3.65-.15 1.55-.1 1.75-.15 1.8-.35"/><path fill="url(#Q)" d="M151.9 306.2l.3 3.95q.25 2.4-.55 5.4l-.85 2.55-3.4.45h-.05l-.6.05-3.85-.2-.5-.25-.55-3.45v-.45q-.45-3.7-.2-6.25l.05-.15 6.75 1.3 1.15-.85.55-.45h.1l1.15-1.1.5-.55"/><path fill="url(#R)" d="M140.05 300.95v-.1l-.65-2-3.25-2.3-.65-.15-4.05-.65q-4.25-.6-6-.1l-.5.2v.05q-.6 1.2 1.4 2.85l2.1 1.3 4.75.6 1.9.1 2.55.25 2.4-.05"/><path fill="url(#S)" d="M140.05 300.95l-2.4.05-2.55-.25-1.9-.1-4.75-.6-.55.6q-1 1.35-1.75 3.85l7.7 2.95.8.3.5-.3 2.05-1.05 1.95-1.2.7-.65.2-3.6"/><path fill="url(#T)" d="M124.65 318.3l.65.5 3.15.7h.05l.35.1 1.35.25 5.45.2 1.65-3.15q1.8-3.85 2.1-7.05l.45-5.3-.7.65-1.95 1.2-2.05 1.05-.5.3-.8-.3-7.7-2.95-.1.25q-.8 2.85-1.2 6.75l-.15 2.1-.05 4.7"/><path fill="url(#U)" d="M124.65 318.3l.05-4.7.15-2.1q.4-3.9 1.2-6.75l.1-.25q.75-2.5 1.75-3.85l.55-.6-2.1-1.3q-2-1.65-1.4-2.85l-1.5 2.4q-1.35 2.25-2.55 4.75l-.4.95q-1.1 2.6-1.7 4.55-.9 3.45.05 5.05l5.8 4.7"/><path fill="url(#V)" d="M101.4 44.7l-.2.65q-2.5 3.5-7.3 6.55-9.55 6.1-21.1 3.9l-1.25 3.5q-1 4.75.25 10.95l-.15.05q-1.9-4.9-3.15-5.35l-1.6-.35q-1.6-.1-1.6 1.2 0 2.1 1 5.95l1.35 3.65.85.75.65 3.2q1.25 2.85 4.45 1.15l.55 4.6q.8 4.7 2.3 5.25-2.05 19.25-3.05 20.8-1 1.55-7.4 3.6l-7.9.75-9.75 3.1-3.6.25q-4.35-.2-8.15-2.3-1.85-1.05-3.8-1.3l-1.85-.15 4.65-4.7-6.1-.2q-6.25.4-7.05 3.25.35-3.4 2.15-6.85 3.5-6.9 10.55-7-3.75-1.8-7.65-2.7-7.75-1.8-8.2 2.8-.45-.8-.8-2.2-.75-2.8-.25-5.9-1.3 1-3.1 1.5-3.6 1.05-6.05-1.25 4.1-1.4 8.3-3.7 8.45-4.6 9-9.1.6-4.95 4.65-10.5 3.35-4.65 7.65-7.95l-3.45-.3q-3.8.1-5.45 2.15 1.65-3.05 4.2-6.3 5.15-6.45 9.9-7.35 1.25-.2 3.45-1.3 4.45-2.2 9.25-6.6l-10.2 3.85q2.75-3.2 6.65-6.4 7.85-6.3 10.65-8.45l6.05-3.2q.65-4.3 19.7-4.8 6.7.15 8.65 5.5l2.55.4q6.5-5 10.95-2.65 4.4 2.35 7.25 7.35 2.8 4.95 4.85 12.95 2 8 5 14.15 3.3 6.8 5.55 7.1l.6.95q-.6.75-2.2 1.35-4.5 1.7-7.95-.7l2.85 3.45q3.75 3.5 8.35 3.7-.5 1.6-1.55 3.1-2.05 3-4.85 2.35l3.4 4.55q3.45 5.25 3.65 8.85l-8-1.9q2.15 7.8 2 13.1-.2 4.3-1.65 5.45-1 .8-6.65 1.1l-5.5.15-12.15-4.45-.5-3.15-.4-3.8 4.95-7.9q4.95-7.85 5.2-10.25l.3-3.45v-.5l.95.4q1 .15 1.2-1.05.2-1.35-.1-3.4l-.75-2.8q-.15-.35-.05-.95l.35-1.6.7-1.7.3-3.1-1.1-.7-1 11-1.3-11.8.5-6.25q.3-6.8-.7-9.25-1.25-3.05-4.15-3.85-3.05-.85-7.6 1.05"/><path fill="none" stroke="#512928" stroke-width=".05" stroke-linecap="round" stroke-linejoin="round" d="M96.9 168.35q-14.7-7.65-23-26.65l-1.4-3.3q-3.05-7.8-4.75-16.4l-1.05-7.05-2.7.2-.35.05-2.5 6.8q-2.55 7.35-2.75 9.95m-.3.25l-3.25 5.55-1.9 3.95-.7 1.6-1.4 3.65-1.2 4q-1.7 6.65-1.05 12l.35.7-.2.3q1.65 10 12.2 15l2.45 1.25q3.1 1.35 6.5 1.85 9.6 1.5 17.85-4.2l.2-.15 1.85-1.4 2.95-2.6q3.15-3.15 4.15-5.35 2.4 1.25 4.95 2.2 2.35-.55 4.75-3.4 1.65-2.05 3.35-5.2 7.9-14.95 7.95-47.65v-2.75l4-.4 1.55-.15 5.4.5 1.55.35q2.75.7 6.4 2l1.05.45q8.05 4.2 6.9 27.25l.85 2.3v.1l1.55 4.3-2.6.45q-2.6.75-4.2 2.5l1.05 4.55q1.7 11.35-7 17.65l-2.5 1.45q-3.2 1.6-6.65 2.3l-.6.1-2.25 12.25q-8.7 3.15-21.7 4.1-25.95 2-47.4-8.65l-.25-.6q-1.4-3.4-2.65-7.5-1.4-4.7-1.8-8.05-2.9-5-13.4-6.45l-10-.4.75-5.5q-1.15-5.1-1.45-9.5-.2-2.75 0-5.25.85-13.4 11.9-18.5 5.15-2.4 10.05-4.1l6.15-1.9 2.7-.65.2-.05 8.15-1.3m-8.35 1.35l-3.1 9.25q-2.6 10.65.05 17.5m-26.3 13.15l3-.1 6.95.4q9.8 1.25 12.7 6.2l.15 1q-.5 1.9-.15 4.85m73.35-57.1q0 .45.75 2.6l2.4 6.4.75 2.05 1.45 4.6 1.35 3.6q1.6 3.55 3.35 6.6 2.25-6.35-.35-16.6l-2.8-9.45m11.5 39.7l-.95-2.65-.65-1.35v-.05l-.75-1.5q-3.2-3.4-6-8.1m13.55 6.3h.05m-.05 0q-4.25 1.45-6.8 3.3m-14.1 30.1q-7.05 1.25-13.45-1.8l-1-.45-.2-.2-2.25-2.5q-1.25-2.1-1.15-5.15m33.75-15.95l-.4.45"/><path fill="none" stroke="#7C3E00" stroke-width=".05" stroke-linecap="round" stroke-linejoin="round" d="M123.5 222.7l3.25-1.45h.05l1-.5 3.85-1.85 2-1.35v-.05l-1.5-1.5-3.85-.45-2.35.9-1.95.75q-3.9 1.7-5.1 3.05l-.35.4v.1q.05 1.15 1.85 1.65l.7.15.55.1.45.05h1.4q-.3 1-.2 2.45 0 1.2.35 2.75l2.95-.45.35-.05 1.2-.2.05-.05 2.95-.45 1.2-.2 1.5-2.5 1.1-2.1.25-.95-1.55-3.4m4 20.4l1.35-.75-.1-3.7q-.3-4.4-1.55-7.5l-2.15-5.05m-11.55 6.95l.05.3.55 2.1.1.35q.85 2.85 2.45 6.3l2.1 4.3h.05l.7.1 3.05-1h.05m.35-.15l1.25-.4 3.3-1.85M50.5 230.7q-.75-2.55 1.7-9.5 1.45-4.25 3.25-8.05l5.35 1.55m68.1 26.55l-7.05-1.3q-1.35-.85-2.15-3.55l-.15-.4q-.6-2.2-.9-5.65-5.8 2.15-16.05 1.85-.1 2.3-2.4 2.15l-10.4-.65q-2.3-.15-2.2-2.45l.05-.35-4.45-.6-16.45-3-6.95-1.55v.15l-1.05 4.75-3.4 5.05-1.55-.55m-.25-.15l-.3-.5-2.3-2.9q-.3-.35-.45-.9m68.15-.35l-.1-1.05-.05-1.85-.05-3.7v-.6l.1-2.4m-57.75-4.8v.95l-.05 1.65v.2l-.05 2.1v.4l-.05.75-.7 3.1-.15.65"/><path fill="none" stroke="#000" stroke-width=".05" stroke-linecap="round" stroke-linejoin="round" d="M60.8 214.7v1.25m25.3 4.8h.05l2.1-.05.1-.65q.4-1.65 2.35-1.5l10.4.65q2.25.1 2.2 2.3v.1l-.7 10.55v.05m-48.8 2.95l-.25-.15m34.1-4.1l.6-10.2"/><path fill="none" stroke="#502F29" stroke-width=".05" stroke-linecap="round" stroke-linejoin="round" d="M60.8 215.95l6.4 1.5q9.8 2.1 18.9 3.3l-1.45.3q-2.85.7-2.95 2.65v.25l.05.5v.05q.55 2.55 3.2 4.75l.15.1q1.25 1 2.55 1.55m15.65-9.4q11.15.55 15.6-1.25"/><path fill="none" stroke="#58392F" stroke-width=".05" stroke-linecap="round" stroke-linejoin="round" d="M89.45 227.15l5.45.65.8-.65q.55-.7-.5-1.2l-5.65-.6.05-.1v-.45l.25-3.55.05-1 11.55 1.15-.25 4.05v.45l-.3 4.2-.15 2.05-11.6-1.05.1-1.4.15-2.4v-.15h.05"/><path fill="none" stroke="#380000" stroke-width=".05" stroke-linecap="round" stroke-linejoin="round" d="M137.65 237.95q3.85 9.65 5.75 24.3-7.4-.2-16.4 2.2-17.55 4.6-27.2 17.65.25-.25 0 .1-7.8-4-18.05-6.85-20.8-5.8-38.45-1.5-.4-8.8 0-18.85.6-14.6 7.2-24.3m49.3 51.4l-3-5.45-.95-1.55q-4.95-10.35-12.5-15.55l-4.7-2.65-1.85-.7m35.55-1.25q-4.6 3.35-10.7 11.55-3.05 4.1-5.8 8.6"/><path fill="none" stroke="#8E5027" stroke-width=".05" stroke-linecap="round" stroke-linejoin="round" d="M113.8 63.7l.1-.95v-.05l.05-.6.1.15v-1q.4-4.3 0-7.25v-.05l-.55-5.25q-.65-4.35-2.35-7.5-5.2-9.55-19.85-8.65-7.45.7-14.1 4.95-13.3 8.55-9.05 27.25 1.5.2 3.2 1.05m42.85 12.7l1.15.5h.1q1-.1 1-2.3 0-2.3-.55-3.9l-.55-1.1L117 68v-3.7l-.95-.85q-.3-.2-.6-.25-.8-.15-1.65.5l-.15.8q.75 5.75.55 14l-.05.5-.1 3.2q-.7 3.55-4 9l-2.35 3.55-.85 1.15-3.95 5.65q-.8.65-2.05 1.05-4.35-.05-12.65-4.45l-7.4-4.45-.4-.2-1.6-1.05q-2.8-2.2-4.2-6.55l-.95-5.1q-.45.55-2.1.85-1.95.35-2.85-2.35l-.5-2.8q-.3 0-.85-.9-1.05-1.85-2.1-6.5l-.1-.45q-.8-4.15 2.5-3.95l.5.05m5.6 15.8L73.6 80m.05.8l.1-.25v.05l-.1.2M109 63.15h.4l.1-.05.05.1.5.1q.85.3 1.55 1.05h.05v.05l.1.15.25.3h.05v.1l.3.55.05.3m-.1.6l.1.15-.35.3-.3.25-.8.55-.05-.05q.65-.6.65-1.55l-.2-1m-2.65 3.15l-.75-.05-3.2-.8-.7-.3.7-.9.5-.5m1.75-2h-.05l-3.25 2.5m4.35-2.85h-.1l-.2.05m1-.2l-.25.05m-.05.8l-.5.1-.8.25-1.9 1.3m3.45 2.55l-.75-.35-.25-.25q-.65-.6-.65-1.55 0-.9.65-1.6l.25-.2.5-.25m-6.5 2.8l-.45.9q-.4 1.15-.05 2.2l1.5 4.05 1.4 3.35q.4 1.4.4 2.35l-.2.95q.25 1.25-.4 1.7l-.65.2M89.4 68.6l-.7-.5q-.7-.7-.7-1.7t.7-1.75l.8-.5-2.6.4q-1.95 1.1-2.4 2.2l.3.2q2.35 1.6 4.6 1.65m2.75-.5q.75-.7.75-1.7 0-.8-.5-1.45l.1.05q1.35.65 2.85 1.75-1.35.9-3.15 1.4l-.05-.05m-8.5-2.35l.5-.95q.95-.8 2.25-1.2l.55-.15 2.4-.15q2.95.25 6.55 2.5m.65 13.4l-.85 1q-.6 1.3.75 2.75m-3.15 5.7l5.15-1.35h.3l1.3.6.05.05q.95.6 1.5.4l.5-.45.2-.25 2.2-.1 1.4.9h-.2l-1.5 2.65-1.4.65h-3.55q-3.05.15-5.05-1.35l-1.35-1.65-.55.15.5-.2.5-.05.75-.1 4.55.35 3 .35.75-.25 2.35-.7 1 .15m-12.9.25l.05.05.45-.1m11.25-8.05l-.95.75-1.65.9-1.15.3"/><path fill="none" stroke="#512928" stroke-width=".05" stroke-linecap="round" stroke-linejoin="round" d="M109.8 325.8l.5 4.25q-4.85-4.3-12.65-5.8-15.55-3-30.1 11.05l-4.5-10.5q4.85-6.35 13-10.5 16.3-8.25 32.75 3 7.5-8.05 15.8-13.5 16.5-10.85 20.25 2.25l-.75 11.25q-1.3-2.25-6.1-2.55-9.6-.55-28.2 11.05l-1-8.5M21.6 267.45l3.45 3.05 3.45 3.85-3.6-.1q-3.8.95-4.5 6.25l-2 .05q-2.4.25-4.35 1.1Q7.95 284.3 8.9 292q-2.6 0-4.1-3.25-3-6.5 2.9-23.9 2.75-1.65 5.8-2.65 6.2-2.1 7.6 1.2l.5 4.05"/><path fill="none" stroke="#380000" stroke-width=".05" stroke-linecap="round" stroke-linejoin="round" d="M157.3 247.8v-.35"/><path fill="none" stroke="#512928" stroke-width=".05" stroke-linecap="round" stroke-linejoin="round" d="M157.3 247.8l4.75-3.05q5.15-2.45 7.1.4 3.1 4.6 7.7 13.45l2.7 5.75.35 8.45-3.05 2.3q-2.4-3.35-5.4-6-6.05-5.25-9.2-1.65l-1.15-3.1v5q-1.75-1.75-3.55-2.65-3.7-1.85-4.15 2.25-1.55-2-1.8-4.9-.6-5.8 5.65-10.1l.05-6.15"/><path fill="none" stroke="#7C3E00" stroke-width=".05" stroke-linecap="round" stroke-linejoin="round" d="M30.45 145.95l.35.9q.55 1.9.45 4.9l.05.3q-.15 3.45-1.15 7.9l-.55 2.35-1.5 5.1 7.5-2.75q1.55-1.4 1.8-5.5.15-2.4-.2-5.65l-.1-1.25-.9-6.2-.7-3.2q.15 1.55-2.45 2.5l-2.6.6-5.1-1.25-2-.6-2.65-.7-2.45-1.05-1.05 4 .5 1.05q.45.9 1.6 2.05l1.75 1.95.35.5 1 .05 8.85-.2m4.25-8.9v-.05l-.5-.45q-1.6-1.2-6.2-2.3l-4.3-.85-.7-.1-4.15 1.2-1.4 1.95v.1m-1.05 4l-1.3 5.95q-.85 3.65-.3 8.5l.6 4.2 5.65 1.85 1.45.3m.4 0l3.55.5.8-.2.05-.05M73 337.85l4.45-1.75 4.05-27.25-9.3-.65-7.85-1.15-.25-.05q-2.7-.65-3.9-1.45l-.1-.05-.1-.05h-5.35v.1q1.65 1.8 5.2 2.95l3.5.95h.2l.6.15 3.6.5 9.5.45-1.3 8.6-2.95 18.7-3.6.45-3.7-.2-.05-.05q-4.55-.75-8.9-3.7l-.3-.2q-2.5-1.7-4.6-4l-1.65-1.9 3.25-16.6 1.2-6.1m-1.2 6.1l5.45 11.55m.15.35l.3.65 16.6-5.05"/><path fill="none" stroke="#333" stroke-width=".05" stroke-linecap="round" stroke-linejoin="round" d="M58.9 323.2l.15.35"/><path fill="none" stroke="#7C3E00" stroke-width=".05" stroke-linecap="round" stroke-linejoin="round" d="M139.6 301.65l.05-.05.35-.2q1.25-.55 4.55-.7h1.9l1.6.05 2.75 1.3.75 1.4v.05m.35 2.7l.3 3.95q.25 2.4-.55 5.4l-.85 2.55-3.4.45h-.05l-.6.05-3.85-.2-.5-.25-.15-.05-4.75-2.65q-1.45-1.7-.15-6.95l.05-.35.25-.7v-.05q.8-3.05 1.95-5.75-.25.95 1.45 1.9l1.75.7 3.65-.15 1.55-.1 1.75-.15 1.8-.35m-9.85 4.35l6.75 1.3 1.15-.85.55-.45h.1l1.15-1.1.5-.55m-10.2 1.65l-.05.15q-.25 2.55.2 6.25v.45l.55 3.45m.4-13.9q-.8 1.15-1.1 3.6M140.05 300.95v-.1l-.65-2-3.25-2.3-.65-.15-4.05-.65q-4.25-.6-6-.1l-.5.2v.05l-1.5 2.4q-1.35 2.25-2.55 4.75l-.4.95q-1.1 2.6-1.7 4.55-.9 3.45.05 5.05l5.8 4.7.65.5 3.15.7h.05m.35.1l1.35.25 5.45.2 1.65-3.15q1.8-3.85 2.1-7.05l.45-5.3.2-3.6-2.4.05-2.55-.25-1.9-.1-4.75-.6-2.1-1.3q-2-1.65-1.4-2.85m1.2 8.6l7.7 2.95.8.3.5-.3 2.05-1.05 1.95-1.2.7-.65m-11.4-4.5l-.55.6q-1 1.35-1.75 3.85l-.1.25q-.8 2.85-1.2 6.75l-.15 2.1-.05 4.7"/><path fill="none" stroke="#00f" stroke-width=".05" stroke-linecap="round" stroke-linejoin="round" d="M72.8 55.8l-1.25 3.5q-1 4.75.25 10.95l1.1 3.65.45 1.5m60.9-8.7q1.2.15.6.95m-10.15.65l2.85 3.45m-5.3 40.3l-5.5.15-12.15-4.45-.5-3.15-.4-3.8 4.95-7.9q4.95-7.85 5.2-10.25l.3-3.45v-.5l.95.4q1 .15 1.2-1.05.2-1.35-.1-3.4l-.75-2.8q-.15-.35-.05-.95l.35-1.6.7-1.7.3-3.1-1.1-.7-1 11-1.3-11.8M38.7 60.6l-3.45-.3q-3.8.1-5.45 2.15 1.65-3.05 4.2-6.3 5.15-6.45 9.9-7.35 1.25-.2 3.45-1.3 4.45-2.2 9.25-6.6l-10.2 3.85q2.75-3.2 6.65-6.4 7.85-6.3 10.65-8.45l6.05-3.2q.65-4.3 19.7-4.8 6.7.15 8.65 5.5l2.55.4m-29 42.5q-1.9-4.9-3.15-5.35l-1.6-.35q-1.6-.1-1.6 1.2 0 2.1 1 5.95l1.35 3.65.85.75.65 3.2q1.25 2.85 4.45 1.15l.55 4.6q.8 4.7 2.3 5.25-2.05 19.25-3.05 20.8-1 1.55-7.4 3.6l-7.9.75-9.75 3.1m23.3-48.3l.05.15 1.2 3.45"/><path fill="none" stroke="#000E39" stroke-width=".05" stroke-linecap="round" stroke-linejoin="round" d="M48.35 118.6l-3.6.25q-4.35-.2-8.15-2.3-1.85-1.05-3.8-1.3l-1.85-.15 4.65-4.7-6.1-.2q-6.25.4-7.05 3.25.35-3.4 2.15-6.85 3.5-6.9 10.55-7-3.75-1.8-7.65-2.7-7.75-1.8-8.2 2.8-.45-.8-.8-2.2-.75-2.8-.25-5.9-1.3 1-3.1 1.5-3.6 1.05-6.05-1.25 4.1-1.4 8.3-3.7 8.45-4.6 9-9.1.6-4.95 4.65-10.5 3.35-4.65 7.65-7.95"/><path fill="none" stroke="#00228A" stroke-width=".05" stroke-linecap="round" stroke-linejoin="round" d="M129.5 80.9l3.4 4.55q3.45 5.25 3.65 8.85l-8-1.9q2.15 7.8 2 13.1-.2 4.3-1.65 5.45-1 .8-6.65 1.1"/><path fill="none" stroke="#0234CC" stroke-width=".05" stroke-linecap="round" stroke-linejoin="round" d="M100.65 27.8q6.5-5 10.95-2.65 4.4 2.35 7.25 7.35 2.8 4.95 4.85 12.95 2 8 5 14.15 3.3 6.8 5.55 7.1m.6.95q-.6.75-2.2 1.35-4.5 1.7-7.95-.7m2.85 3.45q3.75 3.5 8.35 3.7-.5 1.6-1.55 3.1-2.05 3-4.85 2.35"/><path fill="none" stroke="#5174DC" stroke-width=".05" stroke-linecap="round" stroke-linejoin="round" d="M101.2 45.35q-2.5 3.5-7.3 6.55-9.55 6.1-21.1 3.9m40.55 7.2l.5-6.25q.3-6.8-.7-9.25-1.25-3.05-4.15-3.85-3.05-.85-7.6 1.05"/></svg>