<svg xmlns="http://www.w3.org/2000/svg" viewBox="0.1 -6.8 206.9 322" width="206.9" height="322" preserveAspectRatio="xMinYMin"><defs><linearGradient gradientUnits="userSpaceOnUse" x1="-819.2" x2="819.2" gradientTransform="matrix(.126 0 0 .142 103.55 180.9)" id="a"><stop offset="0" stop-color="#D98651"/><stop offset=".533" stop-color="#DFA168"/><stop offset="1" stop-color="#D98651"/></linearGradient><linearGradient gradientUnits="userSpaceOnUse" x1="-819.2" x2="819.2" gradientTransform="matrix(.126 0 0 .142 103.55 180.9)" id="b"><stop offset="0" stop-color="#BB642B"/><stop offset="1" stop-color="#D5834D"/></linearGradient><linearGradient gradientUnits="userSpaceOnUse" x1="-819.2" x2="819.2" gradientTransform="matrix(-.008 -.05 .037 -.006 99.75 41.85)" id="c"><stop offset="0" stop-color="#D98651"/><stop offset=".533" stop-color="#DFA168"/><stop offset="1" stop-color="#D98651"/></linearGradient><radialGradient gradientUnits="userSpaceOnUse" r="819.2" cx="0" cy="0" spreadMethod="pad" gradientTransform="matrix(.005 0 0 .005 98.9 42.8)" id="d"><stop offset="0" stop-color="#fff"/><stop offset=".337"/></radialGradient><radialGradient gradientUnits="userSpaceOnUse" r="819.2" cx="0" cy="0" spreadMethod="pad" gradientTransform="matrix(.005 0 0 .005 122.5 42)" id="e"><stop offset="0" stop-color="#fff"/><stop offset=".337"/></radialGradient><linearGradient gradientUnits="userSpaceOnUse" x1="-819.2" x2="819.2" gradientTransform="matrix(-.005 .011 -.005 -.002 131.2 48)" id="f"><stop offset="0" stop-color="#D98651"/><stop offset=".533" stop-color="#DFA168"/><stop offset="1" stop-color="#D98651"/></linearGradient><linearGradient gradientUnits="userSpaceOnUse" x1="-819.2" x2="819.2" gradientTransform="matrix(-.013 .034 -.043 -.017 79.85 124.75)" id="g"><stop offset="0" stop-color="#BB642B"/><stop offset="1" stop-color="#D5834D"/></linearGradient><linearGradient gradientUnits="userSpaceOnUse" x1="-819.2" x2="819.2" gradientTransform="matrix(.126 0 0 .142 103.4 181.1)" id="h"><stop offset="0" stop-color="#D98651"/><stop offset=".533" stop-color="#DFA168"/><stop offset="1" stop-color="#D98651"/></linearGradient><linearGradient gradientUnits="userSpaceOnUse" x1="-819.2" x2="819.2" gradientTransform="matrix(.058 0 0 .049 101.5 182.6)" id="i"><stop offset="0" stop-color="#BB642B"/><stop offset="1" stop-color="#D5834D"/></linearGradient><linearGradient gradientUnits="userSpaceOnUse" x1="-819.2" x2="819.2" gradientTransform="matrix(.058 0 0 .049 101.5 182.6)" id="j"><stop offset="0" stop-color="#D98651"/><stop offset=".533" stop-color="#DFA168"/><stop offset="1" stop-color="#D98651"/></linearGradient><linearGradient gradientUnits="userSpaceOnUse" x1="-819.2" x2="819.2" gradientTransform="matrix(.03 0 0 .029 138.15 128.2)" id="k"><stop offset="0" stop-color="#BB642B"/><stop offset="1" stop-color="#D5834D"/></linearGradient><linearGradient gradientUnits="userSpaceOnUse" x1="-819.2" x2="819.2" gradientTransform="matrix(.081 0 0 .065 106.45 261.55)" id="l"><stop offset="0" stop-color="#311A0B"/><stop offset=".596" stop-color="#7B431E"/><stop offset="1" stop-color="#613416"/></linearGradient><linearGradient gradientUnits="userSpaceOnUse" x1="-819.2" x2="819.2" gradientTransform="matrix(.001 0 0 .001 173.4 289.1)" id="m"><stop offset="0" stop-color="#311A0B"/><stop offset=".596" stop-color="#7B431E"/><stop offset="1" stop-color="#613416"/></linearGradient></defs><path fill="url(#a)" d="M125.4 82.7l1.1-.35 2.85-.4q3.3 0 6.6 2.9 3.4 3.5 5.2 4.7l1.4-1.15q1.15-.85 1.8-.85.95 0 7.3 3.2 7.05 3.55 9.5 6l2.2 3.7q2.1 3.05 4.6 3.1 1.45 0 4.15.85 2.15.65 3.1 1.25l.2.4q5.6 11.05 1.5 25.9l-1.25 4.05-2 5.15 1.4-.2 1.7-.2q7.25 0 11.45 14.05 1.35 4.45 2.35 10.4.85 5.45 1.45 6.35.2 7.3-.85 15.3 3.05 2 5.25 10.2 4.45 16.3.2 47.15l-.05.15.65.95 2.7 3.85q3.45 5.75 5.35 11.15 2.3 5.8 1.55 10.4 0 .75-.4 1.55-1.5 5.75-9.2 7.65-.35-.3-.7-.35h-.85q-2.3.75-6.55 3.45h-1.55l-2.3-.4q-1.15 0-2.3-.75l-.75-.4-.4-.45q-1.05-1.4-.4-3 .4-1.9 2.3-4.6l1.95-1.95.4-.75.35-1.55v-.8l-.1-.55-.15-.45q-.7-1.55-2.45-2.45h-.35q-.8 0-1.95 1.55t-1.15 4.25q-.35.75-.35 1.15 0 1.15.35 2.7.4 1.9 0 3.05v.3q-.1.85-.75.85-.4 1.15-1.55 1.15h-.4q-.35-.35-.75-.35-1.55-.4-3.1-1.55-1.15-1.55-.35-2.3v-.4l-.2-.55q-.6-2.05-.6-4.05v-.4q-.75-5.75 1.15-9.2l2.35-6.55 2.25-6.55q-19-26.05-21.05-44.55 2.15-2.85 6.9-4.45 3.4-1.2 6.6-1.45l7.75-.3q2.65-.65 2.65-5.1 0-1.55-.75-3.65-.65-1.85-.45-2.95-8.4.4-18.8-5.35-9.65-5.25-14.1-11.9l-.05-.5q-.9-8 .2-14.8v-.4l1.95-4.15 3.8-2.45q8.65-7.2 7-22l-.05-.4q0-6.45.15-8.35.5-5.85 2.55-9.25v-1.8q-1.7 2.5-3.55 3.05l-4 .25-3-.1q-.95-.15-2.2-1.1 1.4 1.35 3.65 5.45t2.25 5.35q0 4.2-1.9 4.9l-1.3.45q-.6.3-.6 1.3 0 1.15 2.65 4.05 2.65 2.95 2.65 5.7 0 1.3-3 3.95-2.8 2.45-4.7 3.2-2.35.9-5.6 3.6-2.3 1.95-5.2 1.95-1.95 0-4.85-1.3-2.9-1.3-4.45-1.3-.35 0-3.1 1.3l-3.1 1.3q-2.7 0-3.25-3.8v-5.2q0-5.9.3-7.2.3-1.25 1.95-3.9l1.55-2.9q0-.75-.3-.6-2.1-1.35-2.95-4.1-.4-1.25-.9-5.1-.85-6.35-5.1-7.15l-.05-.25h-3.9q-.7.65-1.45 1.8-.95 1.45-.95 2.35l2.2 2.05q2.15 2 2.15 4.75 0 2.3-1.3 3.1-1.25.75-4.55.75-.1 1.35 1.45 3.55l1.85 2.95q.6 2.6.6 7.25v4.1q-.25.6-3.3 3.2-.65.55-3.55.5l-4.4.35q-1.9.7-3.9 2.6L92.5 148q-1.75 1.2-3.9 1.05l-4.1-.45-5.95-.25q-2.6-1.15-7.35-2.95l-3.75-.6-4.2-.35q-4.8-.8-4.8-5.3l2.25-3.8q2.2-3.65 2.2-4.35 0-1.3-1.8-2.15-1.7-.8-2.65-.35-.6-1.8-.6-3l.6-5.15q0-2.75-.3-3.4-.35-.9-1.9-.9-2.05 0-3.05 2.1-1.05 2.05-3.65 2.05-1.85 0-4.45-2-2.05-1.55-2.6-2.45 1.7 4.8 7.8 15.2 5 8.45 5.8 13.3l.05.3v.3q.65 9.5-2.3 18.8-1.45 4.4-3.7 8.8l-7.35 1.1-5.65-.6-4.55-.6q-2.35 0-3.8 2.4-1.2 1.95-1.2 4 0 3.7 2.55 9.95l4.25 9.65q1.8 4.2 2.9 9.75.95 4.8 1 8.3-3.05 18.7-12.5 42.35l.3 3.85q.35 3.5 1.5 4.25.4.4 2.35 1.15 1.9.75 2.65 1.9 3.5 2.35 4.65 6.55l.75 1.95 1.95 1.9q1.9 3.1.75 5.4-.75.75-1.55.75-1.55 0-4.2-2.7l-.7-.65-2.4-2.8-1.55-1.55q-.35-.35-.35-.75l-1.1-.4h-.45q-.8.8-.8 1.95l1.15 3.05q1.95 3.5 7.35 9.25 2.65 3.05-1.55 3.85l-2.3.4-2.3.35h-1.2q-.75.4-1.5.4H26.1l-1.55.4-6.55.35q-12.3-.75-16.55-11.9-1.9-5.8-1.15-11.95.8-4.2 3.1-9.6l2.3-4.6q1.55-2.3 1.9-4.25l1.25-2.95-5.1-21.25q-5.3-21.6-2.2-36.9 1.5-7.65 4.1-10.95l-.05-.5q2.05-6.1 2.8-10l.6-5.3q.7-4.55 1.8-5.9 2.95-3.5 2.9-10.7 0-6.95 2.7-9.65l-1.1-2.65-1.35-3.95-1.35-5.45-.05-.3q-.75-3.6-.95-6.9l-.05-.85q3.1-8.3 4.55-10.05 3-3.6 10.3-3.5-1.75-5.4 3.1-9 4.6-3.4 11.3-2.6 4.85.6 9.1-2.2l5.95-3.8h4.4q2.4-4.1 9.95-4.65 4.45-.35 13.4-.15.4-2.4.4-7.4l-.4-3.3q-.45-2.8-.85-3.7l.05-1.4.45.85 2.9 5.4q.25 1.8 3.2 4.7 2.75 2.65 4.25 3.15 1.3.5 4.25 2.5 3.4 2.3 3.4 3.15 0 2.85.45 4.95.6 2.8 1.95 4.3 1.5 1.6 5.8 2.7 4.65 1.2 7 3.05 3.9 3.15 6.1 10.3v-3.25l-1.45-8.7q0-3.95 1.8-8.2 1.9-4.7 2.5-11.55m-32 5.3l4.6 4.25q1.85.7 3.7 1.8-1.85-1.1-3.7-1.8L93.4 88m79.85 54l.3-.65.1-.2-.1.2-.3.65M63.2 89.95h-2.95 2.95M16.85 142.3l-.45-1.1.45 1.1m36.3-3.9l1 2.7-1-3.05v.35M9.35 254.75l-.5-2.35v-.05.05l.5 2.35"/><path fill="url(#b)" d="M175.2 105.65q-.95-.6-3.1-1.25-2.7-.85-4.15-.85-2.5-.05-4.6-3.1l-2.2-3.7q-2.45-2.45-9.5-6-6.35-3.2-7.3-3.2-.65 0-1.8.85l-1.4 1.15q-1.8-1.2-5.2-4.7-3.3-2.9-6.6-2.9l-2.85.4-1.1.35v-.4q.1-1.4.5-2.8 15.1 1.75 28.8 8.35 14.85 7.1 20.5 17.8m1.7 26.3h.05q4.9 4 9.05 12.85 5.6 11.9 6 26.75-.6-.9-1.45-6.35-1-5.95-2.35-10.4-4.2-14.05-11.45-14.05l-1.7.2-1.4.2 2-5.15 1.25-4.05m-19.65 71.5v-.05q-1-9.3 1.75-13.35-10-6.15-11.95-21.75 4.45 6.65 14.1 11.9 10.4 5.75 18.8 5.35-.2 1.1.45 2.95.75 2.1.75 3.65 0 4.45-2.65 5.1l-7.75.3q-3.2.25-6.6 1.45-4.75 1.6-6.9 4.45m-74.5-132.7q.4.9.85 3.7l.4 3.3q0 5-.4 7.4-8.95-.2-13.4.15-7.55.55-9.95 4.65h-4.4l-5.95 3.8q-4.25 2.8-9.1 2.2-6.7-.8-11.3 2.6-4.85 3.6-3.1 9-7.3-.1-10.3 3.5-1.45 1.75-4.55 10.05-.55-10.3 3.95-17.5 8.7-13.8 35.2-13.65l2.55-1.9q3.3-2.25 6.85-4 11.35-5.6 21.1-4.2v-.05q1.25-3.9 1.55-9.05m-26.9 19.2H50.7h5.15m-43.25 39.2l1.35 5.45 1.35 3.95 1.1 2.65q-2.7 2.7-2.7 9.65.05 7.2-2.9 10.7-1.1 1.35-1.8 5.9l-.6 5.3q-.75 3.9-2.8 10-3.25-18.55 1.45-38 2.35-9.6 5.4-15.65v-.05l.15.1m141.3 47.5l-.2-.2.2.2m-103.75-4.2l-1.1 2q-4 7.05-10 13.9H39q.6 3.65.75 8.4.3 9-1.45 19.65-.05-3.5-1-8.3-1.1-5.55-2.9-9.75l-4.25-9.65q-2.55-6.25-2.55-9.95 0-2.05 1.2-4 1.45-2.4 3.8-2.4l4.55.6 5.65.6 7.35-1.1m124.75 18.5q-1.55 1.55-8 .9l-6.2-.9-1.7-.9 1.7.9 6.2.9q6.45.65 8-.9m-138.95-11.6q1 1.45 1.7 3.5.85 2.35 1.35 5.5l-.65.7.65-.7q-.5-3.15-1.35-5.5-.7-2.05-1.7-3.5"/><path fill="#600" d="M125.9 79.5q-.4 1.4-.5 2.8v.4q-.6 6.85-2.5 11.55-1.8 4.25-1.8 8.2l1.45 8.7v3.25q-2.2-7.15-6.1-10.3-2.35-1.85-7-3.05-4.3-1.1-5.8-2.7-1.35-1.5-1.95-4.3-.45-2.1-.45-4.95 0-.85-3.4-3.15-2.95-2-4.25-2.5-1.5-.5-4.25-3.15-2.95-2.9-3.2-4.7l-2.9-5.4-.45-.85q-2.4-4.6-2.4-6.5v-.05l.25-1.25.25-.7.45-2.05-.25-3.45-.85-3.55.85 1.35-.95-1.8v-.2q.95.65 4.9 5.65 3.65 4.65 4.2 4.65l.4-.05.3-.7 2.25 2.1 1.05 1.05q3.15 3.05 3.9 3.35l-.65-1.45.05-.9q.1-.55-.65-1.65l-.25-.4q-.4-.5 0-.05l.05.05.6.55.15-.55.15-.75q.25.05.7-1.15 1-1.1 3.8-.85l9.05.65 5.4-.25.8-.1h1.7q1.35-.05 2-1.1l.7.3q.9 2.05 1.75 3.1l.15.15 1.05 1.3.25.2q-.3-.75-.15-1.5.15-1.05 1.2-2.1l2.55-2.85q0-1.35 2-3l.2-.15.25-.2.1-.15q.55-.55.05-4.7l.3 1.35.1.55.1.55V52l.05.1v-.05l.5 3.6.1 1.6v.2l.55 2v4.95q0 5.95-2.95 9.65-2.15 2.65-3 5.45M70.5 38.2q-4.25-4.6-6.9-4 2.7-6.25 4.6-9.8l4.25-7.7-2.65-1q-1.2-.4-1.2-1l4.05-2.15q1.8-1.1-.2-.7l-3-4q0-5.15 3.05-6.8 2.05-1.1 8-1.2L91.75-1q7.15-1.4 12.85-5.8.35.35.2 1.4-.1.6 1.3.6 1.25 0 2.45-1 1.15-1 2.4-1 1.4 0 5.55 4.3 4.65 4.85 4.65 8.45 6-.95 9.85 9.5 2.8 7.65 2.8 12.9 0 1.45-.95 2.55-.95 1.1-.95 1.3l2.9 3q-1.25 1.25-2.45 3.65l-1.3 2.85q-.7 1.75-1.05 3.2l-.2.65q-.3-3.85-1.4-9.75l-.4-2.05-.2-1.05q-1.75-8.55-1.75-11.1l-1.95.45-1.95.4V17.7l-2.4.45-2.45.45-.85-3q-.75-1.95-1.15-.9l-1 1.4q-.4.6-1 .6 0-.85-.55-2.5-.65-1.75-1.3-2.35l-5.5 4.35q-3.7 2.4-6.75 2.4-.3 0-2.3-1.95-2-1.95-3.05-1.95-1.9 0-2.75 1.05-1.55 1.9-3 2.85l-1.5-1.3q-.85-.6-1.5-.6-.65 3.85-4.95 15.95-1.65 4.7-2.05 8.55-.75.7-.25 3.9l.25 1.45.05.45.1.85q-1.7-1.75-6.65-8.4l-1.1-1.25m39 32.1q.1-.95.6-1.45l1.7 2.25 1.6 2.8q.25-.85 1.85-1l2.55-.45q1.2-.65 1.35-1.3V68.7q0-3.1-3.1-3.65h-5.1l-7.25.25q-4.1.65-4.1 3.5 0 1.5 1.95 3.9t3.2 2.4q1.75 0 2.8-1.4 1-1.45 1.85-1.5l.1-1.9"/><path fill="url(#c)" d="M109.5 70.3l-.05.3-.05 1.6.05-1.6.05-.3-.1 1.9q-.85.05-1.85 1.5-1.05 1.4-2.8 1.4-1.25 0-3.2-2.4-1.95-2.4-1.95-3.9 0-2.85 4.1-3.5l7.25-.25h5.1q3.1.55 3.1 3.65v2.45q-.15.65-1.35 1.3l-2.55.45q-1.6.15-1.85 1l-1.6-2.8-1.7-2.25q-.5.5-.6 1.45m-39-32.1l1.1 1.25q4.95 6.65 6.65 8.4l-.1-.85-.05-.45-.25-1.45q-.5-3.2.25-3.9.4-3.85 2.05-8.55 4.3-12.1 4.95-15.95.65 0 1.5.6l1.5 1.3q1.45-.95 3-2.85.85-1.05 2.75-1.05 1.05 0 3.05 1.95 2 1.95 2.3 1.95 3.05 0 6.75-2.4l5.5-4.35q.65.6 1.3 2.35.55 1.65.55 2.5.6 0 1-.6l1-1.4q.4-1.05 1.15.9l.85 3 2.45-.45 2.4-.45v4.75l1.95-.4 1.95-.45q0 2.55 1.75 11.1l.2 1.05.4 2.05q1.1 5.9 1.4 9.75l.2-.65.05 3.25-.15-.9-.1-1.7-.1.6-.05-.25v-.1l-.1-.6-.15-.8.15.8.1.6v.1l.05.25.1-.6.1 1.7.15.9v.5l-.15-1v.7l-.1-.5-.2-.9q-.05 1.15.3 1.9v-.45l.15.75-.15-.75v.45q-.35-.75-.3-1.9l.1-.7-.1.7.2.9.1.5v-.7l.15 1V49l-.15-.65v.05l-.1-.55.1.55v-.05l.15.65v2.1l-.3 3.6-.2.15q-2 1.65-2 3L125 60.7q-1.05 1.05-1.2 2.1-.15.75.15 1.5l-.25-.2-1.05-1.3-.15-.15q-.85-1.05-1.75-3.1l-.7-.3q-.65 1.05-2 1.1h-1.7l-.8.1-5.4.25-9.05-.65q-2.8-.25-3.8.85-.45 1.2-.7 1.15l-.15.75-.15.55-.6-.55-.05-.05q-.4-.45 0 .05l.25.4q.75 1.1.65 1.65l-.05.9.65 1.45q-.75-.3-3.9-3.35L92.2 62.8l-2.25-2.1-.3.7-.4.05q-.55 0-4.2-4.65-3.95-5-4.9-5.65v.2l.1.45-.1-.45.95 1.8-.85-1.35q-1.95-3.25-2-3.95l.1.1 1.8 3.4-1.8-3.4-.1-.1q.05.7 2 3.95l.85 3.55.25 3.45-.45 2.05-.25.7-.15-.45q-1.15.75-3.05.35-1.9-.75-1.9-2.7 0-1.5-1.15-4.2l-2.3-4.25q-2.3-3.05-2.7-5-1.15-3.45.4-6.15.3-.6.7-.95m32.1 4.45h-.05l-1.8-.35-4.75-.35-5.1-.1q2.75 2.5 4.2 2.9l.75.15 3.25.1h1.5l1.2-.1q1.25-.2 1.95-1.25l-.4-.4-.25-.25-.5-.35.75.6-.75-.6m15.5 11.5q.4.7.4 2.2 0 1.3-.8 2.15-1.1 1.1-1.35 1.85.25-.75 1.35-1.85.8-.85.8-2.15 0-1.5-.4-2.2m-9.2 5.4l-2.6-1.4q-.9-.8-.9-1.9 0-.9.4-1.55l.75-1.35-.75 1.35q-.4.65-.4 1.55 0 1.1.9 1.9l2.6 1.4m15.1-15.3q1.2-.55 2.1-2.75l-.05-.05-2.05.05-4.95.3-2.8.45q-.1 0-.55.35l-.65.65q.7 1.05 1.95 1.25l2.5.1h.2l4-.25.3-.1m2.1-2.75v-.05h-.05.05v.05m3.6 4.7v-.05l.2 1.1v.4l-.2-1.4.2 1.4v-.2l-.2-1.25v.05l-.15-1.05.15 1.05v-.05l.2 1.25v-.2l-.2-1.1v.05l-.05-.3.05.3m.2 1.25l.15.9-.15-.9M109.05 58.4q3.55-.35 6.8 0 1.45-.2 1.45-3.9 0-2.8-2.8-8.45-2.55-5.15-4.25-6.95 1.7 1.8 4.25 6.95 2.8 5.65 2.8 8.45 0 3.7-1.45 3.9-3.25-.35-6.8 0M78.1 41.2q-.3 2.9 0 5.35-.3-2.45 0-5.35m40.4 26.4l-12.25.4-5 1.55 5-1.55 12.25-.4"/><path fill="#fff" d="M100.75 42.3l1.8.35h.05l.5.35.25.25.4.4q-.7 1.05-1.95 1.25l-1.2.1q.4-.65.4-1.5l-.25-1.2m-4.9 2.6l-.75-.15q-1.45-.4-4.2-2.9l5.1.1q-.5.65-.5 1.55 0 .75.35 1.4m30.2-3.45l.05.05q-.9 2.2-2.1 2.75.35-.6.35-1.4 0-.75-.35-1.35l2.05-.05m-6.55 3.15l-2.5-.1q-1.25-.2-1.95-1.25l.65-.65q.45-.35.55-.35l2.8-.45-.2 1.05q0 1 .65 1.75"/><path fill="url(#d)" d="M100.6 45h-1.5l-3.25-.1q-.35-.65-.35-1.4 0-.9.5-1.55l4.75.35.25 1.2q0 .85-.4 1.5"/><path fill="url(#e)" d="M124 41.5q.35.6.35 1.35 0 .8-.35 1.4l-.3.1-4 .25h-.2q-.65-.75-.65-1.75l.2-1.05 4.95-.3"/><path fill="url(#f)" d="M130 44.9q.35-1.45 1.05-3.2l1.3-2.85v.3q.4 5.75.4 9.25 0 7.3-.4 8.05l-1.05.8-.1-1.6-.5-3.6v.05l-.05-.1v.1l-.1-.55-.1-.55-.3-1.35q.5 4.15-.05 4.7l-.1.15-.25.2.3-3.6V49l.1.45v.2l-.1-.5.1.5v-.2l-.1-.45V48.15l.6 3.7-.1-.4-.5-3.1.5 3.1.1.4-.6-3.7-.05-3.25m.7 7.15l-.05-.2V52l-.1-.55-.4-2-.1-.8.1.8.4 2 .1.55v-.15l.05.2m-.05-.05l-.1-.45.1.45"/><path fill="url(#g)" d="M56.1 144.25q-.8-4.85-5.8-13.3-6.1-10.4-7.8-15.2.55.9 2.6 2.45 2.6 2 4.45 2 2.6 0 3.65-2.05 1-2.1 3.05-2.1 1.55 0 1.9.9.3.65.3 3.4l-.6 5.15q0 1.2.6 3 .95-.45 2.65.35 1.8.85 1.8 2.15 0 .7-2.2 4.35l-2.25 3.8q0 4.5 4.8 5.3l4.2.35 3.75.6q4.75 1.8 7.35 2.95l5.95.25 4.1.45q2.15.15 3.9-1.05l2.95-2.7q2-1.9 3.9-2.6l4.4-.35q2.9.05 3.55-.5 3.05-2.6 3.3-3.2v-4.1q0-4.65-.6-7.25l-1.85-2.95q-1.55-2.2-1.45-3.55 3.3 0 4.55-.75 1.3-.8 1.3-3.1 0-2.75-2.15-4.75l-2.2-2.05q0-.9.95-2.35.75-1.15 1.45-1.8h3.9l.05.25 1.5 6.35v.8q1.5 9.6 1.5 17.3-1.15 6.55-3.85 11.55-1.9 3.05-3.75 5.35l-4.65 3.5-6.9 1.6-11.55 2.6-6.55-.4q-8.45-.75-14.6-3.45-5.85-2.5-9.3-6.8l-.3-.4q-.55-7.6-2.95-13.2 2.4 5.6 2.95 13.2m-1.55-22.8q-1.75 4.5-1.9 8.4l-1.9-3.35 1.9 3.35q.15-3.9 1.9-8.4"/><path fill="url(#h)" d="M197.2 279.9h-.4l-.3-.35q.35.05.7.35m-15.4 1.1q-1.1-1.4-.75-3 .35-1.9 2.65-4.6-1.9 2.7-2.3 4.6-.65 1.6.4 3m4.35-13.65q-.75-1.55-2.8-2.45h.35q1.75.9 2.45 2.45m-9.35 12.2h-.4q-1.5-.4-2.7-1.55 1.55 1.15 3.1 1.55m-3.65-4.8q-.65-2.05-.95-4.05v-.4q-.4-5.75 1.15-9.2l2.7-6.55-2.35 6.55q-1.9 3.45-1.15 9.2v.4q0 2 .6 4.05m-120-136.35v-.35l1 3.05-1-2.7m64.05 9.6h.35q2.7 3.1 6.95 3.85h-.4q-4.2-.75-6.9-3.85M34.25 283.1l-2.8-2.8q-.75-1.15-1.5-1.55l-.4-.75q-.35-.35-.7-.4l1.1.4q0 .4.35.75l1.55 1.55 2.4 2.8"/><path fill="url(#i)" d="M56.15 144.85l.25-.2q3.45 4.3 9.3 6.8 6.15 2.7 14.6 3.45l6.55.4 11.55-2.6-5.65 4.65q-4.2 3.4-8.9 3.35-5.9-.8-9.6-.25-7 1-5.85 7.6h-1.05q-.5-.5-1.25-.5-3.05 0-3.45 4.6l.2 6.8-.6 14.25q-.05-1.55-.8-4.45-1.85-8-7.6-25.1 2.95-9.3 2.3-18.8m93 3.6l-1.95 4.15v.4q-1.15 1.9-1.95 4.25-4.5 12.05-6.3 20.2l-.05-4.95-.3-4.7q-.25-1.75-2.4-4.15l-2.15-2.2q0-.75 1.05-1.8 1-1.05 1-1.65 0-2.95-4.25-4.75l-2.45-1h2.8l7.35-1.25.3-.1 4.15-.6q2.8-.65 5.15-1.85"/><path fill="url(#j)" d="M98.4 152.7l6.9-1.6 4.65-3.5q1.85-2.3 3.75-5.35.8 3.05 3.1 5.75h.4q2.7 3.1 6.9 3.85h.8l1.15.4h3.35l2.45 1q4.25 1.8 4.25 4.75 0 .6-1 1.65-1.05 1.05-1.05 1.8l2.15 2.2q2.15 2.4 2.4 4.15l.3 4.7.05 4.95-1 5.55 1.95 18.1q1.15 13.25 1.9 15.3l-.4.05-2.1 1.3-.6.25-10.75 3.1-12.3 1.5-6.5.4-20.4-1.55-1.5-.35q-10.8-1.55-21.95-4.65l-8.85-2.7q.4-9.6 5.4-19.6l.4-.75v-.2l.6-14.25-.2-6.8q.4-4.6 3.45-4.6.75 0 1.25.5h1.05q-1.15-6.6 5.85-7.6 3.7-.55 9.6.25 4.7.05 8.9-3.35l5.65-4.65m36.85 53.75q0-8.85-1.55-17.7l-1.5-7.3q-2.3-3.45-4.25-6.9-2.7-5.4-4.6-10.4-1.95-4.6-1.95-7.3 0 2.7 1.95 7.3 1.9 5 4.6 10.4 1.95 3.45 4.25 6.9l1.5 7.3q1.55 8.85 1.55 17.7m-21.55.4v-5.75q6.95-.4 14.25-3.1l1.95-.75-1.95.75q-7.3 2.7-14.25 3.1v5.75m0-48.85v11.15q-3.4.4-7.25-.75-3.45-1.15-5.75-2.3 2.3 1.15 5.75 2.3 3.85 1.15 7.25.75V158M98 181.45q0 .4 1.95 1.15 3.05 1.55 6.5 1.95 3.85 1.15 7.25.75v15.8q-5.7.35-10.7-.8-3.85-1.15-6.9-2.7l-2.35-1.5 2.35 1.5q3.05 1.55 6.9 2.7 5 1.15 10.7.8v-15.8q-3.4.4-7.25-.75-3.45-.4-6.5-1.95-1.95-.75-1.95-1.15m28.05-.75q-5.8 3.85-12.35 4.6v-16.15q3.1 0 6.2-1.15-3.1 1.15-6.2 1.15v16.15q6.55-.75 12.35-4.6M98 157.6q.75 4.65-1.15 9.25-1.9 3.05-6.9 13.05-4.65 7.7-5.8 17.7-.75 3.5-.75 6.15v2.7-2.7q0-2.65.75-6.15 1.15-10 5.8-17.7 5-10 6.9-13.05 1.9-4.6 1.15-9.25"/><path fill="url(#k)" d="M113.7 142.25q2.7-5 3.85-11.55 0-7.7-1.5-17.3v-.8l-1.5-6.35q4.25.8 5.1 7.15.5 3.85.9 5.1.85 2.75 2.95 4.1.3-.15.3.6l-1.55 2.9q-1.65 2.65-1.95 3.9-.3 1.3-.3 7.2v5.2q.55 3.8 3.25 3.8l3.1-1.3q2.75-1.3 3.1-1.3 1.55 0 4.45 1.3 2.9 1.3 4.85 1.3 2.9 0 5.2-1.95 3.25-2.7 5.6-3.6 1.9-.75 4.7-3.2 3-2.65 3-3.95 0-2.75-2.65-5.7-2.65-2.9-2.65-4.05 0-1 .6-1.3l1.3-.45q1.9-.7 1.9-4.9 0-1.25-2.25-5.35t-3.65-5.45q1.25.95 2.2 1.1l3 .1 4-.25q1.85-.55 3.55-3.05v1.8q-2.05 3.4-2.55 9.25-.15 1.9-.15 8.35l.05.4q1.65 14.8-7 22l-3.8 2.45q-2.35 1.2-5.15 1.85l-4.15.6-.3.1-7.35 1.25h-6.15l-1.15-.4h-.4q-4.25-.75-6.95-3.85h-.75q-2.3-2.7-3.1-5.75m43.5-30.6q2.05 6.45 2.7 11.95-.65-5.5-2.7-11.95"/><path fill="#630" d="M141.8 216.45l-2.5 1.3 2.1-1.3h.4m-84.7 7.95l.15.3h-.05l-.1-.3"/><path fill="url(#l)" d="M172.4 288.95q-1.75-2-6.95-4.9-1.35-.75-7.55-3.95v6.85q-3.25-2.05-9.9-7.75l1 .9q11.75 25.75 11.75 28.75l-.5 3.4q-.5 2.1-.5 2.95-3.7-1.3-19.55-17.4-16.5-16.75-19.4-18.55l-.05-.05v.1q-.05.45-.5.7l-.5.1v14.6l-6.35-6.1q-4.3-3.9-6.25-4.65 0 1.25-.6 2.5l-1.4 2.5-3.85-4.6q-2.75-2.8-5.85-4.25-.95 2.8-2.95 6.75l-3.2 6.45q-3.6 7.75-2.6 14.15-2.05-2-5.45-7.85l-3.45-5.9q0 5-.85 5l-1.8-3.1q-1.3-1.9-2.7-1.9-.8 0-5.8 4.45t-6.35 4.45l-2-1.5-2-1.5q-1.2 0-2.8 1.7l-3.2 3.7q-4.8 5.35-10.5 5.35V280.1q2.7-11.25 8.65-33.3 5-19.95 7-35.95 9.3 4.45 14.7 7.2l14.05.55 5.7.15 7.55-.15q2.4-.2 4.9-3.5 2.35-3.25 4.65-3.25 1.5 0 6.4 1.45 4.85 1.4 8.25 1.4 5.4 0 9.35-3.35 4-3.4 10.25-3.4 8.45 29.6 13.25 43.75 7.9 23.35 18.65 36.65l-.75.6"/><path fill="url(#m)" d="M172.4 288.95l.75-.6 1.25 1.5-2-.9"/><path fill="#600" d="M93.55 32.85q.65 0 1.75.45l1.7.45 1.2-.3-.2.3-.5.3h2.4v.3l-.2.3 1.8-.7v.1l-.5.6h.2l2.2-.5v.5h4.05l-1.2 1.35q-.95.95-.95 2.35l.45 3.15q-2.1-2.05-5.3-3.35-3.9-1.6-7.2-.95-4 0-5.05.65-1 .55-3.65 4.3v-1.3q1.1-5.05 3.15-6.65 1.75-1.35 5.85-1.35M126.25 32.8q1.3.75 2.7 2.9v4.2q-1.9-3.1-2.6-3.6l-3.1-.4-2.3.1-2.6 1.6q-2.7 1.5-3.85 3.15.7-2.2.7-3.25 0-.75-.6-1.65l-1.2-1.6h2.1l-.1-.6.7.1h.05l-.05-1.2.85.4.75.4.2-.15.2-.15 1.45.5q.1-.65.4-.75.55-.1.9-.45l2.15-.3q2.05 0 3.25.75"/><path fill="none" stroke="#915228" stroke-width=".05" stroke-linecap="round" stroke-linejoin="round" d="M175.2 105.65q-5.65-10.7-20.5-17.8-13.7-6.6-28.8-8.35m-24.2 14.55q-1.85-1.1-3.7-1.8L93.4 88m81.8 17.65l.2.4q5.6 11.05 1.5 25.9h.05q4.9 4 9.05 12.85 5.6 11.9 6 26.75.2 7.3-.85 15.3 3.05 2 5.25 10.2 4.45 16.3.2 47.15l-.05.15.65.95 2.7 3.85q3.45 5.75 5.35 11.15 2.3 5.8 1.55 10.4 0 .75-.4 1.55-1.5 5.75-9.2 7.65m-.7-.35h-.85q-2.3.75-6.55 3.45h-1.55l-2.3-.4q-1.15 0-2.3-.75l-.75-.4-.4-.45m1.9-7.6l1.95-1.95.4-.75.35-1.55v-.8l-.1-.55-.15-.45m-2.8-2.45q-.8 0-1.95 1.55t-1.15 4.25q-.35.75-.35 1.15 0 1.15.35 2.7.4 1.9 0 3.05v.3q-.1.85-.75.85-.4 1.15-1.55 1.15h-.4q-.35-.35-.75-.35m-3.1-1.55q-1.15-1.55-.35-2.3v-.4l-.2-.55m2.9-20.2l2.25-6.55q-19-26.05-21.05-44.55v-.05q-1-9.3 1.75-13.35-10-6.15-11.95-21.75l-.2-.4-.5-.75m30.55-35.2l-1.25 4.05-2 5.15-.1.2-.3.65m-93.1-90.65v-.2q.95.65 4.9 5.65 3.65 4.65 4.2 4.65l.4-.05.3-.7 2.25 2.1 1.05 1.05q3.15 3.05 3.9 3.35l-.65-1.45.05-.9q.1-.55-.65-1.65l-.25-.4q-.4-.5 0-.05m-12.85 6.6l.45.85m-23 19.75h2.95m19.6-20.6l-.05 1.4q-.3 5.15-1.55 9.05v.05q-9.75-1.4-21.1 4.2-3.55 1.75-6.85 4l-2.55 1.9h9.55m-4.15 54.3q-.55-7.6-2.95-13.2m-41.6-9.95l.05.85q.2 3.3.95 6.9l.05.3 1.35 5.45 1.35 3.95 1.1 2.65.45 1.1m-4.4-13.25v.05q-3.05 6.05-5.4 15.65-4.7 19.45-1.45 38m6.95-53.9l-.1.2m38.3-2.55l1.9 3.35q.15-3.9 1.9-8.4m1.85 23.2l-.3-.4.05.3v.3q.65 9.5-2.3 18.8-1.45 4.4-3.7 8.8l-1.1 2q-4 7.05-10 13.9H39q.6 3.65.75 8.4.3 9-1.45 19.65-3.05 18.7-12.5 42.35l.3 3.85q.35 3.5 1.5 4.25.4.4 2.35 1.15 1.9.75 2.65 1.9 3.5 2.35 4.65 6.55l.75 1.95 1.95 1.9q1.9 3.1.75 5.4-.75.75-1.55.75-1.55 0-4.2-2.7l-.7-.65-2.4-2.8-1.55-1.55q-.35-.35-.35-.75l-1.1-.4h-.45q-.8.8-.8 1.95l1.15 3.05q1.95 3.5 7.35 9.25 2.65 3.05-1.55 3.85l-2.3.4-2.3.35h-1.2q-.75.4-1.5.4H26.1l-1.55.4-6.55.35q-12.3-.75-16.55-11.9-1.9-5.8-1.15-11.95.8-4.2 3.1-9.6l2.3-4.6q1.55-2.3 1.9-4.25l1.25-2.95-5.1-21.25q-5.3-21.6-2.2-36.9 1.5-7.65 4.1-10.95l-.05-.5m50.8-38.1q3.45 4.3 9.3 6.8 6.15 2.7 14.6 3.45l6.55.4 11.55-2.6 6.9-1.6 4.65-3.5q1.85-2.3 3.75-5.35 2.7-5 3.85-11.55 0-7.7-1.5-17.3v-.8l-1.5-6.35-.05-.25M50.7 89.95q-26.5-.15-35.2 13.65-4.5 7.2-3.95 17.5m151.05-16.9v1.8q-2.05 3.4-2.55 9.25-.15 1.9-.15 8.35l.05.4q1.65 14.8-7 22l-3.8 2.45-1.95 4.15v.4q-1.1 6.8-.2 14.8l.05.5M117.2 148h.35q2.7 3.1 6.95 3.85h.4l1.15.4H132.2l7.35-1.25m-25.85-8.75q.8 3.05 3.1 5.75h.4m42.7-24.4q-.65-5.5-2.7-11.95m-35.8 45.2q0 2.7 1.95 7.3 1.9 5 4.6 10.4 1.95 3.45 4.25 6.9l1.5 7.3q1.55 8.85 1.55 17.7m23.75-16.4l1.7.9 6.2.9q6.45.65 8-.9m-55-22.95q-3.1 1.15-6.2 1.15v16.15q6.55-.75 12.35-4.6m-32.3 15.4l2.35 1.5q3.05 1.55 6.9 2.7 5 1.15 10.7.8v-15.8q-3.4.4-7.25-.75-3.45-.4-6.5-1.95-1.95-.75-1.95-1.15m2.7-15.35q2.3 1.15 5.75 2.3 3.85 1.15 7.25.75V158m16.2 39.25l-1.95.75q-7.3 2.7-14.25 3.1v5.75m-30.3-.4v-2.7q0-2.65.75-6.15 1.15-10 5.8-17.7 5-10 6.9-13.05 1.9-4.6 1.15-9.25m-59.65 31.45l.65-.7q-.5-3.15-1.35-5.5-.7-2.05-1.7-3.5m140.1 75.2l-2.35 6.55q-1.9 3.45-1.15 9.2v.4q0 2 .6 4.05m23.35 4.8q.35.05.7.35m-13.85-15h.35q1.75.9 2.45 2.45M173.7 278q1.55 1.15 3.1 1.55m6.9-6.15q-1.9 2.7-2.3 4.6-.65 1.6.4 3M8.85 252.35v.05l.5 2.35"/><path fill="none" stroke="#460000" stroke-width=".05" stroke-linecap="round" stroke-linejoin="round" d="M125.9 79.5q-.4 1.4-.5 2.8v.4q-.6 6.85-2.5 11.55-1.8 4.25-1.8 8.2l1.45 8.7v3.25q-2.2-7.15-6.1-10.3-2.35-1.85-7-3.05-4.3-1.1-5.8-2.7-1.35-1.5-1.95-4.3m30.65-55.2q1.2-2.4 2.45-3.65l-2.9-3q0-.2.95-1.3t.95-2.55q0-5.25-2.8-12.9-3.85-10.45-9.85-9.5 0-3.6-4.65-8.45-4.15-4.3-5.55-4.3-1.25 0-2.4 1-1.2 1-2.45 1-1.4 0-1.3-.6.15-1.05-.2-1.4Q98.9-2.4 91.75-1L80.5-.15q-5.95.1-8 1.2-3.05 1.65-3.05 6.8l3 4q2-.4.2.7L68.6 14.7q0 .6 1.2 1l2.65 1-4.25 7.7q-1.9 3.55-4.6 9.8 2.65-.6 6.9 4l1.1 1.25q4.95 6.65 6.65 8.4l-.1-.85-.05-.45-.25-1.45q-.5-3.2.25-3.9.4-3.85 2.05-8.55 4.3-12.1 4.95-15.95.65 0 1.5.6l1.5 1.3q1.45-.95 3-2.85.85-1.05 2.75-1.05 1.05 0 3.05 1.95 2 1.95 2.3 1.95 3.05 0 6.75-2.4l5.5-4.35q.65.6 1.3 2.35.55 1.65.55 2.5.6 0 1-.6l1-1.4q.4-1.05 1.15.9l.85 3 2.45-.45 2.4-.45v4.75l1.95-.4 1.95-.45q0 2.55 1.75 11.1m.6 3.1q1.1 5.9 1.4 9.75l.2-.65q.35-1.45 1.05-3.2l1.3-2.85m-1.05 18.4v.2l.55 2v4.95q0 5.95-2.95 9.65-2.15 2.65-3 5.45M95.7 62.8l.6.55.15-.55.15-.75q.25.05.7-1.15 1-1.1 3.8-.85l9.05.65 5.4-.25.8-.1M129.4 44.4l.15.8.1.6v.1l.05.25.1-.6.1 1.7.15.9m-.35-1.9l.2 1.4v-.2l-.2-1.25v.05l-.15-1.05m.15 1l-.05-.3m.25 1.55v-.2l-.2-1.1v.05m.35 2.95l-.15-.75v.45q-.35-.75-.3-1.9l.1-.7m-.1.7l.2.9.1.5v-.7l.15 1 .1.8.4 2 .1.55v-.15l.05.2v.05l-.05-.1v.1l-.1-.55-.1-.55-.3-1.35q.5 4.15-.05 4.7l-.1.15-.25.2-.2.15q-2 1.65-2 3L125 60.7q-1.05 1.05-1.2 2.1-.15.75.15 1.5l-.25-.2-1.05-1.3-.15-.15q-.85-1.05-1.75-3.1l-.7-.3q-.65 1.05-2 1.1h-1.7m13.7-12l-.15-.9m.15.9l.5 3.1.1.4-.6-3.7m0 .85l-.15-.65v.05l-.1-.55m1.5 9.4l-.1-1.6-.5-3.6m-.65-2.9l.1.5v-.2l-.1-.45m.5 2.55l.1.45m-50.4-.2l.85 1.35-.95-1.8-1.8-3.4-.1-.1q.05.7 2 3.95m3 18.4l2.9 5.4q.25 1.8 3.2 4.7 2.75 2.65 4.25 3.15 1.3.5 4.25 2.5 3.4 2.3 3.4 3.15 0 2.85.45 4.95m-23.6-47.5q-.3-2.45 0-5.35m31.4 29.1q.1-.95.6-1.45l1.7 2.25 1.6 2.8q.25-.85 1.85-1l2.55-.45q1.2-.65 1.35-1.3V68.7q0-3.1-3.1-3.65h-5.1l-7.25.25q-4.1.65-4.1 3.5 0 1.5 1.95 3.9t3.2 2.4q1.75 0 2.8-1.4 1-1.45 1.85-1.5l.05-1.6.05-.3-.1 1.9"/><path fill="none" stroke="#6F4828" stroke-width=".05" stroke-linecap="round" stroke-linejoin="round" d="M100.75 42.3l1.8.35h.05l.75.6.4.4m-12.85-1.8l5.1.1 4.75.35m1.85.35l.5.35.25.25m22.7-1.8l-2.05.05m-8.95 1.75l.65-.65q.45-.35.55-.35l2.8-.45 4.95-.3m2.05-.05h.05v.05M139.55 151l.3-.1 4.15-.6q2.8-.65 5.15-1.85"/><path fill="none" stroke="#966338" stroke-width=".05" stroke-linecap="round" stroke-linejoin="round" d="M116.35 60.35q.25-.75 1.35-1.85.8-.85.8-2.15 0-1.5-.4-2.2m-11.55-.8l-.75 1.35q-.4.65-.4 1.55 0 1.1.9 1.9l2.6 1.4m1.35-20.45q1.7 1.8 4.25 6.95 2.8 5.65 2.8 8.45 0 3.7-1.45 3.9-3.25-.35-6.8 0"/><path fill="none" stroke="#77411A" stroke-width=".05" stroke-linecap="round" stroke-linejoin="round" d="M132.35 38.85v.3q.4 5.75.4 9.25 0 7.3-.4 8.05l-1.05.8m-1.25-9.1L130 44.9m.05 3.75v-.3m0-.2v.2m0 .65v2.1l-.3 3.6m.3-6.05V49m-49.4 12.55l-.15-.45q-1.15.75-3.05.35-1.9-.75-1.9-2.7 0-1.5-1.15-4.2l-2.3-4.25q-2.3-3.05-2.7-5-1.15-3.45.4-6.15.3-.6.7-.95"/><path fill="none" stroke="#000" stroke-width=".05" stroke-linecap="round" stroke-linejoin="round" d="M80.15 51.35l.1.45.85 3.55.25 3.45-.45 2.05-.25.7-.25 1.25v.05q0 1.9 2.4 6.5"/><path fill="none" stroke="#492710" stroke-width=".05" stroke-linecap="round" stroke-linejoin="round" d="M101.25 69.55l5-1.55 12.25-.4"/><path fill="none" stroke="#333" stroke-width=".05" stroke-linecap="round" stroke-linejoin="round" d="M138.95 177.45q1.8-8.15 6.3-20.2.8-2.35 1.95-4.25m6.5 23.45l.2.2m-14.95.8l-1 5.55 1.95 18.1q1.15 13.25 1.9 15.3v.05l-2.5 1.3-.6.25-10.75 3.1-12.3 1.5-6.5.4-20.4-1.55-1.5-.35q-10.8-1.55-21.95-4.65l-8.85-2.7q.4-9.6 5.4-19.6l.4-.75v-.2q-.05-1.55-.8-4.45-1.85-8-7.6-25.1m3.25 60.75l-.25-.65"/><path fill="none" stroke="#371D0C" stroke-width=".05" stroke-linecap="round" stroke-linejoin="round" d="M173.15 288.35q-10.75-13.3-18.65-36.65-4.8-14.15-13.25-43.75-6.25 0-10.25 3.4-3.95 3.35-9.35 3.35-3.4 0-8.25-1.4-4.9-1.45-6.4-1.45-2.3 0-4.65 3.25-2.5 3.3-4.9 3.5l-7.55.15-5.7-.15-14.05-.55q-5.4-2.75-14.7-7.2-2 16-7 35.95-5.95 22.05-8.65 33.3v30.25q5.7 0 10.5-5.35l3.2-3.7q1.6-1.7 2.8-1.7l2 1.5 2 1.5q1.35 0 6.35-4.45t5.8-4.45q1.4 0 2.7 1.9l1.8 3.1q.85 0 .85-5l3.45 5.9q3.4 5.85 5.45 7.85-1-6.4 2.6-14.15l3.2-6.45q2-3.95 2.95-6.75 3.1 1.45 5.85 4.25l3.85 4.6 1.4-2.5q.6-1.25.6-2.5 1.95.75 6.25 4.65l6.35 6.1v-14.6l.5-.1q.45-.25.5-.7v-.1l.05.05q2.9 1.8 19.4 18.55 15.85 16.1 19.55 17.4 0-.85.5-2.95l.5-3.4q0-3-11.75-28.75l-1-.9q6.65 5.7 9.9 7.75v-6.85q6.2 3.2 7.55 3.95 5.2 2.9 6.95 4.9m.75-.6l1.25 1.5-2-.9"/><path fill="none" stroke="#966338" stroke-width=".05" stroke-linecap="round" stroke-linejoin="round" d="M105.75 41.5l.25.25"/><path fill="none" stroke="#4A0000" stroke-width=".05" stroke-linecap="round" stroke-linejoin="round" d="M93.55 32.85q-4.1 0-5.85 1.35-2.05 1.6-3.15 6.65v1.3q2.65-3.75 3.65-4.3 1.05-.65 5.05-.65 3.3-.65 7.2.95 3.2 1.3 5.3 3.35l-.45-3.15q0-1.4.95-2.35l1.2-1.35h-4.05v-.5l-2.2.5h-.2l.5-.6v-.1l-1.8.7.2-.3v-.3h-2.4l.5-.3.2-.3-1.2.3-1.7-.45q-1.1-.45-1.75-.45M126.25 32.8q1.3.75 2.7 2.9v4.2q-1.9-3.1-2.6-3.6l-3.1-.4-2.3.1-2.6 1.6q-2.7 1.5-3.85 3.15.7-2.2.7-3.25 0-.75-.6-1.65l-1.2-1.6h2.1l-.1-.6.7.1h.05l-.05-1.2.85.4.75.4.2-.15.2-.15 1.45.5q.1-.65.4-.75.55-.1.9-.45l2.15-.3q2.05 0 3.25.75"/></svg>