<svg xmlns="http://www.w3.org/2000/svg" viewBox="0 0 154.7 269.7" width="154.7" height="269.7" preserveAspectRatio="xMinYMin"><defs><radialGradient gradientUnits="userSpaceOnUse" r="819.2" cx="0" cy="0" spreadMethod="pad" gradientTransform="matrix(.134 0 0 .134 103.95 217.2)" id="a"><stop offset="0" stop-color="#fff"/><stop offset=".424" stop-color="#FDFDFD"/><stop offset=".635" stop-color="#F5F5F5"/><stop offset=".804" stop-color="#E8E8E8"/><stop offset=".949" stop-color="#D5D5D5"/><stop offset="1" stop-color="#ccc"/></radialGradient><linearGradient gradientUnits="userSpaceOnUse" x1="-819.2" x2="819.2" gradientTransform="matrix(.011 0 0 .008 113.15 203.45)" id="b"><stop offset="0" stop-color="#ccc"/><stop offset=".145" stop-color="#A7A7A7"/><stop offset=".31" stop-color="#848484"/><stop offset=".447" stop-color="#6E6E6E"/><stop offset=".533" stop-color="#666"/><stop offset=".612" stop-color="#6C6C6C"/><stop offset=".718" stop-color="#7E7E7E"/><stop offset=".839" stop-color="#9B9B9B"/><stop offset=".973" stop-color="#C3C3C3"/><stop offset="1" stop-color="#ccc"/></linearGradient><radialGradient gradientUnits="userSpaceOnUse" r="819.2" cx="0" cy="0" spreadMethod="pad" gradientTransform="matrix(.017 0 0 .017 103.15 203.7)" id="c"><stop offset="0" stop-color="#fff"/><stop offset=".424" stop-color="#FDFDFD"/><stop offset=".635" stop-color="#F5F5F5"/><stop offset=".804" stop-color="#E8E8E8"/><stop offset=".949" stop-color="#D5D5D5"/><stop offset="1" stop-color="#ccc"/></radialGradient><linearGradient gradientUnits="userSpaceOnUse" x1="-819.2" x2="819.2" gradientTransform="matrix(.029 0 0 .009 78.2 202.8)" id="d"><stop offset="0" stop-color="#ccc"/><stop offset=".145" stop-color="#A7A7A7"/><stop offset=".31" stop-color="#848484"/><stop offset=".447" stop-color="#6E6E6E"/><stop offset=".533" stop-color="#666"/><stop offset=".612" stop-color="#6C6C6C"/><stop offset=".718" stop-color="#7E7E7E"/><stop offset=".839" stop-color="#9B9B9B"/><stop offset=".973" stop-color="#C3C3C3"/><stop offset="1" stop-color="#ccc"/></linearGradient><linearGradient gradientUnits="userSpaceOnUse" x1="-819.2" x2="819.2" gradientTransform="matrix(.044 0 0 .037 102.65 237.15)" id="e"><stop offset="0" stop-color="#fff"/><stop offset=".424" stop-color="#FDFDFD"/><stop offset=".635" stop-color="#F5F5F5"/><stop offset=".804" stop-color="#E8E8E8"/><stop offset="1" stop-color="#999"/></linearGradient><linearGradient gradientUnits="userSpaceOnUse" x1="-819.2" x2="819.2" gradientTransform="matrix(-.012 -.004 .012 -.035 56.55 233.55)" id="f"><stop offset="0" stop-color="#fff"/><stop offset=".424" stop-color="#FDFDFD"/><stop offset=".635" stop-color="#F5F5F5"/><stop offset="1" stop-color="#999"/></linearGradient><linearGradient gradientUnits="userSpaceOnUse" x1="-819.2" x2="819.2" spreadMethod="repeat" gradientTransform="matrix(.005 0 0 .036 88.9 235.3)" id="g"><stop offset="0" stop-color="#5E5E5E"/><stop offset=".494" stop-color="#373737"/><stop offset="1" stop-color="#5E5E5E"/></linearGradient><linearGradient gradientUnits="userSpaceOnUse" x1="-819.2" x2="819.2" spreadMethod="repeat" gradientTransform="matrix(.005 0 0 .056 92.85 154.25)" id="h"><stop offset="0" stop-color="#5E5E5E"/><stop offset=".494" stop-color="#373737"/><stop offset="1" stop-color="#5E5E5E"/></linearGradient></defs><path fill="url(#a)" d="M121.5 195.75l.7-.05-.7.3v-.25.25l-.15.05q-1.5-.15.15-.3m-.15.3l.15-.05v.05h-.15"/><path fill="url(#b)" d="M121.35 196.05h.15V196l.7-.3q1 4.55 1.4 10.9-2 1.05-4.55 1.8-5.8 1.65-14.4 1.95l-.3-10.4q7.6-.5 14.5-2.9l2.5-1m-6.05 7.25q-.3-.35-.75-.35t-.75.35q-.3.3-.3.75t.3.75q.3.35.75.35t.75-.35q.35-.3.35-.75t-.35-.75m-8.35 1.9q0 .45.35.8l.75.3q.45 0 .75-.3l.35-.8q0-.45-.35-.75-.3-.35-.75-.35t-.75.35q-.35.3-.35.75"/><path d="M106.95 205.2q0-.45.35-.75.3-.35.75-.35t.75.35q.35.3.35.75l-.35.8q-.3.3-.75.3l-.75-.3q-.35-.35-.35-.8m8.35-1.9q.35.3.35.75t-.35.75q-.3.35-.75.35t-.75-.35q-.3-.3-.3-.75t.3-.75q.3-.35.75-.35t.75.35M95.5 206q0-.5.3-.8.3-.3.75-.3t.8.3l.3.8-.3.75-.8.3-.75-.3-.3-.75"/><path fill="url(#c)" d="M102.05 210.4h.9l-.85-.25-.1-.05v-10.05q-4.95.2-10.85-.15l13.1-2 .1 2.05.3 10.4-.1 2.15L91 210.25v-.2l11.05.35"/><path fill="url(#d)" d="M102.05 210.4L91 210.05l-7.7-.55-4.2-.4-5.4-.6-19.45-2.85v-.1l2-10.35q8.75 1.9 18.9 3.2l2.15.3 2.45.25 11.3.95h.1q5.9.35 10.85.15v10.05l.1.05-.05.25M95.5 206l.3.75.75.3.8-.3.3-.75-.3-.8q-.35-.3-.8-.3-.45 0-.75.3t-.3.8"/><path fill="url(#e)" d="M62.05 269.65l-.35-.15.15-.05.2.2"/><path fill="url(#f)" d="M62.05 269.65h.1l.05.05-.15-.05"/><path fill="url(#g)" d="M123.6 206.6q4.7 9.7 10 22.55 5.25 12.8 6.7 15.7-13.35 15.6-28.75 18.95-15.65 3.45-35.45-2.8-5.9-1.85-12-4.45-6.6-2.9-12.85-7L41 241.3l.8-2q4.35-13.2 12.45-33.65l19.45 2.85 5.4.6 4.2.4 7.7.55v.2l13.55 2.25.1-2.15q8.6-.3 14.4-1.95 2.55-.75 4.55-1.8"/><path fill="url(#h)" d="M62.95 110.85l4.9-1.15 6.35 5.85q7.75 6.3 15.3 9.4h.15q6.3 1.7 10.2.85 3.85-.9 7-2.95 3.1-2.1 4.7-4.35 1.6-2.3 1.85-3.6l1-5.25.1-.95 4.25.3 11.55 1.9q7.05 1.25 11.5 5.9 4.7 13.1 5.8 27.15l7.1 18.35-.05.05q-5.1 2.7-11.2 7.2-9.55 7.05-14.75 13.85-1.45 1.8-2.45 3.65l-1.1-9.6v-.05l-.1-.5-.2.6-2.55 8.05q-1.25 4.3-.8 10.2-1.65.15-.15.3l-2.5 1q-6.9 2.4-14.5 2.9l-.1-2.05-13.1 2h-.1l-11.3-.95-2.45-.25-2.15-.3q-10.15-1.3-18.9-3.2-.05-1.1-2.5-5.8-2-3.8-.7-11.05l-.5 2.25-1.15 5.5q-1.7-3.05-4.85-6.35-4.85-5.15-13.35-10.9-7-4.75-13.1-7.95 2.9-15.85 4.95-26.15 3.1-15.9 15.95-19.8 12.85-3.9 21.95-4.1m-9.1 63.4h.85l-.65-.55-.15.2-.5.9.3.55.15-1.1m-.15 1.1l-.65 3 .65-2.95v-.05m4.35 1.8l-3.35-2.9 3.35 2.9m-.25-45.25q-5.75 11.3-9.25 23-3.4 11.2 5.5 18.8-8.9-7.6-5.5-18.8 3.5-11.7 9.25-23m67.75-8.05q16.95 25.5 17.1 36.3.15 10.8-17.6 16.75 17.75-5.95 17.6-16.75-.15-10.8-17.1-36.3"/><path fill="none" stroke="#483132" stroke-width=".05" stroke-linecap="round" stroke-miterlimit="3" d="M62.95 110.85l4.9-1.15 6.35 5.85q7.75 6.3 15.3 9.4h.15q6.3 1.7 10.2.85 3.85-.9 7-2.95 3.1-2.1 4.7-4.35 1.6-2.3 1.85-3.6l1-5.25.1-.95m40.15 53.65q-5.1 2.7-11.2 7.2-9.55 7.05-14.75 13.85-1.45 1.8-2.45 3.65m-74.85-.95q-1.7-3.05-4.85-6.35-4.85-5.15-13.35-10.9-7-4.75-13.1-7.95"/><path fill="none" stroke="#666" stroke-width=".05" d="M20.1 160.9q2.9-15.85 4.95-26.15 3.1-15.9 15.95-19.8 12.85-3.9 21.95-4.1m51.55-2.15l4.25.3 11.55 1.9q7.05 1.25 11.5 5.9 4.7 13.1 5.8 27.15l7.1 18.35-.05.05m-28.4 24.7l-1.1-9.6m-.3.05l-2.55 8.05q-1.25 4.3-.8 10.2l.7-.05q1 4.55 1.4 10.9 4.7 9.7 10 22.55 5.25 12.8 6.7 15.7M41 241.3l.8-2q4.35-13.2 12.45-33.65v-.1l2-10.35q-.05-1.1-2.5-5.8-2-3.8-.7-11.05l-.5 2.25-1.15 5.5m2.5-12.2l-.05.35m.05-.35l-.5.9.3.55.15-1.1m-.15 1.1v.05l-.65 2.95.65-3m50.65 24.6q7.6-.5 14.5-2.9l2.5-1h.15V196l.7-.3m-.7.05v.25l-.15.05m3.8-18.65l-.1-.5-.2.6m-22.8 32.9h.9l-.85-.25m-.05.25L91 210.05v.2l13.55 2.25.1-2.15-.3-10.4-.1-2.05-13.1 2q5.9.35 10.85.15v10.05l.1.05m21.5-3.55q-2 1.05-4.55 1.8-5.8 1.65-14.4 1.95m-13.5-10.45h-.1l-11.3-.95-2.45-.25-2.15-.3q-10.15-1.3-18.9-3.2M91 210.05l-7.7-.55-4.2-.4-5.4-.6-19.45-2.85m7.8 64l-.35-.15m.15-.05l.2.2h.1m.05.05l-.15-.05"/><path fill="none" stroke="#5B5B5B" stroke-width=".05" stroke-linecap="round" stroke-miterlimit="3" d="M54.7 174.25l-.65-.55q-8.9-7.6-5.5-18.8 3.5-11.7 9.25-23m67.25 45q17.75-5.95 17.6-16.75-.15-10.8-17.1-36.3"/><path fill="none" stroke="#000" stroke-width=".05" d="M115.3 203.3q.35.3.35.75t-.35.75q-.3.35-.75.35t-.75-.35q-.3-.3-.3-.75t.3-.75q.3-.35.75-.35t.75.35m-8.35 1.9q0-.45.35-.75.3-.35.75-.35t.75.35q.35.3.35.75l-.35.8q-.3.3-.75.3l-.75-.3q-.35-.35-.35-.8m-11.45.8q0-.5.3-.8.3-.3.75-.3t.8.3l.3.8-.3.75-.8.3-.75-.3-.3-.75"/><path fill="none" stroke="#4C4747" stroke-width=".05" stroke-linecap="round" stroke-miterlimit="3" d="M140.3 244.85q-13.35 15.6-28.75 18.95-15.65 3.45-35.45-2.8-5.9-1.85-12-4.45-6.6-2.9-12.85-7L41 241.3"/><path fill="none" stroke="#5B5B5B" stroke-width=".05" stroke-linecap="round" stroke-linejoin="round" d="M125.15 177.45l-.3.05m-70.15-3.25l3.35 2.9m67.1.3v-.05"/></svg>