<svg xmlns="http://www.w3.org/2000/svg" viewBox="24.6 3.1 179.3 499.8" width="179.3" height="499.8" preserveAspectRatio="xMinYMin"><defs><radialGradient gradientUnits="userSpaceOnUse" r="819.2" cx="0" cy="0" fx="22.4" fy="0" spreadMethod="pad" gradientTransform="matrix(.078 0 0 .078 175.7 228.4)" id="a"><stop offset="0" stop-color="#6c6"/><stop offset=".482" stop-color="#660"/><stop offset=".573" stop-color="#666F09"/><stop offset="1"/></radialGradient><radialGradient gradientUnits="userSpaceOnUse" r="819.2" cx="0" cy="0" fx="22.4" fy="0" spreadMethod="pad" gradientTransform="matrix(.018 0 0 .018 100.15 228.4)" id="b"><stop offset="0" stop-color="#6c6"/><stop offset=".482" stop-color="#660"/><stop offset=".573" stop-color="#666F09"/><stop offset="1"/></radialGradient><linearGradient gradientUnits="userSpaceOnUse" x1="-819.2" x2="819.2" gradientTransform="matrix(-.008 -.056 .028 -.004 97.95 245.4)" id="c"><stop offset=".063" stop-color="#990600"/><stop offset=".573" stop-color="#2F0000"/><stop offset="1" stop-color="#992500"/></linearGradient><linearGradient gradientUnits="userSpaceOnUse" x1="-819.2" x2="819.2" gradientTransform="matrix(-.062 -.001 .001 -.043 60.45 255.9)" id="d"><stop offset=".063" stop-color="#990600"/><stop offset=".573" stop-color="#2F0000"/><stop offset="1" stop-color="#992500"/></linearGradient><radialGradient gradientUnits="userSpaceOnUse" r="819.2" cx="0" cy="0" fx="22.4" fy="0" spreadMethod="pad" gradientTransform="matrix(.069 0 0 .069 38.25 220.2)" id="e"><stop offset="0" stop-color="#6c6"/><stop offset=".482" stop-color="#660"/><stop offset=".573" stop-color="#666F09"/><stop offset="1"/></radialGradient><linearGradient gradientUnits="userSpaceOnUse" x1="-819.2" x2="819.2" gradientTransform="matrix(.046 -.01 .006 .03 132.35 260.6)" id="f"><stop offset=".063" stop-color="#990600"/><stop offset=".573" stop-color="#2F0000"/><stop offset="1" stop-color="#992500"/></linearGradient><linearGradient gradientUnits="userSpaceOnUse" x1="-819.2" x2="819.2" gradientTransform="matrix(.03 0 0 .043 89.55 67.5)" id="g"><stop offset="0" stop-color="#D98651"/><stop offset=".533" stop-color="#DFA168"/><stop offset="1" stop-color="#D98651"/></linearGradient><linearGradient gradientUnits="userSpaceOnUse" x1="-819.2" x2="819.2" gradientTransform="matrix(-.001 -.033 .002 0 115 49.3)" id="h"><stop offset="0" stop-color="#D98651"/><stop offset=".533" stop-color="#DFA168"/><stop offset="1" stop-color="#D98651"/></linearGradient><linearGradient gradientUnits="userSpaceOnUse" x1="-819.2" x2="819.2" gradientTransform="matrix(-.003 0 0 -.002 84.1 66.5)" id="i"><stop offset="0" stop-color="#fff"/><stop offset="1" stop-color="#999"/></linearGradient><linearGradient gradientUnits="userSpaceOnUse" x1="-819.2" x2="819.2" gradientTransform="matrix(.002 0 0 .001 92.7 66.6)" id="j"><stop offset="0" stop-color="#fff"/><stop offset="1" stop-color="#999"/></linearGradient><linearGradient gradientUnits="userSpaceOnUse" x1="-819.2" x2="819.2" gradientTransform="matrix(-.002 0 0 -.002 104.3 66.1)" id="k"><stop offset="0" stop-color="#fff"/><stop offset="1" stop-color="#999"/></linearGradient><linearGradient gradientUnits="userSpaceOnUse" x1="-819.2" x2="819.2" gradientTransform="matrix(.001 0 0 .001 111.5 65.45)" id="l"><stop offset="0" stop-color="#fff"/><stop offset="1" stop-color="#999"/></linearGradient><radialGradient gradientUnits="userSpaceOnUse" r="819.2" cx="0" cy="0" spreadMethod="pad" gradientTransform="matrix(.003 0 0 .003 88.8 66.6)" id="m"><stop offset=".659" stop-color="#363"/><stop offset="1"/></radialGradient><radialGradient gradientUnits="userSpaceOnUse" r="819.2" cx="0" cy="0" spreadMethod="pad" gradientTransform="matrix(.003 0 0 .003 108.35 65.75)" id="n"><stop offset=".659" stop-color="#363"/><stop offset="1"/></radialGradient><linearGradient gradientUnits="userSpaceOnUse" x1="-819.2" x2="819.2" gradientTransform="matrix(0 -.002 .008 0 99.35 90.35)" id="o"><stop offset="0" stop-color="#923005"/><stop offset=".525" stop-color="#B43A07"/><stop offset="1" stop-color="#923005"/></linearGradient><linearGradient gradientUnits="userSpaceOnUse" x1="-819.2" x2="819.2" gradientTransform="matrix(0 -.002 .008 0 99.35 88.15)" id="p"><stop offset="0" stop-color="#923005"/><stop offset=".525" stop-color="#B43A07"/><stop offset="1" stop-color="#923005"/></linearGradient><linearGradient gradientUnits="userSpaceOnUse" x1="-819.2" x2="819.2" gradientTransform="matrix(.047 0 0 .028 87.1 185.5)" id="q"><stop offset=".063" stop-color="#990600"/><stop offset=".573" stop-color="#2F0000"/><stop offset="1" stop-color="#992500"/></linearGradient><linearGradient gradientUnits="userSpaceOnUse" x1="-819.2" x2="819.2" gradientTransform="matrix(.023 0 0 .021 68.2 164.6)" id="r"><stop offset=".063" stop-color="#990600"/><stop offset=".573" stop-color="#2F0000"/><stop offset="1" stop-color="#992500"/></linearGradient><linearGradient gradientUnits="userSpaceOnUse" x1="-819.2" x2="819.2" gradientTransform="matrix(-.007 -.017 .019 -.008 125.45 160.8)" id="s"><stop offset=".063" stop-color="#990600"/><stop offset=".573" stop-color="#2F0000"/><stop offset="1" stop-color="#992500"/></linearGradient><linearGradient gradientUnits="userSpaceOnUse" x1="-819.2" x2="819.2" gradientTransform="matrix(-.008 -.02 .017 -.007 66.65 167.35)" id="t"><stop offset=".063" stop-color="#990600"/><stop offset=".573" stop-color="#2F0000"/><stop offset="1" stop-color="#992500"/></linearGradient><linearGradient gradientUnits="userSpaceOnUse" x1="-819.2" x2="819.2" gradientTransform="matrix(-.036 -.016 .015 -.033 44.4 145.95)" id="u"><stop offset=".063" stop-color="#990600"/><stop offset=".573" stop-color="#2F0000"/><stop offset="1" stop-color="#992500"/></linearGradient><linearGradient gradientUnits="userSpaceOnUse" x1="-819.2" x2="819.2" gradientTransform="matrix(-.021 .008 -.008 -.023 140.05 133.95)" id="v"><stop offset=".063" stop-color="#990600"/><stop offset=".573" stop-color="#2F0000"/><stop offset="1" stop-color="#992500"/></linearGradient><linearGradient gradientUnits="userSpaceOnUse" x1="-819.2" x2="819.2" gradientTransform="matrix(-.024 .001 -.004 -.089 94.35 429.5)" id="w"><stop offset="0" stop-color="#630"/><stop offset="1"/></linearGradient><linearGradient gradientUnits="userSpaceOnUse" x1="-819.2" x2="819.2" gradientTransform="matrix(-.034 .008 -.021 -.087 163.75 418.45)" id="x"><stop offset="0" stop-color="#630"/><stop offset="1"/></linearGradient><radialGradient gradientUnits="userSpaceOnUse" r="819.2" cx="0" cy="0" fx="22.4" fy="0" spreadMethod="pad" gradientTransform="matrix(.077 0 0 .077 66.7 59.65)" id="y"><stop offset="0" stop-color="#6c6"/><stop offset=".482" stop-color="#660"/><stop offset=".573" stop-color="#666F09"/><stop offset="1"/></radialGradient><radialGradient gradientUnits="userSpaceOnUse" r="819.2" cx="0" cy="0" fx="22.4" fy="0" spreadMethod="pad" gradientTransform="matrix(.116 0 0 .116 84.2 8.2)" id="z"><stop offset="0" stop-color="#6c6"/><stop offset=".482" stop-color="#660"/><stop offset=".573" stop-color="#666F09"/><stop offset="1"/></radialGradient></defs><path fill="url(#a)" d="M111.85 221.1l15.65-1.75 8.65 14.65H136l-.95-1.45q-9.7 6-20.55 6.85l-2 .15 1.9-3.6-.8-13.3-1.75-1.55m24.95 14.05l.3.5-.3-.5"/><path fill="url(#b)" d="M92.9 221.9h.15l7.15-.15 9.2-.5 2.1 2.05.6 12.5-2.6 3.85-15.35-.8-3-5.55-.15-9.25 1.9-2.15"/><path fill="url(#c)" d="M112.5 239.55l2-.15q-2.1 10 6.35 37.1l2.5 7.65q3.15 9.35 6.5 17.7l-19.2 17.4-27-12.6q2.85-7.65 4.05-20.7.85-9.3.85-21.3v-.35l-.45-18.8-.5-7.9 4.15.85 1.75 2.45 17.85.75 1.15-2.1"/><path fill="url(#d)" d="M87.6 237.6l.5 7.9.45 18.8-.15.15.15.2q0 12-.85 21.3l-17.35.7q-12 1.4-22.4 4.05-5.1-11.05-6.15-25.3-2.15-28.5 14.1-40.85 1 2.3 3.7 4.2 7.15 4.15 13.15 5.45l14.85 3.4m-10.45 18.35q5.15 1.1 11.25 8.5-6.1-7.4-11.25-8.5"/><path fill="url(#e)" d="M91.75 238.45l-4.15-.85-14.85-3.4q-6-1.3-13.15-5.45-2.7-1.9-3.7-4.2l5.15-8.75q8.3 5.75 28.75 6.1l-1.7 1.5.4 10.65 3.25 4.4"/><path fill="url(#f)" d="M114.5 239.4q10.85-.85 20.55-6.85l5.2 19.35q4.1 19.25 4.2 34.7-4.95-1.75-12.55-2.35-4.35-.35-8.55-.1l-2.5-7.65q-8.45-27.1-6.35-37.1"/><path fill="url(#g)" d="M68.1 64.75q-4.25-18.7 9.05-27.25 6.65-4.25 14.15-4.95 14.65-.9 19.85 8.65 1.7 3.15 2.35 7.5l.55 5.25q.4 3 0 7.3v1l-.1-.15-.05.6v.05l-.1.95-.15.8q.75 5.75.55 14l-.05.5-.1 3.2q-.7 3.55-4 9l-3.2 4.7-3.95 5.65q-.8.65-2.05 1.05-4.35-.05-12.7-4.45l-7.4-4.45q-4.35-2.05-6.2-7.8l-.95-5.1q-.45.55-2.1.85-1.95.35-2.85-2.35l-.5-2.8q-.3 0-.85-.9-1.05-1.85-2.1-6.5-1.05-4.6 2.4-4.4l.5.05q1.5.2 3.2 1.05-1.7-.85-3.2-1.05M73.55 80l.15.55-.15-.55m.15.55l-.1.25.1-.2v-.05"/><path fill="url(#h)" d="M113.8 63.7q1.15-.9 2.25-.25l.95.85V68l-1.65 3.7.55 1.1q.55 1.6.55 3.9t-1.1 2.3l-1.15-.5q.2-8.25-.55-14l.15-.8"/><path fill="url(#i)" d="M83.35 66.55l-.1-.15-.1-.15 3.05-.85.8-.1q-.45.6-.45 1.35 0 .95.65 1.6l.45.35q-2.95.2-4.3-2.05"/><path fill="url(#j)" d="M91.1 65.55l2.65.8q-1.4.9-3 1.5l.35-1.2q0-.65-.35-1.2l.35.1"/><path fill="url(#k)" d="M106.35 64.65q-.3.5-.3 1.15 0 .95.65 1.6l.15.15-.65-.1-.1-.05h-.05q-2.2-.45-4.05-1.45 1.4-.7 2.85-1.05h.1l1.4-.25"/><path fill="url(#l)" d="M110.3 66.9l.25-1.1-.15-.9 1.25.25-.2.45-1.15 1.3"/><path d="M109.6 65.8l-.35.8-.85.35q-.5 0-.85-.35t-.35-.85q0-.5.35-.85.3-.3.7-.3h.5l.5.3.05.05-.25.1-.1.3.1.35.35.1h.2m-19.55.6v.1l-.35.85q-.35.35-.85.35t-.85-.35q-.35-.35-.35-.85t.35-.85q.35-.35.85-.35.45 0 .8.3l-.25.15-.1.3.1.35.35.1.3-.1"/><path fill="#fff" d="M90.05 66.4l-.3.1-.35-.1-.1-.35.1-.3.25-.15h.1l.3.15.15.3-.15.35m19.25-1.45l.1-.05q.2 0 .3.15l.15.3-.15.35-.1.1h-.2l-.35-.1-.1-.35.1-.3.25-.1"/><path fill="url(#m)" d="M90.75 67.85l-1.35.4-.25.1-1.5.25-.45-.35q-.65-.65-.65-1.6 0-.75.45-1.35l3.75.15q.35.55.35 1.2l-.35 1.2m-1.1-2.25q-.35-.3-.8-.3-.5 0-.85.35t-.35.85q0 .5.35.85t.85.35q.5 0 .85-.35l.35-.85v-.1l.15-.35-.15-.3-.3-.15h-.1"/><path fill="url(#n)" d="M109.6 65.8l.1-.1.15-.35-.15-.3q-.1-.15-.3-.15l-.1.05-.05-.05-.5-.3h.05l1.6.3.15.9-.25 1.1q-1.3.9-3.45.65l-.15-.15q-.65-.65-.65-1.6 0-.65.3-1.15l1.9-.05q-.4 0-.7.3-.35.35-.35.85t.35.85q.35.35.85.35l.85-.35.35-.8"/><path fill="#210" d="M108.25 64.6l-1.9.05-1.4.25.75-.35 1.2-.8.1.2v.4q.95-.7 1.4-.7l.1.15.1.15q.3 0 .45-.2l.1-.05.2-.35.2.55v.05l.5-.55.2-.25.5.4v.3l.45-.4h.2l.1.6.2-.8q.3.15.3 1.05l-.15.65-.2.4q1.1 1.05 1.35 1.8v.4l-.55-.45-.45-.2.3.65-.4.6-.9-.95-.25 1.25-.2.1-.2-.55-.5-.15h-.1l.1.7-.2.1-1-.6.1.4-.1.1q-.5-.35-.95-.55l-.65-.3-.85-.25.65.1q2.15.25 3.45-.65l1.15-1.3.2-.45-1.25-.25-1.6-.3h-.55m-19.3-.2l.2.55v-.3l.45-.1.05.3q.05.35.6.45l.4.05.1.1L87 65.3l-.8.1-3.05.85.1.15-.7-.35-.4-.75.4.15.85.35h.5l-.25-.3-.15-.25v-.6l.2.15.7.35h.2v-.7l.25-.1q.35 0 .5.25l.4.35.1-.5.7.7q.1-.6.5-.6.3 0 .45.25l.1.25.1-.35v-.25l.25.15.35.25.4-.45h.25m.2 3.95l-.4.4-.15.15-.55.25-.05-.1-.1-.1-.9.2.05-.2-.1-.1q-.15 0-.45.15l-.5.15-.75-.2-.25-.1-.25-.1-.55.2-.1-.7h-.5l-.3.2q0-.9-.4-.9l-.65.3v-.45l1.1-.85q1.35 2.25 4.3 2.05l1.5-.25"/><path fill="#363" d="M101.4 61.6q.05-.7.3-.7 1.9-.95 4.75-2.1 2.85-1.1 3.8-.4.95.65 2.15 2.4t1.3 2.55l-.6-1.25q-1.35-1.75-2.7-2.7-1.35-.95-5.05.95-1.85.9-3.25 1.95-.7-.05-.7-.7m-13.1-3.05Q92 60 94.45 61.2q.3.05.35.9 0 .85-.85.9l-4.25-2.5q-4.75-2.4-6.5-1.2t-3.45 3.45l-1.4 2.05 2.3-3.7q1.5-2.25 2.75-3.1 1.2-.9 4.9.55"/><path fill="url(#o)" d="M92.85 88.85l1.95-.15 4.75.5 2.8.15 1.4-.5 1.3-.25.8.05-.95 1.7q-.9 1.25-2.7 1.65-1.85.35-5.55-.85l-3.8-2.3"/><path fill="url(#p)" d="M92.85 88.85l2.45-.95q2.9-1.05 3.9-.9 1 .15 1.6.45l1.3-.25q.7-.55 1.8-.2 1.1.3 1.95 1.65l-.8-.05-1.3.25-1.4.5-2.8-.15-4.75-.5-1.95.15"/><path fill="url(#q)" d="M48.8 169.2l-.05-.5q-.25-2.65 0-5.25l.25-1.15v.4l.4 1.1q7 18.75 22.95 18.15 7.7-.3 14.2-4.1l.9-.55 9.6-.7q7 .4 8.95 9.55 1.15-7.1 3.05-9.15 1.85-2.1 3.45-1.65l.3-.1 2.35 1.1q3.7.9 10.55.2l-2.25 6.65q-2.35 7.45-2.5 10.2-.2 4.4-.75 8.05l-1 4.4q-1.05-8.05-5.6-12.4-9.15-8.6-26.85 10.1l-.95 2.9-1.55 2.3q-4.25-2.45-8.65-3.9-8.8-2.9-9.6 2.15-3.5-2.6-7.4-9.35l-.25-.45-7.3-19.6q-1.8-4.25-2.25-8.4"/><path fill="url(#r)" d="M86.35 177.5l1.1-.2-.9.55-.2-.35"/><path fill="url(#s)" d="M112.8 175.25q7.8-2.7 13.5-7.3 10.15-8.2 4.45-17.55l-3.65-6.5 10.65 1.9h.1l.1.25 1.6 3.9q1.75 5.05 1.9 9.5.35 14.1-15.45 16.8l-.25.05-.05.25q-6.85.7-10.55-.2l-2.35-1.1m25.15-29.2l-.2-.25.2.25"/><path fill="url(#t)" d="M49 162.3l.3-6h.1q10.75-3.05 22.45-8.3l-.15 3q-.85 4.6.35 8.8 3.75 13.4 14.3 17.7l.2.35q-6.5 3.8-14.2 4.1-15.95.6-22.95-18.15l-.4-1.1v-.4"/><path fill="url(#u)" d="M49 162.3l-.25 1.15q-.25 2.6 0 5.25l.05.5-3.55 10.45q-.4-8.65-9.7-14.65-2.9-1.9-6.4-3.3l-2.9-1.05-.8-13.05q-4.3-16.65 12.85-23.75 8.6-3.55 18.3-3.8-3.1 3.35-.9 8.25 1.1 2.45 2.8 4.25-4.75 4.95-7.6 17.85-1.15 5.3-1.5 5.9h-.1l-.3 6"/><path fill="url(#v)" d="M137.75 145.8q-8.8-10.65-11.05-17.9-.75-2.3-.75-4.05l.15-1.2q.75-1.65 1.5-6.65l-2.55-5.3q17.85.75 20.25 16.25 1.2 7.75-.55 15.45l2.15 10.7q-1.8.95-3.8 3.75l-1.65 2.6q-.15-4.45-1.9-9.5l-1.6-3.9-.1-.25h-.1"/><path fill="url(#w)" d="M76.95 360.3l1.4-3.45q10.55 17.3 21.65 10.4 3.5-2.15 6.6-6.45l2.4-3.9q4.65 6.8 2.2 26.75-1.25 10.45-6 31.8-2.35 10.7-2.35 20.95 0 5.1.45 8.05l1.4 20 4.3 30.2q-17.55 13.05-26.75 5.45-2.85-2.35-4.55-6.65l-1.1-3.8 7.15-37.1q1.2-8.3.45-22.35l-.95-12.4q-10.1-25.3-8.45-45.85.5-6.45 2.15-11.65"/><path fill="url(#x)" d="M129.45 385.5q-5.75-9.6-10.1-28.1l3.95 2.1q4.6 2.2 8.55 2.7 12.6 1.6 13.8-14.8l2.45 2.85q2.9 3.8 5.3 8.75 7.6 15.8 7 36.9l8.3 20.1q9.25 21.2 14.05 26.55l11.4 8.2q11.05 9 9.55 13.2-3.8 10.6-8.95 17.8-8.1 11.4-13.9 3.15-5.65-8.05-8.4-19.8l-1.6-10.2q-1.15-.7-2.55-1.9-2.7-2.35-3.6-4.75l-1.75-5.2-.65-2.4-10.3-20.6q-10.95-21.2-13.95-24.15-5.8-5.7-8.6-10.4"/><path fill="url(#y)" d="M51.45 46.1v-.4l.2.15-.2.25m16.5-33.4v-.4l.1.25.05.05-.15.1"/><path fill="url(#z)" d="M67.95 12.7l.15-.1q.5 1.1 2.65 3.05 2.45 2.2 2.6 2.8.85-1 1.1-3.65l.05-2.9 1.55 1.35 2.3 2.5 1.1-1.1.05-1.95q0-1.8-.75-4.5l-.7-2.75q2.35 2.1 9.9 7.6v-1.9l-1.2-2.7q-.7-1.4-1.1-2.7 1.3.4 3.85 2.4l3.4 2.9-1.65-3.7L89.1 3.1l5.7 3.3q2.15.2 9.05 6.8t6 9.45h.4l-1-9.2q6.85 13.1 7.8 18.95.55 3.4.9 10.25 1.15 5.65 1.55 10.2.35 4.05.35 10.7l-.1 12.35q-.3 3.9-1.55 6.3l-4.75 6.25q-5.15 6.1-9.25 11.55l-.05-.05q3.55-4.55 7.2-11.5l2.95-6.05-.1-3.2.25-1.3q1.95.85 1.5-2.6l-.9-3.65 2.15-4.15-.6-2.9-1.55-1-.8 4.9-.4-4.5-.2-15.9q-.35-2.45-1.5-2.35l-1.05.55q0-3.95-1.55-2.9l-1.5.75q-1.8-2.1-2.55.35l-1.9-.25.5.5-1.3-.2-.1-.05h.1v.05-.05h-.1l.15.35.2.6-.15-.4v.15l.15.35-.55-.1q-1.5 3.65-9.95.6l.25.7q-.8-.8-3.45-1.75l-3.5-1.15Q81.65 42.5 80.1 45l-.65 2.8q-5.75 0-7 11.85-.6 5.75-.1 11.55Q71.9 67 70 65.6l-1.65-.5H67.2q-1.15.75-1.15 1.6l.35 1.8.45 2.55q.05 1.4.9 2.5l1.2 1.8.1 2.45q-.05 1.3.7 1.9 1.35 1.1 2.25 1.4l.6.2h.2q.35-.2.6 0 .75.6 1 4.55.45 2.15 2.9 4.7L76 99.1l-1.75-1.6-.75.05q-.65 0-6.55-3.5-6.3-3.7-8.55-5.75-2.05-1.85-4.6-8.2-1.75-4.45-2.35-6.75.4-.4 1.9-.4l3.85.8h.4l-3.25-7.65q-3.05-7-3.65-9.25l1.55.75 1.15.75.25.05.5.35q.4-.75.4-1.9 0-1.35-1.55-5.7-1.55-4.4-1.55-5.05l.2-.25 1.4 1.5 1.1 1.4h.75q-.9-4.8.55-10.3l2.35-9.7q.9-4.2 2.3-.2l1.35 4.1 2.15-4.4q1.9-4.65-.05-9.2l1.75 1.3 1.15 1.15q1.65-1.05 1.75-4.35l-.25-4.45M93 11.55v-.4l-.1-.1.1.5m10.6 32.7l-.05-.05q-.85-.5-.75.3l.8-.25-.8.25q-.1-.8.75-.3l.05.05-.05-.05.05.05m-.7.95l-.2-.7.2.7m0-.15l-.05-.2.05.2"/><path fill="none" stroke="#666D07" stroke-width=".05" stroke-linecap="round" stroke-linejoin="round" d="M68.2 65.05l-1.25-.1q-1.35-.05-1.35 2.55 0 2.55.9 4.5l2.15 3.75.3 1.95q.2 1.7.5 2.1.65 1 1.7 1.35l1.45.35"/><path fill="none" stroke="#222503" stroke-width=".05" stroke-linecap="round" stroke-linejoin="round" d="M136.8 235.15l.3.5-.3-.5m-.65-1.15l-8.65-14.65-15.65 1.75m23.2 11.45L136 234m-46.2-12.1q-20.45-.35-28.75-6.1l-5.15 8.75"/><path fill="none" stroke="#965321" stroke-width=".05" stroke-linecap="round" stroke-linejoin="round" d="M111.85 221.1l1.75 1.55.8 13.3-1.9 3.6m-3.1-18.3l2.45-.15-1.65-1.5-17.6-.2-2.8 2.5h3.25l7.15-.15 9.2-.5 2.1 2.05.6 12.5-2.6 3.85h.1l2.9-.1m-18.35-.7l-2.4-.4-3.25-4.4-.4-10.65 1.7-1.5m3.1 0l-1.9 2.15.15 9.25 3 5.55 15.35.8"/><path fill="none" stroke="#3A0000" stroke-width=".05" stroke-linecap="round" stroke-linejoin="round" d="M112.5 239.55l2-.15q10.85-.85 20.55-6.85m-22.55 7l-1.15 2.1-17.85-.75-1.75-2.45-4.15-.85.5 7.9.45 18.8v.35q0 12-.85 21.3-1.2 13.05-4.05 20.7l27 12.6 19.2-17.4q-3.35-8.35-6.5-17.7l-2.5-7.65q-8.45-27.1-6.35-37.1m-58.6-14.85q1 2.3 3.7 4.2 7.15 4.15 13.15 5.45l14.85 3.4m.8 26.85l.15.2m-.15-.2q-6.1-7.4-11.25-8.5m46.2 28.2q4.2-.25 8.55.1 7.6.6 12.55 2.35-.1-15.45-4.2-34.7l-5.2-19.35m-79.15-8Q39.65 236.9 41.8 265.4q1.05 14.25 6.15 25.3 10.4-2.65 22.4-4.05l17.35-.7"/><path fill="none" stroke="#8E5027" stroke-width=".05" stroke-linecap="round" stroke-linejoin="round" d="M113.8 63.7l.1-.95v-.05l.05-.6.1.15v-1q.4-4.3 0-7.3l-.55-5.25q-.65-4.35-2.35-7.5-5.2-9.55-19.85-8.65-7.5.7-14.15 4.95-13.3 8.55-9.05 27.25 1.5.2 3.2 1.05m42.9 12.7l1.15.5q1.1 0 1.1-2.3t-.55-3.9l-.55-1.1L117 68v-3.7l-.95-.85q-1.1-.65-2.25.25l-.15.8q.75 5.75.55 14l-.05.5-.1 3.2q-.7 3.55-4 9l-3.2 4.7-3.95 5.65q-.8.65-2.05 1.05-4.35-.05-12.7-4.45l-7.4-4.45q-4.35-2.05-6.2-7.8l-.95-5.1q-.45.55-2.1.85-1.95.35-2.85-2.35l-.5-2.8q-.3 0-.85-.9-1.05-1.85-2.1-6.5-1.05-4.6 2.4-4.4l.5.05m5.6 15.8l-.15-.55m.15.55v.05l-.1.2.1-.25M108.25 64.6l-1.9.05m.5 2.9q2.15.25 3.45-.65l1.15-1.3.2-.45-1.25-.25-1.6-.3h-.55m1 .3l.05.05m.75-1.55q-2.8-.95-8.5 1.85m4.65 2.2l-.1-.05h-.05q-2.2-.45-4.05-1.45 1.4-.7 2.85-1.05h.1l1.4-.25m-15.7.7l.45.2 2.65.8q-1.4.9-3 1.5l-1.35.4-.25.1m-5.8-1.8l-.1-.15m-.7-.95l.95-.55m.2-.1l1.15-.65q2.9-1.2 9.3 1.45m-5.2-1.2l-.05-.05-.2.05m-1.7.9l-.8.1-3.05.85M87 65.3l3.75.15.35.1m-3.45 3.05l1.5-.25m-5.8-1.8q1.35 2.25 4.3 2.05m9.4 11.25l-.6 1Q96.1 82 97.4 83m.75-1.1q.45-.35 1.75.7l-1.85-.1.1-.6m-5.3 6.95l1.95-.15 4.75.5 2.8.15 1.4-.5 1.3-.25.8.05Q105 87.3 103.9 87q-1.1-.35-1.8.2l-1.3.25q-.6-.3-1.6-.45-1-.15-3.9.9l-2.45.95 3.8 2.3q3.7 1.2 5.55.85 1.8-.4 2.7-1.65l.95-1.7m-13 .2l-.55.05m8.7-22.65q-1 2.65.3 5.3 1.85 3.85 2.85 8l-.2.95q-.2 1.15-1.05 1.6l-1.2.5-.65.15"/><path fill="none" stroke="#3F0000" stroke-width=".05" stroke-linecap="round" stroke-linejoin="round" d="M49.4 156.3q.35-.6 1.5-5.9 2.85-12.9 7.6-17.85-1.7-1.8-2.8-4.25-2.2-4.9.9-8.25-9.7.25-18.3 3.8-17.15 7.1-12.85 23.75l.8 13.05 2.9 1.05q3.5 1.4 6.4 3.3 9.3 6 9.7 14.65l3.55-10.45-.05-.5q-.25-2.65 0-5.25l.25-1.15.3-6h.1q10.75-3.05 22.45-8.3l-.15 3q-.85 4.6.35 8.8 3.75 13.4 14.3 17.7l1.1-.2 9.6-.7q7 .4 8.95 9.55 1.15-7.1 3.05-9.15 1.85-2.1 3.45-1.65l.3-.1q7.8-2.7 13.5-7.3 10.15-8.2 4.45-17.55l-3.65-6.5 10.65 1.9h.1l.1.25 1.6 3.9q1.75 5.05 1.9 9.5.35 14.1-15.45 16.8l-.3.3.05-.25.25-.05m-39.45 1.6q-6.5 3.8-14.2 4.1-15.95.6-22.95-18.15l-.4-1.1v-.4m-.2 6.9q.45 4.15 2.25 8.4l7.3 19.6.25.45q3.9 6.75 7.4 9.35.8-5.05 9.6-2.15 4.4 1.45 8.65 3.9l1.55-2.3.95-2.9q17.7-18.7 26.85-10.1 4.55 4.35 5.6 12.4l1-4.4q.55-3.65.75-8.05.15-2.75 2.5-10.2l2.25-6.65q-6.85.7-10.55-.2l-2.35-1.1m24.95-29.45q-8.8-10.65-11.05-17.9-.75-2.3-.75-4.05l.15-1.2q.75-1.65 1.5-6.65l-2.55-5.3q17.85.75 20.25 16.25 1.2 7.75-.55 15.45l2.15 10.7q-1.8.95-3.8 3.75l-1.65 2.6m-3.7-13.65l.2.25m-51.4 31.8l.9-.55"/><path fill="none" stroke="#891F00" stroke-width=".05" stroke-linecap="round" stroke-linejoin="round" d="M71.85 148q9.45-4.95 20.6-11.45l5.9-3.65q-17.45-8.2-25.1-21.45m53.85 32.45q-8.35-2.25-19.9-7.1l-8.85-3.9q16.45-10.9 8.15-24.5"/><path fill="none" stroke="#2A1500" stroke-width=".05" stroke-linecap="round" stroke-linejoin="round" d="M76.95 360.3q-1.65 5.2-2.15 11.65-1.65 20.55 8.45 45.85l.95 12.4q.75 14.05-.45 22.35l-7.15 37.1 1.1 3.8q1.7 4.3 4.55 6.65 9.2 7.6 26.75-5.45l-4.3-30.2-1.4-20q-.45-2.95-.45-8.05 0-10.25 2.35-20.95 4.75-21.35 6-31.8 2.45-19.95-2.2-26.75l-2.4 3.9q-3.1 4.3-6.6 6.45-11.1 6.9-21.65-10.4l-1.4 3.45M129.45 385.5q-5.75-9.6-10.1-28.1l3.95 2.1q4.6 2.2 8.55 2.7 12.6 1.6 13.8-14.8l2.45 2.85q2.9 3.8 5.3 8.75 7.6 15.8 7 36.9l8.3 20.1q9.25 21.2 14.05 26.55l11.4 8.2q11.05 9 9.55 13.2-3.8 10.6-8.95 17.8-8.1 11.4-13.9 3.15-5.65-8.05-8.4-19.8l-1.6-10.2q-1.15-.7-2.55-1.9-2.7-2.35-3.6-4.75l-1.75-5.2-.65-2.4-10.3-20.6q-10.95-21.2-13.95-24.15-5.8-5.7-8.6-10.4M104.2 100l-.05.1.05 3.4q.25 3.7 1.1 4.75l9.85 4 2.95-.15 6.05-1.45M51.45 46.1v-.4l.2.15m16.3-33.15v-.4l.1.25.05.05m9.95-7.15l-.5-.45h.4l.1.45m14.75 41.3l.25.55m11.1 52.65v.15"/><path fill="none" stroke="#666D07" stroke-width=".05" stroke-linecap="round" stroke-linejoin="round" d="M78.05 5.45q2.35 2.1 9.9 7.6v-1.9l-1.2-2.7q-.7-1.4-1.1-2.7 1.3.4 3.85 2.4l3.4 2.9-1.65-3.7L89.1 3.1l5.7 3.3q2.15.2 9.05 6.8t6 9.45h.4l-1-9.2q6.85 13.1 7.8 18.95.55 3.4.9 10.25 1.15 5.65 1.55 10.2.35 4.05.35 10.7l-.1 12.35q-.3 3.9-1.55 6.3l-4.75 6.25q-5.15 6.1-9.25 11.55M93 11.55v-.4l-.1-.1.1.5m-.2 35.2q-.8-.8-3.45-1.75l-3.5-1.15Q81.65 42.5 80.1 45l-.65 2.8q-5.75 0-7 11.85-.6 5.75-.1 11.55Q71.9 67 70 65.6l-1.65-.5H67.2q-1.15.75-1.15 1.6l.35 1.8.45 2.55q.05 1.4.9 2.5l1.2 1.8.1 2.45q-.05 1.3.7 1.9 1.35 1.1 2.25 1.4l.6.2h.2q.35-.2.6 0 .75.6 1 4.55.45 2.15 2.9 4.7L76 99.1l-1.75-1.6-.75.05q-.65 0-6.55-3.5-6.3-3.7-8.55-5.75-2.05-1.85-4.6-8.2-1.75-4.45-2.35-6.75.4-.4 1.9-.4l3.85.8h.4l-3.25-7.65q-3.05-7-3.65-9.25l1.55.75 1.15.75.25.05.5.35q.4-.75.4-1.9 0-1.35-1.55-5.7-1.55-4.4-1.55-5.05m.2-.25l1.4 1.5 1.1 1.4h.75q-.9-4.8.55-10.3l2.35-9.7q.9-4.2 2.3-.2l1.35 4.1 2.15-4.4q1.9-4.65-.05-9.2l1.75 1.3 1.15 1.15q1.65-1.05 1.75-4.35l-.25-4.45m.15-.1q.5 1.1 2.65 3.05 2.45 2.2 2.6 2.8.85-1 1.1-3.65l.05-2.9 1.55 1.35 2.3 2.5 1.1-1.1.05-1.95q0-1.8-.75-4.5l-.7-2.75m24.8 39.4l.2.6-.15-.4v.15l.15.35-.55-.1q-1.5 3.65-9.95.6l.25.7m10-2.2v-.05h-.1l.1.05 1.3.2-.5-.5-.8.25q-.1-.8.75-.3l.05.05 1.9.25q.75-2.45 2.55-.35l1.5-.75q1.55-1.05 1.55 2.9l1.05-.55q1.15-.1 1.5 2.35l.2 15.9.4 4.5.8-4.9 1.55 1 .6 2.9-2.15 4.15.9 3.65q.45 3.45-1.5 2.6l-.25 1.3.1 3.2-2.95 6.05q-3.65 6.95-7.2 11.5m-1.3-55.1l-.15-.35.2.7m-.1-.65l.05.3.05.2m.7-.8l-.05-.05"/></svg>