<svg xmlns="http://www.w3.org/2000/svg" viewBox="34.6 -24.1 174.8 505.6" width="174.8" height="505.6" preserveAspectRatio="xMinYMin"><defs><linearGradient gradientUnits="userSpaceOnUse" x1="-819.2" x2="819.2" gradientTransform="matrix(-.008 -.05 .037 -.006 99.75 41.85)" id="a"><stop offset="0" stop-color="#D98651"/><stop offset=".533" stop-color="#DFA168"/><stop offset="1" stop-color="#D98651"/></linearGradient><linearGradient gradientUnits="userSpaceOnUse" x1="-819.2" x2="819.2" gradientTransform="matrix(-.005 .011 -.005 -.002 131.25 48)" id="b"><stop offset="0" stop-color="#D98651"/><stop offset=".533" stop-color="#DFA168"/><stop offset="1" stop-color="#D98651"/></linearGradient><linearGradient gradientUnits="userSpaceOnUse" x1="-819.2" x2="819.2" gradientTransform="matrix(.037 0 0 .05 99.5 40.9)" id="c"><stop offset="0" stop-color="#D98651"/><stop offset=".533" stop-color="#DFA168"/><stop offset="1" stop-color="#D98651"/></linearGradient><radialGradient gradientUnits="userSpaceOnUse" r="819.2" cx="0" cy="0" fx="22.4" fy="0" spreadMethod="pad" gradientTransform="matrix(.015 0 0 .015 115.05 33.9)" id="d"><stop offset="0" stop-color="#6c6"/><stop offset=".482" stop-color="#660"/><stop offset=".573" stop-color="#666F09"/><stop offset="1"/></radialGradient><radialGradient gradientUnits="userSpaceOnUse" r="819.2" cx="0" cy="0" fx="22.4" fy="0" spreadMethod="pad" gradientTransform="matrix(.013 0 0 .013 95.2 35)" id="e"><stop offset="0" stop-color="#6c6"/><stop offset=".482" stop-color="#660"/><stop offset=".573" stop-color="#666F09"/><stop offset="1"/></radialGradient><radialGradient gradientUnits="userSpaceOnUse" r="819.2" cx="0" cy="0" spreadMethod="pad" gradientTransform="matrix(.005 0 0 .005 96.65 38.15)" id="f"><stop offset="0" stop-color="#fff"/><stop offset=".314" stop-color="#37594D"/></radialGradient><radialGradient gradientUnits="userSpaceOnUse" r="819.2" cx="0" cy="0" spreadMethod="pad" gradientTransform="matrix(.005 0 0 .005 119.45 37.4)" id="g"><stop offset="0" stop-color="#fff"/><stop offset=".314" stop-color="#37594D"/></radialGradient><radialGradient gradientUnits="userSpaceOnUse" r="819.2" cx="0" cy="0" fx="22.4" fy="0" spreadMethod="pad" gradientTransform="matrix(.09 0 0 .09 104.2 2.4)" id="h"><stop offset="0" stop-color="#6c6"/><stop offset=".482" stop-color="#660"/><stop offset=".573" stop-color="#666F09"/><stop offset="1"/></radialGradient><linearGradient gradientUnits="userSpaceOnUse" x1="-819.2" x2="819.2" gradientTransform="matrix(.048 0 0 .059 97.8 23.9)" id="i"><stop offset=".063" stop-color="#990600"/><stop offset=".573" stop-color="#2F0000"/><stop offset="1" stop-color="#992500"/></linearGradient><radialGradient gradientUnits="userSpaceOnUse" r="819.2" cx="0" cy="0" fx="22.4" fy="0" spreadMethod="pad" gradientTransform="matrix(.015 0 0 .015 139.8 211.9)" id="j"><stop offset="0" stop-color="#6c6"/><stop offset=".482" stop-color="#660"/><stop offset=".573" stop-color="#666F09"/><stop offset="1"/></radialGradient><radialGradient gradientUnits="userSpaceOnUse" r="819.2" cx="0" cy="0" spreadMethod="pad" gradientTransform="matrix(.119 -.005 .006 .142 103.25 259.95)" id="k"><stop offset=".063" stop-color="#990600"/><stop offset=".573" stop-color="#2F0000"/></radialGradient><radialGradient gradientUnits="userSpaceOnUse" r="819.2" cx="0" cy="0" fx="22.4" fy="0" spreadMethod="pad" gradientTransform="matrix(.022 0 0 .022 113.25 213.8)" id="l"><stop offset="0" stop-color="#6c6"/><stop offset=".482" stop-color="#660"/><stop offset=".573" stop-color="#666F09"/><stop offset="1"/></radialGradient><radialGradient gradientUnits="userSpaceOnUse" r="819.2" cx="0" cy="0" fx="22.4" fy="0" spreadMethod="pad" gradientTransform="matrix(.042 0 0 .042 59.8 206.5)" id="m"><stop offset="0" stop-color="#6c6"/><stop offset=".482" stop-color="#660"/><stop offset=".573" stop-color="#666F09"/><stop offset="1"/></radialGradient><linearGradient gradientUnits="userSpaceOnUse" x1="-819.2" x2="819.2" gradientTransform="matrix(-.004 -.023 .076 -.012 91.7 259.95)" id="n"><stop offset=".063" stop-color="#990600"/><stop offset=".573" stop-color="#2F0000"/><stop offset="1" stop-color="#992500"/></linearGradient><radialGradient gradientUnits="userSpaceOnUse" r="819.2" cx="0" cy="0" spreadMethod="pad" gradientTransform="matrix(.067 0 0 .067 51.3 336.9)" id="o"><stop offset=".063" stop-color="#990600"/><stop offset=".573" stop-color="#2F0000"/></radialGradient><linearGradient gradientUnits="userSpaceOnUse" x1="-819.2" x2="819.2" gradientTransform="matrix(.03 0 0 .063 59 430.35)" id="p"><stop offset="0" stop-color="#630"/><stop offset="1"/></linearGradient><linearGradient gradientUnits="userSpaceOnUse" x1="-819.2" x2="819.2" gradientTransform="matrix(.052 0 0 .052 166.7 422.65)" id="q"><stop offset="0" stop-color="#630"/><stop offset="1"/></linearGradient><radialGradient gradientUnits="userSpaceOnUse" r="819.2" cx="0" cy="0" spreadMethod="pad" gradientTransform="matrix(.07 0 0 .07 151.7 330.7)" id="r"><stop offset=".063" stop-color="#990600"/><stop offset=".573" stop-color="#2F0000"/></radialGradient><linearGradient gradientUnits="userSpaceOnUse" x1="-819.2" x2="819.2" gradientTransform="matrix(.131 -.009 .005 .078 107.7 154)" id="s"><stop offset=".063" stop-color="#990600"/><stop offset=".573" stop-color="#2F0000"/><stop offset="1" stop-color="#992500"/></linearGradient><linearGradient gradientUnits="userSpaceOnUse" x1="-819.2" x2="819.2" gradientTransform="matrix(-.052 .074 -.107 -.075 77.95 92.75)" id="t"><stop offset=".063" stop-color="#990600"/><stop offset=".573" stop-color="#2F0000"/><stop offset="1" stop-color="#992500"/></linearGradient></defs><path fill="url(#a)" d="M103.5 81.3l-1.1-.2-5.4-3.05 6.5 3.25"/><path fill="url(#b)" d="M129.75 39.15l1.5-1.15q1.15-.75 1.15 1.15.4 5.75.4 9.25 0 7.3-.4 8.05l-1.9 1.15-1.1.4v-.05l.7-6.85v-.2q0-6.1-.35-11.75"/><path fill="url(#c)" d="M129.75 39.15q.35 5.65.35 11.75l-.75 6.9.05.15v2.85q-.1 1.65-.65 2.8L127 66.3l-.85 1.4-.2.45-.05.05-.1.25q-3.45 7.85-6.85 10.9-2.7 3.05-10 2.7l-5.45-.95-6.5-3.25-2.6-1.35q-6.1-3.2-10.45-6.2-4.1-2.75-4.55-8.95h.05l-.05-.1v.1l-1.95-.1q-1.8-.7-1.9-2.5v-.2q0-1.5-1.15-4.2l-2.3-4.25q-2.3-3.05-2.7-5-.45-1.4-.5-2.7 0-1.85.9-3.45.75-1.55 2.3-1.55v-.2l.25-8.7.1-1.45q.2-2.85.85-5.75.65-3.05 1.85-6.2 2.3-5.75 6.5-8.45 2.7-1.95 8.45-5 4.25-2.7 13.45-1.55 8.1.4 12.7 3.1 3.85 1.9 7.7 10.35l2.75 7.75 1.85 6.9q.8 3.85 1.2 10.75v.2M108.85 35q0 .3.45.65l.9.85.1 1.25.15.2.35.5.1.1q.05-1 2.4-1.9l2.1-.65 1.25-.15 3.15-.45.45-.15 2.2-.25 2.5.15q1 .35.65 2.05l.8-.8.3-.85q0-1.45-1.45-2.35-1.2-.75-2.3-.75l-1.15.05-1.1.55-.1.15.1-.25v-.4q-.4-.05-.85.4l-.75.6-.25-.75-1.65.6-1.4.5h-.95l.1-.6-3.4 1.85-.5-1.15-.5-1.2q-.35.35-.6 1.25-.2.9 0 1.35v.1l-1-.5h-.1v-.1l.1.1-.1-.1v.1m12.75 4.2l1-.5q1.85-.85.9-1.1l-1.2-.65-.35-.25-.05-.1-1.6-.05h-1.1l-2 .05-2.05.05-.35.05q-.75.2-4.4 2.2 2.9 1.1 5.55 1.1h1.1l4.05-.3.5-.5m-28.1-2.25l4.4.15.65.25h.3l1.5.1.3-.05.25-.45q.45 0 1.35.65l.9.6q.55 0 .9-1l.25-1.45-.05-1.25-.05-.25-1.15-.4-.6-.05-.95.05q-.55.15-.25.8H101l-.5-.45-.8-.3-.15.05q-.2.1-.25.45l-2.2-.25.1.25q.3.3.4.75l-3.4-1.35-.05.15-.25.1-.85-.15-.25.45-.7.05-1.85-.55-1.7-.55q-1.05 0-2.25 1.55-1.15 1.55-.95 2.75l.15-.15.8-.75q.6-.35 1.3-.35l2.5.45 1.3.4 1.45-.25h.65m-2.1.25q-1 .25-1.35.5l-.85.5q-.5.2.65.7l1.95.9 1.75.45h.05-.05v-.05l.05.05 3.15.15 1.05-.05q2.15-.15 4.5-1.05l-3.45-1.8-.3-.15h-.1l-5.65-.15H91.4m27.7 27.95l-.9-.25-1.5-.15-2.6.55-4.5.6-9.95-1.25-.65.1-.8.35.8-.35.65-.1 9.95 1.25 4.5-.6 2.6-.55 1.5.15.9.25m-9.9-28.65l1.1 1.25-1.1-1.25"/><path fill="url(#d)" d="M108.95 35l1 .5v-.1q-.2-.45 0-1.35.25-.9.6-1.25l.5 1.2.5 1.15 3.4-1.85-.1.6h.95l1.4-.5 1.65-.6.25.75.75-.6q.45-.45.85-.4v.4l-.1.25.1-.15 1.1-.55 1.15-.05q1.1 0 2.3.75 1.45.9 1.45 2.35l-.3.85-.8.8q.35-1.7-.65-2.05l-2.5-.15-2.2.25-.45.15-3.15.45-1.25.15-2.1.65q-2.35.9-2.4 1.9l-.1-.1-.35-.5-.15-.2-.1-1.25-.9-.85q-.45-.35-.45-.65h.1"/><path fill="url(#e)" d="M93.5 36.95h-.65l-1.45.25-1.3-.4-2.5-.45q-.7 0-1.3.35l-.8.75-.15.15q-.2-1.2.95-2.75 1.2-1.55 2.25-1.55l1.7.55 1.85.55.7-.05.25-.45.85.15.25-.1.05-.15 3.4 1.35q-.1-.45-.4-.75l-.1-.25 2.2.25q.05-.35.25-.45l.15-.05.8.3.5.45h.25q-.3-.65.25-.8l.95-.05.6.05 1.15.4.05.25.05 1.25-.25 1.45q-.35 1-.9 1l-.9-.6q-.9-.65-1.35-.65l-.25.45-.3.05-1.5-.1h-.3l-.65-.25-4.4-.15"/><path fill="url(#f)" d="M92.75 37.2h.05l5.65.15h.1l.3.15.05.55q0 1.3-.95 2.15l-.15.15-1.05.05-3.15-.15-.05-.05q-.9-.85-.9-2.15l.1-.85"/><path fill="#fff" d="M92.75 37.2l-.1.85q0 1.3.9 2.15v.05l-1.75-.45-1.95-.9q-1.15-.5-.65-.7l.85-.5q.35-.25 1.35-.5h1.35m29.2-.5l.35.25 1.2.65q.95.25-.9 1.1l-1 .5q.45-.75.45-1.65l-.1-.85m-4.9 3.3h-1.1q-2.65 0-5.55-1.1 3.65-2 4.4-2.2l.35-.05 2.05-.05-1.25.05-.15.9q0 1.3.9 2.15l.35.3m-18.2-2.5l3.45 1.8q-2.35.9-4.5 1.05l.15-.15q.95-.85.95-2.15l-.05-.55"/><path fill="url(#g)" d="M121.6 39.2l-.5.5-4.05.3-.35-.3q-.9-.85-.9-2.15l.15-.9 1.25-.05 2-.05h1.1l1.6.05.05.1.1.85q0 .9-.45 1.65"/><path fill="#77411A" d="M112.1 58.15l.6-.45q.7-.4 1.2-.35v.5l-.8.55-.35-.25h-.65m-5.2.25l-.65-.25q-.85-.3-.75-.55.1-.3.75-.45.65-.2 2.25 1.25l-.75-.25-.45.1-.4.15"/><path fill="url(#h)" d="M58.5 28.25q.55 0 3.7 1.45 3.3 1.55 3.85 1.6-1.4-4.25-2.9-7.35-.75-2-.75-6.25l-.25-10.3q1.4 4.15 4.45 4.9 2.95 1.1 4.05 3.5v.3q1.55-5.3-2.2-14.8Q66.6-3.55 64.2-8v-4.2l.15-.1.15-.55q2.7 2.2 9.45 9.35Q76.7-.6 81-.35v-1.4q0-3.15-.55-7.5-.7-5.3-1.65-6.7l.15-.2 3.4 2.3q3.3 2.35 3.8 3.45l2.1 4.8q2.25-3.15 5.35-6.5 1.95-2.55 1.95-5.8-.15-5.2-1.2-6.2 5.6 3.55 10.1 9.25 4.65 5.95 4.5 9.95v.3q.05-2 2.65-4.05 2.3-1.85 5.6-2.95l6-1.6q-1.45 1.95-.85 5.85l.65 5.5q3.55-2.9 4.4-3.85 1.35-1.6 1.35-3.5 0-1.6-.45-3.05l.05-.05 1.65 3q2.75 4.85 2.75 7.45V13q.8-.8 1.75-1.45l2.45-2.15h.05q.45 8.75-1.05 11.85-1.7 3.55-1.7 6.4l.9 5.6-.05 2.15-.85 2.3 1.5-.9v3.65q-.35 1.4-1.2 7.8-.9 6.5-.9 8 0 2.45-3 6.4l-3.4 4.6-.05.1-1.05 1.25h-.1q2.1-8.5 4.9-11.3 1.8-1.75 1.8-8.65l-.2-5q-.35-4-1-4.75-1.45 1.45-1.95 4.65l.25-7.75-2.95-10.35q-.55-1.2-1.05-.9h-.75q.1-4.65-.25-5.4-.45-.95-.95-.95l-5.7 1q-5.15.95-7.7 3.05-7.35-3.1-10.5-3.75-1.35-.3-4.95.95l-6.3 2.05q-2.75.85-1.05 8.05-2.1-1.75-4.5-1.55-2.4.2-2.9 3.4-.5 3.15 1.15 7.45 1.65 4.3 1.65 11.5v1.9l-.5-.1q-.55-3.4-2.5-5L77 43.1q-3.2-3.85-4.85-3.85-1.45 0-2.45 1.25-1.05 1.25-.45 3.35.6 2.05.35 3.75l3.75 5q1.35 1.95 1.85 4.25.4 2.05 1.6 4.65 1.55 1 2.45-.15l.2 2.25q-.1.95.5 2.2l2.3 3.65q-4.45 3.3-10.5-3.35-5.7-6.25-5.7-10.8 0-.45.5-.45l.7-.15q-.65-2.2-3.35-4.9l-3.6-3.55h3.9q.25-.9-2.3-5.4l-3.4-5.95v-6.65"/><path fill="url(#i)" d="M128.3-12.25l-.15-.3.05-.1.15.35-.05.05m-2.45 36.8l-.75.3v-.3h.75M83.1 52.25l-.3 5.85-.2-5.95.5.1"/><path fill="url(#j)" d="M130.55 205.35q7.7-.4 12.3-4.25l.4 15.4q-5 .4-10.8 5v-5.4l-1.9-10.75"/><path fill="url(#k)" d="M144 216.5q4.6 15 9.25 35 5.75 25.75 7.7 45l.75 9.6q.4 5.4 0 10.4-1.15 1.15-2.7 1.9-12.7 6.95-50.4 6.95H92.1l-38.1-2.3-12.7-1.15-3.85-.4q.4-7.3 1.15-15.4.8-4.6 1.2-9.6l1.5-13.1q5.4-39.6 14.25-68.85h.4L86.7 246.5l-5 43.85 6.9 1.55 16.95 2.3q25.75 1.5 35-7.7l-10-39.25 12.7-30v-.75h.75"/><path fill="url(#l)" d="M127.1 208.8v12.3l-26.55.8-4.6-3.1 1.9-10 4.25-5 21.15.75 3.85 4.25"/><path fill="url(#m)" d="M55.95 213.4l1.9-12.3q16.55 4.6 34.25 3.85l-1.15 14.25q-2.35-2.7-34.65-5.8h-.35"/><path fill="url(#n)" d="M55.95 213.4h.35l-.35 1.15h-.4l.4-1.15"/><path fill="url(#o)" d="M95.55 325.35l-8.85 52.3-4.15 3.85-.85.75q-8.1 1.95-16.55 2.3-17.3.8-23.05-4.6l-.8-1.35-3.05-5.2 3.05-51.5 12.7 1.15 38.1 2.3h3.45"/><path fill="url(#p)" d="M81.7 382.25h1.55l-12.7 60.4 4.25 10.4q5 11.9 6.5 16.5 1.55 5-5.35 9.25-1.95 1.15-4.65 1.9l-2.7.8-11.9-.4q-13.45-1.15-19.6-3.05-5.8-2.35 1.9-18.5 3.45-8.05 8.45-15.75l-6.5-65 1.15 1.15q5.75 5.4 23.05 4.6 8.45-.35 16.55-2.3"/><path fill="url(#q)" d="M162.45 381.1l2.35-.4 4.2 40.4 14.6 15.4 20.8 8.45 5-1.15v3.1q-.4 3.45-1.15 6.5-1.95 10-7.3 11.15-6.15 1.55-29.25-6.15t-24.6-12.3q-1.15-3.85-.8-14.2l.8-9.65-22.7-40.75 1.55.4q19.2 3.45 36.5-.8"/><path fill="url(#r)" d="M162.45 381.1q-17.3 4.25-36.5.8l-1.35-.75-4.8-2.75-11.2-53.05q37.7 0 50.4-6.95l8.1 58.1-4.65 4.6"/><path fill="url(#s)" d="M57.85 201.1v-2.3q-.75-3.85-2.7-18.45v-1.15l-3.05-22.3v-.8l-.4-1.9q4.25-15-5.75-37.3-4.65-11.2-9.5-18.3l14.35-6.75q10.4-4.05 13.9-4.4l5-.85 2-.9q1.55-1.15 6.35.9 3.4 1.5 8.55 4.65l3.95 2.55 1.4.9q6.75 4.5 12.95 9.3l.25.2q27.2 22.05 44.95 46.35l.4.15-8.05 26.95.4 23.45q-4.6 3.85-12.3 4.25l-6.55-5-22.7-1.95-6.9 4.25-.4.4-1.9 1.5v.4q-17.7.75-34.25-3.85"/><path fill="url(#t)" d="M105.15 104.2l20.4-20q15.5 2.1 27.2 9.65 4.05 31.7 2 40.3-2.05 8.55-4.2 15.05l-.45 1.35q-17.75-24.3-44.95-46.35M92.1 204.95v-.4l1.9-1.5.4-.4 6.9-4.25 22.7 1.95 6.55 5 1.9 10.75v5.4q5.8-4.6 10.8-5v.75l-12.7 30 10 39.25q-9.25 9.2-35 7.7l-16.95-2.3-6.9-1.55 5-43.85-30.75-31.95.35-1.15q32.3 3.1 34.65 5.8l1.15-14.25m35 3.85l-3.85-4.25-21.15-.75-4.25 5-1.9 10 4.6 3.1 26.55-.8v-12.3m5.35 12.7v4.6l-11.15 1.15H99.4l-8.45-7.7v-.35.35l8.45 7.7h21.9l11.15-1.15v-4.6"/><path fill="none" stroke="#77411A" stroke-width=".5" stroke-linecap="round" stroke-linejoin="round" d="M129.75 39.15l1.5-1.15q1.15-.75 1.15 1.15.4 5.75.4 9.25 0 7.3-.4 8.05l-1.9 1.15-1.1.4v.15m0 1.2v1.45q-.05 1.8-.65 3L127 66.5l-.85 1.4-.2.45-.05.05-.1.25q-3.45 7.85-6.85 10.9M103.5 81.3l-1.1-.2m-23-19.55l-1.95-.1q-1.9-.75-1.9-2.7m0-.2q-.05-1.5-1.15-4l-2.3-4.25q-2.3-3.05-2.7-5-.5-1.5-.5-2.9m3.2-5v-.2m36.75-2.2q0 .3.45.65l.9.85.1 1.25.15.2.35.5.1.1q.05-1 2.4-1.9l2.1-.65 1.25-.15 3.15-.45.45-.15 2.2-.25 2.5.15q1 .35.65 2.05l.8-.8.3-.85q0-1.45-1.45-2.35-1.2-.75-2.3-.75l-1.15.05-1.1.55-.1.15.1-.25v-.4q-.4-.05-.85.4l-.75.6-.25-.75-1.65.6-1.4.5h-.95l.1-.6-3.4 1.85-.5-1.15-.5-1.2q-.35.35-.6 1.25-.2.9 0 1.35v.1l-1-.5m-.1 0v-.1l.1.1m1.45 3.9q3.65-2 4.4-2.2l.35-.05 2.05-.05 2-.05m-25.7.4l4.4.15.65.25h.3l1.5.1.3-.05.25-.45q.45 0 1.35.65l.9.6q.55 0 .9-1l.25-1.45-.05-1.25-.05-.25-1.15-.4-.6-.05-.95.05q-.55.15-.25.8H101l-.5-.45-.8-.3-.15.05q-.2.1-.25.45l-2.2-.25.1.25q.3.3.4.75l-3.4-1.35-.05.15-.25.1-.85-.15-.25.45-.7.05-1.85-.55-1.7-.55q-1.05 0-2.25 1.55-1.15 1.55-.95 2.75l.15-.15.8-.75q.6-.35 1.3-.35l2.5.45 1.3.4 1.45-.25h.65m-2.1.25H92.8l5.65.15h.1l.3.15 3.45 1.8m-4.5 1.05l-1.05.05-3.15-.15h-.05m0-.05l.05.05m16.7-2.5l-1.1-1.25m-11 28.6l.8-.35.65-.1 9.95 1.25 4.5-.6 2.6-.55 1.5.15.9.25m-39.7-3.8v.2m50-3.6l.7-6.85v-.2m-.35-11.75q.35 5.65.35 11.75M79.4 61.35v-.1"/><path fill="none" stroke="#A95E25" stroke-width=".5" stroke-linecap="round" stroke-linejoin="round" d="M118.95 79.55q-2.7 3.05-10 2.7l-5.45-.95m-1.1-.2L97 78.05l-2.6-1.35q-6.1-3.2-10.45-6.2-4.1-2.75-4.55-8.95"/><path fill="none" stroke="#965321" stroke-width=".5" stroke-linecap="round" stroke-linejoin="round" d="M108.45 37.65l2.85 8.6q2.95 5.15 3.4 7.4.45 2.2-1.2 3.05l-3.85 1.65m2.45-.2l-.3.2m3.85-4.45q.5 1.05.5 2l-.5 1.35q-.65.85-1.65 1.25m-5.5-.1l.2.2m-5.3-4.15l-.8 1.6q0 1.1 1.15 1.75.35.25 2.65.9m.5-.3l.35.2"/><path fill="none" stroke="#CF732E" stroke-width=".5" stroke-linecap="round" stroke-linejoin="round" d="M100.65 67.75h1.3q2.95 1.4 4.2 1.65l2.55.15 5.1-.45q1.4-.2 2.2-1.1l1-1.4M112.25 74.4q.6 2.4 0 4.45"/><path fill="none" stroke="#4D0100" stroke-width=".5" stroke-linecap="round" stroke-linejoin="round" d="M57.85 201.1v-2.3q-.75-3.85-2.7-18.45v-1.15l-3.05-22.3v-.8l-.4-1.9q4.25-15-5.75-37.3-4.65-11.2-9.5-18.3l14.35-6.75q10.4-4.05 13.9-4.4l5-.85 2-.9q1.55-1.15 6.35.9 3.4 1.5 8.55 4.65l3.95 2.55 1.4.9q6.75 4.5 12.95 9.3m.25.2l20.4-20q15.5 2.1 27.2 9.65 4.05 31.7 2 40.3-2.05 8.55-4.2 15.05l-.45 1.35.4.15-8.05 26.95.4 23.45q.4 0 .4-.4l.75 15.8q4.6 15 9.25 35 5.75 25.75 7.7 45l.75 9.6q.4 5.4 0 10.4-1.15 1.15-2.7 1.9l8.1 58.1-4.65 4.6 2.35-.4m44.6 63.1v3.1m-85-65.4l1.55.4-1.35-.75-4.8-2.75-11.2-53.05H95.55l-8.85 52.3-4.15 3.85-.85.75h1.55M71.3 480.7l-2.7.8M40.95 378.8l1.15 1.15-.8-1.35-3.05-5.2 3.05-51.5-3.85-.4q.4-7.3 1.15-15.4.8-4.6 1.2-9.6l1.5-13.1q5.4-39.6 14.25-68.85l.4-1.15 1.9-12.3q16.55 4.6 34.25 3.85v-.4l1.9-1.5.4-.4 6.9-4.25 22.7 1.95 6.55 5q7.7-.4 12.3-4.25l.4 15.4h.75m-.75 0v.75l-12.7 30 10 39.25q-9.25 9.2-35 7.7l-16.95-2.3-6.9-1.55 5-43.85-30.75-31.95m74.6-9.2l1.9 10.75v5.4q5.8-4.6 10.8-5m-52.3 2.7v.35l8.45 7.7h21.9l11.15-1.15v-4.6M92.1 204.95l-1.15 14.25q-2.35-2.7-34.65-5.8l-.35 1.15m.35-1.15h-.35M41.3 321.9l12.7 1.15 38.1 2.3h3.45m13.05 0q37.7 0 50.4-6.95"/><path fill="none" stroke="#404605" stroke-width=".5" stroke-linecap="round" stroke-linejoin="round" d="M127.1 208.8l-3.85-4.25-21.15-.75-4.25 5-1.9 10 4.6 3.1 26.55-.8v-12.3"/><path fill="none" stroke="#2A1500" stroke-width=".5" stroke-linecap="round" stroke-linejoin="round" d="M164.8 380.7l4.2 40.4 14.6 15.4 20.8 8.45 5-1.15m0 3.1q-.4 3.45-1.15 6.5-1.95 10-7.3 11.15-6.15 1.55-29.25-6.15t-24.6-12.3q-1.15-3.85-.8-14.2l.8-9.65-22.7-40.75m-41.15.75l-12.7 60.4 4.25 10.4q5 11.9 6.5 16.5 1.55 5-5.35 9.25-1.95 1.15-4.65 1.9m-2.7.8l-11.9-.4q-13.45-1.15-19.6-3.05-5.8-2.35 1.9-18.5 3.45-8.05 8.45-15.75l-6.5-65m40.75 3.45q-8.1 1.95-16.55 2.3-17.3.8-23.05-4.6m83.85 1.95q19.2 3.45 36.5-.8"/><path fill="none" stroke="#666D07" stroke-width=".5" stroke-linecap="round" stroke-linejoin="round" d="M58.5 28.25q.55 0 3.7 1.45 3.3 1.55 3.85 1.6-1.4-4.25-2.9-7.35-.75-2-.75-6.25l-.25-10.3q1.4 4.15 4.45 4.9 2.95 1.1 4.05 3.5v.3q1.55-5.3-2.2-14.8Q66.6-3.55 64.2-8v-4.2l.15-.1.15-.55q2.7 2.2 9.45 9.35Q76.7-.6 81-.35v-1.4q0-3.15-.55-7.5-.7-5.3-1.65-6.7v-.3l.15.1 3.4 2.3q3.3 2.35 3.8 3.45l2.1 4.8q2.25-3.15 5.35-6.5 1.95-2.55 1.95-5.8-.15-5.2-1.2-6.2 5.6 3.55 10.1 9.25 4.65 5.95 4.5 9.95v.3q.05-2 2.65-4.05 2.3-1.85 5.6-2.95l6-1.6q-1.45 1.95-.85 5.85l.65 5.5q3.55-2.9 4.4-3.85 1.35-1.6 1.35-3.5 0-1.6-.45-3.05l-.15-.3-.1-.25-.15-.4.3.55.15.35 1.65 3q2.75 4.85 2.75 7.45V13q.8-.8 1.75-1.45l2.45-2.15v-.25l.05.25q.45 8.75-1.05 11.85-1.7 3.55-1.7 6.4l.9 5.6-.05 2.15-.85 2.3 1.5-.9v3.65m-9.6 28.15l-.15.15.05-.15q2.1-8.5 4.9-11.3 1.8-1.75 1.8-8.65l-.2-5q-.35-4-1-4.75-1.45 1.45-1.95 4.65l-.15 6.3-.1 5.15v-.3l.1-4.85-.1-3.9q.05-1.3.25-2.4l.25-7.75-2.95-10.35q-.55-1.2-1.05-.9l-.75.3v-.3q.1-4.65-.25-5.4-.45-.95-.95-.95l-5.7 1q-5.15.95-7.7 3.05-7.35-3.1-10.5-3.75-1.35-.3-4.95.95l-6.3 2.05q-2.75.85-1.05 8.05-2.1-1.75-4.5-1.55-2.4.2-2.9 3.4-.5 3.15 1.15 7.45 1.65 4.3 1.65 11.5v1.9l-.3 5.85-.2-5.95q-.55-3.4-2.5-5L77 43.1q-3.2-3.85-4.85-3.85-1.45 0-2.45 1.25-1.05 1.25-.45 3.35.6 2.05.35 3.75l3.75 5q1.35 1.95 1.85 4.25.4 2.05 1.6 4.65 1.55 1 2.45-.15l.2 2.25q-.1.95.5 2.2l2.3 3.65"/><path fill="none" stroke="#111301" stroke-width=".5" stroke-linecap="round" stroke-linejoin="round" d="M82.25 69.45q-4.45 3.3-10.5-3.35-5.7-6.25-5.7-10.8 0-.45.5-.45l.7-.15q-.65-2.2-3.35-4.9l-3.6-3.55"/><path fill="none" stroke="#262903" stroke-width=".5" stroke-linecap="round" stroke-linejoin="round" d="M60.3 46.25h3.9q.25-.9-2.3-5.4l-3.4-5.95v-6.65"/><path fill="none" stroke="#1D2002" stroke-width=".5" stroke-linecap="round" stroke-linejoin="round" d="M135.75 40.45q-.35 1.4-1.2 7.8-.9 6.5-.9 8 0 2.45-3 6.4l-3.4 4.6-.05.1-1.05 1.25"/><path fill="none" stroke="#965321" stroke-width=".5" stroke-linecap="round" stroke-linejoin="round" d="M104.9 104l.25.2"/></svg>