<svg xmlns="http://www.w3.org/2000/svg" viewBox="-1.4 -3.3 222.5 493.5" width="222.5" height="493.5" preserveAspectRatio="xMinYMin"><defs><linearGradient gradientUnits="userSpaceOnUse" x1="-819.2" x2="819.2" gradientTransform="matrix(-.005 .011 -.005 -.002 131.25 48)" id="a"><stop offset="0" stop-color="#D98651"/><stop offset=".533" stop-color="#DFA168"/><stop offset="1" stop-color="#D98651"/></linearGradient><linearGradient gradientUnits="userSpaceOnUse" x1="-819.2" x2="819.2" gradientTransform="matrix(-.037 .003 -.005 -.052 99.55 43)" id="b"><stop offset="0" stop-color="#D98651"/><stop offset=".533" stop-color="#DFA168"/><stop offset="1" stop-color="#D98651"/></linearGradient><linearGradient gradientUnits="userSpaceOnUse" x1="-819.2" x2="819.2" gradientTransform="matrix(-.037 .003 -.005 -.052 99.55 43)" id="c"><stop offset="0" stop-color="#FDD271"/><stop offset=".329" stop-color="#FED678"/><stop offset=".541" stop-color="#FCC547"/></linearGradient><linearGradient gradientUnits="userSpaceOnUse" x1="-819.2" x2="819.2" gradientTransform="matrix(.031 0 0 .023 104.35 68.65)" id="d"><stop offset="0" stop-color="#FDD271"/><stop offset=".329" stop-color="#FED678"/><stop offset=".541" stop-color="#FCC547"/></linearGradient><radialGradient gradientUnits="userSpaceOnUse" r="819.2" cx="0" cy="0" spreadMethod="pad" gradientTransform="matrix(.005 0 0 .005 101.3 41.3)" id="e"><stop offset="0" stop-color="#D98651"/><stop offset=".302" stop-color="#630"/></radialGradient><radialGradient gradientUnits="userSpaceOnUse" r="819.2" cx="0" cy="0" spreadMethod="pad" gradientTransform="matrix(.005 0 0 .005 125.5 41.2)" id="f"><stop offset="0" stop-color="#D98651"/><stop offset=".302" stop-color="#630"/></radialGradient><linearGradient gradientUnits="userSpaceOnUse" x1="-819.2" x2="819.2" gradientTransform="matrix(-.016 -.046 .049 -.016 91.9 40.45)" id="g"><stop offset="0" stop-color="#FDD271"/><stop offset=".329" stop-color="#FED678"/><stop offset=".541" stop-color="#FCC547"/></linearGradient><linearGradient gradientUnits="userSpaceOnUse" x1="-819.2" x2="819.2" gradientTransform="matrix(-.009 -.162 .111 -.006 102.3 221.55)" id="h"><stop offset="0" stop-color="#ccc"/><stop offset=".941" stop-color="#fff"/></linearGradient><linearGradient gradientUnits="userSpaceOnUse" x1="-819.2" x2="819.2" gradientTransform="matrix(-.03 .008 .004 .009 157.35 199.1)" id="i"><stop offset="0" stop-color="#BB8277"/><stop offset=".329" stop-color="#ccc"/><stop offset=".706" stop-color="#E2ADAD"/></linearGradient><linearGradient gradientUnits="userSpaceOnUse" x1="-819.2" x2="819.2" gradientTransform="matrix(-.044 .005 .006 .031 156.05 225.25)" id="j"><stop offset="0" stop-color="#BB8277"/><stop offset=".706" stop-color="#E2ADAD"/></linearGradient><linearGradient gradientUnits="userSpaceOnUse" x1="-819.2" x2="819.2" gradientTransform="matrix(-.073 .004 -.001 -.024 65.8 66.8)" id="k"><stop offset="0" stop-color="#CA8D02"/><stop offset=".329" stop-color="#fc3"/><stop offset=".541" stop-color="#CA8D02"/></linearGradient><linearGradient gradientUnits="userSpaceOnUse" x1="-819.2" x2="819.2" gradientTransform="matrix(.03 .008 -.003 .011 42.7 197.15)" id="l"><stop offset="0" stop-color="#BB8277"/><stop offset=".329" stop-color="#ccc"/><stop offset=".706" stop-color="#E2ADAD"/></linearGradient><linearGradient gradientUnits="userSpaceOnUse" x1="-819.2" x2="819.2" gradientTransform="matrix(.043 .003 -.003 .037 46.5 227.9)" id="m"><stop offset="0" stop-color="#BB8277"/><stop offset=".706" stop-color="#E2ADAD"/></linearGradient><linearGradient gradientUnits="userSpaceOnUse" x1="-819.2" x2="819.2" gradientTransform="matrix(-.03 .008 .004 .009 157.35 199.1)" id="n"><stop offset="0" stop-color="#999"/><stop offset=".329" stop-color="#ccc"/><stop offset=".541" stop-color="#999"/></linearGradient><linearGradient gradientUnits="userSpaceOnUse" x1="-819.2" x2="819.2" gradientTransform="matrix(-.043 .01 -.017 -.071 110.35 285.85)" id="o"><stop offset="0" stop-color="#D8B3AF"/><stop offset=".329" stop-color="#ccc"/><stop offset=".706" stop-color="#E2ADAD"/></linearGradient><linearGradient gradientUnits="userSpaceOnUse" x1="-819.2" x2="819.2" gradientTransform="matrix(.03 .008 -.003 .011 42.7 197.15)" id="p"><stop offset="0" stop-color="#999"/><stop offset=".329" stop-color="#ccc"/><stop offset=".541" stop-color="#999"/></linearGradient><linearGradient gradientUnits="userSpaceOnUse" x1="-819.2" x2="819.2" gradientTransform="matrix(.069 .01 -.012 .082 106.55 288.55)" id="q"><stop offset="0" stop-color="#CFA39E"/><stop offset=".329" stop-color="#ccc"/><stop offset=".706" stop-color="#E2ADAD"/></linearGradient><linearGradient gradientUnits="userSpaceOnUse" x1="-819.2" x2="819.2" gradientTransform="matrix(.021 0 0 .023 15.55 270.75)" id="r"><stop offset="0" stop-color="#BB8277"/><stop offset=".706" stop-color="#E2ADAD"/></linearGradient><linearGradient gradientUnits="userSpaceOnUse" x1="-819.2" x2="819.2" gradientTransform="matrix(.043 .003 -.003 .037 46.5 227.9)" id="s"><stop offset="0" stop-color="#BB8277"/><stop offset=".329" stop-color="#ccc"/><stop offset=".706" stop-color="#E2ADAD"/></linearGradient><linearGradient gradientUnits="userSpaceOnUse" x1="-819.2" x2="819.2" gradientTransform="matrix(.021 0 0 .023 15.55 270.75)" id="t"><stop offset="0" stop-color="#999"/><stop offset=".329" stop-color="#ccc"/><stop offset=".541" stop-color="#999"/></linearGradient><linearGradient gradientUnits="userSpaceOnUse" x1="-819.2" x2="819.2" gradientTransform="matrix(.033 -.004 .01 .087 65.15 382.7)" id="u"><stop offset="0" stop-color="#BB8277"/><stop offset=".706" stop-color="#E2ADAD"/></linearGradient><linearGradient gradientUnits="userSpaceOnUse" x1="-819.2" x2="819.2" gradientTransform="matrix(.039 0 0 .085 149.15 365)" id="v"><stop offset="0" stop-color="#BB8277"/><stop offset=".706" stop-color="#E2ADAD"/></linearGradient><linearGradient gradientUnits="userSpaceOnUse" x1="-819.2" x2="819.2" gradientTransform="matrix(-.021 .01 -.009 -.02 185.75 263.8)" id="w"><stop offset="0" stop-color="#BB8277"/><stop offset=".706" stop-color="#E2ADAD"/></linearGradient><linearGradient gradientUnits="userSpaceOnUse" x1="-819.2" x2="819.2" gradientTransform="matrix(-.02 -.001 0 .007 191.85 267.75)" id="x"><stop offset="0" stop-color="#999"/><stop offset=".329" stop-color="#ccc"/><stop offset=".541" stop-color="#999"/></linearGradient><linearGradient gradientUnits="userSpaceOnUse" x1="-819.2" x2="819.2" gradientTransform="matrix(-.021 .01 -.009 -.02 185.75 263.8)" id="y"><stop offset="0" stop-color="#999"/><stop offset=".329" stop-color="#ccc"/><stop offset=".541" stop-color="#999"/></linearGradient><linearGradient gradientUnits="userSpaceOnUse" x1="-819.2" x2="819.2" gradientTransform="matrix(-.026 .018 -.022 -.032 163.65 460.65)" id="z"><stop offset="0" stop-color="#BB8277"/><stop offset=".706" stop-color="#E2ADAD"/></linearGradient><linearGradient gradientUnits="userSpaceOnUse" x1="-819.2" x2="819.2" gradientTransform="matrix(.026 -.003 .003 .027 59.05 466.55)" id="A"><stop offset="0" stop-color="#BB8277"/><stop offset=".706" stop-color="#E2ADAD"/></linearGradient></defs><path fill="url(#a)" d="M129.75 39.15l1.5-1.15q1.15-.75 1.15 1.15.4 5.75.4 9.25 0 7.3-.4 8.05l-1.9 1.15-.75.25-.05.05v-2.45 2.45l-.35.1.35-2.55.05-.1v2.5-2.5l.35-4.25q0-6.2-.35-11.95"/><path fill="url(#b)" d="M129.75 39.15q.35 5.75.35 11.95l-.35 4.25-.25-4.9-.8 3.9q-.35 2.35-.9 3.85-1.45 3.85-2.35 6.65l-3.2-2.8q-1.5-1.3-3.5-1.3l-2.2.25v3.1l5.65.2q2.5.95 2.5 4.05 0 3.35-1.5 6.7-1.7 3.8-4.25 4.4-.85-.85-1.2-4.1-.3-2.6-1.8-2.6-1.6 0-1.45 3.75.15 3.7-2.4 3.7-3 0-5.85-5-2.4-4.25-2.4-6.55 0-3.55 2.7-4.25l8.15-.3v-2.4h-9.9q-5.35 4.7-4.55 8.65l-1.2-1.4-.2-.2v.45l-1.2.25q-2.9 0-6.6-3.75l-5.3-9.3q-2.1-3.5-4.85-10.75-2.8-7.25-2.75-4.7l.1 2.15.75 6.4-.75-6.4.55 4.5.2 1.9q.75 7.1.7 10.05v1.9q-.95.25-2.25 0-1.9-.75-1.9-2.7 0-1.5-1.15-4.2l-2.3-4.25q-2.3-3.05-2.7-5-1.15-3.45.4-6.15.75-1.55 2.3-1.55 0-7.3.35-10.35.2-2.85.85-5.75.65-3.05 1.85-6.2 2.3-5.75 6.5-8.45 2.7-1.95 8.45-5Q94.35-.85 103.55.3q8.1.4 12.7 3.1 3.85 1.9 7.7 10.35l2.75 7.75 1.85 6.9q.8 3.85 1.2 10.75M116 39.8q.15 1.7.85 1.7.55 0 1.15-1l1.3-2.25q2.2-3.25 6.55-3.25l1.95.1q.95.2 1.5 1.2v-.95q-.25-.75-1.05-1.75-.9-1.1-1.45-1.1-.25 0-.8.45l-.75.7q-1.05-.75-1.9-.75l-1.3.75L120.3 35q0-.4-.7-.4-.25 0-1.45.85l-1.3.85-.5-.15-.25-.2-.05 1.75-.1 1.95.05.15-.05-.15.1-1.95-.05 2.1m11.05 1.25l-.15-.3q-.9-1.2-2.85-1.2l-.4.05q-1.25.05-2 .8l-1.05 1.15-.65 1.05-.2.4 3.1.15h.3l3.2.35.85.25h1.15l-1.3-2.7M96.2 34.2l-5.85-.2-3.15.2q-1.15.5-1.15 2.95 0 .75.3 1.4l.25 1.4q1.25-.9 3.9-1.95 2.6-1.1 3.5-1.1 3.35 0 13.65 3.8l.15-1.7.1-.45q.1-.6.35-1.05l-.2-1.75q-.35 0-.75.4l-1.35-1.55-.6.75-1.5-1.35q-.2.2-.2 1l-2.2-.8q-.65 0-.7.3l.05.65q-3.7-1.5-4.35-1.5l-.4.05q-.15.1.15.5m2.4 9.3l3.4.05h.45l1.4-.1q1.85-.2 2.3-.65l-2.55-2.2q-.45-.4-1.05-.65l-2.45-.4-1.15.05-3.2.5q-2.2.7-3.6 2.5v.4l1.15-.35.4-.2 4.35 1 .55.05m22.65 23.9l-1.15 2-2.4.15-2.95-.1-4.2-.3 4.2.3 2.95.1 2.4-.15 1.15-2m2.5-.75l-.95-.85q-.7-.5-1.55-.5l-5.55.95-6.05-.55q-.85 0-1.65.55l-1.5 1 1.5-1q.8-.55 1.65-.55l6.05.55 5.55-.95q.85 0 1.55.5l.95.85m-11.3-7.1q-2.65-.25-3.2-.9-.2-.3-.2-2.1 0-1.65 1-2.5-1 .85-1 2.5 0 1.8.2 2.1.55.65 3.2.9m8.1-4.55q.5.9.5 2 0 2.3-1.85 2.75 1.85-.45 1.85-2.75 0-1.1-.5-2m-3.5 4.05l1.1-.45.15-.1.35-.2q1.45-.9 1.45-2.45 0-1.8-1.25-5.25l-1.65-3.75q-1.05-1.25-1.75-4.25-.7-3.15-1.6-4.35.9 1.2 1.6 4.35.7 3 1.75 4.25l1.65 3.75q1.25 3.45 1.25 5.25 0 1.55-1.45 2.45l.4-.05q.45 0 .65.3-.05.4-.7.6l-.8.15h-.6q-.45 0-.55-.25l-1.9.25 1.9-.25q.1.25.55.25h.6l.8-.15q.65-.2.7-.6-.2-.3-.65-.3l-.4.05-.35.2-.15.1-1.1.45m-3.55-.85q-.6-.6-1-.6l-.55.2q-.5.2-.5.35.4.4 2.1 1.25l-.05-.25h.55q.05-.35-.55-.95.6.6.55.95h-.55l.05.25q-1.7-.85-2.1-1.25 0-.15.5-.35l.55-.2q.4 0 1 .6M77.45 40.7l-3.05-2.3q-1.15-.8-2.3-.8 1.15 0 2.3.8l3.05 2.3"/><path fill="url(#c)" d="M116.05 37.7l.05-1.75.25.2.5.15 1.3-.85q1.2-.85 1.45-.85.7 0 .7.4l1.75-1.35 1.3-.75q.85 0 1.9.75l.75-.7q.55-.45.8-.45.55 0 1.45 1.1.8 1 1.05 1.75v.95q-.55-1-1.5-1.2l-1.95-.1q-4.35 0-6.55 3.25L118 40.5q-.6 1-1.15 1-.7 0-.85-1.7l.05-2.1M96.2 34.2q-.3-.4-.15-.5l.4-.05q.65 0 4.35 1.5l-.05-.65q.05-.3.7-.3l2.2.8q0-.8.2-1l1.5 1.35.6-.75 1.35 1.55q.4-.4.75-.4l.2 1.75q-.25.45-.35 1.05l-.1.45-.15 1.7Q97.35 36.9 94 36.9q-.9 0-3.5 1.1-2.65 1.05-3.9 1.95l-.25-1.4q-.3-.65-.3-1.4 0-2.45 1.15-2.95l3.15-.2 5.85.2"/><path fill="url(#d)" d="M129.75 58.4v1.3l-.1 7q-.3 4.7-1.6 6.05L125.7 85.2q-1.05-.25-2.5.8-1.6 1.1-2.75 1.1l-3.3.4-3.35.35q-2.3 0-4.65-.95-2.35-.95-4.1-.95l-.4.25q-.1.25-.4.25-1.25 0-5.15-2.75-3.9-2.75-4.9-2.75-.3 0-.3.35l-.35.3q-1.8 0-3.55-1.85-2.1-2.35-3.65-2.95l-.15.5q-.5-.85-1.75-1.45l-.7.75q-2.35-2.1-3.4-8-.6-3.45-.65-7.15v-1.9q.05-2.95-.7-10.05l-.2-1.9-.55-4.5-.1-2.15q-.05-2.55 2.75 4.7 2.75 7.25 4.85 10.75l5.3 9.3q3.7 3.75 6.6 3.75l1.2-.25v-.45l.2.2 1.2 1.4q-.8-3.95 4.55-8.65h9.9v2.4l-8.15.3q-2.7.7-2.7 4.25 0 2.3 2.4 6.55 2.85 5 5.85 5 2.55 0 2.4-3.7-.15-3.75 1.45-3.75 1.5 0 1.8 2.6.35 3.25 1.2 4.1 2.55-.6 4.25-4.4 1.5-3.35 1.5-6.7 0-3.1-2.5-4.05l-5.65-.2V61l2.2-.25q2 0 3.5 1.3l3.2 2.8q.9-2.8 2.35-6.65.55-1.5.9-3.85l.8-3.9.25 4.9-.05.1-.35 2.55.35.4h.05"/><path fill="url(#e)" d="M98.6 43.5q-.7-.75-.7-1.8 0-1.1.75-1.9l.3-.2 1.15-.05 2.45.4q.65.75.65 1.75 0 1.1-.75 1.85H102l-3.4-.05"/><path fill="url(#f)" d="M127.05 41.05l.1.65q0 1-.7 1.7l-.1.1-3.2-.35h-.3q-.5-.6-.5-1.45 0-1 .7-1.7.25-.25.6-.4l.4-.05q1.95 0 2.85 1.2l.15.3"/><path fill="#fff" d="M127.05 41.05l1.3 2.7h-1.15l-.85-.25.1-.1q.7-.7.7-1.7l-.1-.65m-3.4-1.45q-.35.15-.6.4-.7.7-.7 1.7 0 .85.5 1.45l-3.1-.15.2-.4.65-1.05 1.05-1.15q.75-.75 2-.8m-24.7 0l-.3.2q-.75.8-.75 1.9 0 1.05.7 1.8l-.55-.05-4.35-1-.4.2-1.15.35v-.4q1.4-1.8 3.6-2.5l3.2-.5m3.5 3.95q.75-.75.75-1.85 0-1-.65-1.75.6.25 1.05.65l2.55 2.2q-.45.45-2.3.65l-1.4.1"/><path fill="url(#g)" d="M104.55-3.3l12.2 3.35 7.75 5.25 5.25 14.4 1.65 11.6.3 15.8-6.1-30.45q-8.1-.65-16.7.05-17.25 1.35-19.85 7.95l-5.45 14.2-4.65 5.95-2.35-6-5.5.25-.55 7.75 4.4 5.8 3.35 8.3 1.9.05.9 4.35q-.3 10.7.5 18.85l-9.15 5-4.8-.85q-4.95-1.4-6-4.15-1.65-4.4-3-14.4l1.4 1.15q1.65 1.1 3 .55l5.25-1.7-7.45-7.45 3.55.45q3.7 0 4.75-2.4 1.4-3.25 2.2-7.9l.2-1.15-.4 1.05q-.85 1.7-2.55 1.9L65 54l.25-5.55 1.7-3.2 1.9-4.25.9-5.05q.7-4.2 1.05-5.2l4.15-15.8L76.6 8.9l7.2-7.2 10.8-4.45 9.95-.55m-32.9 54l-.1.6.1-.6"/><path fill="url(#h)" d="M126.1 134.7q4.7-5.35 8.25-11.1 11.5-18.35 7.7-33.75 7.5 0 10.2 1.5 2.5 1.15 4.8 2.6 4.45 2.7 7.85 6.4 10.6 11.25 10.2 29.5 4.15 6.9 8.25 17.55 8.2 21.35 8.05 40.4h-.4q-6.4-4.7-20.45-.55-5.4 1.6-9.9 3.95l-1.5.75 1.25-5.55-2.35-2.95q-2.8-3.7-4.95-7.7-6.8-12.85-4.25-23.6-2.55 9.55-4.45 22.15-1.65 11.05-.7 22.4.55 7.05 2.75 18.75l-.95.5q-1.65.45-3.1 1.5-13.8 9.4-10.55 64.55 1.1 19.65 4.35 42.95l1.85 11.85 1.15 7.5-8.8 4.1q-9.3 4.3-12.9 5-7.45 1.35-17 .3-5.75-.65-11.7-2.15l-.2-.05-.65-.15-.65-.2-5.45-1.65.9-5.05 1.9-10.55q3.9-20.75 9.55-46.7 5.65-25.95-15.15-52.5-11-14-21.4-21.3l-2.95-1.1q2-7.75 2.6-13.5.85-8.85-.7-18.3-1.7-10.45-4-18.7v-.05l-.05-.05v-.05l-.05.05v.05l-.05.05q-3.35 8.6-9.1 18.4l-4.9 7.75h-.05q-4.55-2.35-9.9-3.8-12.2-3.2-18.25.8h-.05l-1.1-6.25q-1.1-7.85-1.25-15.4-.6-24.05 8.45-36.1l-.4-5.15q.05-6.2 2.35-11.15 7.3-15.95 34.15-14.1l2.4-2.45q3.55-2.65 9-3.6 5.65 9.7 14.8 20.3 18.25 21.15 35.75 25.45l8.15 2.05 3.6-3.85m26.75 8.7q-2.75 3.9-3.9 8.5l-.1.25.1-.25q1.15-4.6 3.9-8.5m-96.55-3.6q1.6 8.2-3.75 21.85Q57.9 148 56.3 139.8"/><path fill="url(#i)" d="M191.4 188.1l.4.35q2.5 2.15 4.35 7.85l-4.6-.25q-5.45-.2-10.55.2-15.2 1.25-21.7 7.3l-.9.3-2.95-8.6.75-.6q.15-1.05 2.95-2.65v-.05l1.5-.75q4.5-2.35 9.9-3.95 14.05-4.15 20.45.55l.4.3"/><path fill="url(#j)" d="M196.15 196.3l.1.35q2.5 8.25 3.5 23.3.55 8.1.7 17.4l-.1 7.5-.05.1q-8.35-2.7-17.4.4-4.55 1.5-7.4 3.6l-.05.05-16.15-45.45q6.5-6.05 21.7-7.3 5.1-.4 10.55-.2l4.6.25"/><path fill="url(#k)" d="M130.95 48.25l-.8 1.25.8-1.45v.2"/><path fill="url(#l)" d="M38.45 187.95l.2.1q4.35 2.3 4.7 3.75l.8.65-2 10.3-1-.2q-6.9-6.7-21.95-7l-10.4.55-4.4.65q1.15-6.85 3.4-9.55 1.1-1.35 2.4-2.2l.05-.05q6.05-4 18.25-.8 5.35 1.45 9.9 3.8h.05"/><path fill="url(#m)" d="M41.15 202.55l-11.35 54.7h-.05q-3-2.2-7.55-3.65-9.15-2.95-17.15.9l-.05-.1-.8-8.9q-.8-10.95-1.05-20.6-.45-17.8 1.15-27.75l.1-.4 4.4-.65 10.4-.55q15.05.3 21.95 7"/><path fill="url(#n)" d="M159.3 203.55l-.7.85-.2-.55.9-.3"/><path fill="#ccc" d="M145.5 215.95l-2.4 1.15-.7.35q1.45-1.05 3.1-1.5"/><path fill="url(#o)" d="M143.1 217.1l.8-.3q.7.05 1.1 3.6l.3 4.25q9.9 19.65 12.05 64.25.65 13.9.45 28.7l-.3 12q-7.4-33-8.35-34.15-1.1 10.15-3.9 21-2.7 10.7-4.45 15.1-1.25 3.15-2.75 5.25l-1.85-11.85q-3.25-23.3-4.35-42.95-3.25-55.15 10.55-64.55l.7-.35"/><path fill="url(#p)" d="M42.15 202.75l-.15.7-.85-.9 1 .2"/><path fill="url(#q)" d="M45.75 348.2l-1.4-9.4Q43 326.85 43.1 313.25q.15-24.5 3.4-50.2 3.5-27.5 11.15-49.65 10.4 7.3 21.4 21.3 20.8 26.55 15.15 52.5t-9.55 46.7l-1.9 10.55q-4.1-6.25-8.05-16.45-6.25-16.05-7.45-31.1l-2.9 13.6Q62 321.65 60.7 324.85q-6.2 15.9-13.65 23.35l-1.1-.05-.2.05"/><path fill="url(#r)" d="M29.8 257.3q.6 2.35.25 4.05l-.45 1.2q.7 2.35 0 3.35l2.4 1.15q-5.5 3.85-4.45 8 .25.9.8 1.8l.45.7.9.9q-.5.75.2 3.4.4 1.55 2.65 3.65-4.7-2.3-10.95-3-12.4-1.4-20.05 6.65L1.4 289q-1.55-3.45-1.85-7.4v-.2q-.3-4.25.75-8.9l-1.3-3.45q-1.15-3 1.15-5.2 1.15-1.1 2.55-1.6l-.45-3.3q.1-3.5 2.7-4.55H5v.1h.05q8-3.85 17.15-.9 4.55 1.45 7.55 3.65l.05.05"/><path fill="url(#s)" d="M29.8 257.3l-.05-.05h.05v.05"/><path fill="url(#t)" d="M1.55 289.15l-.05.05-.1-.2.15.15"/><path fill="url(#u)" d="M88.35 352.15l.2.45q1.95 4.75.5 11.25l-1.85 5.5q-1.15 6.95-7.85 30.75-6.1 21.5-6.1 25.4 0 6.55.9 16.4.75 8.25 1.6 11.75-9.25-14.3-20.3-7.65-3.45 2.1-6.65 6l-2.5 3.45v-.05q1.9-6.05 2.1-9.1.3-5.45 0-18.9-.3-14.4-1-18.95l-3.65-18.95q-2.95-16.35-3.15-26.65-.15-8.2 1.9-11.95 1.3-2.4 3.25-2.7l.2-.05 1.1.05q7.45-7.45 13.65-23.35 1.3-3.2 3.65-14.35l2.9-13.6q1.2 15.05 7.45 31.1 3.95 10.2 8.05 16.45l-.9 5.05 5.45 1.65.65.2.4.8"/><path fill="url(#v)" d="M157.5 329.6l2.2 9.75 10.25 80.35 3.85 4.25 7 7.15q-4.55-3.2-10.9-4.4-12.75-2.3-22.6 7.9l.15-4q.2-7.1-2.8-13.3-1.95-4-8.4-15.3L125 379.6q-6.05-13.2-7.15-21.2-.4-2.85-.35-5 3.6-.7 12.9-5l8.8-4.1-1.15-7.5q1.5-2.1 2.75-5.25 1.75-4.4 4.45-15.1 2.8-10.85 3.9-21 .95 1.15 8.35 34.15"/><path fill="url(#w)" d="M200.35 244.85h.05q2.75.75 3.2 3.7l-.25 2.8q1.45.35 2.7 1.15 2.5 1.75 1.6 4.4l-1 2.95q1.45 3.85 1.5 7.45v.15q.05 3.35-1.2 6.4l-.1.2q-8.4-6.4-15.15-6.25-2.1.05-3.8.7l-1.25.7q.75-.75.25-1.4-.65-.85-.6-1.15.2-.9-.65-1.45l-.95-.45-.25-.2-.55 1-1.05 1.1q.35-.55-.8-4l-1-2.2q-1.7-2.75-4.9-3.55l.25-.65-.05-.05q-.75-.8-.25-2.8l-.55-1q-.5-1.45-.05-3.4v-.05q2.85-2.1 7.4-3.6 9.05-3.1 17.4-.4h.05v-.1m-23.95 11.4l1 .3-1-.3"/><path fill="url(#x)" d="M183.9 265.55l-.8 1.4-.1-.1-.15-.2 1.05-1.1"/><path fill="url(#y)" d="M176.15 256.9l-.45-.1.35-.35q-.05-.1.3-.25l.05.05-.25.65"/><path fill="url(#z)" d="M180.8 431.1l.15.15 2.95 2.4 8.3 4.8q7.05 4 12.1 6.1 4.9 2.05 11 8.75l5.7 6.2-9.75 2.25-18.5 3.55q-6.6 1.05-19.3-6.65l-11.35-7.95-15.65-4.45q.55-3.55.85-11.65 9.85-10.2 22.6-7.9 6.35 1.2 10.9 4.4"/><path fill="url(#A)" d="M75.75 453.65l.55 1.8 3.15 6.05q1.85 4 1.65 7.6-.25 3.85-2.9 6.35-.9.85-8 5.55-4.45 2.95-14.1 6.4l-8.7 2.8-4.45-4.8q-3.35-3.35-4.25-6.1-1.05-3.3.85-7.15 3.85-7.7 6.75-16.7l2.5-3.45q3.2-3.9 6.65-6 11.05-6.65 20.3 7.65"/><path fill="none" stroke="#77411A" stroke-width=".05" stroke-linecap="round" stroke-linejoin="round" d="M79.7 61.45q-.95.25-2.25 0-1.9-.75-1.9-2.7 0-1.5-1.15-4.2l-2.3-4.25q-2.3-3.05-2.7-5-1.15-3.45.4-6.15.75-1.55 2.3-1.55 0-7.3.35-10.35.2-2.85.85-5.75.65-3.05 1.85-6.2 2.3-5.75 6.5-8.45 2.7-1.95 8.45-5Q94.35-.85 103.55.3q8.1.4 12.7 3.1 3.85 1.9 7.7 10.35l2.75 7.75 1.85 6.9q.8 3.85 1.2 10.75l1.5-1.15q1.15-.75 1.15 1.15.4 5.75.4 9.25 0 7.3-.4 8.05l-1.9 1.15-.75.25v.55M79 49.5l-.75-6.4m51.5 12.25l.35-4.25q0-6.2-.35-11.95m-13.7-1.45l.05-1.75.25.2.5.15 1.3-.85q1.2-.85 1.45-.85.7 0 .7.4l1.75-1.35 1.3-.75q.85 0 1.9.75l.75-.7q.55-.45.8-.45.55 0 1.45 1.1.8 1 1.05 1.75v.95q-.55-1-1.5-1.2l-1.95-.1q-4.35 0-6.55 3.25L118 40.5q-.6 1-1.15 1-.7 0-.85-1.7l-.05-.15.1-1.95-.05 2.1m11.05 1.25l-.15-.3q-.9-1.2-2.85-1.2l-.4.05m4.7 4.15l-1.3-2.7m-7.3 1.95l.2-.4.65-1.05 1.05-1.15q.75-.75 2-.8M96.2 34.2l-5.85-.2-3.15.2q-1.15.5-1.15 2.95 0 .75.3 1.4l.25 1.4q1.25-.9 3.9-1.95 2.6-1.1 3.5-1.1 3.35 0 13.65 3.8l.15-1.7.1-.45q.1-.6.35-1.05l-.2-1.75q-.35 0-.75.4l-1.35-1.55-.6.75-1.5-1.35q-.2.2-.2 1l-2.2-.8q-.65 0-.7.3l.05.65q-3.7-1.5-4.35-1.5l-.4.05q-.15.1.15.5m6.35 5.75l-2.45-.4-1.15.05-3.2.5q-2.2.7-3.6 2.5v.4m10.4-3.05q.6.25 1.05.65l2.55 2.2m7.7-4.55q.9 1.2 1.6 4.35.7 3 1.75 4.25l1.65 3.75q1.25 3.45 1.25 5.25 0 1.55-1.45 2.45l.4-.05q.45 0 .65.3-.05.4-.7.6l-.8.15h-.6q-.45 0-.55-.25l-1.9.25m-1.65-1.1q.6.6.55.95h-.55l.05.25q-1.7-.85-2.1-1.25 0-.15.5-.35l.55-.2q.4 0 1 .6m5.15.1l-.35.2-.15.1-1.1.45m2.15.7q1.85-.45 1.85-2.75 0-1.1-.5-2m-10.5-.95q-1 .85-1 2.5 0 1.8.2 2.1.55.65 3.2.9m-5.95 7.7l1.5-1q.8-.55 1.65-.55l6.05.55 5.55-.95q.85 0 1.55.5l.95.85m-13.2 2.5l4.2.3 2.95.1 2.4-.15 1.15-2m8.45-11.95v2.45l.05-.05v-2.5m-.05 3.05v-.5l-.35.1M72.1 37.6q1.15 0 2.3.8l3.05 2.3"/><path fill="none" stroke="#8D6403" stroke-width=".05" stroke-linecap="round" stroke-linejoin="round" d="M129.75 58.4v1.3l-.1 7q-.3 4.7-1.6 6.05L125.7 85.2q-1.05-.25-2.5.8-1.6 1.1-2.75 1.1l-3.3.4-3.35.35q-2.3 0-4.65-.95-2.35-.95-4.1-.95l-.4.25q-.1.25-.4.25-1.25 0-5.15-2.75-3.9-2.75-4.9-2.75-.3 0-.3.35l-.35.3q-1.8 0-3.55-1.85-2.1-2.35-3.65-2.95l-.15.5q-.5-.85-1.75-1.45l-.7.75q-2.35-2.1-3.4-8-.6-3.45-.65-7.15v-1.9q.05-2.95-.7-10.05m-.75-6.4l-.1-2.15q-.05-2.55 2.75 4.7 2.75 7.25 4.85 10.75l5.3 9.3q3.7 3.75 6.6 3.75l1.2-.25v-.45l.2.2 1.2 1.4q-.8-3.95 4.55-8.65h9.9v2.4l-8.15.3q-2.7.7-2.7 4.25 0 2.3 2.4 6.55 2.85 5 5.85 5 2.55 0 2.4-3.7-.15-3.75 1.45-3.75 1.5 0 1.8 2.6.35 3.25 1.2 4.1 2.55-.6 4.25-4.4 1.5-3.35 1.5-6.7 0-3.1-2.5-4.05l-5.65-.2V61l2.2-.25q2 0 3.5 1.3l3.2 2.8q.9-2.8 2.35-6.65.55-1.5.9-3.85l.8-3.9.25 4.9-.05.1m0 2.95l-.35-.4.35-2.55M78.25 43.1l.55 4.5.2 1.9"/><path fill="none" stroke="#333" stroke-width=".05" stroke-linecap="round" stroke-linejoin="round" d="M52.6 161.8v-.05l-.05-.05v-.05l-.05.05v.05M16.3 127.2l-.4-5.15M52.4 96.8l2.4-2.45m67.7 44.2l3.6-3.85"/><path fill="none" stroke="#754039" stroke-width=".05" stroke-linecap="round" stroke-linejoin="round" d="M191.4 187.8v.3l.4.35q2.5 2.15 4.35 7.85l.1.35q2.5 8.25 3.5 23.3.55 8.1.7 17.4l-.1 7.5h.05q2.75.75 3.2 3.7l-.25 2.8q1.45.35 2.7 1.15 2.5 1.75 1.6 4.4l-1 2.95q1.45 3.85 1.5 7.45v.15q.05 3.35-1.2 6.4l-.1.2q-8.4-6.4-15.15-6.25-2.1.05-3.8.7l-1.25.7q.75-.75.25-1.4-.65-.85-.6-1.15.2-.9-.65-1.45l-.95-.45-.8.8-.8 1.4-.1-.1-.15-.2q.35-.55-.8-4l-1-2.2q-1.7-2.75-4.9-3.55l-.45-.1.35-.35q-.05-.1.3-.25-.75-.8-.25-2.8l-.55-1q-.5-1.45-.05-3.4v-.05l-.05.05-16.15-45.45-.7.85-.2-.55-2.95-8.6.75-.6q.15-1.05 2.95-2.65v-.05m-12.7 23.5l-.95.5-2.4 1.15.8-.3q.7.05 1.1 3.6l.3 4.25q9.9 19.65 12.05 64.25.65 13.9.45 28.7l-.3 12 2.2 9.75 10.25 80.35 3.85 4.25 7 7.15.15.15 2.95 2.4 8.3 4.8q7.05 4 12.1 6.1 4.9 2.05 11 8.75l5.7 6.2-9.75 2.25-18.5 3.55q-6.6 1.05-19.3-6.65l-11.35-7.95-15.65-4.45q.55-3.55.85-11.65l.15-4q.2-7.1-2.8-13.3-1.95-4-8.4-15.3L125 379.6q-6.05-13.2-7.15-21.2-.4-2.85-.35-5m-28.9-1.9l-.25.65.2.45q1.95 4.75.5 11.25l-1.85 5.5q-1.15 6.95-7.85 30.75-6.1 21.5-6.1 25.4 0 6.55.9 16.4.75 8.25 1.6 11.75l.55 1.8 3.15 6.05q1.85 4 1.65 7.6-.25 3.85-2.9 6.35-.9.85-8 5.55-4.45 2.95-14.1 6.4l-8.7 2.8-4.45-4.8q-3.35-3.35-4.25-6.1-1.05-3.3.85-7.15 3.85-7.7 6.75-16.7v-.05q1.9-6.05 2.1-9.1.3-5.45 0-18.9-.3-14.4-1-18.95l-3.65-18.95q-2.95-16.35-3.15-26.65-.15-8.2 1.9-11.95 1.3-2.4 3.25-2.7l-1.4-9.4Q43 326.85 43.1 313.25q.15-24.5 3.4-50.2 3.5-27.5 11.15-49.65l-2.95-1.1m-16.25-24.35l.2.1q4.35 2.3 4.7 3.75l.8.65-2 10.3-.15.7-.85-.9-11.35 54.7v.05q.6 2.35.25 4.05l-.45 1.2q.7 2.35 0 3.35l2.4 1.15q-5.5 3.85-4.45 8 .25.9.8 1.8l.45.7.9.9q-.5.75.2 3.4.4 1.55 2.65 3.65-4.7-2.3-10.95-3-12.4-1.4-20.05 6.65l-.05.05-.1-.2q-1.55-3.45-1.85-7.4v-.2q-.3-4.25.75-8.9l-1.3-3.45q-1.15-3 1.15-5.2 1.15-1.1 2.55-1.6l-.45-3.3q.1-3.5 2.7-4.55H5l-.8-8.9q-.8-10.95-1.05-20.6-.45-17.8 1.15-27.75l.1-.4q1.15-6.85 3.4-9.55 1.1-1.35 2.4-2.2v-.05l-1.1-6.25m181.9 9.1l.4.3m4.75 8.2l-4.6-.25q-5.45-.2-10.55.2-15.2 1.25-21.7 7.3M191 187.8q-6.4-4.7-20.45-.55-5.4 1.6-9.9 3.95l-1.5.75M10.2 185l.05-.05q6.05-4 18.25-.8 5.35 1.45 9.9 3.8h.05m-34.05 8.8l4.4-.65 10.4-.55q15.05.3 21.95 7m104.35 13.4q-1.65.45-3.1 1.5m-4.35 119.35q1.5-2.1 2.75-5.25 1.75-4.4 4.45-15.1 2.8-10.85 3.9-21 .95 1.15 8.35 34.15m-75.65 19.9l5.45 1.65.65.2.65.15m-58.85-94.25l.05.05m-.05-.05q-3-2.2-7.55-3.65-9.15-2.95-17.15.9H5v-.1m77.75 90.05q-4.1-6.25-8.05-16.45-6.25-16.05-7.45-31.1l-2.9 13.6Q62 321.65 60.7 324.85q-6.2 15.9-13.65 23.35l-1.1-.05-.2.05m92.3-11.4l1.15 7.5m-51.25 7.05l.4.8m112-107.3v.1h-.05q-8.35-2.7-17.4.4-4.55 1.5-7.4 3.6m9.2 15.8l-.25-.2-.55 1-1.05 1.1m-6.45-10.4l-.05-.05m1.05.35l-1-.3m4.4 174.85q-4.55-3.2-10.9-4.4-12.75-2.3-22.6 7.9m-71.55 19.05q-9.25-14.3-20.3-7.65-3.45 2.1-6.65 6l-2.5 3.45"/><path fill="none" stroke="#666" stroke-width=".05" stroke-linecap="round" stroke-linejoin="round" d="M126.1 134.7q4.7-5.35 8.25-11.1 11.5-18.35 7.7-33.75 7.5 0 10.2 1.5 2.5 1.15 4.8 2.6 4.45 2.7 7.85 6.4 10.6 11.25 10.2 29.5 4.15 6.9 8.25 17.55 8.2 21.35 8.05 40.4m-32.25 4.15l1.25-5.55-2.35-2.95q-2.8-3.7-4.95-7.7-6.8-12.85-4.25-23.6-2.55 9.55-4.45 22.15-1.65 11.05-.7 22.4.55 7.05 2.75 18.75M117.5 353.4q-7.45 1.35-17 .3-5.75-.65-11.7-2.15l-.2-.05M54.7 212.3q2-7.75 2.6-13.5.85-8.85-.7-18.3-1.7-10.45-4-18.7m-.1-.05l-.05.05q-3.35 8.6-9.1 18.4l-4.9 7.75M9.1 178.7q-1.1-7.85-1.25-15.4-.6-24.05 8.45-36.1m-.4-5.15q.05-6.2 2.35-11.15 7.3-15.95 34.15-14.1m2.4-2.45q3.55-2.65 9-3.6 5.65 9.7 14.8 20.3 18.25 21.15 35.75 25.45l8.15 2.05m-69.95 23.1Q57.9 148 56.3 139.8m92.55 12.35l.1-.25q1.15-4.6 3.9-8.5m-10.45 74.05q-13.8 9.4-10.55 64.55 1.1 19.65 4.35 42.95l1.85 11.85m-80.4-123.4q10.4 7.3 21.4 21.3 20.8 26.55 15.15 52.5t-9.55 46.7l-1.9 10.55-.9 5.05m57.35-5.2l-8.8 4.1q-9.3 4.3-12.9 5"/><path fill="none" stroke="#A07307" stroke-width=".05" stroke-linecap="round" stroke-linejoin="round" d="M104.55-3.3l12.2 3.35 7.75 5.25 5.25 14.4 1.65 11.6.3 15.8-6.1-30.45q-8.1-.65-16.7.05-17.25 1.35-19.85 7.95l-5.45 14.2-4.65 5.95-2.35-6-5.5.25-.55 7.75 4.4 5.8 3.35 8.3 1.9.05.9 4.35q-.3 10.7.5 18.85l-9.15 5-4.8-.85q-4.95-1.4-6-4.15-1.65-4.4-3-14.4l1.4 1.15q1.65 1.1 3 .55l5.25-1.7-7.45-7.45 3.55.45q3.7 0 4.75-2.4 1.4-3.25 2.2-7.9l.2-1.15-.4 1.05q-.85 1.7-2.55 1.9L65 54l.25-5.55 1.7-3.2 1.9-4.25.9-5.05q.7-4.2 1.05-5.2l4.15-15.8L76.6 8.9l7.2-7.2 10.8-4.45 9.95-.55m-33 54.6l.1-.6"/></svg>