<svg xmlns="http://www.w3.org/2000/svg" viewBox="2.7 28.9 201.3 478.6" width="201.3" height="478.6" preserveAspectRatio="xMinYMin"><defs><linearGradient gradientUnits="userSpaceOnUse" x1="-819.2" x2="819.2" gradientTransform="matrix(-.014 -.113 .073 -.009 93.85 207.45)" id="a"><stop offset="0" stop-color="#ccc"/><stop offset=".941" stop-color="#fff"/></linearGradient><linearGradient gradientUnits="userSpaceOnUse" x1="-819.2" x2="819.2" gradientTransform="matrix(.024 0 0 .045 25.95 230.25)" id="b"><stop offset="0" stop-color="#BB8277"/><stop offset=".706" stop-color="#E2ADAD"/></linearGradient><linearGradient gradientUnits="userSpaceOnUse" x1="-819.2" x2="819.2" gradientTransform="matrix(.072 .007 -.012 .117 77.9 202.6)" id="c"><stop offset="0" stop-color="#ccc"/><stop offset=".941" stop-color="#fff"/></linearGradient><linearGradient gradientUnits="userSpaceOnUse" x1="-819.2" x2="819.2" gradientTransform="matrix(.023 0 0 .044 152 215.6)" id="d"><stop offset="0" stop-color="#BB8277"/><stop offset=".706" stop-color="#E2ADAD"/></linearGradient><linearGradient gradientUnits="userSpaceOnUse" x1="-819.2" x2="819.2" gradientTransform="matrix(.027 .002 -.004 .054 151.55 266.1)" id="e"><stop offset="0" stop-color="#271514"/><stop offset=".706" stop-color="#AE4040"/></linearGradient><linearGradient gradientUnits="userSpaceOnUse" x1="-819.2" x2="819.2" gradientTransform="matrix(.017 0 0 .014 166.05 258.75)" id="f"><stop offset="0" stop-color="#BB8277"/><stop offset=".706" stop-color="#E2ADAD"/></linearGradient><linearGradient gradientUnits="userSpaceOnUse" x1="-819.2" x2="819.2" gradientTransform="matrix(-.059 .012 -.011 -.053 10.8 276.2)" id="g"><stop offset="0" stop-color="#271514"/><stop offset=".706" stop-color="#AE4040"/></linearGradient><linearGradient gradientUnits="userSpaceOnUse" x1="-819.2" x2="819.2" gradientTransform="matrix(.015 0 0 .018 14.6 277.35)" id="h"><stop offset="0" stop-color="#BB8277"/><stop offset=".706" stop-color="#E2ADAD"/></linearGradient><linearGradient gradientUnits="userSpaceOnUse" x1="-819.2" x2="819.2" gradientTransform="matrix(-.014 -.002 .013 -.079 90.25 388.6)" id="i"><stop offset="0" stop-color="#BB8277"/><stop offset=".706" stop-color="#E2ADAD"/></linearGradient><linearGradient gradientUnits="userSpaceOnUse" x1="-819.2" x2="819.2" gradientTransform="matrix(.022 -.007 .024 .074 143.05 380.55)" id="j"><stop offset="0" stop-color="#BB8277"/><stop offset=".706" stop-color="#E2ADAD"/></linearGradient><linearGradient gradientUnits="userSpaceOnUse" x1="-819.2" x2="819.2" gradientTransform="matrix(-.012 -.007 .003 -.004 95 295.5)" id="k"><stop offset="0" stop-color="#271514"/><stop offset=".706" stop-color="#AE4040"/></linearGradient><linearGradient gradientUnits="userSpaceOnUse" x1="-819.2" x2="819.2" gradientTransform="matrix(.017 -.005 .012 .037 195 456.1)" id="l"><stop offset="0" stop-color="#BB8277"/><stop offset=".706" stop-color="#E2ADAD"/></linearGradient><linearGradient gradientUnits="userSpaceOnUse" x1="-819.2" x2="819.2" gradientTransform="matrix(.051 0 0 .103 161.9 403.9)" id="m"><stop offset="0" stop-color="#BB8277"/><stop offset=".706" stop-color="#E2ADAD"/></linearGradient><linearGradient gradientUnits="userSpaceOnUse" x1="-819.2" x2="819.2" gradientTransform="matrix(-.017 0 -.001 -.037 82.9 477.6)" id="n"><stop offset="0" stop-color="#BB8277"/><stop offset=".706" stop-color="#E2ADAD"/></linearGradient><linearGradient gradientUnits="userSpaceOnUse" x1="-819.2" x2="819.2" gradientTransform="matrix(-.001 -.033 .002 0 114.95 49.35)" id="o"><stop offset="0" stop-color="#D98651"/><stop offset=".533" stop-color="#DFA168"/><stop offset="1" stop-color="#D98651"/></linearGradient><linearGradient gradientUnits="userSpaceOnUse" x1="-819.2" x2="819.2" gradientTransform="matrix(-.03 -.001 .002 -.043 89.8 67.25)" id="p"><stop offset="0" stop-color="#D98651"/><stop offset=".533" stop-color="#DFA168"/><stop offset="1" stop-color="#D98651"/></linearGradient><linearGradient gradientUnits="userSpaceOnUse" x1="-819.2" x2="819.2" gradientTransform="matrix(0 -.001 .007 0 99.85 85.45)" id="q"><stop offset="0" stop-color="#781F10"/><stop offset=".502" stop-color="#964432"/><stop offset="1" stop-color="#822B1B"/></linearGradient><linearGradient gradientUnits="userSpaceOnUse" x1="-819.2" x2="819.2" gradientTransform="matrix(0 .002 -.007 0 99.85 88.2)" id="r"><stop offset="0" stop-color="#781F10"/><stop offset=".502" stop-color="#964432"/><stop offset="1" stop-color="#822B1B"/></linearGradient><radialGradient gradientUnits="userSpaceOnUse" r="819.2" cx="0" cy="0" spreadMethod="pad" gradientTransform="matrix(.003 0 0 .003 88.55 65.95)" id="s"><stop offset=".784" stop-color="#20281A"/><stop offset="1"/></radialGradient><linearGradient gradientUnits="userSpaceOnUse" x1="-819.2" x2="819.2" gradientTransform="matrix(-.002 0 0 -.002 84.3 65.95)" id="t"><stop offset="0" stop-color="#fff"/><stop offset="1" stop-color="#959595"/></linearGradient><linearGradient gradientUnits="userSpaceOnUse" x1="-819.2" x2="819.2" gradientTransform="matrix(.001 0 0 .002 91.45 66.1)" id="u"><stop offset="0" stop-color="#fff"/><stop offset="1" stop-color="#959595"/></linearGradient><radialGradient gradientUnits="userSpaceOnUse" r="819.2" cx="0" cy="0" spreadMethod="pad" gradientTransform="matrix(.002 0 0 .002 107.8 67.45)" id="v"><stop offset=".784" stop-color="#20281A"/><stop offset="1"/></radialGradient><linearGradient gradientUnits="userSpaceOnUse" x1="-819.2" x2="819.2" gradientTransform="matrix(-.001 0 0 -.002 105.1 67.5)" id="w"><stop offset="0" stop-color="#fff"/><stop offset="1" stop-color="#959595"/></linearGradient><linearGradient gradientUnits="userSpaceOnUse" x1="-819.2" x2="819.2" gradientTransform="matrix(0 0 0 .002 110.1 67.7)" id="x"><stop offset="0" stop-color="#fff"/><stop offset="1" stop-color="#959595"/></linearGradient><linearGradient gradientUnits="userSpaceOnUse" x1="-819.2" x2="819.2" gradientTransform="matrix(.041 0 0 .04 69.05 61.7)" id="y"><stop offset="0" stop-color="#FDD271"/><stop offset=".329" stop-color="#FED678"/><stop offset=".541" stop-color="#FCC547"/></linearGradient><linearGradient gradientUnits="userSpaceOnUse" x1="-819.2" x2="819.2" gradientTransform="matrix(.032 0 0 .037 50.35 88.45)" id="z"><stop offset="0" stop-color="#FDD271"/><stop offset=".329" stop-color="#FED678"/><stop offset=".541" stop-color="#FCC547"/></linearGradient><linearGradient gradientUnits="userSpaceOnUse" x1="-819.2" x2="819.2" gradientTransform="matrix(.014 0 0 .024 65.15 99.95)" id="A"><stop offset="0" stop-color="#FDD271"/><stop offset=".329" stop-color="#FED678"/><stop offset=".541" stop-color="#FCC547"/></linearGradient><linearGradient gradientUnits="userSpaceOnUse" x1="-819.2" x2="819.2" gradientTransform="matrix(.016 0 0 .049 112.65 71.95)" id="B"><stop offset="0" stop-color="#FDD271"/><stop offset=".329" stop-color="#FED678"/><stop offset=".541" stop-color="#FCC547"/></linearGradient></defs><path fill="url(#a)" d="M49.1 163.5l-.3 1.25q-1.15-5.35.35-12.1l.55-2.2q1.65-6.2 5.3-12.85l3.25-5.4-3.25 5.4q-3.65 6.65-5.3 12.85l-.55 2.2q-1.5 6.75-.35 12.1l.3-1.25m9.3-44.95l1.1 7.8q1.8 7.45 5.4 14.4 3.35 6.5 7.85 11.9 10.9 13.1 28.6 19.7 5.9-.95 10.75-8.85 2.8-4.55 4.3-10.85 3.65-15.4-.7-41.1l2.1-.3q1.1-.6 7.15-.65 6-.1 12.1 4.15l1.65.5q1.4.35 4 4.5 1.05 1.65 1.55 5.6-5.2.55-7.95 8.05-1.4 3.75-1.8 7.4l.1.15 3.55 3.95 1.45 3.1q.95 2.35 1.5 4.65l.6 2.95q1.85 11.9-6.6 17.95-4.4 2.6-9.95 3.85l-.25.05-2.45 9.05q-1.25 5.65-1.65 10.2-.4 3.85-.1 6.95l2.35 5.6q2.45 6.3 2.75 9.8l-.25 1.15q-.75 1.9-3.4 6.5-4.7 8.05-6.95 15.15-8.15 25.2 5.05 55.95l-8.85-.45-4.65.3q-6.45.65-11.4 2.85l-1.2.55.2-.95q3-16.35.7-34.2-4.8-36.7-33.05-44.55l-1.9-1q.05-2.6.65-5.6 1.15-5.95 3.85-7.9-3.1-4-6.45-10.15l-.85-1.6-1.65-3.3q-2.7-5.7-4.4-11.3-2.25-7.05-2.9-14l.85-.25-.2-.75-.2-.75-.4.1q-1.7-7-5.25-12.2-3.4-4.9-8.45-8.15-3.4-2.15-7.15-3.35l-3.05-.7q-.55-13.85 15.35-18.95 7.95-2.5 16-2.3l2.45-.9.1.25m32.3 57.75q-10.15 8-18.55 6.35-8.45-1.65-8.2-1.9l-4.15-2.15q-8.35-4.55-10.6-12.35 2.25 7.8 10.6 12.35l4.15 2.15q-.25.25 8.2 1.9 8.4 1.65 18.55-6.35m34.85-53.75l2.2 6.15q2.95 7.05 6.75 12.1-3.8-5.05-6.75-12.1l-2.2-6.15m-15.45 52.3q5.45 4.65 14.8 2.6-9.35 2.05-14.8-2.6"/><path fill="url(#b)" d="M5.9 267.15q.7-15.5 2.6-32.35 3.75-33.7 9.6-40.35l2.35-.65 6.25-.4q10.3.6 18.9 8.95l.4.75q-21.25 56.25-24 61.7l-.2-.05q-3.05-1.3-6.55-1.7-7.15-.8-9.35 4.1"/><path fill="url(#c)" d="M48.35 166.5l.25-.85-.2-.8.4-.1-.2.9.2-.9.2.75.2.75-.85.25"/><path fill="url(#d)" d="M133.15 192.9q4.65-10.3 14.95-12.45 5.2-1.1 9.4-.1l13.35 68.3q-3.2-2.45-9-.1l-4.7 2.65-.4.15-13.7-33.85-9.9-24.2v-.4"/><path fill="url(#e)" d="M125.55 220.2q15.15 11.2 18.45 49.15 1.65 19.05.25 35.85-7.05-11.75-22.3-5.95-4.8 1.8-9.85 5.15l-4.05 3-1.3-9.75 4.65-.3 8.85.45q-13.2-30.75-5.05-55.95 2.25-7.1 6.95-15.15 2.65-4.6 3.4-6.5"/><path fill="url(#f)" d="M157.15 251.2l4.7-2.65q5.8-2.35 9 .1l4.65 6.85q4.65 7.7 4.8 12.1l-7.4-.3q-7.8.2-9.7 2.85l-2.25-5.3.25 4q-1.15-1.5-2.6-2.25-2.9-1.45-4.45 2.5-1.3-2.3-2-5-1.3-5.4 2-7.3.75.05 1.5-.65 1.4-1.3 1.5-4.65v-.3"/><path fill="url(#g)" d="M94.35 300.1q-13.55-4.95-24.85.65-8.45 4.15-12.55 11.3L50.6 296.4q-14.4-34.25-4.4-58.45 3.2-7.8 8.5-13.4l.95-.95q3.2-3.25 4.45-3.25l1.9 1q28.25 7.85 33.05 44.55 2.3 17.85-.7 34.2"/><path fill="url(#h)" d="M21.8 264.75l-.2.5q-.95 3.65 1.9 6.15 1.4 1.25 3 1.75-4.6-1.2-6.45 2.45-.9 1.85-.9 3.9-5.2-1.25-9.25 5.4-2 3.35-3 6.9-5.55-1.55-3.8-13.25.5-3.65 1.7-7.9l1.1-3.5q2.2-4.9 9.35-4.1 3.5.4 6.55 1.7"/><path fill="url(#i)" d="M83.4 453.7l.6-34.25q-11.1-28.1-9.3-47.05.55-5.9 2.35-10.2l1.65-3.1q11.1-8.85 14.65-23.35l.6-2.65q.55-3.2.7-6.45V323l3.95 12.05q5 13.15 10.2 18.7l1.25 5.45q1.35 6.95 1.75 14.5 1.2 24.25-7.7 45.7l-.1 9.9q.15 11.85 1.25 22.1l.45 3.75q-5.85-10.75-14.6-7.25-2.8 1.15-5.5 3.6l-2.2 2.2"/><path fill="url(#j)" d="M124.7 319.55l.3-.05q1.1 3.5 2.45 6.55 1.65 3.9 3.7 7.05 3.05 4.85 6.85 8 4.25 3.55 7.55 4 10.4 7.7 14.55 30.7 2.05 11.5 2.05 21.45l15.6 36.05-.05.05q-7.95-5.35-13.2.85-2.75 3.2-3.8 7.6-1.05-6.75-5.65-16.8l-4.95-9.9-8.85-14.95q-15.4-9.45-19.9-26.55-1.4-5.35-1.55-10.8l.15-4.4q5.05-6.8 5.4-23.5l.05-1.8-.2-7.05-.1-1.95-.4-4.55"/><path fill="url(#k)" d="M108.05 307.4q-6.55-4.5-12.7-6.9 4.95-2.2 11.4-2.85l1.3 9.75"/><path fill="url(#l)" d="M160.7 441.8q1.05-4.4 3.8-7.6 5.25-6.2 13.2-.85l.2.15 7.95 12.1 14.2 16.1q2.45 2.25 3.5 10.65 1 8.35-.2 13.5-2.55 3.5-12.15 1.95h-7.75q-6.3-1.6-9.65-11.85-3.25-9.9-4.15-16.75l-.1-.5-1.75-2.65q-1.8-1.45-4.6-8l-2.5-6.25"/><path fill="url(#m)" d="M177.7 433.35l.05-.05.15.2-.2-.15"/><path fill="url(#n)" d="M83.4 453.7l2.2-2.2q2.7-2.45 5.5-3.6 8.75-3.5 14.6 7.25l4.3 37.6q-.75 5.95-9.9 10.95-4.6 2.5-9.05 3.8-7.05-4.1-11.6-8.95l-3.15-4.05q-.35-7.05 3.35-24.6l3.75-16.2"/><path fill="url(#o)" d="M113.75 63.75q1.15-.9 2.25-.25l.95.85v3.7l-1.65 3.7.55 1.1q.55 1.6.55 3.9t-1.1 2.3l-1.15-.5q.2-8.25-.55-14l.15-.8"/><path fill="url(#p)" d="M113.75 63.75l-.15.8q.75 5.75.55 14l-.05.5-.1 3.2q-.7 3.55-4 9l-3.2 4.7-3.95 5.65-2.05 1.05q-4.35-.05-12.65-4.45l-7.4-4.45q-4.35-2.05-6.2-7.8l-.95-5.1q-.45.55-2.1.85-1.95.35-2.85-2.35l-.5-2.8q-.3 0-.85-.9-1.05-1.85-2.1-6.5-1.05-4.6 2.4-4.4l.5.05q-4.25-18.7 9.05-27.25 6.65-4.25 14.1-4.95 14.65-.9 19.85 8.65 1.7 3.15 2.35 7.5L114 54q.4 3 0 7.3v1l-.1-.15-.05.6v.05l-.1.95m-42.45 2.1q-1.7-.85-3.2-1.05 1.5.2 3.2 1.05m2.25 14.2l.15.55-.15-.55m.15.55l-.1.25.1-.2v-.05"/><path fill="#744123" d="M105.8 60.45l.5-.35.05.05.1.2.25-.3.25-.25v.25l.3-.05.2-.1q2.45-.05 3.85.7 1.75.85 1.8 2.8l-.1.9q-.1-1.75-1.55-2.35l-2.75-.35-1.65.05q-1 .15-1.7.55l.05-.6.15-.65.25-.5M91.45 58.3q.1-.15.3-.15l1.2.45.2-.35.35.35.45.35.1-.5q.65.3 1.2 1.25l.6 1.7-2.15-1q-1.35-.6-2.3-.65l-2.9-.25-1.75-.2-3.85.15h-.55l-.4.2h-.25v-.1l1.75-1.25q.85-.4 2.1-.45H88.2l1.55.4 1.25.25q.4 0 .45-.2"/><path fill="#2D1403" d="M106.9 65.65l.55-.4.1.1.05.05.25-.1.2-.15.2.15.15.1.4-.25h.05l.15.25.2.05.45-.25.7-.6-.1.5v.2l.4-.15.35-.2-.2.45-.4.4h.35l.6-.2.35-.25-.15.35-.25.45-.15.1h-.05l-.2.05h.2l.25-.05.3-.1-.3.3-.35.15v.05l.2.05.25.05.65-.2.45-.2h.05l-.55.7-.3.15-.4.1h-.1l.05.05h.05l.25-.05.15-.05-.1.15-.2.1v.05l.35-.05h.05l-.8.2h-.7v-.15q-.3-.75-1.15-1.3l-.45-.25-1.3-.35h-.55m-.6 4.25l-.35-.15.55.05h1.75q2.5-.15 2.35-1.55l.75.05-.15.25h-.35l.15.25.15.2h-.3l.05.1.1.25v.2h-.3l-.25-.05-.05.4-.1.1.1.15.1.25-.45-.1h-.45v.5l-.4-.3-.35-.2-.05.25.05.15v.2l-.05-.05-.3-.25-.3-.2q-.1 0-.15.1l-.05.2-.4-.25-.05.05-.05.2h-.05l-.2-.35-.3-.35-.2.3-.45-.4m-22.95-5.05v-.05l.55.35.05-.4h.35q.2-.05.05-.3.5 0 .7-.3l.2-.5.25.25.6-.4.35.35.3-.2.35-.35.35.25.3-.15.35-.25.3.25.15-.05.25-.15.15.5.15-.15.25-.1v.2l.1.1.15-.05.1-.1.15.25.4.15.15.35.3.3.15.3q-.35-.3-.85-.45l-.25-.1q-.8-.4-1.6-.45h-.3q-1.3.05-2.6.85-.95.65-1.9 1.65h-.05l.05-1.6m-.35 2.5l.1-.15v-.15h-.05l.1-.05 1 .55 1.35.55 1.45.25 1.5-.05 1.65-.05-.85.3-.55.2-.5.15-.2-.1-.25.1-.15.1-.3-.15-.35.3-.4-.35-.2.15-.15.2L86 69l-.2-.2-.25.25-.3-.3-.2.1-.15-.15-.15-.3-.15.15-.15.05-.15-.15-.1-.2-.05.05h-.2l-.1-.4h-.1l-.2.05v-.45h-.3l-.25.05v-.2"/><path fill="#020100" d="M108.65 66.55q.35.3.35.75l-.3.9-.8.3-.8-.3-.4-.85q0-.45.35-.8.3-.35.75-.35.5 0 .85.35M88.5 64.5q.5 0 .9.35.35.3.35.8l-.3.95q-.35.35-.85.35t-.85-.35q-.45-.4-.45-.9t.4-.85q.3-.35.8-.35"/><path fill="#fff" d="M108.6 69.15h-.05l-.2.05-.3-.05-.1-.3.1-.25.3-.1.2.1.1.25-.05.3M89.4 67.3l-.1.3-.25.1-.3-.1-.1-.3.1-.25.3-.1.25.1.1.25"/><path fill="#8B4018" d="M99.4 77.85q-.45-.75 1.6-1.3l.45.05.8.15q1 .5-.45 1.65l-1.6.1-.8-.65m6.1-.7q.4 1.05-.5 1.35l-.65.1h-.3l.15-.25 1.3-1.2"/><path fill="url(#q)" d="M94.05 87.9l4.8-3.35.75-.4q1.3-.4 1.95.35l.4.1.6-.2.7-.25q.7-.15 1.15.55l.65 1.2q.65 1.2.55 1.6l-.35.5-.2.1-1.15-.9-.8-.2-1.35-.1h-.9l-4.25.15-1.8.6-.75.25"/><path fill="url(#r)" d="M94.05 87.9l.75-.25 1.8-.6 4.25-.15h.9l1.35.1.8.2 1.15.9.05.1.2.1.2.1.05.05q.4 1.55-1.8 1.65l-1.6-.05-.75-.1q-2.25-.05-5-1l-1.75-.75-.6-.3"/><path fill="url(#s)" d="M89.6 67.75l-1.2.15-.55.05-.85-.55q-.6-.6-.6-1.45t.6-1.5l.85-.5h.3q.8.05 1.6.45l.25.1q.6.6.6 1.45t-.65 1.45l-.35.35m-1.1-3.25q-.5 0-.8.35-.4.35-.4.85t.45.9q.35.35.85.35t.85-.35l.3-.95q0-.5-.35-.8-.4-.35-.9-.35m.9 2.8l-.1-.25-.25-.1-.3.1-.1.25.1.3.3.1.25-.1.1-.3"/><path fill="url(#t)" d="M87.85 67.95l-2.15-.25h-.1l-1.65-.7-.6-.55q.95-1 1.9-1.65 1.3-.8 2.6-.85l-.85.5q-.6.65-.6 1.5t.6 1.45l.85.55"/><path fill="url(#u)" d="M90.85 64.95l.05.05.25.2 1.2 1.35-.2.3-2.55.9.35-.35q.65-.6.65-1.45T90 64.5q.5.15.85.45"/><path fill="url(#v)" d="M108.35 69.2l-.85.1-.15-.05-.85-.5q-.55-.55-.55-1.3t.55-1.3q.4-.4.95-.5l1.3.35.45.25q.45.5.45 1.2 0 .75-.55 1.3l-.5.4.05-.3-.1-.25-.2-.1-.3.1-.1.25.1.3.3.05m.3-2.65q-.35-.35-.85-.35-.45 0-.75.35-.35.35-.35.8l.4.85.8.3.8-.3.3-.9q0-.45-.35-.75"/><path fill="url(#w)" d="M103.85 67q1.1-.9 2.05-1.2l.1-.05.55-.1h.9q-.55.1-.95.5-.55.55-.55 1.3t.55 1.3l.85.5v.05l-1.55-.2-1.35-.65-.6-1.45"/><path fill="url(#x)" d="M110.35 67.7q0 .65-.9 1.15l-.85.3.5-.4q.55-.55.55-1.3 0-.7-.45-1.2.85.55 1.15 1.3v.15"/><path fill="url(#y)" d="M48.3 93.85q-4.25 1.5-8.3-.3l-3.25-2.1q2.9.65 6.45-1.4l3-2.2q-3.35.15-7.4-2.95l-3.35-3.15 6.95.2 4.3-1.5q7.5-3.2 11.55-18 1.2-4.45 1.95-9.55l.05-.3q2.35-15.25 16.5-20.85Q85.7 28.2 95 29.05q2.9.5 4.8 2.55l.35.4q1.95 2.45 2.45 6.55l.05 3.6-.35.8q-1.2 2.35-4.4 5.2-7.5 6.6-21.05 9.6l-7.2 1.65q-7.45 2.05-7.9 3.15L61 65.6l-1.8 8.8q-2.95 13.25-10.9 19.45"/><path fill="url(#z)" d="M48.3 93.85q7.95-6.2 10.9-19.45l1.8-8.8.75-3.05q.45-1.1 7.9-3.15l7.2-1.65-1.2 3.1q-1.4 3.95-2.4 8.35-1.5 6.25-1.9 12.25-.6 7.35.4 14.25l-.2 3.35q-.5 4-1.95 7.5-4.45 10.65-15.95 12.6 3.1-1.6 3.15-3.75l-.05-.55q-2.8 1.8-6.35 2l-5.3.45q3.65-3.05 3.75-5.1l-.3-1.35q-4.3 2.75-8.55 2.35l-3.65-.9q2.8-.8 4.7-4.3l1.35-3.35q-3.2 2.2-11.15 1.15l-7.35-1.5q5.95 0 14.9-4.6 4.5-2.35 7.75-4.65l1.75-1.2"/><path fill="url(#A)" d="M71.35 81.45q1.1.3 2.3-.75.5 3.9 1.45 6.35.9 2.45 1.6 3.2.55 2.5-.55 10.15t-2.75 11.65l-14.85 6.85-.5-.4-2.1.8-2.3-.15q11.5-1.95 15.95-12.6 1.45-3.5 1.95-7.5l.2-3.35q-1-6.9-.4-14.25"/><path fill="url(#B)" d="M102.3 42.95l.35-.8-.05-3.6q-.5-4.1-2.45-6.55l-.35-.4h2.6q3.15.2 5.85 1.3 8.55 3.5 9.15 14.65l2.15 18.6q2.7 19.85 5.25 26.05l.75 7.05q.15 7.75-4.75 11.45l-5.3 1.75q-4.95-1.2-10.45-3.75-1.4-3.95-1.45-7.8l6.4-9.7q3.75-5.9 4.05-10.45.25-4.55.05-17.65-.25-13.15-1.65-16.05-1.5-2.95-2.35-3.45l-7.8-.65"/><path fill="none" stroke="#666" stroke-width=".05" stroke-linecap="round" stroke-linejoin="round" d="M58.25 132.2L55 137.6q-3.65 6.65-5.3 12.85l-.55 2.2q-1.5 6.75-.35 12.1l.3-1.25m9.3-44.95l1.1 7.8q1.8 7.45 5.4 14.4 3.35 6.5 7.85 11.9 10.9 13.1 28.6 19.7 5.9-.95 10.75-8.85 2.8-4.55 4.3-10.85 3.65-15.4-.7-41.1l2.1-.3q1.1-.6 7.15-.65 6-.1 12.1 4.15l1.65.5q1.4.35 4 4.5 1.05 1.65 1.55 5.6-5.2.55-7.95 8.05-1.4 3.75-1.8 7.4l.1.15 3.55 3.95 1.45 3.1q.95 2.35 1.5 4.65l.6 2.95q1.85 11.9-6.6 17.95-4.4 2.6-9.95 3.85l-.25.05-2.45 9.05q-1.25 5.65-1.65 10.2-.4 3.85-.1 6.95l2.35 5.6q2.45 6.3 2.75 9.8l-.25 1.15q-.75 1.9-3.4 6.5-4.7 8.05-6.95 15.15-8.15 25.2 5.05 55.95l-8.85-.45-4.65.3q-6.45.65-11.4 2.85l-1.2.55.2-.95q3-16.35.7-34.2-4.8-36.7-33.05-44.55l-1.9-1q.05-2.6.65-5.6 1.15-5.95 3.85-7.9-3.1-4-6.45-10.15l-.85-1.6-1.65-3.3q-2.7-5.7-4.4-11.3-2.25-7.05-2.9-14l.25-.85-.2-.8q-1.7-7-5.25-12.2-3.4-4.9-8.45-8.15-3.4-2.15-7.15-3.35l-3.05-.7q-.55-13.85 15.35-18.95 7.95-2.5 16-2.3l2.45-.9m-9.5 46.45l.2.75.2.75q2.25 7.8 10.6 12.35l4.15 2.15q-.25.25 8.2 1.9 8.4 1.65 18.55-6.35m-42.1-10.65l.2-.9m85.7-23.95q-3.8-5.05-6.75-12.1l-2.2-6.15m-.65 54.9q-9.35 2.05-14.8-2.6M125 319.5l-.3-.9m53.2 114.9l-.15-.2"/><path fill="none" stroke="#A76154" stroke-width=".05" stroke-linecap="round" stroke-linejoin="round" d="M177.75 433.3l-15.6-36.05q0-9.95-2.05-21.45-4.15-23-14.55-30.7-3.3-.45-7.55-4-3.8-3.15-6.85-8-2.05-3.15-3.7-7.05-1.35-3.05-2.45-6.55M5.9 267.15q.7-15.5 2.6-32.35 3.75-33.7 9.6-40.35l2.35-.65 6.25-.4q10.3.6 18.9 8.95m.4.75q-21.25 56.25-24 61.7l-.2-.05m-.2.5q-.95 3.65 1.9 6.15 1.4 1.25 3 1.75-4.6-1.2-6.45 2.45-.9 1.85-.9 3.9-5.2-1.25-9.25 5.4-2 3.35-3 6.9-5.55-1.55-3.8-13.25.5-3.65 1.7-7.9l1.1-3.5q2.2-4.9 9.35-4.1 3.5.4 6.55 1.7m149.05-16.1l-13.35-68.3q-4.2-1-9.4.1-10.3 2.15-14.95 12.45m0 .4l9.9 24.2 13.7 33.85m.4-.15l4.7-2.65q5.8-2.35 9 .1l4.65 6.85q4.65 7.7 4.8 12.1l-7.4-.3q-7.8.2-9.7 2.85l-2.25-5.3.25 4q-1.15-1.5-2.6-2.25-2.9-1.45-4.45 2.5-1.3-2.3-2-5-1.3-5.4 2-7.3.75.05 1.5-.65 1.4-1.3 1.5-4.65v-.3M105.7 455.15l-.45-3.75q-1.1-10.25-1.25-22.1l.1-9.9q8.9-21.45 7.7-45.7-.4-7.55-1.75-14.5l-1.25-5.45q-5.2-5.55-10.2-18.7L94.65 323v3.65q-.15 3.25-.7 6.45l-.6 2.65q-3.55 14.5-14.65 23.35l-1.65 3.1q-1.8 4.3-2.35 10.2-1.8 18.95 9.3 47.05l-.6 34.25 2.2-2.2q2.7-2.45 5.5-3.6 8.75-3.5 14.6 7.25l4.3 37.6q-.75 5.95-9.9 10.95-4.6 2.5-9.05 3.8-7.05-4.1-11.6-8.95l-3.15-4.05q-.35-7.05 3.35-24.6l3.75-16.2m41.3-134.15l.4 4.55.1 1.95.2 7.05-.05 1.8q-.35 16.7-5.4 23.5l-.15 4.4q.15 5.45 1.55 10.8 4.5 17.1 19.9 26.55l8.85 14.95 4.95 9.9q4.6 10.05 5.65 16.8 1.05-4.4 3.8-7.6 5.25-6.2 13.2-.85m.2.15l-.2-.15m-17 8.45l2.5 6.25q2.8 6.55 4.6 8l1.75 2.65.1.5q.9 6.85 4.15 16.75 3.35 10.25 9.65 11.85h7.75q9.6 1.55 12.15-1.95 1.2-5.15.2-13.5-1.05-8.4-3.5-10.65l-14.2-16.1-7.95-12.1"/><path fill="none" stroke="#271514" stroke-width=".05" stroke-linecap="round" stroke-linejoin="round" d="M125.55 220.2q15.15 11.2 18.45 49.15 1.65 19.05.25 35.85-7.05-11.75-22.3-5.95-4.8 1.8-9.85 5.15l-4.05 3q-6.55-4.5-12.7-6.9m-1-.4q-13.55-4.95-24.85.65-8.45 4.15-12.55 11.3L50.6 296.4q-14.4-34.25-4.4-58.45 3.2-7.8 8.5-13.4l.95-.95q3.2-3.25 4.45-3.25m97.05 30.85l-.4.2v-.05"/><path fill="none" stroke="#150C0B" stroke-width=".05" stroke-linecap="round" stroke-linejoin="round" d="M106.75 297.65l1.3 9.75"/><path fill="none" stroke="#8E5027" stroke-width=".05" stroke-linecap="round" stroke-linejoin="round" d="M113.75 63.75l.1-.95v-.05l.05-.6.1.15v-1q.4-4.3 0-7.3l-.55-5.25q-.65-4.35-2.35-7.5-5.2-9.55-19.85-8.65-7.45.7-14.1 4.95-13.3 8.55-9.05 27.25 1.5.2 3.2 1.05m42.85 12.7l1.15.5q1.1 0 1.1-2.3t-.55-3.9l-.55-1.1 1.65-3.7v-3.7l-.95-.85q-1.1-.65-2.25.25l-.15.8q.75 5.75.55 14l-.05.5-.1 3.2q-.7 3.55-4 9l-3.2 4.7-3.95 5.65-2.05 1.05q-4.35-.05-12.65-4.45l-7.4-4.45q-4.35-2.05-6.2-7.8l-.95-5.1q-.45.55-2.1.85-1.95.35-2.85-2.35l-.5-2.8q-.3 0-.85-.9-1.05-1.85-2.1-6.5-1.05-4.6 2.4-4.4l.5.05m5.6 15.8l-.15-.55m.15.55v.05l-.1.2.1-.25M109.65 65.2l-1-.4-1.25-.1-1 .1q-.65 0-.95.25l-1 .55q-.2.15-.45.4l-.45.45.2.3.1.25m.6 1.45l1.85 4.4q.35.8.35 2.1l-.25 1q.5 2-.65 3.2l-.9.6m-1.3-13.3q-.65-.95-.35-1.45.2-.3.55-.4m-20.4.25q-.4-.1.15-.55l1.5-1 1.5-.25 1.65-.05 1.65.1q.65.1 2 .8l1.95 1q.8.6.85 1.6m2.45 8.1l-.5.85q-.6 1.1-.6 1.9-.1 2.6 5 2m-6.9 8.55l4.8-3.35.75-.4q1.3-.4 1.95.35l.4.1.6-.2.7-.25q.7-.15 1.15.55l.65 1.2q.65 1.2.55 1.6l-.35.5-.2.1.05.1.2.1.2.1.05.05q.4 1.55-1.8 1.65l-1.6-.05-.75-.1q-2.25-.05-5-1l-1.75-.75-.6-.3.75-.25 1.8-.6 4.25-.15h.9l1.35.1.8.2 1.15.9m1.35-12.15l-.85 1.2h-.05l-1.3 1.2-.15.25-.4.85"/><path fill="none" stroke="#D69703" stroke-width=".05" stroke-linecap="round" stroke-linejoin="round" d="M99.8 31.6q-1.9-2.05-4.8-2.55-9.3-.85-18.25 2.7-14.15 5.6-16.5 20.85l-.05.3q-.75 5.1-1.95 9.55-4.05 14.8-11.55 18l-4.3 1.5-6.95-.2 3.35 3.15q4.05 3.1 7.4 2.95l-3 2.2q-3.55 2.05-6.45 1.4l3.25 2.1q4.05 1.8 8.3.3 7.95-6.2 10.9-19.45l1.8-8.8.75-3.05q.45-1.1 7.9-3.15l7.2-1.65q13.55-3 21.05-9.6 3.2-2.85 4.4-5.2l.35-.8-.05-3.6q-.5-4.1-2.45-6.55l-.35-.4h2.6q3.15.2 5.85 1.3 8.55 3.5 9.15 14.65l2.15 18.6q2.7 19.85 5.25 26.05l.75 7.05q.15 7.75-4.75 11.45l-5.3 1.75q-4.95-1.2-10.45-3.75-1.4-3.95-1.45-7.8l6.4-9.7q3.75-5.9 4.05-10.45.25-4.55.05-17.65-.25-13.15-1.65-16.05-1.5-2.95-2.35-3.45l-7.8-.65m-25.45 14.8l-1.2 3.1q-1.4 3.95-2.4 8.35-1.5 6.25-1.9 12.25 1.1.3 2.3-.75.5 3.9 1.45 6.35.9 2.45 1.6 3.2.55 2.5-.55 10.15t-2.75 11.65l-14.85 6.85-.5-.4-2.1.8-2.3-.15-.85.15m-4.5-25.45l-1.75 1.2q-3.25 2.3-7.75 4.65-8.95 4.6-14.9 4.6l7.35 1.5q7.95 1.05 11.15-1.15L41.05 108q-1.9 3.5-4.7 4.3l3.65.9q4.25.4 8.55-2.35l.3 1.35q-.1 2.05-3.75 5.1l5.3-.45q3.55-.2 6.35-2l.05.55q-.05 2.15-3.15 3.75m17.7-37.7q-.6 7.35.4 14.25l-.2 3.35q-.5 4-1.95 7.5-4.45 10.65-15.95 12.6"/></svg>