<svg xmlns="http://www.w3.org/2000/svg" viewBox="-6.0 19.6 205.6 484.4" width="205.6" height="484.4" preserveAspectRatio="xMinYMin"><defs><linearGradient gradientUnits="userSpaceOnUse" x1="-819.2" x2="819.2" gradientTransform="matrix(-.01 -.055 .073 -.013 81.9 69.85)" id="a"><stop offset=".141" stop-color="#c00"/><stop offset=".753" stop-color="#f30"/></linearGradient><linearGradient gradientUnits="userSpaceOnUse" x1="-819.2" x2="819.2" spreadMethod="unknown" gradientTransform="matrix(.029 0 0 .012 90.2 44.95)" id="b"><stop offset="0" stop-color="#633"/><stop offset=".525" stop-color="#963"/><stop offset="1" stop-color="#6B3833"/></linearGradient><linearGradient gradientUnits="userSpaceOnUse" x1="-819.2" x2="819.2" spreadMethod="unknown" gradientTransform="matrix(.029 0 0 .014 90.25 49.4)" id="c"><stop offset="0" stop-color="#633"/><stop offset=".525" stop-color="#963"/><stop offset="1" stop-color="#6B3833"/></linearGradient><linearGradient gradientUnits="userSpaceOnUse" x1="-819.2" x2="819.2" gradientTransform="matrix(.03 0 0 .043 89.55 67.55)" id="d"><stop offset="0" stop-color="#D98651"/><stop offset=".533" stop-color="#DFA168"/><stop offset="1" stop-color="#D98651"/></linearGradient><linearGradient gradientUnits="userSpaceOnUse" x1="-819.2" x2="819.2" gradientTransform="matrix(-.001 -.033 .002 0 114.95 49.35)" id="e"><stop offset="0" stop-color="#D98651"/><stop offset=".533" stop-color="#DFA168"/><stop offset="1" stop-color="#D98651"/></linearGradient><radialGradient gradientUnits="userSpaceOnUse" r="819.2" cx="0" cy="0" spreadMethod="pad" gradientTransform="matrix(.006 0 0 .007 114.55 81.45)" id="f"><stop offset=".659" stop-color="#f93"/><stop offset=".847" stop-color="#ff0"/><stop offset=".878" stop-color="#f93"/></radialGradient><linearGradient gradientUnits="userSpaceOnUse" x1="-819.2" x2="819.2" gradientTransform="matrix(.073 0 0 .057 84.45 66.55)" id="g"><stop offset=".141" stop-color="#c00"/><stop offset=".753" stop-color="#f30"/></linearGradient><radialGradient gradientUnits="userSpaceOnUse" r="819.2" cx="0" cy="0" spreadMethod="pad" gradientTransform="matrix(.006 0 0 .007 69.85 83.55)" id="h"><stop offset=".659" stop-color="#f93"/><stop offset=".847" stop-color="#ff0"/><stop offset=".878" stop-color="#f93"/></radialGradient><linearGradient gradientUnits="userSpaceOnUse" x1="-819.2" x2="819.2" spreadMethod="unknown" gradientTransform="matrix(.058 0 0 .047 94.7 169.7)" id="i"><stop offset="0" stop-color="#633"/><stop offset=".525" stop-color="#963"/><stop offset="1" stop-color="#6B3833"/></linearGradient><linearGradient gradientUnits="userSpaceOnUse" x1="-819.2" x2="819.2" spreadMethod="unknown" gradientTransform="matrix(.012 .004 -.001 .005 154.85 222.8)" id="j"><stop offset="0" stop-color="#633"/><stop offset=".525" stop-color="#963"/><stop offset="1" stop-color="#6B3833"/></linearGradient><radialGradient gradientUnits="userSpaceOnUse" r="819.2" cx="0" cy="0" spreadMethod="pad" gradientTransform="matrix(.068 0 0 .068 79.6 240.7)" id="k"><stop offset="0" stop-color="#333"/><stop offset="1"/></radialGradient><linearGradient gradientUnits="userSpaceOnUse" x1="-819.2" x2="819.2" spreadMethod="unknown" gradientTransform="matrix(.062 0 0 .053 92.95 263.5)" id="l"><stop offset="0" stop-color="#633"/><stop offset=".525" stop-color="#963"/><stop offset="1" stop-color="#6B3833"/></linearGradient><linearGradient gradientUnits="userSpaceOnUse" x1="-819.2" x2="819.2" spreadMethod="unknown" gradientTransform="matrix(.005 .001 -.002 .015 161.65 238.1)" id="m"><stop offset="0" stop-color="#633"/><stop offset=".525" stop-color="#963"/><stop offset="1" stop-color="#6B3833"/></linearGradient><linearGradient gradientUnits="userSpaceOnUse" x1="-819.2" x2="819.2" spreadMethod="unknown" gradientTransform="matrix(.009 .004 -.002 .007 164.25 251.55)" id="n"><stop offset="0" stop-color="#633"/><stop offset=".525" stop-color="#963"/><stop offset="1" stop-color="#6B3833"/></linearGradient><linearGradient gradientUnits="userSpaceOnUse" x1="-819.2" x2="819.2" spreadMethod="unknown" gradientTransform="matrix(.008 .003 -.003 .01 167.85 259.3)" id="o"><stop offset="0" stop-color="#633"/><stop offset=".525" stop-color="#963"/><stop offset="1" stop-color="#6B3833"/></linearGradient><linearGradient gradientUnits="userSpaceOnUse" x1="-819.2" x2="819.2" spreadMethod="unknown" gradientTransform="matrix(.009 .003 -.006 .016 20 247.15)" id="p"><stop offset="0" stop-color="#633"/><stop offset=".525" stop-color="#963"/><stop offset="1" stop-color="#6B3833"/></linearGradient><linearGradient gradientUnits="userSpaceOnUse" x1="-819.2" x2="819.2" spreadMethod="unknown" gradientTransform="matrix(.01 .004 -.001 .004 17 263.5)" id="q"><stop offset="0" stop-color="#633"/><stop offset=".525" stop-color="#963"/><stop offset="1" stop-color="#6B3833"/></linearGradient><linearGradient gradientUnits="userSpaceOnUse" x1="-819.2" x2="819.2" spreadMethod="unknown" gradientTransform="matrix(.013 .004 -.002 .007 15.65 270.5)" id="r"><stop offset="0" stop-color="#633"/><stop offset=".525" stop-color="#963"/><stop offset="1" stop-color="#6B3833"/></linearGradient><linearGradient gradientUnits="userSpaceOnUse" x1="-819.2" x2="819.2" spreadMethod="unknown" gradientTransform="matrix(.014 .005 -.001 .002 14.65 278.5)" id="s"><stop offset="0" stop-color="#633"/><stop offset=".525" stop-color="#963"/><stop offset="1" stop-color="#6B3833"/></linearGradient><linearGradient gradientUnits="userSpaceOnUse" x1="-819.2" x2="819.2" spreadMethod="unknown" gradientTransform="matrix(.015 .005 -.002 .006 14.65 283.2)" id="t"><stop offset="0" stop-color="#633"/><stop offset=".525" stop-color="#963"/><stop offset="1" stop-color="#6B3833"/></linearGradient><linearGradient gradientUnits="userSpaceOnUse" x1="-819.2" x2="819.2" spreadMethod="unknown" gradientTransform="matrix(.013 .005 -.001 .004 12.7 281.2)" id="u"><stop offset="0" stop-color="#633"/><stop offset=".525" stop-color="#963"/><stop offset="1" stop-color="#6B3833"/></linearGradient><linearGradient gradientUnits="userSpaceOnUse" x1="-819.2" x2="819.2" spreadMethod="unknown" gradientTransform="matrix(.006 .002 -.005 .015 -.7 293.5)" id="v"><stop offset="0" stop-color="#633"/><stop offset=".525" stop-color="#963"/><stop offset="1" stop-color="#6B3833"/></linearGradient><linearGradient gradientUnits="userSpaceOnUse" x1="-819.2" x2="819.2" spreadMethod="unknown" gradientTransform="matrix(.021 -.002 .001 .01 93.3 381.55)" id="w"><stop offset="0" stop-color="#633"/><stop offset=".525" stop-color="#963"/><stop offset="1" stop-color="#6B3833"/></linearGradient><linearGradient gradientUnits="userSpaceOnUse" x1="-819.2" x2="819.2" spreadMethod="unknown" gradientTransform="matrix(.002 0 0 .004 75.8 379.95)" id="x"><stop offset="0" stop-color="#633"/><stop offset=".525" stop-color="#963"/><stop offset="1" stop-color="#6B3833"/></linearGradient><linearGradient gradientUnits="userSpaceOnUse" x1="-819.2" x2="819.2" spreadMethod="unknown" gradientTransform="matrix(.009 -.001 .001 .008 70 388)" id="y"><stop offset="0" stop-color="#633"/><stop offset=".525" stop-color="#963"/><stop offset="1" stop-color="#6B3833"/></linearGradient><linearGradient gradientUnits="userSpaceOnUse" x1="-819.2" x2="819.2" spreadMethod="unknown" gradientTransform="matrix(.015 0 0 .022 97.85 406.8)" id="z"><stop offset="0" stop-color="#633"/><stop offset=".525" stop-color="#963"/><stop offset="1" stop-color="#6B3833"/></linearGradient><linearGradient gradientUnits="userSpaceOnUse" x1="-819.2" x2="819.2" spreadMethod="unknown" gradientTransform="matrix(.002 0 0 .003 152.15 357.2)" id="A"><stop offset="0" stop-color="#633"/><stop offset=".525" stop-color="#963"/><stop offset="1" stop-color="#6B3833"/></linearGradient><linearGradient gradientUnits="userSpaceOnUse" x1="-819.2" x2="819.2" spreadMethod="unknown" gradientTransform="matrix(.008 .003 -.004 .011 157.05 367.2)" id="B"><stop offset="0" stop-color="#633"/><stop offset=".525" stop-color="#963"/><stop offset="1" stop-color="#6B3833"/></linearGradient><linearGradient gradientUnits="userSpaceOnUse" x1="-819.2" x2="819.2" spreadMethod="unknown" gradientTransform="matrix(.015 .007 -.005 .018 137.45 363.3)" id="C"><stop offset="0" stop-color="#633"/><stop offset=".525" stop-color="#963"/><stop offset="1" stop-color="#6B3833"/></linearGradient><linearGradient gradientUnits="userSpaceOnUse" x1="-819.2" x2="819.2" spreadMethod="unknown" gradientTransform="matrix(.012 0 0 .021 145.65 381.65)" id="D"><stop offset="0" stop-color="#633"/><stop offset=".525" stop-color="#963"/><stop offset="1" stop-color="#6B3833"/></linearGradient><linearGradient gradientUnits="userSpaceOnUse" x1="-819.2" x2="819.2" spreadMethod="unknown" gradientTransform="matrix(.013 -.004 .002 .005 139.95 382.6)" id="E"><stop offset="0" stop-color="#633"/><stop offset=".525" stop-color="#963"/><stop offset="1" stop-color="#6B3833"/></linearGradient><linearGradient gradientUnits="userSpaceOnUse" x1="-819.2" x2="819.2" spreadMethod="unknown" gradientTransform="matrix(.007 .002 -.001 .006 155.5 388.4)" id="F"><stop offset="0" stop-color="#633"/><stop offset=".525" stop-color="#963"/><stop offset="1" stop-color="#6B3833"/></linearGradient><linearGradient gradientUnits="userSpaceOnUse" x1="-819.2" x2="819.2" spreadMethod="unknown" gradientTransform="matrix(.009 .004 -.004 .011 179.4 269)" id="G"><stop offset="0" stop-color="#633"/><stop offset=".525" stop-color="#963"/><stop offset="1" stop-color="#6B3833"/></linearGradient><linearGradient gradientUnits="userSpaceOnUse" x1="-819.2" x2="819.2" spreadMethod="unknown" gradientTransform="matrix(.007 .003 -.002 .007 169.65 262.7)" id="H"><stop offset="0" stop-color="#633"/><stop offset=".525" stop-color="#963"/><stop offset="1" stop-color="#6B3833"/></linearGradient><linearGradient gradientUnits="userSpaceOnUse" x1="-819.2" x2="819.2" spreadMethod="unknown" gradientTransform="matrix(-.008 .007 .002 .004 164.9 425.7)" id="I"><stop offset="0" stop-color="#633"/><stop offset=".525" stop-color="#963"/><stop offset="1" stop-color="#6B3833"/></linearGradient><linearGradient gradientUnits="userSpaceOnUse" x1="-819.2" x2="819.2" spreadMethod="unknown" gradientTransform="matrix(.007 .002 -.005 .013 177.4 454.45)" id="J"><stop offset="0" stop-color="#633"/><stop offset=".525" stop-color="#963"/><stop offset="1" stop-color="#6B3833"/></linearGradient><linearGradient gradientUnits="userSpaceOnUse" x1="-819.2" x2="819.2" spreadMethod="unknown" gradientTransform="matrix(.021 0 0 .026 182 468.75)" id="K"><stop offset="0" stop-color="#633"/><stop offset=".525" stop-color="#963"/><stop offset="1" stop-color="#6B3833"/></linearGradient><linearGradient gradientUnits="userSpaceOnUse" x1="-819.2" x2="819.2" spreadMethod="unknown" gradientTransform="matrix(.005 0 0 .008 99.8 415.6)" id="L"><stop offset="0" stop-color="#633"/><stop offset=".525" stop-color="#963"/><stop offset="1" stop-color="#6B3833"/></linearGradient><linearGradient gradientUnits="userSpaceOnUse" x1="-819.2" x2="819.2" spreadMethod="unknown" gradientTransform="matrix(.01 0 0 .007 88.1 405)" id="M"><stop offset="0" stop-color="#633"/><stop offset=".525" stop-color="#963"/><stop offset="1" stop-color="#6B3833"/></linearGradient><linearGradient gradientUnits="userSpaceOnUse" x1="-819.2" x2="819.2" spreadMethod="unknown" gradientTransform="matrix(.01 -.001 .001 .011 94.35 443.95)" id="N"><stop offset="0" stop-color="#633"/><stop offset=".525" stop-color="#963"/><stop offset="1" stop-color="#6B3833"/></linearGradient><linearGradient gradientUnits="userSpaceOnUse" x1="-819.2" x2="819.2" spreadMethod="unknown" gradientTransform="matrix(.013 -.002 .001 .008 92.85 464.8)" id="O"><stop offset="0" stop-color="#633"/><stop offset=".525" stop-color="#963"/><stop offset="1" stop-color="#6B3833"/></linearGradient><linearGradient gradientUnits="userSpaceOnUse" x1="-819.2" x2="819.2" spreadMethod="unknown" gradientTransform="matrix(.017 0 0 .007 92.1 498.55)" id="P"><stop offset="0" stop-color="#633"/><stop offset=".525" stop-color="#963"/><stop offset="1" stop-color="#6B3833"/></linearGradient><linearGradient gradientUnits="userSpaceOnUse" x1="-819.2" x2="819.2" gradientTransform="matrix(0 .002 -.008 -.001 98.15 88.85)" id="Q"><stop offset="0" stop-color="#E36C60"/><stop offset="1" stop-color="#613416"/></linearGradient><linearGradient gradientUnits="userSpaceOnUse" x1="-819.2" x2="819.2" gradientTransform="matrix(-.001 .003 -.007 -.001 97.95 90.8)" id="R"><stop offset="0" stop-color="#E36C60"/><stop offset="1" stop-color="#613416"/></linearGradient><linearGradient gradientUnits="userSpaceOnUse" x1="-819.2" x2="819.2" gradientTransform="matrix(-.002 0 0 -.003 84.3 68.3)" id="S"><stop offset="0" stop-color="#fff"/><stop offset="1" stop-color="#999"/></linearGradient><linearGradient gradientUnits="userSpaceOnUse" x1="-819.2" x2="819.2" gradientTransform="matrix(.001 0 0 .002 92.35 68.35)" id="T"><stop offset="0" stop-color="#fff"/><stop offset="1" stop-color="#999"/></linearGradient><linearGradient gradientUnits="userSpaceOnUse" x1="-819.2" x2="819.2" gradientTransform="matrix(-.002 0 0 -.002 104.35 68.1)" id="U"><stop offset="0" stop-color="#fff"/><stop offset="1" stop-color="#999"/></linearGradient><linearGradient gradientUnits="userSpaceOnUse" x1="-819.2" x2="819.2" gradientTransform="matrix(.001 0 0 .002 111.5 68.7)" id="V"><stop offset="0" stop-color="#fff"/><stop offset="1" stop-color="#999"/></linearGradient><radialGradient gradientUnits="userSpaceOnUse" r="819.2" cx="0" cy="0" spreadMethod="pad" gradientTransform="matrix(.003 0 0 .003 88.55 67.95)" id="W"><stop offset="0" stop-color="#0ff"/><stop offset=".737" stop-color="#02C1C0"/><stop offset="1"/></radialGradient><radialGradient gradientUnits="userSpaceOnUse" r="819.2" cx="0" cy="0" spreadMethod="pad" gradientTransform="matrix(.003 0 0 .003 108.15 68.25)" id="X"><stop offset="0" stop-color="#0ff"/><stop offset=".737" stop-color="#02C1C0"/><stop offset="1"/></radialGradient></defs><path fill="url(#a)" d="M83.6 26.4l5.8-3.05q7.25-3.15 13.75-3.65 20.65-1.65 25.45 24l3.4 5.25q3.75 5.45 5.7 6.3 2.2 1-2.95.55-5.15-.45-8.05-1.65l-1-.6q-1.45-1.05 3.8 3.45 5.05 4.8 6.2 7.7l-.75.2q-1.7-.9-4.7-1.05l4.85 5.05q5.65 5.2 9.55 6.25l-2.6 1.75q-3.3 1.5-6.85.4l-1.35-.5q-2.2-.95-1.8.45.25.85 2.4 4.5 5.5 9.3 5.65 14.25-1.55 1.35-3.7 1.95-4.35 1.2-7.35-2.7l-.15 1.15q-.05 1.45.35 2.85 1.4 4.5 7.25 7.05-5.35 1.7-11.1 2.4-11.6 1.45-13.85-3.35-5 3.6-6.7 3.35l-1-7.9 5.05-7.3 4.05-7.2 1.6.35q1.8 0 3.1-1.55 1.25-1.5 1.25-3.65v-.35l-.35-1.75q-.3-.85-.9-1.55-.8-.9-1.7-1.25l-.15.45-.35-4.7.05-.15.4-1.75.45-1.9.15-3.3-2.3 9.95-.05.05-.05-4.35-.1-7.3v-1.3l-.15-10.4.45.75-.55-8.15-.15-.2-.85-2.85q-2-2.5-4.55-4-8.6-5-23.6 1.7-6.05 2.7-12.35 7.1l-5.1 3.85q-.55 2.15-.05 4.6l-.6 1.8q-.5 2.2.05 4.15l.75-.65 2.65-2.3 2 5.15 1.15 9.55q-.75-3.25-2.7-6.1-.6-.9-1.3-1.25l-1-.3h-.8l-.1.05-1.55.55h-.05q-1.75.45-.1 5.1l.45 1.2q1.2 2.95 2.75 5.75.15 3.8 2.55 4.1h.95l.2.35q.4.75.4 1.75 0 1.45-.85 2.45-.9 1.05-2.1 1.05-1.2 0-2.05-1.05-.9-1-.9-2.45 0-1.45.9-2.45.55-.65 1.3-.85l.2-.05-.35-.7-.4-.85-.15.05q-.9.35-1.65 1.2-1.25 1.5-1.25 3.65t1.25 3.65q1.3 1.55 3.1 1.55t3.1-1.55q.9-1.1 1.15-2.55.65 2.35 2.15 5.85l-2.75 17.15-1-1.2-1.85-1q-1.85.25-3.75 2.75-.95 1.25-1.5 2.45l.25 2.15q-.1 1.7-1.75-.65t-1.7-5.9l.25-3.05q-3.5 7.7-19.3 4.05-4.9-1.15-10.5-3.3l-4.6-1.9q5.85-.95 8.55-3.35l1.55-2.25q-2.8 1.4-8.6-.85l-5.25-2.5q.45-2.8 6.1-5.05 2.8-1.15 5.5-1.7 5.4-1.4 6.95-3.05l.5-1.4q-4.9-3.95-9.45-3.5-1.45.15-2.65.7l-.35-.35q1.6-2.3 4.5-2.95l3.1-.25q4.9 0 9.85-3.35 2.5-1.7 4-3.4-3.7 2.8-8.5 3.05l-4.05-.3q4.7-1.85 6.95-7.2l1.35-5 .15-.05 5.9-.95-5.9.95-.15.05q-3.1.6-6.1 1.5l-2.5.8q.2-2.6 2.8-4.4 1.3-.9 2.55-1.25 4.45-1.85 6.55-6.3 1-2.25 1.15-4.1l-.3.2q-2.7 2.05-4.1 3.9l5.1-12.55q6.35-9.85 16.15-11.8 6.6-1.3 14 1.15l.25.05q2.8.95 4.55 1.95-1.75-1-4.55-1.95l-.05-.15M64 40.75q-6.15.9-11.45 4.85 5.3-3.95 11.45-4.85m51.55 37.35l-.05.1q.65.2 1.15.8l.45.7q.4.75.4 1.75 0 1.45-.85 2.45-.9 1.05-2.1 1.05l-1-.2q.4-1.3.4-2.2v-.05l.1-1.55.15-2.35v-.35l1.35-.15"/><path fill="url(#b)" d="M113.6 44.25q-.6-1.75-2.5-3-3.15-2.1-9.7-2.95-10.6-1.45-34.25 16.35h-.05q-.5-2.45.05-4.6l5.1-3.85q6.3-4.4 12.35-7.1 15-6.7 23.6-1.7 2.55 1.5 4.55 4l.85 2.85"/><path fill="url(#c)" d="M113.6 44.25l.15.2.55 8.15-.45-.75q-9.1-14.2-28.75-4.2-8.15 4.15-15.15 10l-2.65 2.3-.75.65q-.55-1.95-.05-4.15l.6-1.8h.05Q90.8 36.85 101.4 38.3q6.55.85 9.7 2.95 1.9 1.25 2.5 3"/><path fill="url(#d)" d="M112.85 85.8l-2.15 4.3-.7 1.15-2.4 3.65-.8 1.1-.35.5-3.6 5.1-2.05 1.05q-4.35-.05-12.65-4.45l-7.4-4.45-2.2-1.4q-2.65-2.25-4-6.4L74.2 84v-.8l-.35-1.75-.25-.55v-.05l-.65-.95q-.8-.9-1.7-1.25l-.2.5-.25 1.15q.65.2 1.15.8l.25.35h-.95q-2.4-.3-2.55-4.1-1.55-2.8-2.75-5.75l-.45-1.2-.3-1.25q-.65-2.85.4-3.85h.05l1.55-.55h.4l.5.05v-.1l1 .3q.7.35 1.3 1.25 1.95 2.85 2.7 6.1l-1.15-9.55-2-5.15q7-5.85 15.15-10 19.65-10 28.75 4.2l.15 10.4-.1-.1-.05.6v.05l-.1.95-.15.8.5 6.3.05 4.35.05-.05-.05 3.4-.05.5-.05 1.9-.1 1.55-.75 2.5h-.1v.2l-.25.6M73.7 80.6l-.1.25.1-.2v-.05l-.15-.55.15.55m-5.6-15.8l1 .2-1-.2"/><path fill="url(#e)" d="M114 63.55l.1 7.3-.5-6.3.15-.8.25-.2m.2 11.6l2.3-9.95-.15 3.3-.45 1.9-.6 1.35.2.4-.05.15.35 4.7-.05.05-.2 1.05-1.35.15v.35l-.05-.05.05-3.4"/><path fill="url(#f)" d="M112.95 86.3l-.1-.05v-.45h.25V85h.25v-.35l.2.1 1 .2q1.2 0 2.1-1.05.85-1 .85-2.45 0-1-.4-1.75l-.45-.7q-.5-.6-1.15-.8l.05-.1.2-1.05.05-.05.15-.45q.9.35 1.7 1.25.6.7.9 1.55l.35 1.75v.35q0 2.15-1.25 3.65-1.3 1.55-3.1 1.55l-1.6-.35"/><path fill="url(#g)" d="M30.9 78.75l.35.35-.35-.35"/><path fill="url(#h)" d="M74.2 84l-.1.65q-.25 1.45-1.15 2.55-1.3 1.55-3.1 1.55t-3.1-1.55q-1.25-1.5-1.25-3.65t1.25-3.65q.75-.85 1.65-1.2l.15-.05.4.85.35.7-.2.05q-.75.2-1.3.85-.9 1-.9 2.45 0 1.45.9 2.45.85 1.05 2.05 1.05 1.2 0 2.1-1.05.85-1 .85-2.45 0-1-.4-1.75l-.2-.35-.25-.35q-.5-.6-1.15-.8l.25-1.15.2-.5q.9.35 1.7 1.25l.65.95v.05l.25.55.35 1.75v.8"/><path fill="url(#i)" d="M141.65 156.65l.2 1.7q1.05 11.05-7.4 15.15-8.5 4.1-11.15 4.4-10.25 4.5-26.85 9.2-16.6 4.7-29.65 18.6l-1.9 2.1q-4.85-5.8-9.95-17.45-5.1-11.7-6.75-24.1v-.35l-.5-5.25q-.55-2.5.15-7.5Q49.8 139.7 57.9 132.5l-.9 8.35q.6 8.5 3.05 15.25 7.85 21.5 40.75 16.35l9.2-.9q5.8-2.1 18.35-8.95l.1-.05.7-.4q5.55-3.55 4.9-12.05l-.45-3.2q-1.6-8.4-8.15-20.8l11.05 15.95q2.85 3.5 4.3 9.7l.75 4.15.1.75q-.3-.2-.3-.75h.2-.2q0 .55.3.75m-48.5 17.25q-19.7 14.8-34.65 3.25-4.65-3.6-8.25-9.4l-2.55-7.1 2.55 7.1q3.6 5.8 8.25 9.4 14.95 11.55 34.65-3.25m14.4-.15q3.85 2.2 8.5 3.45 4.6 1.2 7.25.7-2.65.5-7.25-.7-4.65-1.25-8.5-3.45"/><path fill="url(#j)" d="M165.05 226.4l-.05-.25-.35-.15-.2-.1q-1.8-.75-4.45-1.35-6.4-1.6-13.05 0l-.85-.65-.6-.6q-.55-.75-.65-1.35-.35-.8-.25-1.65l8.45-.75 5.85.25q2.85.35 4.5 1.35l.2.15 1 .85.45 1.65q.25 1.7 0 2.6"/><path fill="url(#k)" d="M46.5 235.95l.1-.25 1.1-2.4 2.6-4.35 6.4 1.5q31.55 5.7 48.25 1.25 16.7-4.55 19-10.4.05-5.75 5.1-.5 2.45 2.5 4.7 7.2l-3.5.25q2.35 1.75-.6 4.4-2.85 2.4-5.6 2.4l-2.65-.3-2.9-.3q0 3.2-3.65 4.95-2.55 1.25-4.75 1.25-.8 0-2.4-.6-1.65-.65-2.25-.65-2.05 3.95-3.6 4.65l-5.4.3-4.35-.15q-2.75-.45-4.05-2.35-1.85 3.75-2.6 4.15l-5.45.2q-2.4 0-7.5-2.15-5.05-2.2-6.45-2.2-1.25 0-3.05 2.2-1.8 2.15-4.15 2.15-5.3 0-9.1-3.95-3.1-3.25-3.25-6.3"/><path fill="url(#l)" d="M46.5 235.95q.15 3.05 3.25 6.3 3.8 3.95 9.1 3.95 2.35 0 4.15-2.15 1.8-2.2 3.05-2.2 1.4 0 6.45 2.2 5.1 2.15 7.5 2.15l5.45-.2q.75-.4 2.6-4.15 1.3 1.9 4.05 2.35l4.35.15 5.4-.3q1.55-.7 3.6-4.65.6 0 2.25.65 1.6.6 2.4.6 2.2 0 4.75-1.25 3.65-1.75 3.65-4.95l2.9.3 2.65.3q2.75 0 5.6-2.4 2.95-2.65.6-4.4l3.5-.25q2.3 4.95 4.35 12.25 3.95 14.3 5.4 22.65l-10.35.5q0 1.45 1.25 3.15 1.2 1.7 1.2 2.75l-10.1 4.5q-6.7 3.25-6.7 5.6 0 1.1 1.75 2.35l2.7 1.85-7.6 2.55q-6.55 1.9-10.15 1.9-2.4 0-6.05-1.05l-8.2-2.4q.25 3.8-1.1 5.55-1.7 2.2-6.35 1.85-1.3-.1-2.7 1.85-1.5 2.05-2.7 2.15l-4.3.1-3.6-.1 2.85 1.85q1.25.8.65 2.55-1.75.7-11.45 1.8-7.3.8-10.9 4.65-12.4-34.8-8.15-59.8 1-6.15 3-11.1"/><path fill="url(#m)" d="M165.05 226.4l.65 1.65q.45 1.65.45 4.25l-.15.25-.15.25q-1.75 2.9-3.35 6.35l-2.45 5.35q-1.45 3.35-1.2 4.8l.05.25-.65.3-.25-.45-1.25-2.7.5-2.1 1.35-5.4q2.55-8.15 6.05-12.45l.1-.2.1-.1.2-.05"/><path fill="url(#n)" d="M156.8 250.15h.25l14.15-2.6 1.25 4.85-.65-.05-.25-.05q-3.3-.25-9.1.95l-6.95 1.45q0-2.85.5-4.3l.8-.25"/><path fill="url(#o)" d="M161.9 265.55l-.5.3-1.7-2.45v-.05l-.1-.1 4.65-5.1q4.5-4.8 7.45-5.6h.2l.55-.15q1.05 0 2.05 2.9l.5 1.7.3 1.45-.7.35-.1.1-12.25 6.5h-.05l-.3.15"/><path fill="url(#p)" d="M9.7 257.8v-5l4.65-3.35 7.35-5.95 8.95-7.35.05-.05.05.05.1.2.1.3.1.8-1.35 6.7q-.55 1.8-2.85 4l-.45.45-1.05.85q-2.35 2-6.35 4-.65.7-1.35.7v.3l-4.95 2.35-3 1"/><path fill="url(#q)" d="M9.7 257.8l16.65 5.35-.65 3.05q-.35 1.6-.65 1.6h-.35l-.15-.2q-1.05-.95-8.55-2.4l-8.3-1.35 2-6.05"/><path fill="url(#r)" d="M25.05 267.8h1.3q.7 4.7 0 4.7l-.85-.15h-.1l-6.4-.55-14.35.65-.3.05-.7-.35 1.7-5.3 19.35.95h.35"/><path fill="url(#s)" d="M4.35 272.5l.2.1 20.15 8.95-21.5-4.85-.85-.2 1-4.35h.3l.7.35"/><path fill="url(#t)" d="M24.7 281.55l1 .3.65.35 1 .35h.35l.1.3v.1l.25 2.9-1.25.1q-5.75.2-11.45-.1-11-.3-12.95-2.05l-.4-.6-.35-.35q-.35-1-.35-2.35l23.4 1.05"/><path fill="url(#u)" d="M24.7 281.55L1.3 280.5q0-1 .35-2l.7-2 .85.2 21.5 4.85"/><path fill="url(#v)" d="M1.65 282.85q-2 1.7-2.35 7l2 13.05-7.3 2.3.35-9.35.3-4.65q1.65-6.65 6.65-10.7 0 1.35.35 2.35"/><path fill="url(#w)" d="M77.4 376.55l.5-1.7 3.7 1.3 8.75 2.1q12.4 2 18.05-1.95l.25-.25.8-.6 1.55 12.6-.65.05-.45.1h-.05l-.3.05-1.65.3-3.05.4-.5.05h-.05l-.75.05-9.45.95q-14.7.55-17.05-3.85l-.35-.6-.15-.75.2-1.3v-.35l.7-6.3-.05-.3"/><path fill="url(#x)" d="M77.4 376.55l.05.3-.7 6.3q-2.1-1.1-2.55-2.05 0-.3-.3-.25-.8-1.6 1.3-3.1.95-.75 2.2-1.2"/><path fill="url(#y)" d="M76.75 383.5q-2.6.25-4.6 6.65-.95 3.35-1.55 4.1-.85 1.35-2-.15-2.2-2.45-3.75-1.6l-1.5 1.4q-.4-3.85 5.05-9 2.65-2.5 5.5-4.05.3-.05.3.25.45.95 2.55 2.05v.35"/><path fill="url(#z)" d="M109.9 388.2l-1 8.25q-.35 2.55-2.3 6.05l-.1.2-.3.55-2.95 4.35-1.15 1.45-.25.3-.45.55-3.5 4.1-.8.95-1.3 1.45-5.55 5.6-3.4 3.05-.15-1.2-1-6.3.3-.25v-.1l6.4-7.75.9-.9 3-3.7-.35-.2.3-.4q6-8.9 8.1-15.2l.5-.1 3.05-.4 1.65-.3v.45q.25 0 .35-.5"/><path fill="url(#A)" d="M150.6 355.2l1.35-.65q1.4-.3 1.8 1.6l-.4 1.25-1.2 2.5-1.55-4.7"/><path fill="url(#B)" d="M153.75 356.15v-.05l2.4 1.95 5.05 5.05q5 6.05 2.25 4.95-2.25-.85-4.75 6.1-1.1 2.75-1.1 3.05-.25.55.3-2.25.8-5.5-2.25-10.8-1.05-1.65-2.5-3l-.8-.8-.1-.15-.2-.2.1-.1 1.2-2.5.4-1.25"/><path fill="url(#C)" d="M152.25 360.2l.05.2v.35l-1.05.9-.1.05-.4.15q-4.2 3.65-9.35 6.65-11.35 6.35-17.85 4.75-.65-.15-.25-1l-1-2.3q-1.4-3.8-.55-5.35.8-1.6.25-1.75l2.3.35.7.1 4.05.7.85.05q8.95.35 20.5-10.1l-.9.3q1.4-.8.8.05l.25.85.05.05 1.55 4.7-.1.1.2.2"/><path fill="url(#D)" d="M154.05 365.2l.25-.15h.1l.75-.8V364l.2 1.5.25 2.8-.25 4-.1 2.15-.05.15q-.5 3.8-2.7 8.15l-.25-.1-1.75 3.55-.7 1.1-1.3 1.8-.2.25q-2.65 3.75-6.45 7.15l-3.05 2.5-2.25-3.45-.85-1.85 1.05-.45.1-.05q2.7-1.45 5.25-4.75l2.25-2.85.15-.05 1.8-3 1.8-3.7 1.15-2.4 3.05-7.25 1.75-4"/><path fill="url(#E)" d="M148.1 378.85l-1.8 3.7-1.8 3-.15.05-11.9 3.9q-1.8.6-3.1-3.4-.65-1.85-.85-3.8l20.65-6v.1l-1.05 2.45"/><path fill="url(#F)" d="M150.5 386.2l1.75-3.55.25.1 3.55 1.55 1.85.95q2.15 1.2 2.65 2.05.7 1.15.2 4.6l-.2 3.1q-.15-.8-.7-1.55l-.1-.1v-.05q-1.3-1.8-4.8-3.6l-5.3-2q-.05-.3.2-.35h.05l.6-1.15"/><path fill="url(#G)" d="M175 257q2.85 1.15 6.7 10.85l3.35 9.4q-2.05-1.1-4.4.3l-2 1.45q1.25-2-.55-9.4v-.3l-2.05-6.9.75-.25-1.5-3.7-.3-1.45"/><path fill="url(#H)" d="M176.05 262.4l-.35.1-.1.05-13.15 3.85-.55-.85.3-.15h.05l12.25-6.5.1-.1.7-.35 1.5 3.7-.75.25"/><path fill="url(#I)" d="M169.5 418.25q.4 1 .4 2l-.4 1.2-.65 1.75-.85 1.7q-2.7 4.9-6.85 8.7l-.1.05-.6.55-.55-1.25q-.4-1.4.15-2.8l1-1.75.05-.1q1.2-1.9 4-5.45l4.25-5.4.15.8"/><path fill="url(#J)" d="M174 466q-.5-2.7-2.35-4.25-.8-5 0-9.25 1.15-3.85 3.45-6.15 1.9-1.9 4.1-2.5l.15-.05.75-.15q0-.4 1.15 0 1.55.8 3.1 1.95 3.95 2.85-.5 3.75l-.2.05-.45.05q-5.4.35-6.2 8.8-.3 3.55-2.45 8.25l-.55-.5"/><path fill="url(#K)" d="M174 466l.55.5.3.3q3.3 2.85 4.35 11 .35 2.85 2.45 5.3 2.2 2.6 4.7 2.6 2.65 0 3.9-2.2 2.45-4.5 3.7-5.9 1.15-1.3 1.7-2.55.6-1.3 1-3.45.75-4.25 2.95-5v2.5l-1.25 6.85q-.3 1.2-.65 3.7-.4 2.2-1.45 3.35-2.7 2.95-6.3 5-3.85 2.1-6.9 2.1-2.7 0-4.1-2.6-.4-.75-2.25-6.15-3.15-8-4.35-12.25-1.8-6.15-2.7-11.05l-.35-2.5q-.4-1.45-1.55-2.25-.95-.65-1.9-2.45-.9-1.6-1-2.7l-.4-.7h1.25q5.65 4 5.2 9.6-.25 2.8.95 5.55.8 1.95 2.15 3.4"/><path fill="url(#L)" d="M101.4 409.9l.75 1.4.9 1.5v.1l.65 1.6q-.95 2.25-2.05 7.25.1-.6-.2-1.4l-.05-.1q-.55-1.35-2.3-3.4l-2-1.9.8-.95 3.5-4.1"/><path fill="url(#M)" d="M92.4 409.45l-1.5 1.4-4.55-1.85q-3.3-1.4-4.3-2.4-.5-.4-.55-.8-.35-.95-.95-3.9l-.25-2.55.2.15q13.3 4.2 15.45 5.15l.35.2-3 3.7-.9.9"/><path fill="url(#N)" d="M86.2 436.05l7.65 2.4q6.9 2.6 8.4 5.15l.15.25.15.45q.9 8.25.6 7.7l-.4-1.45q-.1-.7-.7-1.35l-.05-.05q-1.85-2.3-7.65-4.9l-7.9-2.7-.15-.05-.55-1.55q-.45-2.25.25-3.9h.2"/><path fill="url(#O)" d="M102.8 460.2q.05.95.4 1.55h-.2q-7.8-1.8-14.5 4.3-2.2 2.25-3.9 4.8L83.1 473v-.15q0-3.5 1.4-6.55.45-1.3 1.05-2.05l.3-.3.15-.15q3.85-5.5 10.1-6.35 2.8-.65 4.85-.05l.15.05.1.05q1 1.15 1.6 2.7"/><path fill="url(#P)" d="M79 493.15q.45 1.05 1.5 2.15l2.9 2.7q.85.75 3.05.95l3.8.05 7.55-.6 8.45-3.75v3.95q-3.6 4.35-5.85 5.05l-7.15.35-4.35-.05-4.5-.55-3.25-2.45Q78 498.2 78 496.4q0-.65.55-2.1l.45-1.15m18.7 8.15v-.6.6"/><path fill="#fff" d="M109.45 67.85l-.3.1-.35-.2-.15-.35.15-.35.1-.05.25-.1.35.15.2.35-.2.35-.05.1M89.4 67l.25-.1.35.15.2.35-.2.35-.15.15-.2.05-.35-.2-.15-.35.15-.35.1-.05m4.45 21.45v.05h-.15.15l-.2.05.05-.05.15-.05"/><path fill="url(#Q)" d="M93.85 88.45l2.5-.7q5.6-.95 8.35 1.3l-.5.25-1.15.5-1.65.15-1.55.8-4.3-.95-2.75-.1h.2-.2l-.7-.2-.15-.05-.6-.2v-.05l2.3-.65.2-.05v-.05"/><path fill="url(#R)" d="M92.1 89.5l.7.2h.2-.2l2.75.1 4.3.95 1.55-.8 1.65-.15 1.15-.5q-1.8 4.95-6.4 3.65-4.65-1.4-5.35-2.4l-.4-1 .05-.05"/><path fill="#432101" d="M103.25 67.85l.85-1.2 1.25-1.45v.95l.5-.5.45-.6.05.05v.95l1.1-1.3v.45l.9-.45.25.05.25.5.25-.35.4-.3.05.1v.7q.45-.2.65 0l.45.3 1.05-.3v.15l-.55.6.9-.05.1.45-.3.5h.05l.7-.1-.1.5-.25.3h.05l.65-.2-1.4 1.4-.4-.85-.95-1.1-.65-.45q-1.15-.65-2.55-.45-1.75.25-3.75 1.7m3 3.15l-.15.05h.05l-.1.35-.75-.75-.65-.5 6.05.25 1.05-.65.15.4.15.7q-.25-.1-.25.15l.05.6q-.9-.55-1-.55l-.25.1v.55l-.5-.15-.25-.15-.65.3q-.25 0-.45-.2l-.35-.2-.45.25-.45-.45-.45-.1h-.3l-.15.2q-.1-.2-.35-.2m-18.8-5.2q-1.4-.15-2.55.5-1.05.6-1.8 1.75l-.5 1-1.2-.25q-.6-.35-.85-1.2h1l-.4-.5-.15-.5v-.15l1.4.4-.25-.75.25-.65.1-.1.6.65.1-.65.95.4.2-.8.65.5q.05-.1.4-.3l.4-.2.6.5q.15-.5.55-.5l.55.4.55-.25 1.4.65.15.1.85.7.5.5-.25-.15q-1.75-1-3.25-1.1m3 .75l.25.35-.25-.35m-7.05 4.1l7.6-.3-2.2.5q-1.45.4-2 .7l-.35-.25q-.8 0-.9.55h-.15l-.3-.35-.25-.1q-.45 0-.55.6l-.4-.5-.5-.2-.75.3-.55-.7-.8.3-.05-.05v-.5l1.1-.95 1.05.95"/><path fill="#690E0E" d="M109.25 60.5q.7 0 .75.25l3.8 4.85-3.3-3.05q-1.1-1.35-4.95.4-1.95.85-3.6 2-.95-.1-.75-.9l.35-.8q5.65-2.65 7.7-2.75m-25.1-.5q.1-.3.9-.3 2.45.1 9.15 3.2l.45.9q.25.95-.9 1.1-2-1.35-4.3-2.35-4.55-2.05-5.85-.5l-3.95 3.6 4.25-5.4.25-.25"/><path fill="url(#S)" d="M87.45 65.8l-.7.45q-.7.75-.7 1.75t.7 1.7l.7.5q-3.65.3-4.85-1.15l.5-1q.75-1.15 1.8-1.75 1.15-.65 2.55-.5"/><path fill="url(#T)" d="M90.15 69.8l.05-.1q.75-.7.75-1.7l-.25-1.1.25.15 2.55 1.85-3.35.9"/><path fill="url(#U)" d="M103.25 67.85q2-1.45 3.75-1.7l-.55.4q-.65.7-.65 1.65 0 1 .65 1.65l.15.15-.6-.1-4.1-1 1.05-.85.3-.2"/><path fill="url(#V)" d="M110.2 67.05l.95 1.1.4.85.05.05q-.65.75-1.95 1l.15-.2q.7-.65.7-1.65l-.3-1.15"/><path d="M108.9 67l-.1.05-.15.35.15.35.35.2.3-.1V68q0 .5-.4.85-.35.4-.85.4t-.9-.4q-.35-.35-.35-.85t.35-.9q.4-.35.9-.35l.7.25m-19.05.9q0 .5-.4.85-.35.4-.85.4t-.9-.4q-.35-.35-.35-.85t.35-.9q.4-.35.9-.35.45 0 .8.35l-.1.05-.15.35.15.35.35.2.2-.05"/><path fill="url(#W)" d="M89.85 67.9l.15-.15.2-.35-.2-.35-.35-.15-.25.1q-.35-.35-.8-.35-.5 0-.9.35-.35.4-.35.9t.35.85q.4.4.9.4t.85-.4q.4-.35.4-.85m-2.4 2.3l-.7-.5q-.7-.7-.7-1.7t.7-1.75l.7-.45q1.5.1 3.25 1.1l.25 1.1q0 1-.75 1.7l-.05.1-1.25.2-1.45.2"/><path fill="url(#X)" d="M107 66.15q1.4-.2 2.55.45l.65.45.3 1.15q0 1-.7 1.65l-.15.2-3.05-.05-.15-.15q-.65-.65-.65-1.65 0-.95.65-1.65l.55-.4m1.9.85l-.7-.25q-.5 0-.9.35-.35.4-.35.9t.35.85q.4.4.9.4t.85-.4q.4-.35.4-.85v-.15l.05-.1.2-.35-.2-.35-.35-.15-.25.1"/><path fill="none" stroke="#820300" stroke-width=".05" stroke-linecap="round" stroke-linejoin="round" d="M83.6 26.4l5.8-3.05q7.25-3.15 13.75-3.65 20.65-1.65 25.45 24l3.4 5.25q3.75 5.45 5.7 6.3 2.2 1-2.95.55-5.15-.45-8.05-1.65l-1-.6q-1.45-1.05 3.8 3.45 5.05 4.8 6.2 7.7l.3 1.1-1.05-.9q-1.7-.9-4.7-1.05l4.85 5.05q5.65 5.2 9.55 6.25l-2.6 1.75q-3.3 1.5-6.85.4l-1.35-.5q-2.2-.95-1.8.45.25.85 2.4 4.5 5.5 9.3 5.65 14.25-1.55 1.35-3.7 1.95-4.35 1.2-7.35-2.7l-.15 1.15q-.05 1.45.35 2.85 1.4 4.5 7.25 7.05-5.35 1.7-11.1 2.4-11.6 1.45-13.85-3.35-5 3.6-6.7 3.35l-1-7.9 5.05-7.3 4.05-7.2M74.1 84.65q.65 2.35 2.15 5.85l-2.75 17.15q.25.75-.25 1.5m10.4-82.6q2.8.95 4.55 1.95m-4.8-2l.2-.1m.05.15l-.25-.05q-7.4-2.45-14-1.15-9.8 1.95-16.15 11.8l-5.1 12.55q1.4-1.85 4.1-3.9l.3-.2q5.3-3.95 11.45-4.85m49.85 11.1l.15 10.4v1.3l.1 7.3.05 4.35.05-.05 2.3-9.95-.15 3.3-.45 1.9-.4 1.75-.05.15.35 4.7m-.25 1.1l-1.35.15v.35l-.15 2.35-.1 1.55v.05q0 .9-.4 2.2M48.1 59.35l-1.35 5q-2.25 5.35-6.95 7.2l4.05.3q4.8-.25 8.5-3.05-1.5 1.7-4 3.4-4.95 3.35-9.85 3.35l-3.1.25q-2.9.65-4.5 2.95m.35.35q1.2-.55 2.65-.7 4.55-.45 9.45 3.5l-.5 1.4q-1.55 1.65-6.95 3.05-2.7.55-5.5 1.7-5.65 2.25-6.1 5.05l5.25 2.5q5.8 2.25 8.6.85L36.6 98.7q-2.7 2.4-8.55 3.35l4.6 1.9q5.6 2.15 10.5 3.3 15.8 3.65 19.3-4.05l-.25 3.05q.05 3.55 1.7 5.9 1.65 2.35 1.75.65l-.25-2.15q.55-1.2 1.5-2.45 1.9-2.5 3.75-2.75l1.85 1 1 1.2M31.25 79.1l-.95.55.6-.9M68.1 64.7l1 .3q.7.35 1.3 1.25 1.95 2.85 2.7 6.1l-1.15-9.55-2-5.15M68.1 64.7h-.8l-.1.05-1.55.55h-.05q-1.75.45-.1 5.1l.45 1.2q1.2 2.95 2.75 5.75.15 3.8 2.55 4.1h.95m-24.1-22.1l.15-.05 5.9-.95m-1.6-12.75q-.15 1.85-1.15 4.1-2.1 4.45-6.55 6.3-1.25.35-2.55 1.25-2.6 1.8-2.8 4.4l2.5-.8q3-.9 6.1-1.5"/><path fill="none" stroke="#533024" stroke-width=".05" stroke-linecap="round" stroke-linejoin="round" d="M113.85 51.85l.45.75-.55-8.15-.15-.2q-.6-1.75-2.5-3-3.15-2.1-9.7-2.95-10.6-1.45-34.25 16.35h-.05l-.6 1.8q-.5 2.2.05 4.15l.75-.65 2.65-2.3q7-5.85 15.15-10 19.65-10 28.75 4.2m-.25-7.6l-.85-2.85q-2-2.5-4.55-4-8.6-5-23.6 1.7-6.05 2.7-12.35 7.1l-5.1 3.85q-.55 2.15-.05 4.6m74.55 102l.2 1.7q1.05 11.05-7.4 15.15-8.5 4.1-11.15 4.4-10.25 4.5-26.85 9.2-16.6 4.7-29.65 18.6l-1.9 2.1q-4.85-5.8-9.95-17.45-5.1-11.7-6.75-24.1v-.35l-.5-5.25q-.55-2.5.15-7.5Q49.8 139.7 57.9 132.5l-.9 8.35q.6 8.5 3.05 15.25 7.85 21.5 40.75 16.35l9.2-.9q5.8-2.1 18.35-8.95l.1-.05.7-.4q5.55-3.55 4.9-12.05l-.45-3.2q-1.6-8.4-8.15-20.8l11.05 15.95q2.85 3.5 4.3 9.7m-93.1 8.9l2.55 7.1q3.6 5.8 8.25 9.4 14.95 11.55 34.65-3.25m30.15 4q-2.65.5-7.25-.7-4.65-1.25-8.5-3.45m34-17.85l-.75-4.15m.85 4.9l-.1-.75m-7.8 72.1q-2.25-4.7-4.7-7.2-5.05-5.25-5.1.5-2.3 5.85-19 10.4-16.7 4.45-48.25-1.25l-6.4-1.5-2.6 4.35-1.1 2.4-.1.25q.15 3.05 3.25 6.3 3.8 3.95 9.1 3.95 2.35 0 4.15-2.15 1.8-2.2 3.05-2.2 1.4 0 6.45 2.2 5.1 2.15 7.5 2.15l5.45-.2q.75-.4 2.6-4.15 1.3 1.9 4.05 2.35l4.35.15 5.4-.3q1.55-.7 3.6-4.65.6 0 2.25.65 1.6.6 2.4.6 2.2 0 4.75-1.25 3.65-1.75 3.65-4.95l2.9.3 2.65.3q2.75 0 5.6-2.4 2.95-2.65.6-4.4l3.5-.25q2.3 4.95 4.35 12.25 3.95 14.3 5.4 22.65l-10.35.5q0 1.45 1.25 3.15 1.2 1.7 1.2 2.75l-10.1 4.5q-6.7 3.25-6.7 5.6 0 1.1 1.75 2.35l2.7 1.85-7.6 2.55q-6.55 1.9-10.15 1.9-2.4 0-6.05-1.05l-8.2-2.4q.25 3.8-1.1 5.55-1.7 2.2-6.35 1.85-1.3-.1-2.7 1.85-1.5 2.05-2.7 2.15l-4.3.1-3.6-.1 2.85 1.85q1.25.8.65 2.55-1.75.7-11.45 1.8-7.3.8-10.9 4.65l.15.5m-5.3-71.4q-2 4.95-3 11.1-4.25 25 8.15 59.8m98.95 48.35l1.35-.65q1.4-.3 1.8 1.6M174 466l.55.5.3.3q3.3 2.85 4.35 11 .35 2.85 2.45 5.3 2.2 2.6 4.7 2.6 2.65 0 3.9-2.2 2.45-4.5 3.7-5.9 1.15-1.3 1.7-2.55.6-1.3 1-3.45.75-4.25 2.95-5v2.5l-1.25 6.85q-.3 1.2-.65 3.7-.4 2.2-1.45 3.35-2.7 2.95-6.3 5-3.85 2.1-6.9 2.1-2.7 0-4.1-2.6-.4-.75-2.25-6.15-3.15-8-4.35-12.25-1.8-6.15-2.7-11.05l-.35-2.5q-.4-1.45-1.55-2.25-.95-.65-1.9-2.45-.9-1.6-1-2.7l-.4-.7h1.25q5.65 4 5.2 9.6-.25 2.8.95 5.55.8 1.95 2.15 3.4m-95 27.15l-.2-.6m.2.6q.45 1.05 1.5 2.15l2.9 2.7q.85.75 3.05.95l3.8.05 7.55-.6 8.45-3.75v3.95q-3.6 4.35-5.85 5.05l-7.15.35-4.35-.05-4.5-.55-3.25-2.45Q78 498.2 78 496.4q0-.65.55-2.1l.45-1.15.45-.8m18.25 8.35v.6"/><path fill="none" stroke="#8E5027" stroke-width=".05" stroke-linecap="round" stroke-linejoin="round" d="M112.85 85.8l-2.15 4.3-.7 1.15-2.4 3.65-.8 1.1-.35.5-3.6 5.1-2.05 1.05q-4.35-.05-12.65-4.45l-7.4-4.45-2.2-1.4q-2.65-2.25-4-6.4L74.2 84m39.9-13.15l-.5-6.3.15-.8.1-.95v-.05l.05-.6.1.1m-.25 1.5l.25-.2m1.9 6.85l-.6 1.35.2.4m-2.65 13.65l.25-.6m.95-4.25l.05-1.9.05-.5.05-3.4m-.05 3.4l.05.05m-.25 3.9l-.75 2.5m-46-20.25h.4l.5.05v-.1m-2.5.6q-1.05 1-.4 3.85l.3 1.25m8.1 10.45l.1-.25-.15-.55M69.1 65l-1-.2m5.5 16.05l.1-.2v-.05m-.1.3v-.05"/><path fill="none" stroke="#452421" stroke-width=".05" stroke-linecap="round" stroke-linejoin="round" d="M46.5 142.2l-2.85-.4H43l.65.3v.4q.75.7.75 2.15 1.35.05 1.75.4L44.4 145l-.75-.05h-.3q-.35 0-.75.35-1 .3-1-.75l1.75.05h.3v-.7l-.65-1.4q0-.4-.4-.7v-.35q-.3-.4-1.4-1.1m1.4 1.45h.4l-.4-.35m1.8 3.55v-.35l-.75-.05v.35m97.15 6.8l1.55 1.05.4.35h.65l2.85.4M36.35 134.2q-1.45.35-2.1 1-1.05.75-1.05 2.1v.35l.65.4.4.65q1.05.8 1.05 1.85m-9.85 14.05l2.8-.25q1.4.05 2.8.8 1.05.05 2.15-.95-.75-.8-2.15-1.55-2.8-1.1-2.8-2.15 0-1.4 1.05-2.1l.35.05v-.35H30l-.35.35q-.7.65-.7 1.35 0 1.05 2.45 2.55l2.1 1.45.35 1.05V155.9q0 .7-.65 1.45l-.4 1v.65l3.15.5m1.8-19.65h-.35m-4.2-2.2l-2.85-.1m3.15 16.25q0 .4-.3.4l.65 1.35-1.05 1.35-1.4 1.8 1.05.3h.35q0 .75.4 1.45l.1.3.1.25m1.5-11.7v-.7m-.65 1.35v-.35m-2.85 9.1v.3q0 .9.45 1.7l.2.25m3.9-5.35h.7M30 156.85h-.35m1.4 10.9h-.35m.35 2.1v.7m3.5-2.35v2.1q.35-.3.75-.3l.3.35v-1.75h-.3q-.4 0-.75-.4v-2.5m5.3 6.85L37 171.5q0-.4-.35-.45-.7-.7-1.05-.7v1.1q0 1-1.05 1.65v-2.8m4.25-.9l-1.8-.05-1.4-.75-.3-.35q0-.7 1.05-1.4m-7.05-8.25l2.1.1m5.05 27.65q0-1.15 1.15-1.9.4-.4.4-.8l.35-.35.4-.4q0-1.55-1.15-2.3-.75-.8-2.3-1.15m-5.4 6.15l-1.55 1.55-.35.35v.8l-.8 1.5v.8h.4q1.55 0 .75.75-.35-.4-.75-.4h-1.15q-.75 0-1.55.4 0-.75 1.55-.75v-.8q.4-1.15.75-1.5l.4-.8-3.85.4m3.85-.4h.1q.3 0 .65-.35m-1.15 3.8v-.35h-.75v.35M28 187.5h-.3m-2.4 6.95q0 1.15-.4 1.9-.75.8-.75 1.15 0 .4.35 1.15v3.85m20.95-54.35q0 1.05.3 1.8.75.7.75 1.05l-.35 1.05v3.55m-7.8 27.7h3.5m99.7-27.4l1.55.05h.3v-.7l-.65-1.4q0-.4-.4-.7v-.35m1.05 3.15l.75.05q0-1.45-.75-2.15v-.4q-.3 0-.65-.3h-.4m1.05 2.8v.35l.75.05V156q1.35.05 1.75.4l-1.75-.05m-.75-.05h-.3q-.35 0-.75.35h-.7q-.3-.2-.3-.75h.2m3.65 3.6q0 1.05.3 1.8.75.7.75 1.05l-.35 1.05v3.55m-11.6 10.1v2.5q.35.4.75.4h.3l-.3-.35q0-.7 1.05-1.4m2.45 2.55l-1.8-.05-1.4-.75v1.75q.35 0 1.05.7.35.05.35.45l2.85 1.05m-5.3-4.35v2.1l.75-.3.3.35v1.1q0 1-1.05 1.65v-2.8m-3.5-.45v.7m0-2.8h-.35m17.3 15.45q-1-.5-1.5-1.2l-.75-1.15-1.2-.2-3.5-1.6m13.1 12l-.75-2.05q-.35-.15-.2-.45l-.7-.35-1-1.35-.75-.35-.2.35q-.65 1.4-.95.4.5-.15.65-.55l.2-.35.3-.7.3-1.55q.65.3 0 1.7l.75.35 1.05 1.3.5.7 1.25-3.65m-4.15 1.85l.3.15.3-.7-.3-.15m2.65 3.35q-.2-.45-.1-.75l-.1.3m.15-.4l-.05.1m-2.6 8.45q1.05.45 1.25 1.8.2.55.55.7l.2.45.2.5q1.4.65 2.55 0 1.05-.4 2-1.65m-4.75 1.15l-1.45 3.2"/><path fill="none" stroke="#592F2B" stroke-width=".05" stroke-linecap="round" stroke-linejoin="round" d="M165.05 226.4l-.05-.25-.35-.15-.2-.1q-1.8-.75-4.45-1.35-6.4-1.6-13.05 0l-.85-.65-.6-.6q-.55-.75-.65-1.35-.35-.8-.25-1.65l8.45-.75 5.85.25q2.85.35 4.5 1.35l.2.15 1 .85.45 1.65q.25 1.7 0 2.6l.65 1.65q.45 1.65.45 4.25l-.15.25-.15.25q-1.75 2.9-3.35 6.35l-2.45 5.35q-1.45 3.35-1.2 4.8l.05.25-.65.3-.25-.45-1.25-2.7.5-2.1 1.35-5.4q2.55-8.15 6.05-12.45l.1-.2.1-.1.2-.05m-9.05 24q-.5 1.45-.5 4.3l6.95-1.45q5.8-1.2 9.1-.95l.25.05.65.05-1.25-4.85-14.15 2.6h-.25m5.1 15.4l-.5.3-1.7-2.45v-.05l-.1-.1 4.65-5.1q4.5-4.8 7.45-5.6h.2l.55-.15q1.05 0 2.05 2.9l.5 1.7q2.85 1.15 6.7 10.85l3.35 9.4q-2.05-1.1-4.4.3l-2 1.45q1.25-2-.55-9.4v-.3l-2.05-6.9-.35.1-.1.05-13.15 3.85-.55-.85.3-.15h.05l12.25-6.5.1-.1.7-.35-.3-1.45m-165.3.8v-5l4.65-3.35 7.35-5.95 8.95-7.35.05-.05.05.05.1.2.1.3.1.8-1.35 6.7q-.55 1.8-2.85 4l-.45.45-1.05.85q-2.35 2-6.35 4-.65.7-1.35.7v.3l-4.95 2.35-3 1 16.65 5.35-.65 3.05q-.35 1.6-.65 1.6h1.3q.7 4.7 0 4.7l-.85-.15h-.1l-6.4-.55-14.35.65-.3.05.2.1 20.15 8.95 1 .3.65.35 1.35.35.1.3v.1l.25 2.9-1.25.1q-5.75.2-11.45-.1-11-.3-12.95-2.05l-.4-.6-.35-.35q-2 1.7-2.35 7l2 13.05-7.3 2.3.35-9.35.3-4.65q1.65-6.65 6.65-10.7 0-1 .35-2l.7-2 1-4.35h.3l1.7-5.3 19.35.95-.15-.2q-1.05-.95-8.55-2.4l-8.3-1.35 2-6.05m15 10h.35M1.3 280.5q0 1.35.35 2.35m.7-6.35l.85.2 21.5 4.85-23.4-1.05m25.05 1.7l1 .35h.35M4.35 272.5l-.7-.35m73.75 104.4l.5-1.7 3.7 1.3 8.75 2.1q12.4 2 18.05-1.95l.25-.25.8-.6 1.55 12.6-.65.05m-.45.1l-1 8.25q-.35 2.55-2.3 6.05l-.1.2-.3.55-2.95 4.35-1.15 1.45-.25.3-.45.55.75 1.4.9 1.5v.1l.65 1.6q-.95 2.25-2.05 7.25.1-.6-.2-1.4l-.05-.1q-.55-1.35-2.3-3.4l-2-1.9-1.3 1.45-5.55 5.6-3.4 3.05-.15-1.2-1-6.3.3-.25v-.1l6.4-7.75m-1.5 1.4L86.35 409q-3.3-1.4-4.3-2.4-.5-.4-.55-.8-.35-.95-.95-3.9l-.25-2.55.2.15q13.3 4.2 15.45 5.15l.3-.4q6-8.9 8.1-15.2l.5-.1m-1.3.1l-9.45.95q-14.7.55-17.05-3.85l-.35-.6-.15-.75.2-1.3q-2.6.25-4.6 6.65-.95 3.35-1.55 4.1-.85 1.35-2-.15-2.2-2.45-3.75-1.6l-1.5 1.4q-.4-3.85 5.05-9 2.65-2.5 5.5-4.05-.8-1.6 1.3-3.1.95-.75 2.2-1.2l.05.3-.7 6.3v.35m0-.35q-2.1-1.1-2.55-2.05 0-.3-.3-.25m36 7.35q-.1.5-.35.5v-.45l-1.65.3-3.05.4m48.9-32.8v-.05l2.4 1.95 5.05 5.05q5 6.05 2.25 4.95-2.25-.85-4.75 6.1-1.1 2.75-1.1 3.05-.25.55.3-2.25.8-5.5-2.25-10.8-1.05-1.65-2.5-3l-.8-.8-.1-.15.05.2v.35l-1.05.9-.1.05-.4.15q-4.2 3.65-9.35 6.65-11.35 6.35-17.85 4.75-.65-.15-.25-1l-1-2.3q-1.4-3.8-.55-5.35.8-1.6.25-1.75l2.3.35.7.1 4.05.7.85.05q8.95.35 20.5-10.1l-.9.3q1.4-.8.8.05l.25.85.05.05 1.55 4.7-.1.1.2.2m1.5-4.05l-.4 1.25-1.2 2.5m1.9 5.3l-1.75 4-3.05 7.25-1.15 2.4m-3.6 6.7l-.15.05-2.25 2.85q-2.55 3.3-5.25 4.75l-.1.05-1.05.45.85 1.85 2.25 3.45 3.05-2.5q3.8-3.4 6.45-7.15l.2-.25 1.3-1.8.7-1.1m1.75-3.55l.25.1q2.2-4.35 2.7-8.15l.05-.15.1-2.15.25-4-.25-2.8-.2-1.5m-6 12.3l-20.65 6q.2 1.95.85 3.8 1.3 4 3.1 3.4l11.9-3.9m5.3 2.1l5.3 2q3.5 1.8 4.8 3.6v.05l.1.1q.55.75.7 1.55l.2-3.1q.5-3.45-.2-4.6-.5-.85-2.65-2.05l-1.85-.95-3.55-1.55m22.8-124.3l1.5 3.7-.75.25m-6.55 155.85q.4 1 .4 2l-.4 1.2-.65 1.75-.85 1.7q-2.7 4.9-6.85 8.7l-.1.05-.6.55-.55-1.25q-.4-1.4.15-2.8l1-1.75.05-.1q1.2-1.9 4-5.45l4.25-5.4.15.8m5.05 48.25q2.15-4.7 2.45-8.25.8-8.45 6.2-8.8l.45-.05.2-.05q4.45-.9.5-3.75-1.55-1.15-3.1-1.95-1.15-.4-1.15 0l-.75.15-.15.05q-2.2.6-4.1 2.5-2.3 2.3-3.45 6.15-.8 4.25 0 9.25 1.85 1.55 2.35 4.25m-77.7-61.15l-.35-.2m5.45 5.25l-3.5 4.1-.8.95m-10.9 21.1l7.65 2.4q6.9 2.6 8.4 5.15l.15.25.15.45q.9 8.25.6 7.7l-.4-1.45q-.1-.7-.7-1.35l-.05-.05q-1.85-2.3-7.65-4.9l-7.9-2.7-.15-.05-.55-1.55q-.45-2.25.25-3.9h.2m16.6 24.15q-.6-1.55-1.6-2.7l-.1-.05-.15-.05q-2.05-.6-4.85.05-6.25.85-10.1 6.35l-.15.15-.3.3q-.6.75-1.05 2.05-1.4 3.05-1.4 6.55v.15l1.5-2.15q1.7-2.55 3.9-4.8 6.7-6.1 14.5-4.3h.2q-.35-.6-.4-1.55"/><path fill="none" stroke="#8E5027" stroke-width=".05" stroke-linecap="round" stroke-linejoin="round" d="M103.25 67.85q2-1.45 3.75-1.7 1.4-.2 2.55.45l.65.45.95 1.1.4.85.05.05q-.65.75-1.95 1L106.6 70l-.6-.1-4.1-1 1.05-.85.3-.2m-15.8-2.05q-1.4-.15-2.55.5-1.05.6-1.8 1.75l-.5 1q1.2 1.45 4.85 1.15l1.45-.2 1.25-.2m.55-2.9q-1.75-1-3.25-1.1m3 .75l.5.5 2.55 1.85-3.35.9m.8-2.75l-.25-.15-.25-.35m3.55 13l-.65 1q-.45 1.25.65 2.35m1.45.05l1.4-.55 1.35.1q1 .25 2.1 1.2l1.65-.45q1.55-1 1.1-3.7l-1.15-2.35-.55-1.7-.2-1.25m-7.3 14.2l-.15.05h.15l-.2.05-2.3.65m0 .05l.6.2.15.05.7.2h.2-.2l2.75.1 4.3.95 1.55-.8 1.65-.15 1.15-.5.5-.25q-2.75-2.25-8.35-1.3l-2.5.7m-1.8 1.1l-.1-.1m-.6-.2l-.1-.05h.1m12.85.1q-1.8 4.95-6.4 3.65-4.65-1.4-5.35-2.4l-.4-1M104.15 79l.35 1.45q.2 1.6-.5 2.3"/></svg>