<svg xmlns="http://www.w3.org/2000/svg" viewBox="-9.7 -11.8 230.0 496.4" width="230" height="496.4" preserveAspectRatio="xMinYMin"><defs><linearGradient gradientUnits="userSpaceOnUse" x1="-819.2" x2="819.2" gradientTransform="matrix(-.005 .011 -.005 -.002 131.25 48.05)" id="a"><stop offset="0" stop-color="#D98651"/><stop offset=".533" stop-color="#DFA168"/><stop offset="1" stop-color="#D98651"/></linearGradient><linearGradient gradientUnits="userSpaceOnUse" x1="-819.2" x2="819.2" gradientTransform="matrix(-.038 -.014 .017 -.046 101.65 40.65)" id="b"><stop offset="0" stop-color="#D98651"/><stop offset=".533" stop-color="#DFA168"/><stop offset="1" stop-color="#D98651"/></linearGradient><linearGradient gradientUnits="userSpaceOnUse" x1="-819.2" x2="819.2" gradientTransform="matrix(-.038 -.014 .017 -.046 101.65 40.65)" id="c"><stop offset=".141" stop-color="#c00"/><stop offset=".753" stop-color="#f30"/></linearGradient><radialGradient gradientUnits="userSpaceOnUse" r="819.2" cx="0" cy="0" spreadMethod="pad" gradientTransform="matrix(.006 0 0 .007 76.25 63.4)" id="d"><stop offset=".659" stop-color="#f93"/><stop offset=".847" stop-color="#ff0"/><stop offset=".878" stop-color="#f93"/></radialGradient><radialGradient gradientUnits="userSpaceOnUse" r="819.2" cx="0" cy="0" spreadMethod="pad" gradientTransform="matrix(.006 -.002 .002 .007 133.1 60.05)" id="e"><stop offset=".659" stop-color="#f93"/><stop offset=".847" stop-color="#ff0"/><stop offset=".878" stop-color="#f93"/></radialGradient><linearGradient gradientUnits="userSpaceOnUse" x1="-819.2" x2="819.2" gradientTransform="matrix(-.037 .003 -.004 -.052 99.35 42.85)" id="f"><stop offset="0" stop-color="#D98651"/><stop offset=".533" stop-color="#DFA168"/><stop offset="1" stop-color="#D98651"/></linearGradient><radialGradient gradientUnits="userSpaceOnUse" r="819.2" cx="0" cy="0" spreadMethod="pad" gradientTransform="matrix(.005 0 0 .005 96.65 35.4)" id="g"><stop offset="0" stop-color="#fff"/><stop offset=".275"/></radialGradient><radialGradient gradientUnits="userSpaceOnUse" r="819.2" cx="0" cy="0" spreadMethod="pad" gradientTransform="matrix(.005 0 0 .005 121.55 34.15)" id="h"><stop offset="0" stop-color="#fff"/><stop offset=".275"/></radialGradient><radialGradient gradientUnits="userSpaceOnUse" r="819.2" cx="0" cy="0" spreadMethod="pad" gradientTransform="matrix(.044 0 0 .044 124.05 34.5)" id="i"><stop offset="0" stop-color="#fff"/><stop offset="1"/></radialGradient><linearGradient gradientUnits="userSpaceOnUse" x1="-819.2" x2="819.2" gradientTransform="matrix(.056 0 0 .041 96.45 22.05)" id="j"><stop offset=".141" stop-color="#c00"/><stop offset=".753" stop-color="#f30"/></linearGradient><linearGradient gradientUnits="userSpaceOnUse" x1="-819.2" x2="819.2" spreadMethod="unknown" gradientTransform="matrix(.032 0 0 .02 98 21.65)" id="k"><stop offset="0" stop-color="#633"/><stop offset=".525" stop-color="#963"/><stop offset="1" stop-color="#6B3833"/></linearGradient><linearGradient gradientUnits="userSpaceOnUse" x1="-819.2" x2="819.2" spreadMethod="unknown" gradientTransform="matrix(.033 0 0 .019 99.55 25.1)" id="l"><stop offset="0" stop-color="#633"/><stop offset=".525" stop-color="#963"/><stop offset="1" stop-color="#6B3833"/></linearGradient><linearGradient gradientUnits="userSpaceOnUse" x1="-819.2" x2="819.2" spreadMethod="unknown" gradientTransform="matrix(.021 .008 -.002 .007 178 210.9)" id="m"><stop offset="0" stop-color="#633"/><stop offset=".525" stop-color="#963"/><stop offset="1" stop-color="#6B3833"/></linearGradient><radialGradient gradientUnits="userSpaceOnUse" r="819.2" cx="0" cy="0" spreadMethod="pad" gradientTransform="matrix(.079 0 0 .079 83 226.3)" id="n"><stop offset="0" stop-color="#333"/><stop offset="1"/></radialGradient><linearGradient gradientUnits="userSpaceOnUse" x1="-819.2" x2="819.2" spreadMethod="unknown" gradientTransform="matrix(.057 .02 -.023 .065 92.25 258.25)" id="o"><stop offset="0" stop-color="#633"/><stop offset=".525" stop-color="#963"/><stop offset="1" stop-color="#6B3833"/></linearGradient><linearGradient gradientUnits="userSpaceOnUse" x1="-819.2" x2="819.2" spreadMethod="unknown" gradientTransform="matrix(.011 .004 -.006 .018 20.3 236.7)" id="p"><stop offset="0" stop-color="#633"/><stop offset=".525" stop-color="#963"/><stop offset="1" stop-color="#6B3833"/></linearGradient><linearGradient gradientUnits="userSpaceOnUse" x1="-819.2" x2="819.2" spreadMethod="unknown" gradientTransform="matrix(.012 .004 -.002 .004 16.85 255.55)" id="q"><stop offset="0" stop-color="#633"/><stop offset=".525" stop-color="#963"/><stop offset="1" stop-color="#6B3833"/></linearGradient><linearGradient gradientUnits="userSpaceOnUse" x1="-819.2" x2="819.2" spreadMethod="unknown" gradientTransform="matrix(.014 .005 -.003 .008 15.3 263.65)" id="r"><stop offset="0" stop-color="#633"/><stop offset=".525" stop-color="#963"/><stop offset="1" stop-color="#6B3833"/></linearGradient><linearGradient gradientUnits="userSpaceOnUse" x1="-819.2" x2="819.2" spreadMethod="unknown" gradientTransform="matrix(.017 .006 -.001 .003 14.15 272.85)" id="s"><stop offset="0" stop-color="#633"/><stop offset=".525" stop-color="#963"/><stop offset="1" stop-color="#6B3833"/></linearGradient><linearGradient gradientUnits="userSpaceOnUse" x1="-819.2" x2="819.2" spreadMethod="unknown" gradientTransform="matrix(.018 .006 -.002 .007 14.15 278.25)" id="t"><stop offset="0" stop-color="#633"/><stop offset=".525" stop-color="#963"/><stop offset="1" stop-color="#6B3833"/></linearGradient><linearGradient gradientUnits="userSpaceOnUse" x1="-819.2" x2="819.2" spreadMethod="unknown" gradientTransform="matrix(.015 .005 -.002 .005 11.85 275.95)" id="u"><stop offset="0" stop-color="#633"/><stop offset=".525" stop-color="#963"/><stop offset="1" stop-color="#6B3833"/></linearGradient><linearGradient gradientUnits="userSpaceOnUse" x1="-819.2" x2="819.2" spreadMethod="unknown" gradientTransform="matrix(.01 0 0 .01 35.7 369)" id="v"><stop offset="0" stop-color="#633"/><stop offset=".525" stop-color="#963"/><stop offset="1" stop-color="#6B3833"/></linearGradient><linearGradient gradientUnits="userSpaceOnUse" x1="-819.2" x2="819.2" spreadMethod="unknown" gradientTransform="matrix(.024 0 0 .012 63.75 364)" id="w"><stop offset="0" stop-color="#633"/><stop offset=".525" stop-color="#963"/><stop offset="1" stop-color="#6B3833"/></linearGradient><linearGradient gradientUnits="userSpaceOnUse" x1="-819.2" x2="819.2" spreadMethod="unknown" gradientTransform="matrix(.003 0 0 .005 43.4 360.15)" id="x"><stop offset="0" stop-color="#633"/><stop offset=".525" stop-color="#963"/><stop offset="1" stop-color="#6B3833"/></linearGradient><linearGradient gradientUnits="userSpaceOnUse" x1="-819.2" x2="819.2" spreadMethod="unknown" gradientTransform="matrix(.012 0 0 .009 52.6 391.7)" id="y"><stop offset="0" stop-color="#633"/><stop offset=".525" stop-color="#963"/><stop offset="1" stop-color="#6B3833"/></linearGradient><linearGradient gradientUnits="userSpaceOnUse" x1="-819.2" x2="819.2" spreadMethod="unknown" gradientTransform="matrix(.022 0 0 .026 65.3 394.8)" id="z"><stop offset="0" stop-color="#633"/><stop offset=".525" stop-color="#963"/><stop offset="1" stop-color="#6B3833"/></linearGradient><linearGradient gradientUnits="userSpaceOnUse" x1="-819.2" x2="819.2" spreadMethod="unknown" gradientTransform="matrix(.019 .007 -.007 .018 139.55 349.4)" id="A"><stop offset="0" stop-color="#633"/><stop offset=".525" stop-color="#963"/><stop offset="1" stop-color="#6B3833"/></linearGradient><linearGradient gradientUnits="userSpaceOnUse" x1="-819.2" x2="819.2" spreadMethod="unknown" gradientTransform="matrix(.011 .004 -.005 .015 165.7 358.25)" id="B"><stop offset="0" stop-color="#633"/><stop offset=".525" stop-color="#963"/><stop offset="1" stop-color="#6B3833"/></linearGradient><linearGradient gradientUnits="userSpaceOnUse" x1="-819.2" x2="819.2" spreadMethod="unknown" gradientTransform="matrix(.021 0 0 .026 141.85 368.25)" id="C"><stop offset="0" stop-color="#633"/><stop offset=".525" stop-color="#963"/><stop offset="1" stop-color="#6B3833"/></linearGradient><linearGradient gradientUnits="userSpaceOnUse" x1="-819.2" x2="819.2" spreadMethod="unknown" gradientTransform="matrix(.013 0 0 .005 132.25 372.5)" id="D"><stop offset="0" stop-color="#633"/><stop offset=".525" stop-color="#963"/><stop offset="1" stop-color="#6B3833"/></linearGradient><linearGradient gradientUnits="userSpaceOnUse" x1="-819.2" x2="819.2" spreadMethod="unknown" gradientTransform="matrix(.011 .004 -.003 .007 155.7 379.8)" id="E"><stop offset="0" stop-color="#633"/><stop offset=".525" stop-color="#963"/><stop offset="1" stop-color="#6B3833"/></linearGradient><linearGradient gradientUnits="userSpaceOnUse" x1="-819.2" x2="819.2" spreadMethod="unknown" gradientTransform="matrix(.008 .003 -.007 .02 186.1 232.8)" id="F"><stop offset="0" stop-color="#633"/><stop offset=".525" stop-color="#963"/><stop offset="1" stop-color="#6B3833"/></linearGradient><linearGradient gradientUnits="userSpaceOnUse" x1="-819.2" x2="819.2" spreadMethod="unknown" gradientTransform="matrix(.014 .005 -.003 .01 189.15 249.4)" id="G"><stop offset="0" stop-color="#633"/><stop offset=".525" stop-color="#963"/><stop offset="1" stop-color="#6B3833"/></linearGradient><linearGradient gradientUnits="userSpaceOnUse" x1="-819.2" x2="819.2" spreadMethod="unknown" gradientTransform="matrix(.011 .004 -.005 .013 194.55 259.8)" id="H"><stop offset="0" stop-color="#633"/><stop offset=".525" stop-color="#963"/><stop offset="1" stop-color="#6B3833"/></linearGradient><linearGradient gradientUnits="userSpaceOnUse" x1="-819.2" x2="819.2" spreadMethod="unknown" gradientTransform="matrix(.011 .004 -.003 .01 197.25 264.4)" id="I"><stop offset="0" stop-color="#633"/><stop offset=".525" stop-color="#963"/><stop offset="1" stop-color="#6B3833"/></linearGradient><linearGradient gradientUnits="userSpaceOnUse" x1="-819.2" x2="819.2" spreadMethod="unknown" gradientTransform="matrix(.014 .005 -.005 .015 211.85 272.85)" id="J"><stop offset="0" stop-color="#633"/><stop offset=".525" stop-color="#963"/><stop offset="1" stop-color="#6B3833"/></linearGradient><linearGradient gradientUnits="userSpaceOnUse" x1="-819.2" x2="819.2" spreadMethod="unknown" gradientTransform="matrix(-.016 .013 .005 .007 157.25 418.25)" id="K"><stop offset="0" stop-color="#633"/><stop offset=".525" stop-color="#963"/><stop offset="1" stop-color="#6B3833"/></linearGradient><linearGradient gradientUnits="userSpaceOnUse" x1="-819.2" x2="819.2" spreadMethod="unknown" gradientTransform="matrix(.007 .002 -.005 .013 174.15 441.35)" id="L"><stop offset="0" stop-color="#633"/><stop offset=".525" stop-color="#963"/><stop offset="1" stop-color="#6B3833"/></linearGradient><linearGradient gradientUnits="userSpaceOnUse" x1="-819.2" x2="819.2" spreadMethod="unknown" gradientTransform="matrix(.034 .012 -.004 .011 176.1 450.55)" id="M"><stop offset="0" stop-color="#633"/><stop offset=".525" stop-color="#963"/><stop offset="1" stop-color="#6B3833"/></linearGradient><linearGradient gradientUnits="userSpaceOnUse" x1="-819.2" x2="819.2" spreadMethod="unknown" gradientTransform="matrix(.006 0 0 .009 69.95 405.15)" id="N"><stop offset="0" stop-color="#633"/><stop offset=".525" stop-color="#963"/><stop offset="1" stop-color="#6B3833"/></linearGradient><linearGradient gradientUnits="userSpaceOnUse" x1="-819.2" x2="819.2" spreadMethod="unknown" gradientTransform="matrix(.014 0 0 .013 59.55 437.5)" id="O"><stop offset="0" stop-color="#633"/><stop offset=".525" stop-color="#963"/><stop offset="1" stop-color="#6B3833"/></linearGradient><linearGradient gradientUnits="userSpaceOnUse" x1="-819.2" x2="819.2" spreadMethod="unknown" gradientTransform="matrix(.024 0 0 .01 59.55 476.7)" id="P"><stop offset="0" stop-color="#633"/><stop offset=".525" stop-color="#963"/><stop offset="1" stop-color="#6B3833"/></linearGradient><linearGradient gradientUnits="userSpaceOnUse" x1="-819.2" x2="819.2" spreadMethod="unknown" gradientTransform="matrix(.021 0 0 .01 58.4 462.1)" id="Q"><stop offset="0" stop-color="#633"/><stop offset=".525" stop-color="#963"/><stop offset="1" stop-color="#6B3833"/></linearGradient><linearGradient gradientUnits="userSpaceOnUse" x1="-819.2" x2="819.2" spreadMethod="unknown" gradientTransform="matrix(.007 .002 -.006 .017 -3.55 290.15)" id="R"><stop offset="0" stop-color="#633"/><stop offset=".525" stop-color="#963"/><stop offset="1" stop-color="#6B3833"/></linearGradient></defs><path fill="url(#a)" d="M129.75 39.2l1.5-1.15q1.15-.75 2.1 3.1.95 3.8.5 9.2L133.2 55l-.4-.05v.6l.05.4-.45.55q0 .35-1.35.95l.45-.35-.6-.6-.65-.65-.65.7.35-3.15.15-2.25q0-6.2-.35-11.95"/><path fill="url(#b)" d="M124.05 32.65l-.8-.1.65.05.15.05"/><path fill="url(#c)" d="M126.95 28.2q1.75.65 1.75 2.05l-.2 1.05-.2 1.15v-.2q-.25-.45-.25-1.5h-9.35l-2.6 1q-1.8.8-2.6.55l-.2-.9q.15-2.85 1.05-3.35 1-.55 1.5-.6l4.05-.45 1.15.05q.7.15 1.55.85h1.3l-.65-1.1h.25l1.5 1.3-.4-.65 2.35.75M92 25.85l2.95-.15v.25l-.45.4 5.7.5q3.8 1.8 4.2 2.95l.65 1.65q.2.6-.4 1-.2.85-.45.25-1.05-2.05-3.7-2.3l-6-.1h-.2l-8.45.4q-4.95.95-4.2 4.4l.3.95-1.05-2.4q-.35-.75-.35-1.5 0-4.2 3.2-6.05 2.55-1.5 5.95-1.05h.45l-.15.25-.05.2q-.45 0-.45.45l2.5-.1"/><path fill="url(#d)" d="M80.6 63.05v.35q0 2.15-1.25 3.65-1.3 1.55-3.1 1.55t-3.1-1.55q-1.25-1.5-1.25-3.65t1.25-3.65q.75-.85 1.65-1.2l.15-.05.4.85.35.7-.2.05q-.75.2-1.3.85-.9 1-.9 2.45 0 1.45.9 2.45.85 1.05 2.05 1.05 1.2 0 2.1-1.05.85-1 .85-2.45 0-1-.4-1.75l-.45-.7q-.5-.6-1.15-.8l.25-1.15.2-.5q.9.35 1.7 1.25.6.7.9 1.55l.35 1.75"/><path fill="url(#e)" d="M133.2 55l1.65.6q1.65 1 2.35 3.05.65 2.05 0 3.85-.75 1.9-2.45 2.45-1.7.6-3.45-.45-1.65-1-2.3-3.05l-.1-.4q-.55-1.85.05-3.45.25-.6.65-1.05l.65-.7.65.65.6.6-.45.35-.7 1q-.55 1.2-.05 2.55.45 1.35 1.6 2.05 1.15.7 2.3.3 1.15-.35 1.65-1.65.5-1.25.05-2.6-.5-1.35-1.6-2-.7-.45-1.35-.4l-.1-.75-.05-.4v-.6l.4.05"/><path fill="url(#f)" d="M74.8 58.55q-.7-1.5-2.5-3.5-2.15-2.4-2.85-5.25.35-2.5-.55-2.9-.65-5 .9-7.7.75-1.55 2.3-1.55 0-7.3.35-10.35.2-2.85.85-5.75.65-3.05 1.85-6.2 2.3-5.75 6.5-8.45 2.7-1.95 8.45-5Q94.35-.8 103.55.35q8.1.4 12.7 3.1 3.85 1.9 7.7 10.35l2.75 7.75 1.85 6.9q.8 3.85 1.2 10.75.35 5.75.35 11.95l-.15 2.25-2.05 1.7-2.2 1.95-1.25 2.2q-1.2 1.8-1.9 1.8-.4 0-1.8-2l-1.5-2.15-2.35 1.4-1.85.4-2.1.1.9-.8.25-.15-.25.15-.9.8H105.55l-1.3-.05q-3.9-.2-4.75-.95l-.05-.05-1.5 1.05-1.7 1.4q-.65.85-1.15 2.5-.2.8-1.45.8-2.2 0-5.35-3.05-3.15-3.1-4.3-3.1-1.35 0-2.25.65-1.1.75-1.1 2.1l.05.95.05.65-.25-.55-.25.15q-.3-.85-.9-1.55-.8-.9-1.7-1.25l-.2.5-.25 1.15q.65.2 1.15.8l.45.7-1.35-.15q-1.3-.5-1.95-1.4l.2-.05-.35-.7-.4-.85-.15.05m3.95-12.6q-.15 4.2.45 8.55.5 4.1 1.5 6.55-1-2.45-1.5-6.55-.6-4.35-.45-8.55m48.2-17.75l-2.35-.75.4.65-1.5-1.3h-.25l.65 1.1h-1.3q-.85-.7-1.55-.85L119.9 27l-4.05.45q-.5.05-1.5.6-.9.5-1.05 3.35l.2.9q.8.25 2.6-.55l2.6-1h9.35q0 1.05.25 1.5v.2l.2-1.15.2-1.05q0-1.4-1.75-2.05m-8.55 4.4q-.75.35-1.6 1.1l-2.85 2.7q2.8.9 4.55.9l2.4-.05 1.7-.25q2.7-.6 3-3v-.35q-.7-.75-1.55-1l-.15-.05-.65-.05-1.9-.15-2.95.25.05-.05h-.05M92 25.85l-2.5.1q0-.45.45-.45l.05-.2.15-.25h-.45q-3.4-.45-5.95 1.05-3.2 1.85-3.2 6.05 0 .75.35 1.5l1.05 2.4-.3-.95q-.75-3.45 4.2-4.4l8.45-.4h.2l6 .1q2.65.25 3.7 2.3.25.6.45-.25.6-.4.4-1l-.65-1.65q-.4-1.15-4.2-2.95l-5.7-.5.45-.4v-.25l-2.95.15m1.95 7.9l.1-.05q-1.8.15-3.2.8-1.45.6-1.9 1.4l-.5.65.9 1q.65.55 1.75.9l4 .3h.85l.65-.05q2.85-.25 5.65-1.45.45-.2.85-.45l-2.7-2-1.05-.45-1.6-.8-3.8.2M115.2 56.6l.2-.25q.85-1.3.55-2.35l-2.15-6.45q-1.9-5.55-2.75-12.95.85 7.4 2.75 12.95l2.15 6.45q.3 1.05-.55 2.35l-.2.25-1.1 1.25q.45-.1.65.3l1.95-.5.05-.45q-.25-.75-1-.75l-.55.15m1.05-4.95q1.9 1.6 2.1 2.45l.05.95q0 1.05-.4 1.9l-1.1 1.35 1.1-1.35q.4-.85.4-1.9l-.05-.95q-.2-.85-2.1-2.45m-11.45.75l-2.2 2.5q-.15.15-.15.7 0 .8.8 1.95.85 1.15 2.3 1.25-1.45-.1-2.3-1.25-.8-1.15-.8-1.95 0-.55.15-.7l2.2-2.5m4.25 5.8l1.5.2q-1.6-1.15-1.8-1.15l-1.55-.15-1.65.2.05.8 1.4.35q.9-.5 2.05-.25h-.1.2-.1.1-.2.1m-31.6-17.45l-3.05-2.3q-1.15-.8-2.3-.8 1.15 0 2.3.8l3.05 2.3"/><path fill="url(#g)" d="M95.7 38.75q-1.05-.1-1.8-.85-.85-.85-.85-2.05 0-1.2.85-2.05l.05-.05 3.8-.2.25.25q.85.85.85 2.05 0 1.2-.85 2.05l-1.4.8-.65.05h-.25"/><path fill="url(#h)" d="M123.25 32.55q.5.7.5 1.65 0 1.2-.85 2.05-.85.85-2.05.85-1.2 0-2.05-.85-.85-.85-.85-2.05 0-.9.45-1.55l2.95-.25 1.9.15"/><path fill="url(#i)" d="M118.4 32.65v-.05h.05l-.05.05"/><path fill="#D88847" d="M128.9 61.05l-2.35 8.65q-2.4 8.15-4.65 11.55-6.05 3.05-13.25 3.8-4.35.1-5.05-1.15-11.65-4.15-16.9-11.15-5.3-7-5.45-10.45v-.1l-.1-.25-.25-.05-.15-.2-.05-.65-.05-.95q0-1.35 1.1-2.1.9-.65 2.25-.65 1.15 0 4.3 3.1 3.15 3.05 5.35 3.05 1.25 0 1.45-.8.5-1.65 1.15-2.5l1.7-1.4 1.5-1.05.05.05q.85.75 4.75.95l1.3.05H112.95l2.1-.1 1.85-.4 2.35-1.4 1.5 2.15q1.4 2 1.8 2 .7 0 1.9-1.8l1.25-2.2 2.2-1.95 2.05-1.7-.35 3.15q-.4.45-.65 1.05-.6 1.6-.05 3.45m-47.75.9l-.45-.9.45.9m39.25 5.6q-1.3-2.05-2.95-2.05l-4.4.15-6.05.7q-1.25 0-2.5.65l-3.2 1.95 3.2-1.95q1.25-.65 2.5-.65l6.05-.7 4.4-.15q1.65 0 2.95 2.05"/><path fill="#fff" d="M123.25 32.55l.8.1q.85.25 1.55 1V34q-.3 2.4-3 3l-1.7.25-2.4.05q-1.75 0-4.55-.9l2.85-2.7q.85-.75 1.6-1.1v.05q-.45.65-.45 1.55 0 1.2.85 2.05.85.85 2.05.85 1.2 0 2.05-.85.85-.85.85-2.05 0-.95-.5-1.65m-29.3 1.2l-.05.05q-.85.85-.85 2.05 0 1.2.85 2.05.75.75 1.8.85h-.6l-4-.3q-1.1-.35-1.75-.9l-.9-1 .5-.65q.45-.8 1.9-1.4 1.4-.65 3.2-.8l-.1.05m2.65 4.95l1.4-.8q.85-.85.85-2.05 0-1.2-.85-2.05l-.25-.25 1.6.8 1.05.45 2.7 2q-.4.25-.85.45-2.8 1.2-5.65 1.45"/><path fill="#965321" d="M115.2 56.6l.55-.15q.75 0 1 .75l-.05.45-1.95.5q-.2-.4-.65-.3l1.1-1.25m-6.15 1.6q-1.15-.25-2.05.25l-1.4-.35-.05-.8 1.65-.2 1.55.15q.2 0 1.8 1.15l-1.5-.2"/><path fill="url(#j)" d="M77.25 3.95Q75.3 2.45 73.4 2.8l-1.95.4q-6.5 3.45-14.2 3.1-2.7-.4-5-1.2l-1.55-.35q6.15-.4 10.4-1.55l3.45-1.15q4.6-2.7 7.7-3.1l1.9-.35q4.25 0 7.7 1.9l2.7 2.3q.75-5-4.6-8.45-2.7-1.55-5.4-2.3 6.55 0 13.85 3.85 3.85 1.9 6.55 3.85.35-6.55 9.2-10 4.25-1.15 8.45-1.55-4.6.75-7.3 5l-.75 1.9-.8 1.95.8-1.95 2.7-1.9q4.2-1.9 10-.75 6.5 2.3 9.2 2.65l1.15.4q-5.35 2.7-10.35 2.3l-3.1-.75-1.15-.4Q115.3-2.2 123.4.1q4.2 1.55 7.7 2.35 6.5.75 9.2 5 1.15 1.5 1.55 3.05l.4 1.15-.4-.75q-.75-1.15-1.9-1.95-3.85-3.05-11.2-1.9 6.2 4.25 7.7 12.7.8 3.85 3.5 6.15l2.3 1.15q-5 .75-10.8-2.7-2.7-1.9-4.6-3.85 0-1.9-1.15-4.2l-1.15-1.55-.4-.4q0-1.15-1.15-4.25h-.4q0-.35-.35-.75-.4-1.15-.8-1.55-19.6-6.15-36.5 5.8-5.4 3.85-9.65 8.85l-3.45 4.6-.4 10.75.8-.75.35.75q2.35 5.4 2.35 8.1 0 1.9-2.35 3.45l-2.65 1.55q.75-2.3-.8-8.45l-.4-.8q0 2.3-.75 5.4-2.3 6.15-8.05 8.45 2.65-1.55 4.6-13.85.75-5.75.75-11.15-.35 9.6-5.75 14.6-1.95 1.95-3.85 3.1l-1.55.4q2.7-2.3 4.25-4.65 3.45-5.35 4.2-14.6l1.55-13.05q2.3-6.95 7.7-10.4 3.1-1.55 5.4-1.95 1.5 1.15 2.7 3.1-1.2-1.95-2.7-3.1m6.9 1.15l.4-1.9v-.4.4l-.4 1.9m40.4-.35q2.3 1.15 4.2 2.3-1.9-1.15-4.2-2.3M67.6 37.05l1.15 4.6-1.15-4.6"/><path fill="url(#k)" d="M71.45 37.8l.4-10.75 3.45-4.6q4.25-5 9.65-8.85 16.9-11.95 36.5-5.8.4.4.8 1.55.35.4.35.75h.4q1.15 3.1 1.15 4.25-1.9-1.15-3.85-1.9l-2.3-.8q-1.55-.75-3.05-1.15-13.1-3.45-25 5.4-.4 0-.8.4-1.55 1.15-3.05 2.65h-.4q-4.6 4.65-8.85 10.4l-1.55 2.3-3.05 5v.4l-.8.75"/><path fill="url(#l)" d="M72.25 37.05v-.4l3.05-5 1.55-2.3q4.25-5.75 8.85-10.4h.4q1.5-1.5 3.05-2.65.4-.4.8-.4 11.9-8.85 25-5.4 1.5.4 3.05 1.15l2.3.8q1.95.75 3.85 1.9l.4.4 1.15 1.55q1.15 2.3 1.15 4.2v.8q-6.55-4.25-16.15-4.65h-.4l-3.85.4q-3.45.4-6.5 1.55-1.95.75-4.25 1.9-10 5-18.85 18.45v1.15q-1.55-1.9-3.1-2.3H72.6l-.35-.75m0-.4l.35 1.15-.35-1.15"/><path fill="url(#m)" d="M195.3 217.8v-.35q-3.05-1.55-8.45-3.1-11.15-3.45-23.45-2.7l-2.3-1.9q-.8-1.15-.8-1.95-.35-1.15 0-2.3l15.4.8q6.15.35 10.4 1.5 7.3 1.55 9.6 4.25.4.75.4 2.3 0 2.3-.8 3.45"/><path fill="url(#n)" d="M54.55 210.9q48.85 10.4 73.45 6.55 7.7-1.15 11.95-3.85l2.65-1.95q4.25 6.55 4.65 6.55l-.4 1.9q-.75 3.85-.75 4.65-1.15 5-5.4 5-1.55 0-3.1-.8l-1.15-.35q-1.5 8.1-8.85 6.95-2.3-.4-5-1.6l-2.3-1.15q-5.75 8.55-13.85 4.7-2.7-1.15-5-3.55l-1.9-1.9q-6.95 8.1-13.45 4.3-2.35-1.55-4.25-3.9l-1.55-1.95q-7.3 8.5-13.05 3.45-1.95-1.5-3.1-4.2l-1.15-2.3q-2.3 2.65-7.3 2.3l-3.85-.8h-.4l-.75-.75-.75-1.15q-.4-.75 1.9-8.45v-.4q.4-.4.4-1.15l1.5-3.85v-.4l.8-1.9"/><path fill="url(#o)" d="M51.85 228.95l3.85.8q5 .35 7.3-2.3l1.15 2.3q1.15 2.7 3.1 4.2Q73 239 80.3 230.5l1.55 1.95q1.9 2.35 4.25 3.9 6.5 3.8 13.45-4.3l1.9 1.9q2.3 2.4 5 3.55 8.1 3.85 13.85-4.7l2.3 1.15q2.7 1.2 5 1.6 7.35 1.15 8.85-6.95l1.15.35q1.55.8 3.1.8 4.25 0 5.4-5l2.3 5.75 8.05 21.6-15 16.15-17.7 4.25-11.5 6.9q-10.4 9.6-11.55 11.55-.4 1.15-7.3.75l-6.15-.35-10 .35q-3.85.4-6.95 1.15-6.55 1.15-4.6 1.15 3.05 0-27.3 7.35l2.3-7.35q1.55-9.2.4-20-.4-3.45 1.9-9.6 3.45-9.6 5.75-19.6l3.1-15.05v-.8"/><path fill="url(#p)" d="M22.25 232.45l10.35-8.5q.4.4.4 1.55l-1.55 7.7q-.75 2.75-5 6.2-2.7 2.3-7.3 4.6-.75.8-1.55.8v.35l-5.75 2.7L8.4 249v-5.75l5.35-3.85 8.5-6.95"/><path fill="url(#q)" d="M8.4 249l19.2 6.15-.75 3.5q-.4 1.9-.75 1.9h-.4q-.4-1.15-10-3.05l-9.6-1.55L8.4 249"/><path fill="url(#r)" d="M26.1 260.55h1.5q.8 5.4 0 5.4l-8.45-.8q-10-.75-16.9.8l-.8-.4 1.95-6.15 22.3 1.15h.4"/><path fill="url(#s)" d="M2.25 265.95l23.45 10.4-25.75-5.8 1.15-5h.35l.8.4"/><path fill="url(#t)" d="M25.7 276.35l1.15.35.75.4 1.15.4h.4q.4 1.15.4 3.85-7.3.35-14.6 0-14.65-.4-15.4-3.1l-.4-.4q-.4-1.15-.4-2.7l26.95 1.2"/><path fill="url(#u)" d="M25.7 276.35l-26.95-1.2q0-1.15.4-2.3l.8-2.3 25.75 5.8"/><path fill="url(#v)" d="M44.15 364.4q-3.05 0-6.15 7.3-1.55 3.85-2.3 4.65-1.15 1.5-2.3-.4-2.3-3.1-4.25-2.3l-1.9 1.5q0-4.6 6.9-10 3.45-2.65 6.95-4.2.35 0 .35.4.4 1.15 2.7 2.65v.4"/><path fill="url(#w)" d="M44.15 364.4v-.4l1.55-7.3v-.35l.75-1.95 4.25 1.95q5 1.9 10 3.45 15.75 4.2 22.7-1.15l.35 15H83l-8.05.35q-5.4.4-11.2 0-19.6-1.15-20-8.05l.4-1.55"/><path fill="url(#x)" d="M41.1 360.95q-.8-1.95 1.9-3.45 1.15-.8 2.7-1.15v.35l-1.55 7.3q-2.3-1.5-2.7-2.65 0-.4-.35-.4"/><path fill="url(#y)" d="M56.1 398.65l-5.8-2.3q-5.75-2.35-6.15-3.85L43 387.85l-.4-3.05q19.25 6.15 20.4 6.9-1.9 1.95-3.85 4.25l-3.05 2.7"/><path fill="url(#z)" d="M56.1 398.65l3.05-2.7q1.95-2.3 3.85-4.25 8.85-10.35 11.95-17.7l8.05-.35-1.55 9.2q-.75 5.4-10 14.65l-.35.35-5.8 5.4q-5.35 5-11.15 9.25-5 3.85-5 3.45l-1.55-8.85 8.5-8.45"/><path fill="url(#A)" d="M156.45 347.85q-5.35 3.85-11.9 6.95-15.8 7.3-24.25 4.6v-3.05q.4-3.5 1.15-6.2.4-1.15 2.3-.75l6.2.75q11.9.4 27.3-11.5l.35 2.3.8 5.4v.35l-1.95 1.15"/><path fill="url(#B)" d="M158.75 348.25q2.35-3.45 2.35-5.4 3.05 1.15 10.35 9.65 6.95 8.45 3.1 6.9-3.1-1.15-6.55 8.45-1.55 3.85-1.55 4.25-.35.75.4-3.1 1.15-7.65-3.1-15-1.5-2.3-3.45-4.2l-1.55-1.55"/><path fill="url(#C)" d="M158.75 348.25q.4 1.55.4 3.45l-.4 5q0 6.95-6.9 15.4l-5 5.4q-.4 0-.4.35-4.6 4.65-11.15 8.85l-5.35 3.1-3.85-4.25-1.55-2.3q5.75-1.55 11.15-6.55 3.85-3.05 7.3-7.3v-.4q5-6.15 10.4-16.15l3.05-5 1.95-1.15v-.35q.35.75.35 1.9"/><path fill="url(#D)" d="M135.7 376.7H123q-1.9 0-1.9-4.2 0-1.95.35-3.85l21.55.75q-3.45 4.25-7.3 7.3"/><path fill="url(#E)" d="M151.85 372.1l5.75 2.7q5.8 3.05 6.55 4.6.8 1.55-.75 5.75l-1.15 3.85q0-3.45-7.7-7.65l-8.1-3.5q0-.35.4-.35l5-5.4"/><path fill="url(#F)" d="M195.3 217.8l.8 2.3q.35 2.35-.4 5.8-4.25 3.85-8.45 8.5l-5.8 6.55q-3.45 4.2-3.45 6.15v.4l-1.15.35q0-.35-.4-.75-.35-1.55-1.5-3.85l1.5-2.7 3.85-6.95q6.95-10.8 14.65-15.8h.35"/><path fill="url(#G)" d="M178 247.5h.4l21.15-3.5 1.9 6.55q-5-.75-15 1.15l-10.35 1.95q0-3.85.75-5.8l1.15-.35"/><path fill="url(#H)" d="M201.45 250.55q1.55 0 3.1 3.85l.75 2.3.4 1.95-20 9.6-.75.4-2.7-3.5 6.9-6.9q7.7-7.3 12.3-7.7"/><path fill="url(#I)" d="M206.85 264l-20.4 5.4-.75-1.15 20-9.6 2.3 5-1.15.35"/><path fill="url(#J)" d="M206.85 264l1.15-.35-2.3-5-.4-1.95q4.25 1.55 10 14.65l5 12.65q-3.05-1.5-6.55.4l-3.05 1.95q1.9-2.7-.75-12.7v-.4l-3.1-9.25"/><path fill="url(#K)" d="M167.25 407.85l-.8 2.3q-1.15 3.1-3.05 6.55-5.8 10-15 17.7l-1.15-2.3q-.8-2.7.35-5.4.8-2.7 10-13.85l8.5-10.35.35 1.5q.8 1.95.8 3.85"/><path fill="url(#L)" d="M168.4 448.65q-.8-5 0-9.25 1.15-3.85 3.45-6.15 2.3-2.3 5-2.7 0-.4 1.15 0 1.55.8 3.1 1.95 4.2 3.05-1.15 3.85-5.4.35-6.2 8.8-.35 3.85.4 8.1l-5.75-4.6"/><path fill="url(#M)" d="M168.4 448.65l5.75 4.6h.4q4.2 3.1 8.45 5.4 4.6 2.7 8.85 2.3.75-.4 5.4-1.95 1.15 0 4.2-5.35 2.7-4.65 3.1-2.7.4 1.9 0 5.75l-.8 3.45q-1.5 3.85-9.6 4.25h-7.7q-10.75-2.3-18.45-8.85-2.3-1.9-4.25-4.2l-1.15-1.95q-4.2-.4-10-3.45l-5-2.7 1.55-4.25q0 3.5 7.7 5l5.75.8q3.1.75 3.85 1.55.8 1.15 1.95 2.3"/><path fill="url(#N)" d="M71.45 397.5l1.55 2.65q1.95 3.1 1.95 3.85-1.2 2.7-2.7 8.5.35-1.95-3.1-5.8l-3.85-3.45 5.8-5.4.35-.35"/><path fill="url(#O)" d="M49.15 433.65q-.4 0-.75-1.95-.4-2.7.75-4.6l10.4 3.85q10.4 4.6 11.15 8.05.4 13.1-.4 7.35-.75-3.5-10.75-8.5l-10.4-4.2"/><path fill="url(#P)" d="M78.4 469l.75.4.4 2.7q0 3.05-.4 4.6 0 1.55-1.9 3.45l-2.3 1.55Q60.3 485.95 50.3 484q-6.9-1.15-9.6-3.85-1.15-1.5-.4-3.45l.4-1.9q.75 1.55 1.55 2.3l.75.75L53.75 479q10.8.8 15 .4 3.85-.75 7.35-5.4 1.5-2.65 2.3-5"/><path fill="url(#Q)" d="M73 454.8q1.55 1.55 2.3 3.45 0 1.15.4 1.9-12.7-3.45-24.6 2.7-3.85 2.3-6.95 5l-2.7 2.3q.4-4.2 3.1-7.65 1.15-1.95 2.7-2.7 6.9-5.8 17.3-5.8 5-.35 8.45.8"/><path fill="url(#R)" d="M-.85 277.85q-2.3 1.95-2.7 8.1l2.3 15-8.45 2.7.4-10.8q0-2.7.4-5.35 1.9-7.7 7.65-12.35 0 1.55.4 2.7"/><path fill="none" stroke="#77411A" stroke-width=".05" stroke-linecap="round" stroke-linejoin="round" d="M74.8 58.55q-.7-1.5-2.5-3.5-2.15-2.4-2.85-5.25.35-2.5-.55-2.9-.65-5 .9-7.7.75-1.55 2.3-1.55 0-7.3.35-10.35.2-2.85.85-5.75.65-3.05 1.85-6.2 2.3-5.75 6.5-8.45 2.7-1.95 8.45-5Q94.35-.8 103.55.35q8.1.4 12.7 3.1 3.85 1.9 7.7 10.35l2.75 7.75 1.85 6.9q.8 3.85 1.2 10.75l1.5-1.15q1.15-.75 2.1 3.1.95 3.8.5 9.2L133.2 55m-52.05 6.95l-.25-.05-.15-.2-.15 1.35m-5.1-2.95q.65.9 1.95 1.4l1.35.15m1.45-.35l.25-.15.25.55m-.05-.65l.45.9m51.7-6l-.45.55q0 .35-1.35.95m-1.3-18.25q.35 5.75.35 11.95l-.15 2.25-.35 3.15m-57.5-18.9q1.15 0 2.3.8l3.05 2.3"/><path fill="none" stroke="#930B00" stroke-width=".05" stroke-linecap="round" stroke-linejoin="round" d="M126.95 28.2l-2.35-.75.4.65-1.5-1.3h-.25l.65 1.1h-1.3q-.85-.7-1.55-.85L119.9 27l-4.05.45q-.5.05-1.5.6-.9.5-1.05 3.35l.2.9q.8.25 2.6-.55l2.6-1h9.35q0 1.05.25 1.5v.2l.2-1.15.2-1.05q0-1.4-1.75-2.05M92 25.85l-2.5.1q0-.45.45-.45l.05-.2.15-.25h-.45q-3.4-.45-5.95 1.05-3.2 1.85-3.2 6.05 0 .75.35 1.5l1.05 2.4-.3-.95q-.75-3.45 4.2-4.4l8.45-.4h.2l6 .1q2.65.25 3.7 2.3.25.6.45-.25.6-.4.4-1l-.65-1.65q-.4-1.15-4.2-2.95l-5.7-.5.45-.4v-.25l-2.95.15"/><path fill="none" stroke="#A86335" stroke-width=".05" stroke-linecap="round" stroke-linejoin="round" d="M124.05 32.65l-.8-.1-1.9-.15-2.95.25.05-.05h-.05q-.75.35-1.6 1.1l-2.85 2.7q2.8.9 4.55.9l2.4-.05 1.7-.25q2.7-.6 3-3v-.35q-.7-.75-1.55-1l-.15-.05-.65-.05m-29.3 1.2l.1-.05q-1.8.15-3.2.8-1.45.6-1.9 1.4l-.5.65.9 1q.65.55 1.75.9l4 .3h.85l.65-.05m1.15-5.15l-3.8.2m3.8-.2l1.6.8 1.05.45 2.7 2q-.4.25-.85.45-2.8 1.2-5.65 1.45"/><path fill="none" stroke="#8F4F1F" stroke-width=".05" stroke-linecap="round" stroke-linejoin="round" d="M101.3 68.95l3.2-1.95q1.25-.65 2.5-.65l6.05-.7 4.4-.15q1.65 0 2.95 2.05"/><path fill="none" stroke="#BA6927" stroke-width=".05" stroke-linecap="round" stroke-linejoin="round" d="M128.9 61.05l-2.35 8.65q-2.4 8.15-4.65 11.55-6.05 3.05-13.25 3.8-4.35.1-5.05-1.15-11.65-4.15-16.9-11.15-5.3-7-5.45-10.45v-.1l-.1-.25m-.45-.9q-1-2.45-1.5-6.55-.6-4.35-.45-8.55"/><path fill="none" stroke="#965321" stroke-width=".05" stroke-linecap="round" stroke-linejoin="round" d="M114.75 58.15q-.2-.4-.65-.3m-5.05.35h.1-.2.1"/><path fill="none" stroke="#8B4D1F" stroke-width=".05" stroke-linecap="round" stroke-linejoin="round" d="M111.05 34.6q.85 7.4 2.75 12.95l2.15 6.45q.3 1.05-.55 2.35l-.2.25-1.1 1.25-.25.15-.9.8m3.95-.5l1.1-1.35q.4-.85.4-1.9l-.05-.95q-.2-.85-2.1-2.45m-10.7 7.15q-1.45-.1-2.3-1.25-.8-1.15-.8-1.95 0-.55.15-.7l2.2-2.5"/><path fill="none" stroke="#B96628" stroke-width=".05" stroke-linecap="round" stroke-linejoin="round" d="M105.35 70.4l7.45-.45q4-.1 6.15-2.45"/><path fill="none" stroke="#BB682B" stroke-width=".05" stroke-linecap="round" stroke-linejoin="round" d="M116.75 39.85q2.5-1.45 4.5-1.95l5.25-.3M103.4 41.5q-5.45-1.4-9.7-1.45l-4.85.25"/><path fill="none" stroke="#000" stroke-width=".05" stroke-linecap="round" stroke-linejoin="round" d="M72.25 37.05v-.4m4.6 3.45q.4 0 .4.4M13.7 219.95l.45.55h.4q.4.4.75.4m.4.4v-.4q-.4 0-.4-.4l-.1-.55m-2.95 7.5v-.4m0 3.45v-.75h.35"/><path fill="none" stroke="#00f" stroke-width=".05" stroke-linecap="round" stroke-linejoin="round" d="M15.3 220.9q0 .4.4.4"/><path fill="none" stroke="#820300" stroke-width=".05" stroke-linecap="round" stroke-linejoin="round" d="M84.55 2.8L81.85.5q-3.45-1.9-7.7-1.9l-1.9.35q-3.1.4-7.7 3.1L61.1 3.2q-4.25 1.15-10.4 1.55l1.55.35q2.3.8 5 1.2 7.7.35 14.2-3.1l1.95-.4q1.9-.35 3.85 1.15 1.5 1.15 2.7 3.1m24.6-11.95l.75-1.9q2.7-4.25 7.3-5-4.2.4-8.45 1.55-8.85 3.45-9.2 10-2.7-1.95-6.55-3.85-7.3-3.85-13.85-3.85 2.7.75 5.4 2.3 5.35 3.45 4.6 8.45v.4l-.4 1.9m20.4-10l-.8 1.95m25 10q7.35-1.15 11.2 1.9 1.15.8 1.9 1.95l.4.75-.4-1.15q-.4-1.55-1.55-3.05-2.7-4.25-9.2-5-3.5-.8-7.7-2.35-8.1-2.3-10.4-3.45l1.15.4 3.1.75q5 .4 10.35-2.3l-1.15-.4q-2.7-.35-9.2-2.65-5.8-1.15-10 .75l-2.7 1.9m19.6 19.25q0-1.15-1.15-4.25h-.4q0-.35-.35-.75-.4-1.15-.8-1.55-19.6-6.15-36.5 5.8-5.4 3.85-9.65 8.85l-3.45 4.6-.4 10.75m55.4-17.3q1.9 1.95 4.6 3.85 5.8 3.45 10.8 2.7l-2.3-1.15q-2.7-2.3-3.5-6.15-1.5-8.45-7.7-12.7-1.9-1.15-4.2-2.3m-47.3-.8q-2.3.4-5.4 1.95-5.4 3.45-7.7 10.4L62.6 29.35q-.75 9.25-4.2 14.6-1.55 2.35-4.25 4.65l1.55-.4q1.9-1.15 3.85-3.1 5.4-5 5.75-14.6 0 5.4-.75 11.15-1.95 12.3-4.6 13.85 5.75-2.3 8.05-8.45.75-3.1.75-5.4l-1.15-4.6m1.15 4.6l.4.8q1.55 6.15.8 8.45l2.65-1.55q2.35-1.55 2.35-3.45 0-2.7-2.35-8.1l-.35-.75"/><path fill="none" stroke="#532C26" stroke-width=".05" stroke-linecap="round" stroke-linejoin="round" d="M72.25 36.65l3.05-5 1.55-2.3q4.25-5.75 8.85-10.4h.4q1.5-1.5 3.05-2.65.4-.4.8-.4 11.9-8.85 25-5.4 1.5.4 3.05 1.15l2.3.8q1.95.75 3.85 1.9l.4.4 1.15 1.55q1.15 2.3 1.15 4.2M72.6 37.8h1.15q1.55.4 3.1 2.3v-1.15Q85.7 25.5 95.7 20.5q2.3-1.15 4.25-1.9 3.05-1.15 6.5-1.55l3.85-.4h.4q9.6.4 16.15 4.65v-.8M72.6 37.8l-.35-1.15"/><path fill="none" stroke="#592F2B" stroke-width=".05" stroke-linecap="round" stroke-linejoin="round" d="M195.3 217.8v-.35q-3.05-1.55-8.45-3.1-11.15-3.45-23.45-2.7l-2.3-1.9q-.8-1.15-.8-1.95-.35-1.15 0-2.3l15.4.8q6.15.35 10.4 1.5 7.3 1.55 9.6 4.25.4.75.4 2.3 0 2.3-.8 3.45l.8 2.3q.35 2.35-.4 5.8-4.25 3.85-8.45 8.5l-5.8 6.55q-3.45 4.2-3.45 6.15v.4h.4l21.15-3.5 1.9 6.55q1.55 0 3.1 3.85l.75 2.3q4.25 1.55 10 14.65l5 12.65q-3.05-1.5-6.55.4l-3.05 1.95q1.9-2.7-.75-12.7v-.4l-3.1-9.25-20.4 5.4-.75-1.15-.75.4-2.7-3.5 6.9-6.9q7.7-7.3 12.3-7.7-5-.75-15 1.15l-10.35 1.95q0-3.85.75-5.8 0-.35-.4-.75-.35-1.55-1.5-3.85l1.5-2.7 3.85-6.95q6.95-10.8 14.65-15.8h.35M22.25 232.45l10.35-8.5q.4.4.4 1.55l-1.55 7.7q-.75 2.75-5 6.2-2.7 2.3-7.3 4.6-.75.8-1.55.8v.35l-5.75 2.7L8.4 249l19.2 6.15-.75 3.5q-.4 1.9-.75 1.9h1.5q.8 5.4 0 5.4l-8.45-.8q-10-.75-16.9.8l23.45 10.4 1.15.35.75.4 1.55.4q.4 1.15.4 3.85-7.3.35-14.6 0-14.65-.4-15.4-3.1l-.4-.4q-2.3 1.95-2.7 8.1l2.3 15-8.45 2.7.4-10.8q0-2.7.4-5.35 1.9-7.7 7.65-12.35 0-1.15.4-2.3l.8-2.3 1.15-5h.35l1.95-6.15 22.3 1.15q-.4-1.15-10-3.05l-9.6-1.55L8.4 249v-5.75l5.35-3.85 8.5-6.95m3.45 28.1h.4m-24.65 5l.8.4M27.6 277.1l1.15.4h.4m-29.2-6.95l25.75 5.8-26.95-1.2q0 1.55.4 2.7m45 86.55q-3.05 0-6.15 7.3-1.55 3.85-2.3 4.65-1.15 1.5-2.3-.4-2.3-3.1-4.25-2.3l-1.9 1.5q0-4.6 6.9-10 3.45-2.65 6.95-4.2-.8-1.95 1.9-3.45 1.15-.8 2.7-1.15l.75-1.95 4.25 1.95q5 1.9 10 3.45 15.75 4.2 22.7-1.15l.35 15H83l-1.55 9.2q-.75 5.4-10 14.65l1.55 2.65q1.95 3.1 1.95 3.85-1.2 2.7-2.7 8.5.35-1.95-3.1-5.8l-3.85-3.45q-5.35 5-11.15 9.25-5 3.85-5 3.45l-1.55-8.85 8.5-8.45-5.8-2.3q-5.75-2.35-6.15-3.85L43 387.85l-.4-3.05q19.25 6.15 20.4 6.9 8.85-10.35 11.95-17.7-5.4.4-11.2 0-19.6-1.15-20-8.05l.4-1.55v-.4q-2.3-1.5-2.7-2.65 0-.4-.35-.4m3.05 3.05l1.55-7.3v-.35M63 391.7q-1.9 1.95-3.85 4.25l-3.05 2.7m102.3-52.3l-.8-5.4-.35-2.3q-15.4 11.9-27.3 11.5l-6.2-.75q-1.9-.4-2.3.75-.75 2.7-1.15 6.2v3.05q8.45 2.7 24.25-4.6 6.55-3.1 11.9-6.95l1.95-1.15v-.35q.35.75.35 1.9 2.35-3.45 2.35-5.4 0-1.15-.8-1.5l-1.55-.8-1.15.4M143 369.4v-.4q5-6.15 10.4-16.15l3.05-5m4.65-5q3.05 1.15 10.35 9.65 6.95 8.45 3.1 6.9-3.1-1.15-6.55 8.45-1.55 3.85-1.55 4.25-.35.75.4-3.1 1.15-7.65-3.1-15-1.5-2.3-3.45-4.2l-1.55-1.55q.4 1.55.4 3.45l-.4 5q0 6.95-6.9 15.4l5.75 2.7q5.8 3.05 6.55 4.6.8 1.55-.75 5.75l-1.15 3.85q0-3.45-7.7-7.65l-8.1-3.5q-4.6 4.65-11.15 8.85l-5.35 3.1-3.85-4.25-1.55-2.3q5.75-1.55 11.15-6.55H123q-1.9 0-1.9-4.2 0-1.95.35-3.85l21.55.75q-3.45 4.25-7.3 7.3m16.15-4.6l-5 5.4q-.4 0-.4.35M83 373.65l-8.05.35M205.3 256.7l.4 1.95 2.3 5-1.15.35m-1.15-5.35l-20 9.6M178 247.5l-1.15.35m-9.6 160l-.8 2.3q-1.15 3.1-3.05 6.55-5.8 10-15 17.7l-1.15-2.3q-.8-2.7.35-5.4.8-2.7 10-13.85l8.5-10.35.35 1.5q.8 1.95.8 3.85m6.9 45.4q-.75-4.25-.4-8.1.8-8.45 6.2-8.8 5.35-.8 1.15-3.85-1.55-1.15-3.1-1.95-1.15-.4-1.15 0-2.7.4-5 2.7-2.3 2.3-3.45 6.15-.8 4.25 0 9.25l5.75 4.6h.4q4.2 3.1 8.45 5.4 4.6 2.7 8.85 2.3.75-.4 5.4-1.95 1.15 0 4.2-5.35 2.7-4.65 3.1-2.7.4 1.9 0 5.75l-.8 3.45q-1.5 3.85-9.6 4.25h-7.7q-10.75-2.3-18.45-8.85-2.3-1.9-4.25-4.2l-1.15-1.95q-4.2-.4-10-3.45l-5-2.7 1.55-4.25q0 3.5 7.7 5l5.75.8q3.1.75 3.85 1.55.8 1.15 1.95 2.3M71.45 397.5l-.35.35-5.8 5.4m-16.15 30.4q-.4 0-.75-1.95-.4-2.7.75-4.6l10.4 3.85q10.4 4.6 11.15 8.05.4 13.1-.4 7.35-.75-3.5-10.75-8.5l-10.4-4.2M78.4 469q-.8 2.35-2.3 5-3.5 4.65-7.35 5.4-4.2.4-15-.4L43 477.85l-.75-.75q-.8-.75-1.55-2.3l-.4 1.9q-.75 1.95.4 3.45 2.7 2.7 9.6 3.85 10 1.95 24.65-2.3l2.3-1.55q1.9-1.9 1.9-3.45.4-1.55.4-4.6l-.4-2.7-.75-.4M73 454.8q-3.45-1.15-8.45-.8-10.4 0-17.3 5.8-1.55.75-2.7 2.7-2.7 3.45-3.1 7.65l2.7-2.3q3.1-2.7 6.95-5 11.9-6.15 24.6-2.7-.4-.75-.4-1.9-.75-1.9-2.3-3.45"/><path fill="none" stroke="#533024" stroke-width=".05" stroke-linecap="round" stroke-linejoin="round" d="M146.1 224.75q0-.8.75-4.65l.4-1.9q-.4 0-4.65-6.55l-2.65 1.95q-4.25 2.7-11.95 3.85-24.6 3.85-73.45-6.55m-2.7 7.3v.4q-2.3 7.7-1.9 8.45l.75 1.15.75.75h.4l3.85.8q5 .35 7.3-2.3l1.15 2.3q1.15 2.7 3.1 4.2Q73 239 80.3 230.5l1.55 1.95q1.9 2.35 4.25 3.9 6.5 3.8 13.45-4.3l1.9 1.9q2.3 2.4 5 3.55 8.1 3.85 13.85-4.7l2.3 1.15q2.7 1.2 5 1.6 7.35 1.15 8.85-6.95l1.15.35q1.55.8 3.1.8 4.25 0 5.4-5l2.3 5.75 8.05 21.6-15 16.15-17.7 4.25-11.5 6.9q-10.4 9.6-11.55 11.55-.4 1.15-7.3.75l-6.15-.35-10 .35q-3.85.4-6.95 1.15-6.55 1.15-4.6 1.15 3.05 0-27.3 7.35l2.3-7.35q1.55-9.2.4-20-.4-3.45 1.9-9.6 3.45-9.6 5.75-19.6l3.1-15.05v-.8"/><path fill="none" stroke="#452421" stroke-width=".05" stroke-linecap="round" stroke-linejoin="round" d="M170.7 150.5q0-1.15 1.15-1.9.4-.4.4-.8l.35-.35.4-.4q0-1.55-1.15-2.3-.75-.8-2.3-1.15m3.05 3.85h3.5m.35 11.5q1.15 1.15 1.15 1.95 0 1.15-2.65 2.7-1.95.75-2.35 1.5 0 .4.4.4.4-.75 2.3-1.55 3.1-1.15 3.1-2.3 0-1.9-1.15-2.3l-1.15-.75.35.35m-8.45-9.2h.4v-.4l-.4.4m-3.85 0l-1.55 1.55-.35.35v.8l-.8 1.5v.8h.4q1.55 0 .75.75-.35-.4-.75-.4h-1.15l-1.55.4q0-.75 1.55-.75v-.8q.4-1.15.75-1.5l.4-.8-3.85.4m4.6-.75l-.65.35h.3m8.45 7.7h.75v.4l-.35.35q0-.35-.4-.75m.75 1.15v1.15q.4-.35.4-.75v-.4h-.4m-1.9 6.55v.4h-.4v.35h-.4l.4-.35h-.4l.4-.4-.75.4.35-.4h.8m-.4.4v-.4m11.95-.75l-2.7-.4q-1.95 0-3.45.75-1.2 0-1.95-1.15-.75.8-.75 1.45v.1l1.15 1.55 1.55 1.9h2.3m-4.65-5.4q-.35.8-.35 1.2v.65m4.2 1.65h.4l-.4-.4v.4m-4.2-1.55v.4q0 .75.35 1.5.8.8.8 1.15v.8h.35q.4-.4 1.2-.4v.4q0 1.55-1.2 2.7-1.15.35-1.5.75l.75-1.9q0-.8.4-1.55l-3.45.4m.75 13.8v-.35q-1.5.35-1.55 1.1.05-.35.4-.35l1.15-.4h.75v-.35h-.75m.75.35v.05l.4.35h.4q1.15-.75-.4-.75h-.4m0 5q.8-1.15.8-1.95h-.4v-1.15l-.4-1.15v-.35m-2.7 8.05v3.85m12.35-6.95l-.4-.35h.75v.35h-.35m.35.8v1.15q.4-.4.4-1.15h-.4m-2.7 6.55h.4v-.4h-.4l-.35.75h.35v-.35m.4 0v.35l.4-.35q0-.4-.4-.4m0 .4l-.4.35h.4q0 .4-.4.4v-.4m7.7-8.45q1.15 1.15 1.15 1.95 0 .75-2.65 2.3-1.95 1.15-2.35 1.9l.4.4q.4-1.15 2.3-1.95 3.1-.75 3.1-2.3 0-1.55-1.15-2.3-.4-.4-1.15-.75l.35.75m-6.5 11.95l3.45-.4v-.8l-.8-1.15q-.35-.75-.35-1.5v-1.15q0-.4.35-.8m-.35 1.55q0-.75.75-1.15.75.75 3.1 0l2.3.4h2.7M20.7 140.5h3.45v-.4q0-1.5.8-2.3.75-.75 2.3-1.15m-3.1 3.85q0 .4.4.4.4.4.4.75 1.15.8 1.15 1.95m6.5-.8l1.55 1.55.2.2.6.2q.35 0 .75.35h3.05M38 159.75v-3.45l.4-1.55-.4-1.15-1.15-1.55q-.4 0-.4-.4-.75 0-1.15-.35v-.8l.4-.75.4-1.55h-1.15l-.4.4-1.15.35q0-1.15 1.55-1.15h.75v-.75l-.75-1.55-.4-.4v-.35l-.2-.2m1.35 3.25h.4q0-1.5-.4-2.3h-.4l-.35-.75q-.4 0-.4.35m1.55 3.1v-.4m-.4 0v.4m-9.6 4.25q-.4.35-.4.75h-.4V152.8q0-.35.4-.35h.4m-.8.35h.4v.4q-.4 0-.4-.35m.4.75v1.15q-.75-.4-.75-.8l.35-.35h.4m-10 5.75l2.7-.4q1.55 0 3.45.8 1.15 0 2.3-1.15-.75-.8-2.7-1.55-.35-.4-.75-.4-1.95-1.15-1.95-1.9 0-1.55.8-2.3l1.15-.8-.4.4q-.75 1.15-.75 1.9 0 .8 1.15 1.95l1.55.75q1.5.8 2.3 1.55l.4 1.15-.4.75v.4q0 .8-.4 1.55l-.4 1.15v.75l3.1.4m-2.3-6.15l-.4.4q.4.75.4 1.5l-1.15 1.55q-1.15 1.55-1.15 1.95.35.35.75.35h.75v1.55q.8 1.15 1.2 2.3l-1.55-1.15q-1.55-1.15-1.55-2.7l.4-.35H18m10.4-3.1l-.4-.4v.4h-.4l.4.4h-.4v-.4h-.35v-.4H28m-.4 0v.4m-6.9 1.15h-.75l.75-.35v.35m-2.3 28.85q-1.55.4-2.3 1.15-1.15.8-1.15 2.3v.4q.35 0 .75.4 0 .35.4.75 1.15.8 1.15 1.95m-2.3-3.1h-3.1m8.1 2.3h-.4v-.35l.4.35m141.5-41.55v-.35h-.75v.35m-1.15 3.5q0 1.15-.4 1.9-.75.8-.75 1.15l.35 1.15v3.85m-129.2 32.3l-3.1-.35h-.75q.4.35.75.35v.4q.8.75.8 2.3 1.5 0 1.9.4H26.1q-.4 0-.8.4-1.15.35-1.15-.8h2.3v-.75l-.75-1.55q0-.4-.4-.75v-.4q-.35-.4-1.55-1.15m1.55 1.55h.4l-.4-.4m1.95 3.85v-.4h-.8v.4m1.95 3.45q0 1.15.35 1.95.8.75.8 1.15l-.4 1.15v3.85m-22.7-.4l3.1-.4q1.55 0 3.05.8 1.15 0 2.35-1.15-.8-.8-2.35-1.55-3.05-1.15-3.05-2.3 0-1.55 1.15-2.3h.4v-.4h.35l-.35.4q-.8.75-.8 1.5 0 1.15 2.7 2.7 1.55.8 2.3 1.55l.4 1.15v1.15q0 .75-.75 1.55l-.4 1.15v.75l3.45.4m-1.55-11.15h.4v-.75h-.4v.75m0 .4v1.15q-.35-.4-.35-.8v-.35h.35m3.1 6.9l-.8-.4.4.4h-.4l.4.4h-.4v-.4h-.35l-.4-.4h1.15l.4.4m-.8 0v-.4m-7.3 1.15v.4h-.35l.35-.4m3.75 4.85l-.25-.6q-.4-.75-.4-1.55h-.4q-.75 0-1.15-.35v.35q0 1.2.7 2.15m-3-2.5H13l1.55-1.95 1.15-1.55-.75-1.5q.35 0 .35-.4m1.15 13.05v2.7q.4.4.8.4h.35l-.35-.4q0-.75 1.15-1.5m-6.15.75l.35.4h-.35m.35 2.3v1.15l-.35-.4m8.85-1.55h-1.95q-.4 0-1.55-.75v1.9q.4 0 1.15.8.4 0 .4.4l3.1 1.15m-5.8-2.35V233.2q1.15-.75 1.15-1.9v-1.2l-.35-.35q-.4 0-.8.35v-2.3m170.4-28.85h-.4v-.35h.4v.35q0 1.55-1.9 1.95v.4q0 1.15-1.2 2.3l-.35.25-1.15.9.3-.9.45-1.05q0-.75.4-1.9H184.95l-.8-.8-.75-1.15-1.15-1.9m-.4 25.4l-1.9.35m-18-71.15h-.1"/></svg>