<svg xmlns="http://www.w3.org/2000/svg" viewBox="0 0 141.7 219.3" width="141.7" height="219.3" preserveAspectRatio="xMinYMin"><defs><radialGradient gradientUnits="userSpaceOnUse" r="819.2" cx="0" cy="0" spreadMethod="pad" gradientTransform="matrix(.056 0 0 .056 94.5 154.95)" id="a"><stop offset="0" stop-color="#fff"/><stop offset="1"/></radialGradient><linearGradient gradientUnits="userSpaceOnUse" x1="-819.2" x2="819.2" gradientTransform="matrix(-.026 .014 -.013 -.024 73.7 163)" id="b"><stop offset="0" stop-color="#7F5629"/><stop offset=".192" stop-color="#67411D"/><stop offset=".447" stop-color="#4C2A10"/><stop offset=".6" stop-color="#42210B"/><stop offset=".945"/></linearGradient><linearGradient gradientUnits="userSpaceOnUse" x1="-819.2" x2="819.2" gradientTransform="matrix(-.024 .023 -.024 -.025 72.05 173.7)" id="c"><stop offset="0" stop-color="#7F5629"/><stop offset=".192" stop-color="#67411D"/><stop offset=".447" stop-color="#4C2A10"/><stop offset=".6" stop-color="#42210B"/><stop offset=".945"/></linearGradient><linearGradient gradientUnits="userSpaceOnUse" x1="-819.2" x2="819.2" gradientTransform="matrix(-.027 .008 -.005 -.016 74.35 189.4)" id="d"><stop offset="0" stop-color="#7F5629"/><stop offset=".192" stop-color="#67411D"/><stop offset=".447" stop-color="#4C2A10"/><stop offset=".6" stop-color="#42210B"/><stop offset=".945"/></linearGradient><linearGradient gradientUnits="userSpaceOnUse" x1="-819.2" x2="819.2" gradientTransform="matrix(.023 0 0 .02 123.25 161.6)" id="e"><stop offset="0" stop-color="#7F5629"/><stop offset=".192" stop-color="#67411D"/><stop offset=".447" stop-color="#4C2A10"/><stop offset=".6" stop-color="#42210B"/><stop offset=".945"/></linearGradient><linearGradient gradientUnits="userSpaceOnUse" x1="-819.2" x2="819.2" gradientTransform="matrix(.008 .006 -.006 .008 116.85 189.8)" id="f"><stop offset="0" stop-color="#7F5629"/><stop offset=".192" stop-color="#67411D"/><stop offset=".447" stop-color="#4C2A10"/><stop offset=".6" stop-color="#42210B"/><stop offset=".945"/></linearGradient><linearGradient gradientUnits="userSpaceOnUse" x1="-819.2" x2="819.2" gradientTransform="matrix(.011 .006 -.003 .006 119.9 181.85)" id="g"><stop offset="0" stop-color="#7F5629"/><stop offset=".192" stop-color="#67411D"/><stop offset=".447" stop-color="#4C2A10"/><stop offset=".6" stop-color="#42210B"/><stop offset=".945"/></linearGradient><linearGradient gradientUnits="userSpaceOnUse" x1="-819.2" x2="819.2" gradientTransform="matrix(.033 0 0 .02 74.7 166)" id="h"><stop offset="0" stop-color="#7F5629"/><stop offset=".192" stop-color="#67411D"/><stop offset=".447" stop-color="#4C2A10"/><stop offset=".6" stop-color="#42210B"/><stop offset=".945"/></linearGradient><linearGradient gradientUnits="userSpaceOnUse" x1="-819.2" x2="819.2" gradientTransform="matrix(-.005 .019 -.032 -.008 73.25 166.05)" id="i"><stop offset="0" stop-color="#7F5629"/><stop offset=".192" stop-color="#67411D"/><stop offset=".447" stop-color="#4C2A10"/><stop offset=".6" stop-color="#42210B"/><stop offset=".945"/></linearGradient><linearGradient gradientUnits="userSpaceOnUse" x1="-819.2" x2="819.2" gradientTransform="matrix(.005 .013 -.008 .003 113.95 204.7)" id="j"><stop offset="0" stop-color="#7F5629"/><stop offset=".192" stop-color="#67411D"/><stop offset=".447" stop-color="#4C2A10"/><stop offset=".6" stop-color="#42210B"/><stop offset=".945"/></linearGradient><linearGradient gradientUnits="userSpaceOnUse" x1="-819.2" x2="819.2" gradientTransform="matrix(-.005 .013 -.014 -.006 90.55 201.35)" id="k"><stop offset="0" stop-color="#7F5629"/><stop offset=".192" stop-color="#67411D"/><stop offset=".447" stop-color="#4C2A10"/><stop offset=".6" stop-color="#42210B"/><stop offset=".945"/></linearGradient><linearGradient gradientUnits="userSpaceOnUse" x1="-819.2" x2="819.2" gradientTransform="matrix(-.001 .01 -.011 -.001 103.35 211.5)" id="l"><stop offset="0" stop-color="#7F5629"/><stop offset=".192" stop-color="#67411D"/><stop offset=".447" stop-color="#4C2A10"/><stop offset=".6" stop-color="#42210B"/><stop offset=".945"/></linearGradient><linearGradient gradientUnits="userSpaceOnUse" x1="-819.2" x2="819.2" gradientTransform="matrix(0 -.002 .002 0 102.2 182.4)" id="m"><stop offset="0" stop-color="#7F5629"/><stop offset=".192" stop-color="#67411D"/><stop offset=".447" stop-color="#4C2A10"/><stop offset=".6" stop-color="#42210B"/><stop offset=".945"/></linearGradient><linearGradient gradientUnits="userSpaceOnUse" x1="-819.2" x2="819.2" gradientTransform="matrix(0 -.002 .002 0 102 195)" id="n"><stop offset="0" stop-color="#7F5629"/><stop offset=".192" stop-color="#67411D"/><stop offset=".447" stop-color="#4C2A10"/><stop offset=".6" stop-color="#42210B"/><stop offset=".945"/></linearGradient><linearGradient gradientUnits="userSpaceOnUse" x1="-819.2" x2="819.2" gradientTransform="matrix(0 -.002 .002 0 107.65 195.25)" id="o"><stop offset="0" stop-color="#7F5629"/><stop offset=".192" stop-color="#67411D"/><stop offset=".447" stop-color="#4C2A10"/><stop offset=".6" stop-color="#42210B"/><stop offset=".945"/></linearGradient><linearGradient gradientUnits="userSpaceOnUse" x1="-819.2" x2="819.2" gradientTransform="matrix(0 -.002 .002 0 107.6 182.2)" id="p"><stop offset="0" stop-color="#7F5629"/><stop offset=".192" stop-color="#67411D"/><stop offset=".447" stop-color="#4C2A10"/><stop offset=".6" stop-color="#42210B"/><stop offset=".945"/></linearGradient><linearGradient gradientUnits="userSpaceOnUse" x1="-819.2" x2="819.2" gradientTransform="matrix(0 -.002 .002 0 104.5 206.25)" id="q"><stop offset="0" stop-color="#7F5629"/><stop offset=".192" stop-color="#67411D"/><stop offset=".447" stop-color="#4C2A10"/><stop offset=".6" stop-color="#42210B"/><stop offset=".945"/></linearGradient></defs><path fill="url(#a)" d="M48.75 151.2l1-3.5 1.9-.6 6-.7q7.35-.55 14.1-.05 21.7 1.65 29.65 13.5l3.1 3.75q1.8-4.5 6.6-9.35 9.6-9.75 24.8-11.5l1.2 2.15q-14.55 1.65-24.15 11.5-4.8 4.95-6.7 9.55l-1.25.15-.2.05-2.15.15-.05-.35-.85-1.5q-7.7-12.95-30.35-14.5-7.5-.5-15.8.35l-6.85.9"/><path fill="url(#b)" d="M48.75 151.2l6.85-.9q8.3-.85 15.8-.35 22.65 1.55 30.35 14.5.15 1.15-1.5 3.85l-1.2 1.75L97.8 172l-.05-.05-3.05 3.35q-3.1 3.45-6.15 4.75l-7.05 2.2q-27.75.9-32.7-15.7v-.1q-2.15-6.75-.05-15.25m.1 12.4q-.15 1.3-.05 2.85-.1-1.55.05-2.85"/><path fill="url(#c)" d="M101.75 164.45l.85 1.5.05.35 2.15-.15-.25 2.8-.85 3.5-.6 1.15-2.05 3.05q-7.95 10.5-24 11.9l-.9-.05-5.4-.35q-12.45-1.25-17.9-5.9-1.2-2.95-2.35-6.75-1.55-5.3-1.7-8.95 4.95 16.6 32.7 15.7l7.05-2.2q3.05-1.3 6.15-4.75l3.05-3.35-.1.35.1-.2.05-.1 1.25-1.95 1.2-1.75q1.65-2.7 1.5-3.85"/><path fill="url(#d)" d="M77.2 201.9q-5.65.85-11.55-.25l-5.15-1.4q-2.65-2.8-5.4-10.65l-2.25-7.35q5.45 4.65 17.9 5.9l5.4.35.9.05q16.05-1.4 24-11.9l2.05-3.05.6-1.15.85-3.5.25-2.8.05 2.9.1 10.35v.5l-.05.45-.2 1.85-.85 3.5-.6 1.15-2.05 3.05q-7.75 10.25-23.2 11.85l-.8.05v.1"/><path fill="url(#e)" d="M104.8 166.15l.2-.05 1.25-.15q1.9-4.6 6.7-9.55 9.6-9.85 24.15-11.5l1.3 2.3q2.6 5.4 3.15 10.35 1.75 15.55-16.9 20.5l-.55.15v.05q-9.85.65-15.35-3.15-1.8-1.2-2.85-2.75l-.65-1.1-.15-1.2-.05-.4-.1-.6-.15-2.9"/><path fill="url(#f)" d="M122.85 185.35l-2.95 13.75q-9.85-.85-13.35-10.35l-.9-3.05-.25-1.2-.15-1.2-.05-.4-.1-.6-.15-2.9-.1-10.35h.1l.1.6.05.4.15 1.2.25 1.2.9 3.05q3.5 9.5 13 10.45l.65-.15 2.8-.45"/><path fill="url(#g)" d="M122.85 185.35l-2.8.45-.65.15q-9.5-.95-13-10.45l-.9-3.05-.25-1.2.65 1.1q1.05 1.55 2.85 2.75 5.5 3.8 15.35 3.15l-1.25 7.1"/><path fill="url(#h)" d="M97.75 171.95l.05.05-.05.1v-.15"/><path fill="url(#i)" d="M97.75 171.95v.15l-.1.2.1-.35"/><path fill="url(#j)" d="M119.9 199.1q-3.25.7-5.25 1.8-7.15 3.85-1.3 11.4l-1.25.55q-1.6.15-3.15-1.85-3.6-4.8-3.95-21-.1-3.1-.05-6.55l.05-.15-.1-2.95.05-.45v-.5l.15 2.9.1.6.05.4.15 1.2.25 1.2.9 3.05q3.5 9.5 13.35 10.35"/><path fill="url(#k)" d="M94.4 213.55q3.2-3.75 3.25-7.1.15-6.7-15.4-4.75l-4.6.1.35-.05-.35.05h-.45l.8-.05q15.45-1.6 23.2-11.85l2.05-3.05.6-1.15.85-3.5.2-1.85.1 2.95-.05.15q-.05 3.45.05 6.55-.55 12.35-4.7 18.75-2.85 4.4-5.9 4.8"/><path fill="url(#l)" d="M94.4 213.55q3.05-.4 5.9-4.8 4.15-6.4 4.7-18.75.35 16.2 3.95 21 1.55 2 3.15 1.85l-2.15.85q-3.65 1.85-5 4.2l-1 1.3-1-1q-2.6-3.1-8.55-4.65"/><path fill="url(#m)" d="M102.2 180.45q.75 0 1.35.55.6.55.6 1.4 0 .75-.6 1.35-.6.6-1.35.6-.8 0-1.4-.6-.55-.6-.55-1.35 0-.85.55-1.4.6-.55 1.4-.55"/><path fill="url(#n)" d="M102 193.05q.75 0 1.35.55.6.55.6 1.4 0 .75-.6 1.35-.6.6-1.35.6-.8 0-1.4-.6-.55-.6-.55-1.35 0-.85.55-1.4.6-.55 1.4-.55"/><path fill="url(#o)" d="M107.65 193.3q.75 0 1.35.55.6.55.6 1.4 0 .75-.6 1.35-.6.6-1.35.6-.8 0-1.4-.6-.55-.6-.55-1.35 0-.85.55-1.4.6-.55 1.4-.55"/><path fill="url(#p)" d="M107.6 180.25q.75 0 1.35.55.6.55.6 1.4 0 .75-.6 1.35-.6.6-1.35.6-.8 0-1.4-.6-.55-.6-.55-1.35 0-.85.55-1.4.6-.55 1.4-.55"/><path fill="url(#q)" d="M104.5 204.3q.75 0 1.35.55.6.55.6 1.4 0 .75-.6 1.35-.6.6-1.35.6-.8 0-1.4-.6-.55-.6-.55-1.35 0-.85.55-1.4.6-.55 1.4-.55"/><path fill="none" stroke="#110802" stroke-width=".05" stroke-linecap="round" stroke-linejoin="round" d="M137.1 144.9l-1.2-2.15q-15.2 1.75-24.8 11.5-4.8 4.85-6.6 9.35l-3.1-3.75q-7.95-11.85-29.65-13.5-6.75-.5-14.1.05l-6 .7-1.9.6-1 3.5 6.85-.9q8.3-.85 15.8-.35 22.65 1.55 30.35 14.5l.85 1.5.05.35 2.15-.15.2-.05 1.25-.15q1.9-4.6 6.7-9.55 9.6-9.85 24.15-11.5l1.3 2.3q2.6 5.4 3.15 10.35 1.75 15.55-16.9 20.5l-.55.2-1.25 7.1-2.95 13.75q-3.25.7-5.25 1.8-7.15 3.85-1.3 11.4l-1.25.55-2.15.85q-3.65 1.85-5 4.2l-1 1.3-1-1q-2.6-3.1-8.55-4.65 3.2-3.75 3.25-7.1.15-6.7-15.4-4.75l-4.6.1-.45.1q-5.65.85-11.55-.25l-5.15-1.4q-2.65-2.8-5.4-10.65l-2.25-7.35q-1.2-2.95-2.35-6.75-1.55-5.3-1.7-8.95v-.1q-2.15-6.75-.05-15.25m.05 15.25q-.1-1.55.05-2.85m55.95 2.55l-.25 2.8-.85 3.5-.6 1.15-2.05 3.05q-7.95 10.5-24 11.9l-.9-.05-5.4-.35q-12.45-1.25-17.9-5.9m52.4-11l.25 1.2.9 3.05q3.5 9.5 13 10.45l.65-.15 2.8-.45m1.25-7.1q-9.85.65-15.35-3.15-1.8-1.2-2.85-2.75l-.65-1.1-.15-1.2-.05-.4-.1-.6-.15-2.9.05 2.9.1 10.35.15 2.9.1.6.05.4.15 1.2.25 1.2.9 3.05q3.5 9.5 13.35 10.35m-22.15-27l.05-.1m-.05.1l-.1.2.1-.35-3.05 3.35q-3.1 3.45-6.15 4.75l-7.05 2.2q-27.75.9-32.7-15.7m56.1 13.8l.1 2.95-.05.15q-.05 3.45.05 6.55.35 16.2 3.95 21 1.55 2 3.15 1.85m-7.2-32.5l.05-.45v-.5.5M77.2 201.8l.8-.05q15.45-1.6 23.2-11.85l2.05-3.05.6-1.15.85-3.5.2-1.85m19.2-2.1v-.05l.55-.15m-30.25 35.5q3.05-.4 5.9-4.8 4.15-6.4 4.7-18.75m-27 11.75l-.35.05h-.45"/><path fill="none" stroke="#333" stroke-width=".05" stroke-linecap="round" stroke-linejoin="round" d="M102.2 180.45q.75 0 1.35.55.6.55.6 1.4 0 .75-.6 1.35-.6.6-1.35.6-.8 0-1.4-.6-.55-.6-.55-1.35 0-.85.55-1.4.6-.55 1.4-.55M102 193.05q.75 0 1.35.55.6.55.6 1.4 0 .75-.6 1.35-.6.6-1.35.6-.8 0-1.4-.6-.55-.6-.55-1.35 0-.85.55-1.4.6-.55 1.4-.55M107.65 193.3q.75 0 1.35.55.6.55.6 1.4 0 .75-.6 1.35-.6.6-1.35.6-.8 0-1.4-.6-.55-.6-.55-1.35 0-.85.55-1.4.6-.55 1.4-.55M107.6 180.25q.75 0 1.35.55.6.55.6 1.4 0 .75-.6 1.35-.6.6-1.35.6-.8 0-1.4-.6-.55-.6-.55-1.35 0-.85.55-1.4.6-.55 1.4-.55M104.5 204.3q.75 0 1.35.55.6.55.6 1.4 0 .75-.6 1.35-.6.6-1.35.6-.8 0-1.4-.6-.55-.6-.55-1.35 0-.85.55-1.4.6-.55 1.4-.55"/></svg>