<svg xmlns="http://www.w3.org/2000/svg" viewBox="-18.6 -4.7 233.4 496.3" width="233.4" height="496.3" preserveAspectRatio="xMinYMin"><defs><linearGradient gradientUnits="userSpaceOnUse" x1="-819.2" x2="819.2" gradientTransform="matrix(-.008 -.05 .037 -.006 99.85 41.85)" id="a"><stop offset="0" stop-color="#D98651"/><stop offset=".533" stop-color="#DFA168"/><stop offset="1" stop-color="#D98651"/></linearGradient><linearGradient gradientUnits="userSpaceOnUse" x1="-819.2" x2="819.2" gradientTransform="matrix(-.005 .011 -.005 -.002 131.35 48)" id="b"><stop offset="0" stop-color="#D98651"/><stop offset=".533" stop-color="#DFA168"/><stop offset="1" stop-color="#D98651"/></linearGradient><radialGradient gradientUnits="userSpaceOnUse" r="819.2" cx="0" cy="0" spreadMethod="pad" gradientTransform="matrix(.003 0 0 .003 99 41.4)" id="c"><stop offset=".612" stop-color="#00f"/><stop offset="1"/></radialGradient><radialGradient gradientUnits="userSpaceOnUse" r="819.2" cx="0" cy="0" spreadMethod="pad" gradientTransform="matrix(.003 0 0 .003 122.85 40.05)" id="d"><stop offset=".612" stop-color="#00f"/><stop offset="1"/></radialGradient><linearGradient gradientUnits="userSpaceOnUse" x1="-819.2" x2="819.2" gradientTransform="matrix(-.001 0 .001 -.003 95.05 40.85)" id="e"><stop offset="0" stop-color="#fff"/><stop offset="1" stop-color="#666"/></linearGradient><linearGradient gradientUnits="userSpaceOnUse" x1="-819.2" x2="819.2" gradientTransform="matrix(-.002 0 0 -.003 93.9 41.15)" id="f"><stop offset="0" stop-color="#fff"/><stop offset="1" stop-color="#666"/></linearGradient><linearGradient gradientUnits="userSpaceOnUse" x1="-819.2" x2="819.2" gradientTransform="matrix(.002 0 0 .003 103.65 41)" id="g"><stop offset="0" stop-color="#fff"/><stop offset="1" stop-color="#666"/></linearGradient><linearGradient gradientUnits="userSpaceOnUse" x1="-819.2" x2="819.2" gradientTransform="matrix(-.001 0 0 -.003 118.45 40.1)" id="h"><stop offset="0" stop-color="#fff"/><stop offset="1" stop-color="#666"/></linearGradient><linearGradient gradientUnits="userSpaceOnUse" x1="-819.2" x2="819.2" gradientTransform="matrix(.001 0 .001 .002 126.2 39.3)" id="i"><stop offset="0" stop-color="#fff"/><stop offset="1" stop-color="#666"/></linearGradient><radialGradient gradientUnits="userSpaceOnUse" r="819.2" cx="0" cy="0" spreadMethod="pad" gradientTransform="matrix(.114 0 0 .114 177.8 181.3)" id="j"><stop offset="0" stop-color="#4545FE"/><stop offset=".612" stop-color="#21217B"/><stop offset="1"/></radialGradient><linearGradient gradientUnits="userSpaceOnUse" x1="-819.2" x2="819.2" gradientTransform="matrix(.035 -.086 .045 .019 99.6 35.4)" id="k"><stop offset="0" stop-color="#574F42"/><stop offset="1"/></linearGradient><radialGradient gradientUnits="userSpaceOnUse" r="819.2" cx="0" cy="0" spreadMethod="pad" gradientTransform="matrix(.088 0 0 .088 108.3 7.7)" id="l"><stop offset="0" stop-color="#4545FE"/><stop offset=".612" stop-color="#21217B"/><stop offset="1"/></radialGradient><radialGradient gradientUnits="userSpaceOnUse" r="819.2" cx="0" cy="0" fx="22.4" fy="0" spreadMethod="pad" gradientTransform="matrix(.001 0 0 .001 82.2 50.25)" id="m"><stop offset="0" stop-color="#6c6"/><stop offset=".482" stop-color="#660"/><stop offset=".573" stop-color="#666F09"/><stop offset="1"/></radialGradient><radialGradient gradientUnits="userSpaceOnUse" r="819.2" cx="0" cy="0" fx="22.4" fy="0" spreadMethod="pad" gradientTransform="matrix(.002 0 0 .002 82.25 51.45)" id="n"><stop offset="0" stop-color="#6c6"/><stop offset=".482" stop-color="#660"/><stop offset=".573" stop-color="#666F09"/><stop offset="1"/></radialGradient><radialGradient gradientUnits="userSpaceOnUse" r="819.2" cx="0" cy="0" spreadMethod="pad" gradientTransform="matrix(.063 .355 -.282 .05 57.25 306.15)" id="o"><stop offset="0" stop-color="#4545FE"/><stop offset=".612" stop-color="#21217B"/><stop offset="1"/></radialGradient><linearGradient gradientUnits="userSpaceOnUse" x1="-819.2" x2="819.2" gradientTransform="matrix(.012 .079 -.078 .011 106.55 358.7)" id="p"><stop offset="0" stop-color="#666"/><stop offset=".612" stop-color="#919191"/><stop offset="1"/></linearGradient><radialGradient gradientUnits="userSpaceOnUse" r="819.2" cx="0" cy="0" spreadMethod="pad" gradientTransform="matrix(.112 0 0 .112 34.6 432.75)" id="q"><stop offset="0" stop-color="#0102A0"/><stop offset=".361" stop-color="#21217B"/><stop offset="1"/></radialGradient><linearGradient gradientUnits="userSpaceOnUse" x1="-819.2" x2="819.2" gradientTransform="matrix(.027 0 0 .076 62.05 429.2)" id="r"><stop offset="0" stop-color="#9E5050"/><stop offset="1" stop-color="#515151"/></linearGradient><radialGradient gradientUnits="userSpaceOnUse" r="819.2" cx="0" cy="0" spreadMethod="pad" gradientTransform="matrix(.11 0 0 .11 106.3 401.55)" id="s"><stop offset="0" stop-color="#0203C1"/><stop offset=".337" stop-color="#21217B"/><stop offset="1"/></radialGradient><linearGradient gradientUnits="userSpaceOnUse" x1="-819.2" x2="819.2" gradientTransform="matrix(.056 0 0 .059 168.6 415.35)" id="t"><stop offset="0" stop-color="#9E5050"/><stop offset="1" stop-color="#515151"/></linearGradient></defs><path fill="url(#a)" d="M129.45 58v.4q-.4 3.05-3.45 10-3.5 8.05-6.95 11.15-2.7 3.05-10 2.7l-6.55-1.15q-8.85-4.25-16.15-12.35-3.05-3.45-5-6.5 0-.4-.35-.4-.4-.4-.4-.75-1.15.75-3.05.35-1.9-.75-1.9-2.7 0-1.5-1.15-4.2l-2.3-4.25q-2.3-3.05-2.7-5-1.15-3.45.4-6.15.75-1.55 2.3-1.55 0-7.3.35-10.35.2-2.85.85-5.75.65-3.05 1.85-6.2 2.3-5.75 6.5-8.45 2.7-1.95 8.45-5Q94.45-.85 103.65.3q8.1.4 12.7 3.1 3.85 1.9 7.7 10.35l2.75 7.75 1.85 6.9q.8 3.85 1.2 10.75.35 5.75.35 11.95l-.75 6.9m-51.9-17.3l-3.05-2.3q-1.15-.8-2.3-.8 1.15 0 2.3.8l3.05 2.3"/><path fill="url(#b)" d="M129.85 39.15l1.5-1.15q1.15-.75 1.15 1.15.4 5.75.4 9.25 0 7.3-.4 8.05 0 .4-1.9 1.15l-1.15.4.75-6.9q0-6.2-.35-11.95"/><path fill="#fff" d="M124.15 39.1h.15l.45.2.2.5-.2.45-.2.15-.25.05-.5-.2-.2-.45.2-.5q.15-.15.35-.2m-23.8 1.5l.45.2.2.5-.2.45-.2.15-.25.05q-.3 0-.5-.2l-.2-.45.2-.5.5-.2"/><path d="M100.35 40.6l-.5.2-.2.5.2.45q.2.2.5.2l.25-.05-.4.65-1.05.45q-.6 0-1.05-.45-.45-.45-.45-1.05 0-.6.45-1.05.45-.45 1.05-.45.6 0 1.05.45l.15.15m24.2-.2l-.45.75q-.45.45-1.05.45-.6 0-1.05-.45-.45-.45-.45-1.05 0-.6.45-1.05.45-.45 1.05-.45.6 0 1.05.45l.05.05q-.2.05-.35.2l-.2.5.2.45.5.2.25-.05"/><path fill="url(#c)" d="M100.4 39.25l.35.3q.75.75.75 1.8t-.75 1.8l-.6.45-.4.15-.45.15h-.35q-1.05 0-1.8-.75t-.75-1.8q0-1.05.75-1.8.6-.6 1.35-.7l1.9.4m-.05 1.35l-.15-.15q-.45-.45-1.05-.45-.6 0-1.05.45-.45.45-.45 1.05 0 .6.45 1.05.45.45 1.05.45l1.05-.45.4-.65.2-.15.2-.45-.2-.5-.45-.2"/><path fill="url(#d)" d="M124.4 42.1l-2.55.4-.85-.6q-.75-.75-.75-1.8t.75-1.8q.35-.35.8-.55l2.25.1.55.45q.75.75.75 1.8t-.75 1.8l-.2.2m.15-1.7l.2-.15.2-.45-.2-.5-.45-.2h-.15l-.05-.05q-.45-.45-1.05-.45-.6 0-1.05.45-.45.45-.45 1.05 0 .6.45 1.05.45.45 1.05.45.6 0 1.05-.45l.45-.75"/><path fill="url(#e)" d="M98.95 43.9h.35l-.35.05v-.05"/><path fill="url(#f)" d="M98.95 43.9v.05q-3.25.6-7-2.4l.65-.95q.85-.9 2.1-1.4l3.8-.35q-.75.1-1.35.7-.75.75-.75 1.8t.75 1.8q.75.75 1.8.75"/><path fill="url(#g)" d="M100.15 43.6l.6-.45q.75-.75.75-1.8t-.75-1.8l-.35-.3q2.2.65 4.85 2.15-1.85 1.1-5.1 2.2"/><path fill="url(#h)" d="M121.85 42.5q-2.5-.1-5.9-1.65 1.65-1.35 3.65-2.4 1.1-.55 2.2-.7-.45.2-.8.55-.75.75-.75 1.8t.75 1.8l.85.6"/><path fill="url(#i)" d="M124.05 37.85q1.55.4 3.15 1.6l-.45.85q-.65.9-1.65 1.45l-.7.35.2-.2q.75-.75.75-1.8t-.75-1.8l-.55-.45"/><path fill="#630" d="M116.6 59.9q-.75.55-1.3.2l-.5-.7q2.1-.7 2.4-.4l-.05.4-.55.5m-8.2-.65l3.1-.05-.15.45q-.5.5-1.95.6-.85-.55-1-1"/><path fill="#574F42" d="M127.35 36.45q-.65-1.05-2.7-1.8l-2.35-.3q-3.85 2.85-7.1 3.15l-.85-2.3q7-2.8 8.7-2.8.85 0 1.4.5l4.15 1.65-.25 1.6q-.35 1.35-1 .3m-30.6-3.35l10.05 2.3v3.15l-10.9-2.5q-3.85.25-4.85.95-1.05.7-1.25 2.1-.2 1.35-1.85-1.8L94 33.5l2.75-.4"/><path fill="url(#j)" d="M150.8 92.25q8.85 2 15.85 9.4l3.95 4.9 1.3 2.15 2.4 18.4 5.6 12.8 10.4 37.6 8.8 64.05-38.4 29.6v-16l2.4-35.25-17.6-56 1.4-4.55q3-4.2 5.95-17.5 1.5-6.65 2.35-12.5l-4.4-37.1"/><path fill="url(#k)" d="M81.35 46l-.3-1.05q-.4-1.2-1.1-1.95l-3.1-3.95q-.8-.85-3.55-.85l-2.05.35q-.7.45-.7 1.85 0 1.85 1.95 6.25 2.25 5.15 2.9 8.8.45 2.4 1.9 3.5.5.4 2.75 1.35 3.5 1.45 3.3 6.95v8.25l-.5-.5q-1.5-5.35-6.2-10.8-5.7-6.55-6.8-8.75Q67 49.7 66.05 44.4q-.7-4.1-.7-11.8 0-5.15.3-7.55.85-7.15 1.9-11.75 1.05-4.6 3.9-7.45 2.8-2.85 9.1-6.7Q86.8-4.7 101.5-4.7t22.05 7.05q7.35 7 8.85 11.65 1.45 4.6 1.45 15.15l-.15 13.7-1-.05q-.05-1.3-1.65-4.25h-.1l-1.95.1q-.5-9.65-1.8-15.75-1.35-6.1-5.5-5.6t-7.25 2.95q-3.1 2.4-18-.75-8.55-1.55-11.3.55-2.8 2.1-3.9 5.25-1.1 3.1-.4 8.5l.75 6.1.4 6-.65.1"/><path fill="url(#l)" d="M81.35 46l.65-.1.15 3.85v.45l-.05-.3-.5-2.75-.25-1.15m52.35-3.15q-.05 1.25-.85 4.2-.45-2.95-.15-4.25l1 .05m-2.75-4.3q-.2.05-.65.3t.15 9.8l-1.45-10 1.95-.1"/><path fill="#574F42" d="M113.2 61.15l3.95.3q4.35.45 4.75 3.3l.9 7.85q.45 5-3.45 10.9-3.9 5.9-5.75 7.6l-5.6-5.2-5.5-5.05q-1.8-1.5-2.35-5.5-.6-4.05-.6-7.05t2.35-4.55q2.35-1.6 6.45-2.15l.7-.15 2.15-.3q-.3.1.35 1 .65.9.1 2.4l-5 .75q-3.25.6-3.65 2.3-.45 1.7-.35 3.95.05 2.25 3.7 2.95 3.65.65 4.1.05.45-.65.25-3.7l.8.15.45-.35 1.65.4q0 1.3.5 2.5.65 1.6 3.3 1.3 2.65-.35 2.7-2.7l.1-4.25q0-1.85-2.5-2.7l-4.05-.25q-1.05-2.8-.45-3.8"/><path fill="url(#m)" d="M82.15 49.75l.15 1-.15-.55v-.45"/><path fill="url(#n)" d="M82.3 50.75v1.95l-.15-2.5.15.55"/><path fill="url(#o)" d="M146.9 159.35q-3 4.2-4.2 9.35l-.6 4.35.65 24.85 1.3 19.45 1.25 7-.45.6-13.9 17.6L116.6 255l-11.45 26.5-32.55 34.4-12.1 8.3L49.35 336l-1.6 4.8-.65 1-8.95 13-7 13.1L27 400.75l1.3 16.9-12.45 42.4L5.4 470.7l-24 5.45 12.55-23.95q13.1-24.85 15.7-29.4 2.65-4.55 11.5-32.55l8.35-27.1 7.35-39.75 6.25-36.6 5.25-36.65 6.25-33.55 2.1-34.5q18.95-14.35 50.75-56.55 15.8-21 27.85-39.15l8.75 1.5 6.7 4.15.05.2 4.4 37.1q-.85 5.85-2.35 12.5-2.95 13.3-5.95 17.5"/><path fill="url(#p)" d="M144.85 224.95l12.55 36.75 1.95 29.05v12.1l-1.3 22.3.8 5.9 4 26q1.2.95 1.95 2.5 1.5 3-.7 5.8-.6.75-2.6 1.45-8.1 2.8-39.05 4.15h-.2l-3.75.15-.95-5.45-1.9-19.75-1.25-8-5.45-10.8-6.15-15.95-1.5 5.75-7.35 19.1-6.65 13.1-1.95 10.5v11.8l-.95.35-4.8 1.55-5.4-.95-11.5-.95-5.6.1-5.85-.1-3.95-1.25-2.75-1-1.55-2.3-.35-.55 2.55-9.55 1.25-6.4.65-8.55.65-1 1.6-4.8 11.15-11.8 12.1-8.3 32.55-34.4L116.6 255l14.35-12.45 13.9-17.6M109.9 283.4l-7.1 27.65v.1-.1l7.1-27.65"/><path fill="url(#q)" d="M45.3 460.55q-6.1 2.2-30.55 8L5.4 470.7l10.45-10.65 12.45-42.4-1.3-16.9 4.15-32.85 7-13.1 8.95-13-.65 8.55-1.25 6.4-2.55 9.55.35.55-1 16.05 3.85 17.85 3.5 23.6-1.3 12.75.65 7 .95 4.15-1.9 9.55-2.45 2.75"/><path fill="url(#r)" d="M45.3 460.55l2.45-2.75 1.9-9.55-.95-4.15-.65-7 1.3-12.75-3.5-23.6L42 382.9l1-16.05 1.55 2.3 2.75 1 3.95 1.25 5.85.1 5.6-.1 11.5.95 5.4.95 4.8-1.55L81.2 388l-6.35 22.95-1.3 8.3-.3 17.55-1.3 5.7v6.7l2 4 .05.15 3.4 7 2.55 7.35-4.15 10.2-22.95 13.7L42 481.4l-2.25-8.3 2.25-8.9 3.3-3.65q2.15-.8 2-1.15.15.35-2 1.15"/><path fill="url(#s)" d="M139.75 404.55l-6.6 16.95-7.95 13.35-12.1 13.75-39.1 4.6h-.05l-2-4v-6.7l1.3-5.7.3-17.55 1.3-8.3L81.2 388l3.2-16.25.95-.35v-11.8l1.95-10.5 6.65-13.1 7.35-19.1 1.5-5.75 6.15 15.95 5.45 10.8 1.25 8 1.9 19.75.95 5.45 3.75-.15.25.9 4 16.45 3.6 3.15q3.95 3.65 5.95 6.45 1.6 2.2 3.6 6.45l.1.2m-17.1-25.8l-.15-6.9.15 6.9"/><path fill="url(#t)" d="M161.5 366.8l8.65 55.3 14.35 12.45 16.25 8.3 4.8 3.15 9.25 9.9-16.25 6.4-10.5 1.6-17.85-10.85-3.1-3q-3.4-2.95-4.6-2.75-1.2.2-8.05-1.8l-6.6-2.05V430.7l-3.8-15.6q-2.35-6.3-4.3-10.55l-.1-.2q-2-4.25-3.6-6.45-2-2.8-5.95-6.45l-3.6-3.15-4-16.45-.05-.9q30.95-1.35 39.05-4.15"/><path fill="none" stroke="#77411A" stroke-width=".05" stroke-linecap="round" stroke-linejoin="round" d="M129.85 39.15l1.5-1.15q1.15-.75 1.15 1.15.4 5.75.4 9.25 0 7.3-.4 8.05 0 .4-1.9 1.15l-1.15.4v.4q-.4 3.05-3.45 10-3.5 8.05-6.95 11.15-2.7 3.05-10 2.7l-6.55-1.15q-8.85-4.25-16.15-12.35-3.05-3.45-5-6.5 0-.4-.35-.4-.4-.4-.4-.75-1.15.75-3.05.35-1.9-.75-1.9-2.7 0-1.5-1.15-4.2l-2.3-4.25q-2.3-3.05-2.7-5-1.15-3.45.4-6.15.75-1.55 2.3-1.55 0-7.3.35-10.35.2-2.85.85-5.75.65-3.05 1.85-6.2 2.3-5.75 6.5-8.45 2.7-1.95 8.45-5Q94.45-.85 103.65.3q8.1.4 12.7 3.1 3.85 1.9 7.7 10.35l2.75 7.75 1.85 6.9q.8 3.85 1.2 10.75.35 5.75.35 11.95l-.75 6.9M72.2 37.6q1.15 0 2.3.8l3.05 2.3"/><path fill="none" stroke="#8E5027" stroke-width=".05" stroke-linecap="round" stroke-linejoin="round" d="M124.05 37.85q1.55.4 3.15 1.6l-.45.85q-.65.9-1.65 1.45l-.7.35-2.55.4q-2.5-.1-5.9-1.65 1.65-1.35 3.65-2.4 1.1-.55 2.2-.7l2.25.1m-23.9 5.75q3.25-1.1 5.1-2.2-2.65-1.5-4.85-2.15l-1.9-.4m.45 5.05h.35l.45-.15.4-.15-.85.3-.35.05q-3.25.6-7-2.4l.65-.95q.85-.9 2.1-1.4l3.8-.35m13.85-.95q-.25 4.8 2.85 10.15 3.35 7.65 1.75 9.25l-4.2 2.95m3.85-.35l1.8-.7q1.3-.85-.4-2.95m-10.5 0l-1.15 1.25q-.6 1.5 2 2.95m-4.05 8.15l1.85-.95q3.4-.3 5.5.1l3.35-.2q1.25-.6 1.95-.5l2.2.35q1.45.25.85.9m-13.25 1.5q1.65 1 2.85 1.2h3l3.9-.55q1.35-.5 1.75-1.5M91.55 40.65l.45-.9q.7-1.05 1.9-1.55 3.95-1.65 11.75 2.4M115.95 39.9l3.95-2.5q4.55-1.9 7.65 1.2M108.7 39.55l.85 1.95q.7 2.6.05 5.85"/><path fill="none" stroke="#000" stroke-width=".05" stroke-linecap="round" stroke-linejoin="round" d="M81.35 46l-.3-1.05q-.4-1.2-1.1-1.95l-3.1-3.95q-.8-.85-3.55-.85l-2.05.35q-.7.45-.7 1.85 0 1.85 1.95 6.25 2.25 5.15 2.9 8.8.45 2.4 1.9 3.5.5.4 2.75 1.35 3.5 1.45 3.3 6.95v8.25l-.5-.5q-1.5-5.35-6.2-10.8-5.7-6.55-6.8-8.75Q67 49.7 66.05 44.4q-.7-4.1-.7-11.8 0-5.15.3-7.55.85-7.15 1.9-11.75 1.05-4.6 3.9-7.45 2.8-2.85 9.1-6.7Q86.8-4.7 101.5-4.7t22.05 7.05q7.35 7 8.85 11.65 1.45 4.6 1.45 15.15l-.15 13.7q-.05 1.25-.85 4.2-.45-2.95-.15-4.25-.05-1.3-1.65-4.25h-.1q-.2.05-.65.3t.15 9.8l-1.45-10q-.5-9.65-1.8-15.75-1.35-6.1-5.5-5.6t-7.25 2.95q-3.1 2.4-18-.75-8.55-1.55-11.3.55-2.8 2.1-3.9 5.25-1.1 3.1-.4 8.5l.75 6.1.4 6 .15 3.85.15 1v1.95l-.15-2.5-.05-.3-.5-2.75-.25-1.15M74 453.2h-.05m39.7-388.25l4.05.25q2.5.85 2.5 2.7l-.1 4.25q-.05 2.35-2.7 2.7-2.65.3-3.3-1.3-.5-1.2-.5-2.5l-1.65-.4-.45.35-.8-.15q.2 3.05-.25 3.7-.45.6-4.1-.05-3.65-.7-3.7-2.95-.1-2.25.35-3.95.4-1.7 3.65-2.3l5-.75m-29.5-14.8v.45l.15.55m40.2 321.1l.15 6.9m-.4-7.8l.25.9"/><path fill="none" stroke="#131348" stroke-width=".05" stroke-linecap="round" stroke-linejoin="round" d="M150.8 92.25q8.85 2 15.85 9.4l3.95 4.9 1.3 2.15 2.4 18.4 5.6 12.8 10.4 37.6 8.8 64.05-38.4 29.6v-16l2.4-35.25-17.6-56 1.4-4.55q-3 4.2-4.2 9.35l-.6 4.35.65 24.85 1.3 19.45 1.25 7-.45.6m-5.1 179.6l-6.6 16.95-7.95 13.35-12.1 13.75-39.1 4.6m-28.7 7.35q-6.1 2.2-30.55 8L5.4 470.7l-24 5.45 12.55-23.95q13.1-24.85 15.7-29.4 2.65-4.55 11.5-32.55l8.35-27.1 7.35-39.75 6.25-36.6 5.25-36.65 6.25-33.55 2.1-34.5q18.95-14.35 50.75-56.55 15.8-21 27.85-39.15l8.75 1.5 6.7 4.15.05.2 4.4 37.1q-.85 5.85-2.35 12.5-2.95 13.3-5.95 17.5M47.1 341.8l-8.95 13-7 13.1L27 400.75l1.3 16.9-12.45 42.4L5.4 470.7"/><path fill="none" stroke="#5F5050" stroke-width=".05" stroke-linecap="round" stroke-linejoin="round" d="M161.5 366.8l8.65 55.3 14.35 12.45 16.25 8.3 4.8 3.15 9.25 9.9-16.25 6.4-10.5 1.6-17.85-10.85-3.1-3q-3.4-2.95-4.6-2.75-1.2.2-8.05-1.8l-6.6-2.05V430.7l-3.8-15.6q-2.35-6.3-4.3-10.55m-65.8 48.65l.05.15 3.4 7 2.55 7.35-4.15 10.2-22.95 13.7L42 481.4l-2.25-8.3 2.25-8.9 3.3-3.65q2.15-.8 2-1.15M43 366.85l-1 16.05 3.85 17.85 3.5 23.6-1.3 12.75.65 7 .95 4.15-1.9 9.55-2.45 2.75m39.1-88.8L81.2 388l-6.35 22.95-1.3 8.3-.3 17.55-1.3 5.7v6.7l2 4m48.55-81.35l4 16.45 3.6 3.15q3.95 3.65 5.95 6.45 1.6 2.2 3.6 6.45l.1.2m-17.25-32.7l-.05-.9"/><path fill="none" stroke="#333" stroke-width=".05" stroke-linecap="round" stroke-linejoin="round" d="M122.45 370.95q30.95-1.35 39.05-4.15m-16.65-141.85l12.55 36.75 1.95 29.05v12.1l-1.3 22.3.8 5.9 4 26q1.2.95 1.95 2.5 1.5 3-.7 5.8-.6.75-2.6 1.45M111.55 62.15q-.65-.9-.35-1l-2.15.3-.7.15q-4.1.55-6.45 2.15-2.35 1.55-2.35 4.55t.6 7.05q.55 4 2.35 5.5l5.5 5.05 5.6 5.2q1.85-1.7 5.75-7.6 3.9-5.9 3.45-10.9l-.9-7.85q-.4-2.85-4.75-3.3l-3.95-.3m31.65 163.8l-13.9 17.6L116.6 255l-11.45 26.5-32.55 34.4-12.1 8.3L49.35 336l-1.6 4.8-.65 1-.65 8.55-1.25 6.4-2.55 9.55.35.55 1.55 2.3 2.75 1 3.95 1.25 5.85.1 5.6-.1 11.5.95 5.4.95 4.8-1.55.95-.35v-11.8l1.95-10.5 6.65-13.1 7.35-19.1 1.5-5.75v-.1l7.1-27.65m-7.1 27.75l6.15 15.95 5.45 10.8 1.25 8 1.9 19.75.95 5.45 3.75-.15h.2"/><path fill="none" stroke="#8E5027" stroke-width=".05" stroke-linecap="round" stroke-linejoin="round" d="M113.2 61.15q-.6 1 .45 3.8m-2-.4q.55-1.5-.1-2.4"/></svg>