<svg xmlns="http://www.w3.org/2000/svg" viewBox="-28.8 26.9 229.3 323.1" width="229.3" height="323.1" preserveAspectRatio="xMinYMin"><defs><linearGradient gradientUnits="userSpaceOnUse" x1="-819.2" x2="819.2" gradientTransform="matrix(.03 0 0 .043 89.5 67.5)" id="a"><stop offset="0" stop-color="#D98651"/><stop offset=".533" stop-color="#DFA168"/><stop offset="1" stop-color="#D98651"/></linearGradient><linearGradient gradientUnits="userSpaceOnUse" x1="-819.2" x2="819.2" gradientTransform="matrix(-.001 -.033 .002 0 114.9 49.3)" id="b"><stop offset="0" stop-color="#D98651"/><stop offset=".533" stop-color="#DFA168"/><stop offset="1" stop-color="#D98651"/></linearGradient><linearGradient gradientUnits="userSpaceOnUse" x1="-819.2" x2="819.2" gradientTransform="matrix(0 -.001 .008 0 98.05 88)" id="c"><stop offset=".051" stop-color="#4F0615"/><stop offset=".463" stop-color="#A0454C"/><stop offset=".98" stop-color="#612"/></linearGradient><linearGradient gradientUnits="userSpaceOnUse" x1="-819.2" x2="819.2" gradientTransform="matrix(0 .002 -.008 0 98.05 90.8)" id="d"><stop offset=".051" stop-color="#4F0615"/><stop offset=".463" stop-color="#A0454C"/><stop offset=".98" stop-color="#612"/></linearGradient><radialGradient gradientUnits="userSpaceOnUse" r="819.2" cx="0" cy="0" spreadMethod="pad" gradientTransform="matrix(.002 0 0 .002 90.7 66.2)" id="e"><stop offset=".835" stop-color="#3A465F"/><stop offset="1" stop-color="#212934"/></radialGradient><linearGradient gradientUnits="userSpaceOnUse" x1="-819.2" x2="819.2" gradientTransform="matrix(-.002 0 0 -.002 87.05 66.35)" id="f"><stop offset="0" stop-color="#fff"/><stop offset="1" stop-color="#959595"/></linearGradient><linearGradient gradientUnits="userSpaceOnUse" x1="-819.2" x2="819.2" gradientTransform="matrix(.001 0 0 .002 93.4 66.25)" id="g"><stop offset="0" stop-color="#fff"/><stop offset="1" stop-color="#959595"/></linearGradient><radialGradient gradientUnits="userSpaceOnUse" r="819.2" cx="0" cy="0" spreadMethod="pad" gradientTransform="matrix(.002 0 0 .002 107.65 66.65)" id="h"><stop offset=".835" stop-color="#3A465F"/><stop offset="1" stop-color="#212934"/></radialGradient><linearGradient gradientUnits="userSpaceOnUse" x1="-819.2" x2="819.2" gradientTransform="matrix(.001 0 0 .002 104.6 67.15)" id="i"><stop offset="0" stop-color="#fff"/><stop offset="1" stop-color="#959595"/></linearGradient><linearGradient gradientUnits="userSpaceOnUse" x1="-819.2" x2="819.2" gradientTransform="matrix(0 0 .001 .002 109.7 65.85)" id="j"><stop offset="0" stop-color="#fff"/><stop offset="1" stop-color="#959595"/></linearGradient><linearGradient gradientUnits="userSpaceOnUse" x1="-819.2" x2="819.2" gradientTransform="matrix(-.002 0 0 -.002 103.9 67.25)" id="k"><stop offset="0" stop-color="#fff"/><stop offset="1" stop-color="#959595"/></linearGradient><radialGradient gradientUnits="userSpaceOnUse" r="819.2" cx="0" cy="0" spreadMethod="pad" gradientTransform="matrix(.056 0 0 .056 60.15 51.75)" id="l"><stop offset="0" stop-color="#4545FE"/><stop offset=".612" stop-color="#21217B"/><stop offset="1"/></radialGradient><radialGradient gradientUnits="userSpaceOnUse" r="819.2" cx="0" cy="0" spreadMethod="pad" gradientTransform="matrix(.031 0 0 .031 48.1 191.85)" id="m"><stop offset="0" stop-color="#4545FE"/><stop offset=".612" stop-color="#21217B"/><stop offset="1"/></radialGradient><radialGradient gradientUnits="userSpaceOnUse" r="819.2" cx="0" cy="0" spreadMethod="pad" gradientTransform="matrix(.056 0 0 .056 42 168.8)" id="n"><stop offset="0" stop-color="#4545FE"/><stop offset=".612" stop-color="#21217B"/><stop offset="1"/></radialGradient><radialGradient gradientUnits="userSpaceOnUse" r="819.2" cx="0" cy="0" spreadMethod="pad" gradientTransform="matrix(.079 0 0 .079 132.9 82.7)" id="o"><stop offset="0" stop-color="#4545FE"/><stop offset=".612" stop-color="#21217B"/><stop offset="1"/></radialGradient><radialGradient gradientUnits="userSpaceOnUse" r="819.2" cx="0" cy="0" spreadMethod="pad" gradientTransform="matrix(.162 0 0 .162 12.85 85.45)" id="p"><stop offset="0" stop-color="#4545FE"/><stop offset=".612" stop-color="#21217B"/><stop offset="1"/></radialGradient><radialGradient gradientUnits="userSpaceOnUse" r="819.2" cx="0" cy="0" spreadMethod="pad" gradientTransform="matrix(.023 0 0 .023 70.8 169.85)" id="q"><stop offset="0" stop-color="#4545FE"/><stop offset=".612" stop-color="#21217B"/><stop offset="1"/></radialGradient><radialGradient gradientUnits="userSpaceOnUse" r="819.2" cx="0" cy="0" spreadMethod="pad" gradientTransform="matrix(.034 0 0 .034 75.75 193.05)" id="r"><stop offset="0" stop-color="#4545FE"/><stop offset=".612" stop-color="#21217B"/><stop offset="1"/></radialGradient><radialGradient gradientUnits="userSpaceOnUse" r="819.2" cx="0" cy="0" spreadMethod="pad" gradientTransform="matrix(.024 0 0 .024 129.25 165.85)" id="s"><stop offset="0" stop-color="#4545FE"/><stop offset=".612" stop-color="#21217B"/><stop offset="1"/></radialGradient><radialGradient gradientUnits="userSpaceOnUse" r="819.2" cx="0" cy="0" spreadMethod="pad" gradientTransform="matrix(.036 0 0 .036 121.65 189.45)" id="t"><stop offset="0" stop-color="#4545FE"/><stop offset=".612" stop-color="#21217B"/><stop offset="1"/></radialGradient><radialGradient gradientUnits="userSpaceOnUse" r="819.2" cx="0" cy="0" spreadMethod="pad" gradientTransform="matrix(.031 0 0 .031 101 216.95)" id="u"><stop offset="0" stop-color="#4545FE"/><stop offset=".612" stop-color="#21217B"/><stop offset="1"/></radialGradient><radialGradient gradientUnits="userSpaceOnUse" r="819.2" cx="0" cy="0" spreadMethod="pad" gradientTransform="matrix(.034 0 0 .034 93.95 260.1)" id="v"><stop offset="0" stop-color="#0102A9"/><stop offset=".612" stop-color="#21217B"/><stop offset="1"/></radialGradient></defs><path fill="url(#a)" d="M68.05 64.75Q63.8 46.05 77.1 37.5q6.65-4.25 14.1-4.95 14.65-.9 19.85 8.65 1.7 3.15 2.35 7.5l.55 5.25q.4 3 0 7.3l-.15 1.7-.1.55v.2l-.15.8q.75 5.75.55 14l-.05.5-.1 3.2q-.7 3.55-4 9l-3.2 4.7-3.95 5.65-.1.05q-.75.6-1.95 1-2.05 0-4.95-1-3.3-1.1-7.7-3.45l-7.4-4.45q-4.35-2.05-6.2-7.8l-.95-5.1q-.45.55-2.1.85-1.95.35-2.85-2.35l-.5-2.8q-.3 0-.85-.9-1.05-1.85-2.1-6.5-1.05-4.6 2.4-4.4l.5.05q1.5.2 3.2 1.05-1.7-.85-3.2-1.05M73.5 80l.15.55-.15-.55m.15.55l-.1.25.1-.2v-.05"/><path fill="url(#b)" d="M113.7 63.7l.05-.05q1.15-.85 2.2-.2l.95.85V68l-1.65 3.7.55 1.1q.55 1.6.55 3.9t-1.1 2.3l-1.15-.5q.2-8.25-.55-14l.15-.8"/><path fill="#170007" d="M111.95 60l.55.15.2.8-1.25.8-2.1.75-2.2.2h-2.1q.75-.9 1.5-1l1.25-.35 1.1-.3.95-.15 1.05-.4 1.05-.5m-9 7.4q-.2-.95.75-1.7l.9-.65.9-.7v.05l.25-.1.3-.15.1.05.1.05.35-.15.3-.2.1.3.4-.25.4-.35h.05v.5l.5-.25h.1v.2h.2l.6-.3v.4l.6-.35v.4l.5-.2-.05.45.4-.25.05-.05-.1.2-.1.15v.1h.15l.45-.15-1.05 1.2v-.1l-1-.55-.65-.15-.45-.05h-.9l-.75.2h-.05q-.65.2-1.4.65-.9.55-1.75 1.35l-.2.4m7.15-1.7h.85l-.45.6h.2l-.4.5.15.15-.1.25-.05.3-.05.15-.05.2-.1-.1h-.05l-.05.15-.05.2.05.2-.15.05-.05.05.05.1h-.7l.2.1.15.3-.25-.05-.2-.05h-.35l.05.15.05.2h-.85l.1.15-.15-.1-.3-.1v.15l-.65-.25.05.2h-.3l-.45-.15.05.05.05.1-.3-.15-.25-.15v.05h-.05l-.3-.1-.3-.15v.1l-.6-.35h-.05v-.05l-.4-.2 3.55.5h.05l.05-.05 1-.35.05-.05.25-.2.25-.25q.9-.95.8-2.1m-16.05-5.4l.85.7.45.8-.05.25-.3.1-1.45-.2-1.3-.2h-1.3l-1.25-.3q-1.5-.8-2.75-1.05l-2.75-.2-1.4.1-1.4.2q1.05-.65 3.05-1.05l3.75-.35 1.85.1 2 .55.45.05h.6l.95.5m-2.2 4.05l-.4-.1-1.55.05-.4.1-.35.05q-1.3.35-2.9 1.15l-1.5.8-2.2.35 3.15-2.1-.1-.6.95.1.25-.5h.6l.25-.2h.45l.3-.2.65.3V62.3l1.05 1.15.3-1.15.55 1 .3-.9.25.55.2-.4.25.65h.5l.2.25.4.1-.05.35.5-.25-.15.55.35.2v.4l.1.3-.3.2.35.15.1.3-.3.95q-.1-1.75-1.5-2.3l-.3-.05M89.6 68.1l2.2.05.3-.1q1-.25 1.35-.9v.35l-.1.3-.6.45-.2.1-.2.1-.1-.05-.35.3-.2-.05-.15.2-.35.35v-.05l-.1-.25-.25.3-.2.3-.05-.25-.1-.25-.2.15-.25.1-.1-.4-.6.6-.1-.3-.2-.25-.3.25-.15-.2-.15-.15-.05.1-.05.15-.25-.2-.15-.15h-.05v.2l-.85-.75v.1l-.7-.75-1-.9q2.4 1.15 4.25 1.5"/><path fill="#fff" d="M108.75 67l.2.1.1.3v.25l-.1.1-.35.1-.3-.1-.05-.1-.05-.05-.05-.2.15-.3q.15-.15.3-.15l.15.05M92 66.5l.2.1.15.35-.15.35-.35.15-.35-.15-.1-.15-.05-.2.15-.35q.15-.15.35-.15l.15.05"/><path d="M92 66.5l-.15-.05q-.2 0-.35.15l-.15.35.05.2-.55.1q-.5 0-.9-.4-.35-.35-.35-.85t.35-.9q.4-.35.9-.35t.85.35q.4.4.4.9l-.1.5m16.2 1.1l-.15.05-.35.05q-.45 0-.8-.4-.35-.3-.35-.75t.35-.8q.35-.35.8-.35.45 0 .8.35l.35.8v.05l-.1.4-.15-.05q-.15 0-.3.15l-.15.3.05.2"/><path fill="url(#c)" d="M91.75 89.35l5.35-1.9q.95-.6 1.5-.75 1.05-.25 2.1.3h.6q.7-.1 1.3-.6l.2-.05.45.1q.75.4 1.1 2.35l-1.95-.2-4.25.25-1.35-.05-5.05.6v-.05"/><path fill="url(#d)" d="M91.75 89.4l5.05-.6 1.35.05 4.25-.25 1.95.2v.05l-.4 1.35q-.95 1.6-1.8 2.1l-1.6.65-.7.1Q98 93 95.15 91.5l-3.4-2.1"/><path fill="url(#e)" d="M89.5 64.4l.4-.1 1.55-.05.4.1.4.3q.65.65.65 1.55t-.65 1.55l-.45.4-2.2-.05-.45-.35q-.65-.65-.65-1.55t.65-1.55l.35-.25m2.5 2.1l.1-.5q0-.5-.4-.9-.35-.35-.85-.35t-.9.35q-.35.4-.35.9t.35.85q.4.4.9.4l.55-.1.1.15.35.15.35-.15.15-.35-.15-.35-.2-.1"/><path fill="url(#f)" d="M89.5 64.4l-.35.25q-.65.65-.65 1.55t.65 1.55l.45.35q-1.85-.35-4.25-1.5l-.45-.2h-.15l1.5-.8q1.6-.8 2.9-1.15l.35-.05"/><path fill="url(#g)" d="M91.8 68.15l.45-.4q.65-.65.65-1.55t-.65-1.55l-.4-.3.3.05q1.4.55 1.5 2.3l-.1.3-.1.15q-.35.65-1.35.9l-.3.1"/><path fill="url(#h)" d="M107.35 64.8h.65q.55.05 1 .5.6.6.6 1.4l-.35 1.1-.25.25-.25.25-1 .35h-.1q-.8 0-1.4-.6-.55-.55-.55-1.35t.55-1.4q.45-.45 1.1-.5m1.4 2.2l.1-.4v-.05l-.35-.8q-.35-.35-.8-.35-.45 0-.8.35-.35.35-.35.8 0 .45.35.75.35.4.8.4l.35-.05.15-.05.05.05.05.1.3.1.35-.1.1-.1v-.25l-.1-.3-.2-.1"/><path fill="url(#i)" d="M107.7 68.7h-.05v-.05l.05.05"/><path fill="url(#j)" d="M110.1 65.65v.05q.1 1.15-.8 2.1h-.05l.35-1.1q0-.8-.6-1.4-.45-.45-1-.5l.45.05.65.15 1 .55v.1"/><path fill="url(#k)" d="M104.1 68.2l-.15-.05-.2-.1-1-.35.2-.3.2-.4q.85-.8 1.75-1.35.75-.45 1.4-.65h.05l.75-.2h.25q-.65.05-1.1.5-.55.6-.55 1.4 0 .8.55 1.35.6.6 1.4.6v.05l-3.55-.5"/><path fill="url(#l)" d="M97.65 29.1l2 3.85q1.75 4.35.5 7-8.2 6.4-20.35 13.15-2.15 1.2-3.8 3.2-9.6 11.05-27.4 12-6.45-.65-12.4-.15l-1.4.35q-1.7.6-3.3 1.65-5.05 3.35-6.95 10.1-1.3-1.8-2.25-4.3-1.95-4.95-.35-8.2 1.65-3.25-.95-.85l-2.9 3q-.2-1.15-.05-2.75.35-3.1 2.2-5 2.15-2.15.3-2.4-1.85-.25-2.9 1.5-.55.9-.7.15-.15-.75.6-2.1 2.3-4.1 9.6-7.1 5.85-2.35 18.1-3.25 14.5 1.75 16.3-7.55 1.3-2.5 2.65-3.9 7.05-7.4 15.85-9.6 9.9-2.5 17.6 1.2"/><path fill="url(#m)" d="M41.2 213.8l.4-.1-.4.2v-.1"/><path fill="url(#n)" d="M41.2 213.8l-.2-2.25q-.3-3.9-1.2-5.85l-.9-1.2-.15-.25.1-2.65-.1-1.75q1.55-3.25 9.6-33.75 3.05 15.75 9.95 29.25 3.35 6.6 5.85 10.3l-.95 2.4q-.65 1.7-1 .25-.5-2.1-3-1.8-2.85.3-6.05 4.1-3.1 3.65-3.35 3.35l-.15-4.2q-.3-3.45-1.05-3.7-.85-.3-3.75 2.4-1.95 1.8-3.25 5.25l-.4.1"/><path fill="url(#o)" d="M97.65 29.1q12.9-.65 19.35 12.15 3.25 6.4 3.05 12.75-.3 8.1 2.4 28.1l2.95 22.65q.8 6.75-.5 6.5l-6.2.35-3.3.9-10.3-4.05q-.8-1.2-1.2-4.8l-.2-3.3q4.7-6 8.05-12.65 1.65-3.35 2.35-5.5l-.15-2.3.3-19.65q0-16.15-7.05-19.85-2.2-1.15-4.85-.9l-2.2.45q1.25-2.65-.5-7l-2-3.85"/><path fill="url(#p)" d="M76 56.3q-1.45 2.25-2 5.45-.7 3.8-.65 6.15l-2.3-2.1-1.65-.8-2.95.1q-1.25.9-1.55 1.7-.25.7 0 2.2.35 1.9 1.9 5.45l1.6 2.65.55 2.75q1.2 2.5 4.4.95l.75 3.75q1.05 4.1 2.4 5.75l-.9 9.55q-1.15 9.95-2.25 12.15-2.85.95-6.4 2.45-7 3.05-10.2 6-13.7.45-22 5.25-4.15 2.4-5.6 4.7-4.35 3.25-3.8 16.8.25 6.75 1.4 12.85-1.6 2.4-3.7 18.15-1.05 7.9-1.8 15.3l-.65 1.5q-1.15-4.95-2.45-1.8-.95 2.2-2.8 8.15-1.75 4.2-3.3.95-1.3-2.75-1.2-6.7l-.1-1-.35.7-.05.05-.5 1.15q-2.2 4.95-4.3 10.2L4.1 215l-4.15-6.15-4.7-10.35-3.05 17.65-6.85-33.45q-1.8-20.05-1.25-28.9.45-6.85 9.2-17.9 9-11.4 18.15-15.95l8.75-4.4q4.65-2.8 8.35-7.35 8.9-10.9 20.05-39.9 17.8-.95 27.4-12"/><path fill="url(#q)" d="M62.8 179.25q-4.2-1.3-7.7-5.75l-2.6-4.2q-.45-7.05 8.6-12.9 2.85-1.85 6.3-3.35l2.9-1.1q8.85 13.2 11 22.15 1.1 4.7.65 6.9l-1.05.3q-4.75 1.25-9.05.55-1.6-.3-9.05-2.6"/><path fill="url(#r)" d="M62.8 179.25q7.45 2.3 9.05 2.6 4.3.7 9.05-.55V183l.2 3.15.3 4.6v.2l.05.55.45 5.25.05.4.3 3.15.45 3.9 1.75 15.15-5-9.25q-3-4.15-6.5-5.55-3.55-1.45-9.25-1.9l-5.45 5.85q9.9-20.85 7.5-26.2-.75-1.7-1.9-2.55l-1.05-.5m19.55 24.55l.35.4-.35-.4"/><path fill="url(#s)" d="M118.35 176.75l-.8-.15-2.6-.55q3.95-1.1 7.35-15l2.55-13.5q12.9 4.2 15.05 13.9 1.1 4.9.25 5.05-5.5 9.35-14.2 10.45h-.05l-2 .15-5.45-.35h-.1q.05-.2.1 0-.05-.2-.1 0"/><path fill="url(#t)" d="M118.35 176.75h.1l5.45.35 2-.15.05.05-2.1 6.3q-2.2 7.8 2.05 17.15l-8.45 4.65q-3.55 7.75-3.55 12.85-.5-4.45-.6-10.65v-5.55l.05-1.8q.05-2.4.25-4.75l.05-.25.2-2 .35-2.75q1.3-8.25 4.15-13.45"/><path fill="url(#u)" d="M113.3 207l-1.95 7.1q-2.45 7.8-5.55 11.35-2.2-1.25-6.25-4.55-7.95-6.5-16.85-16.7l-.45-3.9 3.45 2 16.2 9.3 2.5 1.05q3.65-2.9 6.9-7.55l.05-.05 1.95-2.45v4.4"/><path fill="url(#v)" d="M105.7 262.2l-.25.3-2.05 2.25q-5.7 6.55-6.55 9.55-.9 2.95-.95 1.85-.05-1.15-8.85-12.2-2-1.95-1.9-2.4-4.45-6.05-7.65-11.35l-2.8-4.35q23.45 9.75 42.6-1.45l-4.25 7-7.35 10.8"/><path fill="#999" d="M60.15 217.6l2.1.25q2.75.5 5.7 1.7 9.4 3.8 17.7 13.25 8.4 9.55 31.1 11.6 7.5.65 15.2.35l7.3-.65q1.15-.45 1.75 2.2l.3 2q-5.15 1.6-5.45.25-.6-2.65-1.75-2.2l-7.3.65q-7.7.3-15.2-.35-22.7-2.05-31.1-11.6-8.3-9.45-17.7-13.25-2.95-1.2-5.8-1.8l3.15-2.4"/><path fill="#A0A0FE" fill-opacity=".451" d="M57 220q2.85.6 5.8 1.8 9.4 3.8 17.7 13.25 8.4 9.55 31.1 11.6 7.5.65 15.2.35l7.3-.65q1.15-.45 1.75 2.2.3 1.35 5.45-.25l.05.8 8.3 57.05q4.95 25.45 11.25 32.5-14.85 6.1-32.9 9.3-36 6.5-51.7-7.8-17.55-16-26.15-22.05-7.15-5.05-9.05-3.8-1.4.95-1.4-20l.3-21.15.85-11.7q1.1-13.05 2.5-20.1Q45.8 229.15 57 220M62.45 116.65l3-1.55-1.5 21.55q-.95 14.2-10.4 33.65-4.75 9.8-9.3 16.7l-3.75 2.3q-4.65 3.1-9.35 6.85-15.05 12-24.75 26.45-8.5 12.7-10.4 32.95-.65 7.15-.85 7.5-.55.85-2.75-5.25-4.05-11.1-13-19.9-2.8-2.75-5.8-4.95l-2.4-1.65q1.5-10.2 3.75-32.2 1.4-13.45 21.85-22.75 3.95-1.8 17.3-6.85 10.4-3.95 15-6.7 10.15-6.15 22.75-26.75l7.65-13.55 2.95-5.85M181.75 174.15q13.6 13.6 17.4 19.75 1.9 3.1 1.1 3.45-13.25 7.2-22.35 23.45-2.4 4.2-4.65 9.6-1.4 3.2-1.4 2.45 0-3.35-10.45-45.45l-15.15-32.1q-2.95-6.2-11-13.65l-7.45-6.25q-5.3-18.05-12.9-23.15-2.35-1.6-4.65-1.7l-1.4-.9q3.15-.95 8.15.15 2.65.6 4.65 1.45.6 7.4 11.25 17.7 5.3 5.15 10.5 8.8l11 10.05q13.75 12.8 27.35 26.35"/><path fill="none" stroke="#8E5027" stroke-width=".05" stroke-linecap="round" stroke-linejoin="round" d="M113.7 63.7v-.2l.1-.55.15-1.7q.4-4.3 0-7.3l-.55-5.25q-.65-4.35-2.35-7.5-5.2-9.55-19.85-8.65-7.45.7-14.1 4.95-13.3 8.55-9.05 27.25 1.5.2 3.2 1.05m42.85 12.7l1.15.5q1.1 0 1.1-2.3t-.55-3.9l-.55-1.1 1.65-3.7v-3.7l-.95-.85q-1.05-.65-2.2.2l-.05.05-.15.8q.75 5.75.55 14l-.05.5-.1 3.2q-.7 3.55-4 9l-3.2 4.7-3.95 5.65-.1.05q-.75.6-1.95 1-2.05 0-4.95-1-3.3-1.1-7.7-3.45l-7.4-4.45q-4.35-2.05-6.2-7.8l-.95-5.1q-.45.55-2.1.85-1.95.35-2.85-2.35l-.5-2.8q-.3 0-.85-.9-1.05-1.85-2.1-6.5-1.05-4.6 2.4-4.4l.5.05m5.6 15.8L73.5 80m.15.55v.05l-.1.2.1-.25M102.05 66.35l-.2.6q-.2.75-.1 1.85.3 3.5 3.2 8.8l.2.7q.1.85-.3 2.15-.4 1.35-2.2 1.6l-.85-.05q-.9-.25-1.55-.85l-.1-.05q-1.2.3-2.05.75l-1.05.05q-.15-.95 1-1.05l2.1.25m-4.7-3.6l-.25.65-.3 1.4q-.2 2.1 1.3 2.4"/><path fill="none" stroke="#711B2A" stroke-width=".05" stroke-linecap="round" stroke-linejoin="round" d="M104.35 88.8q-.35-1.95-1.1-2.35l-.45-.1-.2.05q-.6.5-1.3.6h-.6q-1.05-.55-2.1-.3-.55.15-1.5.75l-5.35 1.9m0 .05l5.05-.6 1.35.05 4.25-.25 1.95.2v.05l-.4 1.35q-.95 1.6-1.8 2.1l-1.6.65-.7.1Q98 93 95.15 91.5l-3.4-2.1h-.1l.1-.05"/><path fill="none" stroke="#14144D" stroke-width=".05" stroke-linecap="round" stroke-linejoin="round" d="M100.15 39.95l2.2-.45q2.65-.25 4.85.9 7.05 3.7 7.05 19.85l-.3 19.65.15 2.3q-.7 2.15-2.35 5.5-3.35 6.65-8.05 12.65l.2 3.3q.4 3.6 1.2 4.8l10.3 4.05 3.3-.9 6.2-.35q1.3.25.5-6.5l-2.95-22.65q-2.7-20-2.4-28.1.2-6.35-3.05-12.75-6.45-12.8-19.35-12.15l2 3.85q1.75 4.35.5 7-8.2 6.4-20.35 13.15-2.15 1.2-3.8 3.2-1.45 2.25-2 5.45-.7 3.8-.65 6.15l-2.3-2.1-1.65-.8-2.95.1q-1.25.9-1.55 1.7-.25.7 0 2.2.35 1.9 1.9 5.45l1.6 2.65.55 2.75q1.2 2.5 4.4.95l.75 3.75q1.05 4.1 2.4 5.75l-.9 9.55q-1.15 9.95-2.25 12.15-2.85.95-6.4 2.45-7 3.05-10.2 6-13.7.45-22 5.25-4.15 2.4-5.6 4.7-4.35 3.25-3.8 16.8.25 6.75 1.4 12.85-1.6 2.4-3.7 18.15-1.05 7.9-1.8 15.3l-.65 1.5q-1.15-4.95-2.45-1.8-.95 2.2-2.8 8.15-1.75 4.2-3.3.95-1.3-2.75-1.2-6.7l-.1-1-.35.7-.05.05-.5 1.15q-2.2 4.95-4.3 10.2L4.1 215l-4.15-6.15-4.7-10.35-3.05 17.65-6.85-33.45q-1.8-20.05-1.25-28.9.45-6.85 9.2-17.9 9-11.4 18.15-15.95l8.75-4.4q4.65-2.8 8.35-7.35 8.9-10.9 20.05-39.9-6.45-.65-12.4-.15l-1.4.35q-1.7.6-3.3 1.65-5.05 3.35-6.95 10.1-1.3-1.8-2.25-4.3-1.95-4.95-.35-8.2 1.65-3.25-.95-.85l-2.9 3q-.2-1.15-.05-2.75.35-3.1 2.2-5 2.15-2.15.3-2.4-1.85-.25-2.9 1.5-.55.9-.7.15-.15-.75.6-2.1 2.3-4.1 9.6-7.1 5.85-2.35 18.1-3.25 14.5 1.75 16.3-7.55 1.3-2.5 2.65-3.9 7.05-7.4 15.85-9.6 9.9-2.5 17.6 1.2M48.6 68.3q17.8-.95 27.4-12M41.6 213.7q1.3-3.45 3.25-5.25 2.9-2.7 3.75-2.4.75.25 1.05 3.7l.15 4.2q.25.3 3.35-3.35 3.2-3.8 6.05-4.1 2.5-.3 3 1.8.35 1.45 1-.25l.95-2.4q-2.5-3.7-5.85-10.3-6.9-13.5-9.95-29.25-8.05 30.5-9.6 33.75l.1 1.75-.1 2.65m.15.25l.9 1.2q.9 1.95 1.2 5.85l.2 2.25m.4-.1l-.35.5-.05-.3v-.1"/><path fill="none" stroke="#131348" stroke-width=".05" stroke-linecap="round" stroke-linejoin="round" d="M80.9 181.3l1.05-.3q.45-2.2-.65-6.9-2.15-8.95-11-22.15l-2.9 1.1q-3.45 1.5-6.3 3.35-9.05 5.85-8.6 12.9l2.6 4.2q3.5 4.45 7.7 5.75 7.45 2.3 9.05 2.6 4.3.7 9.05-.55v1.35l15.6 4.4.65-.15q16.05-3.55 17.6-2.2M70.3 151.95l-.75-1.1m12.7 49.45l-.3-3.15-.05-.4-.45-5.25-.05-.55v-.2l-.3-4.6-.2-3.15v-.35m-18.1-3.4l1.05.5q1.15.85 1.9 2.55 2.4 5.35-7.5 26.2l5.45-5.85q5.7.45 9.25 1.9 3.5 1.4 6.5 5.55l5 9.25-1.75-15.15-.35-.4m42.5-56.25l-.65-.2m-43.1 38.8q3.65.4 9.15 2.45l6.25-1.55q7.1 2.05 11.3 3.45l6.4-.3q1.3-8.25 4.15-13.45l-.8-.15-2.6-.55q3.95-1.1 7.35-15l2.55-13.5q12.9 4.2 15.05 13.9 1.1 4.9.25 5.05-5.5 9.35-14.2 10.45v.05l-2.1 6.3q-2.2 7.8 2.05 17.15l-8.45 4.65q-3.55 7.75-3.55 12.85-.5-4.45-.6-10.65v-.3l-1.95 7.1q-2.45 7.8-5.55 11.35-2.2-1.25-6.25-4.55-7.95-6.5-16.85-16.7l-.45-3.9 3.45 2q4-2 11.1-3.85l-7.9-3.55-7 1.85m-.5-6l8.85-2.15q3.85 1.4 8.6 3.65 5.3-1.25 8.95-1.75 6.05 1.95 6.05 2.45l.35-2.75m-25.3 4.7l-7.45-3.4m7.45 3.4l7.85-2.15 2.1-.5 2.45 1.2 5.35 2.75 7-1.25.2-2m4.5-16.2h.1q-.05-.2-.1 0m-5 23.2q-3.15-1.85-6.7-3.75l-3.9.8-5.95 1.45 14.55 6.6 1.95-2.45v-.85l.05-1.8q.05-2.4.25-4.75l.05-.25m12.25-18l-2 .15-5.45-.35m7.45.2h.05M113.3 202.6v4.4m-27.6-4.7l16.2 9.3 2.5 1.05q3.65-2.9 6.9-7.55l.05-.05M117.3 244.4q2-1.15 4.05-4.4 4.15-6.4 3.8-18.85l-.1-.35m-19.35 41.4q4.85-5.35 10.7-10.7 3.8-3.75 6.1-9.7 4.6-11.6 2.65-20.65M105.7 262.2l7.35-10.8 4.25-7q-19.15 11.2-42.6 1.45l2.8 4.35q3.2 5.3 7.65 11.35-.1.45 1.9 2.4 8.8 11.05 8.85 12.2.05 1.1.95-1.85.85-3 6.55-9.55l2.05-2.25.25-.3m-20.55-.65q-6.1-4.4-8.4-7.3-5.15-2.55-9.05-9.75-8.2-15.1-6.95-24.2l.05-.35m13.9 25.9q-3.45-2.15-6.85-6.3-6.75-8.25-7.1-19.25"/><path fill="none" stroke="#666" stroke-width=".05" stroke-linecap="round" stroke-linejoin="round" d="M141.3 248.3l-.3-2q-.6-2.65-1.75-2.2l-7.3.65q-7.7.3-15.2-.35-22.7-2.05-31.1-11.6-8.3-9.45-17.7-13.25-2.95-1.2-5.7-1.7l-2.1-.25M57 220q2.85.6 5.8 1.8 9.4 3.8 17.7 13.25 8.4 9.55 31.1 11.6 7.5.65 15.2.35l7.3-.65q1.15-.45 1.75 2.2.3 1.35 5.45-.25l.05.8"/><path fill="none" stroke="#5757FD" stroke-width=".05" stroke-linecap="round" stroke-linejoin="round" d="M62.45 116.65l-2.95 5.85-7.65 13.55q-12.6 20.6-22.75 26.75-4.6 2.75-15 6.7-13.35 5.05-17.3 6.85-20.45 9.3-21.85 22.75-2.25 22-3.75 32.2l2.4 1.65q3 2.2 5.8 4.95 8.95 8.8 13 19.9 2.2 6.1 2.75 5.25.2-.35.85-7.5 1.9-20.25 10.4-32.95 9.7-14.45 24.75-26.45 4.7-3.75 9.35-6.85l3.75-2.3q4.55-6.9 9.3-16.7 9.45-19.45 10.4-33.65l1.5-21.55-3 1.55M181.75 174.15q-13.6-13.55-27.35-26.35l-11-10.05q-5.2-3.65-10.5-8.8-10.65-10.3-11.25-17.7-2-.85-4.65-1.45-5-1.1-8.15-.15l1.4.9q2.3.1 4.65 1.7 7.6 5.1 12.9 23.15l7.45 6.25q8.05 7.45 11 13.65l15.15 32.1q10.45 42.1 10.45 45.45 0 .75 1.4-2.45 2.25-5.4 4.65-9.6 9.1-16.25 22.35-23.45.8-.35-1.1-3.45-3.8-6.15-17.4-19.75"/></svg>