<svg xmlns="http://www.w3.org/2000/svg" viewBox="-0.7 0 208.8 452.6" width="208.8" height="452.6" preserveAspectRatio="xMinYMin"><defs><linearGradient gradientUnits="userSpaceOnUse" x1="-819.2" x2="819.2" gradientTransform="matrix(-.02 -.077 .094 -.025 105.45 267.95)" id="a"><stop offset="0" stop-color="#f00"/><stop offset=".447" stop-color="#FF2C00"/><stop offset="1" stop-color="#E75C00"/></linearGradient><linearGradient gradientUnits="userSpaceOnUse" x1="-819.2" x2="819.2" gradientTransform="matrix(0 .024 -.037 0 68.15 372.6)" id="b"><stop offset="0" stop-color="#f00"/><stop offset=".447" stop-color="#FF2C00"/><stop offset="1" stop-color="#E75C00"/></linearGradient><linearGradient gradientUnits="userSpaceOnUse" x1="-819.2" x2="819.2" gradientTransform="matrix(.002 .022 .037 -.004 145.45 365.25)" id="c"><stop offset="0" stop-color="#f00"/><stop offset=".447" stop-color="#FF2C00"/><stop offset="1" stop-color="#E75C00"/></linearGradient><linearGradient gradientUnits="userSpaceOnUse" x1="-819.2" x2="819.2" gradientTransform="matrix(-.003 .016 -.037 -.006 70.5 365.25)" id="d"><stop offset="0" stop-color="#f00"/><stop offset=".447" stop-color="#FF2C00"/><stop offset="1" stop-color="#E75C00"/></linearGradient><linearGradient gradientUnits="userSpaceOnUse" x1="-819.2" x2="819.2" gradientTransform="matrix(-.008 -.05 .037 -.006 99.8 41.9)" id="e"><stop offset="0" stop-color="#D98651"/><stop offset=".533" stop-color="#DFA168"/><stop offset="1" stop-color="#D98651"/></linearGradient><linearGradient gradientUnits="userSpaceOnUse" x1="-819.2" x2="819.2" gradientTransform="matrix(-.005 .011 -.005 -.002 131.3 48.05)" id="f"><stop offset="0" stop-color="#D98651"/><stop offset=".533" stop-color="#DFA168"/><stop offset="1" stop-color="#D98651"/></linearGradient><radialGradient gradientUnits="userSpaceOnUse" r="819.2" cx="0" cy="0" spreadMethod="pad" gradientTransform="matrix(.004 0 0 .004 124.25 39.65)" id="g"><stop offset="0" stop-color="#fff"/><stop offset=".271"/></radialGradient><radialGradient gradientUnits="userSpaceOnUse" r="819.2" cx="0" cy="0" spreadMethod="pad" gradientTransform="matrix(.004 0 0 .004 100.6 40.45)" id="h"><stop offset="0" stop-color="#fff"/><stop offset=".271"/></radialGradient></defs><path fill="url(#a)" d="M45.5 333.35q-5.4-2.7-6.55-3.85-1.55-1.9 7.3-52.3 9.6-54.6 9.6-56.55l.4-23.05q.4-17.35 1.15-18.5.75-1.15 7.7-3.05 8.85-4.25 18.05-12.7 9.6-9.25 20.75-23.1l6.55-8.5 2.3-3.45q3.25-9.8 9.55-24.3l.8-1.85q4.25-9.25 7.7-16.15l5.8.75q5.35 1.15 3.45 3.1-3.7 4.55-6.15 14.15-3.15 12.25-4.25 32.8-.75 13.85-.4 25.4.8 11.15 2.35 12.7 2.3 1.9 6.9-1.55 2.7-1.55 4.25-3.85-3.85 10.4 8.45 74.25 4.6 23.85 10 46.5 5 21.2 7.3 26.95 1.55 4.25-4.25 7.3-.35 0-.75.4h-.4q-1.15.35-2.3 1.15-7.3 2.7-23.85 5l-3.45.4-14.25 1.9-4.2.75-3.1.4-3.05.4q-6.15.75-10.8 1.9-6.15 1.15-9.2 2.7-10.75 5-30.35-1.15-6.9-1.9-13.05-5"/><path fill="#fff" d="M8.95 249.9l18.85 6.15q0 1.55-.4 3.05-.4 1.95-.75 1.95l1.5.4q.8 5-.35 5.35l-8.5-1.15q-9.6-.75-16.9.8l25.75 11.15 1.15.35q.8 1.15.4 3.85-6.9.4-14.2 0-14.65-.35-15.8-3.05v-.4q-.4-1.15-.4-2.3V273.35l.8-2.3 1.55-5 2.3-6.15 22.3 1.15q-.4-1.15-10.4-3.1l-9.2-1.5 1.9-6.55h.4m19.2 27.7l-2.3-.4Q19.7 275.25.1 271.05q19.6 4.2 25.75 6.15l2.3.4M2.4 266.45l-.75-.4.75.4m23.85-5.4h.4-.4m151.1-12.7l22.7-3.85 1.9 6.55q1.15 0 2.7 3.85l.8 2.7.75 1.5 1.9 5-.75.4h-.4l-20 5.4-.75-1.15-.75.35-2.7-3.05 6.9-7.3q7.7-7.3 12.3-7.7-5.35-.8-15 1.15l-10.35 1.9q0-3.85.75-5.75M25.85 277.2L-.7 276.05l26.55 1.15m160.35-8.45l20-9.65-20 9.65"/><path fill="url(#b)" d="M45.5 333.35q6.15 3.1 13.05 5 19.6 6.15 30.35 1.15 3.05-1.55 9.2-2.7-6.15 43.1-8.45 52.3h-.4l.4.8v.75q1.95 6.15 1.55 8.1-.4 3.45-3.45 10.35l2.3 24.65-6.1 11.5-11.55 6.2-16.15 1.15L42 450.25q-1.9-.75-3.05-3.05-2.7-4.25 0-11.55 2.7-6.9 1.9-16.9l-1.55-8.1 4.25-14.6-4.6-13.85-.4-11.15 5.4-21.55 1.55-16.15m41.1 48.85q1.5 3.05 2.65 6.9-1.15-3.85-2.65-6.9"/><path fill="url(#c)" d="M111.95 334.5l3.1-.4 4.2-.75h1.95l9.6-1.15 2.7-.75 3.45-.4q16.55-2.3 23.85-5 1.15-.8 2.3-1.15h.4q.4-.4.75-.4l2.7 16.55 7.3 19.6.8 10.4-3.1 13.45 5.4 13.1-.4 7.65q0 9.25 3.1 15.8 3.45 6.55 1.15 10.75-.75 2.3-2.7 3.1l-13.85 3.45-16.15.75-11.9-4.6-7.35-10-.75-13.05.75-10.4q-3.8-6.15-4.6-9.25-.4-1.9.8-7.7v-.35h.35v-1.15l-.35.35q-3.5-8.85-13.5-48.45m15.8 41.55q-1.15 3.05-1.95 6.55.8-3.5 1.95-6.55"/><path fill="url(#d)" d="M89.65 389.9l-.4-.8h.4v.8"/><path fill="url(#e)" d="M129.4 58.05v.4q.7 7.35-2.8 12.3-3.55 4.9-5.65 8.65-4.65 3.25-11.95 2.9h-7.15q-7.3-6.05-13.6-10.05-6.35-4-6.65-7.15-.3-3.15-.65-3.2-.4-.4-.4-1.9l-.05.15q-1.15 1.75-3 1.35-1.9-.75-1.9-2.7 0-1.5-1.15-4.2l-2.3-4.25q-2.3-3.05-2.7-5-1.15-3.45.4-6.15.75-1.55 2.3-1.55 0-7.3.35-10.35.2-2.85.85-5.75.65-3.05 1.85-6.2 2.3-5.75 6.5-8.45 2.7-1.95 8.45-5Q94.4-.8 103.6.35q8.1.4 12.7 3.1 3.85 1.9 7.7 10.35l2.75 7.75 1.85 6.9q.8 3.85 1.2 10.75.35 5.75.35 11.95l-.75 6.9m-2.8-21.75q1.2 1.1 1 3.25h.05L128 38l.35-2.1q0-2-1.55-2.45l-2.45-.15q-2.3 0-3.35.6-1.9 1.05-5.35 1.9.8 1.65.8 4.15l3.7-3.3q1.8-1.2 4-1.2 1.5 0 2.45.85m-.95 5.05l.65.05 1.2.5q-.9-2-1.35-2.35l-.45-.25-2.75-.35q-.75 0-1.55.35-1.7.75-3.75 3l3.55-.95h.3l2.25-.05 1.9.05m-30.2-8.4q-2.9 0-4.9 1.75-1.95 1.7-1.95 4.1l.2 2.55q.6-.15 1-.7l.3-.6.25-.55q.95-2.2 1.8-2.85.75-.6 2.6-.6l2.9.35 2.9 1.4q1.2.6 2.85.8l2.65.6h1.55l.2-1.2v-2.7l-.8.3q-.6.25-.75.45h-.4q-.45-1.35-1.8-1.65l-2.9-.5-2.8-.6-2.9-.35m3.05 6.4q-1.15.1-1.65.5l-2.5 2.7 4.1-.25.4-.05 2.1-.2.5-.05.85.05 3.15.35.6-.2-.2-.35-3.15-1.5-.15-.1q-1.85-.95-3.2-.95l-.85.05M110.3 54v-3.3l-.05-4q-.2-2-1.15-4.4.95 2.4 1.15 4.4l.05 4V54m3.5-11.35q.6 4.3 1.5 7.15l.8 2.55.65 1.65q.85 2.25.85 3.3 0 2.5-3.8 2.9 3.8-.4 3.8-2.9 0-1.05-.85-3.3l-.65-1.65-.8-2.55q-.9-2.85-1.5-7.15m4.65 15.8q-.75.1-1.3.65l-1.05.9 1.45-.1q1-.3 1-1l-.1-.45m-6.35 1.8v-.05q-.7-1.95-1.9-1.85h-1.3q-.1.5.7 1.05l.8.5.05.05h.25l.5.05.9.25m-2.5-.1l-3-.75q-.9-.3-.9-1.5 0-.9.4-1.5l.95-.95-.95.95q-.4.6-.4 1.5 0 1.2.9 1.5l3 .75m8.4.2q1.6-1.85 1.6-2.9 0-.9-1.55-2.2 1.55 1.3 1.55 2.2 0 1.05-1.6 2.9m3.5 4.7l-14.7.65q-2.7-.05-2.65.65-.05-.7 2.65-.65l14.7-.65m-1.2 1.9q-1.85 2.15-3 2.5l-3.9.15-3.05-.05q-1.85-.2-3.35-1 1.5.8 3.35 1l3.05.05 3.9-.15q1.15-.35 3-2.5m-42.8-26.2l-3.05-2.3q-1.15-.8-2.3-.8 1.15 0 2.3.8l3.05 2.3m2.15 8.4l.4 5 .45 6-.45-6-.4-5"/><path fill="url(#f)" d="M129.8 39.2l1.5-1.15q1.15-.75 1.15 1.15.4 5.75.4 9.25 0 7.3-.4 8.05 0 .4-1.9 1.15l-1.15.4.75-6.9q0-6.2-.35-11.95"/><path fill="#9C6538" d="M112.1 60.25l-.9-.25-.5-.05h-.25l-.05-.05-.8-.5q-.8-.55-.7-1.05h1.3q1.2-.1 1.9 1.85v.05m6.35-1.8l.1.45q0 .7-1 1l-1.45.1 1.05-.9q.55-.55 1.3-.65"/><path fill="#fff" d="M125.7 39.3l.45.25q.45.35 1.35 2.35l-1.2-.5-.65-.05.25-1.1-.2-.95m-4.2 2.05h-.3l-3.55.95q2.05-2.25 3.75-3l-.2.95q0 .6.3 1.1m-23.05.95l-4.1.25 2.5-2.7q.5-.4 1.65-.5-.6.65-.6 1.5 0 .8.55 1.45m4.1-2.05l.15.1 3.15 1.5.2.35-.6.2-3.15-.35.3-1.2-.05-.6"/><path fill="url(#g)" d="M125.7 39.3l.2.95-.25 1.1-1.9-.05-2.25.05q-.3-.5-.3-1.1l.2-.95q.8-.35 1.55-.35l2.75.35"/><path fill="url(#h)" d="M98.45 42.3q-.55-.65-.55-1.45 0-.85.6-1.5l.85-.05q1.35 0 3.2.95l.05.6-.3 1.2-.85-.05-.5.05-2.1.2-.4.05"/><path fill="#2B1500" d="M126.6 36.3q-.95-.85-2.45-.85-2.2 0-4 1.2l-3.7 3.3q0-2.5-.8-4.15 3.45-.85 5.35-1.9 1.05-.6 3.35-.6l2.45.15q1.55.45 1.55 2.45L128 38l-.35 1.55h-.05q.2-2.15-1-3.25m-31.15-3.35l2.9.35 2.8.6 2.9.5q1.35.3 1.8 1.65h.4q.15-.2.75-.45l.8-.3V38l-.2 1.2h-1.55l-2.65-.6q-1.65-.2-2.85-.8l-2.9-1.4-2.9-.35q-1.85 0-2.6.6-.85.65-1.8 2.85l-.25.55-.3.6q-.4.55-1 .7l-.2-2.55q0-2.4 1.95-4.1 2-1.75 4.9-1.75"/><path fill="none" stroke="#950700" stroke-width=".05" stroke-linecap="round" stroke-linejoin="round" d="M164.25 324.5q5.8-3.05 4.25-7.3-2.3-5.75-7.3-26.95-5.4-22.65-10-46.5-12.3-63.85-8.45-74.25-1.55 2.3-4.25 3.85-4.6 3.45-6.9 1.55-1.55-1.55-2.35-12.7-.35-11.55.4-25.4 1.1-20.55 4.25-32.8 2.45-9.6 6.15-14.15 1.9-1.95-3.45-3.1l-5.8-.75q-3.45 6.9-7.7 16.15l-.8 1.85q-6.3 14.5-9.55 24.3l-2.3 3.45-6.55 8.5q-11.15 13.85-20.75 23.1-9.2 8.45-18.05 12.7-6.95 1.9-7.7 3.05t-1.15 18.5l-.4 23.05q0 1.95-9.6 56.55-8.85 50.4-7.3 52.3 1.15 1.15 6.55 3.85 6.15 3.1 13.05 5 19.6 6.15 30.35 1.15 3.05-1.55 9.2-2.7 4.65-1.15 10.8-1.9l3.05-.4 3.1-.4 4.2-.75 14.25-1.9 3.45-.4q16.55-2.3 23.85-5 1.15-.8 2.3-1.15h.4q.4-.4.75-.4l2.7 16.55 7.3 19.6.8 10.4-3.1 13.45 5.4 13.1-.4 7.65q0 9.25 3.1 15.8 3.45 6.55 1.15 10.75-.75 2.3-2.7 3.1l-13.85 3.45-16.15.75-11.9-4.6-7.35-10-.75-13.05.75-10.4q-3.8-6.15-4.6-9.25-.4-1.9.8-7.7v-.35h.35v-1.15q.8-3.5 1.95-6.55m-2.3 6.9q-3.5-8.85-13.5-48.45m-66.45-1.15l-1.55 16.15-5.4 21.55.4 11.15 4.6 13.85-4.25 14.6 1.55 8.1q.8 10-1.9 16.9-2.7 7.3 0 11.55 1.15 2.3 3.05 3.05l14.25 2.35 16.15-1.15 11.55-6.2 6.1-11.5-2.3-24.65q3.05-6.9 3.45-10.35.4-1.95-1.55-8.1v-.75l-.4-.8q-1.15-3.85-2.65-6.9m3.05 7.7v-.8m8.45-52.3q-6.15 43.1-8.45 52.3"/><path fill="none" stroke="#999" stroke-width=".05" stroke-linecap="round" stroke-linejoin="round" d="M8.95 249.9l18.85 6.15q0 1.55-.4 3.05-.4 1.95-.75 1.95l1.5.4q.8 5-.35 5.35l-8.5-1.15q-9.6-.75-16.9.8l25.75 11.15 1.15.35q.8 1.15.4 3.85-6.9.4-14.2 0-14.65-.35-15.8-3.05v-.4q-.4-1.15-.4-2.3V273.35l.8-2.3 1.55-5 2.3-6.15 22.3 1.15q-.4-1.15-10.4-3.1l-9.2-1.5 1.9-6.55h.4l-.4-6.15m18.1 17.3h-.4m-24.6 5l.75.4m-2.3 4.6q19.6 4.2 25.75 6.15l2.3.4m149.2-29.25l22.7-3.85 1.9 6.55q1.15 0 2.7 3.85l.8 2.7.75 1.5 1.9 5-.75.4h-.4l-20 5.4-.75-1.15-.75.35-2.7-3.05 6.9-7.3q7.7-7.3 12.3-7.7-5.35-.8-15 1.15l-10.35 1.9q0-3.85.75-5.75m28.85 10.75l-20 9.65m-186.9 7.3l26.55 1.15"/><path fill="none" stroke="#77411A" stroke-width=".05" stroke-linecap="round" stroke-linejoin="round" d="M129.4 58.05v.4q.7 7.35-2.8 12.3-3.55 4.9-5.65 8.65-4.65 3.25-11.95 2.9h-7.15q-7.3-6.05-13.6-10.05-6.35-4-6.65-7.15-.3-3.15-.65-3.2-.4-.4-.4-1.9l-.05.15q-1.15 1.75-3 1.35-1.9-.75-1.9-2.7 0-1.5-1.15-4.2l-2.3-4.25q-2.3-3.05-2.7-5-1.15-3.45.4-6.15.75-1.55 2.3-1.55 0-7.3.35-10.35.2-2.85.85-5.75.65-3.05 1.85-6.2 2.3-5.75 6.5-8.45 2.7-1.95 8.45-5Q94.4-.8 103.6.35q8.1.4 12.7 3.1 3.85 1.9 7.7 10.35l2.75 7.75 1.85 6.9q.8 3.85 1.2 10.75l1.5-1.15q1.15-.75 1.15 1.15.4 5.75.4 9.25 0 7.3-.4 8.05 0 .4-1.9 1.15l-1.15.4.75-6.9q0-6.2-.35-11.95m-57.65-1.55q1.15 0 2.3.8l3.05 2.3"/><path fill="none" stroke="#6F4828" stroke-width=".05" stroke-linecap="round" stroke-linejoin="round" d="M125.65 41.35l.65.05 1.2.5q-.9-2-1.35-2.35l-.45-.25m-.05 2.05l-1.9-.05-2.25.05h-.3l-3.55.95q2.05-2.25 3.75-3 .8-.35 1.55-.35l2.75.35m-27.2.05q-1.15.1-1.65.5l-2.5 2.7 4.1-.25m.05-2.95l.85-.05q1.35 0 3.2.95l.15.1 3.15 1.5.2.35-.6.2-3.15-.35-.85-.05-.5.05-2.1.2-.4.05m5.7 24.05q-.05-.7 2.65-.65l14.7-.65m-41-4.9l-.45-6-.4-5"/><path fill="none" stroke="#9C6538" stroke-width=".05" stroke-linecap="round" stroke-linejoin="round" d="M109.1 42.3q.95 2.4 1.15 4.4l.05 4V54"/><path fill="none" stroke="#8C5B33" stroke-width=".05" stroke-linecap="round" stroke-linejoin="round" d="M125.7 39.3l.2.95-.25 1.1m-27.2.95q-.55-.65-.55-1.45 0-.85.6-1.5m3.8 2.7l.3-1.2-.05-.6m18.85-.95l-.2.95q0 .6.3 1.1m-7.7 18.85q3.8-.4 3.8-2.9 0-1.05-.85-3.3l-.65-1.65-.8-2.55q-.9-2.85-1.5-7.15m4.25 12.6q1.55 1.3 1.55 2.2 0 1.05-1.6 2.9m-10.95-4.9l-.95.95q-.4.6-.4 1.5 0 1.2.9 1.5l3 .75"/><path fill="none" stroke="#B77742" stroke-width=".05" stroke-linecap="round" stroke-linejoin="round" d="M107 68.55q1.5.8 3.35 1l3.05.05 3.9-.15q1.15-.35 3-2.5"/></svg>