<svg xmlns="http://www.w3.org/2000/svg" viewBox="4.2 32.5 175.6 383.8" width="175.6" height="383.8" preserveAspectRatio="xMinYMin"><defs><linearGradient gradientUnits="userSpaceOnUse" x1="-819.2" x2="819.2" gradientTransform="matrix(-.006 -.049 .068 -.008 91.2 207.6)" id="a"><stop offset="0" stop-color="#f00"/><stop offset=".447" stop-color="#FF2C00"/><stop offset="1" stop-color="#E75C00"/></linearGradient><linearGradient gradientUnits="userSpaceOnUse" x1="-819.2" x2="819.2" gradientTransform="matrix(.007 .04 -.035 .006 87.65 339.4)" id="b"><stop offset="0" stop-color="#f00"/><stop offset=".447" stop-color="#FF2C00"/><stop offset="1" stop-color="#E75C00"/></linearGradient><linearGradient gradientUnits="userSpaceOnUse" x1="-819.2" x2="819.2" gradientTransform="matrix(.004 .087 -.074 .004 103 344.95)" id="c"><stop offset="0" stop-color="#f00"/><stop offset=".447" stop-color="#FF2C00"/><stop offset="1" stop-color="#E75C00"/></linearGradient><linearGradient gradientUnits="userSpaceOnUse" x1="-819.2" x2="819.2" gradientTransform="matrix(.01 .038 -.026 .007 134.6 342.25)" id="d"><stop offset="0" stop-color="#f00"/><stop offset=".447" stop-color="#FF2C00"/><stop offset="1" stop-color="#E75C00"/></linearGradient><linearGradient gradientUnits="userSpaceOnUse" x1="-819.2" x2="819.2" gradientTransform="matrix(.03 0 0 .043 89.6 67.55)" id="e"><stop offset="0" stop-color="#D98651"/><stop offset=".533" stop-color="#DFA168"/><stop offset="1" stop-color="#D98651"/></linearGradient><linearGradient gradientUnits="userSpaceOnUse" x1="-819.2" x2="819.2" gradientTransform="matrix(-.001 -.033 .002 0 115 49.35)" id="f"><stop offset="0" stop-color="#D98651"/><stop offset=".533" stop-color="#DFA168"/><stop offset="1" stop-color="#D98651"/></linearGradient><linearGradient gradientUnits="userSpaceOnUse" x1="-819.2" x2="819.2" gradientTransform="matrix(-.001 0 0 -.001 104.35 66.7)" id="g"><stop offset="0" stop-color="#fff"/><stop offset="1" stop-color="#999"/></linearGradient><linearGradient gradientUnits="userSpaceOnUse" x1="-819.2" x2="819.2" gradientTransform="matrix(.001 0 0 .001 91.3 66.8)" id="h"><stop offset="0" stop-color="#fff"/><stop offset="1" stop-color="#999"/></linearGradient><linearGradient gradientUnits="userSpaceOnUse" x1="-819.2" x2="819.2" gradientTransform="matrix(-.002 0 0 -.002 84.25 66.1)" id="i"><stop offset="0" stop-color="#fff"/><stop offset="1" stop-color="#999"/></linearGradient><linearGradient gradientUnits="userSpaceOnUse" x1="-819.2" x2="819.2" gradientTransform="matrix(0 0 0 .001 110.25 66.8)" id="j"><stop offset="0" stop-color="#fff"/><stop offset="1" stop-color="#999"/></linearGradient><radialGradient gradientUnits="userSpaceOnUse" r="819.2" cx="0" cy="0" spreadMethod="pad" gradientTransform="matrix(.003 0 0 .003 88.15 66.3)" id="k"><stop offset=".729" stop-color="#644A3C"/><stop offset="1"/></radialGradient><radialGradient gradientUnits="userSpaceOnUse" r="819.2" cx="0" cy="0" spreadMethod="pad" gradientTransform="matrix(.003 0 0 .003 107.9 66.45)" id="l"><stop offset=".729" stop-color="#644A3C"/><stop offset="1"/></radialGradient><linearGradient gradientUnits="userSpaceOnUse" x1="-819.2" x2="819.2" gradientTransform="matrix(0 .002 -.007 0 99.45 90.85)" id="m"><stop offset="0" stop-color="#873C30"/><stop offset=".541" stop-color="#BF5448"/><stop offset=".992" stop-color="#8A3E31"/></linearGradient><linearGradient gradientUnits="userSpaceOnUse" x1="-819.2" x2="819.2" gradientTransform="matrix(0 -.002 .007 0 99.5 89)" id="n"><stop offset="0" stop-color="#873C30"/><stop offset=".541" stop-color="#BF5448"/><stop offset=".992" stop-color="#8A3E31"/></linearGradient></defs><path fill="url(#a)" d="M95.15 172.8q-19.85 16.3-35.05 5.25-4.75-3.45-8.45-9.25l-2.75-5.1 2.75 5.1q3.7 5.8 8.45 9.25 15.2 11.05 35.05-5.25m-44 128.25q-1.65-.55-3.9.8-6.8-36.5-5.5-48.6 2.7-24.15 9.3-37.9l2.75-6.95q4.95-9.55 1.3-18.45-7.25-17.85-6.2-26.25l-.1-5.25q.05-5.35.7-6.15l.25.1 9.55 5.2q11.85 5.8 23.05 8.9h.05l.25.1 9.25.75q11 .1 18.35-3.25 23.5-10.8 1.9-52.3l1.5-.05 4.2.35 1.9 5.55q2.35 6.7 4.85 12.35 7.9 18 13.95 18.75l.55-.2 1.35 3.75q1.4 4.65 1.25 8.8-.4 13.3-15.95 16.4l-1.05 4.8q-1.2 6-.55 18.2.6 12.2 5.85 18.6l4.7 13.25q5.8 9.95 9.65 26.45 1.7 7.3 2.85 15.35l1.15 9.8.85 11.8-3.25-.7-1.8-.4q-9.9 3.2-35.35 7.25l-2.95.45q-27.9 4.3-39.35 1.8l-15.2-3.2-.3-.05.15.15m56.6-128.45q2.2 4.4 10.3 5.1l7.7-.2-7.7.2q-8.1-.7-10.3-5.1m.7 127.7l.35 1.6-.35-1.6"/><path fill="#fff" d="M175.55 258.6q-1.8-1.3-10.15-.65l-8.25.8q-2.65-1.4-2.25-1.65l.55-.6.45-.05-.45.05 1.6-2.1q.5-1.3 6.3-4.5l5.8-3 .95 1q1 1.1 1.25 2.05.25.8-6.45 3.3l-7.55 2.75-.9.3-.55.15.6-.05.95-.2 8.35-1.15 7.45-1.05q1.95 1.45 3.15 3.8.95 1.75.1 1.55l-.05-.05-.15-.1.15.1.05.05q.8.9.9 1.85 0 .45.35.85-2.55-.95-9.45 1.95-6.2 2.6-6.7 3.2.5-.6 6.7-3.2 6.9-2.9 9.45-1.95l.85 2.5-7 1.05q-7.35 1.35-9.7 3.25 2.35-1.9 9.7-3.25l7-1.05q1.65 2.65 1 3.9-3.7-.35-7.65 0-7.55.75-9.8 2.8l-.25-2.4-.1-.1-.25-1.5.05-.05-.7-1.15 7.85-4.85.15-.1q4.75-2.9 6.65-2.5l.15.05.05.05.1.1-.1-.1-.05-.05-.15-.05m.75.6l-.15-.15-.3-.25.45.4m-155.8 9.35h.1l1.1.6-.4 1.15q-3.5.65-7.2 1.65-7.3 1.9-8.45 3.7 1.45-1.1 6.55.35l8.2 2.25-.3 1.4.05.05.15 1.5.2.35 1.25 2.5q-3.6-1.65-10.4-.05-3.5.85-6.65 2.25-.95-.95-.15-4.05l.55-2.7q-.8-1.3 0-3.05-.75.75-.4-1.35.4-2.7 1.75-4.65L13 269.3l7.5-.75m-.05-.1q-.75-.7-7.1-1.15Q7 266.85 7 266.05q0-.95.55-2.35l.55-1.25 5.65 1.2q5.8 1.35 6.5 2.4l.2 2.4M5.1 279.5q1.55-1.6 8.3-.9 6.1.6 6.7 1.05-.6-.45-6.7-1.05-6.75-.7-8.3.9m.1-3.3l-.1.25.5-.75.05-.05q-.3.2-.45.55m-.65 6l6.35-1.15q6.85-.85 9.6.5-2.75-1.35-9.6-.5l-6.35 1.15"/><path fill="url(#b)" d="M116.05 357.5q.05 6.1 2.35 13.85l-3.6 3.55q4.1 5.6 3.2 16.2-.95 10.55-9.65 20.4-8.75 9.85-24.1-.45-4.75-3.2-9.5-8.1l-3.75-4.2v-18.7l-1.65-8.75q-.8-2.75.1-4 1.85-2.5.3-13.4T53.2 308.85q-1.3-6.95-2.05-7.8l.15.05v-.15l15.2 3.2q11.45 2.5 39.35-1.8l2.95-.45 9.6 44.5q-2.45 4.6-2.35 11.1l-.55-1.4.55 1.4"/><path fill="url(#c)" d="M51.15 301.05l-.15-.15.3.05v.15l-.15-.05"/><path fill="url(#d)" d="M144.15 294.65q1 54.4 1.35 50.2.2-2.6 3.25.7l2.95 3.85 4.9 7.85v8.15l10.15 36.3q-4.9 2.85-11.05 5.2-12.35 4.65-18.7 2-6.35-2.65-7.4-7.45-.35-1.55-.1-3.05l.3-1.25-7.85-24.55-5.9-15.1q-.1-6.5 2.35-11.1l-9.6-44.5q25.45-4.05 35.35-7.25"/><path fill="url(#e)" d="M68.1 64.8q-4.25-18.7 9.05-27.25Q83.8 33.3 91.3 32.6q14.65-.9 19.85 8.65 1.7 3.15 2.35 7.5l.55 5.25q.4 3 0 7.3v1l-.1-.15-.05.6v.05l-.1.95-.15.8q.75 5.75.55 14l-.05.5-.1 3.2q-.7 3.55-4 9l-3.2 4.7-3.95 5.65q-.8.65-2.05 1.05-4.35-.05-12.65-4.45l-7.45-4.45q-4.35-2.05-6.2-7.8l-.95-5.1q-.45.55-2.1.85-1.95.35-2.85-2.35l-.5-2.8q-.3 0-.85-.9-1.05-1.85-2.1-6.5-1.05-4.6 2.4-4.4l.5.05q1.5.2 3.2 1.05-1.7-.85-3.2-1.05m5.45 15.25l.15.55-.15-.55m.15.55l-.1.25.1-.2v-.05"/><path fill="url(#f)" d="M113.8 63.75q1.15-.9 2.25-.25l.95.85v3.7l-1.65 3.7.55 1.1q.55 1.6.55 3.9t-1.1 2.3l-1.15-.5q.2-8.25-.55-14l.15-.8"/><path fill="#fff" d="M108.9 67.15l-.25-.15-.15-.35.15-.35.35-.15.2.05.15.1.15.35-.15.35-.35.15h-.1m-19.35-.85l.1.05.15.35-.15.35-.35.15h-.05l-.3-.15-.15-.35.15-.35.35-.15.25.1"/><path d="M89.55 66.3l-.25-.1-.35.15-.15.35.15.35.3.15-.1.1q-.35.4-.9.4t-.95-.4q-.35-.35-.35-.9t.35-.95q.4-.35.95-.35.55 0 .9.35t.4.85m19.05-5.65q-2.4-.3-5.85 2.8l-.05-1.5 3.4-2.05q3.75-1.5 5.25 1.5l.6 1.25.25.6.15.25.05.05.4.8-2.4-2.85q-.6-.75-1.8-.85m.3 6.5l-.1.05q-.35.4-.9.4t-.95-.4q-.35-.35-.35-.9t.35-.95q.4-.35.95-.35.55 0 .9.35t.4.85l-.2-.05-.35.15-.15.35.15.35.25.15m-16.8-7l3.65 1.45-.65 1.65q-7.15-2.65-9.9-3.3-1.7-.4-3.5 1.45l-1.55 1.85q.6-2.05 2.95-3.45 1.25-.65 2.3-.95 2.6-.15 6.7 1.3"/><path fill="url(#g)" d="M104.75 67.5l-1.5-.35 1.5-1 1.3-.8q-.35.5-.35 1.15 0 .7.45 1.25l-1.4-.25"/><path fill="url(#h)" d="M90.6 66.05l2.3 1.25-1.95.3-.7.1q.35-.6.35-1.3v-.35"/><path fill="url(#i)" d="M83 67.2l.1-.2q1-2.65 3.35-2.5l.25.05-.2.15q-.75.7-.75 1.7 0 .9.65 1.6h-.2l-3.2-.8"/><path fill="url(#j)" d="M110.4 67.25v.1l-.1.05-.6.15.25-1.05-.05-.55.5 1.3"/><path fill="url(#k)" d="M90.3 65.9l.3.15v.35q0 .7-.35 1.3l-3.85.3q-.65-.7-.65-1.6 0-1 .75-1.7l.2-.15q1.1.1 2.25.6l1.35.75m-.75.4q-.05-.5-.4-.85-.35-.35-.9-.35t-.95.35q-.35.4-.35.95 0 .55.35.9.4.4.95.4.55 0 .9-.4l.1-.1h.05l.35-.15.15-.35-.15-.35-.1-.05"/><path fill="url(#l)" d="M106.05 65.35l.05-.05q1-.5 1.9-.55 1.2-.05 1.9 1.2l.05.55-.25 1.05-1.7.45-1.85-.25q-.45-.55-.45-1.25 0-.65.35-1.15m3.15.85q-.05-.5-.4-.85-.35-.35-.9-.35t-.95.35q-.35.4-.35.95 0 .55.35.9.4.4.95.4.55 0 .9-.4l.1-.05h.1l.35-.15.15-.35-.15-.35-.15-.1"/><path fill="#644A3C" d="M95.65 82.5l.6-.7q.75-.55 1.95.25.2.85-2.55.45"/><path fill="url(#m)" d="M92.95 90.1l5.9-.4 1.85.6 1-.35 1.8-.8 1.75-.25v.05q-.15 0-.15.1l-.2 1.45q-.1.95-1.4 1.65l-2.45.35q-3.7.5-5.8-1.05l-2.55-1.3.25-.1v.05"/><path fill="url(#n)" d="M92.95 90.1l.15-.1.25-.1.3-.55 1.45-.9q1.55-1.25 2.6-.95l2.15.7 1.75.2 1.35-1 1.15.05q.85.3 1.15 1.45l-1.75.25-1.8.8-1 .35-1.85-.6-5.9.4m12.3-1.15l.05.2-.2-.1.15-.1-.15.1q0-.1.15-.1"/><path fill="#362B1F" d="M104.75 66.15q.3-.8 1.3-1.45.7-.55.65-1.05l.25.75.7-.7.4.5.55-.35.65.45.75-.3-.1.7h.35l.65-.2-.35 1.2.3-.1v.65h.25v.1l-.3.5-.4.4-.5-1.3q-.7-1.25-1.9-1.2-.9.05-1.9.55l-.05.05-1.3.8m5.55 1.25q.55.45.35.75l-.05.15-.4-.4-.2-.05.05.2v.8l-.3.15-.4-.85h-.1l-.3.85-.55-.4v.4q-.3-.3-.6-.4h-.2v.35l-.9-.65v.4l-1.2-.75-.75-.45 1.4.25L108 68l1.7-.45.6-.15M83.1 67q-.7-.05-1.25-.55l-.5-.7.55.1.2-.15-.3-.5.95.15h.05l-.35-.85.95.15-.2-.75v-.55q.4 0 1.4.8v-.6q.4 0 .6.4l.2-.2.1-.45.2-.05.25.25.25.35.25.1q-.1-.5.3-.6l.55-.15.45 1.25.1.1.3-.5.65.8.35-.45.65.85.5.65-1.35-.75q-1.15-.5-2.25-.6l-.25-.05q-2.35-.15-3.35 2.5m7.85.6q-.15.3-.95.45h-.3q-1.05 0-1.05.45h-.75q-.25.05-.4.2l-.3.3-.4-.3-.75.25-.2-.25-.25-.15-.4.3-.85.1-.35-.4q-.5.25-.6.4l-.6-.45-.8-.15q-.05-.25 1-1.15l3.2.8h.2l3.85-.3.7-.1"/><path fill="none" stroke="#950700" stroke-width=".05" stroke-linecap="round" stroke-linejoin="round" d="M48.9 163.7l2.75 5.1q3.7 5.8 8.45 9.25 15.2 11.05 35.05-5.25m-44 128.25q-1.65-.55-3.9.8-6.8-36.5-5.5-48.6 2.7-24.15 9.3-37.9l2.75-6.95q4.95-9.55 1.3-18.45-7.25-17.85-6.2-26.25l-.1-5.25q.05-5.35.7-6.15l.25.1 9.55 5.2q11.85 5.8 23.05 8.9h.05l.25.1 9.25.75q11 .1 18.35-3.25 23.5-10.8 1.9-52.3l1.5-.05 4.2.35 1.9 5.55q2.35 6.7 4.85 12.35 7.9 18 13.95 18.75m.55-.2l1.35 3.75q1.4 4.65 1.25 8.8-.4 13.3-15.95 16.4l-1.05 4.8q-1.2 6-.55 18.2.6 12.2 5.85 18.6l4.7 13.25q5.8 9.95 9.65 26.45 1.7 7.3 2.85 15.35l1.15 9.8.85 11.8-3.25-.7-1.8-.4q1 54.4 1.35 50.2.2-2.6 3.25.7l2.95 3.85 4.9 7.85v8.15l10.15 36.3q-4.9 2.85-11.05 5.2-12.35 4.65-18.7 2-6.35-2.65-7.4-7.45-.35-1.55-.1-3.05l.3-1.25-7.85-24.55-5.9-15.1q.05 6.1 2.35 13.85l-3.6 3.55q4.1 5.6 3.2 16.2-.95 10.55-9.65 20.4-8.75 9.85-24.1-.45-4.75-3.2-9.5-8.1l-3.75-4.2v-18.7l-1.65-8.75q-.8-2.75.1-4 1.85-2.5.3-13.4T53.2 308.85q-1.3-6.95-2.05-7.8l-.15-.15.3.05 15.2 3.2q11.45 2.5 39.35-1.8l2.95-.45-.35-1.6m17.3-122.8l-7.7.2q-8.1-.7-10.3-5.1m-56.6 128.45l.15.05v-.15m57.5.95l9.6 44.5q-2.45 4.6-2.35 11.1l-.55-1.4m28.65-61.45q-9.9 3.2-35.35 7.25"/><path fill="none" stroke="#999" stroke-width=".05" stroke-linecap="round" stroke-linejoin="round" d="M155.45 256.5l-.55.6q-.4.25 2.25 1.65l8.25-.8q8.35-.65 10.15.65l.15.05.05.05.1.1.3.25.15.15.15.1.05.05q.85.2-.1-1.55-1.2-2.35-3.15-3.8l-7.45 1.05-8.35 1.15-.95.2-.6.05-.45.05 1.6-2.1q.5-1.3 6.3-4.5l5.8-3 .95 1q1 1.1 1.25 2.05.25.8-6.45 3.3l-7.55 2.75-.9.3-.55.15m19.65 2.15q-1.9-.4-6.65 2.5l-.15.1-7.85 4.85.7 1.15q.5-.6 6.7-3.2 6.9-2.9 9.45-1.95-.35-.4-.35-.85-.1-.95-.9-1.85m-14.9 7.85l-.05.05.25 1.5.1.1q2.35-1.9 9.7-3.25l7-1.05-.85-2.5m-157.25 6.5h.1l1.1.6-.4 1.15q-3.5.65-7.2 1.65-7.3 1.9-8.45 3.7 1.45-1.1 6.55.35l8.2 2.25-.3 1.4.05.05.15 1.5.2.35 1.25 2.5q-3.6-1.65-10.4-.05-3.5.85-6.65 2.25-.95-.95-.15-4.05l.55-2.7q-.8-1.3 0-3.05-.75.75-.4-1.35.4-2.7 1.75-4.65L13 269.3l7.5-.75-.05-.1q-.75-.7-7.1-1.15Q7 266.85 7 266.05q0-.95.55-2.35l.55-1.25 5.65 1.2q5.8 1.35 6.5 2.4l.2 2.4m-.35 11.2q-.6-.45-6.7-1.05-6.75-.7-8.3.9m.1-3.3l-.1.25.5-.75.05-.05q-.3.2-.45.55m15.3 5.35q-2.75-1.35-9.6-.5l-6.35 1.15m171.3-23.4l.45.4m-14.4 9.65l.25 2.4q2.25-2.05 9.8-2.8 3.95-.35 7.65 0 .65-1.25-1-3.9"/><path fill="none" stroke="#8E5027" stroke-width=".05" stroke-linecap="round" stroke-linejoin="round" d="M113.8 63.75l.1-.95v-.05l.05-.6.1.15v-1q.4-4.3 0-7.3l-.55-5.25q-.65-4.35-2.35-7.5-5.2-9.55-19.85-8.65-7.5.7-14.15 4.95-13.3 8.55-9.05 27.25 1.5.2 3.2 1.05m42.9 12.7l1.15.5q1.1 0 1.1-2.3t-.55-3.9l-.55-1.1 1.65-3.7v-3.7l-.95-.85q-1.1-.65-2.25.25l-.15.8q.75 5.75.55 14l-.05.5-.1 3.2q-.7 3.55-4 9l-3.2 4.7-3.95 5.65q-.8.65-2.05 1.05-4.35-.05-12.65-4.45l-7.45-4.45q-4.35-2.05-6.2-7.8l-.95-5.1q-.45.55-2.1.85-1.95.35-2.85-2.35l-.5-2.8q-.3 0-.85-.9-1.05-1.85-2.1-6.5-1.05-4.6 2.4-4.4l.5.05m5.6 15.8l-.15-.55m.15.55v.05l-.1.2.1-.25M83.7 66.3l.65-.55M104.75 67.5l-1.5-.35 1.5-1m5.15-.2l.5 1.3m-4.25.5l-1.4-.25m1.4.25q-.45-.55-.45-1.25 0-.65.35-1.15m-15.45.7l2.3 1.25-1.95.3M83.1 67q1-2.65 3.35-2.5l.25.05m3.55 3.15q.35-.6.35-1.3v-.35m4.95 13.65q-.8.15-1.25 1.25-.5 1.15 1 2.3m9.95 5.65q-.3-1.15-1.15-1.45l-1.15-.05-1.35 1-1.75-.2-2.15-.7q-1.05-.3-2.6.95l-1.45.9-.3.55-.25.1-.15.1 5.9-.4 1.85.6 1-.35 1.8-.8 1.75-.25h.15l-.15.05.05.2-.2-.1-.2 1.45q-.1.95-1.4 1.65l-2.45.35q-3.7.5-5.8-1.05l-2.55-1.3.25-.1.15-.05.55-.65m-.7.7l.15-.05m8.35-23.55q-1.2 2.1-.3 4.95l2.5 8.15.1 1.5q-.7 1.5-1.8 2l-1.35.3m4.8 5.55l-.15.05-.15.1q0-.1.15-.1v-.05"/></svg>