<svg xmlns="http://www.w3.org/2000/svg" viewBox="34.8 -1.4 173.1 489.4" width="173.1" height="489.4" preserveAspectRatio="xMinYMin"><defs><linearGradient gradientUnits="userSpaceOnUse" x1="-819.2" x2="819.2" gradientTransform="matrix(-.008 -.05 .037 -.006 99.85 41.9)" id="a"><stop offset="0" stop-color="#D98651"/><stop offset=".533" stop-color="#DFA168"/><stop offset="1" stop-color="#D98651"/></linearGradient><linearGradient gradientUnits="userSpaceOnUse" x1="-819.2" x2="819.2" gradientTransform="matrix(-.005 .011 -.005 -.002 131.35 48.05)" id="b"><stop offset="0" stop-color="#D98651"/><stop offset=".533" stop-color="#DFA168"/><stop offset="1" stop-color="#D98651"/></linearGradient><radialGradient gradientUnits="userSpaceOnUse" r="819.2" cx="0" cy="0" spreadMethod="pad" gradientTransform="matrix(.005 0 0 .005 99.9 41.15)" id="c"><stop offset=".682" stop-color="#630"/><stop offset="1"/></radialGradient><linearGradient gradientUnits="userSpaceOnUse" x1="-819.2" x2="819.2" gradientTransform="matrix(-.003 .001 0 -.001 92.95 42.3)" id="d"><stop offset="0" stop-color="#fff"/><stop offset="1" stop-color="#666"/></linearGradient><linearGradient gradientUnits="userSpaceOnUse" x1="-819.2" x2="819.2" gradientTransform="matrix(.002 .001 -.001 .001 105.65 43.15)" id="e"><stop offset="0" stop-color="#fff"/><stop offset="1" stop-color="#666"/></linearGradient><radialGradient gradientUnits="userSpaceOnUse" r="819.2" cx="0" cy="0" spreadMethod="pad" gradientTransform="matrix(.005 0 0 .005 122.7 40.8)" id="f"><stop offset=".682" stop-color="#630"/><stop offset="1"/></radialGradient><linearGradient gradientUnits="userSpaceOnUse" x1="-819.2" x2="819.2" gradientTransform="matrix(.001 0 0 .001 127.65 41.65)" id="g"><stop offset="0" stop-color="#fff"/><stop offset="1" stop-color="#666"/></linearGradient><linearGradient gradientUnits="userSpaceOnUse" x1="-819.2" x2="819.2" gradientTransform="matrix(-.003 .002 -.001 -.001 116.75 43.05)" id="h"><stop offset="0" stop-color="#fff"/><stop offset="1" stop-color="#666"/></linearGradient><radialGradient gradientUnits="userSpaceOnUse" r="819.2" cx="0" cy="0" spreadMethod="pad" gradientTransform="matrix(.268 0 0 .268 106.3 300.3)" id="i"><stop offset=".063" stop-color="#333"/><stop offset=".573"/><stop offset="1"/></radialGradient><radialGradient gradientUnits="userSpaceOnUse" r="819.2" cx="0" cy="0" spreadMethod="pad" gradientTransform="matrix(.157 0 0 .157 145.9 345.7)" id="j"><stop offset=".063" stop-color="#333"/><stop offset=".573"/><stop offset="1"/></radialGradient><radialGradient gradientUnits="userSpaceOnUse" r="819.2" cx="0" cy="0" spreadMethod="pad" gradientTransform="matrix(.18 0 0 .18 63.15 360.7)" id="k"><stop offset=".063" stop-color="#333"/><stop offset=".573"/><stop offset="1"/></radialGradient><radialGradient gradientUnits="userSpaceOnUse" r="819.2" cx="0" cy="0" spreadMethod="pad" gradientTransform="matrix(.085 0 0 .085 57 418.75)" id="l"><stop offset=".063" stop-color="#7F8B98"/><stop offset=".318" stop-color="#819999"/><stop offset=".675" stop-color="#31343E"/></radialGradient><radialGradient gradientUnits="userSpaceOnUse" r="819.2" cx="0" cy="0" spreadMethod="pad" gradientTransform="matrix(.073 0 0 .073 158.2 421.85)" id="m"><stop offset=".063" stop-color="#7F8B98"/><stop offset=".318" stop-color="#819999"/><stop offset=".675" stop-color="#31343E"/></radialGradient></defs><path fill="url(#a)" d="M129.45 58.05v.4q-.4 3.05-3.45 10-3.5 8.05-6.95 11.15-2.7 3.05-10 2.7l-6.55-1.15Q93.65 76.9 86.35 68.8q-3.1-3.45-5.05-6.5 0-.4-.35-.4l-.4-.75q-1.15.75-3.05.35-1.9-.75-1.9-2.7 0-1.5-1.15-4.2l-2.3-4.25q-2.3-3.05-2.7-5-1.15-3.45.4-6.15.75-1.55 2.3-1.55 0-7.3.35-10.35.2-2.85.85-5.75.65-3.05 1.85-6.2 2.3-5.75 6.5-8.45 2.7-1.95 8.5-5Q94.45-.8 103.65.35q8.1.4 12.7 3.1 3.85 1.9 7.7 10.35l2.75 7.75 1.85 6.9q.8 3.85 1.2 10.75.35 5.75.35 11.95l-.75 6.9M77.5 40.75l-3.05-2.3q-1.15-.8-2.3-.8 1.15 0 2.3.8l3.05 2.3"/><path fill="url(#b)" d="M129.85 39.2l1.5-1.15q1.15-.75 1.15 1.15.4 5.75.4 9.25 0 7.3-.4 8.05 0 .4-1.9 1.15l-1.15.4.75-6.9q0-6.2-.35-11.95"/><path fill="#630" d="M116.6 59.95q-.75.55-1.3.2l-.5-.7q2.1-.7 2.4-.4l-.05.4-.55.5m-8.2-.65l3.1-.05-.15.45q-.5.5-1.95.6-.85-.55-1-1"/><path fill="url(#c)" d="M96.2 40.45l.55-.2.6-.2 1.05-.25-.3.45q-.25.45-.25.95 0 .85.6 1.45l.2.2-2.2-.05q-.35-.7-.35-1.6l.1-.75m5.5-.25l.2.05 1.6.8v.15q0 1.3-.75 2.25l-.95-.2-.75-.15-.25-.05.55-.4.6-1.1.35-.15.15-.4-.15-.35q-.15-.15-.4-.15h-.05l-.1-.25-.05-.05"/><path d="M101.7 40.2l.05.05.1.25-.3.15-.15.35.15.4.35.15h.05l-.6 1.1-.55.4h-.25l-1.9-.2-.2-.2q-.6-.6-.6-1.45 0-.5.25-.95l.3-.45 3.3.4m22.85-.6l.1.25-.35.1-.1.35.1.35.35.15.2-.05q0 .7-.55 1.25l-.1.2-.25-.05-.4.05-1.55.05-.3-.25q-.55-.55-.55-1.3 0-.7.45-1.2l2.95.1"/><path fill="#fff" d="M124.65 39.85l.35.1.15.35-.15.35-.15.1-.2.05-.35-.15-.1-.35.1-.35.35-.1m-22.8.65h.05q.25 0 .4.15l.15.35-.15.4-.35.15h-.05l-.35-.15-.15-.4.15-.35.3-.15"/><path fill="url(#d)" d="M96.45 42.8l-5 .45 1.1-1.05q1.15-.85 3.65-1.75l-.1.75q0 .9.35 1.6"/><path fill="url(#e)" d="M103.5 41.05l1.1.75q3.85 2.8-1.6 1.7l-.25-.05q.75-.95.75-2.25v-.15"/><path fill="url(#f)" d="M124.55 39.6l1.45.6.1.85-.2 1.2h-.3l-1.05-.05h-.35l.1-.2q.55-.55.55-1.25l.15-.1.15-.35-.15-.35-.35-.1-.1-.25m-2.95-.1q-.45.5-.45 1.2 0 .75.55 1.3l.3.25-1.75.25-.45.15q-.4-.7-.4-1.6v-.45l1.1-.7 1.1-.4"/><path fill="url(#g)" d="M125.9 42.25l.2-1.2-.1-.85.6.3q3.35 1.9-.7 1.75"/><path fill="url(#h)" d="M119.8 42.65l-3.5 1 .7-1.1q.75-.85 2.4-1.95v.45q0 .9.4 1.6"/><path d="M77.75 82.95l3.5-17.7h-.4Q79.7 64.1 79.3 64.1q-1.15.75-1.9.75-1.55-.35-3.45-4.6-5-9.2-5.8-11.55-2.7-6.9-.75-9.6 1.9-2.7 3.05-3.05.7 0 .8.3l-.8-4.95Q70.1 25.65 72 19.5q2.7-7.3 4.6-10 1.95-2.7 6.55-5.8 5.45-2.65 9.3-4.2 4.6-1.15 8.45-.8 5.4.4 8.45 1.55 5 1.15 7.7 3.1 3.45 2.7 7.3 10.75 4.65 8.45 5.8 15.4l2.3 12.7q.75 3.05.75 6.5.4 6.95-1.55 9.25-1.15 1.9-4.6 9.25-2.7 5.75-3.45 7.65.4 2.35 1.15 5.4l.75 3.45-2.7-.75H77.75m3.5-17.7l2.7 2.7q6.55 5.75 11.55 9.6 5 4.25 7.3 5.4-2.3-1.15-7.3-5.4-5-3.85-11.55-9.6l-2.7-2.7m40.4-26.55q-11.9 2.35-35-1.5l-1.2 5q3.15 2.65 6.6 5 13.85 8.85 25 6.9l2.3-1.15q2.7-1.15 4.65-2.7 6.9-4.6 6.5-10l-.75-5.4q-1.15 2.7-8.1 3.85m-1.2 40.4l-.3.4-1.15.75q-2.35 1.95-5 2.7 2.65-.75 5-2.7l1.15-.75.3-.4 2.75-3.45q0-.35.35-.75l-.75.75-2.35 3.45m3.15-4.25l-.05.05.05-.05M85.45 42.2l-7.3-6.55 8.5 1.55-8.5-1.55 7.3 6.55"/><path fill="url(#i)" d="M125.5 83.7h.4l28.45 10q1.95 19.25-.75 37.7-1.95 13.85-5 19.25-3.1 6.15-5.8 17.7-4.2 15.75-2.65 25 1.5 8.85 1.5 18.85l-.35 5v3.45q-16.95 17.75-18.5 28.9-.35 3.85.4 9.2 1.55 7.35 1.55 8.85.75 8.5 6.9 32.7 3.1 12.3 6.15 22.7-1.9 2.3-13.05 3.85l-15 1.15-6.15-.4-3.85-.35-4.25-1.15q-6.5-1.55-10.05-2.7-6.5-1.95-6.15-3.1.4-2.3 0-9.6.4-12.3 5.8-37.7 5.8-25-11.15-40.8-1.55-1.55-12.7-10-6.15-5-6.95-8.5-.75-6.9 1.95-14.6 1.15-3.85 2.7-6.15.75-5.4-1.2-10l-3.8-8.1q-2.7-5.35-3.5-10.75-.75-6.9.8-16.15v-1.55q3.85-18.05-4.65-35-5-9.6-10.35-14.2l39.2-14.25h35.85l-6.95.4-1.05-.4 1.05.4 6.95-.4h11.5l2.7.75"/><path fill="url(#j)" d="M141.3 217.2l12.7 49.25 7.65 16.95v40l6.15 30.75-6.15 12.3-1.15.4-38.05 6.9h-.4l-1.9.4-9.25-9.25 1.55-18.45-2.7-18.45 15-1.15q11.15-1.55 13.05-3.85-3.05-10.4-6.15-22.7-6.15-24.2-6.9-32.7 0-1.5-1.55-8.85-.75-5.35-.4-9.2 1.55-11.15 18.5-28.9v-3.45"/><path fill="url(#k)" d="M95.5 326.1l-6.15 29.6L90.9 368l-6.95 2.3-2.35.8-18.45 3.05-16.9-1.55-4.65-3.45h-.35l-5.8-4.25 4.65-12.3-4.65-40 2.7-11.9q2.7-15 3.45-29.6 1.15-14.25 6.95-37.4 3.05-11.15 5.75-20 .8 3.5 6.95 8.5 11.15 8.45 12.7 10Q90.9 248 85.1 273q-5.4 25.4-5.8 37.7.4 7.3 0 9.6-.35 1.15 6.15 3.1 3.55 1.15 10.05 2.7"/><path fill="url(#l)" d="M83.95 370.3l.35.4q-1.55 9.6-6.9 28.85v.35l-3.45 10.8q-2.35 7.3-2.35 16.15l.4 15.75q0 6.55 2.3 10l2.3 3.85q1.55 2.3 3.1 5.8 2.3 6.15.75 9.6l-1.9 3.85q-1.95 2.7-2.7 4.6-2.3 5-9.25 6.15l-11.5 1.15q-5.4 1.15-10-1.15-4.25-1.9-8.85-7.3-3.85-3.85 2.7-14.6 7.3-11.15 8.05-13.45.75-2.7 0-11.95-1.15-15-1.55-23.05-.35-12.35-1.9-18.1l-1.15-2.7-.4-.4q-2.3-10-1.9-18.8.35-4.65 1.15-6.95h.35l4.65 3.45 16.9 1.55 18.45-3.05 2.35-.8"/><path fill="url(#m)" d="M160.5 366.85l.4.75q1.15 12.3 2.7 24.65 3.05 25.35 3.85 28.05 1.15 3.1 7.7 8.85 6.15 5.75 10.35 7.3 2.7.8 12.7 4.65 9.25 3.8 9.6 8.45.8 5-6.5 10.75-6.95 5.4-11.55 5.8-3.1.35-14.6-7.7-11.55-8.1-12.7-8.1-2.7 0-9.65-1.9-6.9-2.7-6.5-3.5.35-1.5 0-18.05 0-3.85-12.3-28.85l-11.2-22.7-.05-.1v-.25q-.3-.7-.3-1.2l38.05-6.9"/><path fill="none" stroke="#77411A" stroke-width=".05" stroke-linecap="round" stroke-linejoin="round" d="M129.85 39.2l1.5-1.15q1.15-.75 1.15 1.15.4 5.75.4 9.25 0 7.3-.4 8.05 0 .4-1.9 1.15l-1.15.4v.4q-.4 3.05-3.45 10-3.5 8.05-6.95 11.15-2.7 3.05-10 2.7l-6.55-1.15Q93.65 76.9 86.35 68.8q-3.1-3.45-5.05-6.5 0-.4-.35-.4l-.4-.75q-1.15.75-3.05.35-1.9-.75-1.9-2.7 0-1.5-1.15-4.2l-2.3-4.25q-2.3-3.05-2.7-5-1.15-3.45.4-6.15.75-1.55 2.3-1.55 0-7.3.35-10.35.2-2.85.85-5.75.65-3.05 1.85-6.2 2.3-5.75 6.5-8.45 2.7-1.95 8.5-5Q94.45-.8 103.65.35q8.1.4 12.7 3.1 3.85 1.9 7.7 10.35l2.75 7.75 1.85 6.9q.8 3.85 1.2 10.75.35 5.75.35 11.95l-.75 6.9m-57.3-20.4q1.15 0 2.3.8l3.05 2.3"/><path fill="none" stroke="#8E5027" stroke-width=".05" stroke-linecap="round" stroke-linejoin="round" d="M112.35 37.95q-.25 4.8 2.85 10.15 3.35 7.65 1.75 9.25l-4.2 2.95m3.85-.35l1.8-.7q1.3-.85-.4-2.95m-10.5 0l-1.15 1.25q-.6 1.5 2 2.95m-4.05 8.15l1.85-.95q3.4-.3 5.5.1l3.35-.2q1.25-.6 1.95-.5l2.2.35q1.45.25.85.9m-13.25 1.5q1.65 1 2.85 1.2h3l3.9-.55q1.35-.5 1.75-1.5M108.7 39.6l.85 1.95q.7 2.6.05 5.85M126 40.2l-1.45-.6m-.35 2.6h.35l1.05.05h.3l.2-1.2-.1-.85.6.3q3.35 1.9-.7 1.75m-3.9 0l1.55-.05.4-.05.25.05m-2.2.05l-1.75.25-.45.15-3.5 1 .7-1.1q.75-.85 2.4-1.95l1.1-.7 1.1-.4 2.95.1m-28.35.85l.55-.2.6-.2 1.05-.25 3.3.4.2.05 1.6.8 1.1.75q3.85 2.8-1.6 1.7l-.25-.05-.95-.2-.75-.15-.25-.05h-.25l-1.9-.2-2.2-.05-5 .45 1.1-1.05q1.15-.85 3.65-1.75l-.1.75q0 .9.35 1.6m7.05-1.75v.15q0 1.3-.75 2.25m-.85-2.95h-.05m.05 1.05h.05m17.85 1.1q-.4-.7-.4-1.6v-.45"/><path fill="none" stroke="#000" stroke-width=".05" stroke-linecap="round" stroke-linejoin="round" d="M77.75 82.95l3.5-17.7h-.4Q79.7 64.1 79.3 64.1q-1.15.75-1.9.75-1.55-.35-3.45-4.6-5-9.2-5.8-11.55-2.7-6.9-.75-9.6 1.9-2.7 3.05-3.05.7 0 .8.3l-.8-4.95Q70.1 25.65 72 19.5q2.7-7.3 4.6-10 1.95-2.7 6.55-5.8 5.45-2.65 9.3-4.2 4.6-1.15 8.45-.8 5.4.4 8.45 1.55 5 1.15 7.7 3.1 3.45 2.7 7.3 10.75 4.65 8.45 5.8 15.4l2.3 12.7q.75 3.05.75 6.5.4 6.95-1.55 9.25-1.15 1.9-4.6 9.25-2.7 5.75-3.45 7.65.4 2.35 1.15 5.4l.75 3.45h.4l28.45 10q1.95 19.25-.75 37.7-1.95 13.85-5 19.25-3.1 6.15-5.8 17.7-4.2 15.75-2.65 25 1.5 8.85 1.5 18.85l-.35 5 12.7 49.25 7.65 16.95v40l6.15 30.75-6.15 12.3-1.15.4m.4.75q1.15 12.3 2.7 24.65 3.05 25.35 3.85 28.05 1.15 3.1 7.7 8.85 6.15 5.75 10.35 7.3 2.7.8 12.7 4.65 9.25 3.8 9.6 8.45.8 5-6.5 10.75-6.95 5.4-11.55 5.8-3.1.35-14.6-7.7-11.55-8.1-12.7-8.1-2.7 0-9.65-1.9-6.9-2.7-6.5-3.5.35-1.5 0-18.05 0-3.85-12.3-28.85l-11.2-22.7-.05-.1v-.25l-.7-1.2-1.9.4-9.25-9.25 1.55-18.45-2.7-18.45-6.15-.4-3.85-.35-4.25-1.15-6.15 29.6L90.9 368l-6.95 2.3m.35.4q-1.55 9.6-6.9 28.85v.35l-3.45 10.8q-2.35 7.3-2.35 16.15l.4 15.75q0 6.55 2.3 10l2.3 3.85q1.55 2.3 3.1 5.8 2.3 6.15.75 9.6l-1.9 3.85q-1.95 2.7-2.7 4.6-2.3 5-9.25 6.15l-11.5 1.15q-5.4 1.15-10-1.15-4.25-1.9-8.85-7.3-3.85-3.85 2.7-14.6 7.3-11.15 8.05-13.45.75-2.7 0-11.95-1.15-15-1.55-23.05-.35-12.35-1.9-18.1l-1.15-2.7-.4-.4q-2.3-10-1.9-18.8.35-4.65 1.15-6.95l-5.8-4.25 4.65-12.3-4.65-40 2.7-11.9q2.7-15 3.45-29.6 1.15-14.25 6.95-37.4 3.05-11.15 5.75-20-.75-6.9 1.95-14.6 1.15-3.85 2.7-6.15.75-5.4-1.2-10l-3.8-8.1q-2.7-5.35-3.5-10.75-.75-6.9.8-16.15v-1.55q3.85-18.05-4.65-35-5-9.6-10.35-14.2l39.2-14.25h27.35q-2.3-1.15-7.3-5.4-5-3.85-11.55-9.6l-2.7-2.7m40.4-26.55q-11.9 2.35-35-1.5l-1.2 5q3.15 2.65 6.6 5 13.85 8.85 25 6.9l2.3-1.15q2.7-1.15 4.65-2.7 6.9-4.6 6.5-10l-.75-5.4q-1.15 2.7-8.1 3.85M111.3 82.95h-8l1.05.4 6.95-.4h2.7q2.65-.75 5-2.7l1.15-.75.3-.4 2.35-3.45.75-.75.05-.05m-20.3 8.1h-.5m22.7.75l-2.7-.75H114M86.65 37.2l-8.5-1.55 7.3 6.55m55.85 175v3.45q-16.95 17.75-18.5 28.9-.35 3.85.4 9.2 1.55 7.35 1.55 8.85.75 8.5 6.9 32.7 3.1 12.3 6.15 22.7-1.9 2.3-13.05 3.85l-15 1.15m-14.25-1.9q-6.5-1.55-10.05-2.7-6.5-1.95-6.15-3.1.4-2.3 0-9.6.4-12.3 5.8-37.7 5.8-25-11.15-40.8-1.55-1.55-12.7-10-6.15-5-6.95-8.5M41.25 369.15h.35l4.65 3.45 16.9 1.55 18.45-3.05 2.35-.8m38.5 3.45h-.4m.7 1.2q-.3-.7-.3-1.2l38.05-6.9"/></svg>