<svg xmlns="http://www.w3.org/2000/svg" viewBox="-4.3 -2.8 220.1 497.6" width="220.1" height="497.6" preserveAspectRatio="xMinYMin"><defs><linearGradient gradientUnits="userSpaceOnUse" x1="-819.2" x2="819.2" gradientTransform="matrix(-.008 -.05 .037 -.006 99.8 41.9)" id="a"><stop offset="0" stop-color="#D98651"/><stop offset=".533" stop-color="#DFA168"/><stop offset="1" stop-color="#D98651"/></linearGradient><linearGradient gradientUnits="userSpaceOnUse" x1="-819.2" x2="819.2" gradientTransform="matrix(-.005 .011 -.005 -.002 131.3 48.05)" id="b"><stop offset="0" stop-color="#D98651"/><stop offset=".533" stop-color="#DFA168"/><stop offset="1" stop-color="#D98651"/></linearGradient><radialGradient gradientUnits="userSpaceOnUse" r="819.2" cx="0" cy="0" spreadMethod="pad" gradientTransform="matrix(.003 0 0 .003 99.85 40.15)" id="c"><stop offset=".682" stop-color="#417337"/><stop offset="1"/></radialGradient><radialGradient gradientUnits="userSpaceOnUse" r="819.2" cx="0" cy="0" spreadMethod="pad" gradientTransform="matrix(.003 0 0 .003 122.4 39.1)" id="d"><stop offset=".682" stop-color="#417337"/><stop offset="1"/></radialGradient><linearGradient gradientUnits="userSpaceOnUse" x1="-819.2" x2="819.2" gradientTransform="matrix(.002 0 0 .002 126.05 39.9)" id="e"><stop offset="0" stop-color="#fff"/><stop offset="1" stop-color="#666"/></linearGradient><linearGradient gradientUnits="userSpaceOnUse" x1="-819.2" x2="819.2" gradientTransform="matrix(.003 .001 0 .002 105.65 41.9)" id="f"><stop offset="0" stop-color="#fff"/><stop offset="1" stop-color="#666"/></linearGradient><linearGradient gradientUnits="userSpaceOnUse" x1="-819.2" x2="819.2" gradientTransform="matrix(-.004 0 0 -.003 93.65 41.05)" id="g"><stop offset="0" stop-color="#fff"/><stop offset="1" stop-color="#666"/></linearGradient><linearGradient gradientUnits="userSpaceOnUse" x1="-819.2" x2="819.2" gradientTransform="matrix(-.003 0 0 -.002 116.95 39.8)" id="h"><stop offset="0" stop-color="#fff"/><stop offset="1" stop-color="#666"/></linearGradient><linearGradient gradientUnits="userSpaceOnUse" x1="-819.2" x2="819.2" gradientTransform="matrix(-.034 0 0 .039 154.7 114.7)" id="i"><stop offset="0" stop-color="#8C8C8C"/><stop offset=".596" stop-color="#fff"/><stop offset="1" stop-color="#ddd"/></linearGradient><linearGradient gradientUnits="userSpaceOnUse" x1="-819.2" x2="819.2" gradientTransform="matrix(-.034 0 0 .039 154.7 114.7)" id="j"><stop offset="0" stop-color="#F2D202"/><stop offset="1" stop-color="#AA7C02"/></linearGradient><linearGradient gradientUnits="userSpaceOnUse" x1="-819.2" x2="819.2" gradientTransform="matrix(.025 0 0 .007 173.4 188.05)" id="k"><stop offset="0" stop-color="#F2D202"/><stop offset="1" stop-color="#AA7C02"/></linearGradient><linearGradient gradientUnits="userSpaceOnUse" x1="-819.2" x2="819.2" gradientTransform="matrix(.028 0 0 .031 175.85 214.9)" id="l"><stop offset="0" stop-color="#8C8C8C"/><stop offset=".596" stop-color="#fff"/><stop offset="1" stop-color="#ddd"/></linearGradient><linearGradient gradientUnits="userSpaceOnUse" x1="-819.2" x2="819.2" gradientTransform="matrix(.022 0 0 .011 171.05 177.05)" id="m"><stop offset="0"/><stop offset=".596" stop-color="#2B2B2B"/><stop offset="1"/></linearGradient><linearGradient gradientUnits="userSpaceOnUse" x1="-819.2" x2="819.2" gradientTransform="matrix(-.026 .004 .006 .034 178.95 217.55)" id="n"><stop offset="0" stop-color="#F2D202"/><stop offset="1" stop-color="#AA7C02"/></linearGradient><linearGradient gradientUnits="userSpaceOnUse" x1="-819.2" x2="819.2" gradientTransform="matrix(.037 0 0 .029 100.6 20.95)" id="o"><stop offset="0" stop-color="#F2D202"/><stop offset="1" stop-color="#AA7C02"/></linearGradient><linearGradient gradientUnits="userSpaceOnUse" x1="-819.2" x2="819.2" gradientTransform="matrix(.034 0 0 .021 100.15 100.85)" id="p"><stop offset="0" stop-color="#F2D202"/><stop offset="1" stop-color="#AA7C02"/></linearGradient><linearGradient gradientUnits="userSpaceOnUse" x1="-819.2" x2="819.2" gradientTransform="matrix(.041 0 0 .044 44 119.85)" id="q"><stop offset="0" stop-color="#F2D202"/><stop offset="1" stop-color="#AA7C02"/></linearGradient><linearGradient gradientUnits="userSpaceOnUse" x1="-819.2" x2="819.2" gradientTransform="matrix(.041 0 0 .044 44 119.85)" id="r"><stop offset="0" stop-color="#8C8C8C"/><stop offset=".596" stop-color="#fff"/><stop offset="1" stop-color="#ddd"/></linearGradient><linearGradient gradientUnits="userSpaceOnUse" x1="-819.2" x2="819.2" gradientTransform="matrix(.02 0 0 .011 24.1 177.8)" id="s"><stop offset="0"/><stop offset=".596" stop-color="#2B2B2B"/><stop offset="1"/></linearGradient><linearGradient gradientUnits="userSpaceOnUse" x1="-819.2" x2="819.2" gradientTransform="matrix(.026 0 0 .012 21.65 193.5)" id="t"><stop offset="0" stop-color="#F2D202"/><stop offset="1" stop-color="#AA7C02"/></linearGradient><linearGradient gradientUnits="userSpaceOnUse" x1="-819.2" x2="819.2" gradientTransform="matrix(.026 0 0 .035 21.25 221.95)" id="u"><stop offset="0" stop-color="#8C8C8C"/><stop offset=".596" stop-color="#fff"/><stop offset="1" stop-color="#ddd"/></linearGradient><linearGradient gradientUnits="userSpaceOnUse" x1="-819.2" x2="819.2" gradientTransform="matrix(-.068 .002 -.004 -.146 98.25 203.1)" id="v"><stop offset="0"/><stop offset=".596" stop-color="#2B2B2B"/><stop offset="1"/></linearGradient><linearGradient gradientUnits="userSpaceOnUse" x1="-819.2" x2="819.2" gradientTransform="matrix(.005 0 0 .044 53.3 128.25)" id="w"><stop offset="0" stop-color="#F2D202"/><stop offset="1" stop-color="#AA7C02"/></linearGradient><linearGradient gradientUnits="userSpaceOnUse" x1="-819.2" x2="819.2" gradientTransform="matrix(.007 0 0 .038 148.6 119.9)" id="x"><stop offset="0" stop-color="#F2D202"/><stop offset="1" stop-color="#AA7C02"/></linearGradient><linearGradient gradientUnits="userSpaceOnUse" x1="-819.2" x2="819.2" gradientTransform="matrix(-.068 .002 -.004 -.146 98.25 203.1)" id="y"><stop offset="0" stop-color="#311A0B"/><stop offset=".596" stop-color="#666"/><stop offset="1"/></linearGradient><linearGradient gradientUnits="userSpaceOnUse" x1="-819.2" x2="819.2" gradientTransform="matrix(.013 0 0 .014 131.65 216.45)" id="z"><stop offset="0" stop-color="#8C8C8C"/><stop offset=".596" stop-color="#fff"/><stop offset="1" stop-color="#ddd"/></linearGradient><linearGradient gradientUnits="userSpaceOnUse" x1="-819.2" x2="819.2" gradientTransform="matrix(.02 0 0 .067 145.5 267.4)" id="A"><stop offset="0" stop-color="#8C8C8C"/><stop offset=".596" stop-color="#fff"/><stop offset="1" stop-color="#ddd"/></linearGradient><linearGradient gradientUnits="userSpaceOnUse" x1="-819.2" x2="819.2" gradientTransform="matrix(.019 0 0 .019 108.85 218.75)" id="B"><stop offset="0" stop-color="#F2D202"/><stop offset="1" stop-color="#AA7C02"/></linearGradient><linearGradient gradientUnits="userSpaceOnUse" x1="-819.2" x2="819.2" gradientTransform="matrix(.025 0 0 .017 75.85 216.8)" id="C"><stop offset="0" stop-color="#8C8C8C"/><stop offset=".596" stop-color="#fff"/><stop offset="1" stop-color="#ddd"/></linearGradient><linearGradient gradientUnits="userSpaceOnUse" x1="-819.2" x2="819.2" gradientTransform="matrix(.035 0 0 .058 106 275.35)" id="D"><stop offset="0" stop-color="#8C8C8C"/><stop offset=".596" stop-color="#fff"/><stop offset="1" stop-color="#ddd"/></linearGradient><linearGradient gradientUnits="userSpaceOnUse" x1="-819.2" x2="819.2" gradientTransform="matrix(.02 0 0 .067 145.5 267.4)" id="E"><stop offset="0" stop-color="#F2D202"/><stop offset="1" stop-color="#AA7C02"/></linearGradient><linearGradient gradientUnits="userSpaceOnUse" x1="-819.2" x2="819.2" gradientTransform="matrix(.025 0 0 .068 59.9 261.25)" id="F"><stop offset="0" stop-color="#8C8C8C"/><stop offset=".596" stop-color="#fff"/><stop offset="1" stop-color="#ddd"/></linearGradient><linearGradient gradientUnits="userSpaceOnUse" x1="-819.2" x2="819.2" gradientTransform="matrix(.026 0 0 .035 21.25 221.95)" id="G"><stop offset="0" stop-color="#F2D202"/><stop offset="1" stop-color="#AA7C02"/></linearGradient><linearGradient gradientUnits="userSpaceOnUse" x1="-819.2" x2="819.2" gradientTransform="matrix(.015 0 0 .006 15.15 251.75)" id="H"><stop offset="0" stop-color="#F2D202"/><stop offset="1" stop-color="#AA7C02"/></linearGradient><linearGradient gradientUnits="userSpaceOnUse" x1="-819.2" x2="819.2" gradientTransform="matrix(.028 0 0 .026 18.85 275.7)" id="I"><stop offset="0" stop-color="#8C8C8C"/><stop offset=".596" stop-color="#fff"/><stop offset="1" stop-color="#ddd"/></linearGradient><linearGradient gradientUnits="userSpaceOnUse" x1="-819.2" x2="819.2" gradientTransform="matrix(.025 0 0 .068 59.9 261.25)" id="J"><stop offset="0" stop-color="#F2D202"/><stop offset="1" stop-color="#AA7C02"/></linearGradient><linearGradient gradientUnits="userSpaceOnUse" x1="-819.2" x2="819.2" gradientTransform="matrix(.035 0 0 .058 106 275.35)" id="K"><stop offset="0" stop-color="#F2D202"/><stop offset="1" stop-color="#AA7C02"/></linearGradient><linearGradient gradientUnits="userSpaceOnUse" x1="-819.2" x2="819.2" gradientTransform="matrix(.007 0 0 .009 51.15 350)" id="L"><stop offset="0"/><stop offset=".596" stop-color="#2B2B2B"/><stop offset="1"/></linearGradient><linearGradient gradientUnits="userSpaceOnUse" x1="-819.2" x2="819.2" gradientTransform="matrix(-.019 -.001 .005 -.104 51.55 409.65)" id="M"><stop offset="0" stop-color="#F2D202"/><stop offset="1" stop-color="#AA7C02"/></linearGradient><linearGradient gradientUnits="userSpaceOnUse" x1="-819.2" x2="819.2" gradientTransform="matrix(.009 0 0 .011 78 352.1)" id="N"><stop offset="0"/><stop offset=".596" stop-color="#2B2B2B"/><stop offset="1"/></linearGradient><linearGradient gradientUnits="userSpaceOnUse" x1="-819.2" x2="819.2" gradientTransform="matrix(-.019 -.001 .005 -.104 51.55 409.65)" id="O"><stop offset="0" stop-color="#8C8C8C"/><stop offset=".596" stop-color="#fff"/><stop offset="1" stop-color="#ddd"/></linearGradient><linearGradient gradientUnits="userSpaceOnUse" x1="-819.2" x2="819.2" gradientTransform="matrix(.063 0 0 .094 163.75 386.9)" id="P"><stop offset="0" stop-color="#F2D202"/><stop offset="1" stop-color="#AA7C02"/></linearGradient><linearGradient gradientUnits="userSpaceOnUse" x1="-819.2" x2="819.2" gradientTransform="matrix(.063 0 0 .094 163.75 386.9)" id="Q"><stop offset="0" stop-color="#8C8C8C"/><stop offset=".596" stop-color="#fff"/><stop offset="1" stop-color="#ddd"/></linearGradient><linearGradient gradientUnits="userSpaceOnUse" x1="-819.2" x2="819.2" gradientTransform="matrix(.009 0 0 .008 128.1 338.95)" id="R"><stop offset="0"/><stop offset=".596" stop-color="#2B2B2B"/><stop offset="1"/></linearGradient><linearGradient gradientUnits="userSpaceOnUse" x1="-819.2" x2="819.2" gradientTransform="matrix(.004 0 0 .005 152.9 332.3)" id="S"><stop offset="0"/><stop offset=".596" stop-color="#2B2B2B"/><stop offset="1"/></linearGradient><linearGradient gradientUnits="userSpaceOnUse" x1="-819.2" x2="819.2" gradientTransform="matrix(.023 0 0 .028 190.05 256.7)" id="T"><stop offset="0" stop-color="#F2D202"/><stop offset="1" stop-color="#AA7C02"/></linearGradient><linearGradient gradientUnits="userSpaceOnUse" x1="-819.2" x2="819.2" gradientTransform="matrix(.023 0 0 .028 190.05 256.7)" id="U"><stop offset="0" stop-color="#8C8C8C"/><stop offset=".596" stop-color="#fff"/><stop offset="1" stop-color="#ddd"/></linearGradient></defs><path fill="url(#a)" d="M129.4 58.05l-.8-1.15q-.6 7.9-3.9 15.55-3.35 7.65-5.45 8.75-2.95 1.45-9.5 1.85l-6-.1q-4.95-1.05-11.85-7.8-6.6-6.45-10.75-14.25l.2-.25-.25.15-.35-.6.2.7q-1.75.95-3.45.6-1.9-.75-1.9-2.7 0-1.5-1.15-4.2l-2.3-4.25q-2.3-3.05-2.7-5-1.15-3.45.4-6.15.75-1.55 2.3-1.55 0-7.3.35-10.35.2-2.85.85-5.75.65-3.05 1.85-6.2 2.3-5.75 6.5-8.45 2.7-1.95 8.45-5Q94.4-.8 103.6.35q8.1.4 12.7 3.1 3.85 1.9 7.7 10.35l2.75 7.75 1.85 6.9q.8 3.85 1.2 10.75.35 5.75.35 11.95l-.75 6.9m-51.9-17.3l-3.05-2.3q-1.15-.8-2.3-.8 1.15 0 2.3.8l3.05 2.3"/><path fill="url(#b)" d="M129.8 39.2l1.5-1.15q1.15-.75 1.15 1.15.4 5.75.4 9.25 0 7.3-.4 8.05 0 .4-1.9 1.15l-1.15.4.75-6.9q0-6.2-.35-11.95"/><path d="M123.8 39.8l-.25.25q-.3.35-.75.35t-.8-.35q-.35-.3-.35-.75t.35-.8q.35-.35.8-.35.45 0 .75.35l.1.1-.25.15-.2.4.2.4.4.25m-22.45.95l-.25.3q-.35.4-.85.4t-.9-.4Q99 40.7 99 40.2t.35-.9q.4-.35.9-.35t.85.35l.1.15q-.15 0-.3.15l-.2.45.2.45.45.25"/><path fill="#fff" d="M101.35 40.75l-.45-.25-.2-.45.2-.45q.15-.15.3-.15l.15-.05.5.2.2.45-.2.45-.5.25m22.3-2.15l.15-.05.45.2.15.4-.15.4-.45.25-.4-.25-.2-.4.2-.4.25-.15"/><path fill="url(#c)" d="M101.2 39.45l-.1-.15q-.35-.35-.85-.35t-.9.35q-.35.4-.35.9t.35.85q.4.4.9.4t.85-.4l.25-.3.5-.25.2-.45-.2-.45-.5-.2-.15.05m-1.3 3.2q-1.05 0-1.8-.8-.75-.7-.75-1.75t.75-1.85q.2-.2.45-.3 1.6 0 3.8 1.45l.1.7q0 1.05-.75 1.75-.75.8-1.8.8"/><path fill="url(#d)" d="M124.7 38.45l.1.65q0 .95-.7 1.65-.5.5-1.15.65l-.35.05h-.15q-.95 0-1.65-.7t-.7-1.65q0-.8.5-1.4l1.1-.2.85.05q1.35.4 2.15.9m-.9 1.35l.45-.25.15-.4-.15-.4-.45-.2-.15.05-.1-.1q-.3-.35-.75-.35t-.8.35q-.35.35-.35.8 0 .45.35.75.35.35.8.35.45 0 .75-.35l.25-.25"/><path fill="url(#e)" d="M122.95 41.4q.65-.15 1.15-.65.7-.7.7-1.65l-.1-.65.85.75.3.55.35.85-2.35.65-.9.15"/><path fill="url(#f)" d="M99.9 42.7v-.05q1.05 0 1.8-.8.75-.7.75-1.75l-.1-.7 3.2 2.55-5.65.75"/><path fill="url(#g)" d="M99.9 42.7l-3.8-.45-2.7-.7.45-1.05.3-.6q.6-1.1 3.45-1.85l.95-.1q-.25.1-.45.3-.75.8-.75 1.85t.75 1.75q.75.8 1.8.8v.05"/><path fill="url(#h)" d="M120.6 37.7q-.5.6-.5 1.4 0 .95.7 1.65t1.65.7v.05q-3.75.4-6.85-.55 1.55-1.35 2.8-2.2 1.2-.8 2.2-1.05"/><path fill="#630" d="M129.5 35.5v3.75l-.75-1.1-.95-2.35-1.75-.95-3.3.2-8.1 2.95q-.3-1.2-.25-1.75.1-1.15-.9-2.2l2.15.15-.5-.9h1.7l4.3-.65 4.2-.75 2.55 1.1 1.6 2.5m-35.95-.6l-2 1.1-1.1 2.7-.85 1.25-1.35.85 1.35-5.15 1.85-2.85 2.9-1.25 4.85.85 4.95.75h1.95l-.6 1 2.45-.15q-1.1 1.2-1 2.55l.3 1.05-9.9-2.45-3.8-.25M110.85 57.65q.05.45-3.65 0-.65-.65-.7-1.2-.05-1 4.35 1.2M115.6 57.9l.9-.8q1-.6 1.45-.2.25 1.15-.8.75l-1.55.25"/><path fill="#A2422B" d="M129.15 31.4q-.55-2.6-1.9-6.6l-2.5-6.55-2.9-3.25-4-1.45-3.25 1.8-5.45 1.1-12-.35-11.25 2.15-6.85 1.8 1.8 4.75v8.35l1.1 11.6-4-.35-1.45-4.7-4.75-3.65-1.05-2.55 1.45-19.25 3.6-5.8L91-2.45l9.8-.35 10.15.35 11.65 6.2 3.6 7.25 3.5 20.3-.55.1M105.2 65.05q-4.2.7-3.6 2.95.6 2.25 1.45 3.45.8 1.2 3.4 1.85 2.55.65 3.7-1.1l.55-2.1 2.65.1q.5-.4 1.25 1.45.7 1.8.9 1.65l1.45-.1 2.7-.2q1.5-.25 1.7-.95l.05-1.2q-.15-.5.2-2.85.3-2.35-1.95-2.7l-6.3-.65-8.15.4m9-4.35q5.65-.15 7.65 3.45 1.95 3.55 1.9 7.25l-.45 5.35q-.35 1.65-6.65 5.8-6.3 4.1-15.4-.35-5.05-1.65-6.45-3.2-1.4-1.55 1.9-2.55 3.3-1 2.55-6.6-.8-5.65 3.25-7.35 4.05-1.7 5.05-1.65l6.65-.15"/><path fill="url(#i)" d="M179.5 106.2q-.8 9.2-13.05 19.6l-4.4 3.6q-3.2 2.55-4.9 3.6l-4 3.15-3.05 2.55q-1.65 0-7.3-9.45-5.1-8.55-5.75-10.65l-1.85-4.75q-1.55-3.85-2.8-8.2l-.6-5.45-.45-5.75q-.35-8.4-.35-11.05h.05q24.45 2.75 40.15 14.9 4.7 3.45 8.05 7.6l.25.3"/><path fill="url(#j)" d="M179.5 106.2l.65.85 2.6 3.85q-1.25 5.65-16.9 21.15L150.4 146.4l-.85-.6-.75-.55-.1-.1-3.65-3.25q-9.8-10.35-14.9-33.1-1.4-6.45-2.3-12.4l-.7-5.25-.6-7.35.2-.3.1-.15.2-.35h.2l3.75.4q0 2.65.35 11.05l.45 5.75.6 5.45q1.25 4.35 2.8 8.2l1.85 4.75q.65 2.1 5.75 10.65 5.65 9.45 7.3 9.45l3.05-2.55 4-3.15q1.7-1.05 4.9-3.6l4.4-3.6q12.25-10.4 13.05-19.6"/><path fill="url(#k)" d="M189 184l3.05-2 1.9 7.8-11.85.75q-14.6 1.2-28.8 3.6-.6-3.95-.4-7l1.5-.7q2.1-.7 5.55-.7l.25.1 15.75-.45L189 184"/><path fill="url(#l)" d="M193.95 189.8v.05l1.65 8.7q3.45 19.85 2.65 36.8-.55-1.5-3.95-1.7-6.9-.4-21.55 6.4l-6.75-12.1q-10.7-20.9-12.7-33.8 14.2-2.4 28.8-3.6l11.85-.75m-8.15 3.2l-5.6 1.45 1.5 7.05-6.1 1.6 1.05 5.05 6.4-1.55 4.85 22.6 2.95-.65q2.85-.9 2.55-2l-4.75-20.95 5.35-1.2-.95-5.45-5.9.85-1.35-6.8"/><path fill="url(#m)" d="M159.95 185.75l-1.2-.8q-1.2-1.65-3.7-4.15-.7-.7-1.2-1.9l-.75-2.1 3.75-1.95q4.6-2.25 9.05-3.85 14.2-5.1 21.25-1.5.6-.15 1.15 5.15l.7 9.35-13.05 1.4-15.75.45-.25-.1"/><path fill="url(#n)" d="M185.8 193l1.35 6.8 5.9-.85.95 5.45-5.35 1.2 4.75 20.95q.3 1.1-2.55 2l-2.95.65-4.85-22.6-6.4 1.55-1.05-5.05 6.1-1.6-1.5-7.05 5.6-1.45"/><path fill="url(#o)" d="M129.95 32.9l.6 3.5q-.35.65-.7.75-.6.15-.4-2.55l-.05-1.6.55-.1"/><path fill="#CC2800" d="M129.95 32.9l-.55.1-.25-1.6.55-.1.25 1.6"/><path fill="url(#p)" d="M126.85 83.35l-.1.15-.2.3.6 7.35.7 5.25q-.65 9.15-3.95 15.4-1.7 3.15-3.9 5.2l-1.85 1.35q-16.65-4.5-28.2-12.65-8.1-5.7-13.05-12.65l.7-8.35q8.35 13.8 24.65 22.45 8.45 4.45 15.2 6.05 4.9-7.6 5.85-19.3.45-5.8-.05-10.15l3.6-.4"/><path fill="url(#q)" d="M77.6 84.7l-.7 8.35q-1.1 9.65-3.55 20.1-6.1 25.95-17.8 37.75-2.1 2.05-4.35 3.7l-2.1 1.4-18.45-16.35Q11.9 122 10.4 115.55l2.5-3.5q.55 1.45 2.85 4.45 2.5 3.3 4.9 5.65 6.45 6.35 12 11.15l9.95 8.3q5.45 4.35 7.65 5.85l.45-.7.95-1 3.05-3.95 4.2-5.95q1.55-2.1 3.25-5.9l2.6-6.1q2-4.45 3.6-16.65 1.95-14.85 4.05-23l4.45-.4.2-.05.35.6.2.35m-26.75 63.15l-.6-.4.6.4"/><path fill="url(#r)" d="M12.9 112.05l.6-.9q4.35-5.3 10.7-9.95 18.8-13.85 48.1-17h.1q-2.1 8.15-4.05 23-1.6 12.2-3.6 16.65l-2.6 6.1q-1.7 3.8-3.25 5.9l-4.2 5.95-3.05 3.95-.95 1-.45.7q-2.2-1.5-7.65-5.85l-9.95-8.3q-5.55-4.8-12-11.15-2.4-2.35-4.9-5.65-2.3-3-2.85-4.45"/><path fill="url(#s)" d="M35.2 187.2q-4.65-1.75-10.35-2.85-11.35-2.1-16.3 1.5l-1-11.55 2.55-1.95q3.4-2.2 7.2-3.2 12.1-3.05 23.4 7.4l-5.5 10.65"/><path fill="url(#t)" d="M35.2 187.2q4.1 2.25 7.15 5.55.75 4.9.35 10.7Q30.4 190.9 14.2 194q-5.05.95-9.9 3.35l-3.8 2.2q.35-4.2.95-7.15.5-2.5.8-2.7.8-.55 6.3-3.85 4.95-3.6 16.3-1.5 5.7 1.1 10.35 2.85"/><path fill="url(#u)" d="M.5 199.55l3.8-2.2q4.85-2.4 9.9-3.35 16.2-3.1 28.5 9.45-.95 12.85-7.55 30.05-3 7.8-6.85 15.6l-.75 1.45q-3.5-2.1-8.35-3.25-9.7-2.25-16.4 2.55Q.6 235.4.05 222.2q-.5-12.45.4-22.45l.05-.2m21.55 7.6l-6.3-.5.3-7.2-5.8-.5-.15 6.95-6 .15v5.5l5.5.3-1.1 21.45q-.1 1.15 2.85 1.55l3 .15.95-23.15 6.6.5.15-5.2"/><path fill="url(#v)" d="M127.85 96.4q.9 5.95 2.3 12.4 5.1 22.75 14.9 33.1l3.65 3.25.1.1-1.6 5.8-.4 1-.05.05-.4 1q-1.2 4.55-2.9 33.5l-.95 18.55q-8.7 2.5-21.9 3.75l-.95-1q-4.45-4.45-10.8-4.45-6.35 0-10.85 4.45-.8.85-1.45 1.75Q75.5 208.8 55 203q-.15-18.05-1.35-27.6l-1.55-11.3q2.1-6.35 3.45-13.2 11.7-11.8 17.8-37.75 2.45-10.45 3.55-20.1 4.95 6.95 13.05 12.65 11.55 8.15 28.2 12.65L120 117q2.2-2.05 3.9-5.2 3.3-6.25 3.95-15.4m14.95 120.35l-.4 1-.3.6-10 33.2-2.4 7.95q-1.05 13.5 4.25 28.6 3.85 10.85 10.6 21.75l-.05.3-2.35 7.3q-5.45 1.55-12.95 1.9l-16.25-.55-2-.25 23.85-19.3-.95-4.05-15.5-64.45 1.3-1.2 1.5-1.65.5-.15q17.65-4.9 20.45-9.4l.6-1.9.1.3m-46.75 13.9l-17.9 69.8-.9 3.35 20.35 13.45q-.95.45-1.7 2.75t-1.65 2.65l-4.35-5.15q-3.2-3.5-5.4-5.2-3.7-2.85-8.15-5.45l-3.7-2.05q0-.75-1.8-.95-3.45-.35-11.85 2.35 11.5-9.65 17.1-22.55 4.6-10.5 4.2-18.55l-2.5-6-18.35-44 15.6 7.4q13.35 5.9 21 8.15M55.2 205l-.2.6v-1.05l.2.45m90.35 106.4l2.5 3.65-1.95 1q-.35-2.25-.55-4.65"/><path fill="url(#w)" d="M51.2 154.6q2.25-1.65 4.35-3.7-1.35 6.85-3.45 13.2l-1.3-7.1.4-2.4"/><path fill="url(#x)" d="M148.8 145.25l.75.55-.1.25-2.25 5 1.6-5.8"/><path fill="url(#y)" d="M146.8 152.05l.4-1-.75 1.9.35-.9"/><path fill="#D8D8D8" d="M143.95 210.95l.3 1.05.2.7-.7.2.1-.75.1-1.2M157 315.4q1.15 3 .8 10.5l-.6 6.9-.9-1q-2.8-2.95-6.8-3.5-2.3-4.95-3.4-12.25l1.95-1q2.75 3.9 5.55 7.1l3.4-6.75m-35.35-87.65l-.5.15.25-.3.25.15m-10.7 90.8l2 .25 16.25.55q7.5-.35 12.95-1.9l-3.7 8.6-3.25 6.15-2.2 1.25q-5.15 3.15-10.65 7.95l-1.3 1.25-.1.1-3 2.8q-4.45-3.8-7.8-14.55-1.65-5.35-2.4-9.85v-.05l3.2-2.55M55 205.6l.2-.6.2.45-.4.15m4 100.6q8.4-2.7 11.85-2.35 1.8.2 1.8.95l3.7 2.05q4.45 2.6 8.15 5.45 2.2 1.7 5.4 5.2l4.35 5.15q1.65 2.2 1.7 3.65l-.4 3.45q-.6 8.3-3.9 16.95l-3.2 7-2.85-2.85-.35-.3q-4-3.4-9.8-5.95-2.35-1.05-4.65-1.65l-2.85-8.5q-1.7-5.45-2.45-9.75-3.6 8.9-8.65 17.75-4.5.95-8.95 3.35l-.15.1-3.6 2.2L41 333.4q-2.65-15.85-.15-22.25l1.2 5.95q4.85-2.45 9.1-5.15l7.4-5.4.45-.35"/><path fill="url(#z)" d="M120.6 208.9q13.2-1.25 21.9-3.75l-.5 9.45.7 1.85-.6 1.9q-2.8 4.5-20.45 9.4l-.25-.15q2.75-3.85 2.75-8.85 0-5.65-3.55-9.85"/><path fill="url(#A)" d="M144.45 212.7q5.45 20.4 10.15 42.25 9.8 45.65 5.65 53.95l-1.85 3.7-.15.3q-2.75-2-5.1-4.4l-6.2-6.45q-1.8-1.75-3.85-6.1-2.05-4.4-2.85-8.2-.5-2.65-2-7.85l-2.1-7.85-.65-3.55q-.5-2.45-1.4-4.6-.95-2.45-1.5-6.7-.45-3.25-.5-5.65l10-33.2.3-.6.4-1 .95-3.85.7-.2"/><path fill="url(#B)" d="M96.55 209.65q.65-.9 1.45-1.75 4.5-4.45 10.85-4.45t10.8 4.45l.95 1q3.55 4.2 3.55 9.85 0 5-2.75 8.85l-.25.3-1.5 1.65-1.3 1.2q-4.05 3.3-9.5 3.3-4.5 0-8.1-2.25-1.45-.95-2.75-2.25l-1.05-1.15-.25-.3q-3.15-4-3.15-9.35 0-5.2 3-9.1"/><path fill="url(#C)" d="M96.55 209.65q-3 3.9-3 9.1 0 5.35 3.15 9.35l-.65 2.55q-7.65-2.25-21-8.15l-15.6-7.4-4.05-9.65-.2-.45-.2-.45V203q20.5 5.8 41.55 6.65"/><path fill="url(#D)" d="M118.35 230.75l15.5 64.45-27.7 21.25-28-16 17.9-69.8.65-2.55.25.3 1.05 1.15q1.3 1.3 2.75 2.25 3.6 2.25 8.1 2.25 5.45 0 9.5-3.3"/><path fill="url(#E)" d="M158.25 312.9l-1.25 2.5-3.4 6.75q-2.8-3.2-5.55-7.1l-2.5-3.65-.25-.35-.5-.8-.25-.4q-6.75-10.9-10.6-21.75-5.3-15.1-4.25-28.6l2.4-7.95q.05 2.4.5 5.65.55 4.25 1.5 6.7.9 2.15 1.4 4.6l.65 3.55 2.1 7.85q1.5 5.2 2 7.85.8 3.8 2.85 8.2 2.05 4.35 3.85 6.1l6.2 6.45q2.35 2.4 5.1 4.4"/><path fill="url(#F)" d="M55 205.6l.4-.15 4.05 9.65 18.35 44q-1.8 11.15-5.25 18.55L65.2 290.5q-4.7 8.05-12 13.4-6.85 5-12.65 5.15V309q-1.45-10.5-.95-23.4l2.45-3.35-2-4.1q1-13.1 3.85-28.4Q48.6 224.4 55 205.6"/><path fill="url(#G)" d="M22.05 207.15l-.15 5.2-6.6-.5-.95 23.15-3-.15q-2.95-.4-2.85-1.55l1.1-21.45-5.5-.3v-5.5l6-.15.15-6.95 5.8.5-.3 7.2 6.3.5"/><path fill="url(#H)" d="M2.8 249.85q6.7-4.8 16.4-2.55 4.85 1.15 8.35 3.25l-.05.1-2.45 4.65.8 1.6q-6.05-3.9-14.4-2.5-2.75.45-5.45 1.4l-2.1.9-1.1-6.85"/><path fill="url(#I)" d="M25.85 256.9l1.95 3.9 3 4.4 4.95 4.1 4.3 8.85 2 4.1-2.45 3.35-.55.75-3.05-.85-7.4-6.55 4.65 8.95q-3.05-.9-11.3 4.25-8.5 5.35-8.7 5.2-2.6-.55-5.45-2.2-5.5-3.3-9.95-11.55-4.45-8.25.35-18.4 2.4-5.05 5.7-8.5l2.1-.9q2.7-.95 5.45-1.4 8.35-1.4 14.4 2.5"/><path fill="url(#J)" d="M77.8 259.1l2.5 6q.4 8.05-4.2 18.55-5.6 12.9-17.1 22.55l-.45.35-7.4 5.4q-4.25 2.7-9.1 5.15l-1.2-5.95-.3-2.1q5.8-.15 12.65-5.15 7.3-5.35 12-13.4l7.35-12.85q3.45-7.4 5.25-18.55"/><path fill="url(#K)" d="M133.85 295.2l.95 4.05-23.85 19.3-3.2 2.55-.1.05-1.9 1.5-8.15-5.4-20.35-13.45.9-3.35 28 16 27.7-21.25"/><path fill="url(#L)" d="M47.75 345.9l.15-.1q4.45-2.4 8.95-3.35l-.15.2q-6.15 10.75-11.25 14.95l2.3-11.7"/><path fill="url(#M)" d="M56.85 342.45q5.05-8.85 8.65-17.75.75 4.3 2.45 9.75l2.85 8.5q4.1 12.45 10.05 16.7 1.6 1.1 3.05 1.65 3 1.05 5.55-.45l.15 4.2q-.5.6-2.1.75l-2.6.05-3.6-.15q-2.25-.4-3.35-1.7L75 361q-1.8-1.85-2.85-3.6-2.2-3.5-3.85-7.15-.45-.95-1.95-5.65-1.1-3.45-2.6-5.05-1 7.05-8.05 16.5-3.05 4.1-5.9 6.1-4.15 2.9-10.95 4.35l.2-6.2q2.95.1 6.4-2.7 5.1-4.2 11.25-14.95l.15-.2m-8.75 88.9l1.05-1.15q1.35-1.2 2.45-1.3l3.95-.25 3-.15q5.9 0 8.95.95 2.45.8 5.3 3.1l.05.35.3 6.9.1 1.6-5.5-4q-2.55-1.5-8.4-1.5-3.95 0-6.95 1.05-3.65 1.25-4.05 3.55.25-4.55-.25-9.15m-2.95 24.25q1.15-2.95 1.9-5.85 1.8.25 13.5.05 10.5.35 15.3 2.85l1.3 3.05q1.85 3.85 3.65 6l-.15 2.55q-2.8-2.8-6.2-4.35-5.15-2.3-16.85-4.3H45.15"/><path fill="url(#N)" d="M70.8 342.95q2.3.6 4.65 1.65 5.8 2.55 9.8 5.95L83.9 361.3q-1.45-.55-3.05-1.65-5.95-4.25-10.05-16.7"/><path fill="url(#O)" d="M38.85 366.5q6.8-1.45 10.95-4.35 2.85-2 5.9-6.1 7.05-9.45 8.05-16.5 1.5 1.6 2.6 5.05 1.5 4.7 1.95 5.65 1.65 3.65 3.85 7.15 1.05 1.75 2.85 3.6l2.95 3q1.1 1.3 3.35 1.7l3.6.15 2.6-.05q1.6-.15 2.1-.75-.1 14.1-8.3 35.85-2.9 7.8-6.6 15.75L71.65 423q.7 2.45 1.15 9.55-2.85-2.3-5.3-3.1-3.05-.95-8.95-.95l-3 .15-3.95.25q-1.1.1-2.45 1.3l-1.05 1.15-.15-.95q-.5-4-1.3-6.4-6.05-15.3-7.45-41-.45-9-.35-16.5m9.5 74q.4-2.3 4.05-3.55 3-1.05 6.95-1.05 5.85 0 8.4 1.5l5.5 4q.45 5.8 2.6 11.25-4.8-2.5-15.3-2.85-11.7.2-13.5-.05l.65-3.35q.5-2.95.65-5.9m32.3 23.75l-.35 6.1-11.75 11.7q-12.7 6.4-25.45 12.75l-3.55-10.7-2.05-14.75 4.35-6.7q1.95-3.55 3.3-7.05H57.6q11.7 2 16.85 4.3 3.4 1.55 6.2 4.35"/><path fill="url(#P)" d="M156.05 336.3q3.25 2.15 6.25 1.6l.2 4.15q-5.45.1-10.9-5.15-5.5-5.3-7.2-12.25v.1q-.75 4.05-2.85 8.1l-2.65 4.6-1.9 3.25q-1.55 3.25-6.7 6.9-5.35 3.8-9.1 3.8-1.25 0-3.1-.8t-2.75-.8q-1.4 0-1.9.35-.65.4-1.5 2.15-.85-5.15 2.7-6.4l3.3-.35 2.55.5.95-.3q7.35-2.95 13.75-13.55l3.25-6.15 3.7-8.6 2.35-7.3.3.1.5.8.25.35q.2 2.4.55 4.65 1.1 7.3 3.4 12.25 2.15 4.65 5.35 7.15l1.2.85m9 71.45l.3 8.1 1.6 1.7q-1.95-.7-2.85-.7-6.25 0-9.7 1-6.8 1.85-8.65 7.45l-.8-9.95-.7-.8q1.35-1.75 3.9-3.65 3.45-2.55 6.2-3.15h10.7m8.05 16.3l6 6.35q-2.85.75-4.6 1.8-3.25 1.9-5.05 5.45-2 3.95-2.15 12.25-2.7-1.45-3.9-1.2-1.3-3.85-1.95-7.55-.5-2.8-.5-4.55 0-4.95 4.8-9.4 1.5-1.45 3.3-2.25 2.05-.9 4.05-.9"/><path fill="url(#Q)" d="M173.1 424.05q-2 0-4.05.9-1.8.8-3.3 2.25-4.8 4.45-4.8 9.4 0 1.75.5 4.55.65 3.7 1.95 7.55-.35.05-.6.25-1.6 1.3-9.1-1.3l-7.2-2.8-.75-19.55q1.85-5.6 8.65-7.45 3.45-1 9.7-1 .9 0 2.85.7l6.15 6.5m-10.6-82l2.55 65.7h-10.7q-2.75.6-6.2 3.15-2.55 1.9-3.9 3.65-10.2-12.05-18.9-29.55-4.55-9.2-11.95-27.75-1.1-2.8-1.45-4.95.85-1.75 1.5-2.15.5-.35 1.9-.35.9 0 2.75.8t3.1.8q3.75 0 9.1-3.8 5.15-3.65 6.7-6.9l1.9-3.25 2.65-4.6q2.1-4.05 2.85-8.1v-.1q1.7 6.95 7.2 12.25 5.45 5.25 10.9 5.15m16.6 88.35l3.55 3.75 10.7 5.6 10.7 3.6 11.7 11.2q-8.15 4.05-14.75 6.1-4.1 1.3-9.6 2.3l-4.65.75-9.2-6.6q-3.05-2.55-6.4-4.85-2.2-1.5-3.85-2.35.15-8.3 2.15-12.25 1.8-3.55 5.05-5.45 1.75-1.05 4.6-1.8"/><path fill="url(#R)" d="M121.05 342.65l1.3-1.25q5.5-4.8 10.65-7.95l2.2-1.25q-6.4 10.6-13.75 13.55l-.4-3.1"/><path fill="url(#S)" d="M156.3 331.8l-.25 4.5-1.2-.85q-3.2-2.5-5.35-7.15 4 .55 6.8 3.5"/><path fill="url(#T)" d="M198.25 235.35v.2l-.4 6.25q-1.45-3.1-11.6.35l-10 4.15-3.5-6.25q14.65-6.8 21.55-6.4 3.4.2 3.95 1.7"/><path fill="url(#U)" d="M197.85 241.8l-.05.2q4.35 5.75 7.65 12.6 6.55 13.8 1.25 19.6-5.65 6.15-15.4 5.5-3.65-.25-6.65-1.4-2.75-1.1-3.25-2.3-.75-1.85.35-4.5.5-1.3 1.2-2.25l.4-3.15-1.35-.2-2 10.3-1.2 2.55-6.3-2.15-1.2-6.35-.2-8.9 5.15-15.05 10-4.15q10.15-3.45 11.6-.35"/><path fill="none" stroke="#77411A" stroke-width=".05" stroke-linecap="round" stroke-linejoin="round" d="M129.8 39.2l1.5-1.15q1.15-.75 1.15 1.15.4 5.75.4 9.25 0 7.3-.4 8.05 0 .4-1.9 1.15l-1.15.4-.8-1.15q-.6 7.9-3.9 15.55-3.35 7.65-5.45 8.75-2.95 1.45-9.5 1.85l-6-.1q-4.95-1.05-11.85-7.8-6.6-6.45-10.75-14.25l-.15.2q-.35.5-.05.8m0-1q-1.75.95-3.45.6-1.9-.75-1.9-2.7 0-1.5-1.15-4.2l-2.3-4.25q-2.3-3.05-2.7-5-1.15-3.45.4-6.15.75-1.55 2.3-1.55 0-7.3.35-10.35.2-2.85.85-5.75.65-3.05 1.85-6.2 2.3-5.75 6.5-8.45 2.7-1.95 8.45-5Q94.4-.8 103.6.35q8.1.4 12.7 3.1 3.85 1.9 7.7 10.35l2.75 7.75 1.85 6.9q.8 3.85 1.2 10.75.35 5.75.35 11.95l-.75 6.9M81.1 60.8l.05.1.2-.25-.25.15-.35-.6.2.7.15-.1m-8.95-23.15q1.15 0 2.3.8l3.05 2.3M81 61.1l-.05-.2"/><path fill="none" stroke="#8E5027" stroke-width=".05" stroke-linecap="round" stroke-linejoin="round" d="M122.95 41.4l.9-.15 2.35-.65-.35-.85-.3-.55-.85-.75q-.8-.5-2.15-.9l-.85-.05-1.1.2m1.85 3.75h.15l.35-.05m2.9-1.65l-.15-1q-.6-.85-1.5-1.2l-.2-.1-2.85-.25h-.25l-1.85.45q-1.8.7-3.9 2.1m7.3 1.75l.15-.05m3.9-.4l-2.2.65-5.85.4m-19.9-4.15l-.95.1q-2.85.75-3.45 1.85l-.3.6-.45 1.05 2.7.7 3.8.45m-1.35-4.75q1.6 0 3.8 1.45l3.2 2.55-5.65.75m-6.85-.65l2.5.75 6.75.45m-8.45-2.75l.1-1.1q.75-1.05 1.95-1.5l3.6-.3 2.1.55q2.05.8 4.5 2.4m16.35.95q-3.75.4-6.85-.55 1.55-1.35 2.8-2.2 1.2-.8 2.2-1.05M112.8 38.5l1.4 3.75q1.9 4.75 4.65 9.95l.2 1.65q-.65 2-4.8 3.8l-1.55.4M105.45 52.4l-1.15 1.7q-.7 2.05 1.55 3.85M118.35 57.85q.9-.65 1.4-1.7 1.05-2.1-.8-4.05M103.05 66.85l1.8-.4 5.7-.2 6.55-.15 1.05.15 1.85.6M104.9 68.25l2.65.5 5.3.25 3.95-.3 1.7-1.25"/><path fill="none" stroke="#666" stroke-width=".05" stroke-linecap="round" stroke-linejoin="round" d="M131 83.4q0 2.65.35 11.05l.45 5.75.6 5.45q1.25 4.35 2.8 8.2l1.85 4.75q.65 2.1 5.75 10.65 5.65 9.45 7.3 9.45l3.05-2.55 4-3.15q1.7-1.05 4.9-3.6l4.4-3.6q12.25-10.4 13.05-19.6l-.25-.3q-3.35-4.15-8.05-7.6-15.7-12.15-40.15-14.9H131l-3.75-.4h-.2l-.2.35-.1.15-.2.3.6 7.35.7 5.25q.9 5.95 2.3 12.4 5.1 22.75 14.9 33.1l3.65 3.25.1.1.75.55.85.6 15.45-14.35q15.65-15.5 16.9-21.15l-2.6-3.85-.65-.85M189 184l3.05-2 1.9 7.8v.05l1.65 8.7q3.45 19.85 2.65 36.8v.2l-.4 6.25-.05.2q4.35 5.75 7.65 12.6 6.55 13.8 1.25 19.6-5.65 6.15-15.4 5.5-3.65-.25-6.65-1.4-2.75-1.1-3.25-2.3-.75-1.85.35-4.5.5-1.3 1.2-2.25l.4-3.15-1.35-.2-2 10.3-1.2 2.55-6.3-2.15-1.2-6.35-.2-8.9 5.15-15.05-3.5-6.25-6.75-12.1q-10.7-20.9-12.7-33.8-.6-3.95-.4-7l1.5-.7q2.1-.7 5.55-.7l-1.2-.8q-1.2-1.65-3.7-4.15-.7-.7-1.2-1.9l-.75-2.1 3.75-1.95q4.6-2.25 9.05-3.85 14.2-5.1 21.25-1.5.6-.15 1.15 5.15l.7 9.35-13.05 1.4-15.75.45-.25-.1m34 4.05l-11.85.75q-14.6 1.2-28.8 3.6m32.5-1.15l1.35 6.8 5.9-.85.95 5.45-5.35 1.2 4.75 20.95q.3 1.1-2.55 2l-2.95.65-4.85-22.6-6.4 1.55-1.05-5.05 6.1-1.6-1.5-7.05 5.6-1.45M126.85 83.35l-3.6.4q.5 4.35.05 10.15-.95 11.7-5.85 19.3-6.75-1.6-15.2-6.05Q85.95 98.5 77.6 84.7l-.7 8.35q4.95 6.95 13.05 12.65 11.55 8.15 28.2 12.65L120 117q2.2-2.05 3.9-5.2 3.3-6.25 3.95-15.4M12.9 112.05l.6-.9q4.35-5.3 10.7-9.95 18.8-13.85 48.1-17h.1l4.45-.4.2-.05.35.6.2.35.05-.35.05-1.85m-5.3 1.7q-2.1 8.15-4.05 23-1.6 12.2-3.6 16.65l-2.6 6.1q-1.7 3.8-3.25 5.9l-4.2 5.95-3.05 3.95-.95 1-.45.7.6.4m-.6-.4q-2.2-1.5-7.65-5.85l-9.95-8.3q-5.55-4.8-12-11.15-2.4-2.35-4.9-5.65-2.3-3-2.85-4.45l-2.5 3.5q1.5 6.45 20.25 24.1L49.1 156l2.1-1.4q2.25-1.65 4.35-3.7 11.7-11.8 17.8-37.75 2.45-10.45 3.55-20.1m-64 19l-.15-.5m-12.25 88l3.8-2.2q4.85-2.4 9.9-3.35 16.2-3.1 28.5 9.45.4-5.8-.35-10.7-3.05-3.3-7.15-5.55-4.65-1.75-10.35-2.85-11.35-2.1-16.3 1.5-5.5 3.3-6.3 3.85-.3.2-.8 2.7-.6 2.95-.95 7.15l-.05.2q-.9 10-.4 22.45.55 13.2 2.75 27.65 6.7-4.8 16.4-2.55 4.85 1.15 8.35 3.25l.75-1.45q3.85-7.8 6.85-15.6 6.6-17.2 7.55-30.05m-7.5-16.25l5.5-10.65q-11.3-10.45-23.4-7.4-3.8 1-7.2 3.2l-2.55 1.95 1 11.55M52.1 164.1l1.55 11.3q1.2 9.55 1.35 27.6 20.5 5.8 41.55 6.65.65-.9 1.45-1.75 4.5-4.45 10.85-4.45t10.8 4.45l.95 1q13.2-1.25 21.9-3.75l.95-18.55q1.7-28.95 2.9-33.5l.4-1 .05-.05.4-1 1.6-5.8M52.1 164.1q2.1-6.35 3.45-13.2m-4.35 3.7l-.4 2.4 1.3 7.1m97.45-18.3l-.1.25-2.25 5-.75 1.9m-3.95 52.2l.45-.15q1.15 2.2 1 5.95l.3 1.05.2.7q5.45 20.4 10.15 42.25 9.8 45.65 5.65 53.95l-1.85 3.7v.4l-.15-.1-1.25 2.5q1.15 3 .8 10.5l-.6 6.9-.9-1-.25 4.5q3.25 2.15 6.25 1.6l.2 4.15 2.55 65.7.3 8.1 1.6 1.7 6.15 6.5 6 6.35 3.55 3.75 10.7 5.6 10.7 3.6 11.7 11.2q-8.15 4.05-14.75 6.1-4.1 1.3-9.6 2.3l-4.65.75-9.2-6.6q-3.05-2.55-6.4-4.85-2.2-1.5-3.85-2.35v1.3m-24.6-234.75l-.7-1.85.5-9.45m1.45 5.8l-.1 1.2-.1.75-.95 3.85-.4 1-.3.6-10 33.2q.05 2.4.5 5.65.55 4.25 1.5 6.7.9 2.15 1.4 4.6l.65 3.55 2.1 7.85q1.5 5.2 2 7.85.8 3.8 2.85 8.2 2.05 4.35 3.85 6.1l6.2 6.45q2.35 2.4 5.1 4.4l.15-.3m-15.7-96.15l1.05-3.55m-1.05 3.55l-.6 1.9q-2.8 4.5-20.45 9.4l-.5.15-1.5 1.65-1.3 1.2 15.5 64.45.95 4.05-23.85 19.3 2 .25 16.25.55q7.5-.35 12.95-1.9l2.35-7.3.05-.3q-6.75-10.9-10.6-21.75-5.3-15.1-4.25-28.6l2.4-7.95m10.7-34.8l-.1-.3m-46.15-6.8q-3 3.9-3 9.1 0 5.35 3.15 9.35l.25.3 1.05 1.15q1.3 1.3 2.75 2.25 3.6 2.25 8.1 2.25 5.45 0 9.5-3.3M96.7 228.1l-.65 2.55-17.9 69.8 28 16 27.7-21.25m-12.7-67.3l.25-.3q2.75-3.85 2.75-8.85 0-5.65-3.55-9.85M55 205.6l.2-.6-.2-.45v1.05m.4-.15l-.2-.45m4.25 10.1l15.6 7.4q13.35 5.9 21 8.15m-40.65-25.2l4.05 9.65 18.35 44 2.5 6q.4 8.05-4.2 18.55-5.6 12.9-17.1 22.55 8.4-2.7 11.85-2.35 1.8.2 1.8.95l3.7 2.05q4.45 2.6 8.15 5.45 2.2 1.7 5.4 5.2l4.35 5.15q.9-.35 1.65-2.65.75-2.3 1.7-2.75L77.25 303.8l.9-3.35M55 203v1.55m-32.95 2.6l-6.3-.5.3-7.2-5.8-.5-.15 6.95-6 .15v5.5l5.5.3-1.1 21.45q-.1 1.15 2.85 1.55l3 .15.95-23.15 6.6.5.15-5.2m18 71l-4.3-8.85-4.95-4.1-3-4.4-1.95-3.9q-6.05-3.9-14.4-2.5-2.75.45-5.45 1.4l-2.1.9q-3.3 3.45-5.7 8.5-4.8 10.15-.35 18.4 4.45 8.25 9.95 11.55 2.85 1.65 5.45 2.2.2.15 8.7-5.2 8.25-5.15 11.3-4.25l-4.65-8.95 7.4 6.55 3.05.85.55-.75 2.45-3.35-2-4.1q1-13.1 3.85-28.4Q48.6 224.4 55 205.6m-29.15 51.3l-.8-1.6 2.45-4.65.05-.1m-24.75-.7l1.1 6.85m29.35 31.2l.3.1m7 21.05q5.8-.15 12.65-5.15 7.3-5.35 12-13.4l7.35-12.85q3.45-7.4 5.25-18.55m-36.95 52.05l1.2 5.95q4.85-2.45 9.1-5.15l7.4-5.4.45-.35m-19.4-20.6q-.5 12.9.95 23.4v.05l.3 2.1q-2.5 6.4.15 22.25l3.15 14.7 3.6-2.2.15-.1q4.45-2.4 8.95-3.35 5.05-8.85 8.65-17.75.75 4.3 2.45 9.75l2.85 8.5q2.3.6 4.65 1.65 5.8 2.55 9.8 5.95l.35.3 2.85 2.85 3.2-7q3.3-8.65 3.9-16.95l.4-3.45q-.05-1.45-1.7-3.65m-37.4 19.8l-.15.2q-6.15 10.75-11.25 14.95-3.45 2.8-6.4 2.7l-.2 6.2q6.8-1.45 10.95-4.35 2.85-2 5.9-6.1 7.05-9.45 8.05-16.5 1.5 1.6 2.6 5.05 1.5 4.7 1.95 5.65 1.65 3.65 3.85 7.15 1.05 1.75 2.85 3.6l2.95 3q1.1 1.3 3.35 1.7l3.6.15 2.6-.05q1.6-.15 2.1-.75l-.15-4.2q-2.55 1.5-5.55.45-1.45-.55-3.05-1.65-5.95-4.25-10.05-16.7m-22.7 88.4l-.15-.95q-.5-4-1.3-6.4-6.05-15.3-7.45-41-.45-9-.35-16.5m6.6-8.9l2.3-11.7m97.05-35.65l.5.8.25.35 2.5 3.65q2.75 3.9 5.55 7.1l3.4-6.75m-12.45-5.55l.25.4m.75 1.15q.2 2.4.55 4.65l1.95-1m-27 27.6l1.3-1.25q5.5-4.8 10.65-7.95l2.2-1.25 3.25-6.15 3.7-8.6m-30.2 34.85q.85-1.75 1.5-2.15.5-.35 1.9-.35.9 0 2.75.8t3.1.8q3.75 0 9.1-3.8 5.15-3.65 6.7-6.9l1.9-3.25 2.65-4.6q2.1-4.05 2.85-8.1v-.1q1.7 6.95 7.2 12.25 5.45 5.25 10.9 5.15m-6.2-10.25q-2.8-2.95-6.8-3.5 2.15 4.65 5.35 7.15l1.2.85m-9.95-20.25q1.1 7.3 3.4 12.25m-51.9-11.05l8.15 5.4 1.9-1.5.1-.05 3.2-2.55m-3.2 2.55v.05q.75 4.5 2.4 9.85 3.35 10.75 7.8 14.55l3-2.8.1-.1.4 3.1q7.35-2.95 13.75-13.55m-13.75 13.55l-.95.3-2.55-.5-3.3.35q-3.55 1.25-2.7 6.4.35 2.15 1.45 4.95 7.4 18.55 11.95 27.75 8.7 17.5 18.9 29.55 1.35-1.75 3.9-3.65 3.45-2.55 6.2-3.15h10.7M83.9 361.3l1.35-10.75m91-104.25l10-4.15q10.15-3.45 11.6-.35m.4-6.45q-.55-1.5-3.95-1.7-6.9-.4-21.55 6.4m-5.8 177.5q-1.95-.7-2.85-.7-6.25 0-9.7 1-6.8 1.85-8.65 7.45l.75 19.55 7.2 2.8q7.5 2.6 9.1 1.3.25-.2.6-.25-1.3-3.85-1.95-7.55-.5-2.8-.5-4.55 0-4.95 4.8-9.4 1.5-1.45 3.3-2.25 2.05-.9 4.05-.9m6 6.35q-2.85.75-4.6 1.8-3.25 1.9-5.05 5.45-2 3.95-2.15 12.25-2.7-1.45-3.9-1.2m-17.65-23.4l-.8-9.95-.7-.8-.9 1.3m-70.55 16.7q-2.85-2.3-5.3-3.1-3.05-.95-8.95-.95l-3 .15-3.95.25q-1.1.1-2.45 1.3l-1.05 1.15q.5 4.6.25 9.15.4-2.3 4.05-3.55 3-1.05 6.95-1.05 5.85 0 8.4 1.5l5.5 4-.1-1.6-.3-6.9-.05-.35q-.45-7.1-1.15-9.55l3.05-6.35q3.7-7.95 6.6-15.75 8.2-21.75 8.3-35.85m-41.5 66.3l-.65.65m25.8 9.4l1.05.85m6.35 22l-.35 6.1-11.75 11.7q-12.7 6.4-25.45 12.75l-3.55-10.7-2.05-14.75 4.35-6.7q1.95-3.55 3.3-7.05 1.15-2.95 1.9-5.85l.65-3.35q.5-2.95.65-5.9m28.55 12.8l-1.05-.65 1.3 3.05q1.85 3.85 3.65 6l-.15 2.55 1.75 1.9M45.15 455.6H57.6q11.7 2 16.85 4.3 3.4 1.55 6.2 4.35m-4.8-11.6q-4.8-2.5-15.3-2.85-11.7.2-13.5-.05m26.2-8.35q.45 5.8 2.6 11.25"/><path fill="none" stroke="#682B1C" stroke-width=".05" stroke-linecap="round" stroke-linejoin="round" d="M129.7 31.3L126.2 11l-3.6-7.25-11.65-6.2-10.15-.35-9.8.35-15.25 10.9-3.6 5.8L70.7 33.5l1.05 2.55 4.75 3.65 1.45 4.7 4 .35-1.1-11.6V24.8l-1.8-4.75 6.85-1.8 11.25-2.15 12 .35 5.45-1.1 3.25-1.8 4 1.45 2.9 3.25 2.5 6.55q1.35 4 1.9 6.6m.55-.1l.25 1.6.6 3.5q-.35.65-.7.75-.6.15-.4-2.55l-.05-1.6-.25-1.6m-14.45 3.05l-.1.05v-.25l.1.2m-9.5 30.6l8.15-.4 6.3.65q2.25.35 1.95 2.7-.35 2.35-.2 2.85l-.05 1.2q-.2.7-1.7.95l-2.7.2-1.45.1q-.2.15-.9-1.65-.75-1.85-1.25-1.45l-2.65-.1-.55 2.1q-1.15 1.75-3.7 1.1-2.6-.65-3.4-1.85-.85-1.2-1.45-3.45t3.6-2.95m9-4.35q5.65-.15 7.65 3.45 1.95 3.55 1.9 7.25l-.45 5.35q-.35 1.65-6.65 5.8-6.3 4.1-15.4-.35-5.05-1.65-6.45-3.2-1.4-1.55 1.9-2.55 3.3-1 2.55-6.6-.8-5.65 3.25-7.35 4.05-1.7 5.05-1.65l6.65-.15"/></svg>