<svg xmlns="http://www.w3.org/2000/svg" viewBox="0 0 145.5 226.9" width="145.5" height="226.9" preserveAspectRatio="xMinYMin"><defs><radialGradient gradientUnits="userSpaceOnUse" r="819.2" cx="0" cy="0" spreadMethod="pad" gradientTransform="matrix(.079 0 0 .079 100.35 169.4)" id="a"><stop offset="0" stop-color="#fff"/><stop offset=".278" stop-color="#B1B1B1"/><stop offset=".631" stop-color="#525252"/><stop offset=".882" stop-color="#171717"/><stop offset="1"/></radialGradient><radialGradient gradientUnits="userSpaceOnUse" r="819.2" cx="0" cy="0" spreadMethod="pad" gradientTransform="matrix(.04 0 0 .04 54.85 132.5)" id="b"><stop offset="0" stop-color="#fff"/><stop offset=".278" stop-color="#B1B1B1"/><stop offset=".631" stop-color="#525252"/><stop offset=".882" stop-color="#171717"/><stop offset="1"/></radialGradient><radialGradient gradientUnits="userSpaceOnUse" r="819.2" cx="0" cy="0" spreadMethod="pad" gradientTransform="matrix(.014 0 0 .014 43.8 137.95)" id="c"><stop offset="0" stop-color="#fff"/><stop offset=".278" stop-color="#B1B1B1"/><stop offset=".631" stop-color="#525252"/><stop offset=".882" stop-color="#171717"/><stop offset="1"/></radialGradient><radialGradient gradientUnits="userSpaceOnUse" r="819.2" cx="0" cy="0" spreadMethod="pad" gradientTransform="matrix(.018 0 0 .018 56.4 126.65)" id="d"><stop offset="0" stop-color="#fff"/><stop offset=".278" stop-color="#B1B1B1"/><stop offset=".631" stop-color="#525252"/><stop offset=".882" stop-color="#171717"/><stop offset="1"/></radialGradient><radialGradient gradientUnits="userSpaceOnUse" r="819.2" cx="0" cy="0" spreadMethod="pad" gradientTransform="matrix(.022 0 0 .022 41.9 149.55)" id="e"><stop offset="0" stop-color="#fff"/><stop offset=".278" stop-color="#B1B1B1"/><stop offset=".631" stop-color="#525252"/><stop offset=".882" stop-color="#171717"/><stop offset="1"/></radialGradient><radialGradient gradientUnits="userSpaceOnUse" r="819.2" cx="0" cy="0" spreadMethod="pad" gradientTransform="matrix(.02 0 0 .02 38.8 158.25)" id="f"><stop offset="0" stop-color="#fff"/><stop offset=".278" stop-color="#B1B1B1"/><stop offset=".631" stop-color="#525252"/><stop offset=".882" stop-color="#171717"/><stop offset="1"/></radialGradient><radialGradient gradientUnits="userSpaceOnUse" r="819.2" cx="0" cy="0" spreadMethod="pad" gradientTransform="matrix(.085 0 0 .085 106 171.15)" id="g"><stop offset="0" stop-color="#fff"/><stop offset=".278" stop-color="#B1B1B1"/><stop offset=".631" stop-color="#525252"/><stop offset=".882" stop-color="#171717"/><stop offset="1"/></radialGradient><radialGradient gradientUnits="userSpaceOnUse" r="819.2" cx="0" cy="0" spreadMethod="pad" gradientTransform="matrix(.091 0 0 .091 98.95 238.6)" id="h"><stop offset="0" stop-color="#fff"/><stop offset=".278" stop-color="#B1B1B1"/><stop offset=".631" stop-color="#525252"/><stop offset=".882" stop-color="#171717"/><stop offset="1"/></radialGradient><radialGradient gradientUnits="userSpaceOnUse" r="819.2" cx="0" cy="0" spreadMethod="pad" gradientTransform="matrix(.024 0 0 .024 130.35 124)" id="i"><stop offset="0" stop-color="#fff"/><stop offset=".278" stop-color="#B1B1B1"/><stop offset=".631" stop-color="#525252"/><stop offset=".882" stop-color="#171717"/><stop offset="1"/></radialGradient><radialGradient gradientUnits="userSpaceOnUse" r="819.2" cx="0" cy="0" spreadMethod="pad" gradientTransform="matrix(.018 0 0 .018 128.9 125.1)" id="j"><stop offset="0" stop-color="#fff"/><stop offset=".278" stop-color="#B1B1B1"/><stop offset=".631" stop-color="#525252"/><stop offset=".882" stop-color="#171717"/><stop offset="1"/></radialGradient><radialGradient gradientUnits="userSpaceOnUse" r="819.2" cx="0" cy="0" spreadMethod="pad" gradientTransform="matrix(.014 0 0 .014 137.95 134.75)" id="k"><stop offset="0" stop-color="#fff"/><stop offset=".278" stop-color="#B1B1B1"/><stop offset=".631" stop-color="#525252"/><stop offset=".882" stop-color="#171717"/><stop offset="1"/></radialGradient><radialGradient gradientUnits="userSpaceOnUse" r="819.2" cx="0" cy="0" spreadMethod="pad" gradientTransform="matrix(.009 0 0 .009 138.6 137.95)" id="l"><stop offset="0" stop-color="#fff"/><stop offset=".278" stop-color="#B1B1B1"/><stop offset=".631" stop-color="#525252"/><stop offset=".882" stop-color="#171717"/><stop offset="1"/></radialGradient><radialGradient gradientUnits="userSpaceOnUse" r="819.2" cx="0" cy="0" spreadMethod="pad" gradientTransform="matrix(.009 0 0 .009 138.6 140.55)" id="m"><stop offset="0" stop-color="#fff"/><stop offset=".278" stop-color="#B1B1B1"/><stop offset=".631" stop-color="#525252"/><stop offset=".882" stop-color="#171717"/><stop offset="1"/></radialGradient><radialGradient gradientUnits="userSpaceOnUse" r="819.2" cx="0" cy="0" spreadMethod="pad" gradientTransform="matrix(.071 0 0 .071 104.8 212.05)" id="n"><stop offset="0" stop-color="#fff"/><stop offset=".278" stop-color="#B1B1B1"/><stop offset=".631" stop-color="#525252"/><stop offset=".882" stop-color="#171717"/><stop offset="1"/></radialGradient><radialGradient gradientUnits="userSpaceOnUse" r="819.2" cx="0" cy="0" spreadMethod="pad" gradientTransform="matrix(.074 0 0 .074 105.15 215.4)" id="o"><stop offset="0" stop-color="#fff"/><stop offset=".278" stop-color="#B1B1B1"/><stop offset=".631" stop-color="#525252"/><stop offset=".882" stop-color="#171717"/><stop offset="1"/></radialGradient></defs><path fill="url(#a)" d="M68.6 115.05q-.65 30 11.2 36.75 12 6.85 26.85 14.05l13.8-17.05q4.8-5.95-.05-18.6-4.85-12.7-10.45-16.85l-1.45-3.25 6.7 1.05 7.8 9.5-.8-.1.8.1 6 7.35 4.3 7.65.15.3 2.5 4.45 2.8 5.1 2.55 4.55q3.85 15.05-4.85 24.1-4.35 4.55-9.5 6.1v.05l-6.5-.8-2.55-.65q-4.4-1.35-7.7-3.75-2-1.45-3.35-3.15l-.95-1.4.95 1.4q1.35 1.7 3.35 3.15 3.3 2.4 7.7 3.75-9.45-1.9-30 .65l-.05-.05-.2.1q-13.1 7.3-23.35 3.7-2.8-1-5.4-2.8-5.1-3.55-8.7-9.85l-2.15-4.55-.25-.5-.05-.55-.1-1.1v-.2q-.3-3.8.2-7.7l.35-2.25.1.05-.1-.15q1-5.55 3.5-11.35l.8-1.75 1.7-3.7q3.65-7.85 6.45-13.3l1.75-3.35 2.65-4.8.45-.85q1.85-1.15 2.9-1.45h.4v.85l-.1.3-.1.8M52.65 142.4l-.95-.1.95.1m46.95 28.65q-6.15 5.2-11.75 8.4 5.6-3.2 11.75-8.4"/><path fill="url(#b)" d="M24.5 144.25q-1.75-7.3 4.85-16.1 6.55-8.8 35.7-12.75l-2.65 4.8-1.75 3.35-17 9.75-.35.2-11.1 6.35-7.7 4.4"/><path fill="url(#c)" d="M54.2 136.85l-1.7 3.7-.8 1.75-12.35-1.5-7.15-.95 11.1-6.35.35-.2q4.6-.65 8 1.35 1.75 1 2.55 2.2"/><path fill="url(#d)" d="M54.2 136.85q-.8-1.2-2.55-2.2-3.4-2-8-1.35l17-9.75q-2.8 5.45-6.45 13.3"/><path fill="url(#e)" d="M25.3 150.25h-.2l-.6-5v-1l7.7-4.4 7.15.95 12.35 1.5q-2.5 5.8-3.5 11.35l.1.15-.1-.05q-4.2-2.25-13.95-3.1l-8.95-.4m22.9 3.5v-.1.1"/><path fill="url(#f)" d="M48.2 153.75l-.35 2.25q-.5 3.9-.2 7.7-5.1-1.75-10.55-3-11.45-2.55-13.25.25.4-6.5 1.45-10.7l8.95.4q9.75.85 13.95 3.1"/><path fill="url(#g)" d="M126.95 180.3l-1.25 3.25q-.95-2.7-5.25-4.05l6.5.8m-74.2 5.8l-.1-.4q-3.5-10.6-4.75-19.55l.15-.1 2.15 4.55q3.6 6.3 8.7 9.85 2.6 1.8 5.4 2.8l-11.6 2.45.05.4m34.9-6.55l.2-.1.05.05-.25.05m-35 6.15h.05-.05"/><path fill="url(#h)" d="M125.7 183.55l-.1.35q-2.05 5.85-3.7 14.2l-.7 4-.7-.15q-5.35 4.4-11.45 11.25-3.05 3.45-5 6-14.1-10.55-30.5-14.7-5.1-1.35-9.85-1.85l-3.65-.25H60l-5-10.15-2.25-6.15-.05-.4 11.6-2.45q10.25 3.6 23.35-3.7l.25-.05q20.55-2.55 30-.65l2.55.65q4.3 1.35 5.25 4.05"/><path fill="url(#i)" d="M115.2 111.15l4.4-.65q5.25-.6 9.75-.1 14.45 1.5 15.75 13.05l-1.5-.2-20.6-2.6-7.8-9.5"/><path fill="url(#j)" d="M143.6 123.25l.05 1.45q-5.15.5-10.4 1.95L129 128l-6-7.35 20.6 2.6"/><path fill="url(#k)" d="M143.65 124.7q1.35 2.35 1.15 5.95l-.35 3.15-11.05 1.85h-.1L129 128l4.25-1.35q5.25-1.45 10.4-1.95"/><path fill="url(#l)" d="M144.45 133.8l.15 1.5-.25 3.7-4.05.45q-3.95.5-4.35.95l-2.5-4.45-.05-.3 11.05-1.85"/><path fill="url(#m)" d="M144.35 139l1.05 4.85-2.25.15q-2.55.4-4.4 1.5l-2.8-5.1q.4-.45 4.35-.95l4.05-.45"/><path fill="url(#n)" d="M121.2 202.1l-.05.05-.65-.2.7.15"/><path fill="url(#o)" d="M121.15 202.15l-.85 5.75q-5.3 4.75-8.95 9.45l-7.05 8.35q-.6 1.45-1.3 1.1-.7-.35-6.5-6.9-5.85-6.6-21.35-10.95-4.8-1.35-10-2.15l-3.2-.45-1.9-3.85v-.1l3.65.25q4.75.5 9.85 1.85 16.4 4.15 30.5 14.7 1.95-2.55 5-6 6.1-6.85 11.45-11.25l.65.2"/><path fill="none" stroke="#3E3E3E" stroke-width=".05" stroke-linecap="round" stroke-linejoin="round" d="M68.7 114.25l-.05.15-.05.65q-.65 30 11.2 36.75 12 6.85 26.85 14.05l13.8-17.05q4.8-5.95-.05-18.6-4.85-12.7-10.45-16.85l-1.45-3.25 6.7 1.05 4.4-.65q5.25-.6 9.75-.1 14.45 1.5 15.75 13.05l-1.5-.2.05 1.45q1.35 2.35 1.15 5.95l-.35 3.15.15 1.5-.25 3.7 1.05 4.85-2.25.15q-2.55.4-4.4 1.5l2.55 4.55q3.85 15.05-4.85 24.1-4.35 4.55-9.5 6.1v.05l-1.25 3.25-.1.35q-2.05 5.85-3.7 14.2l-.7 4-.05.05-.85 5.75q-5.3 4.75-8.95 9.45l-7.05 8.35q-.6 1.45-1.3 1.1-.7-.35-6.5-6.9-5.85-6.6-21.35-10.95-4.8-1.35-10-2.15l-3.2-.45-1.9-3.85-.05-.1-5-10.15-2.25-6.15-.1-.4q-3.5-10.6-4.75-19.55l-.1-.6-.05-.55-.1-1.1v-.2q-5.1-1.75-10.55-3-11.45-2.55-13.25.25.4-6.5 1.45-10.7h-.2l-.6-5v-1q-1.75-7.3 4.85-16.1 6.55-8.8 35.7-12.75l.45-.85q1.85-1.15 2.9-1.45h.4v.85l-.1.3-.1.8m-3.55.35l-2.65 4.8-1.75 3.35q-2.8 5.45-6.45 13.3l-1.7 3.7-.8 1.75.95.1m-9-9.1l-.35.2-11.1 6.35 7.15.95 12.35 1.5q-2.5 5.8-3.5 11.35v.1l-.35 2.25q-.5 3.9-.2 7.7m.65-9.9l-.1-.05q-4.2-2.25-13.95-3.1l-8.95-.4m18.35-16.95q4.6-.65 8 1.35 1.75 1 2.55 2.2m6.45-13.3l-17 9.75m-11.45 6.55l-7.7 4.4m23.3 21.3l.25.5 2.15 4.55q3.6 6.3 8.7 9.85 2.6 1.8 5.4 2.8 10.25 3.6 23.35-3.7l.2-.1q5.6-3.2 11.75-8.4M52.7 185.7h-.05m11.65-2.45l-11.6 2.45m70.3-65.05l-.8-.1m16.55 24.95l-2.8-5.1-2.5-4.45-.15-.3L129 128l-6-7.35-7.8-9.5m18.2 24.5h-.1M129 128l4.25-1.35q5.25-1.45 10.4-1.95m-7.7 15.7q.4-.45 4.35-.95l4.05-.45m-.75-15.75l-20.6-2.6m10.4 15l11.05-1.85m-38.55 36.75l.95 1.4q1.35 1.7 3.35 3.15 3.3 2.4 7.7 3.75l2.55.65 6.5.8m-39.05-.8l-.25.05m.25-.05q20.55-2.55 30-.65m2.55.65q4.3 1.35 5.25 4.05M60.05 202.4l3.65.25q4.75.5 9.85 1.85 16.4 4.15 30.5 14.7 1.95-2.55 5-6 6.1-6.85 11.45-11.25m-60.5.45h.05"/></svg>