<svg xmlns="http://www.w3.org/2000/svg" viewBox="29.7 -46.0 176.2 530.3" width="176.2" height="530.3" preserveAspectRatio="xMinYMin"><defs><linearGradient gradientUnits="userSpaceOnUse" x1="-819.2" x2="819.2" gradientTransform="matrix(-.008 -.05 .037 -.006 99.8 41.9)" id="a"><stop offset="0" stop-color="#D98651"/><stop offset=".533" stop-color="#DFA168"/><stop offset="1" stop-color="#D98651"/></linearGradient><linearGradient gradientUnits="userSpaceOnUse" x1="-819.2" x2="819.2" gradientTransform="matrix(-.008 -.05 .037 -.006 99.8 41.9)" id="b"><stop offset="0" stop-color="#333"/><stop offset=".533" stop-color="#333"/><stop offset="1"/></linearGradient><linearGradient gradientUnits="userSpaceOnUse" x1="-819.2" x2="819.2" gradientTransform="matrix(-.005 .011 -.005 -.002 131.3 48.05)" id="c"><stop offset="0" stop-color="#D98651"/><stop offset=".533" stop-color="#DFA168"/><stop offset="1" stop-color="#D98651"/></linearGradient><radialGradient gradientUnits="userSpaceOnUse" r="819.2" cx="0" cy="0" spreadMethod="pad" gradientTransform="matrix(.005 0 0 .005 122.1 41.05)" id="d"><stop offset="0" stop-color="#fff"/><stop offset=".302"/></radialGradient><radialGradient gradientUnits="userSpaceOnUse" r="819.2" cx="0" cy="0" spreadMethod="pad" gradientTransform="matrix(.005 0 0 .005 101.35 41.7)" id="e"><stop offset="0" stop-color="#fff"/><stop offset=".302"/></radialGradient><linearGradient gradientUnits="userSpaceOnUse" x1="-819.2" x2="819.2" gradientTransform="matrix(.006 0 0 .013 105.25 71.05)" id="f"><stop offset="0" stop-color="#333"/><stop offset=".533" stop-color="#333"/><stop offset="1"/></linearGradient><linearGradient gradientUnits="userSpaceOnUse" x1="-819.2" x2="819.2" gradientTransform="matrix(-.016 -.025 .03 -.019 69.35 -32.1)" id="g"><stop offset="0" stop-color="#333"/><stop offset=".533" stop-color="#333"/><stop offset="1"/></linearGradient><linearGradient gradientUnits="userSpaceOnUse" x1="-819.2" x2="819.2" gradientTransform="matrix(-.004 -.005 .01 -.007 56.3 -13.75)" id="h"><stop offset="0" stop-color="#333"/><stop offset=".533" stop-color="#333"/><stop offset="1"/></linearGradient><linearGradient gradientUnits="userSpaceOnUse" x1="-819.2" x2="819.2" gradientTransform="matrix(.011 .001 0 .007 87.6 -1.95)" id="i"><stop offset="0" stop-color="#333"/><stop offset=".533" stop-color="#333"/><stop offset="1"/></linearGradient><linearGradient gradientUnits="userSpaceOnUse" x1="-819.2" x2="819.2" gradientTransform="matrix(-.024 -.032 .03 -.022 101.1 29)" id="j"><stop offset="0" stop-color="#333"/><stop offset=".533" stop-color="#333"/><stop offset="1"/></linearGradient><linearGradient gradientUnits="userSpaceOnUse" x1="-819.2" x2="819.2" gradientTransform="matrix(.04 .002 -.002 .034 100.45 25.85)" id="k"><stop offset="0" stop-color="#333"/><stop offset=".533" stop-color="#999"/><stop offset="1" stop-color="#333"/></linearGradient><linearGradient gradientUnits="userSpaceOnUse" x1="-819.2" x2="819.2" gradientTransform="matrix(.085 0 0 .06 99.05 254.55)" id="l"><stop offset="0" stop-color="#433423"/><stop offset=".533" stop-color="#806244"/><stop offset="1" stop-color="#433423"/></linearGradient><linearGradient gradientUnits="userSpaceOnUse" x1="-819.2" x2="819.2" gradientTransform="matrix(.031 0 0 .035 148.95 320)" id="m"><stop offset="0" stop-color="#433423"/><stop offset=".533" stop-color="#806244"/><stop offset="1" stop-color="#433423"/></linearGradient><linearGradient gradientUnits="userSpaceOnUse" x1="-819.2" x2="819.2" gradientTransform="matrix(.04 .003 -.003 .048 67.3 335.8)" id="n"><stop offset="0" stop-color="#433423"/><stop offset=".533" stop-color="#806244"/><stop offset="1" stop-color="#433423"/></linearGradient><linearGradient gradientUnits="userSpaceOnUse" x1="-819.2" x2="819.2" gradientTransform="matrix(.04 .003 -.003 .048 67.3 335.8)" id="o"><stop offset="0" stop-color="#433423"/><stop offset=".533" stop-color="#433423"/><stop offset="1" stop-color="#433423"/></linearGradient><linearGradient gradientUnits="userSpaceOnUse" x1="-819.2" x2="819.2" gradientTransform="matrix(.028 .002 -.005 .069 61.55 428.2)" id="p"><stop offset="0" stop-color="#433423"/><stop offset=".533" stop-color="#806244"/><stop offset="1" stop-color="#433423"/></linearGradient><linearGradient gradientUnits="userSpaceOnUse" x1="-819.2" x2="819.2" gradientTransform="matrix(.085 0 0 .06 99.05 254.55)" id="q"><stop offset="0" stop-color="#433423"/><stop offset=".533" stop-color="#433423"/><stop offset="1" stop-color="#433423"/></linearGradient><linearGradient gradientUnits="userSpaceOnUse" x1="-819.2" x2="819.2" gradientTransform="matrix(.082 0 0 .049 101.55 335)" id="r"><stop offset="0" stop-color="#E9BC9E"/><stop offset=".533" stop-color="#F9EAE3"/><stop offset="1" stop-color="#EBC0A5"/></linearGradient><linearGradient gradientUnits="userSpaceOnUse" x1="-819.2" x2="819.2" gradientTransform="matrix(.043 .003 -.003 .043 135.1 338.3)" id="s"><stop offset="0" stop-color="#433423"/><stop offset=".533" stop-color="#433423"/><stop offset="1" stop-color="#433423"/></linearGradient><linearGradient gradientUnits="userSpaceOnUse" x1="-819.2" x2="819.2" gradientTransform="matrix(.054 .004 -.004 .057 163.55 416.4)" id="t"><stop offset="0" stop-color="#433423"/><stop offset=".533" stop-color="#806244"/><stop offset="1" stop-color="#433423"/></linearGradient><linearGradient gradientUnits="userSpaceOnUse" x1="-819.2" x2="819.2" gradientTransform="matrix(.051 0 0 .059 164 417.15)" id="u"><stop offset="0" stop-color="#E9BC9E"/><stop offset=".533" stop-color="#F9EAE3"/><stop offset="1" stop-color="#EBC0A5"/></linearGradient></defs><path fill="url(#a)" d="M129.4 58.05v.4q-.4 3.05-3.45 10-2.2 5-4.35 8.1 1.7-8.4 1.7-10.4 0-2.5-2.1-3.55-2.95-1-4.65-2.15 0 2 2.6 2.85 2.55.9 2.55 3.15l-.45 5.7-.6 4.95v.75L119 79.6q-2.7 3.05-10 2.7l-4.65-.8h-.05l-1.85-.35Q93.6 76.9 86.3 68.8q-3.05-3.45-5-6.5 0-.4-.35-.4l-.4-.75-.1.1-2.95.25q-1.9-.75-1.9-2.7 0-1.5-1.15-4.2l-2.3-4.25q-2.3-3.05-2.7-5-1.15-3.45.4-6.15.5-1.05 1.45-1.4l2.5.5q1.65.6 2.45 1.95l.3.85.4.45q1.95 2.35 3.45 5.35 1.85 3.65 1.7 5.65v.25l.05-.2-.05.2v-.25l.05.05v-.05l.8-9.95q.8-5.25 3.85-7.9-.15-.45-1.25-1.15-1.2-.7-1.95-.6 2.3-4.9 5.95-7.45 3.9-2.65 7.7-1.45-.05-.5-1.75-2.5l-2-2.5 1.75-.25q1.2 0 3.65 1.15 2.15 1 2.8 1.6.75.75 2.75 1.55 1.55.65 1.75 1.4 1.2-1.95 2.55-2.35l2.95.15q1-3.45 1.45-4.4.75-1.6 1.85-1.6 1.45 0 2.75 1.75 1.1 1.5 1.1 2.25l3.25-2q1.05 1.4 1.5 3.9l.45 3.8q.75 0 1.45-.5l.7-.5q1.15 0 1.9 4.8l.7 5.65 1.15 6.35.2 9.35-.75 6.9m-7.9-23.75l-.25-.3q-.85.1-1.95 1.2l-1.8 1.75-.05-.8q-1.95-.2-2.35 1.4l-.65 3.15q4.05-1.25 5.9-2.75 1.85-1.6 3.35-1.65 1.45-.05 2.75 1.1l2.05 2.6.15-.05q-1.25-2.85-2.6-4.95-.35-.6-1.6-.7-1.15-.1-1.2-.65l-.6.45-.75.45q-.4.05-.4-.25m2.9 6.45l-1.95.05-3.45.05-.55.05-1.35.1q-.8.25-.4 1.8l2.15.1 3.9-.2 1.45-.25 2.95-1.25-2.5-.45h-.25m-24.1-5q-1.6-1-2.7-1-.3 0-.3.3.05.3-.5.3-.45 0-1-.4l-.85-.4q0 .55-1.45.75-1.65.25-2.05.85-1.5 2.2-2.75 5.25h.2l2.4-2.85q1.45-1.25 2.95-1.25 2.95 0 5.25 1.25l.3.15 3.05 1.2 4.4.9-1.25-3.1q-.75-1.55-3.25-1.2v.8l-2.45-1.55m-2.9 5.85l-5.85 1.2 6.25.35 5.2.05h2.7q-.2-1.45-2.3-1.85l-6 .25m18 16.2q3.55-2.75 2.85-4.9-1.2-3.55-2.4-6.15l-1.75-3q-.55-.4-.8-1.75l-1-3.7 1 3.7q.25 1.35.8 1.75l1.75 3q1.2 2.6 2.4 6.15.7 2.15-2.85 4.9l-.25.15-.8.55h2.1l.3.2.8-.85q0-.55-.75-.6-.45-.1-1.4.55m3.6-2.85q.5.6.4 1.95-.1 1.3-1.85 2.1l-1.1-.05.3-.25-.3.25 1.1.05q1.75-.8 1.85-2.1.1-1.35-.4-1.95m-5.2 3.95l.55-.4-.55.4m-1.95.05l-.15-.85-.9-.3-1.25-.25q-.35-.05-.85.6t.55.9l.95.3q.1-.1.25-.1l.55-.2.85-.1m-2.1 2.05l-.6.35q-2.5 1.4-4.7 2.1l-2.85.8q-1.35.65-1.35 7.15 0 5.2.6 6.2.5.9 3.45 3.9v-.05l-2.6-4.95q-.25-.65-.25-5.05 0-3.95.15-5.85l5.1-.85q2.45-.55 3.55-2.95v-1.2l-.5.4m5.8 7.3l-2.95.1-2.75.4 2.75-.4 2.95-.1m-.7 1.1l-1.05 1.65 1.05-1.65m6-3.05q-1.3-1.1-2.15-1.2l-2.35-.05-1.35.15q.05-.15-.8.4-.85.5-1.4.4l-1.05-.2-1.75-.25-3.95.55q-3 .5-3.05 1.1.05-.6 3.05-1.1l3.95-.55 1.75.25 1.05.2q.55.1 1.4-.4.85-.55.8-.4l1.35-.15 2.35.05q.85.1 2.15 1.2M109.25 60l-1.7-.9q-1.05-.6-1.05-1.6l.9-2.1-.9 2.1q0 1 1.05 1.6l1.7.9m2.95 11.05q-.95-1.25-1.45-1.25.5 0 1.45 1.25M79.35 51.5L79.1 56q0 1.7.25 2.45l1.1 2.8-1.1-2.8q-.25-.75-.25-2.45l.25-4.5m24.95 29.95l.05.05-.05-.05"/><path fill="url(#b)" d="M121.6 76.55l-.1.15-.3.45-.2.25-.35.45v-.75l.6-4.95.45-5.7q0-2.25-2.55-3.15-2.6-.85-2.6-2.85 1.7 1.15 4.65 2.15 2.1 1.05 2.1 3.55 0 2-1.7 10.4m-.1-42.25q0 .3.4.25l.75-.45.6-.45q.05.55 1.2.65 1.25.1 1.6.7 1.35 2.1 2.6 4.95l-.15.05-2.05-2.6q-1.3-1.15-2.75-1.1-1.5.05-3.35 1.65-1.85 1.5-5.9 2.75l.65-3.15q.4-1.6 2.35-1.4l.05.8 1.8-1.75q1.1-1.1 1.95-1.2l.25.3m-21.2 1.45l2.45 1.55v-.8q2.5-.35 3.25 1.2l1.25 3.1-4.4-.9-3.05-1.2-.3-.15q-2.3-1.25-5.25-1.25-1.5 0-2.95 1.25l-2.4 2.85h-.2q1.25-3.05 2.75-5.25.4-.6 2.05-.85 1.45-.2 1.45-.75l.85.4q.55.4 1 .4.55 0 .5-.3 0-.3.3-.3 1.1 0 2.7 1"/><path fill="url(#c)" d="M131.95 37.85q.5.1.5 1.35.4 5.75.4 9.25 0 7.3-.4 8.05 0 .4-1.9 1.15l-1.15.4.75-6.9-.2-9.35.15.85q.75 3.65.4 5.4v.25l.05-.25-.05.25v-.25h.05l1.4-10.2"/><path fill="url(#d)" d="M124.4 40.75v.5l-.2 1.2-1.45.25-3.9.2q-.45-.75-.45-1.65l.05-.35.55-.05 3.45-.05 1.95-.05"/><path fill="#fff" d="M124.4 40.75h.25l2.5.45-2.95 1.25.2-1.2v-.5m-5.95.15l-.05.35q0 .9.45 1.65l-2.15-.1q-.4-1.55.4-1.8l1.35-.1m-21.05.7v.05q0 .8.4 1.5l-6.25-.35 5.85-1.2m5.6 1.6q.4-.7.4-1.55v-.3q2.1.4 2.3 1.85H103"/><path fill="url(#e)" d="M103 43.2l-5.2-.05q-.4-.7-.4-1.5v-.05l6-.25v.3q0 .85-.4 1.55"/><path fill="#AE6026" d="M115.4 57.8q.95-.65 1.4-.55.75.05.75.6l-.8.85-.3-.2h-2.1l.8-.55.25-.15m-3.55 1.15l-.85.1-.55.2q-.15 0-.25.1l-.95-.3q-1.05-.25-.55-.9t.85-.6l1.25.25.9.3.15.85"/><path fill="url(#f)" d="M109.75 61l.5-.4v1.2q-1.1 2.4-3.55 2.95l-5.1.85q-.15 1.9-.15 5.85 0 4.4.25 5.05l2.6 4.95v.05q-2.95-3-3.45-3.9-.6-1-.6-6.2 0-6.5 1.35-7.15l2.85-.8q2.2-.7 4.7-2.1l.6-.35"/><path fill="url(#g)" d="M51-15.9l-1.85.7q-2 .9-2.3 1.5h-.25l-.2-2.9q-.7-3.05-3.3-4.35 2.65-2.05 7.2-3.8 7-2.65 12.7-1.35l-11.6-7.35q-8.85-5.4-12.7-7.3l1.3-1 4.75-.5q4.65 0 20.7 8.45v-2.7l-.6-2.3-.6-2.2v-1.95q2.5.75 4.85 3.85 2.35 3.55 3.6 4.8h.5l.15-3.5q.2-3.4.6-4.2l2.35-1.8 3.05-2.15h.25L81-39.6q.8 3.6 1.6 4.8l.5.25q-.05-3.75 4.5-6.8 3.75-2.55 6.15-2.6h2.5q-9.8 9.2-10.15 13.65v.5h1.2q.9-.5 4.2-.8l5.25-.7h2q-5.7 4.8-7.25 7.7-.95 1.75-.95 4.9 0 4.2.65 6.65.55 2.25 2.2 5.2l-5.1-.6q-2.7 0-6.15 1.95l-2.5 1.8q-1.1-2.65-4.25-5.95-2.95-3.15-6.45-5.55l-2.4-1.6-.3-.2q-1.55-.9-2.75-1.1l-4.1-.1-4.95.45q-1.1.35-2.85 1.65l-.6.2"/><path fill="url(#h)" d="M51-15.9l.6-.2q1.75-1.3 2.85-1.65l4.95-.45 4.1.1q1.2.2 2.75 1.1-3.25 0-6.65 1.2-6.8 2.35-7.45 8.35-.75 6.9-1.45-.1-.7-7.2.4-8.05l-.1-.3"/><path fill="url(#i)" d="M93.4-6.85l.5.15q3.75 1.3 3.1 4.95l-8 .35q-2.55.7-8.15 4.6-1.35-.65-2.05-1.95-.6-1.05-.6-2 0-1.55 1.45-2.95l2.5-1.8q3.45-1.95 6.15-1.95l5.1.6"/><path fill="url(#j)" d="M97-1.75h2.5l12.6.7q5.6 1.6 11.2 8.75 4.4 5.55 6.55 10.15 2.65 5.55 2.9 11.3l-.05.9-.2 2.45-.55 5.35-1.4 10.2h-.05q.35-1.75-.4-5.4l-.15-.85-1.15-6.35-.7-5.65q-.75-4.8-1.9-4.8l-.7.5q-.7.5-1.45.5l-.45-3.8q-.45-2.5-1.5-3.9l-3.25 2q0-.75-1.1-2.25-1.3-1.75-2.75-1.75-1.1 0-1.85 1.6-.45.95-1.45 4.4l-2.95-.15q-1.35.4-2.55 2.35-.2-.75-1.75-1.4-2-.8-2.75-1.55-.65-.6-2.8-1.6-2.45-1.15-3.65-1.15l-1.75.25 2 2.5q1.7 2 1.75 2.5-3.8-1.2-7.7 1.45-3.65 2.55-5.95 7.45.75-.1 1.95.6 1.1.7 1.25 1.15-3.05 2.65-3.85 7.9l-.8 9.95h-.05q.15-2-1.7-5.65-1.5-3-3.45-5.35l-.4-.45-.3-.85q-.8-1.35-2.45-1.95l-2.5-.5-1.85-.55q-1.65-.7-1.75-3.85-.05-1.8.25-5.65 0-8 1.3-11.9 1.85-5.5 7.45-9.65l4.15-3Q86.45-.7 89-1.4l8-.35"/><path fill="url(#k)" d="M82.15 52.55v.05l-.05-.05h.05"/><path fill="url(#l)" d="M118.55 214.4l11.55-1.4q8.05-1.6 12.7-4.7 2.35-1.55 3.05-2.8l22.55 81.55q-3.7 2.4-7.6 4.4l-.15.05q-14.1 7.15-31.45 10.05l-.25-1.25-10.4-85.9 10.4 85.9.2 1.25-.25.05h-.25l-.25.05-.3.05-4.8.7-21.2 1.2h-.05l-15.15-.7h-.05q-23.2-1.85-45.4-8.2l-.1-.05-4.45-1.35-3.35-3.35-3.85-5.75 1.45-3.85 2.85 2.9 4.8 2.4 1.45-3.85-1.9-4.35-4.35-6.2 20.1-65.15q39.95 9.55 64.45 8.3m-33.8.35l-12.5 84.6 12.5-84.6"/><path fill="url(#m)" d="M129.2 301.55q17.35-2.9 31.45-10.05l.15-.05 13.8 46.05-9 2.35-32.8 8.7-9.5-46.15 4.8-.7.3-.05.25-.05h.25l.25-.05h.05"/><path fill="url(#n)" d="M42.2 347.6l-8.2-.95v-.1q-.2-1.9 3.55-26.7l3.9-25.15q22.2 6.35 45.4 8.2h.05L82 351.4l-.95.45-38.55-4.25h-.3"/><path fill="url(#o)" d="M42.2 347.6h.3l38.55 4.25.95-.45 4.9-48.5 15.15.7v.05q-9 62.15-15.7 68.4-1.1 1.05-2.95 1.75-5.5 2.1-17.5 1.4-15.55-.9-22.95-5l-.25-.15-1.95-1.4q-3.85-3.9-1.6-12.85 1.15-4.5 3.05-8.2"/><path fill="url(#p)" d="M83.4 373.8l.05 5.45L72.9 416.2l-.5 12 1.95 22.55 8.15 13.9-1.95 7.2-6.2 9.15-13.95 3.35-15.35-.5-5.75-3.35-.5-8.15L46 459.4l3.85-11.05L49 444q-.7-5.9-.1-13.4t-3.5-28q-2.05-10.3-4.2-19.05l1.45-13.35h.3q7.4 4.1 22.95 5 12 .7 17.5-1.4"/><path fill="url(#q)" d="M128.95 300.3l.25 1.25h-.05l-.2-1.25"/><path fill="url(#r)" d="M102.05 303.6h.05l-.05.05v-.05"/><path fill="url(#s)" d="M165.6 339.85q1.9 6.35 2.85 11.5 1.8 9.95-1.5 14.45-1.4 1.95-5.7 3.4-5.75 1.9-16.45 2.9l-18.15.9q-1.7-.55-4.35-2.7l-.1-.1q-2.65-2.25-5.15-5.35-3.2-4.05-9.5-34.2l-5.5-27 .05-.05 21.2-1.2 9.5 46.15 32.8-8.7"/><path fill="url(#t)" d="M161.25 369.2l4.75 40.75 2.9 12 3.8 4.8 7.2 6.25 7.2 5.25 16.35 7.2 2.4 2.4-.5 8.65-7.65 6.75-8.65 1.9-13.95-5.75-9.1-8.65-8.15-3.85-7.7-1.45-1.9-3.8-.5-15.85-14.85-29.75-8.65-12.5-2.05-13.2.1-.05q2.65 2.15 4.35 2.7l18.15-.9q10.7-1 16.45-2.9"/><path fill="url(#u)" d="M122.2 370.35v-.15l.1.1-.1.05"/><path fill="none" stroke="#AE6026" stroke-width=".05" stroke-linecap="round" stroke-linejoin="round" d="M131.95 37.85q.5.1.5 1.35.4 5.75.4 9.25 0 7.3-.4 8.05 0 .4-1.9 1.15l-1.15.4v.4q-.4 3.05-3.45 10-2.2 5-4.35 8.1l-.1.15-.3.45-.2.25-.35.45L119 79.6q-2.7 3.05-10 2.7l-4.65-.8.05.1-.1-.1-1.85-.35Q93.6 76.9 86.3 68.8q-3.05-3.45-5-6.5 0-.4-.35-.4l-.4-.75-.1.1-2.95.25q-1.9-.75-1.9-2.7 0-1.5-1.15-4.2l-2.3-4.25q-2.3-3.05-2.7-5-1.15-3.45.4-6.15.5-1.05 1.45-1.4m58.65 4l.2 9.35-.75 6.9m-5-17.3l-1.95.05-3.45.05-.55.05m8.7.3l-2.5-.45h-.25m-27 .85l-5.85 1.2m11.85-1.45l-6 .25m8.3 1.6q-.2-1.45-2.3-1.85m13.3 1.45q-.4-1.55.4-1.8l1.35-.1m-6.15-2.6l1 3.7q.25 1.35.8 1.75l1.75 3q1.2 2.6 2.4 6.15.7 2.15-2.85 4.9l-.25.15-.8.55-.55.4m2.95-.2l-.3.25 1.1.05q1.75-.8 1.85-2.1.1-1.35-.4-1.95m-2.55 3.55l.3.2m-9.35-3.3l-.9 2.1q0 1 1.05 1.6l1.7.9M103 67.25q.05-.6 3.05-1.1l3.95-.55 1.75.25 1.05.2q.55.1 1.4-.4.85-.55.8-.4l1.35-.15 2.35.05q.85.1 2.15 1.2m-7.05 4.7l1.05-1.65m-5-.6l2.75-.4 2.95-.1m5.1 8.8v.75m-9.9-8.05q.5 0 1.45 1.25m-7.85 10.45h-.05m.05 0l-.05-.05m-23.85-20.2l-1.1-2.8q-.25-.75-.25-2.45l.25-4.5"/><path fill="none" stroke="#242424" stroke-width=".05" stroke-linecap="round" stroke-linejoin="round" d="M51-15.9l-1.85.7q-2 .9-2.3 1.5h-.25l-.2-2.9q-.7-3.05-3.3-4.35 2.65-2.05 7.2-3.8 7-2.65 12.7-1.35l-11.6-7.35q-8.85-5.4-12.7-7.3l1.3-1 4.75-.5q4.65 0 20.7 8.45v-2.7l-.6-2.3-.6-2.2v-1.95q2.5.75 4.85 3.85 2.35 3.55 3.6 4.8h.5l.15-3.5q.2-3.4.6-4.2l2.35-1.8 3.05-2.15h.25L81-39.6q.8 3.6 1.6 4.8l.5.25q-.05-3.75 4.5-6.8 3.75-2.55 6.15-2.6h2.5q-9.8 9.2-10.15 13.65v.5h1.2q.9-.5 4.2-.8l5.25-.7h2q-5.7 4.8-7.25 7.7-.95 1.75-.95 4.9 0 4.2.65 6.65.55 2.25 2.2 5.2l.5.15q3.75 1.3 3.1 4.95h2.5l12.6.7q5.6 1.6 11.2 8.75 4.4 5.55 6.55 10.15 2.65 5.55 2.9 11.3l-.05.9-.2 2.45-.55 5.35M71.3 37.8l-1.85-.55q-1.65-.7-1.75-3.85-.05-1.8.25-5.65 0-8 1.3-11.9 1.85-5.5 7.45-9.65l4.15-3q-1.35-.65-2.05-1.95-.6-1.05-.6-2 0-1.55 1.45-2.95-1.1-2.65-4.25-5.95-2.95-3.15-6.45-5.55l-2.4-1.6-.3-.2Q63-17 59.6-15.8q-6.8 2.35-7.45 8.35-.75 6.9-1.45-.1-.7-7.2.4-8.05m-.1-.3l.6-.2q1.75-1.3 2.85-1.65l4.95-.45 4.1.1q1.2.2 2.75 1.1M93.4-6.85l-5.1-.6q-2.7 0-6.15 1.95l-2.5 1.8M97-1.75l-8 .35q-2.55.7-8.15 4.6m49.1 38.6l-1.15-6.35-.7-5.65q-.75-4.8-1.9-4.8l-.7.5q-.7.5-1.45.5l-.45-3.8q-.45-2.5-1.5-3.9l-3.25 2q0-.75-1.1-2.25-1.3-1.75-2.75-1.75-1.1 0-1.85 1.6-.45.95-1.45 4.4l-2.95-.15q-1.35.4-2.55 2.35-.2-.75-1.75-1.4-2-.8-2.75-1.55-.65-.6-2.8-1.6-2.45-1.15-3.65-1.15l-1.75.25 2 2.5q1.7 2 1.75 2.5-3.8-1.2-7.7 1.45-3.65 2.55-5.95 7.45.75-.1 1.95.6 1.1.7 1.25 1.15-3.05 2.65-3.85 7.9l-.8 9.95v.05l-.05.2v-.25q.15-2-1.7-5.65-1.5-3-3.45-5.35l-.4-.45-.3-.85q-.8-1.35-2.45-1.95l-2.5-.5m59.2 10.25q.35-1.75-.4-5.4l-.15-.85m.6 6.25l-.05.25v-.25m.05 0l1.4-10.2"/><path fill="none" stroke="#31261A" stroke-width=".05" stroke-linecap="round" stroke-linejoin="round" d="M160.8 291.45q3.9-2 7.6-4.4l-22.55-81.55q-.7 1.25-3.05 2.8-4.65 3.1-12.7 4.7l-11.55 1.4 10.4 85.9m.25 1.25q17.35-2.9 31.45-10.05l.15-.05 13.8 46.05-9 2.35q1.9 6.35 2.85 11.5 1.8 9.95-1.5 14.45-1.4 1.95-5.7 3.4l4.75 40.75 2.9 12 3.8 4.8 7.2 6.25 7.2 5.25 16.35 7.2 2.4 2.4-.5 8.65-7.65 6.75-8.65 1.9-13.95-5.75-9.1-8.65-8.15-3.85-7.7-1.45-1.9-3.8-.5-15.85-14.85-29.75-8.65-12.5-2.05-13.2v-.15q-2.65-2.25-5.15-5.35-3.2-4.05-9.5-34.2l-5.5-27q-9 62.15-15.7 68.4-1.1 1.05-2.95 1.75l.05 5.45L72.9 416.2l-.5 12 1.95 22.55 8.15 13.9-1.95 7.2-6.2 9.15-13.95 3.35-15.35-.5-5.75-3.35-.5-8.15L46 459.4l3.85-11.05L49 444q-.7-5.9-.1-13.4t-3.5-28q-2.05-10.3-4.2-19.05l1.45-13.35.05-.15-1.95-1.4q-3.85-3.9-1.6-12.85 1.15-4.5 3.05-8.2l-8.2-.95v-.1q-.2-1.9 3.55-26.7l3.9-25.15-.1-.05-4.45-1.35-3.35-3.35-3.85-5.75 1.45-3.85 2.85 2.9 4.8 2.4 1.45-3.85-1.9-4.35-4.35-6.2 20.1-65.15q39.95 9.55 64.45 8.3l-.2-1.55M42.2 347.6h.3l38.55 4.25m.95-.45l4.9-48.5h-.05q-23.2-1.85-45.4-8.2m1.5 75.5l-.25-.15m40.7 3.75q-5.5 2.1-17.5 1.4-15.55-.9-22.95-5m80.35-67.8l4.8-.7.3-.05.25-.05h.25l.25-.05m.05 0h-.05M86.9 302.9l15.15.7h.05l21.2-1.2 9.5 46.15 32.8-8.7m-43.3 30.45l-.1-.1m.1.1q2.65 2.15 4.35 2.7l18.15-.9q10.7-1 16.45-2.9"/><path fill="none" stroke="#34281B" stroke-width=".05" stroke-linecap="round" stroke-linejoin="round" d="M72.25 299.35l12.5-84.6"/></svg>