<svg xmlns="http://www.w3.org/2000/svg" viewBox="0 0 190.6 233.3" width="190.6" height="233.3" preserveAspectRatio="xMinYMin"><defs><radialGradient gradientUnits="userSpaceOnUse" r="819.2" cx="0" cy="0" spreadMethod="pad" gradientTransform="matrix(.01 0 0 .01 66.8 108)" id="a"><stop offset=".322" stop-color="#787878"/><stop offset="1" stop-color="#aaa"/></radialGradient><radialGradient gradientUnits="userSpaceOnUse" r="819.2" cx="0" cy="0" spreadMethod="pad" gradientTransform="matrix(.008 0 0 .008 55.2 110)" id="b"><stop offset=".322" stop-color="#787878"/><stop offset="1" stop-color="#aaa"/></radialGradient><radialGradient gradientUnits="userSpaceOnUse" r="819.2" cx="0" cy="0" spreadMethod="pad" gradientTransform="matrix(.005 0 0 .005 151 107.2)" id="c"><stop offset=".322" stop-color="#787878"/><stop offset="1" stop-color="#aaa"/></radialGradient><radialGradient gradientUnits="userSpaceOnUse" r="819.2" cx="0" cy="0" spreadMethod="pad" gradientTransform="matrix(.008 0 0 .008 141.45 102.8)" id="d"><stop offset=".322" stop-color="#787878"/><stop offset="1" stop-color="#aaa"/></radialGradient><linearGradient gradientUnits="userSpaceOnUse" x1="-819.2" x2="819.2" gradientTransform="matrix(-.036 .014 -.014 -.036 41.05 102.1)" id="e"><stop offset=".024" stop-color="#8D9B56"/><stop offset=".271" stop-color="#8B9956"/><stop offset=".396" stop-color="#839157"/><stop offset=".408" stop-color="#829057"/><stop offset=".584" stop-color="#556137"/><stop offset=".725" stop-color="#354020"/></linearGradient><linearGradient gradientUnits="userSpaceOnUse" x1="-819.2" x2="819.2" gradientTransform="matrix(-.037 .004 -.004 -.037 38.85 94.2)" id="f"><stop offset=".024" stop-color="#8D9B56"/><stop offset=".153" stop-color="#8B9956"/><stop offset=".22" stop-color="#839157"/><stop offset=".224" stop-color="#829057"/><stop offset=".506" stop-color="#556137"/><stop offset=".725" stop-color="#354020"/></linearGradient><linearGradient gradientUnits="userSpaceOnUse" x1="-819.2" x2="819.2" gradientTransform="matrix(-.037 .004 -.004 -.037 38.5 91.25)" id="g"><stop offset=".024" stop-color="#8D9B56"/><stop offset=".125" stop-color="#8B9956"/><stop offset=".176" stop-color="#839157"/><stop offset=".18" stop-color="#829057"/><stop offset=".486" stop-color="#556137"/><stop offset=".725" stop-color="#354020"/></linearGradient><linearGradient gradientUnits="userSpaceOnUse" x1="-819.2" x2="819.2" gradientTransform="matrix(-.016 .002 -.002 -.016 19.75 123.1)" id="h"><stop offset=".024" stop-color="#8D9B56"/><stop offset=".271" stop-color="#8B9956"/><stop offset=".396" stop-color="#839157"/><stop offset=".408" stop-color="#829057"/><stop offset=".584" stop-color="#556137"/><stop offset=".725" stop-color="#354020"/></linearGradient><linearGradient gradientUnits="userSpaceOnUse" x1="-819.2" x2="819.2" gradientTransform="matrix(.031 .012 .012 -.031 156.85 98.5)" id="i"><stop offset=".024" stop-color="#8D9B56"/><stop offset=".271" stop-color="#8B9956"/><stop offset=".396" stop-color="#839157"/><stop offset=".408" stop-color="#829057"/><stop offset=".584" stop-color="#556137"/><stop offset=".725" stop-color="#354020"/></linearGradient><linearGradient gradientUnits="userSpaceOnUse" x1="-819.2" x2="819.2" gradientTransform="matrix(.032 .004 .004 -.032 158.75 91.75)" id="j"><stop offset=".024" stop-color="#8D9B56"/><stop offset=".153" stop-color="#8B9956"/><stop offset=".22" stop-color="#839157"/><stop offset=".224" stop-color="#829057"/><stop offset=".506" stop-color="#556137"/><stop offset=".725" stop-color="#354020"/></linearGradient><linearGradient gradientUnits="userSpaceOnUse" x1="-819.2" x2="819.2" gradientTransform="matrix(.032 .004 .004 -.032 159.05 89.2)" id="k"><stop offset=".024" stop-color="#8D9B56"/><stop offset=".125" stop-color="#8B9956"/><stop offset=".176" stop-color="#839157"/><stop offset=".18" stop-color="#829057"/><stop offset=".486" stop-color="#556137"/><stop offset=".725" stop-color="#354020"/></linearGradient><linearGradient gradientUnits="userSpaceOnUse" x1="-819.2" x2="819.2" gradientTransform="matrix(.014 .002 .002 -.014 175.2 116.6)" id="l"><stop offset=".024" stop-color="#8D9B56"/><stop offset=".271" stop-color="#8B9956"/><stop offset=".396" stop-color="#839157"/><stop offset=".408" stop-color="#829057"/><stop offset=".584" stop-color="#556137"/><stop offset=".725" stop-color="#354020"/></linearGradient><linearGradient gradientUnits="userSpaceOnUse" x1="-819.2" x2="819.2" gradientTransform="matrix(.013 -.009 -.009 -.016 102.2 209)" id="m"><stop offset="0" stop-color="#8D9B56"/><stop offset=".137" stop-color="#717D46"/><stop offset=".278" stop-color="#5A6639"/><stop offset=".412" stop-color="#4D5832"/><stop offset=".525" stop-color="#48532F"/><stop offset=".627" stop-color="#4D5832"/><stop offset=".753" stop-color="#5C683A"/><stop offset=".89" stop-color="#758248"/><stop offset="1" stop-color="#8D9B56"/></linearGradient><linearGradient gradientUnits="userSpaceOnUse" x1="-819.2" x2="819.2" gradientTransform="matrix(-.013 -.006 .006 -.016 127.75 206.1)" id="n"><stop offset="0" stop-color="#8D9B56"/><stop offset=".137" stop-color="#717D46"/><stop offset=".278" stop-color="#5A6639"/><stop offset=".412" stop-color="#4D5832"/><stop offset=".525" stop-color="#48532F"/><stop offset=".627" stop-color="#4D5832"/><stop offset=".753" stop-color="#5C683A"/><stop offset=".89" stop-color="#758248"/><stop offset="1" stop-color="#8D9B56"/></linearGradient><linearGradient gradientUnits="userSpaceOnUse" x1="-819.2" x2="819.2" gradientTransform="matrix(.015 -.011 -.01 -.018 88.5 190.3)" id="o"><stop offset="0" stop-color="#8D9B56"/><stop offset=".137" stop-color="#717D46"/><stop offset=".278" stop-color="#5A6639"/><stop offset=".412" stop-color="#4D5832"/><stop offset=".525" stop-color="#48532F"/><stop offset=".627" stop-color="#4D5832"/><stop offset=".753" stop-color="#5C683A"/><stop offset=".89" stop-color="#758248"/><stop offset="1" stop-color="#8D9B56"/></linearGradient><linearGradient gradientUnits="userSpaceOnUse" x1="-819.2" x2="819.2" gradientTransform="matrix(-.015 -.007 .006 -.018 132.85 185.6)" id="p"><stop offset="0" stop-color="#8D9B56"/><stop offset=".137" stop-color="#717D46"/><stop offset=".278" stop-color="#5A6639"/><stop offset=".412" stop-color="#4D5832"/><stop offset=".525" stop-color="#48532F"/><stop offset=".627" stop-color="#4D5832"/><stop offset=".753" stop-color="#5C683A"/><stop offset=".89" stop-color="#758248"/><stop offset="1" stop-color="#8D9B56"/></linearGradient><linearGradient gradientUnits="userSpaceOnUse" x1="-819.2" x2="819.2" gradientTransform="matrix(.016 -.01 -.009 -.019 77.55 172.75)" id="q"><stop offset="0" stop-color="#8D9B56"/><stop offset=".137" stop-color="#717D46"/><stop offset=".278" stop-color="#5A6639"/><stop offset=".412" stop-color="#4D5832"/><stop offset=".525" stop-color="#48532F"/><stop offset=".627" stop-color="#4D5832"/><stop offset=".753" stop-color="#5C683A"/><stop offset=".89" stop-color="#758248"/><stop offset="1" stop-color="#8D9B56"/></linearGradient><linearGradient gradientUnits="userSpaceOnUse" x1="-819.2" x2="819.2" gradientTransform="matrix(.018 -.007 -.005 -.02 95.6 164.55)" id="r"><stop offset="0" stop-color="#8D9B56"/><stop offset=".137" stop-color="#717D46"/><stop offset=".278" stop-color="#5A6639"/><stop offset=".412" stop-color="#4D5832"/><stop offset=".525" stop-color="#48532F"/><stop offset=".627" stop-color="#4D5832"/><stop offset=".753" stop-color="#5C683A"/><stop offset=".89" stop-color="#758248"/><stop offset="1" stop-color="#8D9B56"/></linearGradient><linearGradient gradientUnits="userSpaceOnUse" x1="-819.2" x2="819.2" gradientTransform="matrix(-.016 -.004 .002 -.019 138.25 162.9)" id="s"><stop offset="0" stop-color="#8D9B56"/><stop offset=".137" stop-color="#717D46"/><stop offset=".278" stop-color="#5A6639"/><stop offset=".412" stop-color="#4D5832"/><stop offset=".525" stop-color="#48532F"/><stop offset=".627" stop-color="#4D5832"/><stop offset=".753" stop-color="#5C683A"/><stop offset=".89" stop-color="#758248"/><stop offset="1" stop-color="#8D9B56"/></linearGradient><linearGradient gradientUnits="userSpaceOnUse" x1="-819.2" x2="819.2" gradientTransform="matrix(-.016 -.004 .002 -.019 131.3 160.3)" id="t"><stop offset="0" stop-color="#8D9B56"/><stop offset=".137" stop-color="#717D46"/><stop offset=".278" stop-color="#5A6639"/><stop offset=".412" stop-color="#4D5832"/><stop offset=".525" stop-color="#48532F"/><stop offset=".627" stop-color="#4D5832"/><stop offset=".753" stop-color="#5C683A"/><stop offset=".89" stop-color="#758248"/><stop offset="1" stop-color="#8D9B56"/></linearGradient><linearGradient gradientUnits="userSpaceOnUse" x1="-819.2" x2="819.2" gradientTransform="matrix(.023 -.003 0 -.023 115.65 203.9)" id="u"><stop offset="0" stop-color="#8D9B56"/><stop offset=".137" stop-color="#717D46"/><stop offset=".278" stop-color="#5A6639"/><stop offset=".412" stop-color="#4D5832"/><stop offset=".525" stop-color="#48532F"/><stop offset=".627" stop-color="#4D5832"/><stop offset=".753" stop-color="#5C683A"/><stop offset=".89" stop-color="#758248"/><stop offset="1" stop-color="#8D9B56"/></linearGradient><linearGradient gradientUnits="userSpaceOnUse" x1="-819.2" x2="819.2" gradientTransform="matrix(.019 0 .002 -.021 69.7 142.45)" id="v"><stop offset="0" stop-color="#8D9B56"/><stop offset=".137" stop-color="#717D46"/><stop offset=".278" stop-color="#5A6639"/><stop offset=".412" stop-color="#4D5832"/><stop offset=".525" stop-color="#48532F"/><stop offset=".627" stop-color="#4D5832"/><stop offset=".753" stop-color="#5C683A"/><stop offset=".89" stop-color="#758248"/><stop offset="1" stop-color="#8D9B56"/></linearGradient><linearGradient gradientUnits="userSpaceOnUse" x1="-819.2" x2="819.2" gradientTransform="matrix(.019 -.003 -.001 -.021 96.5 136.65)" id="w"><stop offset="0" stop-color="#8D9B56"/><stop offset=".137" stop-color="#717D46"/><stop offset=".278" stop-color="#5A6639"/><stop offset=".412" stop-color="#4D5832"/><stop offset=".525" stop-color="#48532F"/><stop offset=".627" stop-color="#4D5832"/><stop offset=".753" stop-color="#5C683A"/><stop offset=".89" stop-color="#758248"/><stop offset="1" stop-color="#8D9B56"/></linearGradient><linearGradient gradientUnits="userSpaceOnUse" x1="-819.2" x2="819.2" gradientTransform="matrix(-.016 -.004 .002 -.019 142.1 136.7)" id="x"><stop offset="0" stop-color="#8D9B56"/><stop offset=".137" stop-color="#717D46"/><stop offset=".278" stop-color="#5A6639"/><stop offset=".412" stop-color="#4D5832"/><stop offset=".525" stop-color="#48532F"/><stop offset=".627" stop-color="#4D5832"/><stop offset=".753" stop-color="#5C683A"/><stop offset=".89" stop-color="#758248"/><stop offset="1" stop-color="#8D9B56"/></linearGradient><linearGradient gradientUnits="userSpaceOnUse" x1="-819.2" x2="819.2" gradientTransform="matrix(-.017 -.001 -.001 -.019 129.55 133.4)" id="y"><stop offset="0" stop-color="#8D9B56"/><stop offset=".137" stop-color="#717D46"/><stop offset=".278" stop-color="#5A6639"/><stop offset=".412" stop-color="#4D5832"/><stop offset=".525" stop-color="#48532F"/><stop offset=".627" stop-color="#4D5832"/><stop offset=".753" stop-color="#5C683A"/><stop offset=".89" stop-color="#758248"/><stop offset="1" stop-color="#8D9B56"/></linearGradient><linearGradient gradientUnits="userSpaceOnUse" x1="-819.2" x2="819.2" gradientTransform="matrix(.023 -.003 0 -.023 116 173.95)" id="z"><stop offset="0" stop-color="#8D9B56"/><stop offset=".137" stop-color="#717D46"/><stop offset=".278" stop-color="#5A6639"/><stop offset=".412" stop-color="#4D5832"/><stop offset=".525" stop-color="#48532F"/><stop offset=".627" stop-color="#4D5832"/><stop offset=".753" stop-color="#5C683A"/><stop offset=".89" stop-color="#758248"/><stop offset="1" stop-color="#8D9B56"/></linearGradient><linearGradient gradientUnits="userSpaceOnUse" x1="-819.2" x2="819.2" gradientTransform="matrix(.023 -.003 0 -.023 117.3 136.65)" id="A"><stop offset="0" stop-color="#8D9B56"/><stop offset=".137" stop-color="#717D46"/><stop offset=".278" stop-color="#5A6639"/><stop offset=".412" stop-color="#4D5832"/><stop offset=".525" stop-color="#48532F"/><stop offset=".627" stop-color="#4D5832"/><stop offset=".753" stop-color="#5C683A"/><stop offset=".89" stop-color="#758248"/><stop offset="1" stop-color="#8D9B56"/></linearGradient><radialGradient gradientUnits="userSpaceOnUse" r="819.2" cx="0" cy="0" spreadMethod="pad" gradientTransform="matrix(.022 0 0 .022 62.9 114.4)" id="B"><stop offset=".322" stop-color="#787878"/><stop offset="1" stop-color="#aaa"/></radialGradient><radialGradient gradientUnits="userSpaceOnUse" r="819.2" cx="0" cy="0" spreadMethod="pad" gradientTransform="matrix(.02 0 0 .02 150.1 113.85)" id="C"><stop offset=".322" stop-color="#787878"/><stop offset="1" stop-color="#aaa"/></radialGradient></defs><path fill="url(#a)" d="M68.35 113q-.55-3.35-2.65-6.45-1.2-1.8-2.75-3.25l-1.3-1.1 1.2-1.2.1-.05 1.55 1.15q1.85 1.55 3.25 3.35l1.85 2.8q1.15 2.2 1.55 4.5l-1.55.15-1.25.1"/><path fill="#4F0E10" d="M68.35 113l1.25-.1 1.55-.15 16.6-2.05 17.1-2.25 20.25-1.65 4.85.1h.1l2.1.15 1.4.15 2.85.35 3.65.7 1.75.4.65.2 2.8.75 1.1.35.95.35q-4-.45-6.25 1.25l-1.05 1.2q-5.95-1.35-8.9-1.55l-10-.35-8 .35-5.05.5-3.2.35-.8.1-34.3 4.05-.15-.35q-1.2-2.6-5.35-2.55l4.1-.3m85.6 3.6q-.45-3.7-4.7-5.65l.65.25.8.35q2.1.9 3.6 1.8l.75 4q-.05-.3-1.1-.75m2.05 11.2q-.05 5.65-1.25 10.45-1.35 5.2-3.3 7.5l.05 1.45q.95 24.7-4.8 43.85l-.15.45q-3.7 12.35-10.45 22.55-3.45 5.2-6.15 7.9l-3.35 3.35q-4.9 4.55-8.95 6.4-4.85 2.2-8.9 1.35l-3.05-1.35q-19.15-9.1-40.2-38.7-7.45-10.6-12.75-20.35-4.75-8.8-4.15-10 1.4-2.8 3.5-24.6l.2-24.85 2.1.2 2.75.1 3.2-.05-1.95.8q-2.15 1.15-2.9 2.95-.95 2.05.05 4.65l-.9 15.85q-1.45 20.65-3.5 23.7l3.65 7.1q.6 2.1 17.35 26.7 16.7 24.55 37.45 35l3.2-.25q3.65-.5 5.9-1.7 2.45-1.3 6.6-5.65 6.05-6.3 10.95-14.8 14.65-25.3 14.1-60.6v-.45l2.25-5.55q2.4-6.9 3.4-13.4"/><path fill="#354020" d="M156 127.8q-1 6.5-3.4 13.4l-2.25 5.55v.45q.55 35.3-14.1 60.6-4.9 8.5-10.95 14.8-4.15 4.35-6.6 5.65-2.25 1.2-5.9 1.7l-3.2.25q-20.75-10.45-37.45-35-16.75-24.6-17.35-26.7l-3.65-7.1q2.05-3.05 3.5-23.7l.9-15.85q.95 2.6 3.85 5.75l5.15 4.8 2.8-4.8 2.1-5.4.15-.55q.9-3.45.15-5.45l34.3-4.05.8-.1 3.2-.35 5.05-.5 8-.35 10 .35q2.95.2 8.9 1.55-2.65 4.6 7.6 17 3.6-3.7 5.35-7.95 1.25-2.95 1-5.2 1.05.45 1.1.75.9 5.45.95 10.25v.2"/><path fill="url(#b)" d="M54.4 113.4l.05-2 1.6-6.15.15-.05.95-.3.1-.05 1.35-.6-1.45 5.75q-.2 1.85 0 3.5l-2.75-.1"/><path fill="url(#c)" d="M149.25 110.95l-.55-.25q2.05-1.7 2.05-4.4l-.4-2.7 1.65.05.5 3.55q.05 1.35-.5 2.6l-.95 1.4-.35.35-.8-.35-.65-.25"/><path fill="url(#d)" d="M140.05 108.25l-.1-.2q-.85-2.05-.35-4.55.5-2.2 1.65-3.75l2.1 1.25-.6 1.05q-.55 1.1-.8 2.35-.5 2.5.5 4.45l-.65-.2-1.75-.4"/><path fill="url(#e)" d="M76.25 82.05q-1.8 6.95-6.85 12.8-4.15 4.8-9.6 7.75-11.7 6.4-25.3 11.25l-2 .75-.6.15-22.65.7-3.3-.55q-2.1-.55-3.95-1.6l4.6-2.9 20.85-11.65L54.2 87.6l22.05-5.55"/><path fill="url(#f)" d="M76.25 82.05L54.2 87.6 27.45 98.75 6.6 110.4 1.85 113l4.95-5.3q8.9-8.65 18.9-15.75 10.15-7.15 21.65-12.3l3.35-1.4 25.55 3.8"/><path fill="url(#g)" d="M76.25 82.05l-25.55-3.8-3.35 1.4q-11.5 5.15-21.65 12.3-10 7.1-18.9 15.75l-5 5.05q.45-2.05 1.45-3.95Q7.3 101 12.1 93.65q3.75-5.75 9.65-8.8Q34.6 78.2 48.4 74.1q6-1.75 12.25.4 8.3 2.85 15.6 7.55"/><path fill="url(#h)" d="M34.5 113.85l1.7 4.8q3.5 10.4-5.7 15.65-5.85 3.35-11.6 1.5-4.5-1.5-8.3-4.4l-7.55-5.85 2.9-10.65 3.3.55 22.65-.7.6-.15 2-.75"/><path fill="url(#i)" d="M186.5 105.65l-17.95-10-23.05-9.6-18.95-4.75q1.55 5.95 5.85 10.95 3.6 4.15 8.3 6.7 10.05 5.55 21.75 9.7l1.75.65.5.15 19.55.6 2.8-.5q1.8-.5 3.4-1.4l-3.95-2.5"/><path fill="url(#j)" d="M186.5 105.65l4.1 2.3-4.25-4.6q-7.7-7.45-16.3-13.55-8.75-6.15-18.65-10.6l-2.85-1.2-22 3.3 18.95 4.75 23.05 9.6 17.95 10"/><path fill="url(#k)" d="M126.55 81.3l22-3.3 2.85 1.2q9.9 4.45 18.65 10.6 8.6 6.1 16.3 13.55l4.25 4.35q-.35-1.8-1.2-3.4-3.5-6.7-7.65-13.05-3.2-4.95-8.3-7.55-11.05-5.75-22.95-9.3-5.15-1.5-10.55.35-7.15 2.45-13.4 6.55"/><path fill="url(#l)" d="M187.05 109.55l-2.8.5-19.55-.6-.5-.15-1.75-.65-1.4 4.15q-3.05 8.95 4.85 13.45 5.05 2.9 10.05 1.3 3.85-1.3 7.1-3.8l6.5-5-2.5-9.2"/><path fill="url(#m)" d="M84.85 197.95l.3-.55q1.35-2.1 3-3.8 1.65-1.75 3.55-3.1l1.4-.9q1.65-1 3.45-1.65 1.75-.75 3.7-1.1l2.95-.3q1.7.05 2.2.95 4.55 8.15 6.55 21l.55 4.05q.65 5.7.65 10.35 0 4.25-.55 4.65-.65.4-3.75-.95-3.55-1.5-7.6-4.35l-4.6-3.5-1.35-1.25q-7.2-6.4-11.85-14.75-.75-1.35 1.4-4.8"/><path fill="url(#n)" d="M141.65 193.85l-.4-.45q-1.5-1.7-3.2-3-1.7-1.3-3.6-2.2l-1.35-.6-3.3-1-3.45-.45-2.65.1q-1.55.35-1.85 1.2-2.9 7.9-2.85 19.65l.05 3.6q.2 5.2.95 9.3.6 3.85 1.15 4.1.6.3 3.15-1.4 3-1.85 6.15-4.95l3.6-3.8 1.05-1.2q5.45-6.7 8.45-14.8.5-1.35-1.9-4.1"/><path fill="url(#o)" d="M68.7 177.7l.4-.6q1.5-2.35 3.4-4.35 1.9-1.95 4.05-3.45l1.55-1.1q1.95-1.1 4-1.9 2-.8 4.25-1.25l3.35-.35q1.9.1 2.45 1.1 5.2 9.3 7.55 23.95l.6 4.55q.75 6.55.7 11.85 0 4.9-.65 5.35-.7.5-4.2-1.1-4.1-1.75-8.7-5l-5.2-4-1.6-1.35q-8.2-7.3-13.55-16.85-.85-1.55 1.6-5.5"/><path fill="url(#p)" d="M148.5 171.7l-.45-.45q-1.65-1.85-3.6-3.3-1.9-1.55-4.05-2.55-.75-.4-1.5-.7l-3.75-1.1-3.9-.5-3 .15q-1.7.3-2.05 1.25-3.3 8.9-3.2 22.15l.05 4.1q.25 5.9 1.05 10.5.65 4.3 1.3 4.6.65.3 3.6-1.6 3.3-2.1 6.9-5.55l4.05-4.25 1.15-1.4q6.2-7.55 9.55-16.7.55-1.45-2.15-4.65"/><path fill="url(#q)" d="M58.65 159.15l.45-.6q1.7-2.25 3.8-4.15 2-1.85 4.35-3.25l1.75-.9q1.95-1.05 4.1-1.7l4.4-1 3.4-.15q2 .15 2.45 1.15 4.5 9.55 5.6 24.25l.2 4.55q.2 6.55-.3 11.75-.4 4.9-1.1 5.3-.75.45-4.2-1.3-3.9-2-8.35-5.4l-4.95-4.25L68.8 182q-7.65-7.75-12.25-17.5-.75-1.55 2.1-5.35"/><path fill="url(#r)" d="M79.35 147.85l.5-.45q2.15-1.95 4.5-3.4 2.3-1.5 4.85-2.45l1.85-.65 4.4-.95 4.45-.2 3.45.4q1.9.55 2.15 1.6 2.75 10.15 1.2 24.85l-.5 4.55q-1 6.5-2.35 11.5-1.3 4.7-2.05 5-.8.3-3.85-2-3.55-2.65-7.25-6.8l-4.15-5.05-1.15-1.65q-6.2-8.95-9.05-19.35-.45-1.65 3-4.95"/><path fill="url(#s)" d="M150.25 145.8l-.55-.35q-2.05-1.5-4.3-2.45-2.15-.95-4.5-1.45l-1.65-.35-3.9-.2-3.9.4q-1.75.4-2.85.9-1.6.7-1.75 1.7-1.1 9.4 2.05 22.25l1.05 3.95q1.65 5.65 3.45 9.95 1.7 4 2.35 4.15.75.15 3.1-2.35 2.75-2.8 5.45-7l2.9-5.05.8-1.7q4.3-8.75 5.4-18.4.2-1.6-3.15-4"/><path fill="url(#t)" d="M143.3 143.2l-.55-.35q-2.05-1.5-4.3-2.45-2.15-.95-4.5-1.45l-1.65-.35-3.9-.2-3.9.4q-1.75.4-2.85.9-1.6.7-1.75 1.7-1.1 9.4 2.05 22.25l1.05 3.95q1.65 5.65 3.45 9.95 1.7 4 2.35 4.15.75.15 3.1-2.35 2.75-2.8 5.45-7l2.9-5.05.8-1.7q4.3-8.75 5.4-18.4.2-1.6-3.15-4"/><path fill="url(#u)" d="M101.45 181.8l.8-.4q3.1-1.5 6.4-2.45 3.2-.95 6.55-1.3l2.35-.2 5.5.15 5.4.9q2.4.7 3.9 1.35 2.15 1.1 2.15 2.35.15 11.55-6.2 26.85l-2.05 4.75q-3.15 6.7-6.35 11.75-3 4.65-3.95 4.75-1.05.15-4.05-3.15-3.4-3.7-6.55-9.15-1.85-3.2-3.3-6.55l-.9-2.05q-4.6-11.2-4.75-23.05 0-1.95 5.05-4.55"/><path fill="url(#v)" d="M59.85 121.4l.7-.3q2.65-1.15 5.35-1.75l5.35-.65h1.95l4.45.55q2.2.4 4.3 1.25 1.9.8 3.05 1.55 1.65 1.1 1.6 2.25-.8 10.45-7.05 23.8l-2.05 4.05q-3 5.8-5.95 10.1-2.8 4-3.6 4.05-.85 0-3-3.2-2.5-3.65-4.6-8.75-1.3-3.05-2.25-6.2l-.55-1.9q-2.9-10.45-2.1-21.15.1-1.75 4.4-3.7"/><path fill="url(#w)" d="M84.05 117l.65-.35q2.45-1.45 5.05-2.4 2.55-.95 5.25-1.4l1.95-.25q2.25-.15 4.45 0l4.45.7 3.25 1.15q1.75.9 1.8 2 .6 10.45-3.95 24.5l-1.45 4.35q-2.25 6.1-4.65 10.75-2.25 4.3-3.05 4.45-.85.1-3.4-2.75-2.9-3.35-5.65-8.1l-3-5.85-.8-1.85q-4.2-10-4.8-20.75-.1-1.75 3.9-4.2"/><path fill="url(#x)" d="M154.1 119.6l-.55-.35q-2.05-1.5-4.3-2.45-2.15-.95-4.5-1.45l-1.65-.35-3.9-.2-3.9.4q-1.75.4-2.85.9-1.6.7-1.75 1.7-1.1 9.4 2.05 22.25l1.05 3.95q1.65 5.65 3.45 9.95 1.7 4 2.35 4.15.75.15 3.1-2.35 2.75-2.8 5.45-7l2.9-5.05.8-1.7q4.3-8.75 5.4-18.4.2-1.6-3.15-4"/><path fill="url(#y)" d="M138.35 114.5l-.6-.25q-2.3-1.1-4.6-1.65l-4.7-.65-1.7-.05-3.85.45q-1.95.4-3.8 1.1-1.65.7-2.65 1.35-1.45 1-1.4 2 .55 9.45 5.85 21.5l1.75 3.8q2.6 5.2 5.1 9.15 2.35 3.65 3.05 3.65.75.05 2.65-2.8 2.2-3.25 4.1-7.9l2.05-5.5.5-1.7q2.65-9.45 2.05-19.15-.05-1.55-3.8-3.35"/><path fill="url(#z)" d="M101.8 151.85l.8-.4q3.1-1.5 6.4-2.45 3.2-.95 6.55-1.3l2.35-.2 5.5.15 5.4.9 3.9 1.35q2.15 1.1 2.15 2.35.15 11.55-6.2 26.85l-2.05 4.75q-3.15 6.7-6.35 11.75-3 4.65-3.95 4.75-1.05.15-4.05-3.15-3.4-3.7-6.55-9.15-1.85-3.2-3.3-6.55l-.9-2.05q-4.6-11.2-4.75-23.05 0-1.95 5.05-4.55"/><path fill="url(#A)" d="M124.7 110.35l5.4.9q2.45.7 3.9 1.35 2.15 1.1 2.15 2.35.15 11.55-6.2 26.85l-2.05 4.75q-3.15 6.7-6.35 11.75-3 4.65-3.95 4.75-1.05.15-4-3.15-3.45-3.7-6.55-9.15-1.9-3.2-3.35-6.55l-.9-2.05q-4.6-11.2-4.75-23.05 0-1.95 5.05-4.55l.8-.4q3.15-1.5 6.4-2.45 3.25-.95 6.55-1.3l2.4-.2 5.45.15"/><path fill="url(#B)" d="M69.6 115.85l.15.35q.75 2-.15 5.45l-.15.55-2.1 5.4-2.8 4.8-5.15-4.8q-2.9-3.15-3.85-5.75-1-2.6-.05-4.65.75-1.8 2.9-2.95l1.95-.8h.3l1.65-.05h.75l1.2-.1q4.15-.05 5.35 2.55"/><path fill="url(#C)" d="M147.3 110.3h.35l.9.35.15.05.55.25q4.25 1.95 4.7 5.65.25 2.25-1 5.2-1.75 4.25-5.35 7.95-10.25-12.4-7.6-17l1.05-1.2q2.25-1.7 6.25-1.25"/><path fill="none" stroke="#333" stroke-width=".05" stroke-linecap="round" stroke-linejoin="round" d="M68.35 113q-.55-3.35-2.65-6.45-1.2-1.8-2.75-3.25l-1.3-1.1 1.2-1.2.1-.05 1.55 1.15q1.85 1.55 3.25 3.35l1.85 2.8q1.15 2.2 1.55 4.5l16.6-2.05 17.1-2.25 20.25-1.65 4.85.1h.1l2.1.15 1.4.15 2.85.35 3.65.7-.1-.2q-.85-2.05-.35-4.55.5-2.2 1.65-3.75l2.1 1.25-.6 1.05q-.55 1.1-.8 2.35-.5 2.5.5 4.45l2.8.75 1.1.35.95.35m1.4.4q2.05-1.7 2.05-4.4l-.4-2.7 1.65.05.5 3.55q.05 1.35-.5 2.6l-.95 1.4-.35.35q2.1.9 3.6 1.8l.75 4q.9 5.45.95 10.25v.2q-.05 5.65-1.25 10.45-1.35 5.2-3.3 7.5l.05 1.45q.95 24.7-4.8 43.85l-.15.45q-3.7 12.35-10.45 22.55-3.45 5.2-6.15 7.9l-3.35 3.35q-4.9 4.55-8.95 6.4-4.85 2.2-8.9 1.35l-3.05-1.35q-19.15-9.1-40.2-38.7-7.45-10.6-12.75-20.35-4.75-8.8-4.15-10 1.4-2.8 3.5-24.6l.2-24.85 2.1.2.05-2 1.6-6.15.15-.05.95-.3.1-.05 1.35-.6-1.45 5.75q-.2 1.85 0 3.5l3.2-.05m3.9-.15l4.1-.3 1.25-.1 1.55-.15m-14 .75l-2.75-.1m1.15 8.45l-.9 15.85q-1.45 20.65-3.5 23.7l3.65 7.1q.6 2.1 17.35 26.7 16.7 24.55 37.45 35l3.2-.25q3.65-.5 5.9-1.7 2.45-1.3 6.6-5.65 6.05-6.3 10.95-14.8 14.65-25.3 14.1-60.6v-.45l2.25-5.55q2.4-6.9 3.4-13.4m-13.55-18.95l-.65-.2-1.75-.4m10.65 3.3l-.8-.35-.65-.25m4.7 5.65q1.05.45 1.1.75m-85.3-1.15l34.3-4.05.8-.1 3.2-.35 5.05-.5 8-.35 10 .35q2.95.2 8.9 1.55"/><path fill="none" stroke="#48532F" stroke-linecap="round" d="M76.25 82.05q-7.3-4.7-15.6-7.55-6.25-2.15-12.25-.4-13.8 4.1-26.65 10.75-5.9 3.05-9.65 8.8Q7.3 101 3.25 108.8q-1 1.9-1.45 3.95l5-5.05q8.9-8.65 18.9-15.75 10.15-7.15 21.65-12.3l3.35-1.4 25.55 3.8q-1.8 6.95-6.85 12.8-4.15 4.8-9.6 7.75-11.7 6.4-25.3 11.25l1.7 4.8q3.5 10.4-5.7 15.65-5.85 3.35-11.6 1.5-4.5-1.5-8.3-4.4l-7.55-5.85 2.9-10.65q-2.1-.55-3.95-1.6l4.6-2.9-4.75 2.6 4.95-5.3m69.45-25.65L54.2 87.6 27.45 98.75 6.6 110.4m-.65 4.5l3.3.55 22.65-.7.6-.15 2-.75M126.55 81.3l18.95 4.75 23.05 9.6 17.95 10 3.95 2.5q-1.6.9-3.4 1.4l-2.8.5-19.55-.6-.5-.15-1.75-.65q-11.7-4.15-21.75-9.7-4.7-2.55-8.3-6.7-4.3-5-5.85-10.95l22-3.3 2.85 1.2q9.9 4.45 18.65 10.6 8.6 6.1 16.3 13.55l4.25 4.6-4.1-2.3M126.55 81.3q6.25-4.1 13.4-6.55 5.4-1.85 10.55-.35 11.9 3.55 22.95 9.3 5.1 2.6 8.3 7.55 4.15 6.35 7.65 13.05.85 1.6 1.2 3.4l-4.25-4.35m-23.9 5.3l-1.4 4.15q-3.05 8.95 4.85 13.45 5.05 2.9 10.05 1.3 3.85-1.3 7.1-3.8l6.5-5-2.5-9.2"/><path fill="none" stroke="#354020" d="M84.85 197.95q-2.15 3.45-1.4 4.8 4.65 8.35 11.85 14.75l1.35 1.25 4.6 3.5q4.05 2.85 7.6 4.35 3.1 1.35 3.75.95.55-.4.55-4.65 0-4.65-.65-10.35l-.55-4.05q-2-12.85-6.55-21-.5-.9-2.2-.95l-2.95.3q-1.95.35-3.7 1.1-1.8.65-3.45 1.65l-1.4.9q-1.9 1.35-3.55 3.1-1.65 1.7-3 3.8l-.3.55M141.65 193.85q2.4 2.75 1.9 4.1-3 8.1-8.45 14.8l-1.05 1.2-3.6 3.8q-3.15 3.1-6.15 4.95-2.55 1.7-3.15 1.4-.55-.25-1.15-4.1-.75-4.1-.95-9.3l-.05-3.6q-.05-11.75 2.85-19.65.3-.85 1.85-1.2l2.65-.1 3.45.45 3.3 1 1.35.6q1.9.9 3.6 2.2 1.7 1.3 3.2 3l.4.45M68.7 177.7q-2.45 3.95-1.6 5.5 5.35 9.55 13.55 16.85l1.6 1.35 5.2 4q4.6 3.25 8.7 5 3.5 1.6 4.2 1.1.65-.45.65-5.35.05-5.3-.7-11.85l-.6-4.55q-2.35-14.65-7.55-23.95-.55-1-2.45-1.1l-3.35.35q-2.25.45-4.25 1.25-2.05.8-4 1.9l-1.55 1.1q-2.15 1.5-4.05 3.45-1.9 2-3.4 4.35l-.4.6M148.5 171.7q2.7 3.2 2.15 4.65-3.35 9.15-9.55 16.7l-1.15 1.4-4.05 4.25q-3.6 3.45-6.9 5.55-2.95 1.9-3.6 1.6-.65-.3-1.3-4.6-.8-4.6-1.05-10.5l-.05-4.1q-.1-13.25 3.2-22.15.35-.95 2.05-1.25l3-.15 3.9.5 3.75 1.1q.75.3 1.5.7 2.15 1 4.05 2.55 1.95 1.45 3.6 3.3l.45.45M58.65 159.15q-2.85 3.8-2.1 5.35 4.6 9.75 12.25 17.5l1.45 1.45 4.95 4.25q4.45 3.4 8.35 5.4 3.45 1.75 4.2 1.3.7-.4 1.1-5.3.5-5.2.3-11.75l-.2-4.55q-1.1-14.7-5.6-24.25-.45-1-2.45-1.15l-3.4.15-4.4 1q-2.15.65-4.1 1.7l-1.75.9q-2.35 1.4-4.35 3.25-2.1 1.9-3.8 4.15l-.45.6M79.35 147.85q-3.45 3.3-3 4.95 2.85 10.4 9.05 19.35l1.15 1.65 4.15 5.05q3.7 4.15 7.25 6.8 3.05 2.3 3.85 2 .75-.3 2.05-5 1.35-5 2.35-11.5l.5-4.55q1.55-14.7-1.2-24.85-.25-1.05-2.15-1.6l-3.45-.4-4.45.2-4.4.95-1.85.65q-2.55.95-4.85 2.45-2.35 1.45-4.5 3.4l-.5.45M150.25 145.8q3.35 2.4 3.15 4-1.1 9.65-5.4 18.4l-.8 1.7-2.9 5.05q-2.7 4.2-5.45 7-2.35 2.5-3.1 2.35-.65-.15-2.35-4.15-1.8-4.3-3.45-9.95l-1.05-3.95q-3.15-12.85-2.05-22.25.15-1 1.75-1.7 1.1-.5 2.85-.9l3.9-.4 3.9.2 1.65.35q2.35.5 4.5 1.45 2.25.95 4.3 2.45l.55.35M143.3 143.2q3.35 2.4 3.15 4-1.1 9.65-5.4 18.4l-.8 1.7-2.9 5.05q-2.7 4.2-5.45 7-2.35 2.5-3.1 2.35-.65-.15-2.35-4.15-1.8-4.3-3.45-9.95l-1.05-3.95q-3.15-12.85-2.05-22.25.15-1 1.75-1.7 1.1-.5 2.85-.9l3.9-.4 3.9.2 1.65.35q2.35.5 4.5 1.45 2.25.95 4.3 2.45l.55.35M101.45 181.8q-5.05 2.6-5.05 4.55.15 11.85 4.75 23.05l.9 2.05q1.45 3.35 3.3 6.55 3.15 5.45 6.55 9.15 3 3.3 4.05 3.15.95-.1 3.95-4.75 3.2-5.05 6.35-11.75l2.05-4.75q6.35-15.3 6.2-26.85 0-1.25-2.15-2.35-1.5-.65-3.9-1.35l-5.4-.9-5.5-.15-2.35.2q-3.35.35-6.55 1.3-3.3.95-6.4 2.45l-.8.4M59.85 121.4q-4.3 1.95-4.4 3.7-.8 10.7 2.1 21.15l.55 1.9q.95 3.15 2.25 6.2 2.1 5.1 4.6 8.75 2.15 3.2 3 3.2.8-.05 3.6-4.05 2.95-4.3 5.95-10.1l2.05-4.05q6.25-13.35 7.05-23.8.05-1.15-1.6-2.25-1.15-.75-3.05-1.55-2.1-.85-4.3-1.25l-4.45-.55h-1.95l-5.35.65q-2.7.6-5.35 1.75l-.7.3M84.05 117q-4 2.45-3.9 4.2.6 10.75 4.8 20.75l.8 1.85 3 5.85q2.75 4.75 5.65 8.1 2.55 2.85 3.4 2.75.8-.15 3.05-4.45 2.4-4.65 4.65-10.75l1.45-4.35q4.55-14.05 3.95-24.5-.05-1.1-1.8-2l-3.25-1.15-4.45-.7q-2.2-.15-4.45 0l-1.95.25q-2.7.45-5.25 1.4-2.6.95-5.05 2.4l-.65.35M154.1 119.6q3.35 2.4 3.15 4-1.1 9.65-5.4 18.4l-.8 1.7-2.9 5.05q-2.7 4.2-5.45 7-2.35 2.5-3.1 2.35-.65-.15-2.35-4.15-1.8-4.3-3.45-9.95l-1.05-3.95q-3.15-12.85-2.05-22.25.15-1 1.75-1.7 1.1-.5 2.85-.9l3.9-.4 3.9.2 1.65.35q2.35.5 4.5 1.45 2.25.95 4.3 2.45l.55.35M138.35 114.5q3.75 1.8 3.8 3.35.6 9.7-2.05 19.15l-.5 1.7-2.05 5.5q-1.9 4.65-4.1 7.9-1.9 2.85-2.65 2.8-.7 0-3.05-3.65-2.5-3.95-5.1-9.15l-1.75-3.8q-5.3-12.05-5.85-21.5-.05-1 1.4-2 1-.65 2.65-1.35 1.85-.7 3.8-1.1l3.85-.45 1.7.05 4.7.65q2.3.55 4.6 1.65l.6.25M101.8 151.85q-5.05 2.6-5.05 4.55.15 11.85 4.75 23.05l.9 2.05q1.45 3.35 3.3 6.55 3.15 5.45 6.55 9.15 3 3.3 4.05 3.15.95-.1 3.95-4.75 3.2-5.05 6.35-11.75l2.05-4.75q6.35-15.3 6.2-26.85 0-1.25-2.15-2.35l-3.9-1.35-5.4-.9-5.5-.15-2.35.2q-3.35.35-6.55 1.3-3.3.95-6.4 2.45l-.8.4M124.7 110.35l-5.45-.15-2.4.2q-3.3.35-6.55 1.3-3.25.95-6.4 2.45l-.8.4q-5.05 2.6-5.05 4.55.15 11.85 4.75 23.05l.9 2.05q1.45 3.35 3.35 6.55 3.1 5.45 6.55 9.15 2.95 3.3 4 3.15.95-.1 3.95-4.75 3.2-5.05 6.35-11.75l2.05-4.75q6.35-15.3 6.2-26.85 0-1.25-2.15-2.35-1.45-.65-3.9-1.35l-5.4-.9"/><path fill="none" stroke="#333" stroke-width=".05" stroke-linecap="round" stroke-linejoin="round" d="M69.6 115.85q-1.2-2.6-5.35-2.55l-1.2.1h-.75l-1.65.05h-.3l-1.95.8q-2.15 1.15-2.9 2.95-.95 2.05.05 4.65.95 2.6 3.85 5.75l5.15 4.8 2.8-4.8 2.1-5.4.15-.55q.9-3.45.15-5.45l-.15-.35M147.3 110.3q-4-.45-6.25 1.25l-1.05 1.2q-2.65 4.6 7.6 17 3.6-3.7 5.35-7.95 1.25-2.95 1-5.2-.45-3.7-4.7-5.65l-.55-.25-.15-.05-.9-.35h-.35"/></svg>