<svg xmlns="http://www.w3.org/2000/svg" viewBox="-24.9 2.7 261.1 493.2" width="261.1" height="493.2" preserveAspectRatio="xMinYMin"><defs><radialGradient gradientUnits="userSpaceOnUse" r="819.2" cx="0" cy="0" spreadMethod="repeat" gradientTransform="matrix(.162 0 0 .162 157.8 169.05)" id="a"><stop offset="0" stop-color="#69c"/><stop offset=".929" stop-color="#600"/></radialGradient><linearGradient gradientUnits="userSpaceOnUse" x1="-819.2" x2="819.2" gradientTransform="matrix(-.037 0 0 -.043 101.05 50.55)" id="b"><stop offset="0" stop-color="#E9BC9E"/><stop offset=".533" stop-color="#F9EAE3"/><stop offset="1" stop-color="#EBC0A5"/></linearGradient><radialGradient gradientUnits="userSpaceOnUse" r="819.2" cx="0" cy="0" spreadMethod="pad" gradientTransform="matrix(.161 0 0 .161 107.4 12.25)" id="c"><stop offset=".318" stop-color="#fff"/><stop offset=".694" stop-color="#C0C0C0"/><stop offset=".788" stop-color="#9D9D9D"/><stop offset="1"/></radialGradient><radialGradient gradientUnits="userSpaceOnUse" r="819.2" cx="0" cy="0" spreadMethod="pad" gradientTransform="matrix(.223 0 0 .223 101.8 -38.95)" id="d"><stop offset=".318" stop-color="#fff"/><stop offset=".694" stop-color="#C0C0C0"/><stop offset=".788" stop-color="#9D9D9D"/><stop offset="1"/></radialGradient><radialGradient gradientUnits="userSpaceOnUse" r="819.2" cx="0" cy="0" spreadMethod="pad" gradientTransform="matrix(.148 0 0 .148 139.2 77.65)" id="e"><stop offset=".318" stop-color="#fff"/><stop offset=".694" stop-color="#C0C0C0"/><stop offset=".788" stop-color="#9D9D9D"/><stop offset="1"/></radialGradient><linearGradient gradientUnits="userSpaceOnUse" x1="-819.2" x2="819.2" gradientTransform="matrix(-.031 0 0 -.036 103.75 90.45)" id="f"><stop offset="0" stop-color="#E9BC9E"/><stop offset=".533" stop-color="#F9EAE3"/><stop offset="1" stop-color="#EBC0A5"/></linearGradient><radialGradient gradientUnits="userSpaceOnUse" r="819.2" cx="0" cy="0" spreadMethod="pad" gradientTransform="matrix(.163 0 0 .163 102.2 11.7)" id="g"><stop offset=".318" stop-color="#fff"/><stop offset=".694" stop-color="#C0C0C0"/><stop offset=".788" stop-color="#9D9D9D"/><stop offset="1"/></radialGradient><radialGradient gradientUnits="userSpaceOnUse" r="819.2" cx="0" cy="0" spreadMethod="repeat" gradientTransform="matrix(.255 0 0 .255 118.95 102.9)" id="h"><stop offset="0" stop-color="#69c"/><stop offset=".929" stop-color="#600"/></radialGradient><radialGradient gradientUnits="userSpaceOnUse" r="819.2" cx="0" cy="0" spreadMethod="repeat" gradientTransform="matrix(.196 0 0 .196 107.3 196.45)" id="i"><stop offset="0" stop-color="#69c"/><stop offset=".929" stop-color="#600"/></radialGradient><radialGradient gradientUnits="userSpaceOnUse" r="819.2" cx="0" cy="0" spreadMethod="pad" gradientTransform="matrix(.173 0 0 .173 111.85 .55)" id="j"><stop offset=".318" stop-color="#fff"/><stop offset=".694" stop-color="#C0C0C0"/><stop offset=".788" stop-color="#9D9D9D"/><stop offset="1"/></radialGradient><radialGradient gradientUnits="userSpaceOnUse" r="819.2" cx="0" cy="0" spreadMethod="pad" gradientTransform="matrix(.054 0 0 .054 93 208.25)" id="k"><stop offset=".055" stop-color="#fc0"/><stop offset="1"/></radialGradient><linearGradient gradientUnits="userSpaceOnUse" x1="-819.2" x2="819.2" gradientTransform="matrix(.035 0 0 .014 112.5 189.65)" id="l"><stop offset="0" stop-color="#39f"/><stop offset="1" stop-color="#4D4DC0"/></linearGradient><radialGradient gradientUnits="userSpaceOnUse" r="819.2" cx="0" cy="0" spreadMethod="pad" gradientTransform="matrix(.047 0 0 .047 138.6 205.05)" id="m"><stop offset=".055" stop-color="#fc0"/><stop offset="1"/></radialGradient><radialGradient gradientUnits="userSpaceOnUse" r="819.2" cx="0" cy="0" spreadMethod="pad" gradientTransform="matrix(.026 0 0 .026 121 219.45)" id="n"><stop offset="0" stop-color="#fff"/><stop offset=".588" stop-color="#03f"/><stop offset="1"/></radialGradient><radialGradient gradientUnits="userSpaceOnUse" r="819.2" cx="0" cy="0" fx="307.2" fy="0" spreadMethod="pad" gradientTransform="matrix(.054 0 0 .054 110.6 203.45)" id="o"><stop offset=".016" stop-color="#f00"/><stop offset=".906" stop-color="#900"/><stop offset="1"/></radialGradient><linearGradient gradientUnits="userSpaceOnUse" x1="-819.2" x2="819.2" gradientTransform="matrix(.073 0 0 .046 98.25 265.25)" id="p"><stop offset="0" stop-color="#39f"/><stop offset="1" stop-color="#4D4DC0"/></linearGradient><linearGradient gradientUnits="userSpaceOnUse" x1="-819.2" x2="819.2" gradientTransform="matrix(.075 0 0 .04 100.65 298.55)" id="q"><stop offset="0" stop-color="#39f"/><stop offset="1" stop-color="#4D4DC0"/></linearGradient><linearGradient gradientUnits="userSpaceOnUse" x1="-819.2" x2="819.2" gradientTransform="matrix(.078 0 0 .045 104.65 323.2)" id="r"><stop offset="0" stop-color="#39f"/><stop offset="1" stop-color="#4D4DC0"/></linearGradient><linearGradient gradientUnits="userSpaceOnUse" x1="-819.2" x2="819.2" gradientTransform="matrix(.025 0 0 .023 20.45 278.45)" id="s"><stop offset="0" stop-color="#E9BC9E"/><stop offset=".533" stop-color="#F9EAE3"/><stop offset="1" stop-color="#EBC0A5"/></linearGradient><radialGradient gradientUnits="userSpaceOnUse" r="819.2" cx="0" cy="0" spreadMethod="pad" gradientTransform="matrix(.098 0 0 .098 42.35 408.3)" id="t"><stop offset="0" stop-color="#fc0"/><stop offset="1"/></radialGradient><radialGradient gradientUnits="userSpaceOnUse" r="819.2" cx="0" cy="0" spreadMethod="pad" gradientTransform="matrix(.234 0 0 .234 168.8 504.05)" id="u"><stop offset="0" stop-color="#900"/><stop offset=".624" stop-color="#f93"/><stop offset="1"/></radialGradient><radialGradient gradientUnits="userSpaceOnUse" r="819.2" cx="0" cy="0" spreadMethod="pad" gradientTransform="matrix(.073 0 0 .073 104.6 395.85)" id="v"><stop offset="0" stop-color="#f90"/><stop offset="1"/></radialGradient><linearGradient gradientUnits="userSpaceOnUse" x1="-819.2" x2="819.2" gradientTransform="matrix(.022 0 0 .023 189.35 264.6)" id="w"><stop offset="0" stop-color="#E9BC9E"/><stop offset=".533" stop-color="#F9EAE3"/><stop offset="1" stop-color="#EBC0A5"/></linearGradient><radialGradient gradientUnits="userSpaceOnUse" r="819.2" cx="0" cy="0" spreadMethod="pad" gradientTransform="matrix(.084 0 0 .084 184.9 396.8)" id="x"><stop offset="0" stop-color="#fff"/><stop offset="1"/></radialGradient><radialGradient gradientUnits="userSpaceOnUse" r="819.2" cx="0" cy="0" spreadMethod="pad" gradientTransform="matrix(.11 0 0 .11 47.05 405.45)" id="y"><stop offset="0" stop-color="#fff"/><stop offset="1"/></radialGradient><radialGradient gradientUnits="userSpaceOnUse" r="819.2" cx="0" cy="0" spreadMethod="pad" gradientTransform="matrix(.148 0 0 .148 63.2 66.7)" id="z"><stop offset=".318" stop-color="#fff"/><stop offset=".694" stop-color="#C0C0C0"/><stop offset=".788" stop-color="#9D9D9D"/><stop offset="1"/></radialGradient><linearGradient gradientUnits="userSpaceOnUse" x1="-819.2" x2="819.2" gradientTransform="matrix(-.026 0 0 -.039 102.45 53.6)" id="A"><stop offset="0" stop-color="#E9BC9E"/><stop offset="1" stop-color="#F9EAE3"/></linearGradient><linearGradient gradientUnits="userSpaceOnUse" x1="-819.2" x2="819.2" gradientTransform="matrix(-.029 -.004 .006 -.039 99.45 51.2)" id="B"><stop offset="0" stop-color="#E9BC9E"/><stop offset="1" stop-color="#F9EAE3"/></linearGradient><linearGradient gradientUnits="userSpaceOnUse" x1="-819.2" x2="819.2" gradientTransform="matrix(-.005 -.05 .035 -.004 155.1 57.95)" id="C"><stop offset="0" stop-color="#E9BC9E"/><stop offset="1" stop-color="#F9EAE3"/></linearGradient><radialGradient gradientUnits="userSpaceOnUse" r="819.2" cx="0" cy="0" spreadMethod="pad" gradientTransform="matrix(.013 0 0 .013 116.4 45.85)" id="D"><stop offset=".318" stop-color="#fff"/><stop offset=".694" stop-color="#C0C0C0"/><stop offset=".788" stop-color="#9D9D9D"/><stop offset="1"/></radialGradient><radialGradient gradientUnits="userSpaceOnUse" r="819.2" cx="0" cy="0" spreadMethod="pad" gradientTransform="matrix(.01 0 0 .01 120.1 43.55)" id="E"><stop offset=".318" stop-color="#fff"/><stop offset=".694" stop-color="#C0C0C0"/><stop offset=".788" stop-color="#9D9D9D"/><stop offset="1"/></radialGradient><radialGradient gradientUnits="userSpaceOnUse" r="819.2" cx="0" cy="0" spreadMethod="pad" gradientTransform="matrix(.012 0 0 .012 98.95 44.45)" id="F"><stop offset=".318" stop-color="#fff"/><stop offset=".694" stop-color="#C0C0C0"/><stop offset=".788" stop-color="#9D9D9D"/><stop offset="1"/></radialGradient><radialGradient gradientUnits="userSpaceOnUse" r="819.2" cx="0" cy="0" spreadMethod="pad" gradientTransform="matrix(.155 0 0 .155 115.85 14.75)" id="G"><stop offset=".318" stop-color="#fff"/><stop offset=".694" stop-color="#C0C0C0"/><stop offset=".788" stop-color="#9D9D9D"/><stop offset="1"/></radialGradient><radialGradient gradientUnits="userSpaceOnUse" r="819.2" cx="0" cy="0" spreadMethod="pad" gradientTransform="matrix(.141 0 0 .141 132.05 65.55)" id="H"><stop offset=".318" stop-color="#fff"/><stop offset=".694" stop-color="#C0C0C0"/><stop offset=".788" stop-color="#9D9D9D"/><stop offset="1"/></radialGradient><radialGradient gradientUnits="userSpaceOnUse" r="819.2" cx="0" cy="0" spreadMethod="pad" gradientTransform="matrix(.092 -.004 .006 .13 105.5 66.45)" id="I"><stop offset=".318" stop-color="#fff"/><stop offset=".694" stop-color="#C0C0C0"/><stop offset=".788" stop-color="#9D9D9D"/><stop offset="1"/></radialGradient><radialGradient gradientUnits="userSpaceOnUse" r="819.2" cx="0" cy="0" spreadMethod="pad" gradientTransform="matrix(.005 0 0 .005 100.65 47.75)" id="J"><stop offset="0" stop-color="#fff"/><stop offset=".11" stop-color="#475474"/></radialGradient><radialGradient gradientUnits="userSpaceOnUse" r="819.2" cx="0" cy="0" spreadMethod="pad" gradientTransform="matrix(.005 0 0 .005 121.45 47.75)" id="K"><stop offset="0" stop-color="#fff"/><stop offset=".11" stop-color="#475474"/></radialGradient></defs><path fill="url(#a)" d="M123.1 103.05v1.2l-.15 5.5-1.45 5.75-.15.45.7-.25q.85-1.6 1.8-3.05l4.1-6.1.15-.05 1.65 3.65q2.55 5.25 7.4 13.15 6.2 10.25 9.65 14.6h.4l-.05-.1q-3.05-7.7-6.5-24.95-3.5-17.2-3.85-25.95l.2-.05q6.95 14.55 12.25 21.2 6.45 8.05 11.65 6.55l.35.35-.2-.3-.05-.05q-1.25-1.7-4.9-8.55-4.2-7.9-4.45-8.7 4.05 1.25 8.2 1.5l4.1.1 1.55 1.25q2.55 2.7 5.05 7.55 5 9.75 4.7 20.65l13.35 33.35.5 13.3 7.15 29.25 10.8 34.35 7.4 5.05q7.85 5.75 10.05 9.3 1.85 3 5 5.25 3.25 2.35 4.7 4.5 1.95 2.9 1.95 8.65l-.4 5.2-7.7-9.75-10.75-11.8-6.15-5.6L199 246.2l-.15-.05-3.1-.8h-20.5l-10.75 9.7 4.1-13.85-1.05-8.2-2.65-6.15q-2.7-6.4-3-7.7L159.15 202l-2.35-15.65-8.2-16.9-2.35-14.05-.25-1.35 1.55-2.9q-2.95-5.05-15.65-15.4l-9.45-7.95-10.4-8-9.5-7q4.5-2.3 8.95-4.65 10.05-5.05 11.6-5.1m26.5 7.9l5.65 16.95-3.1 14.35-4.6 8.9 4.6-8.9 3.1-14.35-5.65-16.95"/><path fill="url(#b)" d="M128.9 54.75q.3-1.55.25-5v-.25q-.05-3.25.55-4.75l.25-.5h.8l.4 6.1v3.35q0 4.9-1.55 10.15l-.4 1.4-2.15.1q1.2-4.7 1.7-9.25v-1l.1-.3.05-.05"/><path fill="url(#c)" d="M128.45 44.9l-.2.15v-.15h.2"/><path fill="url(#d)" d="M128.45 44.9h-.2v-.15h.2v.15"/><path fill="url(#e)" d="M128.45 44.9v-.15l.65-.05h.05l-.7.2m32.45 69.7h.1l.05.05-.15-.05m-129.1-7.75h.05l.05.1-.1-.1"/><path fill="url(#f)" d="M88.55 102.95h1.2v-.8q-1.9-2.55-5.5-8.6-4.2-7-6.15-11.3v-.6l.25.25 4 3.6 3.4 3h4.4v-.8q-.9-.9-5.3-7.75-4.5-6.95-4.7-7.95h2.4v-.4l-.1-.1V66h.6l.1.15q3.95 5.05 8 8.55 4.05 3.45 8.8 6.65 4.7 3.15 8.6 3.1l5.95-.05 3.25-1.1q2.55-1.7 4.15-4.35v.3q0 1.8.45 5.05.75 5.4.75 13.4v5.35q-1.55.05-11.6 5.1-4.45 2.35-8.95 4.65l-14-9.85"/><path fill="url(#g)" d="M128.75 54.7l.15.05h-.15v-.05"/><path fill="url(#h)" d="M127.95 106.55v-.4l.15.35-.15.05m8.85-19.65v-.4l.2.35-.2.05"/><path fill="url(#i)" d="M41.75 93.85q2.35 1.25 4.9 2.1 6.4 2.2 11.4 1v.4l-2.35 2.6q-1.9 1.8-4.5 2.6l-10.3 2.35-9 1.95h-.1l-.3.1h.4l5.9 1.05 10.2.2v-.05h.55l-.55.05q.05.25 1.2.35h3.5l7.75-.4q4.35-.1 8.8-1.45l4.45-1.35.4 3.6q0 3.1-1.15 4.9-1.8 2.7-6.5 3.85l-.4.1h.4l4.2-.35 5.05-.45q1-.15 2.85-1.75t3.2-1.85q1.6 4.9 1.6 9-.65 6.55-.35 7.9.3 1.4 5.15 4H93q-.35-1.5-4.7-13.4l-7.95-22.55-.2-.2v-.4l.2.6 2.9 2.3 3.7 2.3h1.6l14 9.85 9.5 7 10.4 8 9.45 7.95q12.7 10.35 15.65 15.4l-1.55 2.9.25 1.35q-3.05 7.9-4.85 22.05l-.1 1.05q-3.95 7.55-30.25 14.45L92 197.15l-8.25 1.45-.25.05.25-.05v.1l-.25-.05q-8.75-1.45-17-3.6l-8.1-2.4q.35-7.3-3.4-20.1-1.95-6.8-4.1-12.15-.6 4.8-5.65 13.85l-4.9 8.15 1 85.2q-.25-2.4-4.2-4.55-4.25-2.3-11.6-3.05-6.3-.6-14.85-.05l-6.15.85H4.5q-15 3.25-22.65 16.85-2.4 4.25-3.75 9.05l-.9 3.9-1.35-2.5q-1.2-3.35-.5-7.75 2.1-14 21.95-32.95l.65-1.2q.75-1.95 1.4-5.75 2.05-12.05 2.05-37.7L4 194.1q2.8-9.1 4.1-11.35 1.3-2.25.5-14.15l-1.05-11.5 3.1-14.85 1.55-18.95 8.2-21.05 12.8-6.65 8.55-1.75"/><path fill="url(#j)" d="M31.9 106.85v.1l-.05-.1h.05"/><path fill="url(#k)" d="M54.15 230.2l.3-13.9q.85-15.45 3.7-23.75l.25.1 8.1 2.4q8.25 2.15 17 3.6l.25.05 3.35.55q12.6 1.8 23.4 1.55l-3.55 3.15q-8.5 7.65-15.55 14.7v1.6q7.2 1.85 16.65 11.4 4.7 4.75 8.35 9.55-23.9 1.65-62.25-11m4.2-36.65l.05-.9-.05.9"/><path fill="url(#l)" d="M141.3 178.5l-.2 1.5-1.2 14.65-.2.05q-8.35 3.85-18.85 5.3l-4.65-3.75q-.6 0-5.7 4.55-10.8.25-23.4-1.55l-3.35-.55v-.1l8.25-1.45 19.05-4.2q26.3-6.9 30.25-14.45"/><path fill="url(#m)" d="M139.9 194.65l.35-.2 5.95 31.8-.4 1.05-2.45 3.4q-4.4 4.95-12.4 7.7-3.45 1.2-7.35 1.9 2.15-3.2 5.8-7.85l9.2-11.4q0-4.75-11.15-15.25l-6.6-5.8q10.5-1.45 18.85-5.3l.2-.05"/><path fill="url(#n)" d="M131.2 215.2l4 5.9-4.35 3.75q-4.1 3.45-4.8 4.4l-4.2 4.9q-2.15 2.45-2.5 4.15-1.1-2.45-2-3.95-1.7-2.75-4.7-6.2-2.1-2.35-6.7-5.5l-6.25-3.95q1.2-3.5 8.15-10 5.65-5.25 8.15-6.4l3.6 2.7 5.8 4.5 5.8 5.7"/><path fill="url(#o)" d="M131.2 215.2l-5.8-5.7-5.8-4.5-3.6-2.7q-2.5 1.15-8.15 6.4-6.95 6.5-8.15 10l6.25 3.95q4.6 3.15 6.7 5.5 3 3.45 4.7 6.2.9 1.5 2 3.95.35-1.7 2.5-4.15l4.2-4.9q.7-.95 4.8-4.4l4.35-3.75-4-5.9M120.85 200l6.6 5.8q11.15 10.5 11.15 15.25l-9.2 11.4q-3.65 4.65-5.8 7.85-3.4 4.9-3.4 6.35-1.7-2.75-3.8-5.45-3.65-4.8-8.35-9.55-9.45-9.55-16.65-11.4v-1.6q7.05-7.05 15.55-14.7l3.55-3.15q5.1-4.55 5.7-4.55l4.65 3.75"/><path fill="url(#p)" d="M145.8 227.3l4.2 12.2q3.35 9.65 5.15 15.9l3 7.2-2.15 3-.1.1q-10.5 12.2-55.95 24.3Q71.8 297.6 41 302.75h-.1l-2.55.45q2.5-16.45 9.4-46.3 3.45-15 6.4-26.7 38.35 12.65 62.25 11 2.1 2.7 3.8 5.45 0-1.45 3.4-6.35 3.9-.7 7.35-1.9 8-2.75 12.4-7.7l2.45-3.4"/><path fill="url(#q)" d="M156 265.65l2.35 6.2q2.65 6.8 4.05 9.3-.75 2.3-2.45 4.75l-.05.05q-10.05 13.7-52.2 27.75-29.55 9.8-65.55 17.2l-.15.05-2.45.5q-1.2-4.85 0-17.1.65-6.2 1.45-11.55v-.05Q71.8 297.6 99.95 290q45.45-12.1 55.95-24.3l.1-.05"/><path fill="url(#r)" d="M159.95 285.95l2.95 6.65q3.45 7.3 6.05 10.25-1.75 4.8-6.5 9.65l-.85-1.8q-.4-.45-.3.95l.35 1.7-.35-1.7q-.1-1.4.3-.95l.85 1.8-.8.85Q149 325.45 117.2 337.7l-.05.05q-8.35 3.2-17.95 6.4l-8.05 2.65q-16.2 5.1-34.4 9.75l-16.4 3.9q.6-3.15 1.65-29.5l.15-.05q36-7.4 65.55-17.2 42.15-14.05 52.2-27.75h.05"/><path fill="url(#s)" d="M25.55 260l1.95 6.35.25.2 6.05 4.35 2.7 4.5q1.1 2.2 3.8 6.15 1.7 2.45.1 3.75l-1.9.8-9.4-7.6-1.15-.7 1.5 6.3 7.05 8.3.2 2.75Q2.15 302.85-.1 282.6q-1.15-10.15 4.65-21.75v-.05l6.15-.85q8.55-.55 14.85.05m1.2 5.85l.75.5-.75-.5"/><path fill="url(#t)" d="M94.35 446.2l.55 7.15q-9.2 1.4-19.95 1.2-12.9-.3-28.1-2.9l-4.15-.75q-9.55-1.8-18.9-4.35l-7.4-2.15L34.15 399 45 362.5l-4.65-2.05 16.4-3.9q18.2-4.65 34.4-9.75-1.75 16.95.85 63.4 1.05 19.1 2.35 35.95l-.35.05-1.95.45 1.95-.45h.35"/><path fill="url(#u)" d="M162.45 312.5q1.7 4.5 5.9 19.4 5.55 19.7 23.05 53.3 8.8 16.75 16.45 29.6l-16.8 13.8-9.15 4.75-23.4 12.05-4.6-.15-3.8-.1h-.3q-1.95-2.75-3.9-6.7-8.5-16.8-18.4-55.4-6.2-24-10.35-45.3l.05-.05q31.8-12.25 44.45-24.35l.8-.85m-15.5 125.95h-1.05 1.05"/><path fill="url(#v)" d="M145.9 438.45l-10.6-.25q-14.7-.25-27.1 3.7l-13.85 4.25Q93.05 429.3 92 410.2q-2.6-46.45-.85-63.4l8.05-2.65q9.6-3.2 17.95-6.4 4.15 21.3 10.35 45.3 9.9 38.6 18.4 55.4"/><path fill="url(#w)" d="M198.85 246.15l.05.1q4.95 7.15 7.25 15 4.6 15.85-9.2 19.65l-10.3 2.95-5.15-1.5-.5-5.15 5.15-7.85q-.3-1.3-1-2.25-1.4-2-3.2-.45-1.8 1.55-1.8 3l.35 1.2v2.9l-.75 4.45-1.95 1.45-3.65-.95-2.25-2.95-.45-4.9 5.85-22.35-.7-3.15h19.15l3.1.8"/><path fill="url(#x)" d="M181.9 433.35L202.95 444l15.7 12.9-24.95 8.45-17.7-5.25-12.5-9.65-9.6-5.2 4.6.15 23.4-12.05"/><path fill="url(#y)" d="M74.95 454.55v.3l2.5 4.45q2.5 5.2 2.75 9.25t-3.05 10.65l-3.4 5.85-27 10.85-10.05-14.85q-3.05-4.5 3.2-17.2 3.15-6.35 6.95-12.2 15.2 2.6 28.1 2.9"/><path fill="url(#z)" d="M124.55 23l-.05-.05h.15l-.1.05"/><path fill="url(#A)" d="M71.1 43.25l-.2-.2h.2v.2"/><path fill="url(#B)" d="M71.1 43.25v-.2h.2l-.2.2"/><path fill="url(#C)" d="M71.1 43.25l.2-.2q4.1 0 5.7 4.15l.5 1.85 1.1 5.7q.75 3.4 2.2 5.7l.15.3v-.4q-.65-1.3-1.6-7.7-.1-.7.15-4.65.2-3.95.8-5.65l1.65-3.85q1.05-2.15.25-3.25-.85-1.1.95-2.85l-1.05-1.55q.9-7.1 6.05-6.85 5.1.25 14.7 4.95 9.6 4.65 14.3 1.15 4.7-3.55 7.55-5.25l-.05-.65-.1-1.1V23l.7 1.25.1.2 1.35-.85-1.2 1.1.2.4.2.35.15.4q1.4 3.45 1.95 10.25l.25 8.65v.3l.2 4.5v.15l.3 5v1.4q-.5 4.55-1.7 9.25v.1l-2.25 7.05-1.45 3.65-1.45 2.8q-1.6 2.65-4.15 4.35l-3.25 1.1-5.95.05q-3.9.05-8.6-3.1-4.75-3.2-8.8-6.65-4.05-3.5-8-8.55l-.1-.15h-.65l-3.5.15-1.15.05V61.5l.05-.85V56.4q-.2-2.4-.75-4.15-1.4-4.75-5.95-9m54-18.65l-.4.25.4-.25.05-.05-.3-.7-.1-.15.35.9m.2.3l.2-.2-.15-.25-.2.1.2-.1.15.25-.2.2-.05.05.3.7-.25-.75m-.6-.05l.05.55.5-.45-.5.45-.05-.55m-1.3 22.8l-.55-.25-2.4-.15-1.4.2.2-.2 1.7-1.85.25-.2q1.15-.95 2.55-.95.95 0 1.4.4l1.4 1.35.1.1v-.15.15l-.1-.1.1-.05q-1.7-4.25-4.25-4.25-1.2 0-3.4 1.6-2.15 1.6-3.9 1.6l-.45-.15-.55-.45h-.05l-.05-.05v.15l-.15.8q-.45-.15-.6-.3v3.85l3.25-.4h.05q-.95.5-1.4 1.1l3-.25 5.2-.25 3.1-.15-3.05-1.15m-33.6.15l-.1.05v-.15.15l.1-.05q2.6-2.45 6.8-2.45l2.25.5 3.35 1.05 5.05 1.7v-4.2l-.45.2-.45.45h-.15v-1.1l-.8.55-1.1.4-1.85-.35-1.3.35L99 43.85q-1.8-1.1-3.95-1.1-2.4-.15-3.65 1.45-.5.65-1.7 3.5l.1.1m17.45.8h.15-.15.15-.15m-10 .7h8.3q-.8-.9-2.5-1.45l-.5-.15-2.95-.45-2.35.3-.35.1-3.85 1.75 4.2-.1M114 44.4v-.15l.05.05-.05.1m-5.05 21.15q-.95-.15-1.65-.95-.65-.8-.65-1.6 0-1.05.35-1.55l1.2-1.45-1.2 1.45q-.35.5-.35 1.55 0 .8.65 1.6.7.8 1.65.95m6.5-.45q1.25-.4 1.55-1.2l.15-1.4-.2-.75-.1-.15-.05-.85-2.8-6.4q-2.75-5.95-2.55-8.75-.2 2.8 2.55 8.75l2.8 6.4.05.85.1.15.2.75-.15 1.4q-.3.8-1.55 1.2m3.15 6.75q.3-.6-.05-.75l-1.7-.25-3 .25-3.95.5-4.15-.1q-3 .2-2 .9-1-.7 2-.9l4.15.1 3.95-.5 3-.25 1.7.25q.35.15.05.75m-1.75-10.25q-.35 1.15-1 1.7-.25.15-.6.45l.35.3q.25.3-1 .9 1.25-.6 1-.9l-.35-.3q-.55 0-1.9 1.8 1.35-1.8 1.9-1.8.35-.3.6-.45.65-.55 1-1.7m-4.95 3.95l-.1-.65-.8-.65-1.5-.55q-.75-.15-1 .4t.75.8l1.15.35-1.15-.35q-1-.25-.75-.8t1-.4l1.5.55.8.65.1.65M82.55 54.8l.6 11.35-.6-11.35"/><path fill="url(#D)" d="M114.1 44.3l-.1.1.05-.1h.05"/><path fill="url(#E)" d="M114.1 44.3l.55.45.45.15q1.75 0 3.9-1.6 2.2-1.6 3.4-1.6 2.55 0 4.25 4.25l-.1.05-1.4-1.35q-.45-.4-1.4-.4-1.4 0-2.55.95l-.25.2-1.7 1.85-.2.2-1.1.6-1.4.3h-.05l-3.25.4V44.9q.15.15.6.3l.15-.8.1-.1"/><path fill="url(#F)" d="M89.8 47.8l-.1-.1q1.2-2.85 1.7-3.5 1.25-1.6 3.65-1.45 2.15 0 3.95 1.1l2.15 1.05 1.3-.35 1.85.35 1.1-.4.8-.55v1.1h.15l.45-.45.45-.2v4.2l-5.05-1.7-3.35-1.05-2.25-.5q-4.2 0-6.8 2.45"/><path fill="url(#G)" d="M180.55 97.35v-.05h.05l.35.05h-.4M157.1 47.5v-.2l.15.2h-.15M80.8 60.45l.15-.1v.4l-.15-.3m43.9-35.6l-.25-1.9h.05l.05.15.1 1.1.05.65"/><path fill="url(#H)" d="M66.45 117.7v.1h-.4l.4-.1"/><path fill="url(#I)" d="M66.45 117.7q4.7-1.15 6.5-3.85 1.15-1.8 1.15-4.9l-.4-3.6-4.45 1.35q-4.45 1.35-8.8 1.45l-7.75.4h-3.5l-.65-.4H48v.05l-10.2-.2-5.9-1.05v-.1l9-1.95 10.3-2.35q2.6-.8 4.5-2.6l2.35-2.6v-.4q-5 1.2-11.4-1-2.55-.85-4.9-2.1-2.15-1.1-4.2-2.55v-.4l6.7-.9q6.2-.95 7.75-1.5l-16.5-.6q-14.8-.8-17.25-1.8 1.15-1.5 3.15-1.9l1.85-.15 8.05.8q4.3 0 8.3-3.25 3.2-2.65 4.35-5.55l-2.75-.45-4.05-1.15q4.2-1.55 7.3-4.6 4.3-4.2 5.55-5.05h-4.4q7.65-4.4 13.65-11.45 7.4-8.75 5.6-15.1-.75.05-1.8.8l-1.25.9-.55-5.3q0-5.6 3.3-9.1Q66.4 23.6 70.5 21v-.4l-3.3.1q-1.2 0-2.75-1.3 2.1-1.75 5.7-3.85 3.55-2.1 14.85-9.7 15.2-2.05 24.35-2.5l9.3-.6q.15-.2 7.05 5.6 6.8 5.75 5.45 6.15-1.35.4.95 1.4 2.3 1 4.45 3.55l.5.55.15.2h-.4l-.25-.15-6.75-5.25-.25-.25.15.25q1.75 3.6 5.2 8.15l4.85 5.85 17.35 18.5v.2h-.25q-2.15 0-10.55-4l-9.1-4.45.4.8q.95 2.15 3.7 6.25l4.95 7.5q6.15 10.25 6.2 20-1.4-2-6.5-6.75-5.65-5.25-9.15-7.3v.4q2.15 8.05 7.95 12 7.5 3.85 11.7 6.9Q158 80 160.2 84.9q2.1 4.75 4.7 6.4 7.05 4.55 15.65 6v.05q-2.7 1.25-5.35 1.5l-6.7.1h-4.55l-4.1-.1q-4.15-.25-8.2-1.5.25.8 4.45 8.7 3.65 6.85 4.9 8.55h-.1q-5.2 1.5-11.65-6.55-5.3-6.65-12.25-21.2l-.2-.35v.4q.35 8.75 3.85 25.95 3.45 17.25 6.5 24.95l.05.1h-.4q-3.45-4.35-9.65-14.6-4.85-7.9-7.4-13.15l-1.65-3.65-.15-.35v.4l-4.1 6.1q-.95 1.45-1.8 3.05l-.7.25.15-.45 1.45-5.75.15-5.5V97.7q0-8-.75-13.4-.45-3.25-.45-5.05v-.3l1.45-2.8 1.45-3.65 2.25-7.05v-.1l2.15-.1.4-1.4q1.55-5.25 1.55-10.15v-3.35l-.4-6.1h-.8l-.25.5q-.6 1.5-.55 4.75v.25q.05 3.45-.25 5l-.15-.05-.3-5v-.15l-.2-4.5.2-.15.7-.2h-.05l-.65.05h-.2L128 36.1q-.55-6.8-1.95-10.25l-.15-.4-.2-.35-.2-.4 1.2-1.1-1.35.85-.1-.2-.7-1.25v.1l-.05-.15h-.05l.25 1.9q-2.85 1.7-7.55 5.25-4.7 3.5-14.3-1.15-9.6-4.7-14.7-4.95-5.15-.25-6.05 6.85l1.05 1.55q-1.8 1.75-.95 2.85.8 1.1-.25 3.25l-1.65 3.85q-.6 1.7-.8 5.65-.25 3.95-.15 4.65.95 6.4 1.6 7.7l-.15.1q-1.45-2.3-2.2-5.7l-1.1-5.7-.5-1.85q-1.6-4.15-5.7-4.15h-.4l.2.2q4.55 4.25 5.95 9 .55 1.75.75 4.15v4.25l-.05.85V66.2l1.15-.05 1.6 2.65 1.95 2.7.1.1v.4h-2.4q.2 1 4.7 7.95 4.4 6.85 5.3 7.75v.8h-4.4l-3.4-3-4-3.6-.25-.25v.6q1.95 4.3 6.15 11.3 3.6 6.05 5.5 8.6v.8h-2.8l-3.7-2.3-2.9-2.3-.2-.6v.4l.2.2 7.95 22.55q4.35 11.9 4.7 13.4h-4.85q-4.85-2.6-5.15-4-.3-1.35.35-7.9 0-4.1-1.6-9-1.35.25-3.2 1.85T75.7 117l-5.05.45-4.2.35v-.1m58.1-94.7l-.05-.05.05.05.1-.05h-.15l.05.05m.55 1.6l-.35-.9.1.15.3.7-.05.05m.2.3l.25.75-.3-.7.05-.05"/><path fill="url(#J)" d="M97.25 49.3q-.15-.4-.15-.9 0-.45.15-.85l2.35-.3 2.95.45.05.7-.1.9h-5.25"/><path fill="url(#K)" d="M123.4 47.65l.05.5-.1.8-5.2.25-.2-1.05v-.1l1.1-.6 1.4-.2 2.4.15.55.25"/><path fill="#fff" d="M123.4 47.65l3.05 1.15-3.1.15.1-.8-.05-.5m-5.45.4v.1l.2 1.05-3 .25q.45-.6 1.4-1.1l1.4-.3m-20.7-.5q-.15.4-.15.85 0 .5.15.9l-4.2.1 3.85-1.75.35-.1m5.25 1.75l.1-.9-.05-.7.5.15q1.7.55 2.5 1.45h-3.05"/><path fill="none" stroke="#000" stroke-width=".05" stroke-linecap="round" stroke-linejoin="round" d="M137.05 20.2h.15l-.15-.2m2.85 174.65l.35-.2m5.95 31.8l-.4 1.05m10.2 38.3v.05m3.95 20.25v.05m-65.6 160.2v.05m-40.2-216l.3-13.9m3.7-23.75l.25.1-.05.9M157.1 47.3l.15.2h-.15M83.75 198.7l-.25-.05m7.9 21.6v-1.6"/><path fill="none" stroke="#572029" stroke-width=".05" stroke-linecap="round" stroke-linejoin="round" d="M146.8 137.9h.4l-.05-.1m16.8-38.85l1.55 1.25q2.55 2.7 5.05 7.55 5 9.75 4.7 20.65l13.35 33.35.5 13.3 7.15 29.25 10.8 34.35 7.4 5.05q7.85 5.75 10.05 9.3 1.85 3 5 5.25 3.25 2.35 4.7 4.5 1.95 2.9 1.95 8.65l-.4 5.2-7.7-9.75-10.75-11.8-6.15-5.6L199 246.2l-.15-.05-3.1-.8h-20.5l-10.75 9.7 4.1-13.85-1.05-8.2-2.65-6.15q-2.7-6.4-3-7.7L159.15 202l-2.35-15.65-8.2-16.9-2.35-14.05q-3.05 7.9-4.85 22.05l-.1 1.05m-82.9 14.15q.35-7.3-3.4-20.1-1.95-6.8-4.1-12.15-.6 4.8-5.65 13.85l-4.9 8.15 1 85.2q-.25-2.4-4.2-4.55-4.25-2.3-11.6-3.05-6.3-.6-14.85-.05l-6.15.85H4.5q-15 3.25-22.65 16.85-2.4 4.25-3.75 9.05l-.9 3.9-1.35-2.5q-1.2-3.35-.5-7.75 2.1-14 21.95-32.95l.65-1.2q.75-1.95 1.4-5.75 2.05-12.05 2.05-37.7L4 194.1q2.8-9.1 4.1-11.35 1.3-2.25.5-14.15l-1.05-11.5 3.1-14.85 1.55-18.95 8.2-21.05 12.8-6.65 8.55-1.75m-9.85 13.1h-.4l.3-.1h.1m26.5 85.8l8.1 2.4q8.25 2.15 17 3.6l.25-.05m77.3-83.95l-.05-.05m.05.05l.2.3-.35-.35m-58.35-1.8l9.5 7 10.4 8 9.45 7.95q12.7 10.35 15.65 15.4l4.6-8.9 3.1-14.35-5.65-16.95m-3.35 44.45l-.25-1.35 1.55-2.9"/><path fill="none" stroke="#3440AD" stroke-width=".05" stroke-linecap="round" stroke-linejoin="round" d="M141.3 178.5l-.2 1.5-1.2 14.65-.2.05q-8.35 3.85-18.85 5.3l-4.65-3.75q-.6 0-5.7 4.55-10.8.25-23.4-1.55l-3.35-.55m62.05 28.6l4.2 12.2q3.35 9.65 5.15 15.9l3 7.2-2.15 3-.1.1q-10.5 12.2-55.95 24.3Q71.8 297.6 41 302.75h-.1l-2.55.45q2.5-16.45 9.4-46.3 3.45-15 6.4-26.7M156 265.65l2.35 6.2q2.65 6.8 4.05 9.3-.75 2.3-2.45 4.75l-.05.05q-10.05 13.7-52.2 27.75-29.55 9.8-65.55 17.2l-.15.05-2.45.5q-1.2-4.85 0-17.1.65-6.2 1.45-11.55v-.05m118.95-16.8l2.95 6.65q3.45 7.3 6.05 10.25-1.75 4.8-6.5 9.65m-122.1 47.95q.6-3.15 1.65-29.5M83.75 198.6l8.25-1.45 19.05-4.2q26.3-6.9 30.25-14.45m-17.7 61.8q3.9-.7 7.35-1.9 8-2.75 12.4-7.7l2.45-3.4m-22.2 13q-3.4 4.9-3.4 6.35-1.7-2.75-3.8-5.45-23.9 1.65-62.25-11m-13.8 130.25l16.4-3.9q18.2-4.65 34.4-9.75l8.05-2.65q9.6-3.2 17.95-6.4l.05-.05q31.8-12.25 44.45-24.35l-.35-1.7q-.1-1.4.3-.95l.85 1.8"/><path fill="none" stroke="#45290D" stroke-width=".05" stroke-linecap="round" stroke-linejoin="round" d="M162.45 312.5q1.7 4.5 5.9 19.4 5.55 19.7 23.05 53.3 8.8 16.75 16.45 29.6l-16.8 13.8-9.15 4.75-23.4 12.05-4.6-.15-3.8-.1h-.3q-1.95-2.75-3.9-6.7l-10.6-.25q-14.7-.25-27.1 3.7l-13.85 4.25-.35.05-1.95.45m2.3-.45l.55 7.15q-9.2 1.4-19.95 1.2-12.9-.3-28.1-2.9l-4.15-.75q-9.55-1.8-18.9-4.35l-7.4-2.15L34.15 399 45 362.5l-4.65-2.05m122.1-47.95l-.8.85m-44.5 24.4q4.15 21.3 10.35 45.3 9.9 38.6 18.4 55.4h1.05m-55.8-91.65q-1.75 16.95.85 63.4 1.05 19.1 2.35 35.95"/><path fill="none" stroke="#202020" stroke-width=".05" stroke-linecap="round" stroke-linejoin="round" d="M181.9 433.35L202.95 444l15.7 12.9-24.95 8.45-17.7-5.25-12.5-9.65-9.6-5.2m-78.95 9.6l2.5 4.45q2.5 5.2 2.75 9.25t-3.05 10.65l-3.4 5.85-27 10.85-10.05-14.85q-3.05-4.5 3.2-17.2 3.15-6.35 6.95-12.2"/><path fill="none" stroke="#D67E45" stroke-width=".05" stroke-linecap="round" stroke-linejoin="round" d="M198.85 246.15l.05.1q4.95 7.15 7.25 15 4.6 15.85-9.2 19.65l-10.3 2.95-5.15-1.5-.5-5.15 5.15-7.85q-.3-1.3-1-2.25-1.4-2-3.2-.45-1.8 1.55-1.8 3l.35 1.2v2.9l-.75 4.45-1.95 1.45-3.65-.95-2.25-2.95-.45-4.9 5.85-22.35-.7-3.15M25.55 260l1.95 6.35.25.2 6.05 4.35 2.7 4.5q1.1 2.2 3.8 6.15 1.7 2.45.1 3.75l-1.9.8-9.4-7.6-1.15-.7 1.5 6.3 7.05 8.3.2 2.75Q2.15 302.85-.1 282.6q-1.15-10.15 4.65-21.75v-.05m77.9-189.3V66m20.1 46.8q4.5-2.3 8.95-4.65 10.05-5.05 11.6-5.1m-34.55-.1l14 9.85M27.5 266.35l-.75-.5"/><path fill="none" stroke="#8E4D20" stroke-width=".05" stroke-linecap="round" stroke-linejoin="round" d="M128.25 44.75v.3M82.45 66h-.05l-3.5.15m3.55-.15h.6m45.7-10.9V54.7m.15.05l-.05.05-.1.3m-47.8 5.25v.4l-.15-.3"/><path fill="none" stroke="#666" stroke-width=".05" stroke-linecap="round" stroke-linejoin="round" d="M180.55 97.35h.4l-.35-.05h-.05q-8.6-1.45-15.65-6-2.6-1.65-4.7-6.4-2.2-4.9-3.75-6.05-4.2-3.05-11.7-6.9-5.8-3.95-7.95-12v-.4q3.5 2.05 9.15 7.3 5.1 4.75 6.5 6.75-.05-9.75-6.2-20l-4.95-7.5q-2.75-4.1-3.7-6.25l-.4-.8 9.1 4.45q8.4 4 10.55 4h.25m0-.2l-17.35-18.5-4.85-5.85q-3.45-4.55-5.2-8.15l-.15-.25.25.25 6.75 5.25.25.15h.25m0-.2l-.5-.55q-2.15-2.55-4.45-3.55-2.3-1-.95-1.4 1.35-.4-5.45-6.15-6.9-5.8-7.05-5.6l-9.3.6Q100.2 3.8 85 5.85q-11.3 7.6-14.85 9.7-3.6 2.1-5.7 3.85 1.55 1.3 2.75 1.3l3.3-.1v.4q-4.1 2.6-5.95 4.55-3.3 3.5-3.3 9.1l.55 5.3 1.25-.9q1.05-.75 1.8-.8 1.8 6.35-5.6 15.1-6 7.05-13.65 11.45H50q-1.25.85-5.55 5.05-3.1 3.05-7.3 4.6l4.05 1.15 2.75.45q-1.15 2.9-4.35 5.55-4 3.25-8.3 3.25l-8.05-.8-1.85.15q-2 .4-3.15 1.9 2.45 1 17.25 1.8l16.5.6q-1.55.55-7.75 1.5l-6.7.9v.4q2.05 1.45 4.2 2.55 2.35 1.25 4.9 2.1 6.4 2.2 11.4 1v.4l-2.35 2.6q-1.9 1.8-4.5 2.6l-10.3 2.35-9 1.95m0 .1l5.9 1.05 10.2.2v-.05h.55l.65.4h3.5l7.75-.4q4.35-.1 8.8-1.45l4.45-1.35.4 3.6q0 3.1-1.15 4.9-1.8 2.7-6.5 3.85m0 .1l4.2-.35 5.05-.45q1-.15 2.85-1.75t3.2-1.85q1.6 4.9 1.6 9-.65 6.55-.35 7.9.3 1.4 5.15 4H93q-.35-1.5-4.7-13.4l-7.95-22.55-.2-.2v-.4l.2.6 2.9 2.3 3.7 2.3h2.8v-.8q-1.9-2.55-5.5-8.6-4.2-7-6.15-11.3v-.6l.25.25 4 3.6 3.4 3h4.4v-.8q-.9-.9-5.3-7.75-4.5-6.95-4.7-7.95h2.4v-.4l-.1-.1-1.95-2.7-1.6-2.65-1.15.05V61.5l.05-.85V56.4q-.2-2.4-.75-4.15-1.4-4.75-5.95-9l-.2-.2h.4q4.1 0 5.7 4.15l.5 1.85 1.1 5.7q.75 3.4 2.2 5.7m.15-.1q-.65-1.3-1.6-7.7-.1-.7.15-4.65.2-3.95.8-5.65l1.65-3.85q1.05-2.15.25-3.25-.85-1.1.95-2.85l-1.05-1.55q.9-7.1 6.05-6.85 5.1.25 14.7 4.95 9.6 4.65 14.3 1.15 4.7-3.55 7.55-5.25l.4-.25.05-.05.2-.1.15.25-.2.2m-.8-1.95l.05.05.7 1.25.1.2 1.35-.85-1.2 1.1.2.4.2.35.15.4q1.4 3.45 1.95 10.25l.25 8.65m0 .3l.2 4.5v.15l.3 5m.15.05q.3-1.55.25-5v-.25q-.05-3.25.55-4.75l.25-.5h.8l.4 6.1v3.35q0 4.9-1.55 10.15l-.4 1.4m-7.3 13.7v.3q0 1.8.45 5.05.75 5.4.75 13.4v6.55l-.15 5.5-1.45 5.75-.15.45.7-.25q.85-1.6 1.8-3.05l4.1-6.1v-.4l.15.35 1.65 3.65q2.55 5.25 7.4 13.15 6.2 10.25 9.65 14.6m.35-.1q-3.05-7.7-6.5-24.95-3.5-17.2-3.85-25.95v-.4l.2.35q6.95 14.55 12.25 21.2 6.45 8.05 11.65 6.55m.1 0q-1.25-1.7-4.9-8.55-4.2-7.9-4.45-8.7 4.05 1.25 8.2 1.5l4.1.1h4.55l6.7-.1q2.65-.25 5.35-1.5m-56-74.25V23m0 .1l.1 1.1.05.65m.55.1l-.5.45-.05-.55m.55.1l.05-.05m-58.85 92.9h-.4l.4-.1m-17.25-9.15q-1.15-.1-1.2-.35l.55-.05"/><path fill="none" stroke="#473900" stroke-width=".05" stroke-linecap="round" stroke-linejoin="round" d="M140.25 194.45l5.95 31.8m-91.75-9.95q.85-15.45 3.7-23.75m62.7 7.45l6.6 5.8q11.15 10.5 11.15 15.25l-9.2 11.4q-3.65 4.65-5.8 7.85m-32.2-21.65q7.05-7.05 15.55-14.7l3.55-3.15m5.9 40.4q-3.65-4.8-8.35-9.55-9.45-9.55-16.65-11.4"/><path fill="none" stroke="#001777" stroke-width=".05" stroke-linecap="round" stroke-linejoin="round" d="M131.2 215.2l-5.8-5.7-5.8-4.5-3.6-2.7q-2.5 1.15-8.15 6.4-6.95 6.5-8.15 10l6.25 3.95q4.6 3.15 6.7 5.5 3 3.45 4.7 6.2.9 1.5 2 3.95.35-1.7 2.5-4.15l4.2-4.9q.7-.95 4.8-4.4l4.35-3.75-4-5.9"/><path fill="none" stroke="#AE6026" stroke-width=".05" stroke-linecap="round" stroke-linejoin="round" d="M129.2 65.25l-2.15.1m1.7-10.25v1"/><path fill="none" stroke="#E0A278" stroke-width=".05" stroke-linecap="round" stroke-linejoin="round" d="M128.75 56.1q-.5 4.55-1.7 9.25v.1l-2.25 7.05-1.45 3.65-1.45 2.8q-1.6 2.65-4.15 4.35l-3.25 1.1-5.95.05q-3.9.05-8.6-3.1-4.75-3.2-8.8-6.65-4.05-3.5-8-8.55m-.1-.15l.1.15"/><path fill="none" stroke="#D78651" stroke-width=".05" stroke-linecap="round" stroke-linejoin="round" d="M83.15 66.15l-.6-11.35m28.9-9.2q-.2 2.8 2.55 8.75l2.8 6.4.05.85.1.15.2.75-.15 1.4q-.3.8-1.55 1.2M108.2 60l-1.2 1.45q-.35.5-.35 1.55 0 .8.65 1.6.7.8 1.65.95m1.45-.3l-1.15-.35q-1-.25-.75-.8t1-.4l1.5.55.8.65.1.65m2.7-.6q1.25-.6 1-.9l-.35-.3q-.55 0-1.9 1.8m1.9-1.8q.35-.3.6-.45.65-.55 1-1.7"/><path fill="none" stroke="#D6844E" stroke-width=".05" stroke-linecap="round" stroke-linejoin="round" d="M103.75 72.4q-1-.7 2-.9l4.15.1 3.95-.5 3-.25 1.7.25q.35.15.05.75"/><path fill="none" stroke="#828282" stroke-width=".05" stroke-linecap="round" stroke-linejoin="round" d="M123.4 47.65l-.55-.25-2.4-.15-1.4.2-1.1.6m.2 1.15l5.2-.25 3.1-.15-3.05-1.15m3.15-1.65l-1.4-1.35q-.45-.4-1.4-.4-1.4 0-2.55.95l-.25.2-1.7 1.85-.2.2m7.6-1.5v.15l-.1-.1m.1-.05q-1.7-4.25-4.25-4.25-1.2 0-3.4 1.6-2.15 1.6-3.9 1.6l-.45-.15-.55-.45m-.1.1l-.15.8q-.45-.15-.6-.3v3.85l3.25-.4h.05l1.4-.3M89.7 47.7v.15l.1-.05m-.1-.1q1.2-2.85 1.7-3.5 1.25-1.6 3.65-1.45 2.15 0 3.95 1.1l2.15 1.05 1.3-.35 1.85.35 1.1-.4.8-.55v1.1h.15l.45-.45.45-.2v4.2h.15-.15l-5.05-1.7-3.35-1.05-2.25-.5q-4.2 0-6.8 2.45m7.45 1.5h8.3q-.8-.9-2.5-1.45l-.5-.15-2.95-.45-2.35.3-.35.1-3.85 1.75 4.2-.1m16.8-5l-.05-.05v.15m.05-.1h.05m2.45 4.05q-.95.5-1.4 1.1l3-.25"/></svg>