<svg xmlns="http://www.w3.org/2000/svg" viewBox="-55.6 19.8 255.4 479.9" width="255.4" height="479.9" preserveAspectRatio="xMinYMin"><defs><linearGradient gradientUnits="userSpaceOnUse" x1="-819.2" x2="819.2" gradientTransform="matrix(-.119 0 0 -.253 102.35 292.2)" id="a"><stop offset="0" stop-color="#EBC0A5"/><stop offset=".533" stop-color="#F1D3C0"/><stop offset="1" stop-color="#EECAB3"/></linearGradient><linearGradient gradientUnits="userSpaceOnUse" x1="-819.2" x2="819.2" gradientTransform="matrix(-.006 .008 -.026 -.019 59.8 175.45)" id="b"><stop offset="0" stop-color="#E7B18F"/><stop offset=".533" stop-color="#DFA168"/><stop offset="1" stop-color="#D98651"/></linearGradient><linearGradient gradientUnits="userSpaceOnUse" x1="-819.2" x2="819.2" gradientTransform="matrix(-.006 .08 -.049 -.003 85.75 209.1)" id="c"><stop offset="0" stop-color="#EBC0A5"/><stop offset=".533" stop-color="#F1D3C0"/><stop offset="1" stop-color="#EECAB3"/></linearGradient><linearGradient gradientUnits="userSpaceOnUse" x1="-819.2" x2="819.2" gradientTransform="matrix(.005 .007 -.02 .014 134.05 174)" id="d"><stop offset="0" stop-color="#E7B18F"/><stop offset=".533" stop-color="#DFA168"/><stop offset="1" stop-color="#D98651"/></linearGradient><linearGradient gradientUnits="userSpaceOnUse" x1="-819.2" x2="819.2" gradientTransform="matrix(-.033 .008 -.04 -.161 143.75 356.45)" id="e"><stop offset="0" stop-color="#EBC0A5"/><stop offset=".533" stop-color="#F1D3C0"/><stop offset="1" stop-color="#EECAB3"/></linearGradient><linearGradient gradientUnits="userSpaceOnUse" x1="-819.2" x2="819.2" gradientTransform="matrix(-.043 .011 -.041 -.166 83.55 358.65)" id="f"><stop offset="0" stop-color="#EBC0A5"/><stop offset=".533" stop-color="#F1D3C0"/><stop offset="1" stop-color="#EECAB3"/></linearGradient><linearGradient gradientUnits="userSpaceOnUse" x1="-819.2" x2="819.2" gradientTransform="matrix(.119 0 0 .253 102.35 292.2)" id="g"><stop offset="0" stop-color="#D98651"/><stop offset=".533" stop-color="#DFA168"/><stop offset="1" stop-color="#D98651"/></linearGradient><linearGradient gradientUnits="userSpaceOnUse" x1="-819.2" x2="819.2" gradientTransform="matrix(.03 -.003 .004 .043 90.2 68.1)" id="h"><stop offset="0" stop-color="#EBC0A5"/><stop offset=".533" stop-color="#F1D3C0"/><stop offset="1" stop-color="#EECAB3"/></linearGradient><linearGradient gradientUnits="userSpaceOnUse" x1="-819.2" x2="819.2" gradientTransform="matrix(-.001 -.033 .002 0 114.95 49.3)" id="i"><stop offset="0" stop-color="#EBC0A5"/><stop offset=".533" stop-color="#F1D3C0"/><stop offset="1" stop-color="#EECAB3"/></linearGradient><radialGradient gradientUnits="userSpaceOnUse" r="819.2" cx="0" cy="0" spreadMethod="pad" gradientTransform="matrix(.046 0 0 .046 101.25 36.65)" id="j"><stop offset=".055" stop-color="#fc0"/><stop offset="1"/></radialGradient><radialGradient gradientUnits="userSpaceOnUse" r="819.2" cx="0" cy="0" spreadMethod="pad" gradientTransform="matrix(.096 0 0 .11 83.5 96.9)" id="k"><stop offset=".318" stop-color="#919191"/><stop offset=".694" stop-color="#E6E6E6"/><stop offset=".788" stop-color="#9D9D9D"/><stop offset="1"/></radialGradient><radialGradient gradientUnits="userSpaceOnUse" r="819.2" cx="0" cy="0" spreadMethod="pad" gradientTransform="matrix(.056 0 0 .056 101.15 41.1)" id="l"><stop offset=".318" stop-color="#fff"/><stop offset=".694" stop-color="#C0C0C0"/><stop offset=".788" stop-color="#9D9D9D"/><stop offset="1"/></radialGradient><radialGradient gradientUnits="userSpaceOnUse" r="819.2" cx="0" cy="0" spreadMethod="repeat" gradientTransform="matrix(.037 0 0 .037 75.85 171.1)" id="m"><stop offset="0" stop-color="#69c"/><stop offset=".929" stop-color="#600"/></radialGradient><radialGradient gradientUnits="userSpaceOnUse" r="819.2" cx="0" cy="0" spreadMethod="repeat" gradientTransform="matrix(.126 0 0 .126 -17.9 120.45)" id="n"><stop offset="0" stop-color="#69c"/><stop offset=".929" stop-color="#600"/></radialGradient><radialGradient gradientUnits="userSpaceOnUse" r="819.2" cx="0" cy="0" spreadMethod="repeat" gradientTransform="matrix(.093 0 0 .093 116.6 199.5)" id="o"><stop offset="0" stop-color="#69c"/><stop offset=".929" stop-color="#600"/></radialGradient><radialGradient gradientUnits="userSpaceOnUse" r="819.2" cx="0" cy="0" spreadMethod="repeat" gradientTransform="matrix(.118 0 0 .118 84.15 107)" id="p"><stop offset="0" stop-color="#69c"/><stop offset=".929" stop-color="#600"/></radialGradient><radialGradient gradientUnits="userSpaceOnUse" r="819.2" cx="0" cy="0" spreadMethod="repeat" gradientTransform="matrix(.027 0 0 .027 131.15 170)" id="q"><stop offset="0" stop-color="#69c"/><stop offset=".929" stop-color="#600"/></radialGradient><linearGradient gradientUnits="userSpaceOnUse" x1="-819.2" x2="819.2" gradientTransform="matrix(.055 0 0 .035 84.6 235.8)" id="r"><stop offset="0" stop-color="#39f"/><stop offset="1" stop-color="#4D4DC0"/></linearGradient><radialGradient gradientUnits="userSpaceOnUse" r="819.2" cx="0" cy="0" spreadMethod="pad" gradientTransform="matrix(.033 -.001 .001 .028 118.3 203.05)" id="s"><stop offset=".055" stop-color="#fc0"/><stop offset="1"/></radialGradient><linearGradient gradientUnits="userSpaceOnUse" x1="-819.2" x2="819.2" gradientTransform="matrix(.058 0 0 .047 89.1 261.35)" id="t"><stop offset="0" stop-color="#39f"/><stop offset="1" stop-color="#4D4DC0"/></linearGradient><linearGradient gradientUnits="userSpaceOnUse" x1="-819.2" x2="819.2" gradientTransform="matrix(.053 0 0 .052 95.35 277.8)" id="u"><stop offset="0" stop-color="#39f"/><stop offset="1" stop-color="#4D4DC0"/></linearGradient><radialGradient gradientUnits="userSpaceOnUse" r="819.2" cx="0" cy="0" spreadMethod="pad" gradientTransform="matrix(.018 0 0 .016 106.2 211.9)" id="v"><stop offset="0" stop-color="#fff"/><stop offset=".588" stop-color="#03f"/><stop offset="1"/></radialGradient><radialGradient gradientUnits="userSpaceOnUse" r="819.2" cx="0" cy="0" fx="307.2" fy="0" spreadMethod="pad" gradientTransform="matrix(.038 -.001 .001 .033 98.8 202.45)" id="w"><stop offset=".016" stop-color="#f00"/><stop offset=".906" stop-color="#900"/><stop offset="1"/></radialGradient><radialGradient gradientUnits="userSpaceOnUse" r="819.2" cx="0" cy="0" spreadMethod="pad" gradientTransform="matrix(.038 -.001 .001 .033 86.55 205.5)" id="x"><stop offset=".055" stop-color="#fc0"/><stop offset="1"/></radialGradient><radialGradient gradientUnits="userSpaceOnUse" r="819.2" cx="0" cy="0" spreadMethod="pad" gradientTransform="matrix(.002 0 0 .002 107.6 66.4)" id="y"><stop offset=".584" stop-color="#76777F"/><stop offset=".769" stop-color="#928272"/><stop offset="1"/></radialGradient><linearGradient gradientUnits="userSpaceOnUse" x1="-819.2" x2="819.2" gradientTransform="matrix(.002 0 0 .002 111.1 66.05)" id="z"><stop offset="0" stop-color="#fff"/><stop offset="1" stop-color="#999"/></linearGradient><linearGradient gradientUnits="userSpaceOnUse" x1="-819.2" x2="819.2" gradientTransform="matrix(-.002 .001 -.001 -.002 103.7 67.4)" id="A"><stop offset="0" stop-color="#fff"/><stop offset="1" stop-color="#999"/></linearGradient><linearGradient gradientUnits="userSpaceOnUse" x1="-819.2" x2="819.2" gradientTransform="matrix(-.002 0 0 -.002 84.5 67.7)" id="B"><stop offset="0" stop-color="#fff"/><stop offset="1" stop-color="#999"/></linearGradient><radialGradient gradientUnits="userSpaceOnUse" r="819.2" cx="0" cy="0" spreadMethod="pad" gradientTransform="matrix(.003 0 0 .003 88.45 67.45)" id="C"><stop offset=".506" stop-color="#76777F"/><stop offset=".71" stop-color="#928272"/><stop offset="1"/></radialGradient><linearGradient gradientUnits="userSpaceOnUse" x1="-819.2" x2="819.2" gradientTransform="matrix(.002 0 0 .002 93 67.85)" id="D"><stop offset="0" stop-color="#fff"/><stop offset="1" stop-color="#999"/></linearGradient><linearGradient gradientUnits="userSpaceOnUse" x1="-819.2" x2="819.2" gradientTransform="matrix(0 -.003 .009 0 97.1 90.15)" id="E"><stop offset="0" stop-color="#D58080"/><stop offset=".533" stop-color="#D88D8D"/><stop offset="1" stop-color="#DA9494"/></linearGradient><linearGradient gradientUnits="userSpaceOnUse" x1="-819.2" x2="819.2" gradientTransform="matrix(0 -.001 .009 0 97.5 87.65)" id="F"><stop offset="0" stop-color="#D58080"/><stop offset=".533" stop-color="#D88D8D"/><stop offset="1" stop-color="#DA9494"/></linearGradient><linearGradient gradientUnits="userSpaceOnUse" x1="-819.2" x2="819.2" gradientTransform="matrix(0 -.001 .009 0 97.5 87.65)" id="G"><stop offset="0" stop-color="#AC3839"/><stop offset=".533" stop-color="#C45555"/><stop offset="1" stop-color="#AE3C3B"/></linearGradient></defs><path fill="url(#a)" d="M103.85 100.45l-.1.1q-.15.5.1 1.75v.45q.2 3.15 1.3 5.8l2.65 1.2q3.45 1.45 7.65 2.6l2.4-.5.85-.1 4.3 5.3q3.8 5.5 3.8 9.8l2.85 6.1q2.45 4.85 4.65 8.05l-1.4-1.75q-3.05-4.25-4.75-7.5.85 3.95 3.6 11.05 1.3 3.35 1.85 6.75-2.55-1.25-5.7-1.55l-.05.1-4.95 12.4q-2.5 5.55-4.65 9.15-5.5-.65-8.25-5.05-2.1-3.35-3.75-12.1v.35l-.25-.75-.25-1.1q-.05-.9-1-2.9l-1.75-3.7v.05q-.35.85-.4 2.15v3.05l-1.7 9.15h-.15q-2.65 4.85-7.8 6.95-3.6 1.5-9 1.9l-1.7-2.7q-8.15-12.75-14-18.75l-.2-.2q-2.25.1-4.2.65-3.25.9-5.9 2.2v-1.75L58 139q.1-3.75.5-6.75l-1.6 2.8q.6-2.85.5-6.1-.25-6.5-4.15-8.7 1.65-.1 3.35-.05 3.65-2.45 10.6-5.6l6.25-2.65.3-.85 1.2-5.05 1-6.65.75-7.5-.2-.05.15-1.65q1.65 2.35 4.1 3.5l7.4 4.45q8.3 4.4 12.65 4.45l2.05-1.05 1-1.25v.15m-18.6 22.95q-2.95-3.85-12.25-4.35l-8.7.3 8.7-.3q9.3.5 12.25 4.35m-29 12.85q-2.7 5-4.65 10.7-1.75 5.05-2.3 9.3-2.35 0 2.95-13.6l4-6.4m-38.95 65.2q2.05-5.05 4.45-7.8.15-7.4 1.55-16.45 1.45 4.3 6.5 11.3 4.05 5.65 9.65 10l-.55 1.75q-.15 5.55-1.65 15.75l-1.45 9q-5 9.5-11.3 26.5-3.15 8.5-5.25 15.1l2.35 3.7q4 1.6 6.15 6 1.1 2.2 1.3 4.05-.15 1.2-2.2 3.7l-2.15 2.45.15.05 1 .45q.65 1.65.05 4.15l-.8 2.1q-.5 2.6-2.7 3.05l-2.1-.05q-3.65-.6-6.6-2-2.9-1.35-5.2-3.5-2.3-2.15-3.15-4.1-.75-2.2.15-8.95.4-2.95 1.15-6.8L13 242.55q-2.3-18.3 1.45-32.7 1-3.4 2.75-8.2l.1-.2M20.1 279q-.25 2.8 1.55 5.05 1.2 1.35 3.05 2.45-1.85-1.1-3.05-2.45-1.8-2.25-1.55-5.05h.75v-.05l-.15-1.8q-.25-1.7-.6 1.85m.75.55V279v.55m104.4-157.4q-.3 1.95.5 4.2l.85 1.85 1.25 3-1.25-3-.85-1.85q-.8-2.25-.5-4.2m12.5 23.35l.55.75q2.4 4.35 2.8 11.15l-.2-.45q-.5-5.2-3.15-11.45m-24.2-28.55q-3.5.5-6.65 2.3l-2.35 1.7 2.35-1.7q3.15-1.8 6.65-2.3m-13.3 10.9l-2.25 1.7-1.65.65-1.75-.05 1.75.05h.05q2.7-.3 3.85-2.35l.1-.2.7-2.05q.9-2.15 2.05-2.8-1.15.65-2.05 2.8l-.7 2.05-.1.2m-5.65 2.3l-.6-.3-.3-.25.3.3-.2.2.9.65q.45.25-.4-.6h.3m-6.8-3.9q.8.2 1.95.75 2.25 1 3.9 2.55l.05.05-.05-.05Q92 128 89.75 127q-1.15-.55-1.95-.75m64.6 54.5q1.9 1.15 3.95 5 4.3 7.95 5.3 22.3.7 8 2.1 17.2 2.7 18.35 5.9 24.3l2.05 2.9 4.1 6.6q5.65 10.1 2.55 13L175 274.8l-.9 3.3-5.15 2.95q-5.5 2.9-6.9 2.65l-1.25-1.4q-1.25-1.8-.95-3.75l3.75-4.9-2.9-10.05v8.95l-1.1 3.55-2.45 1.35q-1.25-2.9-2.4-6.55-2.3-7.15-1.6-10.65l4.65-6.2q.5-1.7.35-4.8-.25-6.15-3.2-13.3-4.4-5.7-9.1-14.15l.1-.3q-2.3-3.7-5.85-12.6l-2.65-7.2q-1.6-5.65-1.95-10.85l-1.9-2.05q.55-4.1 3.1-8.25l6.4.35q4.9.1 9.3-.15"/><path fill="url(#b)" d="M56.9 135.05l1.6-2.8q-.4 3-.5 6.75l-.05 8.1v1.75l-1.7.85q-4.95 2.75-6.75 6.5l-.2.05q.55-4.25 2.3-9.3 1.95-5.7 4.65-10.7l.55-.95.1-.25m27.05 32.6q5.4-.4 9-1.9 5.15-2.1 7.8-6.95h.15v.6q-.6 2.85-2.05 5.65l-1.65 3-.4.75-.25.25q-3.7 4.35-7.45 7.2l-5.15-8.6"/><path fill="url(#c)" d="M100.9 158.8l1.7-9.15v-3.05q.05-1.3.4-2.15v-.05l1.75 3.7q.95 2 1 2.9l.25 1.1.25.75q-1.3 17.25 3.3 20.6 1.85 1.35 3.9 2.2l-.45.25.8.2q-.1 12.65-4.55 16.4-2.2 1.85-4.45 1.25h-6.1q-4.7.6-7.5-8.2l-1.9-8.9-.2-.4q3.75-2.85 7.45-7.2l.25-.25.4-.75 1.65-3q1.45-2.8 2.05-5.65v-.6m-52.1 8.25l.05-.1v.2l-.05-.1m.1-1.2l.1-.75.2.75h-.3"/><path fill="url(#d)" d="M106.25 152.85v-.35q1.65 8.75 3.75 12.1 2.75 4.4 8.25 5.05-2.65 4.45-4.8 6-2.05-.85-3.9-2.2-4.6-3.35-3.3-20.6m27.35-3.3q-.55-3.4-1.85-6.75-2.75-7.1-3.6-11.05 1.7 3.25 4.75 7.5l1.4 1.75 1.7 2.25 1.75 2.25q2.65 6.25 3.15 11.45-.8-1.7-2.15-3.35-2.15-2.65-5.15-4.05"/><path fill="url(#e)" d="M154.95 367.45q1.45 4.85 2.65 10.85 2.1 10.75 2.55 20 1.35 5.75 8.4 21.8l6.8 14.9 2.5 1.45q2.85 1.5 3.3 5.25v.15q.15 1.9-.25 3.5l4.8 4.55 10.05 9.4q4.35 4.05 3.95 6.7-.2 1.35-1.25 1.9l-1.15 3.15q-1.8 4.2-4.95 9.55-3.1 5.4-6.85 5.45-1.2.05-2.3-.5l-.85-.5q-2.8-3-7.4-18.05l-4.05-14.45-2.7-2.35q-2.7-1.45-3.75-3.85l-.65-2.05q-.2-1.15-.05-2.4l.2-.95q-3.6-12.3-14.25-30.05l-6.95-10.9-3-4.35q-5.35-3.7-9.25-9.9 6.55-4 13.45-9.15 6.4-4.8 11-9.15"/><path fill="url(#f)" d="M106.85 398.6q-1.55 7.8-3.65 14.3-2.75 7-3 20.15-.1 4.7.1 8.65l.2 3.1 1 1.55q1.75 3.05 1.1 5.6-.4 1.6-1.4 2.45l1.75 6.75-1.55 6.25 5.1 16.2q1.35 6 .95 8.35-.4 2.35-1.45 3.45-.55.5-1 .6l-6.75 3.1-5.85.55-8.4-.55q-2.1-.8-3.75-4.05l-1.15-3.1L82 480.8q2.95-11.55 2.65-13.65-.25-2.1 1.1-8.15l1.35-5.7q-2.2-3.35-.75-5.8.4-.65 1-1.15l.2-.2.7-.4.05-4.05-.55-11.7-.85-11.8q-2.65-6.2-4.5-12 10.3-1.3 24-7.4l.45-.2"/><path fill="url(#g)" d="M20.85 278.95v.05h-.75l.75-.05"/><path fill="url(#h)" d="M114.1 78.9l-.05.2-.2 3.75v.05q-.8 3.2-3.6 7.9l-.25.4-1.05 1.6-1.35 2.05-.8 1.05-2.95 4.4-1 1.25-2.05 1.05q-4.35-.05-12.65-4.45l-7.4-4.45q-2.45-1.15-4.1-3.5-1.3-1.8-2.1-4.3l-.85-4.7-.1-.4.1-.2v-.1l-.25.1-.05.05.05-.05.25-.1v.05l-.1.25-.1.15-.1-.3q-2 1-3.35.05l-.95-1.15-.8-2.35-.15-.7h-.1l-2.55-7.25.8-4.2.85-.35h.45l.45.05h.05v-.15q.7 0 1.45.45l.05.05.25.25q1.2 1.3 3.8 7.9l2.4 6.35.35 1-.2-1.05.2 1.05-.35-1 .15-.05-1.3-6.9q-4-23.85 6.4-28.3 10.4-4.45 20.05 4.35 5.1-7.5 8.85-4.85 1.85 1.25 3.3 4.95l.5 5.15.15 4-.5 5.5.05.55-.1.5.25 2.2.25 4.5.05 7.3-.05.4m-4.8-17.05l1.65-.05 1.05.6.5.9.05-.95-2.1-1.55-1.1-.05-1.15.3-1.65.75-2.4.65q-.55.2-1.15 1.25l-.45 1.2 1.35-.45 5.4-2.6m1.35 4.3l.05.05.25-.35.15-.5v-.7l-.55.3.1-.2v-.4h-.1l-.45.3-.05-.7-.5.3-.4.15-.35-1-.7.65-.25-.4-.4.4-.2-.35-.5.6-.3-.55-.75.6-.6.4-.3-.2-.4.3-.2.05-.4.6-.3-.25-.3.95-.2.9-.1.15-.4.7 2.7.3 1.5.8.6-.3.35.35.1.05v-.25l.3-.1.25.25.55-.55.3-.5.15.05.35.1v-.2q.05-.15.2-.15l.2.1.3-.05v-.3h.5l.05-.2-.25-.25-.1-.1.3.05.15-.2-.15-.35-.2-.2v-.15m-8.4-2.35l.05-.05-.05-.1v.15m-17.5-2.3l-1.3.2-1.35 1-.65.5q-.45.3-.55.35l-.45.65-.1.1 1.25-.8 1.65-1.05q.7-.5 1.2-.25l1.55.5 1.6.65.85.55 1.7.65 2.35.55q1.6-.05 1.55-.8l-.25-.6-.9-.35-1-.35-1.25-.3-1.15-.15-1.3-.15-1.25-.35-.8-.25-1.4-.3m6.7 5.35l-.2-.3-.35-.45-.8-.5-.2-.3-.35.05-.15-.1-.15-.25-.4.2-.2.1-.5-.3q-.05 0-.25.15l-.25.2-.15-.2-.2-.15-.2.4-.3-.1-.15-.1-.4.2-.65-.35v.3h-.1l-.8-.65-.05 1.1-.65-.4-.15.7h-.05l-.3-.25h-.25l.05.7-1.05.05v.35q.3.95.8.95l.2.1-.4.4-.05.2.1.25.2-.15.35.2.3.4.35-.3.35.45.1.35.05.05.55-.35.1.3v.35l.5-.7v.95q.15-.25.7-.4l.8-.35.1.3.15-.05.25-.1.2.25.25.55.6-.75.05-.05.05.15.5-.5.45.65.4-.55.3.15.9-.7.4-.35.35-.05.65-.15-1.2-1.5-.1-.1h-.1m-1.6-.95l.05.05-.05-.05m8.7 16.2q2.95.65 3.95-1.2t.7-2.3q-1.9-4.85-2.2-9l-.05-2.35.15-.8-.15.8.05 2.35q.3 4.15 2.2 9 .3.45-.7 2.3-1 1.85-3.95 1.2m-2.7-.3l1.85.2.8-.45q-.75-.95-1.8-.45l-.85.7-.05.05q-1.6-.4-2-1.9l-.1-1.35.1 1.35q.4 1.5 2 1.9l.05-.05m-3.9 6.45q.35 0 1.55 1.55 1.25 1.65 4.9 1.95l1.8-.15 2.3-.85.35-.1q.8-.95 1.35-2.8l.2.1-.15-.25-.05.1.05-.1.15.25-.2-.15q-1.25-.9-1.9-.95l-.8-.05-1.45.55h-.5q-.8-.45-1.9-.5h-.85l-5.6 1.3v.1H91.95M69.6 65.1l-1.5-.35 1.5.35M73.55 80l.15.5-.15-.5m.15 1.2l1.45-1.25q0-.2-1.45.55 1.45-.75 1.45-.55L73.7 81.2"/><path fill="url(#i)" d="M115.5 63.5l.15-.2.35.15.7.55.1.25-.4 4.15-.8 1.5-.45 1.25.1.6q.4.3.7 3.05l.05 3.65-.05.3-.65.25-1.15-.5-.05-7.3h.6v-.1l.55-6.45.25-1.15m-1.8.5l.15 2.7-.25-2.2.1-.5m1 7.2l-.35 4.4-.25-4.4.25 4.4.35-4.4"/><path fill="url(#j)" d="M67.5 52.9l-.05.05v-6.8q5.8-11.05 15.2-12.45l7.05-.95.4-.05 1.15-.15 3.85-.3 9.3 1q6.25 1.05 8.55 5.65 2.1 4.35 1.4 8.05l-.1.45q.55-8.25-5.4-9.55l-.2-.05-6.4-1.35-4.9-.1q-12.1-1-19.7 5.05-7.6 6-10.15 11.5"/><path fill="url(#k)" d="M67.5 52.9q.35 2.05 1.65 7.25l.15 2.8q.15 1.45.5 2.2l.05.2-.25-.25-.05-.05q-.75-.45-1.45-.45l-.85.05-.1.05-.85.35-.8 4.2 2.55 7.25.25.7.8 2.35.95 1.15q1.35.95 3.35-.05l.1.3.1.3.65 4.2q.95 4.3 2.3 4.8-.85 10.5-1.6 15.8l-1.2 5.05-.15.15q-.55.55-8.2 4.05-7.45 3.35-8.3 4.5l-6.65-.4q-2.1-.3-5.05.1-2.55.35-5 1.25-11.1 2.85-14.4 11.8l-.5.05q-1.15 1.6-.75 4.25v.1q-.2 1.05-.25 2.2l-8.5.3q-1.2-4.75.25-8.35l1.65-2.65q3.1-2.35 3.95-7.3l.2-4.5q-3.8 0-9.3 1.55-2.75.75-4.75 1.5-.25-5 2.9-10.8l3.2-4.8q4.55.95 13.35-5.3l7.9-6.45q-.75.35-5.7-1.55-3.1-1.2-6.25-.9l-2.5.55q.45-5.45 6.2-10.9l5.6-4.3q-3.1-3.1-8.5-2.05l-4.8 1.65q-.25-4.65 10.8-8.9l6.8-2.5q2.6-1 1.4-1.5-2.35-.95-6.15-.55l-3.35.55q3.1-3.55 9.45-6.7 3.2-1.6 5.75-2.45-3.55-.7-6.5.15l-1.6.75v-.05q2.95-3.15 14.75-17.5 11.8-14.4 25.4-16 13.6-1.6 22.2 4.6l3.4.9q.6-1.25 5.3-.85 15.1 1.35 20.65 19l4.8 8.05q5.35 8.35 8.2 9.75-.3.95-1.6 1.35-1.7.55-4.45-.55-1.4-.55-3.1-1.55l2.65 2.6q2.95 3.9 4.6 10.3-1.4-1.3-3.3-2.15-3.8-1.7-6.2.65v.9q.2 1.25 1 2.8 2.55 4.9 10.4 11.1l3.45 5.65q3.4 6.1 3.4 8.45l-3.45-2.55q-4.1-2.65-7.2-3.15l.85 3.6q1.55 4.2 4.85 7.05l1.85 4.5q1.65 5.25.45 8.8l-1.05 3.2q-.8-2.95-2.1-4.8-1.3-1.9-2.95-2.5l-1.5-.35q-5.45-4.9-12.3-4.25l-.2.05-2.75-.5-7.2 1.55-9.15-3.8q-1.5-3.75-1.85-5.7-.25-1.25-.1-1.75l.1-.1 3.75-5.6 1.35-2.05 1.05-1.6.25-.4q3.6-5.75 3.6-7.9v-.05l.2-3.75.05-.2.1-.35q1.4.95 1.75.2l.05-.3-.05-3.65q-.3-2.75-.7-3.05l-.1-.6.45-1.25.8-1.5.4-4.15-.1-.25-.55-.7q-.3-.25-.5 0l-.15.2v-.25q0-11.45-1.15-16.3.7-3.7-1.4-8.05-2.3-4.6-8.55-5.65l-9.3-1-3.85.3-1.15.15-.4.05-7.05.95q-9.4 1.4-15.2 12.45v6.8l.05-.05"/><path fill="url(#l)" d="M67.5 52.9q2.55-5.5 10.15-11.5 7.6-6.05 19.7-5.05l4.9.1 6.4 1.35.2.05q5.95 1.3 5.4 9.55l.1-.45q1.15 4.85 1.15 16.3v.25l-.25 1.15-.55 6.45v.1h-.6l-.25-4.5-.15-2.7-.05-.55.5-5.5q.35-6.35-.5-8.65l-.15-.5q-1.45-3.7-3.3-4.95-3.75-2.65-8.85 4.85-9.65-8.8-20.05-4.35-10.4 4.45-6.4 28.3l1.3 6.9-.15.05-2.4-6.35q-2.6-6.6-3.8-7.9l-.05-.2q-.35-.75-.5-2.2l-.15-2.8q-1.3-5.2-1.65-7.25"/><path fill="#8E5027" d="M102.25 63.8v-.15l.05.1-.05.05"/><path fill="url(#m)" d="M57.95 148.85q2.65-1.3 5.9-2.2 1.95-.55 4.2-.65l.2.2q5.85 6 14 18.75l1.7 2.7 5.15 8.6.2.4q-17.3 10.9-30.45 1.15-4.1-3.05-7.3-7.8l-2.35-4.15-.2-.75-.15-.55q-1.15-4.3.35-7.75l.3-.6q1.8-3.75 6.75-6.5l1.7-.85"/><path fill="url(#n)" d="M24.5 139.15q.05-1.15.25-2.2 1.6-8.75 10.75-14 2.4-1.35 4.9-2.2 2.45-.9 5-1.25 2.95-.4 5.05-.1 1.45.2 2.5.7l.3.15q3.9 2.2 4.15 8.7.1 3.25-.5 6.1l-.1.25-.55.95-4 6.4q-5.3 13.6-2.95 13.6l.2-.05-.3.6q-1.5 3.45-.35 7.75l.15.55-.1.75-.05.95v.15l-.05.1-4.15 19-1.25-.7q-3.35-1.95-6.9-5.45-7.7-7.55-10.4-17.5l-.35-1.3v-.1q.2.55.15-1.4l-1.35-16.35q-.2-2.15-.05-4.1"/><path fill="#fff" fill-opacity=".451" d="M25.75 161.1l.35 1.3q2.7 9.95 10.4 17.5 3.55 3.5 6.9 5.45l1.25.7 1.35 1.8q1.45 2.15 1.9 4.05 1.45 6.05-7.65 7.2l-.8-.6q-5.6-4.35-9.65-10-5.05-7-6.5-11.3l-.55-2.1-.05-1q-.5-8.65 3.05-13m-8.45 40.35l-.1.2q-1.75 4.8-2.75 8.2l-.4 1.4q-7.1 3.95-11.6 25.4Q.15 247.4-.6 257.3q3.75 13.9-10.05 30.9-6.95 8.5-14.6 14.2-1-1.7-8.65-6.15-10.65-6.2-13.6-8.2-15.95-10.95-.6-15.7 15.8-4.85 23.9-15.85 2.55-3.4 4.05-7.05l.95-2.95q-2.25-16.15 18.5-37.05 6.45-6.5 14.45-12.75l7.95-3.2q-2.35 2.25-4.4 7.95m109.75-23.9l.3-.8.4-.05q9.1-2.2 12.6-11.35l.8-4.75q2.5 2.15 6.7.75l1-.25.75-.1q2.25-.05 3.3 2.1 1.8 3.6 2.05 10.9.15 3.65-.1 6.55l-2.45.2q-4.4.25-9.3.15l-6.4-.35q-5.95-.65-8.7-2.3l-.95-.7m18.8 44.25l-1.95 9.9q-2.3 10.4-4.9 12.45l-.05-.05-3.65-9.2 1.45-1.5q-3.7-3.75-6.2-8l-.5-.6-.25-.35q7.15-.85 7.7-12.65.2-3.7-.2-8.05l-.45-3.6.6 1.55 2.65 7.2q3.55 8.9 5.85 12.6l-.1.3m-7.1 24.7l5.7 13.95q2.8 10.05 4.6 29.55 1.8 19.5 9.35 42.7 3.8 11.6 7.2 19.3-1.95 7-10.65 15.45-4.6 4.35-11 9.15-6.9 5.15-13.45 9.15l-4.65 2.7q-8.25 5.35-19 10.15l-.45.2q-13.7 6.1-24 7.4-6.35.75-11.4-.25-13.3-2.65-19.35-10.85-1.9-2.55-2.85-5.35l-.55-2.3q3.7-1.65 7.45-6.55 7.6-9.8 8.2-26.1.6-16.3-1.3-27.25l-2.05-7.8.5-.3Q79.9 308 98.8 293.25l4.45-3.5q32.75-26.4 35.45-42.9l.05-.35m-86.1 55.9q-2.25.85-5 3.55l-2.55 2.7q1.45-6.2-4.1-17.8l-5.85-10.35 8.35-2.15q.75 3.1 1.85 6.7 2.15 6.95 3.6 15.05l2.85-.55.85 2.85"/><path fill="url(#o)" d="M48.85 166.95v-.15l.05-.95h.3l2.35 4.15q3.2 4.75 7.3 7.8 13.15 9.75 30.45-1.15l1.9 8.9q2.8 8.8 7.5 8.2h6.1q2.25.6 4.45-1.25 4.45-3.75 4.55-16.4l3.65.8 7.15.25 2.75-.4-.3.8-.05.25-4.2 11.2q-1.95 5.85-2.85 10.1-.2-.1-.25.2.05-.3.25-.2l-.05.25-.1.55-.05-.15-.05-.45h-.1q-1.05-.15-2.85.65-2.95 1.2-10.9.25l-3.25-2.15q-.45 0-3.95 2.8l-15.7.7-1.2.25-2.25.3q-1.65.2-10.95-.1l-3.45.3-4.6.95q-.1-.45-.2-.1-2.7-3.5-5.3-8.45-7-13.35-6.15-27.55v-.2m71.05 32.4l-.2-.05.2.05"/><path fill="url(#p)" d="M124.8 110.75l.2-.05q6.85-.65 12.3 4.25l1.5.35q1.65.6 2.95 2.5 1.3 1.85 2.1 4.8 1.7 6.4.95 17.85l4.8 20.55-.75.1-1 .25q-4.2 1.4-6.7-.75l.35-2.1-.4-1.1q-.4-6.8-2.8-11.15l-.55-.75-1.75-2.25-1.7-2.25q-2.2-3.2-4.65-8.05l-2.85-6.1q0-4.3-3.8-9.8l-4.3-5.3-.45-.55 2.9-.7 3.65.25m2.2 67.05l.05-.25.95.7q2.75 1.65 8.7 2.3-2.55 4.15-3.1 8.25l-.15 1.4q-1.75-2.4-3.45-5.2-2.9-4.9-3-7.2"/><path fill="url(#q)" d="M118.25 169.65q2.15-3.6 4.65-9.15l4.95-12.4.05-.1q3.15.3 5.7 1.55 3 1.4 5.15 4.05 1.35 1.65 2.15 3.35l.2.45.4 1.1-.35 2.1-.8 4.75q-3.5 9.15-12.6 11.35l-.4.05-2.75.4-7.15-.25-3.65-.8-.8-.2.45-.25q2.15-1.55 4.8-6"/><path fill="url(#r)" d="M41.55 263.8l-2.15.7q.6-16.1 4.7-26.6 4.05-10.5 9.2-14.7 3.6-2.85 6.5-3.5l.85-.15q.05.6.15-.05l.15.05 1.95.5q6.15 1.95 12.05 2.7 16.6 3.2 28.25 2.3l2.7 3.25q0-.85 2.3-3.85 2.7-.45 5.9-2.9 3.15-2.45 6.25-6.1l1.85-2.2 1.25-1.55-.55-1.2q3.25 3.35 4.15 6.45.9 2.95 2.75 5.25-.65.3-.8.35l.05-.1-.1.1v.1q-.35 1.35-1.15 1.35h-.2q-.55-.1-2.9 2.25l-4.85 5.2Q113 239.1 86.5 250.4l-11.35 4.55q-18.15 6.75-31.9 8.6l-1.7.25"/><path fill="url(#s)" d="M105.85 200.2q7.95.95 10.9-.25 1.8-.8 2.85-.65h.1l.05.45.05.15 2.3 8.85.8 1.75.55 1.2-1.25 1.55-1.85 2.2q-3.1 3.65-6.25 6.1-3.2 2.45-5.9 2.9l4-4.8 6.25-7q0-1.25-1.55-3.15-1.95-2.4-6.35-5.85l-4.7-3.45"/><path fill="url(#t)" d="M43.5 278.35q-2.3-9.15-1.95-14.55l1.7-.25q13.75-1.85 31.9-8.6l11.35-4.55q26.5-11.3 33.35-18.95l4.85-5.2q2.35-2.35 2.9-2.25h.2q.8 0 1.15-1.35.05.75.85 1.8l.25.35.5.6q2.5 4.25 6.2 8l-1.45 1.5-.45.4q-12.1 12.1-28.5 26l-11.75 9.75-1.2.95q-23.3 18.9-30.6 21.6-7.05 2.65-10.55 5.6l-.45.35-2.85.55q-1.45-8.1-3.6-15.05-1.1-3.6-1.85-6.7"/><path fill="url(#u)" d="M138.95 244.2l-.15 2.1-.05.2-.05.35q-2.7 16.5-35.45 42.9l-4.45 3.5Q79.9 308 61.05 319.45l-.5.3-1.6.95q-2.6-6.55-5.3-14.9l-1-3.4-.85-2.85.45-.35q3.5-2.95 10.55-5.6 7.3-2.7 30.6-21.6l1.2-.95 11.75-9.75q16.4-13.9 28.5-26l.45-.4 3.65 9.2v.1"/><path fill="url(#v)" d="M105.05 203.25l4.1 2.6 4.1 3.4 1.7 2.05 1.15 1.45-3 2.3-3.3 2.7-2.9 3q-1.45 1.5-1.65 2.55l-1.45-2.4-1.55-1.85-1.8-1.8q-1.5-1.35-4.7-3.2l-4.4-2.3q.75-2.15 5.55-6.1 3.9-3.25 5.6-3.95l2.55 1.55m-3.05 7.6v3.8h-.75q-.4-1.5-.4-4.6.4.4 1.15.8-.75-.4-1.15-.8 0 3.1.4 4.6h.75v-3.8"/><path fill="url(#w)" d="M98.65 200.85q3.5-2.8 3.95-2.8l3.25 2.15 4.7 3.45q4.4 3.45 6.35 5.85 1.55 1.9 1.55 3.15l-6.25 7-4 4.8q-2.3 3-2.3 3.85l-2.7-3.25-4.65-4.55-1.25-1.05q-6.7-5.65-11.75-6.65v-1l10.7-9 2.4-1.95m6.4 2.4l-2.55-1.55q-1.7.7-5.6 3.95-4.8 3.95-5.55 6.1l4.4 2.3q3.2 1.85 4.7 3.2l1.8 1.8 1.55 1.85 1.45 2.4q.2-1.05 1.65-2.55l2.9-3 3.3-2.7 3-2.3-1.15-1.45-1.7-2.05-4.1-3.4-4.1-2.6"/><path fill="url(#x)" d="M60.3 203.15q.1-.35.2.1l4.6-.95 3.45-.3q9.3.3 10.95.1l2.25-.3 1.2-.25 15.7-.7-2.4 1.95-10.7 9v1q5.05 1 11.75 6.65l1.25 1.05 4.65 4.55q-11.65.9-28.25-2.3-5.9-.75-12.05-2.7l-1.95-.5-.15-.05-.15-.05-.75-.2-.25-.05.05-8.35q.35-6.85.6-7.7"/><path fill="#630" d="M109.3 61.85l-5.4 2.6-1.35.45.45-1.2q.6-1.05 1.15-1.25l2.4-.65 1.65-.75 1.15-.3 1.1.05 2.1 1.55-.05.95-.5-.9-1.05-.6-1.65.05m-24.55-.35l1.4.3.8.25 1.25.35 1.3.15 1.15.15 1.25.3 1 .35.9.35.25.6q.05.75-1.55.8l-2.35-.55-1.7-.65-.85-.55-1.6-.65-1.55-.5q-.5-.25-1.2.25L81.6 63.5l-1.25.8.1-.1.45-.65q.1-.05.55-.35l.65-.5 1.35-1 1.3-.2"/><path fill="#240C08" d="M103 67.1l.2-.9.3-.95.3.25.4-.6.2-.05.4-.3.3.2.6-.4.75-.6.3.55.5-.6.2.35.4-.4.25.4.7-.65.35 1 .4-.15.5-.3.05.7.45-.3h.1v.4l-.1.2.55-.3v.7l-.15.5-.25.35-.05-.05-1.6-1.15q-1.25-.55-2.45-.35-1 .15-2 .85l-1.6 1.6m7.65-.8l.2.2.15.35-.15.2-.3-.05.1.1.25.25-.05.2h-.5v.3l-.3.05-.2-.1q-.15 0-.2.15v.2l-.35-.1-.15-.05-.3.5-.55.55-.25-.25-.3.1v.25l-.1-.05-.35-.35-.6.3-1.5-.8 1.7-.05 2.15-.6.25-.1 1.35-1.2m-27.6 1.6q-.5 0-.8-.95v-.35l1.05-.05-.05-.7h.25l.3.25h.05l.15-.7.65.4.05-1.1.8.65h.1v-.3l.65.35.4-.2.15.1.3.1.2-.4.2.15.15.2.25-.2q.2-.15.25-.15l.5.3.2-.1.4-.2.15.25.15.1.35-.05.2.3.8.5.35.45.2.3-1.55-.9-.05-.05-2.55-.2-.8.2-2.4 1.25-1.05.75m8.8.75l-.4.35-.9.7-.3-.15-.4.55-.45-.65-.5.5-.05-.15-.05.05-.6.75-.25-.55-.2-.25-.25.1-.15.05-.1-.3-.8.35q-.55.15-.7.4v-.95l-.5.7v-.35l-.1-.3-.55.35-.05-.05-.1-.35-.35-.45-.35.3-.3-.4-.35-.2-.2.15-.1-.25.05-.2.4-.4q1.5 1 4 1.15l2-.1.6-.05 2-.35"/><path fill="url(#y)" d="M106.6 64.65q1.2-.2 2.45.35.4.55.45 1.25l-.45 1.35-2.15.6-.65-.45q-.6-.5-.65-1.35-.05-.8.55-1.4l.45-.35m1.9 1.45l.25-.2.1-.35-.15-.4-.4-.1q-.25 0-.4.15l-.1.25-.25-.05q-.4 0-.65.3l-.2.65.25.65.7.25q.4 0 .6-.3l.3-.65-.05-.2"/><path fill="#fff" d="M108.5 66.1l-.15.05q-.25 0-.4-.2l-.15-.35v-.15l.1-.25q.15-.15.4-.15l.4.1.15.4-.1.35-.25.2m-19.65.5l.05-.35q.15-.15.4-.15.2 0 .35.15l.25.4-.2.4-.35.15-.4-.15-.1-.4v-.05"/><path d="M88.85 66.6v.05l.1.4.4.15.05.2q.05.4-.25.7-.25.25-.65.3l-.65-.25-.3-.7q0-.35.25-.65l.65-.25.4.05m19.65-.5l.05.2-.3.65q-.2.3-.6.3l-.7-.25-.25-.65.2-.65q.25-.3.65-.3l.25.05v.15l.15.35q.15.2.4.2l.15-.05"/><path fill="url(#z)" d="M110.65 66.15v.15l-1.35 1.2-.25.1.45-1.35q-.05-.7-.45-1.25l1.6 1.15"/><path fill="url(#A)" d="M105.2 68.25l-2.7-.3.4-.7.1-.15 1.6-1.6q1-.7 2-.85l-.45.35q-.6.6-.55 1.4.05.85.65 1.35l.65.45-1.7.05"/><path fill="url(#B)" d="M83.25 68l-.2-.1 1.05-.75 2.4-1.25.8-.2-.35.35q-.55.6-.55 1.45.05.85.65 1.45l.2.2q-2.5-.15-4-1.15"/><path fill="url(#C)" d="M87.3 65.7l2.55.2.05.05q.65.55.65 1.4.05.85-.55 1.5l-.15.15-.6.05-2 .1-.2-.2q-.6-.6-.65-1.45 0-.85.55-1.45l.35-.35m1.55.9l-.4-.05-.65.25q-.25.3-.25.65l.3.7.65.25q.4-.05.65-.3.3-.3.25-.7l-.05-.2.35-.15.2-.4-.25-.4q-.15-.15-.35-.15-.25 0-.4.15l-.05.35"/><path fill="url(#D)" d="M91.45 66.85h.1l.1.1 1.2 1.5-.65.15-.35.05-2 .35.15-.15q.6-.65.55-1.5 0-.85-.65-1.4l1.55.9"/><path fill="#a50" d="M95.85 81.8l.85-.7q1.05-.5 1.8.45l-.8.45-1.85-.2"/><path fill="url(#E)" d="M91.95 88.25l2.8-.15 3.15.35h1.95q2.3-.15 3.8-.85l.55.25q-.55 1.85-1.35 2.8l-.35.1-2.3.85-1.8.15q-3.65-.3-4.9-1.95-1.2-1.55-1.55-1.55"/><path fill="url(#F)" d="M91.95 88.25h-.75v-.1l5.6-1.3h.85q1.1.05 1.9.5h.5l1.45-.55.8.05q.65.05 1.9.95v.05l-.55-.25q-1.5.7-3.8.85H97.9l-3.15-.35-2.8.15"/><path fill="url(#G)" d="M104.2 87.85v-.05l.2.15-.2-.1"/><path fill="none" stroke="#DC8D5F" stroke-width=".05" stroke-linecap="round" stroke-linejoin="round" d="M103.85 100.3v.15M76.65 90.2l-.15 1.65m.2.05l-.75 7.5-1 6.65m-1.2 5.05l-.3.85-6.25 2.65q-6.95 3.15-10.6 5.6-1.7-.05-3.35.05m3.65 14.8l1.6-2.8m47.75 20.6v-.35m21.9-20.75q1.7 3.25 4.75 7.5l1.4 1.75m-15.6-29.25l-.85.1-2.4.5q-4.2-1.15-7.65-2.6l-2.65-1.2q-1.1-2.65-1.3-5.8v-.45M64.3 119.35l8.7-.3q9.3.5 12.25 4.35m-29 12.85q-2.7 5-4.65 10.7-1.75 5.05-2.3 9.3m-26 20.95q-1.4 9.05-1.55 16.45-2.4 2.75-4.45 7.8m-2.85 8.4q-3.75 14.4-1.45 32.7L6.65 270.9q-.75 3.85-1.15 6.8-.9 6.75-.15 8.95.85 1.95 3.15 4.1 2.3 2.15 5.2 3.5 2.95 1.4 6.6 2l2.1.05q2.2-.45 2.7-3.05l.8-2.1q.6-2.5-.05-4.15l-1-.45-.15-.05q-1.85-1.1-3.05-2.45-1.8-2.25-1.55-5.05.35-3.55.6-1.85l.15 1.8V279.55m27.95-112.5l.05.1m79-35.95l-1.25-3-.85-1.85q-.8-2.25-.5-4.2m12.5 23.35q2.65 6.25 3.15 11.45m-36.35-36l2.35-1.7q3.15-1.8 6.65-2.3m-17.2 13.25l1.65-.65 2.25-1.7.1-.2.7-2.05q.9-2.15 2.05-2.8m-9.4 6.8l.3.25.6.3 1.75.05h.05q2.7-.3 3.85-2.35M94 129.9l-.3-.3-.05-.05Q92 128 89.75 127q-1.15-.55-1.95-.75m6.8 3.9h-.3q.85.85.4.6l-.9-.65m.2-.2l.3.25-.5-.05m-4.7 46.15q3.75-2.85 7.45-7.2l.25-.25.4-.75m16.25 7.6q-2.05-.85-3.9-2.2-4.6-3.35-3.3-20.6m46.15 27.9q1.9 1.15 3.95 5 4.3 7.95 5.3 22.3.7 8 2.1 17.2 2.7 18.35 5.9 24.3l2.05 2.9 4.1 6.6q5.65 10.1 2.55 13L175 274.8l-.9 3.3-5.15 2.95q-5.5 2.9-6.9 2.65l-1.25-1.4q-1.25-1.8-.95-3.75l3.75-4.9-2.9-10.05v8.95l-1.1 3.55-2.45 1.35q-1.25-2.9-2.4-6.55-2.3-7.15-1.6-10.65l4.65-6.2q.5-1.7.35-4.8-.25-6.15-3.2-13.3-4.4-5.7-9.1-14.15m9.1 145.65q1.45 4.85 2.65 10.85 2.1 10.75 2.55 20 1.35 5.75 8.4 21.8l6.8 14.9 2.5 1.45q2.85 1.5 3.3 5.25v.15q.15 1.9-.25 3.5l4.8 4.55 10.05 9.4q4.35 4.05 3.95 6.7-.2 1.35-1.25 1.9l-1.15 3.15q-1.8 4.2-4.95 9.55-3.1 5.4-6.85 5.45-1.2.05-2.3-.5l-.85-.5q-2.8-3-7.4-18.05l-4.05-14.45-2.7-2.35q-2.7-1.45-3.75-3.85l-.65-2.05q-.2-1.15-.05-2.4l.2-.95q-3.6-12.3-14.25-30.05l-6.95-10.9-3-4.35q-5.35-3.7-9.25-9.9m-23.65 12.85q-1.55 7.8-3.65 14.3-2.75 7-3 20.15-.1 4.7.1 8.65l.2 3.1 1 1.55q1.75 3.05 1.1 5.6-.4 1.6-1.4 2.45l1.75 6.75-1.55 6.25 5.1 16.2q1.35 6 .95 8.35-.4 2.35-1.45 3.45-.55.5-1 .6l-6.75 3.1-5.85.55-8.4-.55q-2.1-.8-3.75-4.05l-1.15-3.1L82 480.8q2.95-11.55 2.65-13.65-.25-2.1 1.1-8.15l1.35-5.7q-2.2-3.35-.75-5.8.4-.65 1-1.15l.2-.2.7-.4.05-4.05-.55-11.7-.85-11.8q-2.65-6.2-4.5-12m51.2-217.4l1.9 2.05q.35 5.2 1.95 10.85M102 210.85q-.75-.4-1.15-.8 0 3.1.4 4.6h.75v-3.8M24.7 286.5l2.15-2.45q2.05-2.5 2.2-3.7-.2-1.85-1.3-4.05-2.15-4.4-6.15-6l-2.35-3.7q2.1-6.6 5.25-15.1 6.3-17 11.3-26.5l1.45-9q1.5-10.2 1.65-15.75l.55-1.75"/><path fill="none" stroke="#DC9265" stroke-width=".05" stroke-linecap="round" stroke-linejoin="round" d="M113.5 48.8l.5 5.15.15 4M116.7 64l-.7-.55-.35-.15m-1.95.7l-.1.5.25 2.2m.25 12.2l.05-.4-.05-7.3m.05 7.3l1.15.5.65-.25m-12.1 21.55l2.95-4.4.8-1.05m2.65-4.05q2.8-4.7 3.6-7.9M68.1 64.75h-.05l-.45-.05h-.45m.95-.1v.15l1.5.35m4.1 15.4l-.15-.5m.15.55v-.05m0 .7l.85 4.7q.8 2.5 2.1 4.3 1.65 2.35 4.1 3.5l7.4 4.45q8.3 4.4 12.65 4.45l2.05-1.05 1-1.25M73.7 80.55v.05l-.1.2.1.4m-.2-.25l.1-.15.1-.25m-5.65-4.05h.1l.15.7"/><path fill="none" stroke="#666" stroke-width=".05" stroke-linecap="round" stroke-linejoin="round" d="M68.3 77.2l-.25-.7-2.55-7.25.8-4.2.85-.35.1-.05.85-.05q.7 0 1.45.45l.05.05.25.25m44.5-18.4q.7-3.7-1.4-8.05-2.3-4.6-8.55-5.65l-9.3-1-3.85.3-1.15.15-.4.05-7.05.95q-9.4 1.4-15.2 12.45v6.8l.05-.05q2.55-5.5 10.15-11.5 7.6-6.05 19.7-5.05l4.9.1 6.4 1.35.2.05q5.95 1.3 5.4 9.55l.1-.45m1.15 16.55l.15-.2q.2-.25.5 0l.55.7.1.25-.4 4.15-.8 1.5-.45 1.25.1.6q.4.3.7 3.05l.05 3.65-.05.3q-.35.75-1.75-.2l-.1.35-.05.2-.2 3.75m0 .05q0 2.15-3.6 7.9l-.25.4-1.05 1.6-1.35 2.05-3.75 5.6-.1.1q-.15.5.1 1.75.35 1.95 1.85 5.7l9.15 3.8 7.2-1.55 2.75.5m19.05 11.85l1.05-3.2q1.2-3.55-.45-8.8l-1.85-4.5q-3.3-2.85-4.85-7.05l-.85-3.6q3.1.5 7.2 3.15l3.45 2.55q0-2.35-3.4-8.45l-3.45-5.65q-7.85-6.2-10.4-11.1-.8-1.55-1-2.8v-.9q2.4-2.35 6.2-.65 1.9.85 3.3 2.15-1.65-6.4-4.6-10.3l-2.65-2.6q1.7 1 3.1 1.55 2.75 1.1 4.45.55 1.3-.4 1.6-1.35-2.85-1.4-8.2-9.75l-4.8-8.05q-5.55-17.65-20.65-19-4.7-.4-5.3.85l-3.4-.9q-8.6-6.2-22.2-4.6-13.6 1.6-25.4 16Q38.95 50.5 36 53.65v.05l1.6-.75q2.95-.85 6.5-.15-2.55.85-5.75 2.45-6.35 3.15-9.45 6.7l3.35-.55q3.8-.4 6.15.55 1.2.5-1.4 1.5l-6.8 2.5q-11.05 4.25-10.8 8.9l4.8-1.65q5.4-1.05 8.5 2.05l-5.6 4.3q-5.75 5.45-6.2 10.9l2.5-.55q3.15-.3 6.25.9 4.95 1.9 5.7 1.55l-7.9 6.45q-8.8 6.25-13.35 5.3l-3.2 4.8q-3.15 5.8-2.9 10.8 2-.75 4.75-1.5 5.5-1.55 9.3-1.55l-.2 4.5q-.85 4.95-3.95 7.3l-1.65 2.65q-1.45 3.6-.25 8.35l8.5-.3m.25-2.2v-.1q-.4-2.65.75-4.25m.5-.05q3.3-8.95 14.4-11.8m10.05-1.35l6.65.4q.85-1.15 8.3-4.5 7.65-3.5 8.2-4.05l.15-.15 1.2-5.05q.75-5.3 1.6-15.8-1.35-.5-2.3-4.8l-.65-4.2m-.2-.6q-2 1-3.35.05l-.95-1.15-.8-2.35m45.2-28.4q-1.45-3.7-3.3-4.95-3.75-2.65-8.85 4.85-9.65-8.8-20.05-4.35-10.4 4.45-6.4 28.3l1.3 6.9.2 1.05-.35-1-2.4-6.35q-2.6-6.6-3.8-7.9m44.3-7.4q.35-6.35-.5-8.65l-.15-.5m.65 9.15l-.5 5.5.05.55.15 2.7.25 4.5.25 4.4.35-4.4v-.1l.55-6.45.25-1.15M36 53.7q-1.5 1.5-.65.25l.65-.25m37.4 26.95l.05-.05.25-.1q1.45-.75 1.45-.55L73.7 81.2l-.1.05M25.75 161.1l.35 1.3q2.7 9.95 10.4 17.5 3.55 3.5 6.9 5.45l1.25.7m-18.9-24.95q-3.55 4.35-3.05 13l.05 1 .55 2.1q1.45 4.3 6.5 11.3 4.05 5.65 9.65 10l.8.6q9.1-1.15 7.65-7.2-.45-1.9-1.9-4.05l-1.35-1.8m96.5-25.45q2.5 2.15 6.7.75l1-.25.75-.1q2.25-.05 3.3 2.1 1.8 3.6 2.05 10.9.15 3.65-.1 6.55l-2.45.2q-4.4.25-9.3.15l-6.4-.35q-5.95-.65-8.7-2.3l-.95-.7m18.8 44.25l-1.95 9.9q-2.3 10.4-4.9 12.45l-.05.05m-.2 2.3l5.7 13.95q2.8 10.05 4.6 29.55 1.8 19.5 9.35 42.7 3.8 11.6 7.2 19.3-1.95 7-10.65 15.45m-24.45 18.3l-4.65 2.7q-8.25 5.35-19 10.15m-24.45 7.6q-6.35.75-11.4-.25-13.3-2.65-19.35-10.85-1.9-2.55-2.85-5.35l-.55-2.3q3.7-1.65 7.45-6.55 7.6-9.8 8.2-26.1.6-16.3-1.3-27.25l-2.05-7.8m-7.9-17.35q-2.25.85-5 3.55l-2.55 2.7q1.45-6.2-4.1-17.8l-5.85-10.35 8.35-2.15m93.95-76.65l2.65 7.2q3.55 8.9 5.85 12.6l-.1.3m-8.4-20.1l-.6-1.55.45 3.6q.4 4.35.2 8.05-.55 11.8-7.7 12.65m8.95 22.05l-.05.35q-2.7 16.5-35.45 42.9l-4.45 3.5Q79.9 308 61.05 319.45l-.5.3m69.95 66q6.55-4 13.45-9.15 6.4-4.8 11-9.15M82.4 406.2q10.3-1.3 24-7.4l.45-.2"/><path fill="none" stroke="#552117" stroke-width=".05" stroke-linecap="round" stroke-linejoin="round" d="M124.8 110.75l.2-.05q6.85-.65 12.3 4.25l1.5.35q1.65.6 2.95 2.5 1.3 1.85 2.1 4.8M24.5 139.15q.05-1.15.25-2.2m15.65-16.2q2.45-.9 5-1.25 2.95-.4 5.05-.1m2.8.85q3.9 2.2 4.15 8.7.1 3.25-.5 6.1m1.05 13.8q2.65-1.3 5.9-2.2 1.95-.55 4.2-.65l.2.2q5.85 6 14 18.75l1.7 2.7m34.3 2q2.15-3.6 4.65-9.15l4.95-12.4.05-.1q3.15.3 5.7 1.55m.7-8.55q-2.2-3.2-4.65-8.05l-2.85-6.1q0-4.3-3.8-9.8l-4.3-5.3-.45-.55 2.9-.7 3.65.25m-71.55 9.5l-.3-.15q-1.05-.5-2.5-.7m5.8 16.85l.55-.95.1-.25m-7.6 21.2l.2-.05q1.8-3.75 6.75-6.5l1.7-.85m-8.65 7.4q-2.35 0 2.95-13.6l4-6.4m-15.85-15.5q-2.5.85-4.9 2.2-9.15 5.25-10.75 14m-.25 2.2q-.15 1.95.05 4.1l1.35 16.35q.05 1.95-.15 1.4v.1m18.9 24.95l4.15-19 .05-.1v-.15l.05-.95.1-.75-.15-.55q-1.15-4.3.35-7.75l.3-.6m-.3 9.65l-.2-.75m-.15 2.05v-.2m.35-1.1l2.35 4.15q3.2 4.75 7.3 7.8 13.15 9.75 30.45-1.15l-.2-.4-5.15-8.6m-35.1-.5Q48 181.35 55 194.7q2.6 4.95 5.3 8.45m59.65-4.05q.9-4.25 2.85-10.1l4.2-11.2.05-.25.3-.8-2.75.4-7.15-.25-3.65-.8q-.1 12.65-4.55 16.4-2.2 1.85-4.45 1.25h-6.1q-4.7.6-7.5-8.2l-1.9-8.9m48.45-31.15l-1.75-2.25-1.7-2.25m6.8 16.4q-.4-6.8-2.8-11.15l-.55-.75m3.15 11.45l.2.45.4 1.1-.35 2.1-.8 4.75q-3.5 9.15-12.6 11.35l-.4.05M149.6 161l-4.8-20.55q.75-11.45-.95-17.85m-30.4 53.05l-.45.25.8.2m4.45-6.45q-2.65 4.45-4.8 6m-52.8 43.9v-.1m80.25-62.5q-.8-1.7-2.15-3.35-2.15-2.65-5.15-4.05m0 39.25l-.15 1.4q-1.75-2.4-3.45-5.2-2.9-4.9-3-7.2m9.7 2.75q-2.55 4.15-3.1 8.25m-13.7 10.55l.05-.25m-.05.25l-.1.55m9.15 22.75l.05-.1h-.05"/><path fill="none" stroke="#333" stroke-width=".05" stroke-linecap="round" stroke-linejoin="round" d="M17.3 201.45l-.1.2q-1.75 4.8-2.75 8.2m2.85-8.4q2.05-5.7 4.4-7.95l-7.95 3.2q-8 6.25-14.45 12.75-20.75 20.9-18.5 37.05l-.95 2.95q-1.5 3.65-4.05 7.05-8.1 11-23.9 15.85-15.35 4.75.6 15.7 2.95 2 13.6 8.2 7.65 4.45 8.65 6.15 7.65-5.7 14.6-14.2 13.8-17 10.05-30.9.75-9.9 3.05-20.65 4.5-21.45 11.6-25.4l.4-1.4"/><path fill="none" stroke="#000" stroke-width=".05" stroke-linecap="round" stroke-linejoin="round" d="M60.5 203.25l4.6-.95m14.4-.2l2.25-.3m37.95-2.5q.05-.3.25-.2l.45.45M59.65 219.2l.05-8.35m63.2-.35l.55 1.2m-.55-1.2l-.8-1.75m-2.35-9l-.05-.45m-34.15 12.5v1"/><path fill="none" stroke="#3440AD" stroke-width=".05" stroke-linecap="round" stroke-linejoin="round" d="M81.75 201.8l1.2-.25 15.7-.7q3.5-2.8 3.95-2.8l3.25 2.15q7.95.95 10.9-.25 1.8-.8 2.85-.65h.1l.2.05m19.05 44.85l-.15 2.1-.05.2m-78.2 73.25l-1.6.95q-2.6-6.55-5.3-14.9l-1-3.4m-9.15-24.05q-2.3-9.15-1.95-14.55l-2.15.7q.6-16.1 4.7-26.6 4.05-10.5 9.2-14.7 3.6-2.85 6.5-3.5l.85-.15m0-.1l-.75-.2-.25-.05m70.15 5.25l.25.35.5.6q2.5 4.25 6.2 8l-1.45 1.5 3.65 9.2m-15.5-32.4l-1.25 1.55-1.85 2.2q-3.1 3.65-6.25 6.1-3.2 2.45-5.9 2.9-2.3 3-2.3 3.85l-2.7-3.25q-11.65.9-28.25-2.3-5.9-.75-12.05-2.7l-1.95-.5-.15-.05q-.1.65-.15.05m68.3 3.1v-.1l.1-.1-.05.1q.15-.05.8-.35-1.85-2.3-2.75-5.25-.9-3.1-4.15-6.45m-2.5-10.95l-.4-.2h-.1M41.55 263.8l1.7-.25q13.75-1.85 31.9-8.6l11.35-4.55q26.5-11.3 33.35-18.95l4.85-5.2q2.35-2.35 2.9-2.25h.2q.8 0 1.15-1.35.05.75.85 1.8m9.15 19.75v-.1m-3.65-9.2l-.45.4q-12.1 12.1-28.5 26l-11.75 9.75-1.2.95q-23.3 18.9-30.6 21.6-7.05 2.65-10.55 5.6l-.45.35.85 2.85m8-82.95l.15.05m-17.3 58.85q.75 3.1 1.85 6.7 2.15 6.95 3.6 15.05l2.85-.55"/><path fill="none" stroke="#473900" stroke-width=".05" stroke-linecap="round" stroke-linejoin="round" d="M60.3 203.15q.1-.35.2.1m-.8 7.6q.35-6.85.6-7.7m61.8 5.6l-2.3-8.85-.05-.15m-11.55 24.7l4-4.8 6.25-7q0-1.25-1.55-3.15-1.95-2.4-6.35-5.85l-4.7-3.45m-7.2.65l-2.4 1.95-10.7 9m0 1q5.05 1 11.75 6.65l1.25 1.05 4.65 4.55"/><path fill="none" stroke="#001777" stroke-width=".05" stroke-linecap="round" stroke-linejoin="round" d="M105.05 203.25l-2.55-1.55q-1.7.7-5.6 3.95-4.8 3.95-5.55 6.1l4.4 2.3q3.2 1.85 4.7 3.2l1.8 1.8 1.55 1.85 1.45 2.4q.2-1.05 1.65-2.55l2.9-3 3.3-2.7 3-2.3-1.15-1.45-1.7-2.05-4.1-3.4-4.1-2.6"/><path fill="none" stroke="#572029" stroke-width=".05" stroke-linecap="round" stroke-linejoin="round" d="M65.1 202.3l3.45-.3q9.3.3 10.95.1"/><path fill="none" stroke="#8E5027" stroke-width=".05" stroke-linecap="round" stroke-linejoin="round" d="M105.2 68.25l-2.7-.3.4-.7.1-.15 1.6-1.6q1-.7 2-.85m2.45 2.95l.25-.1 1.35-1.2m-3.75 1.9l-.65-.45q-.6-.5-.65-1.35-.05-.8.55-1.4l.45-.35m.3 3.55l-1.7.05m-13.75-1.4h.1l.1.1 1.2 1.5-.65.15-.35.05m-8.8-.75l1.05-.75 2.4-1.25.8-.2m2.6.25l1.55.9M89.85 69l.15-.15q.6-.65.55-1.5 0-.85-.65-1.4M89.85 69l2-.35m12.35 19.2l-.55-.25q-1.5.7-3.8.85H97.9l-3.15-.35-2.8.15q.35 0 1.55 1.55 1.25 1.65 4.9 1.95l1.8-.15 2.3-.85.35-.1q.8-.95 1.35-2.8v-.05q-1.25-.9-1.9-.95l-.8-.05-1.45.55h-.5q-.8-.45-1.9-.5h-.85l-5.6 1.3m0 .1H91.95m12.45-.3l-.2-.1m0-.05l.05-.1.15.25-.2-.15"/><path fill="none" stroke="#CC7942" stroke-width=".05" stroke-linecap="round" stroke-linejoin="round" d="M101.1 66.45l-.15.8.05 2.35q.3 4.15 2.2 9 .3.45-.7 2.3-1 1.85-3.95 1.2m-2.7-.3l-.05.05q-1.6-.4-2-1.9l-.1-1.35"/></svg>