<svg xmlns="http://www.w3.org/2000/svg" viewBox="0 0 17.2 20.0" width="17.2" height="20"><defs><linearGradient gradientUnits="userSpaceOnUse" x1="-819.2" x2="819.2" spreadMethod="reflect" gradientTransform="matrix(0 -.001 .003 -.001 8.45 3.3)" id="a"><stop offset="0" stop-color="#808080"/><stop offset="1" stop-color="#ccc"/></linearGradient><linearGradient gradientUnits="userSpaceOnUse" x1="-819.2" x2="819.2" spreadMethod="reflect" gradientTransform="matrix(0 0 0 .003 5.1 7.65)" id="b"><stop offset="0" stop-color="#9D9D9D"/><stop offset="1" stop-color="#ccc"/></linearGradient><linearGradient gradientUnits="userSpaceOnUse" x1="-819.2" x2="819.2" spreadMethod="reflect" gradientTransform="matrix(0 0 0 .001 3.4 3.55)" id="c"><stop offset="0" stop-color="#737373"/><stop offset="1" stop-color="#ccc"/></linearGradient><linearGradient gradientUnits="userSpaceOnUse" x1="-819.2" x2="819.2" spreadMethod="reflect" gradientTransform="matrix(0 .001 -.002 .001 2.45 15.15)" id="d"><stop offset="0" stop-color="#555"/><stop offset="1" stop-color="#ccc"/></linearGradient><radialGradient gradientUnits="userSpaceOnUse" r="819.2" cx="0" cy="0" spreadMethod="reflect" gradientTransform="matrix(.008 0 0 .008 16.6 19.6)" id="e"><stop offset=".459" stop-color="#E6E6E6"/><stop offset="1" stop-color="#A6A6A6"/></radialGradient><linearGradient gradientUnits="userSpaceOnUse" x1="-819.2" x2="819.2" spreadMethod="reflect" gradientTransform="matrix(.004 0 0 .001 13.5 18.85)" id="f"><stop offset="0" stop-color="#A2A2A2"/><stop offset="1" stop-color="#A6A6A6"/></linearGradient><linearGradient gradientUnits="userSpaceOnUse" x1="-819.2" x2="819.2" spreadMethod="reflect" gradientTransform="matrix(.002 -.001 .004 .01 6.9 12.55)" id="g"><stop offset="0" stop-color="#555"/><stop offset="1" stop-color="#ccc"/></linearGradient><radialGradient gradientUnits="userSpaceOnUse" r="819.2" cx="0" cy="0" spreadMethod="reflect" gradientTransform="matrix(.013 0 0 .013 8.5 11.65)" id="h"><stop offset=".459" stop-color="#9D9D9D"/><stop offset="1" stop-color="#373737"/></radialGradient></defs><path fill="#ccc" d="M8.65 5.65l-.7-.05-1.6.3-.15-.4.6-.15.5-.45v-.05l.5.25.85.55M17 18.55l.1.05-.05.15-.2.65-3.2.25-.85-.25-.45-.25.3-.05 1.55.05 1.35.1.9-.15.2-.45.35-.1"/><path fill="#fff" d="M11.85 16.95q-.1-.2-.05-.5v-.25q1-.85 1.25 0l.05 1.05q-1 .3-1.25-.3"/><path fill="url(#a)" d="M6 3.8l.8-.5.85-.95.55-.9Q8.95.45 9.8 0h.35l.1 1.35q.05 1.55-.6 2.3l.25.15.55.4q.75.75.75 1.85h-.9l-1.65-.4-.85-.55-.5-.25v-.5l-.75-.6L6 3.8"/><path fill="url(#b)" d="M6.35 5.9l.45.95q.4.9.55.85h.2l.1.4.15 1.25-.2.65-.6-.1-.45-.2-.95-.5-.55-.25q-1.35-.3-2.1-1.15l-.4-.5-.35-.8-.1-.35q.65-.7 1.45-.65l.7.2L6 5.3l.2.2.15.4"/><path fill="url(#c)" d="M2.25 4.9l.05-2.05 1.8.1q1.8.2 1.9.85-.9 0-2.4.55l-1.35.55"/><path fill="url(#d)" d="M2.85 15.85l-.6-.15-.35-.1-1.45-1 .4-.1 1.4-.25.25-.05.75.85.3.3q.65.55 1 .5l-.75.05-.95-.05"/><path fill="url(#e)" d="M17.1 18.6l.05.05.05.8-1.45.45-3.65-.2-1.3-.2-.95-.6.2.05.5.2q.8.2 1-.25.35.3.8.25l.45.25.85.25 3.2-.25.2-.65.05-.15"/><path fill="url(#f)" d="M16.9 17.8l-.15.2q-.1.25.25.55l-.35.1-.2.45-.9.15-1.35-.1-1.55-.05.1-.05.6-.4q.95-.65 2.4-.85l1.15-.05v.05"/><path fill="url(#g)" d="M17 17.7v.05h-.1l.1-.05"/><path fill="url(#h)" d="M17 17.7l-.1.05-1.15.05q-1.45.2-2.4.85l-.6.4-.1.05-.3.05q-.45.05-.8-.25-.2.45-1 .25l-.5-.2-.2-.05-1-.55-.65-.5-1.95-1.35L6 14.05l2.35-.55-2.35.55.25 2.45 1.95 1.35.65.5q-.4-1.2.1-2.55l.4-.8.2-.4-.2.4-.4.8q-.5 1.35-.1 2.55l1 .55.95.6-1.25-.25q-2.8-.65-4.35-2.1L3 18.65l-.75.25q-.9.15-1.65-.35l.4-.95q.45-.8 1.25-1.4l.6-.35.95.05.75-.05q-.35.05-1-.5l-.3-.3-.75-.85-.25-.25-1.3-1.8q-1.4-2.4-.7-4.4l.25-.8q.5-1 1.75-2.05l1.35-.55Q5.1 3.8 6 3.8l.55-.05.75.6v.55l-.5.45-.6.15-.2-.2-1.75.4-.7-.2q-.8-.05-1.45.65l.1.35.35.8.4.5q.75.85 2.1 1.15l.55.25.95.5.45.2.6.1.2-.65.35.2.9.65q1.45 1.1 2.15 2.45l.85.4 1.6 1.45 1.45.65.25.25.2.7.2.05q.25.05.45.25.6.5.8 1.3M5.3 15.6l-.75.25.75-.25m7.65 2.25q-.95 0-1.25.55l-.15.5.15-.5q.3-.55 1.25-.55m-1.1-.9q.25.6 1.25.3l-.05-1.05q-.25-.85-1.25 0v.25q-.05.3.05.5"/><path fill="none" stroke="#7F7F7F" stroke-width=".05" stroke-linecap="round" stroke-linejoin="round" d="M11.85 16.95q.25.6 1.25.3l-.05-1.05q-.25-.85-1.25 0v.25q-.05.3.05.5"/><path fill="none" stroke="#666" stroke-width=".05" stroke-linecap="round" stroke-linejoin="round" d="M6 3.8l.8-.5.85-.95.55-.9Q8.95.45 9.8 0h.35l.1 1.35q.05 1.55-.6 2.3l.25.15.55.4q.75.75.75 1.85h-.9l-1.65-.4-.7-.05-1.6.3.45.95q.4.9.55.85h.2l.1.4.15 1.25m5.85 5.15l1.45.65.25.25.2.7.2.05q.25.05.45.25.6.5.8 1.3v.05l-.1.05-.15.2q-.1.25.25.55l.1.05.05.05.05.8-1.45.45-3.65-.2-1.3-.2M3 18.65l-.75.25q-.9.15-1.65-.35l.4-.95q.45-.8 1.25-1.4l.6-.35-.6-.15-.35-.1-1.45-1 .4-.1 1.4-.25.25-.05-.25-.25-1.3-1.8q-1.4-2.4-.7-4.4l.25-.8q.5-1 1.75-2.05l.05-2.05 1.8.1q1.8.2 1.9.85l.55-.05.75.6v.5l.5.25.85.55M6.2 5.5L6 5.3l-1.75.4-.7-.2q-.8-.05-1.45.65l.1.35.35.8.4.5q.75.85 2.1 1.15l.55.25.95.5.45.2.6.1.2-.65m-.5-4.5v.05l-.5.45-.6.15.15.4M6 3.8q-.9 0-2.4.55l-1.35.55m6.1 8.6L6 14.05l.25 2.45 1.95 1.35.65.5q-.4-1.2.1-2.55l.4-.8.2-.4m-5 1.25l.75-.25m-.75.25l-.75.05-.95-.05m7 3.05l.2.05.5.2q.8.2 1-.25l.15-.5q.3-.55 1.25-.55m-3.1 1.05l-1-.55m8.15-.6h-.1l-1.15.05q-1.45.2-2.4.85l-.6.4-.1.05 1.55.05 1.35.1.9-.15.2-.45.35-.1m-4.65.6l.45.25.85.25 3.2-.25.2-.65.05-.15m-5.55.3q.35.3.8.25l.3-.05m-2.8-.2l.95.6"/><path fill="none" stroke="#939393" stroke-width=".05" stroke-linecap="round" stroke-linejoin="round" d="M7.8 9.35l.35.2.9.65q1.45 1.1 2.15 2.45l.85.4 1.6 1.45"/><path fill="none" stroke="#707070" stroke-width=".05" stroke-linecap="round" stroke-linejoin="round" d="M10.8 19.5l-1.25-.25q-2.8-.65-4.35-2.1L3 18.65m-.5-4.45l.75.85.3.3q.65.55 1 .5"/></svg>