<svg xmlns="http://www.w3.org/2000/svg" viewBox="0 0 76.9 112.5" width="76.9" height="112.5"><defs><radialGradient gradientUnits="userSpaceOnUse" r="819.2" cx="0" cy="0" spreadMethod="unknown" gradientTransform="matrix(.037 0 0 .037 24.35 53.15)" id="a"><stop offset="0" stop-color="#DCAAFE"/><stop offset=".945" stop-color="#A92DFD"/></radialGradient><radialGradient gradientUnits="userSpaceOnUse" r="819.2" cx="0" cy="0" spreadMethod="unknown" gradientTransform="matrix(.043 0 0 .043 49.55 86.35)" id="b"><stop offset="0" stop-color="#7D41A5"/><stop offset=".945" stop-color="#510187"/></radialGradient><linearGradient gradientUnits="userSpaceOnUse" x1="-819.2" x2="819.2" spreadMethod="unknown" gradientTransform="matrix(.049 -.002 .003 .069 38.45 56.2)" id="c"><stop offset="0" stop-color="#bbb" stop-opacity=".553"/><stop offset=".322" stop-color="#fff" stop-opacity=".153"/><stop offset="1" stop-color="#888" stop-opacity=".553"/></linearGradient></defs><path fill="url(#a)" d="M9.95 52.25q2.15-.9 8.15-1.7l20.5-1.2 20.4 1.2q7.45 1.05 8.45 2.45v.05l.1.35q0 1.7-8.55 2.85l-20.4 1.2-20.5-1.2Q9.65 55.1 9.65 53.4l.15-.4-.2-.15v-.05l.35-.55"/><path fill="url(#b)" d="M67.65 53.35l1.2 1.65.7 1 1.15 1.55q4.75 6.8 5.85 15l.3 5.05q0 15.15-11.25 25.9-5.1 4.85-11.1 7.5-16.05 2.95-32.1 0-6.05-2.65-11.15-7.5Q0 92.75 0 77.6q0-11.25 6.2-20.1L7.35 56l2.25-3.15.2.15-.15.4q0 1.7 8.45 2.85l20.5 1.2 20.4-1.2q8.55-1.15 8.55-2.85l.1-.05"/><path fill="url(#c)" d="M54.9 5.9h-1.35Q52 30.1 67.5 53v.05l.1.35.1-.05L68.9 55l.7 1 1.15 1.55q4.75 6.8 5.85 15l.3 5.05q0 15.15-11.25 25.9-5.1 4.85-11.1 7.5-16.1 2.95-32.15 0-6.05-2.65-11.15-7.5Q0 92.75 0 77.6q0-11.25 6.2-20.1L7.35 56l2.25-3.15v-.05l.35-.55.2-.3q14.7-22.4 13.2-46.05h-1.3q-1.45 0-2.5-.85-1-.85-1-2.1t1-2.1Q20.6 0 22.05 0 40.3 2.7 54.9 0q1.45 0 2.45.85 1.05.85 1.05 2.1t-1.05 2.1q-1 .85-2.45.85"/><path fill="none" stroke="#ccc" stroke-width=".05" stroke-linecap="round" stroke-linejoin="round" d="M67.45 53Q51.95 30.1 53.5 5.9h1.35q1.45 0 2.45-.85 1.05-.85 1.05-2.1T57.3.85Q56.3 0 54.85 0q-14.6 2.7-32.8 0-1.45 0-2.5.85-1 .85-1 2.1t1 2.1q1.05.85 2.5.85h1.3q1.5 23.65-13.2 46.05l-.2.3q2.15-.9 8.15-1.7l20.5-1.2 20.4 1.2q7.45 1.05 8.45 2.45l.2.35m-58.05-.5v-.05l.35-.55m57.5.75v.05l.1.35"/><path fill="none" stroke="#2E0747" stroke-width=".05" stroke-linecap="round" stroke-linejoin="round" d="M67.65 53.35l1.2 1.65.7 1 1.15 1.55q4.75 6.8 5.85 15l.3 5.05q0 15.15-11.25 25.9-5.1 4.85-11.1 7.5-16.05 2.95-32.1 0-6.05-2.65-11.15-7.5Q0 92.75 0 77.6q0-11.25 6.2-20.1L7.35 56l2.25-3.15"/></svg>