<svg xmlns="http://www.w3.org/2000/svg" viewBox="0 0 195.0 193.2" width="195" height="193.2"><defs><linearGradient gradientUnits="userSpaceOnUse" x1="-819.2" x2="819.2" gradientTransform="matrix(-.012 -.012 .089 -.089 119.35 71.65)" id="a"><stop offset="0" stop-color="#ccc"/><stop offset="1" stop-color="#666"/></linearGradient><linearGradient gradientUnits="userSpaceOnUse" x1="-819.2" x2="819.2" gradientTransform="matrix(.013 .013 -.089 .089 125.05 76.7)" id="b"><stop offset="0" stop-color="#eee"/><stop offset="1" stop-color="#666"/></linearGradient></defs><path fill="url(#a)" d="M195 0q-17.15 29.1-47.15 61.2-15.05 16.1-26.6 26.35-6.25 4.8-26.45 25.15l-19 19.35q-2.65 2.2-19.1 20.2-1.4-.55-8.15-7.15L195 0"/><path fill="url(#b)" d="M195 0L48.55 145.1l-.3-.2-6.85-6.95.5-.45q17.55-15.75 19.7-18.35l19.45-18.9q20.45-20.1 25.3-26.3 10.5-11.7 26.85-26.85Q165.75 16.95 195 0"/><path fill="#666" d="M48.55 145.1q6.75 6.6 8.15 7.15v.05l6.6 6.65-5.3 5.1-6.9-6-3.55-3.35q-4.7 6.25-16.05 15.95l-10.45 8.55-.8-.3-1.95-1.2q-2.9-2.2-4.3-5.85 3.45-3.9 8.3-8.85 9.75-10.1 17.4-16.2l-9.8-10.6 2.9-2.95 2.05-2.05 7.05 6.3-.5.45 6.85 6.95.3.2M18.7 181.85l-7.5 10h-.05l-1.65-.4q-2-.55-3.65-1.5-5.15-3.2-4.4-9.2l10.05-6.55.05-.05q.9 3.05 4.1 5.7l2.15 1.5.9.5m16.15-50.65q4.75 6.65 17.05 17.85l8 7.1 3.4 2.8-3.4-2.8-8-7.1q-12.3-11.2-17.05-17.85m12.7 23.5l-7.85-7.9 7.85 7.9"/><path fill="#ccc" d="M56.7 152.25v.05-.05"/><path fill="#333" d="M21.05 179.2q-.05 1.3-1.2 2.15l-1.15.5-.9-.5-2.15-1.5q-3.2-2.65-4.1-5.7v-.05l.4-.95q.7-1.1 2.05-1.3 1.4 3.65 4.3 5.85l1.95 1.2.8.3m-9.9 12.65l-.95 1.35-1.75-.35q-2.1-.6-3.75-1.6-5.3-3.2-4.65-9.55l1.4-.95q-.75 6 4.4 9.2 1.65.95 3.65 1.5l1.65.4"/><path fill="none" stroke="#ccc" stroke-width=".05" stroke-linecap="round" stroke-miterlimit="3" d="M56.7 152.25q16.45-18 19.1-20.2l19-19.35q20.2-20.35 26.45-25.15 11.55-10.25 26.6-26.35Q177.85 29.1 195 0M56.7 152.25v.05-.05M41.9 137.5q17.55-15.75 19.7-18.35l19.45-18.9q20.45-20.1 25.3-26.3 10.5-11.7 26.85-26.85Q165.75 16.95 195 0M41.9 137.5l-.5.45"/><path fill="none" stroke="#333" stroke-width=".05" stroke-linecap="round" stroke-miterlimit="3" d="M41.4 137.95l6.85 6.95.3.2q6.75 6.6 8.15 7.15m0 .05l6.6 6.65-5.3 5.1-6.9-6-3.55-3.35q-4.7 6.25-16.05 15.95l-10.45 8.55m-2.35 2.65l-7.5 10h-.05m-9.7-11.1l10.05-6.55m2.5-2.35q3.45-3.9 8.3-8.85 9.75-10.1 17.4-16.2l-9.8-10.6 2.9-2.95 2.05-2.05 7.05 6.3m21.4 21.45l-3.4-2.8-8-7.1q-12.3-11.2-17.05-17.85m4.85 15.6l7.85 7.9"/><path fill="none" stroke="#999" stroke-width=".05" stroke-linecap="round" stroke-miterlimit="3" d="M21.05 179.2q-.05 1.3-1.2 2.15l-1.15.5m-7.55 10l-.95 1.35-1.75-.35q-2.1-.6-3.75-1.6-5.3-3.2-4.65-9.55l1.4-.95m10.05-6.55l.05-.1.4-.95q.7-1.1 2.05-1.3m-2.45 2.3v-.05"/></svg>