<svg xmlns="http://www.w3.org/2000/svg" viewBox="0 0 26.1 64.0" width="26.1" height="64"><defs><linearGradient gradientUnits="userSpaceOnUse" x1="-819.2" x2="819.2" gradientTransform="matrix(0 -.018 .016 0 13.1 46.35)" id="a"><stop offset="0" stop-color="#5E8188"/><stop offset="1" stop-color="#9D9DA1"/></linearGradient><linearGradient gradientUnits="userSpaceOnUse" x1="-819.2" x2="819.2" gradientTransform="matrix(0 -.001 .002 -.001 12.05 44.4)" id="b"><stop offset="0" stop-color="#DEA265"/><stop offset="1" stop-color="#9F6224"/></linearGradient><linearGradient gradientUnits="userSpaceOnUse" x1="-819.2" x2="819.2" gradientTransform="matrix(0 .001 -.002 .001 13.4 49.3)" id="c"><stop offset="0" stop-color="#DEA265"/><stop offset="1" stop-color="#9F6224"/></linearGradient><linearGradient gradientUnits="userSpaceOnUse" x1="-819.2" x2="819.2" gradientTransform="matrix(-.001 -.002 .002 -.001 12.6 46.45)" id="d"><stop offset="0" stop-color="#E0A56B"/><stop offset="1" stop-color="#AD6A27"/></linearGradient></defs><path fill="#666" d="M26.1 32.35l-.2 4.1-11.15 5.6-1.95 1-.05-4.4 13.35-6.3-13.35 6.3.05 4.4L10.95 42 .4 36.1.3 36 0 31.95l.5-.45 11.85-11.15.05-.05.5-.45 13.2 12.5M0 31.95l12.75 6.7L0 31.95m12.75 6.7l.15-18.8-.15 18.8"/><path fill="#ccc" d="M20.5 13.65l-.1 2.85-5.15-.5-5.25.4-.05-2.9v-.05l2.65-.2-2.65.2v-.05l2.65-.15 2.6-.2h.05l5.25.5v.1M15.9 0l7.4 7.6-8.05 5.45L15.9.1V0"/><path fill="#333" d="M20.4 16.5l2 .7v.1l-.05 2.05-1.75.6.05.1 5.45 12.3-11.75-11.9-1.45-.6-.5.45-.05.05L.5 31.5l7.8-11.7 1 .1-.05-3.15v-.1l.75-.25 5.25-.4 5.15.5m-7.5 3.35l1.45.6 11.75 11.9-13.2-12.5m-3.6.05l3.1.4-3.1-.4m5.05.55l6.25-.5-6.25.5"/><path fill="#999" d="M23.25 7.7l-1.95 4.2-.8 1.65-5.25-.5h-.05l-2.6.2-2.65.15L8.6 7.6v-.05l-.05-.1L15.9 0v.1l-.65 12.95L23.3 7.6l-.05.1m-8.05 5.35L8.6 7.6l6.6 5.45m-2.4 30l1.95-1 2.95.05v1.2l-4.9-.1v-.15.15l-4.5-.1.15-1.15 2.5.05 1.85 1.05M8.6 7.55L15.9.1 8.6 7.55"/><path fill="#fff" d="M12.8 43.2l4.9.1-.1 7.8-9.1-.2-.2-7.8 4.5.1m1.15 1.75l.3-.35-.35-.95-.2-.1-3.55 1.2v.65l.25.5.4.15.75 3.1-.05.05-.05.2q-.1.4.25 1.15l3.75-1.25-.1-.65-.25-.55-.3-.1-.85-3.05"/><path fill="url(#a)" d="M25.9 36.45L24.6 64l-5.8-.15.1-6.7-5.75-4.65L8 56.55l-.5.35.25 6.7-5.7-.15L.3 36.1h.1L10.95 42l-2.5-.05-.15 1.15.2 7.8 9.1.2.1-7.8v-1.2l-2.95-.05 11.15-5.6"/><path fill="#618289" d="M8 56.55l.15 4.35-.4 2.7-.25-6.7.5-.35"/><path fill="url(#b)" d="M10.8 46.05l-.4-.15-.25-.5v-.65l3.55-1.2.2.1.35.95-.3.35-3.15 1.1"/><path fill="url(#c)" d="M14.8 48l.3.1.25.55.1.65-3.75 1.25q-.35-.75-.25-1.15l.05-.2.05-.05L14.8 48"/><path fill="url(#d)" d="M14.8 48l-3.25 1.15-.75-3.1 3.15-1.1.85 3.05"/><path fill="#7A4A1B" d="M13.25 47.7v-.1l-.45-.8-1.25.2-.05-.2.75-.3.45-.15 1.25-.3-.05.2-.15.25v.25l-.05.25-.25-.5-.55.15.5.35.05.65-.05.2-.3.25-1.3.05.2-.35.65.1.6-.2"/><path fill="none" stroke="#575757" stroke-width=".05" stroke-miterlimit="10" d="M22.35 19.35v.1l-1.7.6m5.45 12.3l-.2 4.1M.3 36.1V36L0 31.95l.5-.45m7.8-11.7l1 .1m11.3.05l.05.1m-7.75-.2l-.5.45-.05.05L.5 31.5m12.4-11.65l13.2 12.5-13.35 6.3.05 4.4 1.95-1 11.15-5.6M.4 36.1L10.95 42l1.85 1.05v.15l4.9.1v-1.2l-2.95-.05M8.3 43.1l.15-1.15 2.5.05M8.3 43.1l4.5.1m-.05-4.55L0 31.95m12.9-12.1l-.15 18.8m4.95 4.65l-.1 7.8-9.1-.2-.2-7.8"/><path fill="none" stroke="#618289" stroke-width=".05" stroke-miterlimit="10" d="M25.9 36.45L24.6 64m-22.55-.55L.3 36.1"/><path fill="none" stroke="#58787F" stroke-width=".05" stroke-miterlimit="10" d="M24.6 64l-5.8-.15.1-6.7-5.75-4.65L8 56.55l.15 4.35-.4 2.7-5.7-.15M8 56.55l-.5.35.25 6.7"/><path fill="none" stroke="#282828" stroke-width=".05" stroke-miterlimit="10" d="M22.4 17.3l-.05 2.05m-1.7.7l5.45 12.3-11.75-11.9-1.45-.6M.5 31.5l7.8-11.7m1 .1l-.05-3.15m11.35 3.2l-6.25.5"/><path fill="none" stroke="#282828" stroke-width=".05" stroke-linecap="round" stroke-linejoin="round" d="M12.4 20.3l-3.1-.4"/><path fill="none" stroke="#666" stroke-width=".05" stroke-miterlimit="10" d="M23.25 7.7l-1.95 4.2-.8 1.75-.1 2.85-5.15-.5m-5.25.4l-.05-2.9-1.4-5.95M15.9 0l7.4 7.6m-2.8 5.95l-5.25-.5L23.3 7.6M15.9.1l-.65 12.95"/><path fill="none" stroke="#666" stroke-width=".05" stroke-linecap="round" stroke-linejoin="round" d="M15.25 13.05h-.05l-2.6.2-2.65.2m-1.4-5.9h.05m0 .05l6.6 5.45M8.6 7.6l-.05-.05m6.7 8.45l-5.25.4M15.9.1L8.6 7.55"/><path fill="none" stroke="#B97837" stroke-width=".05" stroke-linecap="round" stroke-linejoin="round" d="M13.95 44.95l.3-.35-.35-.95-.2-.1-3.55 1.2v.65l.25.5.4.15 3.15-1.1.85 3.05m.3.1l.25.55.1.65-3.75 1.25m-.15-1.4l-.75-3.1"/><path fill="none" stroke="#C7833F" stroke-width=".05" stroke-linecap="round" stroke-linejoin="round" d="M14.8 48l.3.1m-3.4 2.45q-.35-.75-.25-1.15l.05-.2.05-.05"/><path fill="none" stroke="#D79A5F" stroke-width=".05" stroke-linecap="round" stroke-linejoin="round" d="M11.55 49.15L14.8 48"/><path fill="none" stroke="#7A4A1B" stroke-width=".05" stroke-linecap="round" stroke-linejoin="round" d="M13.25 47.7l-.6.2-.65-.1-.2.35 1.3-.05.3-.25.05-.2-.05-.65-.5-.35.55-.15.25.5.05-.25v-.25l.15-.25.05-.2-1.25.3-.45.15-.75.3.05.2 1.25-.2.45.8v.1"/></svg>