<svg xmlns="http://www.w3.org/2000/svg" viewBox="-1 -1 18 14.3" width="16" height="12.3"><path fill="none" stroke="#fff" stroke-width="2" stroke-linecap="round" stroke-linejoin="round" d="M12.65.45q1.25.8 1 2.85l-.3 1.15-.7.9q2.25.6 3.2 2.55l.15.6q-.55.65-1.6.85l-2.1.3.5 1.2v.05q-.7.75-1.95.95l-1.2.2-5.4.15q-2.35-.2-4-1-.25-.15-.25-.5.75-2.15 2.65-3.15.85-.45 1.95-.6-1.35-1.2-1.25-3.7 0-.5.15-.9.75-2.15 3.6-2l.95.2.75.45q.85-1.2 2.8-.95l1.05.4m-.35 9.2l-1.5-1.6q-.95-.7-2.05-1l-.2-.1 1.05-1.4.15-.25q.3-1.05.15-2.35l-.25-.8-.4-.6L8.8 1"/></svg>