<svg xmlns="http://www.w3.org/2000/svg" viewBox="0 0 244.3 194.3" width="244.3" height="194.3"><defs><linearGradient gradientUnits="userSpaceOnUse" x1="-819.2" x2="819.2" gradientTransform="matrix(.005 .004 .01 -.012 202.1 13.55)" id="a"><stop offset="0" stop-color="#2B1E11"/><stop offset="1" stop-color="#A37243"/></linearGradient><linearGradient gradientUnits="userSpaceOnUse" x1="-819.2" x2="819.2" gradientTransform="matrix(.021 .021 .04 -.039 206 66.05)" id="b"><stop offset="0" stop-color="#555"/><stop offset="1" stop-color="#bbb"/></linearGradient><linearGradient gradientUnits="userSpaceOnUse" x1="-819.2" x2="819.2" gradientTransform="matrix(-.002 -.002 -.036 .028 183.6 30.5)" id="c"><stop offset="0" stop-color="#555"/><stop offset="1" stop-color="#bbb"/></linearGradient><linearGradient gradientUnits="userSpaceOnUse" x1="-819.2" x2="819.2" gradientTransform="matrix(-.012 -.012 -.026 .025 155.95 21.6)" id="d"><stop offset="0" stop-color="#555"/><stop offset="1" stop-color="#bbb"/></linearGradient><linearGradient gradientUnits="userSpaceOnUse" x1="-819.2" x2="819.2" gradientTransform="matrix(.005 .006 .086 -.069 90.65 116.05)" id="e"><stop offset="0" stop-color="#2B1E11"/><stop offset="1" stop-color="#A37243"/></linearGradient><linearGradient gradientUnits="userSpaceOnUse" x1="-819.2" x2="819.2" gradientTransform="matrix(-.004 -.003 -.01 .014 14.95 182.9)" id="f"><stop offset="0" stop-color="#555"/><stop offset="1" stop-color="#bbb"/></linearGradient></defs><path fill="#ddd" d="M233.1 28.15q2.4 1.8 5.6 1 1.95-.5 3.35-1.5 6.2 32.5-4.7 52.45-8.7 15.9-27.9 23.1-13.65 5.2-31.25 5.45l-10.65-.35-4.1-.4q6-2.25 6.95-7.75.5-2.95-.4-5.5l3.35.55 8.7.6q14.2.4 25.3-3.7 15.4-5.75 22.25-19.55 8.3-16.7 3.5-44.4M123.75 30.5l-1.2.15-5.6.9Q128.5 11.3 156.8 5.15q14.15-3.1 26.1-2.15-.95 1.5-1.1 3.3-10.55-.25-23.1 2.6-25.1 5.7-34.95 21.6"/><path fill="url(#a)" d="M187.35 17.4L202.2.45q4-1.95 8.55 4.25 1.5 2 2.75 4.5l1 2.35q-.05.45-17.35 13.9l-.25-.15-5.05-3.6q-3.9-2.9-4.5-4.3"/><path fill="url(#b)" d="M196.9 25.3l.25.15Q206 32 220 30.4q7.05-.8 12.3-2.9l.8.65q4.8 27.7-3.5 44.4-6.85 13.8-22.25 19.55-11.1 4.1-25.3 3.7l-8.7-.6-3.35-.55q17.75-21.3 8.05-33.75-3-3.9-8.4-6.45l-4.8-1.8L196.9 25.3"/><path fill="url(#c)" d="M196.9 25.3l-32.05 27.35-6.25 6.3q-.9-5.05-3.8-7.35-1.4-1.15-2.6-1.3l.4-.4 7.8-7.5 26.05-26 .9 1.05v-.05q.6 1.4 4.5 4.3l5.05 3.6"/><path fill="url(#d)" d="M160.4 42.4Q155 30.8 135.45 30l-11.7.5q9.85-15.9 34.95-21.6 12.55-2.85 23.1-2.6v.3q-.1 3.45 2.7 7.5l1.95 2.3-26.05 26"/><path fill="url(#e)" d="M158.6 58.95l-100.65 91.4-29.6 26.9-.6-.05q-2.5-.45-4.55-1.5-4.65-2.25-1.95-5.7l31.9-29.25-.1.15.25-.25 98.9-90.35q1.2.15 2.6 1.3 2.9 2.3 3.8 7.35M53.05 140.9l-.15.2v-.05l.15-.15-.15.15v.05l.15-.2"/><path fill="url(#f)" d="M27.75 177.2l-1.55 3.1q-4 1.9-5.55 3.55l-2.85 4.8q-2.65 3.8-7.1 5.3-4.55 1.5-8.1-3.4-1.75-2.45-2.6-5.2l5.6-4.95 8.3-7.05q2.2-1.8 2.25-3.05 0-.65-.45-.95l5.55.65q-2.7 3.45 1.95 5.7 2.05 1.05 4.55 1.5"/><path fill="none" stroke="#22180D" stroke-width=".05" stroke-linecap="round" stroke-linejoin="round" d="M158.6 58.95l-100.65 91.4-29.6 26.9-.6-.05q-2.5-.45-4.55-1.5-4.65-2.25-1.95-5.7l31.9-29.25-.1.15.25-.25 98.9-90.35q1.2.15 2.6 1.3 2.9 2.3 3.8 7.35M53.05 140.9l-.15.15v.05l.15-.2"/><path fill="none" stroke="#333" stroke-width=".05" stroke-miterlimit="1" d="M27.75 177.2l-1.55 3.1q-4 1.9-5.55 3.55l-2.85 4.8q-2.65 3.8-7.1 5.3-4.55 1.5-8.1-3.4-1.75-2.45-2.6-5.2l5.6-4.95 8.3-7.05q2.2-1.8 2.25-3.05 0-.65-.45-.95l5.55.65"/><path fill="none" stroke="#666" stroke-width=".05" stroke-miterlimit="1" d="M173.35 95.2l-3.35-.55q17.75-21.3 8.05-33.75-3-3.9-8.4-6.45l-4.8-1.8-6.25 6.3m-6.4-8.65h-.05l.45-.4 7.8-7.5Q155 30.8 135.45 30l-11.7.5-1.2.15M152.6 49.9l-.4.4"/><path fill="none" stroke="#ccc" stroke-width=".05" stroke-miterlimit="1" d="M122.55 30.65l-5.6.9Q128.5 11.3 156.8 5.15q14.15-3.1 26.1-2.15-.95 1.5-1.1 3.3"/><path fill="none" stroke="#2B1E11" stroke-width=".05" stroke-miterlimit="1" d="M197.15 25.45q17.3-13.45 17.35-13.9l-1-2.35q-1.25-2.5-2.75-4.5-4.55-6.2-8.55-4.25L187.35 17.4"/><path fill="none" stroke="#666" stroke-width=".05" stroke-linecap="round" stroke-miterlimit="1" d="M187.35 17.4q.6 1.4 4.5 4.3l5.05 3.6.25.15Q206 32 220 30.4q7.05-.8 12.3-2.9l.8.65M233.1 28.15l-.3-1.85"/><path fill="none" stroke="#ccc" stroke-width=".05" stroke-miterlimit="1" d="M170 94.65q.9 2.55.4 5.5-.95 5.5-6.95 7.75l4.1.4 10.65.35q17.6-.25 31.25-5.45 19.2-7.2 27.9-23.1 10.9-19.95 4.7-52.45-1.4 1-3.35 1.5-3.2.8-5.6-1"/><path fill="none" stroke="#666" stroke-width=".05" stroke-miterlimit="1" d="M181.8 6.3v.3q-.1 3.45 2.7 7.5l1.95 2.3.9 1.05v-.05"/></svg>