<svg xmlns="http://www.w3.org/2000/svg" viewBox="0 0 463.4 397.1" width="463.4" height="397.1"><defs><linearGradient gradientUnits="userSpaceOnUse" x1="-819.2" x2="819.2" gradientTransform="matrix(-.006 -.007 .075 -.063 408.1 66.7)" id="a"><stop offset="0" stop-color="#ddd"/><stop offset="1" stop-color="#A6A6A6"/></linearGradient><linearGradient gradientUnits="userSpaceOnUse" x1="-819.2" x2="819.2" gradientTransform="matrix(.003 .004 -.274 .243 229.95 203.5)" id="b"><stop offset="0" stop-color="#2B1E11"/><stop offset="1" stop-color="#514D4D"/></linearGradient><linearGradient gradientUnits="userSpaceOnUse" x1="-819.2" x2="819.2" gradientTransform="matrix(.003 .004 -.26 .207 202 211.3)" id="c"><stop offset="0" stop-color="#2B1E11"/><stop offset="1" stop-color="#514D4D"/></linearGradient></defs><path fill="url(#a)" d="M457.4 6.9l3.05-2.3.2.5q12.35 32-30.5 68.3-4.55 3.9-38.35 29.65-23.15 17.55-33 29.3l-11.25-28.15-.65-1.75q15.6-12.45 55.55-49.1l2.4-2.2Q435.9 22.9 457.4 6.9"/><path fill="url(#b)" d="M457.4 6.9q-21.5 16-52.55 44.25l-2.4 2.2Q362.5 90 346.9 102.45l.65 1.75L136.3 286.25l-1.15.95-.95.8-.6.55-.55.55-15 12.9-110.3 95.05q-7.1.45-7.7-3.15-.2-1.1.3-2.5l.55-1.15 122.7-105.8-.15.05 281.4-242.6L452.6 0q3.35.95 4.05 3.05.7 2.2.75 3.85"/><path fill="url(#c)" d="M134.25 288l-1.2 1.1.55-.55.65-.55"/><path fill="none" stroke="#1F150C" stroke-width=".05" d="M347.55 104.2L136.3 286.25l-1.55 1.35-.5.4-1.2 1.1-15 12.9-110.3 95.05q-7.1.45-7.7-3.15-.2-1.1.3-2.5l.55-1.15 122.7-105.8-.15.05 281.4-242.6L452.6 0q3.35.95 4.05 3.05.7 2.2.75 3.85-21.5 16-52.55 44.25l-2.4 2.2Q362.5 90 346.9 102.45l.65 1.75m-212.4 183l-.4.4m1.55-1.35l-1.15.95-.95.8h.05l-.65.55-.55.55m.55-.55l.6-.55"/><path fill="none" stroke="#ccc" stroke-width=".05" d="M460.45 4.6l.2.5q12.35 32-30.5 68.3-4.55 3.9-38.35 29.65-23.15 17.55-33 29.3l-11.25-28.15"/></svg>