<svg xmlns="http://www.w3.org/2000/svg" viewBox="0 0 41.6 62.9" width="41.6" height="62.9"><defs><linearGradient gradientUnits="userSpaceOnUse" x1="-819.2" x2="819.2" gradientTransform="matrix(0 -.007 .004 0 14.4 37.8)" id="a"><stop offset="0" stop-color="#5E8188"/><stop offset="1" stop-color="#9D9DA1"/></linearGradient><linearGradient gradientUnits="userSpaceOnUse" x1="-819.2" x2="819.2" gradientTransform="matrix(0 -.004 .001 0 14 44.55)" id="b"><stop offset="0" stop-color="#5E8188"/><stop offset="1" stop-color="#9D9DA1"/></linearGradient><linearGradient gradientUnits="userSpaceOnUse" x1="-819.2" x2="819.2" gradientTransform="matrix(0 -.013 .012 0 24.2 43.95)" id="c"><stop offset="0" stop-color="#5E8188"/><stop offset="1" stop-color="#9D9DA1"/></linearGradient><linearGradient gradientUnits="userSpaceOnUse" x1="-819.2" x2="819.2" gradientTransform="matrix(0 -.005 .002 0 22.05 52.95)" id="d"><stop offset="0" stop-color="#5E8188"/><stop offset="1" stop-color="#9D9DA1"/></linearGradient><radialGradient gradientUnits="userSpaceOnUse" r="819.2" cx="0" cy="0" spreadMethod="pad" gradientTransform="matrix(.003 0 0 .003 21.6 40.95)" id="e"><stop offset="0" stop-color="#140700"/><stop offset=".431" stop-color="#930"/><stop offset=".984"/></radialGradient><linearGradient gradientUnits="userSpaceOnUse" x1="-819.2" x2="819.2" gradientTransform="matrix(.002 0 0 .001 21.55 40.9)" id="f"><stop offset=".239" stop-color="#ff3"/><stop offset=".525" stop-color="#fff"/><stop offset=".737" stop-color="#fc0"/></linearGradient><radialGradient gradientUnits="userSpaceOnUse" r="819.2" cx="0" cy="0" spreadMethod="pad" gradientTransform="matrix(.006 0 0 .002 19.15 42.3)" id="g"><stop offset="0" stop-color="#140700"/><stop offset=".431" stop-color="#930"/><stop offset=".984"/></radialGradient><radialGradient gradientUnits="userSpaceOnUse" r="819.2" cx="0" cy="0" fx="2240" fy="0" spreadMethod="pad" gradientTransform="matrix(.004 -.001 0 .002 23.1 41.15)" id="h"><stop offset="0" stop-color="#140700"/><stop offset=".431" stop-color="#930"/><stop offset=".984"/></radialGradient><radialGradient gradientUnits="userSpaceOnUse" r="819.2" cx="0" cy="0" fx="96985.6" fy="0" spreadMethod="pad" gradientTransform="matrix(.004 0 0 .002 22.15 43.1)" id="i"><stop offset="0" stop-color="#140700"/><stop offset=".431" stop-color="#930"/><stop offset=".984"/></radialGradient><linearGradient gradientUnits="userSpaceOnUse" x1="-819.2" x2="819.2" gradientTransform="matrix(0 -.001 .001 0 20.9 42.2)" id="j"><stop offset="0"/><stop offset=".835" stop-color="#f90"/></linearGradient><radialGradient gradientUnits="userSpaceOnUse" r="819.2" cx="0" cy="0" spreadMethod="pad" gradientTransform="matrix(.002 0 0 .002 19.75 44.55)" id="k"><stop offset="0" stop-color="#140700"/><stop offset=".431" stop-color="#930"/><stop offset=".984"/></radialGradient><radialGradient gradientUnits="userSpaceOnUse" r="819.2" cx="0" cy="0" spreadMethod="pad" gradientTransform="matrix(.003 .001 -.001 .001 19.65 43.75)" id="l"><stop offset="0" stop-color="#140700"/><stop offset=".431" stop-color="#930"/><stop offset=".984"/></radialGradient><linearGradient gradientUnits="userSpaceOnUse" x1="-819.2" x2="819.2" gradientTransform="matrix(.001 0 0 .001 19.75 44.45)" id="m"><stop offset=".239" stop-color="#ff3"/><stop offset=".525" stop-color="#fff"/><stop offset=".737" stop-color="#fc0"/></linearGradient><linearGradient gradientUnits="userSpaceOnUse" x1="-819.2" x2="819.2" gradientTransform="matrix(0 -.001 .001 .001 23.4 42.55)" id="n"><stop offset="0"/><stop offset=".835" stop-color="#f90"/></linearGradient><radialGradient gradientUnits="userSpaceOnUse" r="819.2" cx="0" cy="0" fx="100374.4" fy="0" spreadMethod="pad" gradientTransform="matrix(.003 -.001 0 .001 22.6 44.1)" id="o"><stop offset="0" stop-color="#140700"/><stop offset=".431" stop-color="#930"/><stop offset=".984"/></radialGradient><radialGradient gradientUnits="userSpaceOnUse" r="819.2" cx="0" cy="0" fx="355.2" fy="0" spreadMethod="unknown" gradientTransform="matrix(.003 0 0 .003 22.6 44.35)" id="p"><stop offset="0" stop-color="#140700"/><stop offset=".431" stop-color="#930"/><stop offset=".984"/></radialGradient><linearGradient gradientUnits="userSpaceOnUse" x1="-819.2" x2="819.2" gradientTransform="matrix(.002 .001 -.001 .001 22.5 44.4)" id="q"><stop offset=".239" stop-color="#ff3"/><stop offset=".525" stop-color="#fff"/><stop offset=".737" stop-color="#fc0"/></linearGradient></defs><path fill="#333" d="M40.85 16l.05 3.25-1-.1-7.8 11.75-.5.45L20.65 16.6l-8.1 16.65.1-1.05v-.35l.2-2.4.3-3.7 7.5-9.15 13.2 1.75 6.05.8-3.45-1.4.95-.8 3.45-.95"/><path fill="#ccc" d="M40.85 16l-3.45.95-.95.8-.5-.1v-.05l-.8-1.95 2.1-1.75 4.3-1.15.05 3-.75.25m-29.3 22.65l-1.25-2.5-1.1-6.7 1.7 3.1 1.05 6.95-.4-.85m-1.3-32.6l5.2 2 1 .4 13 5-13-5L19.6 2.2l7.55 5 5.7-7.2 8.7 12.75-10-2.6 5.7 3.75.15 3.05-.15-3.05-7.8-.45 5.7 2.2-5.1.6-20.6-4.8.8-5.4m16.9 1.15l4.4 2.95-4.4-2.95"/><path fill="#999" d="M9.2 29.45l.9-.2 1.1.1 1.45 2.5v.35l-.1 1.05.6 4.2.4-.05.25 1.65-1.85.45-1.05-6.95 1.75-.35-1.75.35-1.7-3.1M3.85 19.1l-1.05-.6-.6-3.15 8.05-9.3-.8 5.4 20.6 4.8 5.85 1.4-2.05.7 2.05-.7-5.85-1.4 5.1-.6-5.7-2.2 7.8.45-5.7-3.75 10 2.6L32.85 0l7.3 6.8 1.4 5.95-4.3 1.15-2.1 1.75.8 1.95-.05.05h.05l.5.1 3.45 1.4-6.05-.8-13.2-1.75-7.5 9.15-4.1-14.4.4.1-.4-.1-3.75 5.6-1.45 2.15m11.6-11.05L19.6 2.2l-3.15 6.25-1-.4M5.3 16.95l-3.1-1.6 3.1 1.6m19.95 30.8l-.75-7.55-6.55-2.4 1.75-1 6.5 2.3.65 7.5-1.6 1.15m-.75-7.55l1.7-1.1-1.7 1.1"/><path fill="#666" d="M31.6 31.35l.3 4.1h-.05L14.8 37.3l-1.25.1-.4.05-.6-4.2 8.1-16.65L31.6 31.35l-19.05 1.9 19.05-1.9m-21.5-2.1L.75 28.6 0 24.9l3.85-5.8 1.45-2.15 3.75-5.6 4.1 14.4-.3 3.7-1.65-.1-1.1-.1m3.05-3.5L0 24.9l13.15.85"/><path fill="#94999D" d="M12.85 29.45l-.2 2.4-1.45-2.5 1.65.1"/><path fill="url(#a)" d="M17.3 55.3L16 52.5l-.8-5.35-.1-.7-1.35-4.9-.45-1.7-.5 1.95.85 5.75-1.1-2.35-1-6.55.4.85 1.85-.45-.25-1.65 1.25-.1 2.5 18"/><path fill="url(#b)" d="M15.2 47.15l-1.55.4-.85-5.75.95-.25 1.35 4.9.1.7"/><path fill="#fff" d="M25.25 47.75L18.9 45.2l-.95-7.4 6.55 2.4.75 7.55"/><path fill="url(#c)" d="M25.25 47.75l1.6-1.15-.65-7.5-6.5-2.3-1.75 1 .95 7.4 6.35 2.55m6.6-12.3l.05.1 1.75 27.35-4.75-2.2-.6-6.6-4.3-6-.95.7-2.65 1.9.8 6.4-3.9-1.8-2.5-18 17.05-1.85"/><path fill="url(#d)" d="M23.05 48.8l.7 6.3-2.55 2-.8-6.4 2.65-1.9"/><path fill="url(#e)" d="M19 40.25h.35l.15.05.55.4 2.95-.35-.75-.3-.15-.05.2-.05 1.3.5-3.65.45-.95-.65"/><path fill="url(#f)" d="M22.25 40.05l.75.3-2.95.35-.55-.4 2.75-.25"/><path fill="url(#g)" d="M19 40.25l.95.65.25.8-.95-.25-.4-.15-.15-.5.25-.5.05-.05"/><path fill="url(#h)" d="M19.95 40.9l3.65-.45.35.7-1.35.25-2.3.3h-.1l-.25-.8"/><path fill="url(#i)" d="M20.2 41.7l-.8.05 1.35 1.85 1.7-.3 1.4-.2-1.55-1.5-2 .1 2.3-.3 1.75 1.9-3.65.55-.05.05-1.75-2.3v-.05l.35-.1.95.25"/><path fill="url(#j)" d="M20.2 41.7h.1l2-.1.15 1.7-1.7.3-1.35-1.85.8-.05"/><path fill="url(#k)" d="M19.2 42.1l.15.25.15.95 1.35 1.85-.25-.95.15.2v-.05l.05.05.2 1.2-1.55-2.3-.25-1.2"/><path fill="url(#l)" d="M19.2 42.1l-.3-.5 1.75 2.3h.05l.05.45v.05l-.15-.2-1.25-1.85-.15-.25"/><path fill="url(#m)" d="M20.6 44.2l.25.95-1.35-1.85-.15-.95 1.25 1.85"/><path fill="url(#n)" d="M22.3 41.6l1.55 1.5-1.4.2-.15-1.7"/><path fill="url(#o)" d="M20.7 43.85l3.65-.55-.1.45-.1.05-.05.05-3.1.5-.2.05-.05-.05-.05-.45v-.05"/><path fill="url(#p)" d="M21 45.6l-.2-1.2.2-.05.15 1.2 3-.75-.05-.95.05-.05.1 1.1-3.2.75-.05-.05"/><path fill="url(#q)" d="M24.1 43.85l.05.95-3 .75-.15-1.2 3.1-.5"/><path fill="none" stroke="#999" stroke-width=".05" stroke-miterlimit="10" d="M23.05 48.8l.7 6.3-2.55 2m-6-9.95l-1.55.4m.1-6l-.95.25m5.15-4l.95 7.4 6.35 2.55"/><path fill="none" stroke="#4E6B72" stroke-width=".05" stroke-miterlimit="10" d="M33.65 62.9l-4.75-2.2-.6-6.6-4.3-6-.95.7-2.65 1.9.8 6.4-3.9-1.8-1.3-2.8-.8-5.35m-1.55.4l-1.1-2.35-1-6.55.4.85 1.85-.45-.25-1.65m-.75 4.4l.5-1.95.45 1.7 1.35 4.9.1.7m-2.4-5.35l.85 5.75M14.8 37.3l2.5 18"/><path fill="none" stroke="#666" stroke-width=".05" stroke-miterlimit="10" d="M10.25 6.05l5.2 2M19.6 2.2l7.55 5 5.7-7.2m-2.8 16.25l-20.6-4.8m20 2l-13-5m15.1 1.7l-4.4-2.95m-16.9-1.15l-.8 5.4m15.8 36.3l-.75-7.55-6.55-2.4 1.75-1 6.5 2.3.65 7.5-1.6 1.15m.95-8.65l-1.7 1.1"/><path fill="none" stroke="#4E4E4E" stroke-width=".05" stroke-miterlimit="10" d="M31.6 31.35l-19.05 1.9.6 4.2.4-.05 1.25-.1 17.05-1.85"/><path fill="none" stroke="#545454" stroke-width=".05" stroke-miterlimit="10" d="M11.55 38.65l-1.25-2.5-1.1-6.7.9-.2-9.35-.65L0 24.9l3.85-5.8-1.05-.6-.6-3.15 8.05-9.3m5.2 2L19.6 2.2l-3.15 6.25-1-.4M32.85 0l7.3 6.8m1.4 5.95l-10-2.6 5.7 3.75 4.3-1.15L32.85 0m4.55 16.95l-.15-3.05-2.1 1.75.8 1.95m0 .05l.5.1.95-.8 3.45-.95m-7 2.35l2.05-.7-5.85-1.4 5.1-.6-5.7-2.2 7.8.45m-27.8-2.45l-.4-.1 4.1 14.4 7.5-9.15 13.2 1.75 6.05.8-3.45-1.4m-27.4-6.4l-3.75 5.6-1.45 2.15M2.2 15.35l3.1 1.6m7.85 8.8l-.3 3.7-.2 2.4v.35l-.1 1.05 8.1-16.65L31.6 31.35m-18.95.85l-1.75.35 1.05 6.95m.9-10.05l-1.65-.1 1.45 2.5M0 24.9l13.15.85m-1.95 3.6l-1.1-.1m.8 3.3l-1.7-3.1"/></svg>