<svg xmlns="http://www.w3.org/2000/svg" viewBox="0 0 302.4 175.8" width="302.4" height="175.8"><defs><linearGradient gradientUnits="userSpaceOnUse" x1="-819.2" x2="819.2" gradientTransform="matrix(-.01 -.009 .018 -.019 103.95 28.2)" id="a"><stop offset="0" stop-color="#993"/><stop offset="1" stop-color="#737326"/></linearGradient><linearGradient gradientUnits="userSpaceOnUse" x1="-819.2" x2="819.2" gradientTransform="matrix(.033 -.005 .002 .013 268.65 38.2)" id="b"><stop offset="0" stop-color="#960"/><stop offset="1" stop-color="#5C3701"/></linearGradient><linearGradient gradientUnits="userSpaceOnUse" x1="-819.2" x2="819.2" gradientTransform="matrix(-.002 -.01 .03 -.007 276.65 44.2)" id="c"><stop offset="0" stop-color="#960"/><stop offset="1" stop-color="#5C3701"/></linearGradient><linearGradient gradientUnits="userSpaceOnUse" x1="-819.2" x2="819.2" gradientTransform="matrix(-.009 -.014 .044 -.027 118.8 99.75)" id="d"><stop offset="0" stop-color="#B3B979"/><stop offset="1" stop-color="#848A4A"/></linearGradient><linearGradient gradientUnits="userSpaceOnUse" x1="-819.2" x2="819.2" gradientTransform="matrix(.003 .009 -.054 .019 105.7 95.6)" id="e"><stop offset="0" stop-color="#B3B979"/><stop offset="1" stop-color="#848A4A"/></linearGradient><linearGradient gradientUnits="userSpaceOnUse" x1="-819.2" x2="819.2" gradientTransform="matrix(-.003 -.009 .051 -.02 128.1 121.1)" id="f"><stop offset="0" stop-color="#B3B979"/><stop offset="1" stop-color="#848A4A"/></linearGradient><linearGradient gradientUnits="userSpaceOnUse" x1="-819.2" x2="819.2" gradientTransform="matrix(-.002 .009 -.034 -.01 200.8 7.1)" id="g"><stop offset="0" stop-color="#70743F"/><stop offset="1" stop-color="#B3B979"/></linearGradient><linearGradient gradientUnits="userSpaceOnUse" x1="-819.2" x2="819.2" gradientTransform="matrix(.009 .003 -.001 .002 180.3 11.65)" id="h"><stop offset="0" stop-color="#70743F"/><stop offset="1" stop-color="#B3B979"/></linearGradient><linearGradient gradientUnits="userSpaceOnUse" x1="-819.2" x2="819.2" gradientTransform="matrix(-.014 .003 -.001 -.003 216.75 11.4)" id="i"><stop offset="0" stop-color="#70743F"/><stop offset="1" stop-color="#B3B979"/></linearGradient><linearGradient gradientUnits="userSpaceOnUse" x1="-819.2" x2="819.2" gradientTransform="matrix(-.004 .005 -.011 -.009 177.35 21.75)" id="j"><stop offset="0" stop-color="#70743F"/><stop offset="1" stop-color="#B3B979"/></linearGradient><linearGradient gradientUnits="userSpaceOnUse" x1="-819.2" x2="819.2" id="k"><stop offset="0" stop-color="#960"/><stop offset="1" stop-color="#fc6"/></linearGradient><linearGradient gradientUnits="userSpaceOnUse" x1="-819.2" x2="819.2" gradientTransform="matrix(.048 -.001 0 .015 50.3 42.15)" id="l"><stop offset="0" stop-color="#960"/><stop offset="1" stop-color="#fc6"/></linearGradient><linearGradient gradientUnits="userSpaceOnUse" x1="-819.2" x2="819.2" gradientTransform="matrix(.012 .002 -.001 .007 10.6 51.3)" id="m"><stop offset="0" stop-color="#960"/><stop offset="1" stop-color="#fc6"/></linearGradient><linearGradient gradientUnits="userSpaceOnUse" x1="-819.2" x2="819.2" gradientTransform="matrix(.011 .002 -.002 .009 10.75 58.95)" id="n"><stop offset="0" stop-color="#960"/><stop offset="1" stop-color="#fc6"/></linearGradient><linearGradient gradientUnits="userSpaceOnUse" x1="-819.2" x2="819.2" gradientTransform="matrix(.013 .003 -.001 .006 10 53.5)" id="o"><stop offset="0" stop-color="#960"/><stop offset="1" stop-color="#fc6"/></linearGradient><linearGradient gradientUnits="userSpaceOnUse" x1="-819.2" x2="819.2" gradientTransform="matrix(-.04 .002 -.001 -.02 184.7 61.2)" id="p"><stop offset="0" stop-color="#8696AC"/><stop offset="1" stop-color="#777"/></linearGradient><linearGradient gradientUnits="userSpaceOnUse" x1="-819.2" x2="819.2" gradientTransform="matrix(-.001 -.007 .04 -.005 212 84.2)" id="q"><stop offset="0" stop-color="#8493A8"/><stop offset="1" stop-color="#777"/></linearGradient></defs><path fill="#960" d="M300.75 35.3L256.8 54.45v.15l-1.3 3.25.35-3.4-1.15.15h-.85l-27.75-3.25-11.9-4.1 42.6 4.1 45.6-19.65v2.75l-1.65.85M256.8 54.45v-3.1 3.1"/><path fill="#963" d="M297.3 45.45l1.8-.8-4.4 25.15-1.65-.15 4.25-24.2m-41.8 12.4l-2.95 23.7-.3 1.45-.85 7.55-.45 3.1-1.8-.15.3-2 1-7.5.3-3.1.5-3.9.15-1.65 2.45-20.75h.85l1.15-.15-.35 3.4m-15.2 31.7l.85 1.95-2.95-1.3-.65 7.05-1.5-.35.85-7.35-7.2-3.4 1.3-.5 5.9 2.45.65-5.05 1.55-.5-.6 5.2-.15 1 1.95.8M181.2 118l-.35 3.75-1.6-.2.3-3.9v-2.3L174 112.4l-4.9-2.75v-1.8l3.6 1.95.95.5 5.9 3.45.5-16.35.5-6.2.15-8-33.5-15.7.2 15.85-1.5-.15V66.85l-2.1-1 .45-1.45.85.35.3-1.65v-.05l.2-1.25 1.6.65 5.55 2.6-4.4 1.3L180.7 81.4l.15-3.75.5-.2 1 .2v4.55l1.1.5-1.1 1.3-.85 21.4-.3 9.15-1.65-.8 1.65.8V118m.95 20.05v1.15l-.45 8.5v.65l-.7 1-.3-1.65-16.15.5v-.5l.3-8.15-.3 8.15-.2-7 .5-1.15v-1.15h1v-.5l13.2.15h3.1m-19.1 11.8l-.3-1.65.35-4.9h.3l-.35 6.55m-.95-9.65l-.5-1.3v-1.15l-.2-1.3.45-4.9h.05l.2 1.15.15 5.55-.15 1.1v.85M92 152.1l.35 10-2 .45-.95-12.05 1.2.85q.7.6 1.4.65v.1m-10.45-8.15l.8 7.85-.95.3-1-9.15 1.15 1m-18.8-15.35l.5 7.2-.15.15-.35.15h-.3l-.35.15h-.45l-1.4-9.6 2.5 1.95m-4.95-21.4l-.3-1.45 18.15 6.35L58 107.35l-.2-.15m85-45.1l-1.95-.3V60l-3.6-1.65-1-5.85-.3-1.15-1-5.4 1.15-.35v-.45h-.5l-1.15.45H134l-.85-4.55H133l-.15 1.15-.35-1-.15-.8-7.85 2.1-.8.2-6.7 1.6-3.75 1v.5l-2.3.5-14.35 3.1-1.35-1 .9 13.55.6 9 .3 4.25h-1.6l-1.8-28.1-3.95-2.95-.15 1.15-.3 1.15 1.3 15.2.3 4.7h-.15l-1.3-.5v-1.3l-.5-5.05-.8-12.4-.2-2.45h-.05l-.3-5.25.7-.15h.35l.8-.15.15 2.75 7.2 5.1L143.8 35.3v2.3l-1.8.5-1.5.35 1.5-.35v1.65l.3 7.2-.15 1.1-.65.2-.35-1.65-.4-1.9-.55-1 .15 1.45v.15l.35 1.8-.35-1.8v-.15l.5.15.3 1.45-.3.35h-.15l-7.05-5.25 1.8-.65 4.9-1.8.15-.15v-.8l-7.5 1.8.15.8 7.2-1.65-4.9 1.8-1.8.65 7.05 5.25.15.15-.15.15v1l-.35.15-1 .15v.35l.35.15v-.5l.65-.15.35 1.65-4.75 1.15 4.75-1.15.15-.15 1.65 9.45.15 1.3.15 1.3m-8.15-5.2h-.2l-1.95-.65V53.6l-1.95.5-.15-1.15 2.1-.65.2-2.1.15-2.15.8 3.95-1.15.3 1.15-.3.15 1.45.65 3.45-.65-3.45-1.3.15 1.3-.15.35-.15.65 3.75-.15-.15m-6.2-2.15l-8.2 2.15.35 10.45h-1.15l-.4-10.55-.25-6.1 1.15-.35.15 5.4 4.75-1.3 3.25-1 .35 1.3M67 69.65l-4.25 1.1-6.05 1.65.15.8.15 1.35-1.55-.6-.1-.35v-.05l-.15-2.1 1.3-.5-1.3.5-.65-5.4 1.3-.2.65 5.1 6.1-1.65 6.7-1.65 3.5-1 .05.05.95-.3 2.35-.7V67l-3.25 1-3.5 1-2.4.65m-7.7-16.5l-38.4 9.3-.3-1.8 38.85-9-.15 1.5M24 81.9l1.95 12.7-1.45.2-1-6.2-1.1.15L8 76.5l.65 3.1-1.45.15L6.35 75l-2.6-2.25 1-.85 1.3 1-4.6-24.65 1.8 1.3 2.95 16.3 1.5 8.5L23.35 87.6l-.8-5.4.1-.25.4.1.8-.8.15.65M1.15 46.25l-.65-3.5.15-.05 1.65 1.1.65 3.8-1.8-1.35m68.15-16.5l-.5-4.45 13.4 10.3-8.3-3.75-3.15-2.45.2.5-1.65-.15m99.65 5.85v-3.75L167 31.2l.3-1 1.65.65.5-19.6.4.15.55.2-.3 13.9-.2 5.7 4.6 1.45 6.05 2.15 4.4 1.5 4.4 1.5 2.95.95v-1.8l.3-5.9.1-1.3.25-5.75.3-3.75v-2.3l1.05.1-.05 1.9-.15 3.75-.15.65-.2 6.35-.3 5.95-.35 7.85h-1.15l.35-4.6-7.85-2.75-3.9-1.35-6.05-2-4.6-1.6.2 3.25-.2.15h-.95m.5-25.45V7.7l.95.15v2.6l-.95-.3m61.7-.35l-1.6 18.3 1.45.5-.15.95-1.5-.5-.3 4.9h-1l.35-5.05-7.85-2.1h-.15l-1.3-.5-4.9-1.15-3.6-.8v-1.5l17.95 5.1 1.65-18 .95-.15m-45.4 29.3l-.3 9.8-40.7 12.05-.2.05-.95-4.75-.15-5.75 1.8-.8-1.8.8-.65.35-.3-1.3h.3l.35-.15 1.45-.35.65.65 1-.5.15-.15 17.45-4.9 1.8-.35-1.8.35-9.95-7.5.5-.2.65-.3 4.1 2.75 6.5 4.9-.15.85 20.25-5.55m42.8-11.15l-.15.95.15-.95m1 .15l-.2.95.2-.95m-60.6 2.75l.95.35-.95-.35m0 1l.95.35-.95-.35m-20.6 34.5l-1.15-.5v-3.4 3.4l1.15.5M180.7 83.2l1.65.8-1.65-.8m0-1.8l1.65.8-1.65-.8m57.5 8.8l.15-1.45-.15 1.45m-1.3-.65V88.1v1.45M173.85 124l-.2-.65h.15l4.1-.45 3.1 14.5-1.95.2-1.45-7.2h-3.1v-2.15l-.15-.95v-1.15l-.5-2.15m5.7-8.65l1.65 1-1.65-1m2.15 32.35h-1 1m-4.1-17.3l.3-7.5-.3 7.5m-81-81l.15-2.45-.15 2.45m31.65.65l-.95-5.1 1-.1 1.45 4.85-1.5.35m12.25-10.8l-.3 4.4v.05-.05l.3-4.4m-1.6 4.9l-3.45-2.95 3.45 2.95m-49.2-.8v.8-.8m-8.35 17.9l-3.05.7-2.15.5-1.7.4-.55-1.4-.35-2.25-.65-.35-.5-.35v-.65l-.15-.8 1.3.8 6.55 2.95 1.25.45m65.85 4.6l-2.1-1.1 2.1 1.1m0 1.65l-1.3-.65 1.3.65m-6.35-7.5l-.15-8.65 1.95 9.45-1.95-9.45.15 8.65m-4.6-7.5l4.45-1.15-4.45 1.15M8 76.5L6.35 75 8 76.5m-1.95-3.6l1.65 1.45-1.65-1.45M78.3 61.95l-4.75-2.75 4.75 2.75m28.25 88.55l29.55-4.75 3.6 9.15-2.95.5-27.6 4.55-.3-1.45-2.3-8m1.65 9.6l.15.65.95-.15 27.8-4.55 2.95-.5 1.1-.15-.4 9-.4-.05-.65-1.15-1-.8-1.1-.65-1.65-.35-3.1.5-2.8 1.8-.95 1.3-.5 1.3-.15 1.5-5.9.5-.15-.35-.2-.5-.65-1.15-.95-.95-2.95-.8H116l-1.6.45-2.8 1.8-.95 1.3-.5 1.35-.2 1.45-.95.15-2.95-11.1-.5-9.3 2.65 9.45m1.95 11.45l.15-1.3 1.45-2.6 1.35-1 1.45-.8 1.65-.5 3.25.15 1.3.65 1 .85.65.95.3 1.5-.15 1.45-.5 1.3-.95 1.15-1.35 1.15-1.45.65-1.65.5-1.6.15-2.8-.8-1.15-1-.65-1.15-.3-1.3m-1.15-.5l-.65-10.3.65 10.3m-.15-12.55l27.4-4.45.5 1.35-.5-1.35-27.4 4.45m19.75 9.95l.15-1.3.65-1.3 1-1.3 1.3-1 1.45-.8 1.5-.5 3.1.15 1.3.65 1 1 .65 1.15.3 1.3-.8 2.6-1 1.15-1.3 1.15-1.3.65-1.65.5-1.6.15-1.5-.35-1.3-.65-1-.8-.65-1.15-.3-1.3m7.65-14.4l-.15-8.3.15 8.3"/><path fill="#c63" d="M263.85 61.65l3.9-1.8 1.65.8 3.25.3h1.45l2.3-.65.65-.3.2-.65.15 2.95-1 8.8-.5 1.3-.3 1.5-.5 1.3-.15.65-.5 1.3-.65.5-1 .3-2.75.35-3.1-.35-2.65-.95-.95-.5-.5-.65-.15-.65-.15-1.3.45-8.7.85-3.55m-74.65 49.8l-1 4.1-.8.8-1.15.8-1.45.5-3.6.35v-3.45l.3-9.15 8.65-3.45-.3 6.25-.65 3.25m-9.65 6.2l-1.95-.35-1.5-.65-.95-.8-.65-1-.5-2.45 5.55 2.95v2.3m-10.95 3.75l1.8.15 2.05.65h.1-.05l.85.55.45.6h-.15l.2.65-.2.65-.45.5-.65.5-1 .5-1.15.15h-2.6l-1.15-.3-1-.5-.65-.5-.45-.65-.15-.55.15.55.45.65.65.5 1 .5 1.15.3h2.6l1.15-.15 1-.5.65-.5.45-.5.2-.65.5 2.15v1.15l.15.95v3.3l-.5 3.05q-.55 1.25-1.9 1.6l-2.35.1-2.45-.05q-1.35-.15-1.95-.6l-.9-6.55-.1-.65-.15-1.05-.2-1.5.05-.1.3-2.1.05.1.2-.45.4-.55h.05v-.05l.8-.7.95-.3 1.8-.35m-63.05-59.1l.65 3.55v.85l.2.8v3.6l-.35 1.65v.3l-.3.35-1.15.65-1.65.3h-.8l-1.65-.3-.5-.15-.5-.35v-.35l-.3-.8-.15-1.15H97.9l-1.15-.3-.6-9 1.1 1 1.45-.2.15.35.5.15.5.35.65.15h2.6l.85-.35.65-.15.45-.3.35-.35.15-.3m-16-17l.65 1.8 1 5.2v7.85l-.65 1.5-1.3-15.2.3-1.15m-30.25 15v-7.15l.15-1.5.15.5.5.5.85.3 2.45.35h1.5l2.95-.5 1.15-.3.95-.5.65-.5.15-.5.85 2.8.65 3.25.15.8v.65l.5.35-.35 1.8.2 1.3v1.3l-3.75 1 .3 3.4-6.7 1.65-.8-7.5-2.5-1.5M138.7 32l.2-1.45.3-1.15v.35l.35.45 1.45.5 1 .15h3.6l1.1-.15 1.5-.65.15-.3v-.35l-.3-.35-1.5-.65.1-.3.4.15 1 .15h3.55l1.8-.45.65-.35.2-.3v-.35l.15 1.15.4 1.35.25 3.7.15-3.75.05-.05.55-3.05h.05l1 .65 3.1.5 2.6-.15-3.4-.85 3.4.85.85-.2 1.3-.5.15-.3.35 1.15.3 2.3v7.55l-6.35 1.6-4.1-2.75-1 .3h-.1l-2-.15-2.8.85v-2.7l-.15-.3v-1.3l-.3-2.3-.35-1.15.35 1.15.3 2.3v1.3l.15.3v2.7l-5.35 1.3V35.3l-5.1-3.3m6.25-3.75v-.15h.05l-.05.15m10.9-2.3l.85-.65.8-.15.8-.5V24l-.15-.8v-2.6l.15-.85.85-2.25.95-.35h2l1 1.3 1.1 1.5.15.8v1.95l-.15.65v.8l-.8 2.95-.85.2-2.6.15-3.1-.5-1-.65v-.35m87.1 33.9l-.2-.2-.3-.15-.35-.3v-.7l1.5-.3h.8l.65.15h.8l1.15.35.5.3.15.2v.3l-.15.35-.65.3h-2.8l-.8-.15-.3-.15.3.15.8.15h2.8l.65-.3.35.3v2.8l-.2.65v.65l-.8 3.4-.5.5h-.5l-.65.15h-1.45l-1.8-.45-.5-.35-.15-.15V67l-.15-.65V63.9l.3-4.05h1.5m-7.55-5.2l1.15-.85.8-.2H239l1.65.35.95.5.35.3v.35l-.5.5-2.1.45-3.95-1.4m-68.25 43.4q.75-.3 1.45-.65l5.05 2.6 1.15-6.05.35.85.65.8 1 .8 3.25 1-.5 16.35-5.9-3.45-.15-1.15-.8.65-3.6-1.95.15-4.75v-2.45l-2.1-2.6m6.5 1.95v.65l-.15.85-4.25 1.6 4.25-1.6.15-.85V100m-.15 1.5v7.65-7.65m-1.05 20.7h.05-.05M124.5 42.5l7.85-2.1.15.8.35 1-.5 3.75-1.15.3.15.5h.35l-.15-.5.8-.15.8-.15.1.4-.4.1V48.05l-.15 2.15h-1.8l-1.15-.5-1.45-4.85-1 .1.95 5.1-1.15-.2-1.45-.65-.15-.3-1-4.9v-1.5m30.55-6.35l.15-.85-.15-1.15v2m0-3v1-1m3.25-8.5l.85 1.8-.85-1.8m-70.45 20h.05l.2 2.45.8 12.4-7.55 1.75-1.25-.45-.5-1.3-.8-5.2v-1.35l-.2-1.3v-1.3l.2-1.3v-1.3l.15-1-.15 1v1.3l-.2 1.3v1.3l.2 1.3v1.35l.8 5.2.5 1.3-6.55-2.95-1-9.45 6.4-1.65.8-.15 8.1-1.95m.25 2.45l-1 .3-2.6.35h-2.8l-1.95-1.15 1.95 1.15h2.8l2.6-.35 1-.3m10.75 16l-.3 1.45V69l.3 2.25-.3-2.25v-4.45l.3-1.45m64.25-44.65h-3.3 3.3"/><path fill="#cc3" d="M254.2 82.05l-1 7.5-1.8 1 .85-7.55q1-.45 1.95-.95m-4.75 9.45l-1.8 1-7.35-2.95.85-7.2v-.15l1.1-.5-.15-.3 1-7.5 5.55-2.8-5.55 2.8-1 7.5-1.3-.5-.15 1.3-.65 6.05-1.5-.5.6-5.2.25-2.15.8-7.5.5-3.75.65-.35 7.35 2.3-.35 3.25-.45 4.25.45-4.25 3.1 1-.15 1.65-3.4 1.6 3.4-1.6-.5 3.9-.3 3.1-1 7.5m-30.85 0l2.1-.8 9.7-4.05.1.3-1.15 10.6-9.6 4.25-9.8-4.55.15-3.3 7.35-2.9 1.15.45m-27.8 10.45l2.15-.45 11.1-4.6-.65 11.45-10.95 4.9-3.25-1.8.65-3.25.3-6.25h.65M119.05 56.8l-.75.4-.65-.3-6.7 1.8-3.9-1.95-.35-6.4 6.7-1.65-.15-1.3v-2.1l3.75-1 6.7-1.6.15 6.2.8.3.2 5.25-4.75 1.3-.15-5.4-1.15.35.25 6.1M78.1 72.9l-4.7.5-3.75-2.3-.2-1.8-.05-.3 3.5-1 3.25-1 .35 1.65.95 2.95.65 1.3m-15.35-2.15l.2.85-6.1 1.6-.15-.8 6.05-1.65M54.9 73.7l-3.8 1-4.9-3.25-1.1-9.8 11.6-2.95 2.6 1.6 2.5 1.5.8 7.5-6.1 1.65-.65-5.1-1.3.2.65 5.4.15 2.1v.05l-.45.1m-25.15-5.05l1.1.8 1.5 10.15L24 81.9l-.15-.65 1.8-2.15 1.95-3.25.8-1.8 1-3.45.15-.8.2-1.15M165.5 37.3l3.1-1-.15-.15v-.35l.15-.2H169.9l.2-.15.65-.15.45-.2h1.5l.65.2h.65l.35.15h.15V33.8l6.05 2-.2 1.5.2-1.5 3.9 1.35-2.45.65 3.75 1.3-20.25 5.55.15-.85-6.5-4.9 6.35-1.6m55.05-10.5l4.25 1.8-.5 5.55-4.4 1.3-4.6-1.5.2-1.45-1.3.35-4.45-1.35.35-3.75-.65 2v.15l-.35.3-2.6.5h-1.45v1.15l-6.7 1.8-3.45-1.15-.3 3.8-1.15.35.3-5.95 1.15-.15v1.95-1.95l-1.15.15.2-6.35 2.1-1.15.5-3.6.15-1.45.1-.3v-.05l5.15-1.15 5.2-1.15 2.6.65.5.35.15.3.2 1v1.15l.15 1.15-.15 2.75v1.5l-.35 1.8 3.95-1 4.9 1.15-.2 1.45 1.65-.95m27.3 51.8l-5.6 3.1 3.95-1.95.5-.3.95.3.2-1.15m-4.75-4.7l-2.95-1 2.95 1m4.55 18.6l1-7.5 1.8-1-1.8 1-1 7.5m3.1-11.6l-3.1-1.15 3.1 1.15m-45.6-63.15l.05-.1h.05l1.1.15h1.15l2.45-.5.45-.5-.45.5-2.45.5h-1.15l-1.1-.15h-.05l-.05.1-.1.05-.65-.15-2.45-1 2.45 1 .65.15-.5.15.65-.15-.05-.05m-.1 12.95l.45-6.55-.8-.3v-.5l.5-5.55-.5 5.55v.5l.8.3-.45 6.55m-.35-7.35l-1.15.15-3.25.85.3-5.4 3.9-.95.05-.05-.05.05-3.9.95-.3 5.4 3.25-.85 1.15-.15m0 .5l-1.15-.35 1.15.35m20.1 4.75l-4.4 1.3-4.6-1.3 3.1-.85-3.1.85 4.6 1.3 4.4-1.3m-10.6 4.25l.3-5.4 4.6-1.15-4.6 1.15-.3 5.4m-4.1-5.1v-1.6h.15l4.25 1.3-4.25-1.3h-.15v1.6m5.7.85l-.3 3.9.3-3.9m4.6 1.3l-.5 5.55.5-5.55m-33.15-8l.45.05-.3 5.5-1.3.3-3.6.85.15-5.55 4.6-1.15-4.6 1.15-.15 5.55 3.6-.85 1.15.35.1.3-6.65 1.8-6.05-1.95 6.05 1.95 6.65-1.8.55-.15-.2 1.5 2.65-.7 2.1.7h.25l-.1 1.3-.3 5.9-2.95.85-4.4-1.5-4.4-1.5-6.05-2.15.15-4.4 3.6-.95.15-3.6v-2l5.05-1.1 3.8 1.3m-4.6 1.15l-4.25-1.35 4.25 1.35m17.95-4.1l-3.8-1.1 3.8 1.1m-.3 5.4l-4.25-1.15 4.25 1.15m5.2-.2l-6.65 1.65-4.9-1.45 4.9 1.45 6.65-1.65m-31 11.3l.8-.15-.8.15m1.6.35l-.8-.5.8.5 4.25 1.5-4.25-1.5m4.45-1l.15-4.6-.15 4.6m-9.35 2.35l-1.75-.35-.7-.35-.15-.15.15.15.7.35 1.75.35 1 .15h1.3l-2.3-.15m4.6-.35l-2.3.5 2.3-.5m-11.95 7.35l-17.45 4.9-.15.15-1.3-.3-.35.15-.65-.8-1.65-1.3-.3-7.2 9.95-3.45 2 .15-.05.2 9.95 7.5m2.3-4.75h-.95.95m-.8 1.15h.65l.5-.15-1.15.15M182 37.8l-1.65-.5 1.65.5m-.8.65h-.85.85m11.4-7.4l-2.9.8-4.6-1.45 2.6-.65-2.6.65 4.6 1.45 2.9-.8m5.75 2.6l.5-7.85-.5 7.85m-9 4.15l.35-5.95-.35 5.95m-4.25-7.4l-.15 5.9.15-5.9m-2.6-1.8l-4.25-1.3 4.25 1.3m50.45 56.2l4.6-1.8v.05l-.65 5.05-3.95-2.45v-.85m6.4-4.4l1.45.5-1.45-.5m9.3 4.6l-7.5-2.65 7.5 2.65m-55.7 16.5l-.5 11.75.5-11.75m27.75-10.8l-.95 11.1.95-11.1m-69.25-50h1.15-1.15m2.45-4.05v1.45-1.45m2.8 5.7l1.15.5-1.15-.5m3.1 1.15l1.3.5-1.3-.5m-48.85 15.2l-.3-6.4 6.65-1.8.35 6.4-.35-6.4-6.65 1.8.3 6.4m-4.25-8.35l3.95 1.95-3.95-1.95m-30.55 12.1v3.1l-2.35.85-.95.3-.05-.05 1-.25-1 .25-3.5 1-.3-3.4 3.8 2.4-3.8-2.4 3.75-1 1.7-.4 1.7-.4M117 44.3l.3 6.2 6.55-1.6-6.55 1.6-3.9-1.8 3.9 1.8-.3-6.2m2.95 6.05l4.7-1.15-4.7 1.15m-89.1 19.1l-1.3.35 1.3-.35M14.2 73.7l1.95 2.95 2.3 2.45.15.65 1.5.65 1.45 1 1 .5v.3l-2.95.8-4.55-3.75-1-5.55h.15m5.4 9.3l-1-3.25 1 3.25m53.8-9.6l-.5-5.4.5 5.4m-22.3 1.3L50 64.9l11.8-3.1L50 64.9l1.1 9.8m-6-13.05L50 64.9l-4.9-3.25"/><path fill="#B3B979" d="M89.4 150.5l-.15-.15-7.7-6.4-1.15-1-17.65-14.35-2.5-1.95-2.25-18V107.35l17.65 4.75 1 .3 13.4 19.45 79.2-31.2v2.45l-8.95 3.45-69.95 27.9-.3-2.6L58 107.35l32.05 24.5.3 2.6L92 152q-.7-.05-1.4-.65l-1.2-.85-1.5-17.65 1.5 17.65m80.45-139.1l-.2-.25-.2-1 .95.3 22.85 6.35 1.8.5.2.85-.95-.1-1.05-.1-22.85-6.35-.55-.2"/><path fill="#999" d="M144.25 64.4l-.15-.15-.95-.85-.65-3.9-1.65-9.45-.15-1.15 1.6-.5.85-.15-.2-.35-.8.15.15-1.1 1.65 1.3.65.8-1.45.35-.35.15h-.3l.3 1.3.8 5.4.95 4.75.4 1.95.15.45-.85 1m-7-6.05l1.15 6.4-.8 2.1-1.35-1.45-1.45-8.35-.65-3.75-.35-1.3-.95-5.4v-.15l.4-.1 1.7-.4 1 5.4.3 1.15 1 5.85m-6.7-4.25l2.3 12.45-.65 1.75h-.35L130.7 67l-2.15-11.85-.1-.4-.35-1.3-.5-2.6 2.3-.5.5 2.6.15 1.15m-39.7 12.45l1.5.8 2.1 3.1.35 1.8v1.95l-.5 1.8-.8 1.65-1.35 1.15-1.6.95h-.35l-1.8.5-1.8-.15-1.8-.5-1.6-1-1.5-1.8-1.15-1.3v.5l-.8-.8-1.65-2.3-.65-1.3-.95-2.95-.35-1.65v-1.3l-2.35.7 2.35-.85v-3.1l2.15-.5 3.05-.7 7.55-1.75.5 5.05v1.3l1.3.5.15.2m-33.85 8l1.95.45 1.65 1.15 1.5 1.5 1 1.8.5 1.95v1.95l-.65 1.95-1 1.65-1.5 1.3-1.8 1-1.95.45-.2.2-2.1-.2-1.95-.45-1.65-1.15-1.45-1.5-1-1.8-.5-1.95V80.9l.5-1.95 1.15-1.8 1.45-1.3 1.8-1h.35l1.8-1.15.55.25.1.4 1.45.2m-37.55-11.3l1.6-.15 8.35-1.45.35 1.6.15 3.6-.15 1.8-.2 1.15-.15.8-1 3.45-.8 1.8-1.95 3.25-1.8 2.15-.8.8-.4-.1-.1-.05-1-.5-1.45-1-1.5-.65-.15-.65-2.3-2.45-1.95-2.95-.5-1.8-.8-3.6v-3.75l6.55-1.3M81.9 68.5l-.85 1.3-.5 1.8v3.9-3.9l.5-1.8.85-1.3 3.4-2.45 1.8-.5 1.8.15.5-1.15-.5 1.15-1.8-.15-1.8.5-3.4 2.45"/><path fill="url(#a)" d="M68.8 25.3l45.6-8.8L138.7 32l5.1 3.3-47.05 11.65-7.2-5.1-.15-2.75-.85-.4-6.35-3.1-13.4-10.3"/><path fill="url(#b)" d="M208.95 45.6l44.9-16.2 48.55 2.3-45.6 19.65-42.6-4.1-5.25-1.65"/><path fill="url(#c)" d="M299.1 44.65l-1.8.8-24.15 11.75-5.4 2.65-3.9 1.8-8.5 4.05 1.45-11.1v-.15l43.95-19.15-1.65 9.35"/><path fill="url(#d)" d="M155.05 84.8l12.1 13.25 2.1 2.6-79.2 31.2-13.4-19.45 69.7-24.6 8.7-3"/><path fill="url(#e)" d="M57.5 105.75l75.35-24.7 13.05 2.15 1.5.15 7.15 1.45-8.2 3-69.7 24.6-.3-.15-.7-.15-18.15-6.35"/><path fill="url(#f)" d="M169.1 109.65l-.35 10.45-2.1.65L92.5 151.9l-.25.1-.25.1v-.1l-1.65-17.55 69.95-27.9 8.95-3.45-.15 4.75v1.8M92.25 152H92h.25"/><path fill="url(#g)" d="M170.4 7.85V7.5L207.3 0l24.25 5.45-.05.25-37.1 8.35-.3.15-23.7-6.35"/><path fill="url(#h)" d="M170.4 7.85l23.7 6.35-.85 2.6-22.85-6.35v-2.6"/><path fill="url(#i)" d="M231.5 5.7l.45.1h.05l-.35 2.05 1 .3-1.5 1.65-.95.15-23.05 5.55-5.2 1.15-5.15 1.15h-.1v.35h-1.45l-.2-.85-1.8-.5.85-2.6.3-.15 37.1-8.35"/><path fill="url(#j)" d="M187.7 21.7l-.45.2-3.8-1.3-5.05 1.1v2l-8.3 1.8.3-13.9 22.85 6.35v2.3l-5.55 1.45"/><path fill="url(#k)" d="M20.9 62.45l-1.8-1.5.85-1.1-1-1-.65-3.6.5-.15 68.75-15.7.3 5.25-8.1 1.95-.8.15-6.4 1.65-1.45.3-1.15.2-2.6.65-7.9 2.1-38.85 9 .3 1.8"/><path fill="url(#l)" d="M7.45 41.4l59.4-11.85 1-.3 1.45.5 1.65.15 2.95 1.95 8.3 3.75 6.35 3.1-.3.55-.7.15L18.8 55.1l-.5.15-16-11.45-1.65-1.1 6.8-1.3"/><path fill="url(#m)" d="M2.95 47.6l-.65-3.8 16 11.45.65 3.6-16-11.25"/><path fill="url(#n)" d="M19.1 60.95l.35 1.8-6.55 1.65-6.7 1.45-2.95-16.3 15.85 11.4"/><path fill="url(#o)" d="M19.1 60.95L3.25 49.55l-1.8-1.3L0 47.1l1.15-.85 1.8 1.35 16 11.25 1 1-.85 1.1"/><path fill="#55381C" d="M267.75 59.85l5.4-2.65.95.2 2.3.95.5.5.35.5-.2.65-.65.3-2.3.65h-1.45l-3.25-.3-1.65-.8m-95.2 62.35h6.2l.15.5 3.1 14.7.15.65h-3.1l-13.2-.15h-.2l-.3-2.25.3 2.25h-.95l-1-7.35-.5-3.45.8-1.2-.8 1.2.5 3.45 1 7.35h.95l.2.5h-1v1.15l-.5 1.15.2 7v1.95l-.2.5-1.25.15h-.05v-.45l.35-6.55-.2-1.3v-1.3l-.15-1.35-.95.85v-.85l.15-1.1-.15-5.55-.2-1.15v-.9l-.2-.9h.7l.15-7.2h1v.5h1.15l.3-.25-.4.55-.2.45-.05-.1-.3 2.1v-.2l-.5-2.55.5 2.55v.2l-.05.1.05-.3-.05.3.2 1.5.15 1.05.1.65.9 6.55q.6.45 1.95.6l2.45.05 2.35-.1q1.35-.35 1.9-1.6l.5-3.05v-1.15h3.1l1.45 7.2v.45-.45l1.95-.2-3.1-14.5 1-.2-1 .2-4.1.45-.45-.6-.85-.55h.05m9.6 17l.65 3.6v5.55l-.15.8-.15.5-1.3.2-.2-.35v-.15l.7-1v-.65l.45-8.5m-86-77.25l.9-.65 1.5-.35h.65l1.8.5.95-.15h.85l.8.15h.8l.5.35.5.15.15.35-.15.3-.35.35-.45.3-.65.15-.85.35h-2.6l-.65-.15-.5-.35-.5-.15-.15-.35-1.45.2-1.1-1M139.2 29.4l.15-.35.7-.3 3.1-.5h1.8l.05-.15 1.55.3 1.5.65.3.35v.35l-.15.3-1.5.65-1.1.15H142l-1-.15-1.45-.5-.35-.45v-.35m6.05-2.3l.15-.3 1.5-.65.95-.2H149l1.15-.15 3.1.5.65.3.35.35v.35l-.2.3-.65.35-1.8.45h-3.55l-1-.15-.4-.15-1.05-.35-.35-.3v-.35m29.55 66.85l.35-.8.8-.65 1.3-.65 1.5-.5 1.8-.15-.5 6.2-3.25-1-1-.8-.65-.8-.35-.85m7.2 43.45h-1 1m-2.95.2l-13.2.3 13.2-.3m-15.65.65l-.35-6.9.65-.8-.65.8.35 6.9m1.3-.35l.15.5-.15-.5m-2.15-15.35l.65 4.55-.65-4.55m-103.1-70.9l7.9-2.1 1.95.3.8.35.5.3.15.5-.15.5-.65.5-.95.5-1.15.3-2.95.5h-1.5l-2.45-.35-.85-.3-.5-.5-.15-.5m77.65 93.95l-1 .15 1-.15 3.75 9.15-1.15.3v-.15.15l1.15-.3.3.65-1.1.15-2.95.5-27.8 4.55-.95.15-.15-.65 1.1.5-1.1-.5-2.65-9.45-.15-.65 31.5-4.9.2.5m-30.55 4.9l-1 .15 1-.15 2.3 8 .3 1.45 27.6-4.55.35.65-.35-.65 2.95-.5-3.6-9.15-29.55 4.75m15.85 17.45l-.65-.95-1-.85-1.3-.65-3.25-.15-1.65.5-1.45.8-1.35 1-1.45 2.6-.15 1.3-.2-.65.2-1.45.5-1.35.95-1.3 2.8-1.8 1.6-.45h1.65l2.95.8.95.95.65 1.15.2.5m6.05-.15l.15-1.5.5-1.3.95-1.3 2.8-1.8 3.1-.5 1.65.35 1.1.65 1 .8.65 1.15.35.85-.65-1.15-1-1-1.3-.65-3.1-.15-1.5.5-1.45.8-1.3 1-1 1.3-.65 1.3-.15 1.3h-.05l-.1-.65m11.25-12.75l.35.5-.35-.5"/><path fill="url(#p)" d="M145.6 61.8v-.5l.3-.15h.35L203.9 44l5.05 1.6 5.25 1.65 11.9 4.1 9.3 3.3 3.95 1.4 2.1.85-37.25 12.9-21.85 7.35-1 .3-.5.2-28.1-12.6-5.55-2.6-1.6-.65"/><path fill="url(#q)" d="M229.7 86.15l-10.95 4.4-1.3.5-7.35 2.9-19.3 8h-.65l-8.65 3.45.85-21.4 1.1-1.3-1.1-.5v-4.55l21.85-7.85 37.25-12.9.35.05-.35 2.9-.3 4.05-.5 5.25-.5 3.75-.8 7.5-.25 2.15-1.55.5V83l-4.6 1.8-1.95.85-1.3.5"/><path fill="none" stroke="#000" stroke-width=".05" stroke-miterlimit="10" d="M218.75 90.55l-.15.95m11.8-4.85l.1-.05v.35m-148.95 57l.8 7.85m-.95.3l-1-9.15M62.75 128.6l.5 7.2-.15.15-.35.15h-.3l-.35.15h-.45l-1.4-9.6M58 108.5l-.2-1.3-.3-1.45m86.6-41.5l-1.15-.85-.15-1.3m-51.95 4.25v.2M81.7 76.8l-1.15-.8M1.15 46.25l-.65-3.5v-.05h.15l1.15-.35 5.65-.95m137.3 19.55l.2 2m.15.45l.3-.3M192.95 24l-.25 5.75m-18.2 5.7V33.8m-19.95 51h.5m27.3-7.15v-.5m-50.8-30.9h-.35m8.5 2.45h-.35m5.75 16.05V63.4m-1.95 0h-.2M73.9 61.45l-.35-2.25m-.65-.35l-.35 1.8.2 1.3v1.3M58 107.35l-.2-.15"/><path fill="none" stroke="#000" stroke-width=".05" stroke-linecap="round" stroke-linejoin="round" d="M82.35 151.8l-.95.3M20.9 62.45l-1.8-1.5M231 28.6l-.15.95m4.55 25.1l1.15-.85m-162.1 9.05l-.55-1.4m-18.45 12.5l1.55.6m-2.45-8.5l1.3-.2"/><path fill="none" stroke="#888E4A" stroke-width=".05" stroke-miterlimit="10" d="M170.4 7.5L207.3 0m22.9 9.95l-23.05 5.55-5.2 1.15M187.7 21.7l-.45.2M231.5 5.7l-37.1 8.35-.3.15-.85 2.6 1.8.5m.2.85h1.45v-.35h.1l5.15-1.15M187.7 21.7l5.55-1.45m-22.85-9.8v-2.6l23.7 6.35m-24.65-4.05l.95.3 22.85 6.35m-14.85 6.9l-8.3 1.8m23.15-7.55L170.4 11.6"/><path fill="none" stroke="#888E4A" stroke-width=".05" stroke-linecap="round" stroke-linejoin="round" d="M169.85 11.4l-.2-.25-.2-1m63.2-2l-1.5 1.65m-36.1 7.5l.2.85-.95-.1-1.05-.1"/><path fill="none" stroke="#70743F" stroke-width=".05" stroke-miterlimit="10" d="M252.55 81.55l1.65.5-1 7.5-1.8 1m-1.95.95l-1.8 1-7.35-2.95.85-7.2v-.15l1.1-.5 5.6-3.1.45-4.25.35-3.25-7.35-2.3-.65.35M218.6 91.5l2.1-.8 9.7-4.05m.1.3l-1.15 10.6-9.6 4.25-9.8-4.55.15-3.3m-19.3 8l2.15-.45 11.1-4.6-.65 11.45-10.95 4.9-3.25-1.8m59.45-40.35l-5.55 2.8-1 7.5-1.3-.5-.15 1.3.5.15 7.5 2.65-1 7.5m-7.5-19.6l2.95 1m5.2.45l3.1 1m-9.15 6.35l3.95-1.95.5-.3.95.3.2-1.15 3.4-1.6m-.8 7l-1.8 1m-1-5.25l3.1 1.15m3.45 1.15q-.95.5-1.95.95m-33.65 8.5l-1.15-.45-7.35 2.9m26.8-5.85l-3.95-2.45v-.85m7.85-3.9l-1.45-.5m1.3 1.8l-.65 6.05-1.5-.5m-46.05 25.5l.5-11.75m26.8.3l.95-11.1"/><path fill="none" stroke="#555830" stroke-width=".05" stroke-miterlimit="10" d="M207.3 0l24.25 5.45"/><path fill="none" stroke="#565930" stroke-width=".05" stroke-miterlimit="10" d="M232 5.8l-.35 2.05 1 .3"/><path fill="none" stroke="#737326" stroke-width=".05" stroke-miterlimit="10" d="M169.1 109.65l-.35 10.45-2.1.65L92.5 151.9m-.25.1l-.25.1m-2.75-1.75l-7.7-6.4-1.15-1-17.65-14.35-2.5-1.95-2.25-18v-.15m-.5-2.75l75.35-24.7 13.05 2.15M68.8 25.3l45.6-8.8L138.7 32m8.7 51.35l7.15 1.45m.5 0l12.1 13.25M143.8 35.3L96.75 46.95M143.8 35.3l-5.1-3.3m-50.15 6.7l.85.4m65.65 45.7l-8.7 3-69.7 24.6 13.4 19.45 79.2-31.2m-22.9-12.85l8.2-3m-78.9 27.3l1 .3-.3-.15-.7-.15L58 107.35l32.05 24.5.3 2.6 69.95-27.9m-102.3.8v1.15m17.65 3.6l-18.15-6.35m31.9 44.75l-1.5-17.65m2.45 1.6L92 152M82.2 35.6L68.8 25.3"/><path fill="none" stroke="#737326" stroke-width=".05" stroke-linecap="round" stroke-linejoin="round" d="M160.3 106.55l8.95-3.45"/><path fill="none" stroke="#960" stroke-width=".05" stroke-miterlimit="10" d="M1.45 48.25L0 47.1m2.95.5l-.65-3.8m-1.15 2.45l1.8 1.35 16 11.25-.65-3.6m.65 3.6l1 1m-.85 1.1L3.25 49.55"/><path fill="none" stroke="#960" stroke-width=".05" stroke-linecap="round" stroke-linejoin="round" d="M0 47.1l1.15-.85m18.8 13.6l-.85 1.1"/><path fill="none" stroke="#963" stroke-width=".05" stroke-miterlimit="10" d="M19.1 60.95l.35 1.8v.5M6.2 65.85l6.7-1.45 6.55-1.65M12.9 64.4v.15"/><path fill="none" stroke="#694623" stroke-width=".05" stroke-miterlimit="10" d="M297.3 45.45l1.8-.8 1.65-9.35-43.95 19.15v.15l-1.45 11.1 8.5-4.05m30.85 8.15l4.4-25.15m3.3-12.95v2.75l-1.65.85M256.8 54.6l-1.3 3.25-2.95 23.7m-1.15 9l-.45 3.1m-1.8-.15l.3-2m-8.3 0l-2.95-1.3m-1.3-.65l-7.2-3.4M181.2 118l-.35 3.75m-1.6-.2l.3-3.9M174 112.4l-4.9-2.75m-.35 10.45l-.15 1.3m10.3 1.3l3.1 14.7.15.65v1.15l.65 3.6v5.55l-.15.8-.15.5-1.3.2-.2-.35v-.15l-.3-1.65-16.15.5v1.45l-.2.5-1.25.15h-.05v-.45l-.3-1.65.35-4.9.1-1.95v-.65l-.15-1.35-.95.85-.5-1.3v-1.15l-.2-1.3.45-4.9.05-.65m-.2-1.15h.7l.15-7.2h1l1.15.5m2.1-1.3l-.15-1M145.9 83.2V66.85l-2.1-1m-2.95-4.05V60l-3.6-1.65-1-5.85-.3-1.15 4.75-1.15-.35-1.65-.65.15v.5l-.35-.15v-.35l1-.15.35-.15v-1l.15-.15-.15-.15-.35-1.8v-.15l-.15-1.45v-.05l.3-4.4v-.8l1.5-.35 1.8-.5v-2.3m-9.35 21.6l-1.95-.65V53.6l-1.95.5 2.3 12.45-.65 1.75h-.35L130.7 67l-2.15-11.85m-.1-.4l-8.2 2.15.35 10.45m-1.15 0l-.4-10.55m-8.1-10.5L96.6 49.4l-1.35-1 .9 13.55m.6 9l.3 4.25m-1.6 0l-1.8-28.1-3.95-2.95-.15 1.15m1 16.35l.3 4.7M59.3 53.15l-38.4 9.3-.3-1.8 38.85-9-.15 1.5M24 81.9l1.95 12.7m-1.45.2l-1-6.2m-1.1.15L8 76.5l.65 3.1m-1.45.15L6.35 75l-2.6-2.25m1-.85l1.3 1-4.6-24.65 1.8 1.3 2.95 16.3M168.95 35.6v-3.75L167 31.2m.3-1l1.65.65.5-19.6m0-1.1V7.7m61.7 2.1l-1.6 18.3 1.45.5m-.15.95l-1.5-.5-.3 4.9m-1 0l.35-5.05-7.85-2.1m-27.1 9.85l-.35 7.85m-1.15 0l.35-4.6-7.85-2.75-3.9-1.35-6.05-2-4.6-1.6.2 3.25m15.65 3.65l-.3 9.8-40.7 12.05m.65 2.15v-.05l.2-1.25m63.35-16.2l44.9-16.2 48.55 2.3-45.6 19.65v3.1m-2.95.15h.85l1.15-.15-.35 3.4m-4.1 17.5l2.45-20.75-27.75-3.25M251.25 77l.15-1.65m-.15 1.65l-.5 3.9-.3 3.1-1 7.5m2.8-8.5l.3-1.45m-.3 1.45l-.85 7.55m-21.2-80.6l.95-.15M210.6 22.85l17.95 5.1 1.65-18m-19.6 14.4v-1.5m8.5 3.45l1.3.5h.15m-1.45-.5l-4.9-1.15-3.6-.8m3.6 22.9l42.6 4.1m-27.45-22.3l.2-.95m-1.15.8l.15-.95m-35.3-10v2.3l-.3 3.75-.5 5.75m.25 0l-.1 1.3-.3 5.9v1.8l-2.95-.95-4.4-1.5m-10.45-3.65l-4.6-1.45-.95-.35m25.35-12.8l-.05 1.9m-.15 3.75l.15-3.75M170.4 11.6l-.55-.2m.25 14.1l-.2 5.7m0 1l-.95-.35m-3.3 11.95l-1.8.35m-17.6 5.05l-1 .5-1.8.8.15 5.75m50.15-25.55l-.3 5.95M170.4 11.6l-.3 13.9m-17.35 39.55l-4.4 1.3L180.7 81.4l.15-3.75m-33.65-15.2v3.4l1.15.5m32.2 24.85l.15-8-33.5-15.7.2 15.85-1.5-.15m33.65 30.55l1.65.8M182.35 84l-1.65-.8m.65-5.75l1 .2m0 4.55l-1.65-.8m50.3 4.25l5.9 2.45m1.45.65l1.95.8m-67.6 20.25l.95.5m-4.55-2.45v1.8m-5.55 13.4v-.5m17.65-6.2l-1.65-1v2.3m0-2.3L174 112.4m3.9 10.5l3.1 14.5h1m-16.35.5l.2.5h-1v1.15l-.3 8.15v.5m1.3-10.3l13.2.15v-.45l1.95-.2m-17.3-6.85l-.65.8.35 6.9m1.45.15l-.15-.5m-1.3 5.4l-.2-1.3v-.65m-1.3-9.8l.2 1.15.15 5.55-.15 1.1v.85m2.45 7.5l-.2-7 .5-1.15m-1.45 3.75l-.35 6.55m16-11.8h3.1m-1.45 9.65h1l.45-8.5m-.45 8.5v.65l-.7 1m-17.8-22.25l-.65-4.55m15.35.35l-.3 7.5m-53.9-87.7l.8-.2m8.35-.3l.15-1.15h.15l-.15-.8 7.5-1.8m-43.75 8.5l-.15 2.45m28.25 5.05l3.25-1-.5-2.6 2.3-.5.5 2.6.15 1.15m2.6-13.05l7.2-1.65.15-.15m.2 7.85l-7.05-5.25 1.8-.65 4.9-1.8m-5.9 6.2H134m.45 0l1.15-.45h.5v.45l-1.15.35 1 5.4m4.8-6.65l-.55-1m.95 2.9l-.4-1.9m.75 3.55l.65-.2m-.15-8.3V38.1m-6.55 3.1l3.45 2.95m-5.75-3.1l.85 4.55m10.6 3.45l.65.65M89.4 39.1l.15 2.75 7.2 5.1M89.4 39.1l-.8.15h-.35m-.4 5.4h.05l.2 2.45.8 12.4m1.65 2.15l-1.3-15.2.3-1.15m.15-1.15v-.8m23.55 2.45v-.5l3.75-1 6.7-1.6m1.15 11.75l-4.75 1.3-.15-5.4-1.15.35.25 6.1m-22.3 14.15l-.6-9m47.3-11.45l-.65.35m-.15 9.95l-.15-1.3m1.75 4.9l.85.35.3-1.65m.5 3.75l1.3.65m-2.1-2.75l2.1 1.1m-4.4-3.75l-.15-1.3-1.95-9.45.15 8.65m-.15-9.8l.15-.15m-6.4 6.85l-.65-3.45-1.3.15m1.15-1.6l-1.15.3-2.1.65m2.1-.65l.2-2.1m.95 1.8l.15 1.45m6.9-2.1l-4.45 1.15m-7.8 2.25l.1.4m1.2-5.45l-1.5.35m4.6-2l.8 3.95m-60.1 5.85l6.55 2.95M6.35 75L8 76.5m14.55 5.7l.8 5.4L7.7 74.35 6.05 72.9m1.65 1.45l-1.5-8.5m67.35-6.65l-.65-.35m.65-1l-1.3-.8.15.8v.65l.5.35m.65.35l4.75 2.75m57.8 83.8l1-.15-.2-.5-31.5 4.9.15.65 1-.15 29.55-4.75 3.6 9.15v.15l1.15-.3-3.75-9.15m24.8-14.9v.85m-52.6 29.05l-1.1-.5.15.65.95-.15 27.8-4.55-.35-.65-27.6 4.55-.3-1.45-2.3-8m3.4 20.4l-.95.15-2.95-11.1-.5-9.3 2.65 9.45m1.95 11.45l.15-1.3 1.45-2.6 1.35-1 1.45-.8 1.65-.5 3.25.15 1.3.65 1 .85.65.95.15.35 5.9-.5.15-1.5.5-1.3.95-1.3 2.8-1.8 3.1-.5 1.65.35 1.1.65 1 .8.65 1.15m-18.15 3.1l-.65-1.15-.95-.95-2.95-.8H116l-1.6.45-2.8 1.8-.95 1.3-.5 1.35-.2 1.45.2.65.3 1.3.65 1.15 1.15 1 2.8.8 1.6-.15 1.65-.5 1.45-.65 1.35-1.15.95-1.15.5-1.3.15-1.45m18.05-5.05l.4-9-1.1.15-2.95.5m-28.75 4.7l.65 10.3m30.7-16.15l-2.95.5-.5-1.35-27.4 4.45m31.2-2.95l-.35-.5m1.15-.3l.3.65m-12.55 13.05l.15-1.3.65-1.3 1-1.3 1.3-1 1.45-.8 1.5-.5 3.1.15 1.3.65 1 1 .65 1.15-.35-.85m-11.75 4.1l.3 1.3.65 1.15 1 .8 1.3.65 1.5.35 1.6-.15 1.65-.5 1.3-.65 1.3-1.15 1-1.15.8-2.6-.3-1.3.05-.8m-12.2 4.05l-.1-.65m.45 1.95l-.3-.8-.05-.5m7.55-22.7l.15 8.3"/><path fill="none" stroke="#694623" stroke-width=".05" stroke-linecap="round" stroke-linejoin="round" d="M293.05 69.65l1.65.15m-43.75 23.85l-1.8-.15m-8.85-3.95l.85 1.95m-60.3 30.25l-1.6-.2m-35.45-55.7l.45-1.45m-1.45-2.3l-1.95-.3m-20.25 5.55h-1.15m-22.4 7.85h-1.6m-69.5 19.4l-1.45.2m-1-6.2l-1.1.15M8.65 79.6l-1.45.15m-3.45-7l1-.85M167 31.2l.3-1m61.75 3.75h-1M193.1 44.5h-1.15m-104.4-5.1l.3 5.25M80.1 60.8l1.25.45m41.05 106.7l-.2-.5m.5 2l-.3-1.5"/><path fill="none" stroke="#777" stroke-width=".05" stroke-miterlimit="10" d="M229.7 86.15l-10.95 4.4m-8.65 3.4l-19.3 8h-.65M145.6 61.8v-.5l.3-.15h.35L203.9 44l5.05 1.6 5.25 1.65 11.9 4.1 9.3 3.3m5.25 14.5l-.5 3.75m1-9l-.5 5.25m-59.8 8.5l.5-.2 1-.3 21.85-7.35 37.25-12.9-2.1-.85-3.95-1.4m-54.55 23l-28.1-12.6-5.55-2.6-1.6-.65m35.9 43.6l.85-21.4m0-6.35v4.55l1.1.5m-1.1-5.05l21.85-7.85m37.6-12.85l-.35 2.9m-24 31.2l1.3-.5m14.2-5.75l4.6-1.8v.05m1.55-.5l.25-2.15.8-7.5m-7.2 11.9l-1.95.85-1.3.5"/><path fill="none" stroke="#777" stroke-width=".05" stroke-linecap="round" stroke-linejoin="round" d="M183.45 82.7l-1.1 1.3"/><path fill="none" stroke="#999" stroke-width=".05" stroke-miterlimit="10" d="M132.85 42.2l.8 2.45-.65-3.6m-5.4 9.8l-.15-.5-1 .15m9.65-5.35l-1.65.45m-.45 0h-.2l-.65.35h-.8v.15m1.65-.5l-.35-.95.15.95m6.55-.45l.5.15-.1-.6m.1 2.55v-.15h-.15m.45-.35v-.15l.35 1.65h-.15l-.35.15-.65.15m.5-1.45l.3.3v-.65l-.3.35m0 .15l.15 1.15m.15-1l.2.85m-.2-1.5l-.3-1.45m-12.6 4.75l-.8.3"/><path fill="none" stroke="#999" stroke-width=".05" stroke-linecap="round" stroke-linejoin="round" d="M161.9 130.9v-.25l-.2-.9"/><path fill="none" stroke="#707070" stroke-width=".05" stroke-miterlimit="10" d="M144.25 64.4l-.15-.15m-6.85-5.9l1.15 6.4-.8 2.1h-.35l-1.3-1.65-1.3-8.3h-.2m-43.6 9.65l1.5.8 2.1 3.1.35 1.8v1.95l-.5 1.8-.8 1.65-1.35 1.15-1.6.95h-.35l-1.8.5-1.8-.15-1.8-.5-1.6-1-1.5-1.8m-1.15-.8l-.8-.8-1.65-2.3M57 74.55l1.95.45 1.65 1.15 1.5 1.5 1 1.8.5 1.95v1.95l-.65 1.95-1 1.65-1.5 1.3-1.8 1-1.95.45-.2.2-2.1-.2-1.95-.45-1.65-1.15-1.45-1.5-1-1.8-.5-1.95V80.9l.5-1.95 1.15-1.8 1.45-1.3 1.8-1h.35l1.8-1.15M19.45 63.25l1.6-.15 8.35-1.45.35 1.6.15 3.6-.15 1.8m115.2-5.7l.15.45-.85 1m-.65-8.15l.95 4.75.4 1.95m-11.7-16.6l1.7-.4m7.2 2.1l.15-1.1m-.15 1.1l.8-.15.2.35-.85.15-1.6.5.15 1.15 1.65 9.45.65 3.9.95.85m-1.3-13.4l-.3-1.3h.3l.35-.15 1.45-.35m-55.2 15.5v1.3l1.3.5.15.2M88.9 59.5l-7.55 1.75-3.05.7-2.15.5v3.1m-2.35.85l2.35-.7V67l.35 1.65.95 2.95m7.85-5.55l1.8-.5 1.8.15.5-1.15M80.55 75.5v-3.9l.5-1.8.85-1.3m60.9-17.65l.8 5.4m-9.8-2.8l.35-.15-.35-1.3h-.15m1.15 5.05l-.15-.15m-.5-3.6l.65 3.75 1.45 8.35 1.35 1.45m-1.35-1.45l-.3-.2m-3.1-18.6l.95 5.4M23.85 81.25l1.8-2.15 1.95-3.25.8-1.8 1-3.45m.15-.8l.2-1.15m-16.85-4.1l6.55-1.3m-6.55 1.3v3.75l.8 3.6.5 1.8 1.95 2.95 2.3 2.45.15.65 1.5.65 1.45 1 1 .5.1.05.4.1.8-.8m45.45-13.6l3.5-1M57 74.55l-1.45-.2-.1-.4M73.8 66.4l-1 .25M80.55 76v-.5l1.15 1.3"/><path fill="none" stroke="#707070" stroke-width=".05" stroke-linecap="round" stroke-linejoin="round" d="M88.9 59.5l.5 5.05M77.45 71.6l.65 1.3m3.8-4.4l3.4-2.45m-29.85 7.9l-.55-.25"/><path fill="none" stroke="#7A7A28" stroke-width=".05" stroke-miterlimit="10" d="M54.9 73.7l-3.8 1-4.9-3.25-1.1-9.8 11.6-2.95 2.6 1.6v-7.15m59 4.05l-.65-.3-6.7 1.8-3.9-1.95-.35-6.4 6.7-1.65-.15-1.3v-1.6l-2.3.5M78.1 72.9l-4.7.5-3.75-2.3-.2-1.8-2.45.35-4.25 1.1.2.85-6.1 1.6.15 1.35m-26.15-5.1l1.5 10.15L24 81.9m141.5-44.6l3.1-1-.15-.15v-.35l.15-.2h.35m51.6-8.8l4.25 1.8-.5 5.55-4.4 1.3-4.6-1.5.2-1.45-1.3.35-4.45-1.35.35-3.75-.65 2v.15l-.35.3-2.6.5h-1.45v1.15l-6.7 1.8-3.45-1.15-.3 3.8-1.15.35M182 37.8l3.75 1.3-20.25 5.55.15-.85-6.5-4.9 6.35-1.6m44.9-20.5l-.45.5-2.45.5h-1.15l-1.1-.15h-.05l-.05.1m.05.05l-.5 5.55v.5l.8.3-.45 6.55m2.1-15.2l2.6.65.5.35.15.3.2 1v1.15l.15 1.15-.15 2.75m-8.65-6.2l2.45 1 .65.15.1-.05m-.6.2l-.05.05-3.9.95-.3 5.4 3.25-.85 1.15-.15m.35-5.55h.15l-.65.15.5-.15m-1.5 5.7l1.15.35m15.85 2.95l-1.65.95-3.1.85 4.6 1.3 4.4-1.3m-5.9-.85l.2-1.45-4.6 1.15-.3 5.4m0-7.7l-3.95 1 4.25 1.3m5.4 8l.5-5.55m-4.9 2.6l.3-3.9m-5.55-2.45h-.15v1.6m.5-3.4l-.35 1.8m-23-4.25l-4.6 1.15-.15 5.55 3.6-.85 1.3-.3.3-5.5v-.25m-.45.2l-3.8-1.3-5.05 1.1 4.25 1.35m2.3 13.25l-4.4-1.5-6.05-2.15.15-4.4 3.6-.95.15-3.6v-2m18.4-3.85l-.1-.05m.1.05l3.8 1.1m-6.35 1l2.3-.35.15-1.45m-2.75 6.2l.15-.65m2.45-4.1l-.5 3.6 4.25 1.15m-4.25-1.15l-2.1 1.15 4.9 1.45 6.65-1.65M175.3 35.3l-.8.15h-.15l-.35-.15h-.65l-.65-.2h-1.5l-.45.2-.65.15-.2.15h-.95m7.15.2l4.25 1.5m-5.7-9.05l6.05 1.95 6.65-1.8m-.1-.3l-1.15-.35m-5.4 2.45l-.15 4.6m-11.95 1.5l.15.15.7.35 1.75.35 2.3.15 2.3-.5m-11.95 7.35l-17.45 4.9-.15.15m18.95-9.8h.95m-.8 1.15h.65l.5-.15-1.15.15m5.85-3.4l1 .15h1.3m6.85 1.15h.85m11.25-8.7l-2.1-.7-2.65.7-2.6.65 4.6 1.45 2.9-.8m2.3 1.45v-1.95l-1.15.15m5.1-4.9l-.5 7.85m-10.65-3.9l.2-1.5-.55.15m.05-.95l-.15.65.65.15m-2.95 8.05l.15-5.9m4.6 1.45l-.35 5.95 2.95-.85m1.65-12.6l-.2 6.35m-15.5-3.4l4.25 1.3m-58.8 14.1l.15 6.2.8.3.2 5.25m17.45-7.5l-.3-7.2m11.9-3.1l9.95 7.5m-9.9-7.7l-2-.15-9.95 3.45m.3 7.2l1.65 1.3.65.8.35-.15 1.3.3M161.1 44l-1.3-.5m-1.95-.65l-1.15-.5m-2.8-4.25v-1.45m-1.3 4.05h-1.15m-33.8 16.2l-.35-6.4-6.65 1.8.3 6.4m-.3-6.4l-3.95-1.95m-30.55 15.2l-2.35.85m50.85-17.2l-4.7 1.15m3.9-1.45l-6.55 1.6-3.9-1.8m3.9 1.8l-.3-6.2M29.4 70.6l.15-.8 1.3-.35m-7 11.8l.15.65m48.75-18.65l1.7-.4 1.7-.4M69 64.25l.3 3.4-6.7 1.65-6.1 1.65-1.3.5.15 2.1v.05l.1.35m17.35-7.3l-3.8-2.4 3.75-1M69.4 69l-2.4.65m5.8-3l.05.05.95-.3m2.35.6l-3.25 1 .5 5.4m-10.8-4.1l-.8-7.5L50 64.9l1.1 9.8M72.9 68l-3.5 1m-6.65 1.75L56.7 72.4l.15.8m-1-7.35l.65 5.1m-1.95-4.9l.65 5.4M50 64.9l-4.9-3.25m16.7.15l-2.5-1.5"/><path fill="none" stroke="#7A7A28" stroke-width=".05" stroke-linecap="round" stroke-linejoin="round" d="M175.3 35.3l.8.5m4.25 1.5l1.65.5"/><path fill="none" stroke="#673F00" stroke-width=".05" stroke-miterlimit="10" d="M189.2 111.45l-1 4.1-.8.8-1.15.8-1.45.5-3.6.35m-1.65-.35l-1.95-.35-1.5-.65-.95-.8-.65-1-.5-2.45m-5.4 9l1.8.15 2.05.65h6.3l.15.5m-14.2.35l.3-.25m.05-.05l.8-.7.95-.3M97.05 61.3l1.5-.35h.65l1.8.5.95-.15h.85l.8.15h.8l.5.35.5.15.15.35.65 3.55v.85l.2.8v3.6l-.35 1.65v.3l-.3.35-1.15.65-1.65.3h-.8l-1.65-.3-.5-.15-.5-.35v-.35l-.3-.8-.15-1.15H97.9l-1.15-.3m-7.2-25.65l.65 1.8 1 5.2v7.85l-.65 1.5M138.7 32l.2-1.45.3-1.15.15-.35.7-.3 3.1-.5h1.8v-.15l.3-1 .15-.3 1.5-.65.95-.2H149l1.15-.15 3.1.5.65.3.35.35.15 1.15.4 1.35.25 3.7.15-3.75.05-.05.55-3.05.05-.35.85-.65.8-.15.8-.5V24l-.15-.8v-2.6l.15-.85m.85-2.25l.95-.35h2m2.1 2.8l.15.8v1.95l-.15.65v.8m-.8 2.95l1.3-.5.15-.3.35 1.15.3 2.3v7.55m82 22.55l.15-.35v-.3l-.15-.2-.5-.3-1.15-.35h-.8l-.65-.15h-.8l-1.5.3v.7l.35.3.3.15.2.2.3.15.8.15h2.8l.65-.3m.35.3l-.2-.65m.2.65v2.8l-.2.65v.65l-.8 3.4-.5.5h-.5l-.65.15h-1.45l-1.8-.45-.5-.35-.15-.15V67l-.15-.65V63.9m-4.6-10.1l.8-.2H239l1.65.35.95.5.35.3v.35l.15.8v2.6m-82.95-32.05l3.4.85.85-.2m3.75 70.95q.75-.3 1.45-.65l5.05 2.6 1.15-6.05.35-.8.8-.65 1.3-.65 1.5-.5 1.8-.15-.5 6.2-.5 16.35m-12.4-15.7l2.1 2.6v2.45l4.25-1.6.15-.85V100m6.4-2.6l-3.25-1-1-.8-.65-.8-.35-.85m6.4 20.6l.3-9.15m57.85-49.35l2.1-.45.5-.5m-.15 1.85v-.05h-.35l.65-.35m-.65 3.3h1.5m-1.5 0l-.3 4.05m-51 38.05l-.3 6.25-.65 3.25m-15.55-1.15l-.15-1.15-.8.65m.95.5l5.9 3.45m-6.05-4.6v-7.65m-4.25 1.6l-.15 4.75 3.6 1.95m-8 13.25h-1.15l.5 2.55v.2l.3-2.1.05.1.15.55.45.65.65.5 1 .5 1.15.3h2.6l1.15-.15 1-.5.65-.5.45-.5.2-.65-.2-.65h.15l4.1-.45 1-.2m-10.3-1.3l-1.8.35m14.4-5.4V118m-6.7 12.4v-2.15l-.15-.95v-1.15l-.5-2.15m.65 6.4v1.15l-.5 3.05m-8.65 1.05l.3 2.25h.2l13.2-.3-1.45-7.2h-3.1m-10.5-4.5l.05-.1m-.05.1l-.8 1.2.5 3.45 1 7.35h.95m-.3-2.25l-.9-6.55m25.7-27.15l-8.65 3.45m-33.15-76v.35l-.15.3-1.5.65-1.1.15H142l-1-.15-1.45-.5-.35-.45v-.35m-14.7 13.1l7.85-2.1.15.8.35 1m-8.35.3V44l1 4.9.15.3 1.45.65 1.15.2-.95-5.1m2.45 4.75l1.15.5h1.8l.15-2.15V46.45l.4-.1m-.1-.4l-.8.15-.8.15.15.5h-.35l-.15-.5 1.15-.3.5-3.75m23-15.9l1 .65 3.1.5 2.6-.15m-6.7-1.35v.35m-9.2 1.8l.4.15 1 .15h3.55l1.8-.45.65-.35.2-.3v-.35m-.35 9.7l.5-.2H153.95m1.1-.3l.15-.85-.15-1.15v2l4.1 2.75m-4.75-2.45l.65-.3-1 .3m1-2.3v-1m-8.5-4.75l1.5.65.3.35.35 1.15.3 2.3v1.3l.15.3v2.7l2.8-.85m-6.7-9.2v.35l.35.3 1.05.35m-.1.3l-1.55-.3h-.05m4.2 9.05l-5.35 1.3v-.85m-64.05 9l1.95 1.15h2.8l2.6-.35 1-.3m9.15 15.85l1.45-.2.15.35.5.15.5.35.65.15h2.6l.85-.35.65-.15.45-.3.35-.35.15-.3m-6.7 8.95l-.3-2.25v-4.45l.3-1.45M80.1 60.8l-.5-1.3-.8-5.2v-1.35l-.2-1.3v-1.3l.2-1.3v-1.3l.15-1-6.4 1.65 1 9.45m-6.2-8.3l2.6-.65 1.15-.2 1.45-.3m6.4-1.65l.8-.15 8.1-1.95m-28.4 7l7.9-2.1 1.95.3h.8l-.15-.95m2.3 8.15l-.65-3.25-.85-2.8-.15.5-.65.5-.95.5-1.15.3-2.95.5h-1.5l-2.45-.35-.85-.3-.5-.5-.15-.5M70.1 50.2l.5.3.15.5m-.65-1.15v.35l-.8-.35m1.8-1.15l.5 5.1m88.2-35.35h3.3"/><path fill="none" stroke="#673F00" stroke-width=".05" stroke-linecap="round" stroke-linejoin="round" d="M163.1 18.45l1.1 1.5m-68.05 42l.9-.65m61.25-41.55l.85-2.25m2.95-.35l1 1.3m1.1 5.7l-.8 2.95m17.8 87.45v1.8m-53.9-71.4l1-.1 1.45 4.85m29.4-23.25l-.85-1.8m-62.15 37.3l1.1 1"/><path fill="none" stroke="#89892D" stroke-width=".05" stroke-miterlimit="10" d="M13.7 71.9l.35 1.8h.15m4.4 6.05l1 3.25 2.95-.8v-.3M19.6 83l-4.55-3.75-1-5.55"/><path fill="none" stroke="#87872D" stroke-width=".05" stroke-miterlimit="10" d="M29.75 68.65l1.1.8"/><path fill="none" stroke="#9E6B05" stroke-width=".05" stroke-linecap="round" stroke-linejoin="round" d="M7.45 41.4l59.4-11.85 1-.3 1.45.5m18.95 9.5l.3-.55-6.35-3.1-8.3-3.75-2.95-1.95-1.65-.15m18.95 9.5l-.7.15L18.8 55.1l-.5.15-16-11.45-1.65-1.1 6.8-1.3"/><path fill="none" stroke="#999E62" stroke-width=".05" stroke-miterlimit="10" d="M184.45 37.15l-2.45.65m-1.65-.5l.2-1.5"/><path fill="none" stroke="#999E62" stroke-width=".05" stroke-linecap="round" stroke-linejoin="round" d="M128.55 55.15l-.1-.4m-.35-1.3l.35 1.3"/><path fill="none" stroke="#55381C" stroke-width=".05" stroke-linecap="round" stroke-linejoin="round" d="M165 122.8h.05v-.05m-.65 1.05l.2-.45.4-.55m8.8.55l-.45-.6-.85-.55h-.05m1.55 12.4q-.55 1.25-1.9 1.6l-2.35.1-2.45-.05q-1.35-.15-1.95-.6M164 125.9l.05-.3m.4 3.5l-.1-.65-.15-1.05-.2-1.5"/><path fill="none" stroke="#7B5228" stroke-width=".05" stroke-linecap="round" stroke-linejoin="round" d="M237.55 97.25l-1.5-.35m-143.55 55l-.25.1m-2.85-1.5l-.15-.15m148.3-67.3l1.55-.5M92 152h.25"/><path fill="none" stroke="#7B5228" stroke-width=".05" stroke-miterlimit="10" d="M238.2 90.2l-.65 7.05m-1.5-.35l.85-7.35m0-1.45l.65-5.05m.8 5.7l-.15 1.45m.3-2.45l-.15 1m-1.45-.65v1.45m1.6-1.8l.6-5.2"/><path fill="none" stroke="#26190C" stroke-width=".05" stroke-miterlimit="10" d="M92 152.1l.35 10m-2 .45l-.95-12.05m2.6 1.6v-.1"/><path fill="none" stroke="#26190C" stroke-width=".05" stroke-linecap="round" stroke-linejoin="round" d="M92 152q-.7-.05-1.4-.65l-1.2-.85m2.95 11.6l-2 .45"/><path fill="none" stroke="#929230" stroke-width=".05" stroke-linecap="round" stroke-linejoin="round" d="M119.05 56.8l-.75.4"/><path fill="none" stroke="#673F00" stroke-width=".05" stroke-miterlimit="10" d="M263.85 61.65l3.9-1.8"/><path fill="none" stroke="#694623" stroke-width=".05" stroke-linecap="round" stroke-miterlimit="10" d="M267.75 59.85l5.4-2.65 24.15-11.75-4.25 24.2"/><path fill="none" stroke="#673F00" stroke-width=".05" stroke-linecap="round" stroke-miterlimit="10" d="M267.75 59.85l1.65.8 3.25.3h1.45l2.3-.65.65-.3.2-.65M277.25 59.35l-.35-.5-.5-.5-2.3-.95-.95-.2m4.1 2.15l.15 2.95-1 8.8-.5 1.3-.3 1.5-.5 1.3-.15.65-.5 1.3-.65.5-1 .3-2.75.35-3.1-.35-2.65-.95-.95-.5-.5-.65-.15-.65-.15-1.3.45-8.7.85-3.55"/></svg>