<svg xmlns="http://www.w3.org/2000/svg" viewBox="0 0 315.4 58.0" width="315.4" height="58"><defs><linearGradient gradientUnits="userSpaceOnUse" x1="-819.2" x2="819.2" gradientTransform="matrix(.187 .006 -.001 .021 161.3 23.85)" id="a"><stop offset="0" stop-color="#65381B"/><stop offset="1" stop-color="#7E4723"/></linearGradient><linearGradient gradientUnits="userSpaceOnUse" x1="-819.2" x2="819.2" gradientTransform="matrix(.008 0 0 .001 141.9 35)" id="b"><stop offset="0" stop-color="#65381B"/><stop offset="1" stop-color="#7E4723"/></linearGradient><linearGradient gradientUnits="userSpaceOnUse" x1="-819.2" x2="819.2" gradientTransform="matrix(.008 0 0 .001 200.95 35.9)" id="c"><stop offset="0" stop-color="#65381B"/><stop offset="1" stop-color="#7E4723"/></linearGradient><linearGradient gradientUnits="userSpaceOnUse" x1="-819.2" x2="819.2" gradientTransform="matrix(.008 0 0 .001 264.5 37.3)" id="d"><stop offset="0" stop-color="#65381B"/><stop offset="1" stop-color="#7E4723"/></linearGradient><linearGradient gradientUnits="userSpaceOnUse" x1="-819.2" x2="819.2" gradientTransform="matrix(.006 0 0 .002 306.55 9.7)" id="e"><stop offset="0" stop-color="#65381B"/><stop offset="1" stop-color="#7E4723"/></linearGradient><linearGradient gradientUnits="userSpaceOnUse" x1="-819.2" x2="819.2" gradientTransform="matrix(.008 0 0 .001 307.75 6.8)" id="f"><stop offset="0" stop-color="#65381B"/><stop offset="1" stop-color="#7E4723"/></linearGradient><linearGradient gradientUnits="userSpaceOnUse" x1="-819.2" x2="819.2" gradientTransform="matrix(.001 0 0 .004 312.8 8.7)" id="g"><stop offset="0" stop-color="#65381B"/><stop offset="1" stop-color="#7E4723"/></linearGradient><linearGradient gradientUnits="userSpaceOnUse" x1="-819.2" x2="819.2" gradientTransform="matrix(.006 0 0 .002 233.65 7.9)" id="h"><stop offset="0" stop-color="#65381B"/><stop offset="1" stop-color="#7E4723"/></linearGradient><linearGradient gradientUnits="userSpaceOnUse" x1="-819.2" x2="819.2" gradientTransform="matrix(.008 0 0 .001 234.9 4.8)" id="i"><stop offset="0" stop-color="#65381B"/><stop offset="1" stop-color="#7E4723"/></linearGradient><linearGradient gradientUnits="userSpaceOnUse" x1="-819.2" x2="819.2" gradientTransform="matrix(.001 0 0 .004 239.95 6.85)" id="j"><stop offset="0" stop-color="#65381B"/><stop offset="1" stop-color="#7E4723"/></linearGradient><linearGradient gradientUnits="userSpaceOnUse" x1="-819.2" x2="819.2" gradientTransform="matrix(.001 0 -.002 .004 177.55 3.95)" id="k"><stop offset="0" stop-color="#65381B"/><stop offset="1" stop-color="#7E4723"/></linearGradient><linearGradient gradientUnits="userSpaceOnUse" x1="-819.2" x2="819.2" gradientTransform="matrix(.002 .001 -.002 .003 182.4 5.95)" id="l"><stop offset="0" stop-color="#65381B"/><stop offset="1" stop-color="#7E4723"/></linearGradient><linearGradient gradientUnits="userSpaceOnUse" x1="-819.2" x2="819.2" gradientTransform="matrix(.001 .001 -.006 .004 110.75 4.1)" id="m"><stop offset="0" stop-color="#65381B"/><stop offset="1" stop-color="#7E4723"/></linearGradient><linearGradient gradientUnits="userSpaceOnUse" x1="-819.2" x2="819.2" gradientTransform="matrix(.002 .002 -.003 .002 115.05 4.95)" id="n"><stop offset="0" stop-color="#65381B"/><stop offset="1" stop-color="#7E4723"/></linearGradient><linearGradient gradientUnits="userSpaceOnUse" x1="-819.2" x2="819.2" gradientTransform="matrix(.002 .003 -.006 .004 75.55 34.5)" id="o"><stop offset="0" stop-color="#65381B"/><stop offset="1" stop-color="#7E4723"/></linearGradient><linearGradient gradientUnits="userSpaceOnUse" x1="-819.2" x2="819.2" gradientTransform="matrix(.002 .003 -.006 .004 7.5 31.8)" id="p"><stop offset="0" stop-color="#65381B"/><stop offset="1" stop-color="#7E4723"/></linearGradient><linearGradient gradientUnits="userSpaceOnUse" x1="-819.2" x2="819.2" gradientTransform="matrix(.001 .001 -.001 .001 .45 37.35)" id="q"><stop offset="0" stop-color="#65381B"/><stop offset="1" stop-color="#7E4723"/></linearGradient><linearGradient gradientUnits="userSpaceOnUse" x1="-819.2" x2="819.2" gradientTransform="matrix(.002 .002 -.003 .002 53.05 3.6)" id="r"><stop offset="0" stop-color="#65381B"/><stop offset="1" stop-color="#7E4723"/></linearGradient><linearGradient gradientUnits="userSpaceOnUse" x1="-819.2" x2="819.2" gradientTransform="matrix(.002 .003 -.006 .004 47.8 1.5)" id="s"><stop offset="0" stop-color="#65381B"/><stop offset="1" stop-color="#7E4723"/></linearGradient></defs><path fill="url(#a)" d="M183.05 8.75l45.45 1 10.2.2 2.35.1 60.3 1.3 10.2.2 2.3.05 1.55.05v.1l-43.75 32.4-.05-.05-1.05-.05.3-7.8v-.1l-.05.1-8.95-.25-3.65 2.25-.15 5.5-51-1.55.25-7.3v-.1l-.05.1-8.95-.3-3.6 2.25-.15 4.95-46.5-1.45.2-6.4v-.1l-.05.1-8.95-.25-3.65 2.25-.1 4.05-54-1.65.15-5.1v-.1l-.05.1-8.9-.3-3.65 2.25-.05 2.75-55.5-1.75.15-5.65v-.1l-.05.1-6.25-.2L40.75 5.6l.45.05 10.2.2 2.35.05L103.2 7l10.2.25 2.35.05 54.75 1.2 10.2.2 2.35.05"/><path fill="url(#b)" d="M135.6 35.95l3.65-2.25 8.95.25-2.3 2.4-.1-.1-10.2-.3"/><path fill="url(#c)" d="M194.7 36.85l3.6-2.25 8.95.3-2.25 2.35-.1-.1-10.2-.3"/><path fill="url(#d)" d="M258.2 38.25l3.65-2.25 8.95.25-2.3 2.4-.1-.1-10.2-.3"/><path fill="url(#e)" d="M301.35 11.35l.15-3.55 10.2.3-.05.15-.1 3.3-10.2-.2"/><path fill="url(#f)" d="M301.5 7.8q1.75-1.15 3.6-2.25l8.95.25-2.25 2.4-.1-.1-10.2-.3"/><path fill="url(#g)" d="M314.05 5.8l-.2 5.8-2.3-.05.1-3.3.15-.05 2.25-2.4"/><path fill="url(#h)" d="M228.5 9.75l.1-4 10.2.3v.15l-.1 3.75-10.2-.2"/><path fill="url(#i)" d="M228.6 5.75l3.65-2.25 8.95.3-2.3 2.35-.1-.1-10.2-.3"/><path fill="url(#j)" d="M241.25 3.8l-.2 6.25-2.35-.1.1-3.75.1-.05 2.3-2.35h.05"/><path fill="url(#k)" d="M170.6 4.65l3.6-2.25 8.95.25-2.25 2.4-.1-.1-10.2-.3"/><path fill="url(#l)" d="M183.2 2.65l-.15 6.1-2.35-.05.1-3.6.1-.05 2.25-2.4h.05"/><path fill="url(#m)" d="M103.3 3.5l3.65-2.2 8.95.25-2.3 2.4-.1-.1-10.2-.35"/><path fill="url(#n)" d="M115.95 1.55l-.2 5.75-2.35-.05.1-3.25.1-.05 2.3-2.4h.05"/><path fill="url(#o)" d="M69.05 35.2l3.65-2.25 8.9.3-2.25 2.35-.1-.1-10.2-.3"/><path fill="url(#p)" d="M1.05 32.55l3.6-2.25 2.7.05 6.25.2-2.25 2.4-.1-.1-10.2-.3"/><path fill="url(#q)" d="M.85 38.95l-.8-.05.1-3.1.8.05-.1 3.1"/><path fill="url(#r)" d="M53.95.25l-.2 5.65-2.35-.05.1-3.15.1-.05 2.3-2.4h.05"/><path fill="url(#s)" d="M41.3 2.25L44.95 0l8.95.25-2.3 2.4-.1-.1-10.2-.3"/><path fill="#4F2D15" d="M41.3 2.25l10.2.3v.15l-.1 3.15-10.2-.2.1-3.4m274.1 9.5l-.05 2.75-1.6 1.2-.3 8.35-2.35 3.5-10.2-.3.05-1.95q-14.7 10.9-29.45 21.9l-1.05-.05-.3 7.4L267.8 58l-10.2-.3.35-10.9-51-1.55-.3 7.95-2.35 3.4-10.2-.3.35-11.45-46.55-1.45-.35 8.85-2.35 3.45-10.2-.3.4-12.35-54.05-1.65L81 51.5l-2.35 3.45-10.2-.3L68.9 41l-55.55-1.7-.35 9.5-2.35 3.5L.45 52l.4-13.05.1-3.1v-.75l.1-2.55 10.2.3V33l.1-.05 2.25-2.4h.05l-.15 5.65L69 37.95l.05-2.75 10.2.3v.15l.1-.05 2.25-2.35h.05l-.15 5.1 54 1.65.1-4.05 10.2.3v.15l.1-.05 2.3-2.4h.05l-.2 6.4 46.5 1.45.15-4.95 10.2.3v.15l.1-.05 2.25-2.35h.05l-.25 7.3 51 1.55.15-5.5 10.2.3v.15l.1-.05 2.3-2.4h.05l-.3 7.8v.1l1.05.05.05-.05 43.75-32.4M103.2 7l.1-3.5 10.2.35V4l-.1 3.25L103.2 7m67.3 1.5l.1-3.85 10.2.3v.15l-.1 3.6-10.2-.2m-35 31.5l-.1 3.05.1-3.05m9.7 15.7l.6-19.3-.6 19.3m49.35-13.9l-.1 3.05.1-3.05m-46.65 1.6l.15-3.05-.15 3.05M78.65 54.95l.6-19.3-.6 19.3m-9.65-17L68.9 41l.1-3.05m12.35 3.45l.15-3.05-.15 3.05M311.1 27.55l.3-10.05 2.35-1.8-2.35 1.8-.3 10.05m-10.15-2.25l10.45-7.8-10.45 7.8m-42.9 18.45l-.1 3.05.1-3.05m-51.1 1.5l.1-3.05-.1 3.05M267.8 58l.6-19.3-.6 19.3m2.65-10.85l.1-3-.1 3m1.15-2.95l-.1 3 .1-3m-67.3 12.4l.6-19.3-.6 19.3M10.65 52.3l.6-19.3-.6 19.3m2.7-13l.15-3.1-.15 3.1"/><path fill="none" stroke="#3E2411" stroke-width=".05" stroke-linecap="round" stroke-linejoin="round" d="M170.6 4.65l3.6-2.25 8.95.25.1-.1-.05.1-.15 6.1 45.45 1 .1-4 3.65-2.25 8.95.3.05-.1v.1l-.2 6.25 60.3 1.3.15-3.55q1.75-1.15 3.6-2.25l8.95.25-.2 5.8 1.55.05v.1l-.05 2.75-1.6 1.2-.3 8.35-2.35 3.5-10.2-.3.05-1.95q-14.7 10.9-29.45 21.9l-1.05-.05-.3 7.4L267.8 58l-10.2-.3.35-10.9-51-1.55-.3 7.95-2.35 3.4-10.2-.3.35-11.45-46.55-1.45-.35 8.85-2.35 3.45-10.2-.3.4-12.35-54.05-1.65L81 51.5l-2.35 3.45-10.2-.3L68.9 41l-55.55-1.7-.35 9.5-2.35 3.5L.45 52l.4-13.05-.8-.05.1-3.1H0l.95-.7.1-2.55 3.6-2.25 2.7.05L40.75 5.6l.45.05.1-3.4L44.95 0l8.95.25.05-.1v.1l-.2 5.65L103.2 7l.1-3.5 3.65-2.2 8.95.25.05-.1v.1l-.2 5.75 54.75 1.2.1-3.85 10.2.3v.15l-.1 3.6 2.35.05m-2.15-3.7l2.25-2.4m-2.25 2.4l-.1.05M81.65 33.25l-.15 5.1 54 1.65.1-4.05 3.65-2.25 8.95.25.05-.1v.1l-.2 6.4 46.5 1.45.15-4.95 3.6-2.25 8.95.3.05-.1v.1l-.25 7.3 51 1.55.15-5.5 3.65-2.25 8.95.25.05-.1v.1l-.3 7.8 1.05.05v.1l.05-.05 43.75-32.4m-180 31.3l.1-3.05m12.7-6.05l-2.3 2.4-.1.05-.6 19.3m.6-19.3v-.15l-10.2-.3m12.45 4.4l-.15 3.05m46.55 1.45l.1-3.05M180.7 8.7l-10.2-.2m-56.9-4.55l2.3-2.4m-2.3 2.4l-.1.05-.1 3.25 2.35.05M103.3 3.5l10.2.35V4m-62-1.3l-.1 3.15 2.35.05M51.5 2.55v.15l.1-.05 2.3-2.4m-12.6 2l10.2.3m-.1 3.3l-10.2-.2M69.05 35.2l3.65-2.25 8.9.3.05-.1v.1m-.05 0l-2.25 2.35-.1.05-.6 19.3m-65-24.4l-.15 5.65L69 37.95l.05-2.75 10.2.3v.15M68.9 41l.1-3.05m44.4-30.7L103.2 7M81.5 38.35l-.15 3.05m232.7-35.6l-2.25 2.4-.15.05-.1 3.3 2.3.05m-2.15-3.5l-10.2-.3m10.2.3l-.05.15m2.1 7.45l-2.35 1.8-.3 10.05m.45-16l-10.2-.2m10.05 6.15l-10.45 7.8M238.8 6.05v.15l.1-.05 2.3-2.35m-12.6 1.95l10.2.3m2.25 4l-2.35-.1-10.2-.2m-23.6 27.4v.15l.1-.05m-.1-.1l-10.2-.3m12.55-1.95L205 37.25m2.05 4.95l-.1 3.05m51 1.55l.1-3.05m12.75-7.5l-2.3 2.4-.1.05-.6 19.3m3.8-13.8l-1.05-.05-.1 3m.1-3v-.1m-2.15-5.5v.15m3.1 8.5l.1-3m-13.4-5.95l10.2.3M238.8 6.2l-.1 3.75M204.9 37.3l-.6 19.3M11.25 32.85V33l.1-.05 2.25-2.4-6.25-.2m3.9 2.5l-10.2-.3m12.6-2v-.1l-.05.1M.15 35.8l.8.05v-.75m-.1 3.85l.1-3.1m12.55.35l-.15 3.1m-2.1-6.3l-.6 19.3"/></svg>