<svg xmlns="http://www.w3.org/2000/svg" viewBox="0 0 40.0 39.5" width="40" height="39.5"><defs><radialGradient gradientUnits="userSpaceOnUse" r="819.2" cx="0" cy="0" spreadMethod="unknown" gradientTransform="matrix(.035 0 0 .035 26.5 11.15)" id="a"><stop offset="0" stop-color="#8D7769"/><stop offset=".737" stop-color="#342821"/></radialGradient><radialGradient gradientUnits="userSpaceOnUse" r="819.2" cx="0" cy="0" spreadMethod="pad" gradientTransform="matrix(.003 0 0 .003 2 15.8)" id="b"><stop offset="0" stop-color="#775432"/><stop offset=".455" stop-color="#552A00"/><stop offset="1"/></radialGradient><radialGradient gradientUnits="userSpaceOnUse" r="819.2" cx="0" cy="0" spreadMethod="pad" gradientTransform="matrix(.003 0 0 .003 3.7 27.7)" id="c"><stop offset="0" stop-color="#775432"/><stop offset=".455" stop-color="#552A00"/><stop offset="1"/></radialGradient><radialGradient gradientUnits="userSpaceOnUse" r="819.2" cx="0" cy="0" spreadMethod="pad" gradientTransform="matrix(.005 0 0 .005 10.8 28.65)" id="d"><stop offset="0" stop-color="#775432"/><stop offset=".455" stop-color="#552A00"/><stop offset="1"/></radialGradient><radialGradient gradientUnits="userSpaceOnUse" r="819.2" cx="0" cy="0" spreadMethod="pad" gradientTransform="matrix(.003 0 0 .003 28.75 3.85)" id="e"><stop offset="0" stop-color="#775432"/><stop offset=".455" stop-color="#552A00"/><stop offset="1"/></radialGradient><radialGradient gradientUnits="userSpaceOnUse" r="819.2" cx="0" cy="0" spreadMethod="pad" gradientTransform="matrix(.003 0 0 .003 31.45 6.75)" id="f"><stop offset="0" stop-color="#775432"/><stop offset=".455" stop-color="#552A00"/><stop offset="1"/></radialGradient><radialGradient gradientUnits="userSpaceOnUse" r="819.2" cx="0" cy="0" fx="307.2" fy="0" spreadMethod="pad" gradientTransform="matrix(.003 0 0 .003 24.4 2.3)" id="g"><stop offset="0" stop-color="#775432"/><stop offset=".455" stop-color="#552A00"/><stop offset="1"/></radialGradient><radialGradient gradientUnits="userSpaceOnUse" r="819.2" cx="0" cy="0" fx="348.8" fy="0" spreadMethod="pad" color-interpolation="linearRGB" gradientTransform="matrix(.001 0 0 .001 36.85 14.7)" id="h"><stop offset="0" stop-color="#775432"/><stop offset=".455" stop-color="#552A00"/><stop offset="1"/></radialGradient><radialGradient gradientUnits="userSpaceOnUse" r="819.2" cx="0" cy="0" spreadMethod="pad" gradientTransform="matrix(.001 0 0 .001 37.95 20.2)" id="i"><stop offset="0" stop-color="#775432"/><stop offset=".455" stop-color="#552A00"/><stop offset="1"/></radialGradient><radialGradient gradientUnits="userSpaceOnUse" r="819.2" cx="0" cy="0" spreadMethod="repeat" gradientTransform="matrix(.003 0 0 .003 37.7 24.55)" id="j"><stop offset="0" stop-color="#775432"/><stop offset=".455" stop-color="#552A00"/><stop offset="1"/></radialGradient><radialGradient gradientUnits="userSpaceOnUse" r="819.2" cx="0" cy="0" spreadMethod="pad" gradientTransform="matrix(.003 0 0 .003 36.25 28.35)" id="k"><stop offset="0" stop-color="#775432"/><stop offset=".455" stop-color="#552A00"/><stop offset="1"/></radialGradient><radialGradient gradientUnits="userSpaceOnUse" r="819.2" cx="0" cy="0" spreadMethod="pad" gradientTransform="matrix(.005 0 0 .005 19.05 35.8)" id="l"><stop offset="0" stop-color="#775432"/><stop offset=".455" stop-color="#552A00"/><stop offset="1"/></radialGradient><radialGradient gradientUnits="userSpaceOnUse" r="819.2" cx="0" cy="0" spreadMethod="pad" gradientTransform="matrix(.003 0 0 .003 23.65 36.2)" id="m"><stop offset="0" stop-color="#775432"/><stop offset=".455" stop-color="#552A00"/><stop offset="1"/></radialGradient><radialGradient gradientUnits="userSpaceOnUse" r="819.2" cx="0" cy="0" spreadMethod="pad" gradientTransform="matrix(.005 0 0 .005 12.6 35.2)" id="n"><stop offset="0" stop-color="#775432"/><stop offset=".455" stop-color="#552A00"/><stop offset="1"/></radialGradient><radialGradient gradientUnits="userSpaceOnUse" r="819.2" cx="0" cy="0" spreadMethod="pad" gradientTransform="matrix(.005 0 0 .005 5.8 32.6)" id="o"><stop offset="0" stop-color="#775432"/><stop offset=".455" stop-color="#552A00"/><stop offset="1"/></radialGradient></defs><path fill="url(#a)" d="M33.05 7q3.25 3.7 4.15 8.4l.3 3.55v.9q-.25 6.05-4.1 10.65l-1.25 1.35-1.9 1.7q-4.7 3.65-10.9 3.65h-.4l-4.4-.6q-4.5-1.2-8.05-4.75-2.35-2.35-3.65-5.15-.95-2-1.35-4.25-.3-1.65-.3-3.5 0-3.95 1.5-7.35.85-1.95 2.2-3.65L6.5 6.1q3.7-3.7 8.45-4.85l2-.35 1.7-.15H19.85l1.55.1 2.4.4q3.25.8 5.95 2.75 1.3.95 2.4 2.1l.9.9"/><path d="M11.9 4.05q.4 1.1.3 2.5l3.35-.8q1.45-.5.7.9-1.15 2.05-1.1 4.6l.05 3.25q2.25-.65.5 1.6l2.9 1.4q1.4.6 3 .9l-1.1 1.9q-1.4 2.25-1.65 4.85l-.05-2.6q-.15-2.55 1.15-3.75l-3.3-.95q-3-.85-2.75-2.9l.85-5.9Q15 7.5 15.4 7.2l-3.65.75V3.5l.15.55m23.25 5.9l-1.05 1.4-.4.7.55-.1q-.6 1-1.05 2.4-.55 1.65-1.85 2.4l.3-.85.3-1.75-.1-1.2 1.35-.7q-.15-.45-.95-.4l-1.1.15 3.9-2.2.1.15"/><path fill="url(#b)" d="M4.05 15.85q0 .8-.6 1.45-.55.6-1.4.6h-.3q-.65-.1-1.15-.6-.65-.65-.6-1.45-.05-.9.6-1.45.6-.65 1.45-.65l.55.1.85.55q.6.55.6 1.45"/><path fill="url(#c)" d="M2.9 29.9l-.85-.55q-.7-.65-.7-1.6 0-1 .7-1.7l.65-.4q.45-.3 1.05-.25.95-.05 1.65.65.65.7.7 1.7l-.15.9-.55.7q-.7.75-1.65.75l-.85-.2"/><path fill="url(#d)" d="M6.8 28.75v-.1q0-1.65 1.2-2.8 1.15-1.1 2.8-1.1t2.8 1.1q1.25 1.15 1.25 2.8t-1.25 2.8l-.1.15-.9-.1q-1.5 0-2.6 1.05l-.15-.05q-1.1-.25-1.85-1.05-1.15-1.15-1.2-2.7"/><path fill="url(#e)" d="M30.95 4.8l-.9.45-.5.8-.8.15q-1 0-1.7-.7-.65-.7-.65-1.65V3.7l.45-1.25.2-.25q.7-.7 1.7-.7.95 0 1.65.7.7.65.75 1.65l-.2.95"/><path fill="url(#f)" d="M30.95 4.8l.55-.15q.8 0 1.4.6.6.65.7 1.55l-.25.85-.45.6q-.6.6-1.4.6-.85 0-1.45-.6-.6-.65-.6-1.45l.1-.75.5-.8.9-.45"/><path fill="url(#g)" d="M26.4 3.7l-.3.3q-.7.65-1.65.65-1 0-1.7-.65-.65-.7-.65-1.65l.05-.5q.1-.7.6-1.2.7-.7 1.7-.65.95-.05 1.65.65.7.65.75 1.7v.1L26.4 3.7"/><path fill="url(#h)" d="M37.7 15.5l-.1.15-.75.25q-.5 0-.85-.4-.35-.3-.35-.8t.35-.85l.85-.3H37l.7.3.35.85-.35.8"/><path fill="url(#i)" d="M39.1 20.2q0 .5-.35.85-.3.35-.8.35h-.05q-.45 0-.8-.35-.35-.35-.35-.85t.35-.8q.35-.35.85-.35H38q.45 0 .75.35.35.3.35.8"/><path fill="url(#j)" d="M36.15 26.1q-.7-.65-.7-1.55t.7-1.55q.65-.65 1.65-.65.9 0 1.55.65t.65 1.55q0 .95-.65 1.6-.6.6-1.45.65h-.05q-.5-.55-1.05-.6l-.55-.1h-.1"/><path fill="url(#k)" d="M36.15 26.1h.1l.55.1q.55.05 1.05.6h.05q.6.6.65 1.55-.05.9-.7 1.55-.7.7-1.6.7-.9 0-1.6-.7-.65-.65-.65-1.55 0-.95.65-1.55.6-.65 1.5-.7"/><path fill="url(#l)" d="M16.05 33.6l.35-.4q1.1-1.1 2.65-1.05 1.5-.05 2.65 1.05l.75 1-.45.35q-.7.65-.7 1.65 0 .95.7 1.65l.15.15-.45.45q-1.15 1.05-2.65 1.05-1.55 0-2.65-1.05l-.8-1.05-.3-1.55q0-1.3.75-2.25"/><path fill="url(#m)" d="M22.45 34.2q.55-.35 1.2-.35 1 0 1.65.7.75.65.75 1.65v.3l-.75 1.35q-.65.7-1.65.7-.9 0-1.5-.55l-.15-.15q-.7-.7-.7-1.65 0-1 .7-1.65l.45-.35"/><path fill="url(#n)" d="M13.5 31.6q.95.2 1.75 1l.8 1q-.75.95-.75 2.25l.3 1.55-.35.45q-1.1 1-2.65 1.05-1.55-.05-2.65-1.05-1.1-1.1-1.1-2.65v-.05q0-1.4 1-2.45l.15-.15q1.1-1.05 2.6-1.05l.9.1"/><path fill="url(#o)" d="M5.95 28.65l.85.1q.05 1.55 1.2 2.7.75.8 1.85 1.05v.2q-1 1.05-1 2.45l-.25.25q-1.15 1.15-2.75 1.15-1.7 0-2.85-1.15-1.2-1.15-1.2-2.8 0-1.55 1.1-2.7l.85.2q.95 0 1.65-.75l.55-.7"/></svg>