<svg xmlns="http://www.w3.org/2000/svg" viewBox="0 0 17.4 20.0" width="17.4" height="20"><defs><linearGradient gradientUnits="userSpaceOnUse" x1="-819.2" x2="819.2" gradientTransform="matrix(0 -.002 .008 -.002 6.25 2.4)" id="a"><stop offset="0" stop-color="#DEA265"/><stop offset="1" stop-color="#9F6224"/></linearGradient><linearGradient gradientUnits="userSpaceOnUse" x1="-819.2" x2="819.2" gradientTransform="matrix(0 .002 -.008 .002 10.75 16.45)" id="b"><stop offset="0" stop-color="#DEA265"/><stop offset="1" stop-color="#9F6224"/></linearGradient><linearGradient gradientUnits="userSpaceOnUse" x1="-819.2" x2="819.2" gradientTransform="matrix(-.002 -.005 .007 -.002 8 8.3)" id="c"><stop offset="0" stop-color="#E0A56B"/><stop offset="1" stop-color="#AD6A27"/></linearGradient></defs><path fill="url(#a)" d="M2.2 7.2L.85 6.7 0 5.3V3.45L11.6 0l.75.3q1.1 1.2 1.05 2.75l-.85 1L2.2 7.2"/><path fill="url(#b)" d="M15.3 12.75l.9.25q.7.5.95 1.6l.25 1.85L5.1 20q-1.1-2.15-.9-3.3l.2-.6.2-.15 10.7-3.2"/><path fill="url(#c)" d="M15.3 12.75l-10.7 3.2L2.2 7.2l10.35-3.15 2.75 8.7"/><path fill="#7A4A1B" d="M10.15 11.8v-.2q-.35-1.35-1.5-2.25l-4 .5-.25-.55q1.15-.65 2.5-.9l1.5-.45q2-.9 4.1-.75l-.2.5-.55.75v.7l-.15.7-.7-1.4-1.85.4 1.55 1q.35.9.25 1.8l-.25.65q-.35.5-.85.65l-4.25.15.55-1 2.15.3q1.15.15 1.95-.6"/><path fill="none" stroke="#B97837" stroke-width=".05" stroke-linecap="round" stroke-linejoin="round" d="M12.55 4.05l.85-1Q13.45 1.5 12.35.3L11.6 0 0 3.45V5.3l.85 1.4 1.35.5 10.35-3.15 2.75 8.7m.9.25q.7.5.95 1.6l.25 1.85L5.1 20m-.5-4.05L2.2 7.2"/><path fill="none" stroke="#C7833F" stroke-width=".05" stroke-linecap="round" stroke-linejoin="round" d="M15.3 12.75l.9.25M5.1 20q-1.1-2.15-.9-3.3l.2-.6.2-.15"/><path fill="none" stroke="#D79A5F" stroke-width=".05" stroke-linecap="round" stroke-linejoin="round" d="M4.6 15.95l10.7-3.2"/><path fill="none" stroke="#7A4A1B" stroke-width=".05" stroke-linecap="round" stroke-linejoin="round" d="M10.15 11.8q-.8.75-1.95.6l-2.15-.3-.55 1 4.25-.15q.5-.15.85-.65l.25-.65q.1-.9-.25-1.8l-1.55-1 1.85-.4.7 1.4.15-.7v-.7l.55-.75.2-.5q-2.1-.15-4.1.75l-1.5.45q-1.35.25-2.5.9l.25.55 4-.5q1.15.9 1.5 2.25v.2"/></svg>