<svg xmlns="http://www.w3.org/2000/svg" viewBox="0 0 40.0 40.0" width="40" height="40"><defs><linearGradient gradientUnits="userSpaceOnUse" x1="-819.2" x2="819.2" spreadMethod="unknown" gradientTransform="matrix(.01 .036 -.021 .006 24.75 37.2)" id="a"><stop offset="0" stop-color="#666"/><stop offset=".565" stop-color="#ccc"/><stop offset="1" stop-color="#999"/></linearGradient><radialGradient gradientUnits="userSpaceOnUse" r="819.2" cx="0" cy="0" spreadMethod="unknown" gradientTransform="matrix(.036 0 0 .036 25.6 12.9)" id="b"><stop offset=".102" stop-color="#F2F2F2"/><stop offset="1" stop-color="#848484"/></radialGradient><radialGradient gradientUnits="userSpaceOnUse" r="819.2" cx="0" cy="0" spreadMethod="unknown" gradientTransform="matrix(.019 0 0 .019 20.35 17.5)" id="c"><stop offset="0" stop-color="#D5B3B3"/><stop offset="1" stop-color="#8A5353"/></radialGradient></defs><path fill="url(#a)" d="M31.5 6.5l.7.65-.5-.35-.2-.3"/><path fill="url(#b)" d="M31.5 6.5l.2.3.5.35-.7-.65m8.15 9.6Q40 17.95 40 20v.95q-.3 6.65-4.5 11.7l-1.35 1.45-2.1 1.9q-5.2 4-12 4h-.55l-4.8-.7Q9.75 38 5.85 34.1q-2.6-2.55-4-5.65-1.1-2.15-1.5-4.6Q0 22 0 20q0-4.4 1.65-8.1.9-2.15 2.4-4l1.8-2.05Q9.9 1.8 15.15.55l2.2-.4 1.85-.1h.1l.75-.05.5.05 1.75.1 2.6.4q3.55.85 6.6 3.05l2.65 2.25.95 1q3.55 4.1 4.55 9.2v.05"/><path fill="url(#c)" d="M30.3 12.2q1.9 1.9 1.9 4.55 0 2.5-1.7 4.35l-.2.2-.15.1L20.1 32.8 9.75 21.25l-.05-.1-.1-.1Q7.8 19.2 7.8 16.6q0-2.65 1.9-4.55 1.85-1.85 4.5-1.85 2.7 0 4.55 1.85l1.3 1.75 1.15-1.6q1.9-1.9 4.55-1.9l1.5.2q1.75.4 3.05 1.7"/><path fill="none" stroke="#aaa" stroke-width=".05" stroke-linecap="round" stroke-linejoin="round" d="M39.65 16.05v.05"/><path fill="none" stroke="#fff" stroke-width=".05" stroke-opacity=".529" stroke-linecap="round" stroke-linejoin="round" d="M30.3 12.2q1.9 1.9 1.9 4.55 0 2.5-1.7 4.35l-.2.2-.15.1L20.1 32.8 9.75 21.25l-.05-.1-.1-.1Q7.8 19.2 7.8 16.6q0-2.65 1.9-4.55 1.85-1.85 4.5-1.85 2.7 0 4.55 1.85l1.3 1.75 1.15-1.6q1.9-1.9 4.55-1.9l1.5.2q1.75.4 3.05 1.7"/></svg>