<svg xmlns="http://www.w3.org/2000/svg" viewBox="0 0 186.9 223.8" width="186.9" height="223.8"><defs><linearGradient gradientUnits="userSpaceOnUse" x1="-819.2" x2="819.2" spreadMethod="repeat" gradientTransform="matrix(.005 0 0 .077 99.65 63.45)" id="a"><stop offset="0" stop-color="#5E5E5E"/><stop offset=".494" stop-color="#373737"/><stop offset="1" stop-color="#5E5E5E"/></linearGradient><linearGradient gradientUnits="userSpaceOnUse" x1="-819.2" x2="819.2" gradientTransform="matrix(.042 -.01 .02 .081 166.8 45.3)" id="b"><stop offset="0" stop-color="#5E5E5E"/><stop offset=".424" stop-color="#373737"/><stop offset=".635" stop-color="#333"/><stop offset="1" stop-color="#3C3C3C"/></linearGradient><linearGradient gradientUnits="userSpaceOnUse" x1="-819.2" x2="819.2" gradientTransform="matrix(.041 0 0 .013 80.65 130.9)" id="c"><stop offset="0" stop-color="#ccc"/><stop offset=".145" stop-color="#A7A7A7"/><stop offset=".31" stop-color="#848484"/><stop offset=".447" stop-color="#6E6E6E"/><stop offset=".533" stop-color="#666"/><stop offset=".612" stop-color="#6C6C6C"/><stop offset=".718" stop-color="#7E7E7E"/><stop offset=".839" stop-color="#9B9B9B"/><stop offset=".973" stop-color="#C3C3C3"/><stop offset="1" stop-color="#ccc"/></linearGradient><linearGradient gradientUnits="userSpaceOnUse" x1="-819.2" x2="819.2" spreadMethod="repeat" gradientTransform="matrix(.004 0 0 .05 101.1 176.05)" id="d"><stop offset="0" stop-color="#5E5E5E"/><stop offset=".494" stop-color="#373737"/><stop offset="1" stop-color="#5E5E5E"/></linearGradient><radialGradient gradientUnits="userSpaceOnUse" r="819.2" cx="0" cy="0" spreadMethod="pad" gradientTransform="matrix(.185 0 0 .186 116.4 150.9)" id="e"><stop offset="0" stop-color="#fff"/><stop offset=".424" stop-color="#FDFDFD"/><stop offset=".635" stop-color="#F5F5F5"/><stop offset=".804" stop-color="#E8E8E8"/><stop offset=".949" stop-color="#D5D5D5"/><stop offset="1" stop-color="#ccc"/></radialGradient><linearGradient gradientUnits="userSpaceOnUse" x1="-819.2" x2="819.2" gradientTransform="matrix(.015 0 0 .012 129.15 131.8)" id="f"><stop offset="0" stop-color="#ccc"/><stop offset=".145" stop-color="#A7A7A7"/><stop offset=".31" stop-color="#848484"/><stop offset=".447" stop-color="#6E6E6E"/><stop offset=".533" stop-color="#666"/><stop offset=".612" stop-color="#6C6C6C"/><stop offset=".718" stop-color="#7E7E7E"/><stop offset=".839" stop-color="#9B9B9B"/><stop offset=".973" stop-color="#C3C3C3"/><stop offset="1" stop-color="#ccc"/></linearGradient><radialGradient gradientUnits="userSpaceOnUse" r="819.2" cx="0" cy="0" spreadMethod="pad" gradientTransform="matrix(.023 0 0 .023 115.3 132.15)" id="g"><stop offset="0" stop-color="#fff"/><stop offset=".424" stop-color="#FDFDFD"/><stop offset=".635" stop-color="#F5F5F5"/><stop offset=".804" stop-color="#E8E8E8"/><stop offset=".949" stop-color="#D5D5D5"/><stop offset="1" stop-color="#ccc"/></radialGradient><linearGradient gradientUnits="userSpaceOnUse" x1="-819.2" x2="819.2" gradientTransform="matrix(.061 0 0 .052 114.6 178.65)" id="h"><stop offset="0" stop-color="#fff"/><stop offset=".424" stop-color="#FDFDFD"/><stop offset=".635" stop-color="#F5F5F5"/><stop offset=".804" stop-color="#E8E8E8"/><stop offset="1" stop-color="#999"/></linearGradient><linearGradient gradientUnits="userSpaceOnUse" x1="-819.2" x2="819.2" gradientTransform="matrix(-.017 -.006 .017 -.049 50.65 173.65)" id="i"><stop offset="0" stop-color="#fff"/><stop offset=".424" stop-color="#FDFDFD"/><stop offset=".635" stop-color="#F5F5F5"/><stop offset="1" stop-color="#999"/></linearGradient></defs><path fill="url(#a)" d="M186.85 74.7q-7.1 3.8-15.55 10.05-13.3 9.8-20.55 19.25-1.95 2.5-3.4 5.05l-2.55-11.4-1.5 5.45q-2.65 9.35-2.55 18.05-2.25.15-.15.4l-3.5 1.35q-9.6 3.35-20.15 4.05l-.1-2.85-18.25 2.8h-.15l-15.65-1.3-3.4-.4-3-.4q-14-1.8-26.2-4.45l-.1-3.05q-.55-13-3.25-25.75v-.15l-.1-.3-.05.4v.05l-1.6 8.55-1.6 7.6q-2.4-4.25-6.75-8.8Q30 91.75 18.2 83.75q-9.7-6.6-18.2-11Q4 50.7 6.85 36.4 11.15 14.3 29 8.9q17.85-5.45 30.55-5.7l6.8-1.6 8.75 8.1q10.75 8.8 21.25 13.05v.05h.2q8.75 2.35 14.15 1.15 5.35-1.25 9.7-4.1 4.35-2.9 6.55-6.05t2.6-4.95l1.4-7.3.1-1.35 1.95.1q9.1 2.15 18.05 7.1 5.55 3.1 8.85 5.85 18.15 13.15 17.15 35.9l9.85 25.5-.05.05M50.15 41.15q-4.15 7-4.75 23.35-.6 16.15 1.45 26.9-2.05-10.75-1.45-26.9.6-16.35 4.75-23.35m99.05 5.2q2.65 13.9.15 29-2.55 15.1-4.55 22.3 2-7.2 4.55-22.3 2.5-15.1-.15-29"/><path fill="url(#b)" d="M96.35 22.75l.2.05h-.2v-.05"/><path fill="url(#c)" d="M47.45 134.85v-.1l2.75-14.4q12.2 2.65 26.2 4.45l3 .4 3.4.4 15.65 1.3h.15q8.25.45 15.1.2v13.95l.15.05-.1.35L98.4 141l-10.65-.8-5.9-.55-7.45-.8q-14-1.65-26.95-4m60.2.5l-.45-1.1q-.45-.4-1.05-.4-.65 0-1.1.4-.4.45-.4 1.1 0 .6.4 1.05l1.1.45q.6 0 1.05-.45l.45-1.05"/><path fill="url(#d)" d="M143.7 136.2q3.9 15.1 14.75 42.35 3.4 8.6 4.95 14.8-15.05 17.55-36.45 22.25-21.7 4.75-49.2-3.9-8.25-2.6-16.6-6.2-9.2-4-17.85-9.7l-14.25-11.4 1.1-2.8q6-18.35 17.3-46.75 12.95 2.35 26.95 4l7.45.8 5.9.55 10.65.8v.25l18.85 3.15.15-3q11.95-.4 19.95-2.7 3.55-1.05 6.35-2.5"/><path fill="url(#e)" d="M140.75 121.15l1-.1-1 .45v.05h-.15l.15-.05v-.35.35l-.15.05q-2.1-.25.15-.4"/><path fill="url(#f)" d="M141.75 121.05q1.4 6.3 1.95 15.15-2.8 1.45-6.35 2.5-8 2.3-19.95 2.7l-.45-14.45q10.55-.7 20.15-4.05l3.5-1.35h.15v-.05l1-.45m-18.6 12.15q-.4-.45-1.05-.45-.6 0-1.05.45-.45.45-.45 1.05 0 .65.45 1.1.45.4 1.05.4.65 0 1.05-.4.45-.45.45-1.1 0-.6-.45-1.05m9.5-.55q0-.65-.45-1.05-.45-.45-1.05-.45-.65 0-1.05.45-.45.4-.45 1.05 0 .6.45 1.05.4.45 1.05.45.6 0 1.05-.45l.45-1.05"/><path d="M132.65 132.65l-.45 1.05q-.45.45-1.05.45-.65 0-1.05-.45-.45-.45-.45-1.05 0-.65.45-1.05.4-.45 1.05-.45.6 0 1.05.45.45.4.45 1.05m-9.5.55q.45.45.45 1.05 0 .65-.45 1.1-.4.4-1.05.4-.6 0-1.05-.4-.45-.45-.45-1.1 0-.6.45-1.05.45-.45 1.05-.45.65 0 1.05.45m-15.5 2.15l-.45 1.05q-.45.45-1.05.45l-1.1-.45q-.4-.45-.4-1.05 0-.65.4-1.1.45-.4 1.1-.4.6 0 1.05.4l.45 1.1"/><path fill="url(#g)" d="M98.4 141l15.35.45H115l-1.15-.35-.15-.05V127.1q-6.85.25-15.1-.2l18.25-2.8.1 2.85.45 14.45-.15 3-18.85-3.15V141"/><path fill="url(#h)" d="M57.75 223.5l.25-.1.3.3-.55-.2"/><path fill="url(#i)" d="M58.3 223.7h.1l.05.1-.15-.1"/><path fill="none" stroke="#666" stroke-width=".05" d="M147.35 109.05l-2.55-11.4-1.5 5.45q-2.65 9.35-2.55 18.05l1-.1q1.4 6.3 1.95 15.15 3.9 15.1 14.75 42.35 3.4 8.6 4.95 14.8M29.05 184.4l1.1-2.8q6-18.35 17.3-46.75v-.1l2.75-14.4-.1-3.05q-.55-13-3.25-25.75m0-.15l-.1-.3-.05.4v.05l-1.6 8.55-1.6 7.6M0 72.75Q4 50.7 6.85 36.4 11.15 14.3 29 8.9q17.85-5.45 30.55-5.7m71.5-3l1.95.1q9.1 2.15 18.05 7.1 5.55 3.1 8.85 5.85 18.15 13.15 17.15 35.9l9.85 25.5-.05.05m-139.4 60.15q12.95 2.35 26.95 4l7.45.8 5.9.55 10.65.8 15.35.45H115l-1.15-.35-.15-.05V127.1q-6.85.25-15.1-.2h-.15l-15.65-1.3-3.4-.4-3-.4q-14-1.8-26.2-4.45m90.4 1.2l.15-.05v-.35m-.15.4h.15v-.05l1-.45m-1.15.5l-3.5 1.35q-9.6 3.35-20.15 4.05l.45 14.45q11.95-.4 19.95-2.7 3.55-1.05 6.35-2.5M98.4 141v.25l18.85 3.15.15-3m-18.8-14.5l18.25-2.8.1 2.85M58 223.4l.3.3h.1m.05.1l-.15-.1-.55-.2"/><path fill="none" stroke="#483132" stroke-width=".05" stroke-linecap="round" stroke-miterlimit="3" d="M186.85 74.7q-7.1 3.8-15.55 10.05-13.3 9.8-20.55 19.25-1.95 2.5-3.4 5.05M43.5 107.7q-2.4-4.25-6.75-8.8Q30 91.75 18.2 83.75q-9.7-6.6-18.2-11M59.55 3.2l6.8-1.6 8.75 8.1q10.75 8.8 21.25 13.05l.2.05q8.75 2.35 14.15 1.15 5.35-1.25 9.7-4.1 4.35-2.9 6.55-6.05t2.6-4.95l1.4-7.3.1-1.35"/><path fill="none" stroke="#5B5B5B" stroke-width=".05" stroke-linecap="round" stroke-miterlimit="3" d="M144.8 97.65q2-7.2 4.55-22.3 2.5-15.1-.15-29M46.85 91.4Q44.8 80.65 45.4 64.5q.6-16.35 4.75-23.35"/><path fill="none" stroke="#464646" stroke-width=".05" stroke-linecap="round" stroke-miterlimit="3" d="M46.85 91.55v-.15"/><path fill="none" stroke="#4C4747" stroke-width=".05" stroke-linecap="round" stroke-miterlimit="3" d="M163.4 193.35q-15.05 17.55-36.45 22.25-21.7 4.75-49.2-3.9-8.25-2.6-16.6-6.2-9.2-4-17.85-9.7l-14.25-11.4"/><path fill="none" stroke="#000" stroke-width=".05" d="M132.65 132.65l-.45 1.05q-.45.45-1.05.45-.65 0-1.05-.45-.45-.45-.45-1.05 0-.65.45-1.05.4-.45 1.05-.45.6 0 1.05.45.45.4.45 1.05m-9.5.55q.45.45.45 1.05 0 .65-.45 1.1-.4.4-1.05.4-.6 0-1.05-.4-.45-.45-.45-1.1 0-.6.45-1.05.45-.45 1.05-.45.65 0 1.05.45m-15.5 2.15l-.45 1.05q-.45.45-1.05.45l-1.1-.45q-.4-.45-.4-1.05 0-.65.4-1.1.45-.4 1.1-.4.6 0 1.05.4l.45 1.1"/></svg>