<svg xmlns="http://www.w3.org/2000/svg" viewBox="0 0 41.0 63.2" width="41" height="63.2"><defs><linearGradient gradientUnits="userSpaceOnUse" x1="-819.2" x2="819.2" gradientTransform="matrix(0 -.014 .012 0 14.3 43.35)" id="a"><stop offset="0" stop-color="#5E8188"/><stop offset="1" stop-color="#9D9DA1"/></linearGradient><linearGradient gradientUnits="userSpaceOnUse" x1="-819.2" x2="819.2" gradientTransform="matrix(0 -.01 .005 0 25.85 36.15)" id="b"><stop offset="0" stop-color="#5E8188"/><stop offset="1" stop-color="#9D9DA1"/></linearGradient><linearGradient gradientUnits="userSpaceOnUse" x1="-819.2" x2="819.2" gradientTransform="matrix(0 -.004 .002 0 26.2 45.45)" id="c"><stop offset="0" stop-color="#5E8188"/><stop offset="1" stop-color="#9D9DA1"/></linearGradient><linearGradient gradientUnits="userSpaceOnUse" x1="-819.2" x2="819.2" gradientTransform="matrix(0 -.005 .002 0 16.6 53.95)" id="d"><stop offset="0" stop-color="#5E8188"/><stop offset="1" stop-color="#9D9DA1"/></linearGradient><radialGradient gradientUnits="userSpaceOnUse" r="819.2" cx="0" cy="0" fx="307.2" fy="0" spreadMethod="pad" gradientTransform="matrix(.001 0 0 .001 16.35 40.5)" id="e"><stop offset="0" stop-color="#775432"/><stop offset=".455" stop-color="#552A00"/><stop offset="1"/></radialGradient><radialGradient gradientUnits="userSpaceOnUse" r="819.2" cx="0" cy="0" spreadMethod="pad" gradientTransform="matrix(.001 0 0 .001 17.35 40.85)" id="f"><stop offset="0" stop-color="#775432"/><stop offset=".455" stop-color="#552A00"/><stop offset="1"/></radialGradient><radialGradient gradientUnits="userSpaceOnUse" r="819.2" cx="0" cy="0" spreadMethod="pad" gradientTransform="matrix(.001 0 0 .001 18 41.55)" id="g"><stop offset="0" stop-color="#775432"/><stop offset=".455" stop-color="#552A00"/><stop offset="1"/></radialGradient><radialGradient gradientUnits="userSpaceOnUse" r="819.2" cx="0" cy="0" spreadMethod="pad" gradientTransform="matrix(.001 0 0 .001 16.25 41.7)" id="h"><stop offset="0" stop-color="#ccc"/><stop offset=".58" stop-color="#390"/><stop offset="1"/></radialGradient><radialGradient gradientUnits="userSpaceOnUse" r="819.2" cx="0" cy="0" fx="348.8" fy="0" spreadMethod="pad" color-interpolation="linearRGB" gradientTransform="matrix(0 0 0 0 18.8 42.5)" id="i"><stop offset="0" stop-color="#775432"/><stop offset=".455" stop-color="#552A00"/><stop offset="1"/></radialGradient><radialGradient gradientUnits="userSpaceOnUse" r="819.2" cx="0" cy="0" spreadMethod="pad" gradientTransform="matrix(.001 0 0 .001 18.55 43.55)" id="j"><stop offset="0" stop-color="#ccc"/><stop offset=".58" stop-color="#390"/><stop offset="1"/></radialGradient><radialGradient gradientUnits="userSpaceOnUse" r="819.2" cx="0" cy="0" spreadMethod="pad" gradientTransform="matrix(0 0 0 0 19.3 43.15)" id="k"><stop offset="0" stop-color="#775432"/><stop offset=".455" stop-color="#552A00"/><stop offset="1"/></radialGradient><radialGradient gradientUnits="userSpaceOnUse" r="819.2" cx="0" cy="0" spreadMethod="pad" gradientTransform="matrix(.001 0 0 .001 14.75 40.8)" id="l"><stop offset="0" stop-color="#775432"/><stop offset=".455" stop-color="#552A00"/><stop offset="1"/></radialGradient><radialGradient gradientUnits="userSpaceOnUse" r="819.2" cx="0" cy="0" spreadMethod="pad" gradientTransform="matrix(.001 0 0 .001 14.05 41.85)" id="m"><stop offset="0" stop-color="#ccc"/><stop offset=".58" stop-color="#390"/><stop offset="1"/></radialGradient><radialGradient gradientUnits="userSpaceOnUse" r="819.2" cx="0" cy="0" fx="307.2" fy="0" spreadMethod="pad" gradientTransform="matrix(.001 0 0 .001 15.05 43.4)" id="n"><stop offset="0" stop-color="#ccc"/><stop offset=".58" stop-color="#390"/><stop offset="1"/></radialGradient><radialGradient gradientUnits="userSpaceOnUse" r="819.2" cx="0" cy="0" spreadMethod="pad" gradientTransform="matrix(.001 0 0 .001 14.05 45.6)" id="o"><stop offset="0" stop-color="#775432"/><stop offset=".455" stop-color="#552A00"/><stop offset="1"/></radialGradient><radialGradient gradientUnits="userSpaceOnUse" r="819.2" cx="0" cy="0" spreadMethod="pad" gradientTransform="matrix(.001 0 0 .001 13.55 44.45)" id="p"><stop offset="0" stop-color="#775432"/><stop offset=".455" stop-color="#552A00"/><stop offset="1"/></radialGradient><radialGradient gradientUnits="userSpaceOnUse" r="819.2" cx="0" cy="0" spreadMethod="pad" gradientTransform="matrix(.001 0 0 .001 15.2 44.65)" id="q"><stop offset="0" stop-color="#775432"/><stop offset=".455" stop-color="#552A00"/><stop offset="1"/></radialGradient><radialGradient gradientUnits="userSpaceOnUse" r="819.2" cx="0" cy="0" spreadMethod="pad" gradientTransform="matrix(.001 0 0 .001 15.65 46.2)" id="r"><stop offset="0" stop-color="#775432"/><stop offset=".455" stop-color="#552A00"/><stop offset="1"/></radialGradient><radialGradient gradientUnits="userSpaceOnUse" r="819.2" cx="0" cy="0" spreadMethod="repeat" gradientTransform="matrix(.001 0 0 .001 19.25 44.2)" id="s"><stop offset="0" stop-color="#775432"/><stop offset=".455" stop-color="#552A00"/><stop offset="1"/></radialGradient><radialGradient gradientUnits="userSpaceOnUse" r="819.2" cx="0" cy="0" spreadMethod="pad" gradientTransform="matrix(.001 0 0 .001 18.9 45.1)" id="t"><stop offset="0" stop-color="#775432"/><stop offset=".455" stop-color="#552A00"/><stop offset="1"/></radialGradient><radialGradient gradientUnits="userSpaceOnUse" r="819.2" cx="0" cy="0" spreadMethod="pad" gradientTransform="matrix(.001 0 0 .001 17.7 44.45)" id="u"><stop offset="0" stop-color="#ccc"/><stop offset=".58" stop-color="#390"/><stop offset="1"/></radialGradient><radialGradient gradientUnits="userSpaceOnUse" r="819.2" cx="0" cy="0" spreadMethod="pad" gradientTransform="matrix(.001 0 0 .001 18.25 46.45)" id="v"><stop offset="0" stop-color="#775432"/><stop offset=".455" stop-color="#552A00"/><stop offset="1"/></radialGradient><radialGradient gradientUnits="userSpaceOnUse" r="819.2" cx="0" cy="0" spreadMethod="pad" gradientTransform="matrix(.001 0 0 .001 17.15 46.35)" id="w"><stop offset="0" stop-color="#775432"/><stop offset=".455" stop-color="#552A00"/><stop offset="1"/></radialGradient><radialGradient gradientUnits="userSpaceOnUse" r="819.2" cx="0" cy="0" spreadMethod="pad" gradientTransform="matrix(.001 0 0 .001 15.9 44.2)" id="x"><stop offset="0" stop-color="#ccc"/><stop offset=".58" stop-color="#390"/><stop offset="1"/></radialGradient></defs><path fill="#666" d="M41 24.95v.35l-.65 3.45-9.35 1-1.55.2-4 .4.5-3.85 5.1-14.6 1 1.3 3.6 4.7 1.65 2.2 3.7 4.85M5.5 35.65l.2-4.1 19.1 2.55-19.1-2.55L17.4 17l8.55 9.5-1.15 7.6-.55 4.2-5.35-.65-.15-.1-13.25-1.9m19.3-1.55L17.4 17l7.4 17.1M41 25l-15.05 1.5L41 25"/><path fill="#999" d="M30.9 30.3l.35.1-2.35 3.05-1.05 7.05L26 40l1-7 2.45-3.05 1.45.35M.2 19.1l1.75-.6 2.6-.85.05.05 1.7.65-6.1.75m-.1-6.4l2.8-5.95L10.15 0 .1 12.7l9.75-2.25L4.1 13.9l7.5-.25-5.75 2.05 4.7.65-5.95 1.3v-.05l1.25-1.9-1.75-1.8-4-1.2M23 2.45l4.2 5.65-1.35.45L23 2.45m8.45 4.1l8.2 9.45-.55 3.2-1.8.9-1.65-2.2-3.6-4.7-.6-6.65m8.2 9.45l-4 1.9 4-1.9m-20.9 21.55l.15.1 1.3.75-7.25 2.2-1.3-1 1.3 1-.65 7.65-1.2-1.1.55-7.55 7.1-2.05M27 33l1.9.45L27 33"/><path fill="#ccc" d="M31.25 30.4l-1.05 6.8-.45.65-1.9 2.65 1.05-7.05 2.35-3.05M2 16.35l-2-.7.1-2.95 4 1.2 1.75 1.8-1.25 1.9L4 17l-2-.65M10.15 0l5.35 7L23 2.45l2.85 6.1 1.35-.45 4.25-1.55.6 6.65-1-1.3-20.5 4.45-4.7-.65 5.75-2.05 14.25-5.1-14.25 5.1-7.5.25L4 17l.1-3.1 5.75-3.45L.1 12.7 10.15 0m-.3 10.45L15.5 7l-5.65 3.45"/><path fill="#333" d="M5.7 31.55L.2 19.1l6.1-.75-1.7-.65v-.05h-.05l-2.6.85.05-2.15L4 17l.6.6v.05l5.95-1.3 20.5-4.45-5.1 14.6L17.4 17 5.7 31.55M17.4 17L6.3 18.35 17.4 17"/><path fill="#fff" d="M12.95 40.6l7.25-2.2-.85 7.5-7.05 2.35.65-7.65"/><path fill="url(#a)" d="M22 56.35l-4.55 1.8.7-6.5-2.4-1.95-1.25-1-5 6.05-.5 6.6-4.8 1.85 1.3-27.55 13.25 1.9-7.1 2.05-.55 7.55 1.2 1.1 7.05-2.35.85-7.5-1.3-.75 5.35.65.15.05-2.4 18"/><path fill="url(#b)" d="M22 56.35l2.4-18 1.05-8 4-.4L27 33l-1 7 1.85.5 1.9-2.65-1.35 8.5-1.45 2.3.9-6-.95-1.8-.5 1.4-1.75 5.05-.05.6-.8 5.65-1.8 2.8"/><path fill="url(#c)" d="M26.95 48.65l-2.35-.75.05-.6 1.75-5.05 1.45.4-.9 6"/><path fill="url(#d)" d="M17.45 58.15L15.1 56l.65-6.3 2.4 1.95-.7 6.5"/><path fill="url(#e)" d="M16.95 40.85l-.1.1-.3.2h-.4l-.1-.35v-.05q0-.3.2-.3.1-.3.35-.35l.35.05.1.4v.05l-.1.25"/><path fill="url(#f)" d="M16.95 40.85l.1-.25.05-.1q.1-.3.4-.25l.35.05.1.3-.05.15-.3.4-.2.05h-.35l-.1-.3v-.05"/><path fill="url(#g)" d="M17.9 40.75h.05l.3.05.1.25-.05.2-.15.15q-.15 0-.25.15l-.25-.05q-.25-.1-.1-.2l.05-.15.3-.4"/><path fill="url(#h)" d="M16.7 41.7l-.1.15-.2.15h-.25q-.2-.1-.1-.2l.1-.2.2-.15.2.1.15.15"/><path fill="url(#i)" d="M18.4 41.65l.2-.1.05-.05h.1l.1.2-.1.2h-.05l-.1.05-.3.05-.05-.2.15-.15"/><path fill="url(#j)" d="M17.6 42.9q-.05-.25.2-.45.2-.35.45-.3.2-.15.45 0h.05l-.05.1.05.15.05.05.05.1v.05l-.35.2q-.2.25-.15.4l-.05.05-.1.1h-.5q-.2-.2-.1-.45"/><path fill="url(#k)" d="M18.75 42.15l.05-.05q0-.1.2-.1h.15l.05.1-.1.2-.15.1-.15.05-.05-.05-.05-.15.05-.1"/><path fill="url(#l)" d="M15.5 41.25l-.1.3-.4.3h-.05q-.2-.05-.25-.1l-.1-.25.2-.35q.05-.2.3-.15l.15-.1.2.05.05.3"/><path fill="url(#m)" d="M14.65 42.65l-.4.35-.3-.1-.15-.3q-.05-.25.2-.45.15-.15.35-.15l.35-.05.1.3-.15.4"/><path fill="url(#n)" d="M14.6 44.2q-.35-.2-.15-.45-.05-.35.2-.6l.15-.1.45-.25.35.05.15.45-.05.25q-.2-.1-.25.2l-.25.05q-.45.05-.6.4"/><path fill="url(#o)" d="M14.6 46l-.05.05-.6.45-.65-.05q-.3-.2-.15-.45-.1-.4.2-.65l.2-.05.5-.25.05-.2h.2q-.15.3.2.45l.45.15-.05.05q-.35.15-.3.5"/><path fill="url(#p)" d="M13.35 45.35l-.1-.05-.15-.3.2-.4.05-.1.3-.1.45-.05.05.4-.05.1-.05.2-.5.25-.2.05"/><path fill="url(#q)" d="M14.6 44.2q.15-.35.6-.4l.25-.05.4.05.15.5v.1l-.3.45-.05.05-.15.1q-.35 0-.55.45l-.45-.15q-.35-.15-.2-.45-.1-.35.3-.65"/><path fill="url(#r)" d="M15.65 44.9l.4.2.15.05q-.15.05-.15.25l-.1.3.1.25-.1.1q-.35.2-.55.45l-.6-.05q-.25-.2-.2-.45-.05-.35.3-.5l.05-.05q.2-.45.55-.45l.15-.1"/><path fill="url(#s)" d="M18.85 42.6l.3.05.15.3-.2.4q-.2 0-.35.15l-.15-.05h-.2l-.1-.2.05-.05q-.05-.15.15-.4l.35-.2"/><path fill="url(#t)" d="M18.75 43.5l.15.25-.15.3-.05.15-.3.15h-.35l-.15-.15v-.1l.05-.2.15-.15.3-.3h.2l.15.05"/><path fill="url(#u)" d="M17.95 43.9l-.1.15-.35.2-.2.1-.15.05-.35-.05q-.3-.15-.2-.45-.05-.3.25-.6.2-.3.6-.35l.15-.05q-.1.25.1.45h.5v.15l-.1.25-.15.15"/><path fill="url(#v)" d="M17.45 44.9l.35-.1q.1-.2.25 0l.15.25v.1l-.2.25-.35.25-.3.05v-.05q-.2-.1-.1-.25 0-.35.15-.4l.05-.1"/><path fill="url(#w)" d="M17.45 44.9l-.05.1q-.15.05-.15.4-.1.15.1.25v.05l-.1.1-.55.35-.1.05h-.35l-.05-.1-.15-.15-.1-.25.1-.3q0-.2.15-.25l.15-.15.4-.2h.1l.5-.05.1.15"/><path fill="url(#x)" d="M15.45 43.75q.05-.3.25-.2l.15-.2.35.1.05.05.1.25-.05.25-.15.3q-.1-.1-.15.1v-.1l-.15-.5-.4-.05"/><path fill="none" stroke="#000" stroke-width=".05" stroke-miterlimit="10" d="M4.55 17.65l-2.6.85"/><path fill="none" stroke="#333" stroke-width=".05" stroke-miterlimit="10" d="M26.95 48.65l-2.35-.75m-7.15 10.25L15.1 56l.65-6.3M2.9 6.75L10.15 0m.4 16.35l20.5-4.45M4.6 17.7l1.7.65L17.4 17l8.55 9.5 5.1-14.6M4.6 17.6L4 17l-2-.65M.2 19.1l6.1-.75m-1.7-.7l5.95-1.3m8.35 21.3l-.15-.1m-13.05-6L17.4 17m8.55 9.5l-.5 3.85m.95 11.9l1.45.4m-3.6-4.35l1.2-7.95"/><path fill="none" stroke="#435B61" stroke-width=".05" stroke-miterlimit="10" d="M25.45 30.35l-1.05 8-2.4 18-4.55 1.8m12.3-20.3l-1.35 8.5-1.45 2.3m-2.35-.75l-.8 5.65-1.8 2.8m-6.25-6.65l-1.25-1-5 6.05-.5 6.6-4.8 1.85m14.55-25.65l-7.1 2.05m8.55-1.2l-1.3-.75 5.35.65M12.3 48.25l-1.2-1.1.55-7.55m.65 8.65l7.05-2.35.85-7.5m-1.45-.85L5.5 35.65M27 33l-1 7 1.85.5 1.9-2.65M27 33l2.45-3.05m-1.6 12.7l-.95-1.8-.5 1.4-1.75 5.05-.05.6m3.25-5.25l-.9 6m-11.2 1.05l2.4 1.95-.7 6.5"/><path fill="none" stroke="#999" stroke-width=".05" stroke-miterlimit="10" d="M31 29.75l-.1.55.35.1-1.05 6.8-.45.65M10.15 0l5.35 7L23 2.45m4.2 5.65l4.25-1.55M27.2 8.1l-1.35.45-14.25 5.1-5.75 2.05 4.7.65m21.5-3.15l-.6-6.65m-5.6 2L23 2.45M4.6 17.6l1.25-1.9-1.75-1.8L4 17m.1-3.1l-4-1.2L10.15 0m-.3 10.45L.1 12.7M15.5 7l-5.65 3.45M4.1 13.9l7.5-.25"/><path fill="none" stroke="#666" stroke-width=".05" stroke-miterlimit="10" d="M23 2.45l4.2 5.65m4.25-1.55l8.2 9.45-.55 3.2-1.8.9-1.65-2.2-3.6-4.7m-1-1.3l1 1.3m3.6 4.7l4-1.9m-29.8-5.55L4.1 13.9m7.55 25.7l1.3 1 7.25-2.2m-7.25 2.2l-.65 7.65m16.6-14.8L27 33m.85 7.5l1.05-7.05 2.35-3.05"/><path fill="none" stroke="#535353" stroke-width=".05" stroke-miterlimit="10" d="M41 25.3l-.65 3.45-9.35 1m6.3-9.65l3.7 4.85M24.25 38.3l.55-4.2-19.1-2.55M17.4 17l7.4 17.1 1.15-7.6L41 25m-15.55 5.35l4-.4 1.55-.2m-1.55.2l1.45.35"/></svg>