<svg xmlns="http://www.w3.org/2000/svg" viewBox="0 0 31.5 33.8" width="31.5" height="33.8"><defs><radialGradient gradientUnits="userSpaceOnUse" r="819.2" cx="0" cy="0" spreadMethod="pad" gradientTransform="matrix(.003 0 0 .003 8.2 4)" id="a"><stop offset="0" stop-color="#775432"/><stop offset=".455" stop-color="#552A00"/><stop offset="1"/></radialGradient><radialGradient gradientUnits="userSpaceOnUse" r="819.2" cx="0" cy="0" spreadMethod="pad" gradientTransform="matrix(.004 0 0 .004 5 8.75)" id="b"><stop offset="0" stop-color="#ccc"/><stop offset=".58" stop-color="#390"/><stop offset="1"/></radialGradient><radialGradient gradientUnits="userSpaceOnUse" r="819.2" cx="0" cy="0" spreadMethod="pad" gradientTransform="matrix(.003 0 0 .003 23.2 7.35)" id="c"><stop offset="0" stop-color="#775432"/><stop offset=".455" stop-color="#552A00"/><stop offset="1"/></radialGradient><radialGradient gradientUnits="userSpaceOnUse" r="819.2" cx="0" cy="0" spreadMethod="pad" gradientTransform="matrix(.003 0 0 .003 20.25 4.2)" id="d"><stop offset="0" stop-color="#775432"/><stop offset=".455" stop-color="#552A00"/><stop offset="1"/></radialGradient><radialGradient gradientUnits="userSpaceOnUse" r="819.2" cx="0" cy="0" fx="307.2" fy="0" spreadMethod="pad" gradientTransform="matrix(.003 0 0 .003 15.5 2.5)" id="e"><stop offset="0" stop-color="#775432"/><stop offset=".455" stop-color="#552A00"/><stop offset="1"/></radialGradient><radialGradient gradientUnits="userSpaceOnUse" r="819.2" cx="0" cy="0" spreadMethod="pad" gradientTransform="matrix(.003 0 0 .003 15.05 8.1)" id="f"><stop offset="0" stop-color="#ccc"/><stop offset=".58" stop-color="#390"/><stop offset="1"/></radialGradient><radialGradient gradientUnits="userSpaceOnUse" r="819.2" cx="0" cy="0" fx="348.8" fy="0" spreadMethod="pad" color-interpolation="linearRGB" gradientTransform="matrix(.002 0 0 .002 27 11.85)" id="g"><stop offset="0" stop-color="#775432"/><stop offset=".455" stop-color="#552A00"/><stop offset="1"/></radialGradient><radialGradient gradientUnits="userSpaceOnUse" r="819.2" cx="0" cy="0" fx="307.2" fy="0" spreadMethod="pad" gradientTransform="matrix(.005 0 0 .005 9.45 16.05)" id="h"><stop offset="0" stop-color="#ccc"/><stop offset=".58" stop-color="#390"/><stop offset="1"/></radialGradient><radialGradient gradientUnits="userSpaceOnUse" r="819.2" cx="0" cy="0" spreadMethod="pad" gradientTransform="matrix(.003 0 0 .003 2.55 20.9)" id="i"><stop offset="0" stop-color="#775432"/><stop offset=".455" stop-color="#552A00"/><stop offset="1"/></radialGradient><radialGradient gradientUnits="userSpaceOnUse" r="819.2" cx="0" cy="0" spreadMethod="pad" gradientTransform="matrix(.005 0 0 .005 4.85 26.25)" id="j"><stop offset="0" stop-color="#775432"/><stop offset=".455" stop-color="#552A00"/><stop offset="1"/></radialGradient><radialGradient gradientUnits="userSpaceOnUse" r="819.2" cx="0" cy="0" spreadMethod="pad" gradientTransform="matrix(.005 0 0 .005 10.3 21.95)" id="k"><stop offset="0" stop-color="#775432"/><stop offset=".455" stop-color="#552A00"/><stop offset="1"/></radialGradient><radialGradient gradientUnits="userSpaceOnUse" r="819.2" cx="0" cy="0" spreadMethod="pad" gradientTransform="matrix(.004 0 0 .004 13.45 19.8)" id="l"><stop offset="0" stop-color="#ccc"/><stop offset=".58" stop-color="#390"/><stop offset="1"/></radialGradient><radialGradient gradientUnits="userSpaceOnUse" r="819.2" cx="0" cy="0" spreadMethod="pad" gradientTransform="matrix(.005 0 0 .005 19.3 29.75)" id="m"><stop offset="0" stop-color="#775432"/><stop offset=".455" stop-color="#552A00"/><stop offset="1"/></radialGradient><radialGradient gradientUnits="userSpaceOnUse" r="819.2" cx="0" cy="0" spreadMethod="pad" gradientTransform="matrix(.005 0 0 .005 12.3 29.1)" id="n"><stop offset="0" stop-color="#775432"/><stop offset=".455" stop-color="#552A00"/><stop offset="1"/></radialGradient><radialGradient gradientUnits="userSpaceOnUse" r="819.2" cx="0" cy="0" spreadMethod="pad" gradientTransform="matrix(.003 0 0 .003 24.4 30.2)" id="o"><stop offset="0" stop-color="#775432"/><stop offset=".455" stop-color="#552A00"/><stop offset="1"/></radialGradient><radialGradient gradientUnits="userSpaceOnUse" r="819.2" cx="0" cy="0" spreadMethod="pad" gradientTransform="matrix(.002 0 0 .002 29.25 15)" id="p"><stop offset="0" stop-color="#775432"/><stop offset=".455" stop-color="#552A00"/><stop offset="1"/></radialGradient><radialGradient gradientUnits="userSpaceOnUse" r="819.2" cx="0" cy="0" spreadMethod="pad" gradientTransform="matrix(.004 0 0 .004 25.75 16.85)" id="q"><stop offset="0" stop-color="#ccc"/><stop offset=".58" stop-color="#390"/><stop offset="1"/></radialGradient><radialGradient gradientUnits="userSpaceOnUse" r="819.2" cx="0" cy="0" spreadMethod="repeat" gradientTransform="matrix(.003 0 0 .003 29 19.8)" id="r"><stop offset="0" stop-color="#775432"/><stop offset=".455" stop-color="#552A00"/><stop offset="1"/></radialGradient><radialGradient gradientUnits="userSpaceOnUse" r="819.2" cx="0" cy="0" spreadMethod="pad" gradientTransform="matrix(.005 0 0 .005 21.8 20.85)" id="s"><stop offset="0" stop-color="#ccc"/><stop offset=".58" stop-color="#390"/><stop offset="1"/></radialGradient><radialGradient gradientUnits="userSpaceOnUse" r="819.2" cx="0" cy="0" spreadMethod="pad" gradientTransform="matrix(.003 0 0 .003 27.4 23.95)" id="t"><stop offset="0" stop-color="#775432"/><stop offset=".455" stop-color="#552A00"/><stop offset="1"/></radialGradient></defs><path fill="url(#a)" d="M9.8 2.45q.65.65.65 1.6 0 .9-.65 1.6-.65.65-1.55.65h-.3q-.75-.1-1.3-.65-.7-.7-.65-1.6-.05-.95.65-1.6.65-.7 1.6-.7l.6.1q.55.15.95.6"/><path fill="url(#b)" d="M3.25 10.7q-.7-.8-.7-1.95t.7-1.95Q4 6 5 6t1.7.8q.75.8.75 1.95T6.7 10.7q-.7.8-1.7.8t-1.75-.8"/><path fill="url(#c)" d="M21.15 6.6l.5-.85 1-.55.6-.1q.9 0 1.55.65.65.7.7 1.65l-.25.95-.45.65q-.65.65-1.55.65-.95 0-1.6-.65Q21 8.3 21 7.4l.15-.8"/><path fill="url(#d)" d="M21.15 6.6l-.9.15q-1.1 0-1.85-.75t-.75-1.8V4l.5-1.3.25-.3q.75-.75 1.85-.75 1.05 0 1.8.75.75.7.8 1.8l-.2 1-1 .55-.5.85"/><path fill="url(#e)" d="M18.15 2.7l-.5 1.3-.3.35q-.75.75-1.8.75-1.1 0-1.85-.75t-.75-1.8L13 2q.15-.75.7-1.3.75-.75 1.85-.7 1.05-.05 1.8.7t.8 1.85v.15"/><path fill="url(#f)" d="M15.05 6.55q.65 0 1.1.45.5.45.5 1.1 0 .65-.5 1.1-.45.45-1.1.45-.65 0-1.15-.45-.45-.45-.45-1.1 0-.65.45-1.1.5-.45 1.15-.45"/><path fill="url(#g)" d="M27.95 10.95l.35.9-.35.9-.15.15-.8.25q-.55 0-.9-.4-.4-.35-.4-.9t.4-.9l.9-.35h.15l.8.35"/><path fill="url(#h)" d="M7.2 18.95l-.25-.25q-1-1.1-1-2.65 0-1.55 1-2.65l.65-.5q.85-.55 1.85-.55 1.45 0 2.45 1.05 1.05 1.1 1.05 2.65l-.05.85q-.85.15-1.5.8v.05l-1.05-.15q-1.85 0-3.1 1.3l-.05.05"/><path fill="url(#i)" d="M1.65 23.3l-.9-.55Q0 22 0 20.95q0-1.1.75-1.85l.7-.45 1.15-.25q1.05-.05 1.8.7t.8 1.85l-.2 1-.6.8q-.75.75-1.8.75l-.95-.2"/><path fill="url(#j)" d="M1.65 23.3l.95.2q1.05 0 1.8-.75l.6-.8.95.1Q6 23.75 7.25 25q.85.85 2 1.15v.25Q8.2 27.5 8.2 29.05l-.25.25Q6.7 30.55 4.9 30.55q-1.85 0-3.1-1.25Q.5 28.05.5 26.25q0-1.7 1.15-2.95"/><path fill="url(#k)" d="M7.2 18.95l.05-.05q1.25-1.3 3.1-1.3l1.05.15q1.15.25 2 1.15 1.3 1.25 1.3 3.05v.5q-.2 1.45-1.3 2.55l-.15.15-.95-.1q-1.65 0-2.85 1.15l-.2-.05q-1.15-.3-2-1.15-1.25-1.25-1.3-2.95v-.1q0-1.75 1.25-3"/><path fill="url(#l)" d="M11.4 17.75v-.05q.65-.65 1.5-.8l.55-.05q1.2 0 2 .85l.15.15q.7.85.7 1.95l-.15.95-.7 1.1-.75.6v-.5q0-1.8-1.3-3.05-.85-.9-2-1.15"/><path fill="url(#m)" d="M16.05 27.35l.4-.45.4-.35q.9-.7 2-.75l.5-.05q1.65-.05 2.9 1.15l.8 1.1-.5.4q-.75.7-.75 1.8 0 1.05.75 1.8l.15.15-.45.5Q21 33.8 19.35 33.8h-.5q-1.1-.15-2-.8l-.4-.35-.85-1.15-.35-1.7q0-.95.35-1.7l.45-.75"/><path fill="url(#n)" d="M16.05 27.35l-.45.75q-.35.75-.35 1.7l.35 1.7-.4.45q-1.2 1.15-2.9 1.2-1.7-.05-2.9-1.2-1.2-1.2-1.2-2.85v-.05q0-1.55 1.05-2.65l.2-.2q1.2-1.15 2.85-1.15l.95.1q1.1.25 1.95 1.1l.85 1.1"/><path fill="url(#o)" d="M23.05 28q.6-.35 1.35-.35 1.05 0 1.8.75.75.7.8 1.8l-.05.3q-.1.85-.75 1.5-.75.75-1.8.75-1 0-1.7-.6l-.15-.15q-.75-.75-.75-1.8 0-1.1.75-1.8l.5-.4"/><path fill="url(#p)" d="M28.95 16.3l-.6-.35q-.4-.4-.4-.95 0-.3.15-.5l.25-.4q.35-.35.9-.35h.05q.5 0 .85.35.4.35.4.9t-.4.95q-.35.35-.9.35h-.3"/><path fill="url(#q)" d="M28.95 16.3l.1.55v.5q-1.05 0-1.75.7-.75.75-.75 1.8l.05.3-.8.1h-.05q-1.35 0-2.35-1-.95-.95-.95-2.4v-.05q0-1.35.95-2.35 1-.95 2.35-.95t2.3.95l.05.05q-.15.2-.15.5 0 .55.4.95l.6.35"/><path fill="url(#r)" d="M26.6 20.15l-.05-.3q0-1.05.75-1.8.7-.7 1.75-.7h.05q.95 0 1.7.7.7.75.7 1.8 0 1-.7 1.7-.7.65-1.6.75l-.05-.05q-.55-.55-1.15-.65l-.6-.1h-.15q-.6-.6-.65-1.35"/><path fill="url(#s)" d="M22.45 16.8v.05q0 1.45.95 2.4 1 1 2.35 1h.05l.05.6-.25 1.45-.55 1-.4.4q-.8.85-1.9 1.1l-.95.1-.9-.1q-1.1-.25-1.95-1.05l-.05-.05q-1.15-1.15-1.15-2.85 0-1.7 1.15-2.95 1.2-1.15 2.9-1.15l.65.05"/><path fill="url(#t)" d="M25.05 23.3l.55-1 .05-.05q.65-.7 1.6-.75h.15l.6.1q.6.1 1.15.65l.05.05q.65.65.7 1.65-.05.85-.55 1.55l-.2.2q-.75.7-1.75.7t-1.75-.7l-.55-.9-.15-.85.1-.65"/></svg>