<svg xmlns="http://www.w3.org/2000/svg" viewBox="0 0 104.3 125.3" width="104.3" height="125.3"><defs><linearGradient gradientUnits="userSpaceOnUse" x1="-819.2" x2="819.2" gradientTransform="matrix(.012 .001 -.003 .029 100.95 39.9)" id="a"><stop offset="0" stop-color="#7F5629"/><stop offset=".192" stop-color="#67411D"/><stop offset=".447" stop-color="#4C2A10"/><stop offset=".6" stop-color="#42210B"/><stop offset=".945"/></linearGradient><linearGradient gradientUnits="userSpaceOnUse" x1="-819.2" x2="819.2" gradientTransform="matrix(-.005 -.017 .007 -.002 86.95 20.35)" id="b"><stop offset="0" stop-color="#7F5629"/><stop offset=".192" stop-color="#67411D"/><stop offset=".447" stop-color="#4C2A10"/><stop offset=".6" stop-color="#42210B"/><stop offset=".945"/></linearGradient><linearGradient gradientUnits="userSpaceOnUse" x1="-819.2" x2="819.2" gradientTransform="matrix(.002 0 0 .003 84.55 32.4)" id="c"><stop offset="0" stop-color="#7F5629"/><stop offset=".192" stop-color="#67411D"/><stop offset=".447" stop-color="#4C2A10"/><stop offset=".6" stop-color="#42210B"/><stop offset=".945"/></linearGradient><radialGradient gradientUnits="userSpaceOnUse" r="819.2" cx="0" cy="0" spreadMethod="pad" gradientTransform="matrix(.05 0 0 .05 72.6 58.75)" id="d"><stop offset="0" stop-color="#fff"/><stop offset="1"/></radialGradient><radialGradient gradientUnits="userSpaceOnUse" r="819.2" cx="0" cy="0" spreadMethod="pad" gradientTransform="matrix(.004 0 0 .004 92.35 39.65)" id="e"><stop offset="0" stop-color="#fff"/><stop offset="1"/></radialGradient><linearGradient gradientUnits="userSpaceOnUse" x1="-819.2" x2="819.2" gradientTransform="matrix(0 -.004 .004 0 90.65 50.75)" id="f"><stop offset="0" stop-color="#7F5629"/><stop offset=".192" stop-color="#67411D"/><stop offset=".447" stop-color="#4C2A10"/><stop offset=".6" stop-color="#42210B"/><stop offset=".945"/></linearGradient><linearGradient gradientUnits="userSpaceOnUse" x1="-819.2" x2="819.2" gradientTransform="matrix(.013 .008 -.008 .013 95.6 71.15)" id="g"><stop offset="0" stop-color="#7F5629"/><stop offset=".192" stop-color="#67411D"/><stop offset=".447" stop-color="#4C2A10"/><stop offset=".6" stop-color="#42210B"/><stop offset=".945"/></linearGradient><linearGradient gradientUnits="userSpaceOnUse" x1="-819.2" x2="819.2" gradientTransform="matrix(0 -.004 .004 0 84.1 60.5)" id="h"><stop offset="0" stop-color="#7F5629"/><stop offset=".192" stop-color="#67411D"/><stop offset=".447" stop-color="#4C2A10"/><stop offset=".6" stop-color="#42210B"/><stop offset=".945"/></linearGradient><linearGradient gradientUnits="userSpaceOnUse" x1="-819.2" x2="819.2" gradientTransform="matrix(.014 .015 -.016 .014 83.25 91.9)" id="i"><stop offset="0" stop-color="#7F5629"/><stop offset=".192" stop-color="#67411D"/><stop offset=".447" stop-color="#4C2A10"/><stop offset=".6" stop-color="#42210B"/><stop offset=".945"/></linearGradient><linearGradient gradientUnits="userSpaceOnUse" x1="-819.2" x2="819.2" gradientTransform="matrix(-.002 -.02 .026 -.002 61.95 27.75)" id="j"><stop offset="0" stop-color="#7F5629"/><stop offset=".192" stop-color="#67411D"/><stop offset=".447" stop-color="#4C2A10"/><stop offset=".6" stop-color="#42210B"/><stop offset=".945"/></linearGradient><linearGradient gradientUnits="userSpaceOnUse" x1="-819.2" x2="819.2" gradientTransform="matrix(-.007 -.027 .011 -.003 23.05 20.25)" id="k"><stop offset="0" stop-color="#7F5629"/><stop offset=".192" stop-color="#67411D"/><stop offset=".447" stop-color="#4C2A10"/><stop offset=".6" stop-color="#42210B"/><stop offset=".945"/></linearGradient><linearGradient gradientUnits="userSpaceOnUse" x1="-819.2" x2="819.2" gradientTransform="matrix(-.025 0 0 -.029 8.1 42.15)" id="l"><stop offset="0" stop-color="#7F5629"/><stop offset=".192" stop-color="#67411D"/><stop offset=".447" stop-color="#4C2A10"/><stop offset=".6" stop-color="#42210B"/><stop offset=".945"/></linearGradient><radialGradient gradientUnits="userSpaceOnUse" r="819.2" cx="0" cy="0" spreadMethod="pad" gradientTransform="matrix(.004 0 0 .004 31.4 41.35)" id="m"><stop offset="0" stop-color="#fff"/><stop offset="1"/></radialGradient><linearGradient gradientUnits="userSpaceOnUse" x1="-819.2" x2="819.2" gradientTransform="matrix(.004 0 -.001 .006 39 37.05)" id="n"><stop offset="0" stop-color="#7F5629"/><stop offset=".192" stop-color="#67411D"/><stop offset=".447" stop-color="#4C2A10"/><stop offset=".6" stop-color="#42210B"/><stop offset=".945"/></linearGradient><linearGradient gradientUnits="userSpaceOnUse" x1="-819.2" x2="819.2" gradientTransform="matrix(0 -.004 .004 0 34.95 52.4)" id="o"><stop offset="0" stop-color="#7F5629"/><stop offset=".192" stop-color="#67411D"/><stop offset=".447" stop-color="#4C2A10"/><stop offset=".6" stop-color="#42210B"/><stop offset=".945"/></linearGradient><linearGradient gradientUnits="userSpaceOnUse" x1="-819.2" x2="819.2" gradientTransform="matrix(-.028 .017 -.012 -.019 16 75.35)" id="p"><stop offset="0" stop-color="#7F5629"/><stop offset=".192" stop-color="#67411D"/><stop offset=".447" stop-color="#4C2A10"/><stop offset=".6" stop-color="#42210B"/><stop offset=".945"/></linearGradient><linearGradient gradientUnits="userSpaceOnUse" x1="-819.2" x2="819.2" gradientTransform="matrix(0 -.004 .004 0 42.35 61.25)" id="q"><stop offset="0" stop-color="#7F5629"/><stop offset=".192" stop-color="#67411D"/><stop offset=".447" stop-color="#4C2A10"/><stop offset=".6" stop-color="#42210B"/><stop offset=".945"/></linearGradient><linearGradient gradientUnits="userSpaceOnUse" x1="-819.2" x2="819.2" gradientTransform="matrix(-.019 .026 -.022 -.016 32 95.05)" id="r"><stop offset="0" stop-color="#7F5629"/><stop offset=".192" stop-color="#67411D"/><stop offset=".447" stop-color="#4C2A10"/><stop offset=".6" stop-color="#42210B"/><stop offset=".945"/></linearGradient><linearGradient gradientUnits="userSpaceOnUse" x1="-819.2" x2="819.2" gradientTransform="matrix(0 .026 -.027 0 61.9 100.9)" id="s"><stop offset="0" stop-color="#7F5629"/><stop offset=".192" stop-color="#67411D"/><stop offset=".447" stop-color="#4C2A10"/><stop offset=".6" stop-color="#42210B"/><stop offset=".945"/></linearGradient><linearGradient gradientUnits="userSpaceOnUse" x1="-819.2" x2="819.2" gradientTransform="matrix(0 -.004 .004 0 63.95 68.3)" id="t"><stop offset="0" stop-color="#7F5629"/><stop offset=".192" stop-color="#67411D"/><stop offset=".447" stop-color="#4C2A10"/><stop offset=".6" stop-color="#42210B"/><stop offset=".945"/></linearGradient><linearGradient gradientUnits="userSpaceOnUse" x1="-819.2" x2="819.2" gradientTransform="matrix(0 -.004 .004 0 74.6 66.65)" id="u"><stop offset="0" stop-color="#7F5629"/><stop offset=".192" stop-color="#67411D"/><stop offset=".447" stop-color="#4C2A10"/><stop offset=".6" stop-color="#42210B"/><stop offset=".945"/></linearGradient><linearGradient gradientUnits="userSpaceOnUse" x1="-819.2" x2="819.2" gradientTransform="matrix(0 -.004 .004 0 52.5 66.7)" id="v"><stop offset="0" stop-color="#7F5629"/><stop offset=".192" stop-color="#67411D"/><stop offset=".447" stop-color="#4C2A10"/><stop offset=".6" stop-color="#42210B"/><stop offset=".945"/></linearGradient></defs><path fill="url(#a)" d="M93.75 21.4l3.95-5.5q.05.85 1.35 4.25 1.25 3.35 3.8 13.35 2.55 9.95.6 23.85l-.55 3.35-.05.25Q95.75 66 89.9 59.8q-1.9-2-3.4-4.95l-1.1-2.45.05-.15Q87.8 48.5 88 44q1.8.5 4.3 1.7 3.2 1.5 5.85-5.15l-3.45-15.1-.95-4.05m-3.1 25.8q-1.45 0-2.5 1.05-1 1.05-1 2.45 0 1.45 1 2.5 1.05 1 2.5 1 1.4 0 2.45-1 1.05-1.05 1.05-2.5 0-1.4-1.05-2.45-1.05-1.05-2.45-1.05"/><path fill="url(#b)" d="M80.7 5.5q5.4-4 7.2-.65 1.75 3.35 2.15 5.3 1.55 2.6 3.7 11.25l.95 4.05 3.45 15.1Q95.5 47.2 92.3 45.7 89.8 44.5 88 44l-1.1-.3-.9-6.2.05-2.2-.3-5.6q-.6-6.2-2.35-13.1L80.7 5.5M90 37.15q-1 1.05-1 2.5 0 1.4 1 2.45 1.05 1.05 2.5 1.05 1.4 0 2.45-1.05Q96 41.05 96 39.65q0-1.45-1.05-2.5-1.05-1-2.45-1-1.45 0-2.5 1"/><path fill="url(#c)" d="M85.75 29.7l.3 5.6q-1.2-2.2-3.1-4.15 1.4-.55 2.8-1.45"/><path fill="url(#d)" d="M88 44q-.2 4.5-2.55 8.25l-.05.15q-1.75 2.6-4.7 5l-2.8 1.95-.2.15q-3.6 2.2-7.85 3.1l-.2.05-6.5.6-4.95-.4h-.05q-5.25-.75-9.55-3.35l-3.05-2.1Q43 55.35 41.3 52.9l-.15-.2q-2.3-3.45-2.75-7.5l.5-.65-.55-2.45q.35-5.5 4-9.85 1.35-1.65 3.2-3.15 7.3-5.85 17.6-5.85T80.7 29.1l2.25 2.05q1.9 1.95 3.1 4.15L86 37.5l.9 6.2 1.1.3M49.25 29.35l-1.2.9q-6.25 5.05-6.25 12.2 0 7.15 6.25 12.2 6.3 5.05 15.15 5.05 8.9 0 15.1-5.05 6.3-5.05 6.3-12.2 0-6.05-4.45-10.55l-1.85-1.65q-6.2-5-15.1-5-8 0-13.95 4.1"/><path fill="url(#e)" d="M90 37.15q1.05-1 2.5-1 1.4 0 2.45 1Q96 38.2 96 39.65q0 1.4-1.05 2.45-1.05 1.05-2.45 1.05-1.45 0-2.5-1.05-1-1.05-1-2.45 0-1.45 1-2.5"/><path fill="url(#f)" d="M90.65 47.2q1.4 0 2.45 1.05 1.05 1.05 1.05 2.45 0 1.45-1.05 2.5-1.05 1-2.45 1-1.45 0-2.5-1-1-1.05-1-2.5 0-1.4 1-2.45 1.05-1.05 2.5-1.05"/><path fill="url(#g)" d="M102.85 60.95q-2.15 11.55-7.2 19.95-.85 1.4-1.5 3.75-7.05-2.6-12.25-13.5-1.8-3.8-3.2-8.1l-1-3.55.2-.15 2.8-1.95q2.95-2.4 4.7-5l1.1 2.45q1.5 2.95 3.4 4.95 5.85 6.2 12.95 1.15M84.1 57q-1.45 0-2.5 1-1 1.05-1 2.5 0 1.4 1 2.45Q82.65 64 84.1 64q1.4 0 2.45-1.05 1.05-1.05 1.05-2.45 0-1.45-1.05-2.5-1.05-1-2.45-1"/><path fill="url(#h)" d="M84.1 57q1.4 0 2.45 1 1.05 1.05 1.05 2.5 0 1.4-1.05 2.45Q85.5 64 84.1 64q-1.45 0-2.5-1.05-1-1.05-1-2.45 0-1.45 1-2.5 1.05-1 2.5-1"/><path fill="url(#i)" d="M94.15 84.65q-2 6.55-2.75 20.5-.5 9.45-.35 17.8-1.3-1.45-3.4-2.6-1.8-1-3.55-1.3-10.75-11.45-13.65-35.1-.95-7.35-.95-15.1l.15-6.2.2-.05q4.25-.9 7.85-3.1l1 3.55q1.4 4.3 3.2 8.1 5.2 10.9 12.25 13.5M74.6 70.15q1.4 0 2.45-1.05 1.05-1.05 1.05-2.45 0-1.45-1.05-2.5-1.05-1-2.45-1-1.45 0-2.5 1-1 1.05-1 2.5 0 1.4 1 2.45 1.05 1.05 2.5 1.05"/><path fill="url(#j)" d="M49.25 29.35q5.95-4.1 13.95-4.1 8.9 0 15.1 5l1.85 1.65q4.45 4.5 4.45 10.55 0 7.15-6.3 12.2-6.2 5.05-15.1 5.05-8.85 0-15.15-5.05-6.25-5.05-6.25-12.2 0-7.15 6.25-12.2l1.2-.9"/><path fill="url(#k)" d="M23 34.1q-1.75-7.45-6.15-16.15-2.3-4.55-5.05-8.9L9.6 5.7l-.05-.05q2.8-3.3 7.4-4.8 2.4-.75 4.2-.85 5.7 3.45 12.3 24.35l2.9 9.75 2 8 .55 2.45-.5.65q-3.65 4.6-9.1 2.1l-3.65-2.4-1.45-1.35q0-4.45-1.2-9.45m6.05 4.75q-1 1.05-1 2.5 0 1.4 1 2.45 1.05 1.05 2.5 1.05 1.4 0 2.45-1.05 1.05-1.05 1.05-2.45 0-1.45-1.05-2.5-1.05-1-2.45-1-1.45 0-2.5 1"/><path fill="url(#l)" d="M23 34.1q1.2 5 1.2 9.45l1.45 1.35 3.65 2.4q5.45 2.5 9.1-2.1.45 4.05 2.75 7.5l-.05.15q-1.45 4.65-7.25 8.35Q22.2 68.7.1 63.3V18.65Q14.15 31.4 23 34.1m8.45 18.25q0 1.4 1 2.45 1.05 1.05 2.5 1.05 1.4 0 2.45-1.05 1.05-1.05 1.05-2.45 0-1.45-1.05-2.5-1.05-1-2.45-1-1.45 0-2.5 1-1 1.05-1 2.5"/><path fill="url(#m)" d="M29.05 38.85q1.05-1 2.5-1 1.4 0 2.45 1 1.05 1.05 1.05 2.5 0 1.4-1.05 2.45-1.05 1.05-2.45 1.05-1.45 0-2.5-1.05-1-1.05-1-2.45 0-1.45 1-2.5"/><path fill="url(#n)" d="M38.35 42.1l-2-8q2.9-.65 6-1.85-3.65 4.35-4 9.85"/><path fill="url(#o)" d="M31.45 52.35q0-1.45 1-2.5 1.05-1 2.5-1 1.4 0 2.45 1 1.05 1.05 1.05 2.5 0 1.4-1.05 2.45-1.05 1.05-2.45 1.05-1.45 0-2.5-1.05-1-1.05-1-2.45"/><path fill="url(#p)" d="M.1 63.3q22.1 5.4 33.75-2.1 5.8-3.7 7.25-8.35l.2.05q1.7 2.45 4.25 4.5l3.05 2.1q-1.65 9.2-8.25 18.4Q27.4 96 3.45 96.7L1.8 88.95Q1.25 87.5.75 84q-1-7.05-.65-17.5v-3.2m38.75-2.05q0 1.4 1 2.45 1.05 1.05 2.5 1.05 1.4 0 2.45-1.05 1.05-1.05 1.05-2.45 0-1.45-1.05-2.5-1.05-1-2.45-1-1.45 0-2.5 1-1 1.05-1 2.5"/><path fill="url(#q)" d="M38.85 61.25q0-1.45 1-2.5 1.05-1 2.5-1 1.4 0 2.45 1 1.05 1.05 1.05 2.5 0 1.4-1.05 2.45-1.05 1.05-2.45 1.05-1.45 0-2.5-1.05-1-1.05-1-2.45"/><path fill="url(#r)" d="M39.4 117.95q-7.2-.25-16.35 1.1l-14 1.75q-4.8.2-5.3-2.7-.55-2.95.85-16.05L3.45 96.7q23.95-.7 36.9-18.8 6.6-9.2 8.25-18.4 4.3 2.6 9.55 3.35l-.1 7.6q-.35 9.1-1.7 17.15-4.3 25.6-16.95 30.35M49 66.7q0 1.4 1 2.45 1.05 1.05 2.5 1.05 1.4 0 2.45-1.05Q56 68.1 56 66.7q0-1.45-1.05-2.5-1.05-1-2.45-1-1.45 0-2.5 1-1 1.05-1 2.5"/><path fill="url(#s)" d="M84.1 119.05q-2.3-.35-4.55.45-1.65.6-3.85 2.55-2.3 2-3.75 2.6-5.35 2.3-17.15-3.45-6.05-2.95-15.4-3.25 12.65-4.75 16.95-30.35 1.35-8.05 1.7-17.15l.1-7.6h.05l4.95.4 6.5-.6-.15 6.2q0 7.75.95 15.1 2.9 23.65 13.65 35.1M64 64.75q-1.45 0-2.5 1-1 1.05-1 2.5 0 1.4 1 2.45 1.05 1.05 2.5 1.05 1.4 0 2.45-1.05 1.05-1.05 1.05-2.45 0-1.45-1.05-2.5-1.05-1-2.45-1"/><path fill="url(#t)" d="M64 64.75q1.4 0 2.45 1 1.05 1.05 1.05 2.5 0 1.4-1.05 2.45-1.05 1.05-2.45 1.05-1.45 0-2.5-1.05-1-1.05-1-2.45 0-1.45 1-2.5 1.05-1 2.5-1"/><path fill="url(#u)" d="M74.6 70.15q-1.45 0-2.5-1.05-1-1.05-1-2.45 0-1.45 1-2.5 1.05-1 2.5-1 1.4 0 2.45 1 1.05 1.05 1.05 2.5 0 1.4-1.05 2.45-1.05 1.05-2.45 1.05"/><path fill="url(#v)" d="M49 66.7q0-1.45 1-2.5 1.05-1 2.5-1 1.4 0 2.45 1Q56 65.25 56 66.7q0 1.4-1.05 2.45-1.05 1.05-2.45 1.05-1.45 0-2.5-1.05-1-1.05-1-2.45"/><path fill="none" stroke="#110802" stroke-width=".05" stroke-linecap="round" stroke-linejoin="round" d="M93.75 21.4l3.95-5.5q.05.85 1.35 4.25 1.25 3.35 3.8 13.35 2.55 9.95.6 23.85l-.55 3.35-.05.25q-2.15 11.55-7.2 19.95-.85 1.4-1.5 3.75-2 6.55-2.75 20.5-.5 9.45-.35 17.8-1.3-1.45-3.4-2.6-1.8-1-3.55-1.3-2.3-.35-4.55.45-1.65.6-3.85 2.55-2.3 2-3.75 2.6-5.35 2.3-17.15-3.45-6.05-2.95-15.4-3.25-7.2-.25-16.35 1.1l-14 1.75q-4.8.2-5.3-2.7-.55-2.95.85-16.05L3.45 96.7h-1M80.7 5.5q5.4-4 7.2-.65 1.75 3.35 2.15 5.3 1.55 2.6 3.7 11.25l.95 4.05 3.45 15.1Q95.5 47.2 92.3 45.7 89.8 44.5 88 44q-.2 4.5-2.55 8.25l-.05.15 1.1 2.45q1.5 2.95 3.4 4.95 5.85 6.2 12.95 1.15M86.05 35.3l-.3-5.6q-1.4.9-2.8 1.45 1.9 1.95 3.1 4.15L86 37.5l.9 6.2 1.1.3m-2.25-14.3q-.6-6.2-2.35-13.1L80.7 5.5l-.1 1.65-.2 1m13.75 76.5q-7.05-2.6-12.25-13.5-1.8-3.8-3.2-8.1l-1-3.55q-3.6 2.2-7.85 3.1l-.2.05-.15 6.2q0 7.75.95 15.1 2.9 23.65 13.65 35.1m-41.75-86.8q1.35-1.65 3.2-3.15 7.3-5.85 17.6-5.85T80.7 29.1l2.25 2.05m-46.6 2.95l-2.9-9.75Q26.85 3.45 21.15 0q-1.8.1-4.2.85-4.6 1.5-7.4 4.8l.05.05 2.2 3.35q2.75 4.35 5.05 8.9 4.4 8.7 6.15 16.15 1.2 5 1.2 9.45l1.45 1.35 3.65 2.4q5.45 2.5 9.1-2.1l.5-.65-.55-2.45-2-8q2.9-.65 6-1.85-3.65 4.35-4 9.85M23 34.1Q14.15 31.4.1 18.65V63.3q22.1 5.4 33.75-2.1 5.8-3.7 7.25-8.35l.05-.15q-2.3-3.45-2.75-7.5M.1 63.3v3.2Q-.25 76.95.75 84q.5 3.5 1.05 4.95l1.65 7.75q23.95-.7 36.9-18.8 6.6-9.2 8.25-18.4l-3.05-2.1Q43 55.35 41.3 52.9l-.15-.2m44.25-.3q-1.75 2.6-4.7 5l-2.8 1.95-.2.15m-8.05 3.15l-6.5.6-4.95-.4h-.05l-.1 7.6q-.35 9.1-1.7 17.15-4.3 25.6-16.95 30.35m18.75-55.1q-5.25-.75-9.55-3.35"/><path fill="none" stroke="#333" stroke-width=".05" stroke-linecap="round" stroke-linejoin="round" d="M90.65 47.2q1.4 0 2.45 1.05 1.05 1.05 1.05 2.45 0 1.45-1.05 2.5-1.05 1-2.45 1-1.45 0-2.5-1-1-1.05-1-2.5 0-1.4 1-2.45 1.05-1.05 2.5-1.05M90 37.15q1.05-1 2.5-1 1.4 0 2.45 1Q96 38.2 96 39.65q0 1.4-1.05 2.45-1.05 1.05-2.45 1.05-1.45 0-2.5-1.05-1-1.05-1-2.45 0-1.45 1-2.5M84.1 57q1.4 0 2.45 1 1.05 1.05 1.05 2.5 0 1.4-1.05 2.45Q85.5 64 84.1 64q-1.45 0-2.5-1.05-1-1.05-1-2.45 0-1.45 1-2.5 1.05-1 2.5-1M49.25 29.35q5.95-4.1 13.95-4.1 8.9 0 15.1 5l1.85 1.65q4.45 4.5 4.45 10.55 0 7.15-6.3 12.2-6.2 5.05-15.1 5.05-8.85 0-15.15-5.05-6.25-5.05-6.25-12.2 0-7.15 6.25-12.2l1.2-.9m-20.2 9.5q1.05-1 2.5-1 1.4 0 2.45 1 1.05 1.05 1.05 2.5 0 1.4-1.05 2.45-1.05 1.05-2.45 1.05-1.45 0-2.5-1.05-1-1.05-1-2.45 0-1.45 1-2.5m9.8 22.4q0-1.45 1-2.5 1.05-1 2.5-1 1.4 0 2.45 1 1.05 1.05 1.05 2.5 0 1.4-1.05 2.45-1.05 1.05-2.45 1.05-1.45 0-2.5-1.05-1-1.05-1-2.45m-7.4-8.9q0-1.45 1-2.5 1.05-1 2.5-1 1.4 0 2.45 1 1.05 1.05 1.05 2.5 0 1.4-1.05 2.45-1.05 1.05-2.45 1.05-1.45 0-2.5-1.05-1-1.05-1-2.45M64 64.75q1.4 0 2.45 1 1.05 1.05 1.05 2.5 0 1.4-1.05 2.45-1.05 1.05-2.45 1.05-1.45 0-2.5-1.05-1-1.05-1-2.45 0-1.45 1-2.5 1.05-1 2.5-1m10.6 5.4q-1.45 0-2.5-1.05-1-1.05-1-2.45 0-1.45 1-2.5 1.05-1 2.5-1 1.4 0 2.45 1 1.05 1.05 1.05 2.5 0 1.4-1.05 2.45-1.05 1.05-2.45 1.05M49 66.7q0-1.45 1-2.5 1.05-1 2.5-1 1.4 0 2.45 1Q56 65.25 56 66.7q0 1.4-1.05 2.45-1.05 1.05-2.45 1.05-1.45 0-2.5-1.05-1-1.05-1-2.45"/></svg>