<svg xmlns="http://www.w3.org/2000/svg" viewBox="0 0 50.2 49.0" width="50.2" height="49"><defs><linearGradient gradientUnits="userSpaceOnUse" x1="-819.2" x2="819.2" gradientTransform="matrix(.004 0 0 .007 40.45 5.7)" id="a"><stop offset="0" stop-color="#999"/><stop offset=".98" stop-color="#666"/></linearGradient><linearGradient gradientUnits="userSpaceOnUse" x1="-819.2" x2="819.2" gradientTransform="matrix(.024 0 0 .013 25.45 25.5)" id="b"><stop offset="0" stop-color="#999"/><stop offset=".98" stop-color="#666"/></linearGradient><linearGradient gradientUnits="userSpaceOnUse" x1="-819.2" x2="819.2" gradientTransform="matrix(.018 0 0 .004 26.75 20.6)" id="c"><stop offset="0" stop-color="#999"/><stop offset=".98" stop-color="#666"/></linearGradient><linearGradient gradientUnits="userSpaceOnUse" x1="-819.2" x2="819.2" gradientTransform="matrix(.019 0 0 .007 29.2 20.25)" id="d"><stop offset="0" stop-color="#999"/><stop offset=".98" stop-color="#666"/></linearGradient><linearGradient gradientUnits="userSpaceOnUse" x1="-819.2" x2="819.2" gradientTransform="matrix(.001 0 0 .007 41.95 30.35)" id="e"><stop offset="0" stop-color="#999"/><stop offset=".98" stop-color="#666"/></linearGradient><linearGradient gradientUnits="userSpaceOnUse" x1="-819.2" x2="819.2" gradientTransform="matrix(.03 0 0 .014 25.5 24.3)" id="f"><stop offset="0" stop-color="#999"/><stop offset=".98" stop-color="#666"/></linearGradient><linearGradient gradientUnits="userSpaceOnUse" x1="-819.2" x2="819.2" gradientTransform="matrix(.03 0 0 .004 24.9 42.5)" id="g"><stop offset="0" stop-color="#999"/><stop offset=".98" stop-color="#666"/></linearGradient><linearGradient gradientUnits="userSpaceOnUse" x1="-819.2" x2="819.2" gradientTransform="matrix(0 0 0 0 37.25 .25)" id="h"><stop offset="0" stop-color="#999"/><stop offset=".98" stop-color="#666"/></linearGradient><linearGradient gradientUnits="userSpaceOnUse" x1="-819.2" x2="819.2" gradientTransform="matrix(.022 0 0 .007 25.75 6)" id="i"><stop offset="0" stop-color="#999"/><stop offset=".98" stop-color="#666"/></linearGradient><linearGradient gradientUnits="userSpaceOnUse" x1="-819.2" x2="819.2" gradientTransform="matrix(.013 0 0 0 26.25 .35)" id="j"><stop offset="0" stop-color="#999"/><stop offset=".98" stop-color="#666"/></linearGradient><linearGradient gradientUnits="userSpaceOnUse" x1="-819.2" x2="819.2" gradientTransform="matrix(.001 0 0 .002 29.65 26.1)" id="k"><stop offset="0" stop-color="#999"/><stop offset=".98" stop-color="#666"/></linearGradient><linearGradient gradientUnits="userSpaceOnUse" x1="-819.2" x2="819.2" gradientTransform="matrix(.001 0 0 .002 28.25 26.45)" id="l"><stop offset="0" stop-color="#999"/><stop offset=".98" stop-color="#666"/></linearGradient><linearGradient gradientUnits="userSpaceOnUse" x1="-819.2" x2="819.2" gradientTransform="matrix(0 0 0 .002 33.3 26.55)" id="m"><stop offset="0" stop-color="#999"/><stop offset=".98" stop-color="#666"/></linearGradient><linearGradient gradientUnits="userSpaceOnUse" x1="-819.2" x2="819.2" gradientTransform="matrix(.001 0 0 .002 32 26.5)" id="n"><stop offset="0" stop-color="#999"/><stop offset=".98" stop-color="#666"/></linearGradient><linearGradient gradientUnits="userSpaceOnUse" x1="-819.2" x2="819.2" gradientTransform="matrix(0 0 0 .001 30.9 25.55)" id="o"><stop offset="0" stop-color="#999"/><stop offset=".98" stop-color="#666"/></linearGradient><linearGradient gradientUnits="userSpaceOnUse" x1="-819.2" x2="819.2" gradientTransform="matrix(0 0 0 0 15.35 .4)" id="p"><stop offset="0" stop-color="#999"/><stop offset=".98" stop-color="#666"/></linearGradient><linearGradient gradientUnits="userSpaceOnUse" x1="-819.2" x2="819.2" gradientTransform="matrix(.001 0 0 0 14.95 .4)" id="q"><stop offset="0" stop-color="#999"/><stop offset=".98" stop-color="#666"/></linearGradient><linearGradient gradientUnits="userSpaceOnUse" x1="-819.2" x2="819.2" gradientTransform="matrix(.003 0 0 .009 10.25 28.25)" id="r"><stop offset="0" stop-color="#999"/><stop offset=".98" stop-color="#666"/></linearGradient><linearGradient gradientUnits="userSpaceOnUse" x1="-819.2" x2="819.2" gradientTransform="matrix(.001 0 0 .002 17.4 26.5)" id="s"><stop offset="0" stop-color="#999"/><stop offset=".98" stop-color="#666"/></linearGradient><linearGradient gradientUnits="userSpaceOnUse" x1="-819.2" x2="819.2" gradientTransform="matrix(.001 0 0 .002 18.65 26.5)" id="t"><stop offset="0" stop-color="#999"/><stop offset=".98" stop-color="#666"/></linearGradient><linearGradient gradientUnits="userSpaceOnUse" x1="-819.2" x2="819.2" gradientTransform="matrix(.001 0 0 .002 14.85 26.45)" id="u"><stop offset="0" stop-color="#999"/><stop offset=".98" stop-color="#666"/></linearGradient><linearGradient gradientUnits="userSpaceOnUse" x1="-819.2" x2="819.2" gradientTransform="matrix(.001 0 0 .002 16.15 26.45)" id="v"><stop offset="0" stop-color="#999"/><stop offset=".98" stop-color="#666"/></linearGradient><linearGradient gradientUnits="userSpaceOnUse" x1="-819.2" x2="819.2" gradientTransform="matrix(.001 0 0 .002 19.95 26.5)" id="w"><stop offset="0" stop-color="#999"/><stop offset=".98" stop-color="#666"/></linearGradient><linearGradient gradientUnits="userSpaceOnUse" x1="-819.2" x2="819.2" gradientTransform="matrix(.001 0 0 .002 12.5 26.4)" id="x"><stop offset="0" stop-color="#999"/><stop offset=".98" stop-color="#666"/></linearGradient><linearGradient gradientUnits="userSpaceOnUse" x1="-819.2" x2="819.2" gradientTransform="matrix(.001 0 0 .002 13.6 26.45)" id="y"><stop offset="0" stop-color="#999"/><stop offset=".98" stop-color="#666"/></linearGradient><linearGradient gradientUnits="userSpaceOnUse" x1="-819.2" x2="819.2" gradientTransform="matrix(.016 0 0 .001 24.05 45.85)" id="z"><stop offset="0" stop-color="#999"/><stop offset=".98" stop-color="#666"/></linearGradient><linearGradient gradientUnits="userSpaceOnUse" x1="-819.2" x2="819.2" gradientTransform="matrix(.016 0 0 .001 23.9 48.05)" id="A"><stop offset="0" stop-color="#999"/><stop offset=".98" stop-color="#666"/></linearGradient><linearGradient gradientUnits="userSpaceOnUse" x1="-819.2" x2="819.2" gradientTransform="matrix(.016 0 0 .001 23.9 46.95)" id="B"><stop offset="0" stop-color="#999"/><stop offset=".98" stop-color="#666"/></linearGradient><linearGradient gradientUnits="userSpaceOnUse" x1="-819.2" x2="819.2" gradientTransform="matrix(.015 0 0 .001 24.4 41.5)" id="C"><stop offset="0" stop-color="#999"/><stop offset=".98" stop-color="#666"/></linearGradient><linearGradient gradientUnits="userSpaceOnUse" x1="-819.2" x2="819.2" gradientTransform="matrix(.016 0 0 .001 24.25 42.55)" id="D"><stop offset="0" stop-color="#999"/><stop offset=".98" stop-color="#666"/></linearGradient><linearGradient gradientUnits="userSpaceOnUse" x1="-819.2" x2="819.2" gradientTransform="matrix(.016 0 0 .001 24.25 43.6)" id="E"><stop offset="0" stop-color="#999"/><stop offset=".98" stop-color="#666"/></linearGradient><linearGradient gradientUnits="userSpaceOnUse" x1="-819.2" x2="819.2" gradientTransform="matrix(.001 0 0 .002 39.75 26.6)" id="F"><stop offset="0" stop-color="#999"/><stop offset=".98" stop-color="#666"/></linearGradient><linearGradient gradientUnits="userSpaceOnUse" x1="-819.2" x2="819.2" gradientTransform="matrix(.001 0 0 .002 38.5 26.6)" id="G"><stop offset="0" stop-color="#999"/><stop offset=".98" stop-color="#666"/></linearGradient><linearGradient gradientUnits="userSpaceOnUse" x1="-819.2" x2="819.2" gradientTransform="matrix(.001 0 0 .002 37.2 26.6)" id="H"><stop offset="0" stop-color="#999"/><stop offset=".98" stop-color="#666"/></linearGradient><linearGradient gradientUnits="userSpaceOnUse" x1="-819.2" x2="819.2" gradientTransform="matrix(0 0 0 .002 35.9 26.55)" id="I"><stop offset="0" stop-color="#999"/><stop offset=".98" stop-color="#666"/></linearGradient><linearGradient gradientUnits="userSpaceOnUse" x1="-819.2" x2="819.2" gradientTransform="matrix(0 0 0 .002 34.6 26.55)" id="J"><stop offset="0" stop-color="#999"/><stop offset=".98" stop-color="#666"/></linearGradient><linearGradient gradientUnits="userSpaceOnUse" x1="-819.2" x2="819.2" gradientTransform="matrix(.001 0 0 .001 27.2 25.85)" id="K"><stop offset="0" stop-color="#999"/><stop offset=".98" stop-color="#666"/></linearGradient><linearGradient gradientUnits="userSpaceOnUse" x1="-819.2" x2="819.2" gradientTransform="matrix(.001 0 0 .001 25.2 26.15)" id="L"><stop offset="0" stop-color="#999"/><stop offset=".98" stop-color="#666"/></linearGradient><linearGradient gradientUnits="userSpaceOnUse" x1="-819.2" x2="819.2" gradientTransform="matrix(.001 0 0 .001 24.05 25.75)" id="M"><stop offset="0" stop-color="#999"/><stop offset=".98" stop-color="#666"/></linearGradient><linearGradient gradientUnits="userSpaceOnUse" x1="-819.2" x2="819.2" gradientTransform="matrix(.001 0 0 .002 21.25 26.55)" id="N"><stop offset="0" stop-color="#999"/><stop offset=".98" stop-color="#666"/></linearGradient></defs><path fill="#999" d="M41.9 7.35h5.4l2.9 5.5-49.4-.2L7.35 7.3h3.1L8.1 11.35l35.35.1-1-3.15-.55-.95m6.75 28.6l1.2 4.75L37 40.35l.05.95-25.25-.65.4-.9L0 39.4l2.9-4.45 3.8.05 2.1.4 1.05-2.05h.6l5.65.15h1.25l5.4.1 2.5.05H27l3.8.1 2.95.1h.8l7.35.15.35 2.15 2.15.05.05-.35 4.2.1m-7.5-11.75l.3.4.7 4.8-32.65-.55 2.95-5.05 28.7.4m-14.45.4H21l-.6-.05h-.65l-.6-.05h-3l-.6-.05H13.3l-.2.4-1.75 3.1H12.65l.5.05h1.3l.65.05H19.05l.65.05h1.35l.05-.15h.05l.55.15h.45l.2.05H25l.7.05H27l.7.05h3.25l.7.05h.55l.7.05h2.7l.65.05h4l.6.05-.4-3.2-.05-.45h-4.2l-.65-.05H31.3l-.55-.05h-.15l-.45-.05H27.7l-.95.1-.05-.15"/><path fill="url(#a)" d="M41.9 7.35l.55.95 1 3.15L37.6.55 37.5 0l4.4 7.35"/><path fill="url(#b)" d="M41.15 24.2l-.55-.65-2.55-2.25-2.9-1.8-3.25-1.35-3.4-.85-3.45-.3-3.45.25-3.35.8-3.1 1.25-2.75 1.75v.1l-2.4 2-1.95 2.45.75 9.8-2.1-.4-.75-9.45 2-3 2.55-2.6 3.1-2.2 3.55-1.6 3.85-1 4-.3 4.05.35L33 16.25l3.7 1.7 3.3 2.3L42.75 23l2.05 2.9.15.25-.5 9.7-.05.35-2.15-.05.45-10.05-1.25-1.5-.3-.4"/><path fill="url(#c)" d="M41.15 24.2l-28.7-.4-.05-2.65v-.1l2.75-1.75 3.1-1.25 3.35-.8 3.45-.25 3.45.3 3.4.85 3.25 1.35 2.9 1.8 2.55 2.25.55.65"/><path fill="url(#d)" d="M44.8 25.9L42.75 23 40 20.25l-3.3-2.3-3.7-1.7-3.95-1.05-4.05-.35-4 .3-3.85 1-3.55 1.6-.05-.05.2-.15 3.5-1.65 3.85-.95 4-.35 4 .4 3.95 1.05 3.65 1.65 3.25 2.3 2.75 2.75 2.15 3.1-.05.05"/><path fill="#333" d="M42.15 29.4v.45h-2.8 1.85l.7 4.15-7.35-.15 4.95-3.15-.05-.5-.1-.35-4.75-.1h-.5l-.2-.05-16-.25h-.8l-4.6-.1 4.6.1-1.55.6-.3.2-.2.3-.1.4.05.9.15.5.95 1.15-5.65-.15 2.05-4-2.95-.05-.05-.45 32.65.55M13.1 24.85l.2-.4h2.25l.6.05h3l.6.05h.65l.6.05H26.7l-.25.15-.35.15-.1.25-.5.95.25-.95H26h-.25l-.6-.1-.5 2.2-.55-.7.45-1.5-.7-.05-.25.7-.3-.2.1 1.3-.05.4.1.55-.05.05-.25-.2-.15.55h-.65l.25-.8h-.65L22.7 25h.6l.1-.4-.1.4h-.6l-.75 2.35-.15.5-.1.25-.55-.15.95-2.95h-.65l-1.05 3.1h-.7l1.15-3.1.15-.4-.15.4-.65-.05-1.15 3.1h-.65l1.2-3.1H19l-1.25 3.1h-.65l1.3-3.1h-.65l-1.3 3.1h-.7l1.45-3.15h-.65l-1.45 3.15-.65-.05 1.5-3.1h-.6L13.8 28h-.65l1.6-3.1h-.55l-1.7 3.05h-.65l1.8-3.05-.55-.05m14.6-.2h.6l-.1.45-.6 3-.15-.2-.1-.25-.1-.35v-.25l.4-2 .55.05-.55-.05.05-.4m1.2 0h.65l-.1.45-.25 2.5-.2.65h-.65l.1-.55.15-.3.15-.15v-.3l.15-1.85v-.45m1.25 0l.45.05-.2.3-.1-.2.05.3.25.3-.45 1.2-.3.45.25-1.95h.25-.25l.05-.45m1.15.1h.55v.4l-.3 2.35-.4-1.1.15-1.3v-.35m1.15 0h.65v.4l-.2 3.2-.7-.05.25-3.15h.65-.65v-.4m1.25 0h.65l-.05.4h-.6.6l-.05 3.2h-.7l.15-3.2v-.4m1.25 0h.6v.45l.05 3.15h-.7l.05-3.2v-.4m1.25.05h.6l.05.4h-.65.65l.1 3.2h-.7l-.05-3.2v-.4m1.25 0h.6l.05.4.2 3.2h-.65l-.15-3.2-.05-.4m1.25 0h.6l.05.45h-.65.65l.3 3.15H39l-.3-3.15v-.45m1.15 0h.55l.05.45.4 3.2-.6-.05-.35-3.15-.05-.45m-25.95-.35l-.25.45.25-.45m3.45 9.05l5-1.7.05.9.15.5.2.4-5.4-.1m3.05-8.95l-.2.4.2-.4m20.05.7h-.55.55m-2.95-.05h.6-.6m-2.55-.05l.6.05-.6-.05m-3.65-.05l.55.05-.55-.05m-2.4 0h.55-.55m-3.65-.5l-.1.45.1-.45m-1.4.4l.15-.4-.15.4m.8-.4l-.1.45.1-.45m-2.55.4l.1-.4-.1.4m-.65 0l.15-.4-.15.4m4.3.15l.1-.55-.1.55m-10.2-.7l-.2.45.2-.45m.4.45l.2-.4-.2.4m.8-.4l-.2.4.2-.4m.45.4l.15-.4-.15.4m.75-.4l-.2.45.2-.45m.45.45l.15-.45-.15.45m.75-.45l-.15.45.15-.45m.45.45l.15-.4-.15.4m-4.85-.05l.2-.45-.2.45"/><path fill="url(#e)" d="M41.45 24.6l1.25 1.5-.45 10.05L41.9 34l-.7-4.15h.95v-.45l-.7-4.8"/><path fill="url(#f)" d="M.8 12.65l49.4.2-1.55 23.1-4.2-.1.5-9.7-.1-.3-2.15-3.1L39.95 20l-3.25-2.3-3.65-1.65L29.1 15l-4-.4-4 .35-3.85.95-3.5 1.65-.2.15-2.9 2-2.55 2.6-.15.25-2 3L6.7 35l-3.8-.05-2.1-22.3"/><path fill="url(#g)" d="M49.85 40.7l-.3 4.35L37 44.7l.05.95-25.95-.75.4-.9-11.05-.35L0 39.4l12.2.35-.4.9.05 1.05-.4 1 .1 1.15 25.45.7.05-1.15-.05-1 .05-1.1-.05-.95 12.85.35"/><path fill="url(#h)" d="M37.5 0l.1.55h-.65V.5L36.9.1V0h.6"/><path fill="url(#i)" d="M43.45 11.45l-35.35-.1 2.35-4.05 3.9-6.65h1.25l21.35-.1h.65l5.85 10.9"/><path fill="url(#j)" d="M36.9.1l.05.4L15.6.6l-.05-.4L36.9.1"/><path fill="url(#k)" d="M29.55 24.65h.6l-.05.45-.25 1.95-.35.1-.3.45.25-2.5.1-.45"/><path fill="url(#l)" d="M28.3 24.65h.6v.45l-.15 1.85-.15.45-.15.3-.1.55h-.65l-.1-.15.6-3 .1-.45"/><path fill="url(#m)" d="M33.1 24.75h.6v.4l-.15 3.2h-.65l.2-3.2v-.4"/><path fill="url(#n)" d="M31.85 24.75h.6v.4l-.25 3.15h-.55v-.5l-.1-.3.3-2.35v-.4"/><path fill="url(#o)" d="M30.75 24.7l.55.05v.35l-.15 1.3-.1-.15-.45-.85-.1-.2.25-.5"/><path fill="url(#p)" d="M15.6.6h-.45l.4-.4.05.4"/><path fill="url(#q)" d="M15.15.6l-.05.05h-.75l.7-.5h.5V.2l-.4.4"/><path fill="url(#r)" d="M8.8 35.4l-.75-9.8L10 23.15l2.4-2 .05 2.65-2.95 5.05.05.45 2.95.05-2.05 4h-.6L8.8 35.4"/><path fill="url(#s)" d="M17.1 28.05h-.65l1.3-3.1h.65l-1.3 3.1"/><path fill="url(#t)" d="M18.4 28.05h-.65l1.25-3.1h.6l-1.2 3.1"/><path fill="url(#u)" d="M14.45 28h-.65l1.55-3.1h.6l-1.5 3.1"/><path fill="url(#v)" d="M15.75 28.05h-.65l1.45-3.15h.65l-1.45 3.15"/><path fill="#960" d="M17.1 29.45h.8l-.25.25-.55.3 7.6.15-1.65.75 1.65-.75 6.75.15-.05.45-.15.35-.05.35-.15.05-.25.3-.15.4L27 33.65h-1.75l.05-.45-.05-.5-.15-.45-.25-.5-.3-.4-.8-.45-.35-.05-.35.05-.3.2-.25.3-.15.4-5 1.7.2-.35.1-.35.05-.45-.05-.5-.4-.95-.65-.65-.4-.2-.35-.05-.3.05 1.55-.6m17.5.3l4.75.1.1.35.05.5-4.95 3.15h-.8l-.05-.7-.15-.5-.25-.45-.35-.4-.35-.3-.45-.2-.4-.05-.4.05 2.05-.95h1.5l-.3-.6"/><path fill="#c30" d="M34.6 29.75l.3.6h-1.5l-2.05.95-.15.15.05-.35.15-.35.05-.45 1.95.05-1.95-.05-6.75-.15-7.6-.15.55-.3.25-.25 16 .25.2.05h.5m-7.9-5.15l.05.15.25.85.25 1.45v.25l.1.35.1.25.15.2.1.15-.7-.05h-1.3l-.7-.05h-2l.15-.55.25.2h.1l-.05-.05-.1-.55.05-.4-.1-1.3.3.2.5.85.55.7-.05.05h.05l.2-.05.3-.45.35-.7.5-.95.1-.25.35-.15.25-.15m4.95 3.7l-.7-.05H29l.2-.65.3-.45.35-.1.3-.45.45-1.2.45.85.1.15.4 1.1.1.3v.5m-9.3-.15l-.2-.05-.35-.25.15-.5h.65l-.25.8m8.65-.4l-.05.5.05-.5m-.2 6l-3.8-.1 3.65-1.45-.1.45.05.5.2.6m-1.05-6l-.05.5.05-.5m-3.95-.05l-.1.5.1-.5m.65 0l-.1.5.1-.5m.55.5l.35-.55-.35.55m-3.3-.05l-.2-.35.2.35m-.45 0l.2-.35-.2.35m1.9-.5l-.15.5.15-.5m-.8.5l.25-.85-.25.85m6.05-.4l-.05.5.05-.5"/><path fill="url(#w)" d="M19.7 28.1l-.65-.05 1.15-3.1.65.05-1.15 3.1"/><path fill="url(#x)" d="M11.85 27.95h-.5l1.75-3.1.55.05-1.8 3.05"/><path fill="url(#y)" d="M13.15 28l-.5-.05v-.25l-.15.25 1.7-3.05h.55l-1.6 3.1"/><path fill="url(#z)" d="M37.05 45.65L37 46.8 11.2 46l-.1-1.1 25.95.75"/><path fill="url(#A)" d="M37.05 47.9L37 49l-26.15-.8-.1-1.1 26.3.8"/><path fill="url(#B)" d="M37.05 47.9l-26.3-.8.45-1.1 25.8.8.05 1.1"/><path fill="url(#C)" d="M11.85 41.7l-.05-1.05 25.25.65-.05 1.1-25.15-.7"/><path fill="url(#D)" d="M11.85 41.7l25.15.7.05 1-25.6-.7.4-1"/><path fill="url(#E)" d="M37.05 43.4L37 44.55l-25.45-.7-.1-1.15 25.6.7"/><path fill="url(#F)" d="M39.3 24.8h.55l.05.45.35 3.15h-.6l-.3-3.15-.05-.45"/><path fill="url(#G)" d="M38.05 24.8h.65v.45l.3 3.15h-.7l-.2-3.2-.05-.4"/><path fill="url(#H)" d="M36.8 24.8h.65l.05.4.15 3.2h-.7l-.1-3.2-.05-.4"/><path fill="url(#I)" d="M35.55 24.75l.65.05v.4l.05 3.2-.65-.05-.05-3.15v-.45"/><path fill="url(#J)" d="M34.35 24.75h.6v.4l-.05 3.2h-.65l.05-3.2.05-.4"/><path fill="url(#K)" d="M26.75 24.75l.95-.1-.05.4-.4 2L27 25.6l-.25-.85"/><path fill="url(#L)" d="M25.75 25.15l-.25.95-.35.7-.3.45-.2.05v-.05l.5-2.2.6.1"/><path fill="url(#M)" d="M23.6 25.7l.25-.7.7.05-.45 1.5-.5-.85"/><path fill="url(#N)" d="M21.15 27.95h-.05l-.15-.05-.55.2 1.05-3.1h.65l-.95 2.95"/><path fill="#630" d="M15.55 30.05l.3-.05.35.05.4.2.65.65.4.95.05.5-.05.45-.1.35-.2.35H16.1l-.95-1.15-.15-.5-.05-.9.1-.4.2-.3.3-.2m6.8 1.75l.15-.4.25-.3.3-.2.35-.05.35.05.8.45.3.4.25.5.15.45.05.5-.05.45-2.5-.05-.2-.4-.15-.5-.05-.9m8.85-.35l.15-.15.4-.05.4.05.45.2.35.3.35.4.25.45.15.5.05.7-2.95-.1-.2-.6-.05-.5.1-.45.15-.4.25-.3.15-.05"/><path fill="none" stroke="#000" stroke-width=".05" stroke-linecap="round" stroke-linejoin="round" d="M26.7 24.6l.05.15m.25.85l-.25-.85m.5 2.3v.25m-3.95-1.8l.1 1.3"/><path fill="none" stroke="#666" stroke-width=".05" stroke-miterlimit="10" d="M50.2 12.85l-2.9-5.5h-5.4l.55.95 1 3.15-35.35-.1 2.35-4.05h-3.1L.8 12.65l49.4.2-1.55 23.1 1.2 4.75-.3 4.35L37 44.7l.05.95L37 46.8l.05 1.1L37 49l-26.15-.8-.1-1.1.45-1.1-.1-1.1.4-.9-11.05-.35L0 39.4l2.9-4.45-2.1-22.3m11.6 8.5v-.1l2.75-1.75 3.1-1.25 3.35-.8 3.45-.25 3.45.3 3.4.85 3.25 1.35 2.9 1.8 2.55 2.25.55.65.3.4 1.25 1.5m-.45 10.05l2.15.05.05-.35 4.2.1m-3.7-9.8l-.15-.25-2.05-2.9L40 20.25l-3.3-2.3-3.7-1.7-3.95-1.05-4.05-.35-4 .3-3.85 1-3.55 1.6-3.1 2.2-2.55 2.6-2 3L6.7 35l2.1.4-.75-9.8L10 23.15l2.4-2 .05 2.65 28.7.4m3.7 1.65l.1.3m-.1-.3l-2.15-3.1L39.95 20l-3.25-2.3-3.65-1.65L29.1 15l-4-.4-4 .35-3.85.95-3.5 1.65-.2.15-2.9 2-2.55 2.6-.15.25m33.25 7.3h.95v-.45L9.5 28.85l.05.45 2.95.05 4.6.1m.8 0l16 .25.2.05h.5m4.75.1h1.85l.7 4.15.35 2.15m-.8-11.55l.7 4.8M37.6.55L37.5 0h-.6L15.55.15h-.5l-.7.5h1.25l21.35-.1h.65l5.85 10.9M36.9.1l.05.4v.05M15.6.65V.6h-.45l-.05.05m.45-.45l.05.4L36.95.5m-21.8.1l.4-.4L36.9.1M14.35.65l-3.9 6.65m6.9 26.2H16.1l-5.65-.15h-.6L8.8 35.4m3.7-6.05l-2.05 4M6.7 35l-3.8-.05m8.9 5.7l.4-.9L0 39.4m11.85 2.3l-.05-1.05 25.25.65-.05-.95 12.85.35m-38.4 2l.4-1 25.15.7.05-1.1m0 2.1L37 44.55l-25.45-.7-.1-1.15 25.6.7-.05-1m-2.45-8.55l7.35.15m-8.15-.15l-2.95-.1-3.8-.1m-1.75 0l-2.5-.05-5.4-.1m-4.9-9.7L9.5 28.85m1.25 18.25l26.3.8M37 46.8L11.2 46m-.1-1.1l25.95.75m4.85-38.3L37.5 0"/><path fill="none" stroke="#575757" stroke-width=".05" stroke-miterlimit="10" d="M42.7 26.1l-.45 10.05m2.2-.3l.5-9.7"/><path fill="none" stroke="#333" stroke-width=".05" stroke-miterlimit="10" d="M13.1 24.85l.2-.4h2.25l.6.05h3l.6.05h.65l.6.05H26.7m.05.15l.95-.1h2.45l.45.05h.15l.55.05h4.25l.65.05h4.2l.05.45.4 3.2-.6-.05h-4l-.65-.05H32.9l-.7-.05h-.55l-.7-.05H27.7l-.7-.05h-1.3l-.7-.05h-2.65l-.2-.05h-.45l-.55-.15h-.05l-.05.15H19.7l-.65-.05H15.1l-.65-.05h-1.3l-.5-.05h-1.3l1.75-3.1.55.05.25-.45m3.2 3.6l1.3-3.1h-.65l-1.3 3.1m1.95 0l1.2-3.1H19l-1.25 3.1m-3.3-.05l1.5-3.1h-.6L13.8 28m1.95.05l1.45-3.15h-.65l-1.45 3.15m3.95 0l1.15-3.1.2-.4M13.15 28l1.6-3.1h-.55l-1.7 3.05.15-.25v.25m-.8 0l1.8-3.05m26.2-.1l.05.45h.55m-1.1 0l-.05-.45m-.6 0v.45h.65l.3 3.15m-1.6-3.6l.05.4.2 3.2m-.65 0l-.15-3.2-.05-.4m-1.9.4v-.45m1.3.45l-.05-.4m-.6.4h.65l.1 3.2m-.75-3.6v.4l.05 3.2m3.65-3.15l.35 3.15m-2.15-3.2h-.6m1.2.05l.3 3.15m-3.4-.05l-.05-3.15-.6-.05-.05 3.2m.05-3.2v-.4m-.65.4l.05-.4m-.65.4h.6l-.05 3.2M30.6 25.4l-.1-.2-.1-.2-.05.1.25.3.45.85.1.15.15-1.3v-.35m-.15 1.65l.4 1.1.3-2.35-.55-.05m.35 3.2v-.5l-.1-.3m1.35.85l.2-3.2h-.65l-.25 3.15m1.5-3.15l-.15 3.2m-2.6-.1l.05-.5M30.4 25l-.1-.2.05.3h-.25l-.25 1.95.3-.45.45-1.2m-1.85 1.55v.3l-.15.15-.15.3-.1.55m.25-.85l.15-.45.15-1.85v-.45m.95 2.4l-.35.1-.3.45-.2.65m.45-3.15h-.55m.3 2.5l.25-2.5.1-.45m-3.55.5h-.25l-.25.95.5-.95.1-.25.35-.15.25-.15m.55 2.7l.1.35.1.25.15.2.6-3-.55-.05-.4 2M27 25.6l.25 1.45m.45 1.2l-.1-.15m-.25-.45l-.35.55m-.65 0l.1-.5m-.75.5l.1-.5m3.9.55l.05-.5m-5.65-1.2l.45-1.5-.7-.05-.25.7.5.85.55.7.5-2.2.1-.45m-1.65 1.1l-.3-.2m.1 1.3l-.05.4.1.55.05.05.2.35m-.7 0l.15-.55.25.2h.05l-.2.35m.2-.4v.05m1.2-.55l-.05.05h.05l.2-.05.3-.45.35-.7m-2.1-1.5l-.1.4h-.6l-.75 2.35h.65l-.25.8m-1.2-.2L22.1 25h-.65l-1.05 3.1.55-.2.15.05m.7-.1l-.1.25m.45 0l-.35-.25.15-.5m2.65-.05l-.25.85m.65 0l.15-.5m.6-2.5l-.6-.1m5.2 3.2l.05-.5m-5.85-2.7l.1-.45m-.65 0l-.15.4m-3 0l-1.15 3.1m1.15-3.1l.15-.4m-.8.35l.65.05m.75-.4l-.15.4m.75-.4l-.1.4m8.05-.35l-.05.45m.4.1l.25-.5m-2.45-.05l-.1.45m-.55-.05l.05-.4m-1.85-.05l-.1.55m7.95-.4v.4m-1.25-.4v.4m-.6 0v-.4m-1.25-.05l-.2.3m-15.45-.55l-.2.45m5-.35l-.15.4m-.6 0l.15-.45m-.6 0l-.15.45m-.65 0l.2-.45m-.6 0l-.15.4m-.65 0l.2-.4m-.6 0l-.2.4m-.6 0l.2-.45m17.55.7v-.4"/><path fill="none" stroke="#624200" stroke-width=".05" stroke-miterlimit="10" d="M17.1 29.45h.8m16.7.3l4.75.1.1.35.05.5m-23.95-.65l.3-.05.35.05.4.2.65.65.4.95.05.5-.05.45-.1.35-.2.35m5-1.7l.15-.4.25-.3.3-.2 1.65-.75M17.1 30l.55-.3.25-.25m-1.8 4.05l-.95-1.15-.15-.5-.05-.9.1-.4.2-.3.3-.2 1.55-.6m14.35.85l-.05.45-.15.35-.05.35.15-.15 2.05-.95m1.5 0l-.3-.6m-.05 4.1h-.8l-.05-.7-.15-.5-.25-.45-.35-.4-.35-.3-.45-.2-.4-.05-.4.05M27 33.65h-1.75l.05-.45-.05-.5-.15-.45-.25-.5-.3-.4-.8-.45-.35-.05-.35.05m8.15.55l-.15.05-.25.3-.15.4-.1.45.05.5.2.6m-8.05-.15l-.2-.4-.15-.5-.05-.9"/><path fill="none" stroke="#624200" stroke-width=".05" stroke-linecap="round" stroke-linejoin="round" d="M17.35 33.5l5-1.7m17.15-1.1l-4.95 3.15m-3.9-1.65L27 33.65"/><path fill="none" stroke="#802000" stroke-width=".05" stroke-miterlimit="10" d="M24.7 30.15L17.1 30m16.3.35l-1.95-.05-6.75-.15m8.7.2h1.5"/></svg>