<svg xmlns="http://www.w3.org/2000/svg" viewBox="0 0 63 60.9" width="63" height="60.9"><defs><linearGradient gradientUnits="userSpaceOnUse" x1="-819.2" x2="819.2" gradientTransform="matrix(0 -.002 .005 0 56.9 16.1)" id="a"><stop offset="0" stop-color="#DCBD77"/><stop offset="1" stop-color="#CFA644"/></linearGradient><linearGradient gradientUnits="userSpaceOnUse" x1="-819.2" x2="819.2" gradientTransform="matrix(0 -.002 .006 0 54.25 36.3)" id="b"><stop offset="0" stop-color="#DCBD77"/><stop offset="1" stop-color="#CFA644"/></linearGradient><linearGradient gradientUnits="userSpaceOnUse" x1="-819.2" x2="819.2" gradientTransform="matrix(-.015 -.009 .005 -.009 35.45 29.8)" id="c"><stop offset="0" stop-color="#F1BB8A"/><stop offset="1" stop-color="#947252"/></linearGradient><linearGradient gradientUnits="userSpaceOnUse" x1="-819.2" x2="819.2" gradientTransform="matrix(.001 0 0 .012 59 48.35)" id="d"><stop offset="0" stop-color="#DCBD77"/><stop offset="1" stop-color="#CEA440"/></linearGradient><linearGradient gradientUnits="userSpaceOnUse" x1="-819.2" x2="819.2" gradientTransform="matrix(.001 0 0 .001 59.75 44.5)" id="e"><stop offset="0" stop-color="#DCBD77"/><stop offset="1" stop-color="#CEA440"/></linearGradient><linearGradient gradientUnits="userSpaceOnUse" x1="-819.2" x2="819.2" gradientTransform="matrix(.001 0 0 .004 59.7 48.75)" id="f"><stop offset="0" stop-color="#DCBD77"/><stop offset="1" stop-color="#CEA440"/></linearGradient><linearGradient gradientUnits="userSpaceOnUse" x1="-819.2" x2="819.2" gradientTransform="matrix(.001 0 0 .003 59.9 40.95)" id="g"><stop offset="0" stop-color="#DCBD77"/><stop offset="1" stop-color="#CEA440"/></linearGradient><linearGradient gradientUnits="userSpaceOnUse" x1="-819.2" x2="819.2" gradientTransform="matrix(.001 0 0 .002 59.9 36.5)" id="h"><stop offset="0" stop-color="#DCBD77"/><stop offset="1" stop-color="#CEA440"/></linearGradient><linearGradient gradientUnits="userSpaceOnUse" x1="-819.2" x2="819.2" gradientTransform="matrix(0 -.002 .001 0 26.15 14.25)" id="i"><stop offset="0" stop-color="#DCBD77"/><stop offset="1" stop-color="#CFA644"/></linearGradient><linearGradient gradientUnits="userSpaceOnUse" x1="-819.2" x2="819.2" gradientTransform="matrix(0 -.002 .005 0 21.55 14.6)" id="j"><stop offset="0" stop-color="#DCBD77"/><stop offset="1" stop-color="#CFA644"/></linearGradient><linearGradient gradientUnits="userSpaceOnUse" x1="-819.2" x2="819.2" gradientTransform="matrix(0 -.001 .002 0 12.55 31.3)" id="k"><stop offset="0" stop-color="#DCBD77"/><stop offset="1" stop-color="#CFA644"/></linearGradient><linearGradient gradientUnits="userSpaceOnUse" x1="-819.2" x2="819.2" gradientTransform="matrix(0 -.002 .001 0 18 37.65)" id="l"><stop offset="0" stop-color="#DCBD77"/><stop offset="1" stop-color="#CFA644"/></linearGradient><linearGradient gradientUnits="userSpaceOnUse" x1="-819.2" x2="819.2" gradientTransform="matrix(0 -.001 .005 0 7.1 31.7)" id="m"><stop offset="0" stop-color="#DCBD77"/><stop offset="1" stop-color="#CFA644"/></linearGradient><linearGradient gradientUnits="userSpaceOnUse" x1="-819.2" x2="819.2" gradientTransform="matrix(.006 0 0 .009 26.15 40.05)" id="n"><stop offset="0" stop-color="#776645"/><stop offset="1" stop-color="#DCBD77"/></linearGradient><linearGradient gradientUnits="userSpaceOnUse" x1="-819.2" x2="819.2" gradientTransform="matrix(.008 0 0 .004 31.65 48.75)" id="o"><stop offset="0" stop-color="#DCBD77"/><stop offset="1" stop-color="#CEA440"/></linearGradient><linearGradient gradientUnits="userSpaceOnUse" x1="-819.2" x2="819.2" gradientTransform="matrix(.001 0 0 .002 29.1 49.2)" id="p"><stop offset="0" stop-color="#DCBD77"/><stop offset="1" stop-color="#CEA440"/></linearGradient><linearGradient gradientUnits="userSpaceOnUse" x1="-819.2" x2="819.2" gradientTransform="matrix(.001 0 0 .005 38.4 48.05)" id="q"><stop offset="0" stop-color="#DCBD77"/><stop offset="1" stop-color="#CEA440"/></linearGradient><linearGradient gradientUnits="userSpaceOnUse" x1="-819.2" x2="819.2" gradientTransform="matrix(0 -.001 .005 0 30.85 50.9)" id="r"><stop offset="0" stop-color="#DCBD77"/><stop offset="1" stop-color="#CFA644"/></linearGradient><linearGradient gradientUnits="userSpaceOnUse" x1="-819.2" x2="819.2" gradientTransform="matrix(.002 0 0 .005 28.2 53.1)" id="s"><stop offset="0" stop-color="#DCBD77"/><stop offset="1" stop-color="#CEA440"/></linearGradient><linearGradient gradientUnits="userSpaceOnUse" x1="-819.2" x2="819.2" gradientTransform="matrix(.001 .002 -.008 .004 18.35 46.4)" id="t"><stop offset="0" stop-color="#AF882E"/><stop offset="1" stop-color="#DCBD77"/></linearGradient><linearGradient gradientUnits="userSpaceOnUse" x1="-819.2" x2="819.2" gradientTransform="matrix(-.003 .002 -.004 -.006 46.5 50.55)" id="u"><stop offset="0" stop-color="#AF882E"/><stop offset="1" stop-color="#DCBD77"/></linearGradient><linearGradient gradientUnits="userSpaceOnUse" x1="-819.2" x2="819.2" gradientTransform="matrix(0 .001 -.014 .001 15.2 55.85)" id="v"><stop offset="0" stop-color="#AF882E"/><stop offset="1" stop-color="#DCBD77"/></linearGradient><linearGradient gradientUnits="userSpaceOnUse" x1="-819.2" x2="819.2" gradientTransform="matrix(0 .002 -.016 .001 46.1 58.05)" id="w"><stop offset="0" stop-color="#AF882E"/><stop offset="1" stop-color="#DCBD77"/></linearGradient><linearGradient gradientUnits="userSpaceOnUse" x1="-819.2" x2="819.2" gradientTransform="matrix(.001 .004 -.003 .001 13.75 41.1)" id="x"><stop offset="0" stop-color="#AF882E"/><stop offset="1" stop-color="#DCBD77"/></linearGradient><linearGradient gradientUnits="userSpaceOnUse" x1="-819.2" x2="819.2" gradientTransform="matrix(0 .002 -.002 0 26.75 22.9)" id="y"><stop offset="0" stop-color="#AF882E"/><stop offset="1" stop-color="#DCBD77"/></linearGradient><linearGradient gradientUnits="userSpaceOnUse" x1="-819.2" x2="819.2" gradientTransform="matrix(0 .003 -.006 0 8.4 39.9)" id="z"><stop offset="0" stop-color="#AF882E"/><stop offset="1" stop-color="#DCBD77"/></linearGradient><linearGradient gradientUnits="userSpaceOnUse" x1="-819.2" x2="819.2" gradientTransform="matrix(0 .002 -.007 0 53.65 44.4)" id="A"><stop offset="0" stop-color="#AF882E"/><stop offset="1" stop-color="#DCBD77"/></linearGradient></defs><path fill="#706961" d="M61.15 29.25l.15.25-.1 1-.4 3.85-.15.05.1.3-1.55-.15h-.25l-9.05-.75-2.3-.15L55 19.1l-7.4 14.55 1.6-5.05.15-.2 1.15-1.85.25-.5 2-3.3 2.2-3.7.05.05.45-.9 1.25 2.35.25.5L58 23.1l2.65 5.15.5 1m-58.4.7L0 29.7l6.8-14.4 8.95 10.8-1.9 2.1-2.3 2.5-.8-.05-8-.7m15.05-16.8L15.5 13l6.2-13 7.1 10.7-1.7 1.75L26 13.6l-.95-.05-7.25-.4m35.25 2.2l-1.95-.1 1.15-3.15 5.7-10.55L63 12.7l-.35 3.2-1.55-.05-8.05-.5m9.6.55l-4.7-14.35-6.85 13.7 6.85-13.7 4.7 14.35m-7.2 2.3l5.2 16.2-5.2-16.2M21.7 0L26 13.6 21.7 0M11.55 30.7L6.8 15.3l4.75 15.4"/><path fill="url(#a)" d="M61.1 15.85l-.55 7.4L58 23.1l-1.05-2.05 1.75.15.05-.5.1-1.5-.05-.5-.45-.9-.4-.3-.5-.2-.5-.1h-.5l-.5.2-.45.25-.3.4-.2.45-.15.45V19l.1.05-2.2 3.7.3-7.4 8.05.5"/><path fill="#DCBD77" d="M58 23.1l2.55.15.1 5L58 23.1m-8.1 11.05l-.3 7.25-.6 3.9-.4.55-4 2.2-5.7 1.25.05-5.35H32.6h6.35l-1.1 2.7-12.5-1.25 1.45-2.6 4.65.9v1.15l.95.1v-.45l.2-.55-.1-5.55 6.45-.05 5.85-1.1L49 35.3l.9-1.15"/><path fill="url(#b)" d="M49.9 34.15v-.35l9.05.75-.5 7.65-8.85-.8.3-7.25m6.5 5l.05-1.9-.2-.5-.35-.45-.45-.35-.55-.25-.55-.1h-.6l-.55.15-.5.3-.35.4-.2.35v.1l-.15.5-.1 2.1 4.45.4.05-.75"/><path fill="url(#c)" d="M28.1 23.05l.3-.25 4.05-1.5 2.25-.3h2.45l2.25.3 4 1.5 3.95 3.05.45.5 1.3 1.6.25.45-.15.2-1.6 5.05 2.3.15v.35L49 35.3l-4.2 1.95-5.85 1.1-6.45.05-.2-7.3-.05-2.5 3.85.3.2-.35v-.95l-4.05-.3-.1-4.9-1.05-.05-.25.35.1 4.5-3.75-.25-.25.35.05.9 4 .35.3 9.6-4.7-.85-4.05-1.95-1.7-2.4.65-2.25v-.15l.05-.1L22.7 28l1.8-2.2 1.35-1 2.25-1.75m-6.6 7.65l.05-.25-.05.25"/><path fill="url(#d)" d="M58.45 42.2l.5-3.95.2 5.3.1 1.75v.1l.3 6.7-.65 6.35-.45-16.25"/><path fill="url(#e)" d="M59.25 45.3l-.1-1.75 1.2.1-.1 1.85h-.05l-.75-.05-.2-.15"/><path fill="url(#f)" d="M60.1 46.85L59.7 51l-.15 1.1-.3-6.7.2.05.75.05-.05.3-.05 1.05"/><path fill="url(#g)" d="M60.9 38.45l-.25 2.6-.3 2.6-1.2-.1-.2-5.3 1.95.2"/><path fill="url(#h)" d="M60.9 38.45l-1.95-.2.25-3.7 1.55.15h.05l.1 3.75"/><path fill="url(#i)" d="M27.1 12.45l.2 5.9-1.95 2.35-.3-7.15.95.05 1.1-1.15"/><path fill="url(#j)" d="M18.25 20.2l-.45-7.05 7.25.4.3 7.15-7.1-.5m5.2-2l-.05-1.4-.1-.5-.2-.45-.3-.35-.4-.35-.45-.2-.45-.1-.5.05-.4.15-.35.3-.3.35-.15.4v.45l.1 1.9 3.55.25v-.5"/><path fill="#f00" d="M32.5 38.4l.1 5.55h-.2v1l-.95-.1V43.7l-.15-5.55-.3-9.6-4-.35-.05-.9.25-.35 3.75.25.05.4-4.05-.3 4.05.3-.05-.4-.1-4.5.25-.35 1.05.05-.25.35-1.05-.05 1.05.05.25-.35.1 4.9 4.05.3v.95l-.2.35-3.85-.3.05 2.5.2 7.3M36.1 28l-4.1-.3.25-.4-.25.4 4.1.3.2-.4-.2.4v.9-.9m-3.8 3.1l.1 12.85-.1-12.85m-.4-8.35l.1 4.95-.1-4.95"/><path fill="url(#k)" d="M13.85 28.2l.45 5.6.05.65-2.9 3.5-.7-7.3.8.05 2.3-2.5"/><path fill="#D7B566" d="M60.55 23.25l.3-2.55.3 8.55-.5-1-.1-5m.65 7.25l.1 3.5-.1 1.15-.3 3.3-.1-3.75v-.35l.4-3.85m-46.9 3.3l3.35-4.3.6-9.3 7.1.5.5 4.1-1.35 1-1.8 2.2-1.15 2.45-.1-4.2-6.9 9.1-.2-.9-.05-.65m33.05-7.95l3.4.2-.25.5-2.7-.2-.45-.5m11.6 8.7h.25l-.25 3.7-.5 3.95.5-7.65m-38.7-8.45l1.2.15-1.2-.15-2.6 3.4 2.6-3.4m-.15 6.4l.05-.25.2-.55.15-.1.1-.05.15.1.05.25.1.3.05.35-.85-.05m-2.55 3.4l.1-.35.15-.25.15-.15.15-.05.1.1.2.55.05.4-.9-.25m.05 4.95l-.1-1.15 1.15-.35-1.05 1.5"/><path fill="url(#l)" d="M17.55 35.9l.9.25.2 3.2-1.15-.1-.15-1.55v-.45l.1-.95.1-.4"/><path fill="url(#m)" d="M3.65 37.2l-.9-7.25 8 .7.7 7.3-7.8-.75m5.55-2.15l-.25-1.8-.25-.5-.35-.4L7.9 32l-1-.35-.5.05-.5.15-.35.25-.25.4-.15.45-.05.45.25 2 3.95.35-.1-.7"/><path fill="url(#n)" d="M21 35.55l-.15-2.6 1.7 2.4 4.05 1.95 4.7.85.15 5.55-4.65-.9-1.45 2.6.1 1.75-2.3-1.25-1.7-2.7-.45-7.65"/><path fill="url(#o)" d="M28.6 51.2l-3-.35-.15-3.7-.1-1.75 12.5 1.25.05 5.5-3.1-.3-.05-2.35-.25-.85-.4-.55-1.15-.85-.65-.25-.7-.15h-.75l-.65.15-.6.25-.5.35-.55 1.05.05 2.55"/><path fill="url(#p)" d="M28.6 51.2l-.05-2.55.55-1.05.5-.35.05 1.75-1.05 2.2"/><path fill="url(#q)" d="M38.95 43.95l-.05 5.35-1 2.85-.05-5.5 1.1-2.7"/><path fill="url(#r)" d="M33.3 58l-6.35-.75 2.7-8.25 5.1.5.05 2.35-1.55 3.75.05 2.4"/><path fill="url(#s)" d="M26.8 54.9l1.8-3.7 1.05-2.2-2.7 8.25-.15-2.35"/><path fill="#AF882E" d="M50.5 26.55l-1.15 1.85-.25-.45-1.3-1.6 2.7.2m-35.95 8.8l6.9-9.1.1 4.2-.05.1v.15l-.65 2.25.15 2.6-.9-.05-.15-2 .15-1-.15 1 .15 2 .1 1.5-1.55 2.35-.2-3.2-.05-.4-.2-.55-.1-.1-.15.05-.15.15-.15.25-.1.35-.1.4-.1.95v.45l.15 1.55v.45l.1 1.15v.1l-1.3 2-1.75-7.6m5.55-2.85l.85.05-.05-.35-.1-.3-.05-.25-.15-.1-.1.05-.15.1-.2.55-.05.25"/><path fill="url(#t)" d="M20.1 35.5l.9.05.45 7.65 1.7 2.7 2.3 1.25.15 3.7 3 .35-1.8 3.7-13.15-1.45 3.75-5.7-1.1-4.8 1.3-2 1.05-1.6L20.2 37l-.1-1.5"/><path fill="url(#u)" d="M38.9 49.3l5.7-1.25 4-2.2.4-.55-1.9 11.85-13.85-1.55 1.55-3.75 3.1.3 1-2.85"/><path fill="url(#v)" d="M26.95 57.25L3.5 54.6l-.35-2.35 10.5 1.2L26.8 54.9l.15 2.35"/><path fill="url(#w)" d="M58.75 60.9L33.3 58l-.05-2.4 13.85 1.55 11.8 1.3-.15 2.45"/><path fill="url(#x)" d="M11.45 37.95l2.9-3.5.2.9 1.75 7.6 1.1 4.8-3.75 5.7-2.2-15.5"/><path fill="url(#y)" d="M27.3 18.35l.8 4.7-2.25 1.75-.5-4.1 1.95-2.35"/><path fill="url(#z)" d="M3.15 52.25l.5-15.05 7.8.75 2.2 15.5-10.5-1.2"/><path fill="url(#A)" d="M49.6 41.4l8.85.8.45 16.25-11.8-1.3L49 45.3l.6-3.9"/><path fill="#5C481B" d="M58.75 20.7l-.05.5-1.75-.15-.25-.5 2.05.15M56.4 39.15l-.05.75-4.45-.4.2-.75 4.3.4M23.45 18.2v.5l-3.55-.25-.1-1.9.45-.4.1 1.85 3.1.2M9.2 35.05l.1.7-3.95-.35-.25-2 .65-.65.25 2 3.2.3m-3.2-.3l-.65.65.65-.65m13.9-16.3l.45-.45-.45.45"/><path fill="#362B10" d="M55 18.5l.2-.45.3-.4.45-.25.5-.2h.5l.5.1.5.2.4.3.45.9.05.5-.1 1.5-2.05-.15-1.25-2.35-.5.85-.1-.05.15-.5m-2.85 18.4v-.1l.2-.35.35-.4.5-.3.55-.15h.6l.55.1.55.25.45.35.35.45.2.5-.05 1.9-4.3-.4.05-1.85m-31.9-21.55l.35-.3.4-.15.5-.05.45.1.45.2.4.35.3.35.2.45.1.5.05 1.4-3.1-.2-.1-1.85v-.8M5.9 31.85l.5-.15.5-.05 1 .35.45.35.35.4.25.5.25 1.8-3.2-.3-.25-2 .15-.9M29.65 49l-.05-1.75.6-.25.65-.15h.75l.7.15.65.25 1.15.85.4.55.25.85-5.1-.5"/><path fill="none" stroke="#000" stroke-width=".05" stroke-miterlimit="10" d="M54.95 19.05l.5-.85M52 37.4l.15-.5M19.9 18.45l-.1-1.9M5.1 33.4l.05-.45.15-.45.25-.4.35-.25"/><path fill="none" stroke="#49443F" stroke-width=".05" stroke-miterlimit="10" d="M61.15 29.25l.15.25-.1 1-.4 3.85m-58.05-4.4L0 29.7l6.8-14.4 8.95 10.8-1.9 2.1-2.3 2.5-.8-.05-8-.7m15.05-16.8L15.5 13l6.2-13 7.1 10.7-1.7 1.75L26 13.6l-.95-.05-7.25-.4m32.95 12.9l2-3.3m.3-7.4l-1.95-.1 1.15-3.15 5.7-10.55L63 12.7l-.35 3.2-1.55-.05m-.45 12.4l.5 1m-5.7-11.05l1.25 2.35m-1.25-2.35l-.45.9-7.4 14.55m2.3.15l9.05.75h.25l1.55.15-.1-.3-5.2-16.2m-4.35-2.95l6.85-13.7 4.7 14.35M50.5 26.55l-1.15 1.85m1.15-1.85l.25-.5M26 13.6L21.7 0M6.8 15.3l4.75 15.4"/><path fill="none" stroke="#97762B" stroke-width=".05" stroke-miterlimit="10" d="M61.2 30.5l.1 3.5.05-.25-.15 1.4-.3 3.3-.25 2.6-.4 4.45-.2 2 .05-.65-.4 4.15-.95 9.9L33.3 58l-6.35-.75L3.5 54.6l-.35-2.35.5-15.05-.9-7.25m11.1-1.75l.45 5.6 3.35-4.3.6-9.3-.45-7.05m9.3-.7l.2 5.9.8 4.7m19.25 2.8l3.4.2m-2.95.3l2.7.2m-.6 7.6l-.3 7.25 8.85.8.5-7.65M32.5 38.4l.1 5.55h6.35l-.05 5.35 5.7-1.25 4-2.2.4-.55.6-3.9m9.35-3.15l-.5 3.95.45 16.25.65-6.35-.3-6.7v-.1l-.1-1.75-.2-5.3.25-3.7m.05 10.85l.2.05-.2-.15m1 .2l.1-1.85-1.2-.1m1.05 1.95l-.05.3-.05 1.05.1-1.35-.75-.05m1.2-4.4l-.3 2.6m.4-8.95l.05-.35v.35l.1 3.75-1.95-.2m2.25-3.1l.1-1.15M25.05 13.55l.3 7.15 1.95-2.35m-16.55 12.3l.7 7.3 2.9-3.5-.05-.65m.05.65l.2.9 6.9-9.1m-1.2-.15l-2.6 3.4m2.45 3l-.15 1 .15 2 .9.05-.15-2.6m.65-2.25v-.15l.05-.1M20.1 32.5l.05-.25.2-.55.15-.1.1-.05.15.1.05.25.1.3.05.35-.85-.05m-1.65 3.65l-.05-.4-.2-.55-.1-.1-.15.05-.15.15-.15.25-.1.35.9.25.2 3.2L20.2 37l-.1-1.5m-2.55.4l-.1.4-.1.95v.45l.15 1.55 1.15.1-1.05 1.6-1.3 2 1.1 4.8-3.75 5.7L26.8 54.9l1.8-3.7-3-.35-.15-3.7-2.3-1.25-1.7-2.7-.45-7.65m-3.5 4.15v-.45m.1 1.7v-.1l-.1-1.15 1.15-.35-1.05 1.5M3.65 37.2l7.8.75m2.2 15.5l-10.5-1.2m11.4-16.9l1.75 7.6m15.15.75l-4.65-.9-1.45 2.6 12.5 1.25 1.1-2.7m-13.6 1.45l.1 1.75m4.15.1l-.5.35-.55 1.05.05 2.55 1.05-2.2m-.05-1.75l.6-.25.65-.15h.75l.7.15.65.25 1.15.85.4.55.25.85.05 2.35 3.1.3-.05-5.5m-5.25-2.7h-.2M25.35 20.7l.5 4.1m-7.6-4.6l7.1.5m1.6 36.55l-.15-2.35m8-3.05l-1.55 3.75 13.85 1.55M33.3 58l-.05-2.4m26.3-3.5l.15-1.1m-.8 7.45l-11.8-1.3m11.65 3.75l.15-2.45m-21-6.3l1-2.85"/><path fill="none" stroke="#B6913A" stroke-width=".05" stroke-miterlimit="10" d="M11.45 37.95l2.2 15.5m33.45 3.7L49 45.3"/><path fill="none" stroke="#CAA85A" stroke-width=".05" stroke-miterlimit="10" d="M29.65 49l-2.7 8.25"/><path fill="none" stroke="#B97E4A" stroke-width=".05" stroke-miterlimit="10" d="M28.4 22.8l4.05-1.5 2.25-.3h2.45l2.25.3 4 1.5 3.95 3.05m.25 7.8l2.3.15m-.7-5.2l-1.6 5.05m1.75-5.25l-.25-.45-1.3-1.6-.45-.5m2.55 8.3L49 35.3l-4.2 1.95-5.85 1.1-6.45.05m-11.65-5.45l.65-2.25m4.35-5.9l-1.35 1-1.8 2.2-1.15 2.45m-.7 2.5l1.7 2.4 4.05 1.95 4.7.85M25.85 24.8l2.25-1.75"/><path fill="none" stroke="#B97E4A" stroke-width=".05" stroke-linecap="round" stroke-linejoin="round" d="M21.55 30.45l-.05.25"/><path fill="none" stroke="#8C0000" stroke-width=".05" stroke-miterlimit="10" d="M28.1 23.05l.3-.25m20.95 5.6l-.15.2m.7 5.2v.35M32.15 22.4l-1.05-.05-.25.35 1.05.05.25-.35.1 4.9 4.05.3v.95l-.2.35-3.85-.3.05 2.5.2 7.3m3.8-10.8l-.2.4v.9m-3.85-1.6l-.25.4 4.1.3m-9.15-.7l4.05.3-.05-.4-3.75-.25-.25.35.05.9 4 .35.3 9.6.15 5.55v1.15l.95.1v-1l-.1-12.85m-.3-3.4l-.1-4.95m-1.05-.05l.1 4.5"/><path fill="none" stroke="#AF882E" stroke-width=".05" stroke-linecap="round" stroke-linejoin="round" d="M21.45 26.25l-1.2-.15m1.3 4.35l-.1-4.2"/><path fill="none" stroke="#AF882E" stroke-width=".05" stroke-miterlimit="10" d="M60.85 20.7l.25-4.85-.55 7.4.3-2.55.3 8.55m-8.4-6.5l.3-7.4m8.05.5l-8.05-.5m3.9 5.7L58 23.1l2.55.15.1 5m-5.7-9.2l-2.2 3.7m2.1-3.75v-.05l.15-.45m3 4.6l2.65 5.15"/><path fill="none" stroke="#3F3112" stroke-width=".05" stroke-miterlimit="10" d="M55 18.5l.2-.45.3-.4.45-.25.5-.2h.5l.5.1.5.2.4.3.45.9.05.5-.1 1.5-.05.5-1.75-.15M55 18.5l-.15.5m1.85 1.55l2.05.15m-2.05-.15l.25.5m-4.8 15.85v-.1l.2-.35.35-.4.5-.3.55-.15h.6l.55.1.55.25.45.35.35.45.2.5-.05 1.9-.05.75-4.45-.4.1-2.1m.15-.5l-.05 1.85 4.3.4m-4.5.35l.2-.75m-31.85-23.4l.35-.3.4-.15.5-.05.45.1.45.2.4.35.3.35.2.45.1.5.05 1.4v.5l-3.55-.25m-.1-1.9v-.45l.15-.4.3-.35v.8l.1 1.85 3.1.2M5.9 31.85l.5-.15.5-.05 1 .35.45.35.35.4.25.5.25 1.8.1.7-3.95-.35-.25-2 .65-.65.25 2 3.2.3m-3.3-3.2l-.15.9m-.4 2.65l.65-.65M29.65 49l-.05-1.75M20.35 18l-.45.45m.35-2.3l-.45.4M29.65 49l5.1.5"/></svg>