<svg xmlns="http://www.w3.org/2000/svg" viewBox="0 0 40.0 37.1" width="40" height="37.1"><defs><linearGradient gradientUnits="userSpaceOnUse" x1="-819.2" x2="819.2" spreadMethod="unknown" gradientTransform="matrix(-.003 .003 .003 .003 33.45 8.35)" id="a"><stop offset="0" stop-color="#A37243"/><stop offset="1" stop-color="#66482B"/></linearGradient><linearGradient gradientUnits="userSpaceOnUse" x1="-819.2" x2="819.2" spreadMethod="unknown" gradientTransform="matrix(-.002 .001 .002 .003 23.3 16.65)" id="b"><stop offset="0" stop-color="#A37243"/><stop offset="1" stop-color="#66482B"/></linearGradient><linearGradient gradientUnits="userSpaceOnUse" x1="-819.2" x2="819.2" spreadMethod="unknown" gradientTransform="matrix(-.003 0 0 .004 33.75 9.85)" id="c"><stop offset="0" stop-color="#A37243"/><stop offset="1" stop-color="#66482B"/></linearGradient><linearGradient gradientUnits="userSpaceOnUse" x1="-819.2" x2="819.2" spreadMethod="unknown" gradientTransform="matrix(-.003 -.001 -.001 .003 33.2 13)" id="d"><stop offset="0" stop-color="#A37243"/><stop offset="1" stop-color="#66482B"/></linearGradient><linearGradient gradientUnits="userSpaceOnUse" x1="-819.2" x2="819.2" spreadMethod="unknown" gradientTransform="matrix(-.003 -.002 -.001 .002 31.25 15.75)" id="e"><stop offset="0" stop-color="#A37243"/><stop offset="1" stop-color="#66482B"/></linearGradient><linearGradient gradientUnits="userSpaceOnUse" x1="-819.2" x2="819.2" spreadMethod="unknown" gradientTransform="matrix(-.003 -.003 -.003 .003 27.7 19.45)" id="f"><stop offset="0" stop-color="#A37243"/><stop offset="1" stop-color="#66482B"/></linearGradient><linearGradient gradientUnits="userSpaceOnUse" x1="-819.2" x2="819.2" spreadMethod="unknown" gradientTransform="matrix(-.001 -.003 -.003 .001 24.45 21.15)" id="g"><stop offset="0" stop-color="#A37243"/><stop offset="1" stop-color="#66482B"/></linearGradient><linearGradient gradientUnits="userSpaceOnUse" x1="-819.2" x2="819.2" spreadMethod="unknown" gradientTransform="matrix(.003 .003 -.003 .003 6.55 8.15)" id="h"><stop offset="0" stop-color="#A37243"/><stop offset="1" stop-color="#66482B"/></linearGradient><linearGradient gradientUnits="userSpaceOnUse" x1="-819.2" x2="819.2" spreadMethod="unknown" gradientTransform="matrix(.002 .001 -.002 .003 16.7 16.45)" id="i"><stop offset="0" stop-color="#A37243"/><stop offset="1" stop-color="#66482B"/></linearGradient><linearGradient gradientUnits="userSpaceOnUse" x1="-819.2" x2="819.2" spreadMethod="unknown" gradientTransform="matrix(.003 0 0 .004 6.25 9.65)" id="j"><stop offset="0" stop-color="#A37243"/><stop offset="1" stop-color="#66482B"/></linearGradient><linearGradient gradientUnits="userSpaceOnUse" x1="-819.2" x2="819.2" spreadMethod="unknown" gradientTransform="matrix(.003 -.001 .001 .003 6.8 12.8)" id="k"><stop offset="0" stop-color="#A37243"/><stop offset="1" stop-color="#66482B"/></linearGradient><linearGradient gradientUnits="userSpaceOnUse" x1="-819.2" x2="819.2" spreadMethod="unknown" gradientTransform="matrix(.003 -.002 .001 .002 8.75 15.55)" id="l"><stop offset="0" stop-color="#A37243"/><stop offset="1" stop-color="#66482B"/></linearGradient><linearGradient gradientUnits="userSpaceOnUse" x1="-819.2" x2="819.2" spreadMethod="unknown" gradientTransform="matrix(.003 -.003 .003 .003 12.25 19.25)" id="m"><stop offset="0" stop-color="#A37243"/><stop offset="1" stop-color="#66482B"/></linearGradient><linearGradient gradientUnits="userSpaceOnUse" x1="-819.2" x2="819.2" spreadMethod="unknown" gradientTransform="matrix(.001 -.003 .003 .001 15.55 20.95)" id="n"><stop offset="0" stop-color="#A37243"/><stop offset="1" stop-color="#66482B"/></linearGradient><linearGradient gradientUnits="userSpaceOnUse" x1="-819.2" x2="819.2" spreadMethod="unknown" gradientTransform="matrix(-.001 .003 -.008 -.002 19.05 4.25)" id="o"><stop offset="0" stop-color="#A37243"/><stop offset="1" stop-color="#66482B"/></linearGradient><linearGradient gradientUnits="userSpaceOnUse" x1="-819.2" x2="819.2" spreadMethod="unknown" gradientTransform="matrix(-.001 .008 -.007 -.001 19.45 17.3)" id="p"><stop offset="0" stop-color="#A37243"/><stop offset="1" stop-color="#66482B"/></linearGradient><linearGradient gradientUnits="userSpaceOnUse" x1="-819.2" x2="819.2" spreadMethod="unknown" gradientTransform="matrix(.001 0 0 .001 23.65 10.8)" id="q"><stop offset="0" stop-color="#A37243"/><stop offset="1" stop-color="#66482B"/></linearGradient><linearGradient gradientUnits="userSpaceOnUse" x1="-819.2" x2="819.2" spreadMethod="unknown" gradientTransform="matrix(.001 0 0 .002 19.95 5.05)" id="r"><stop offset="0" stop-color="#A37243"/><stop offset="1" stop-color="#66482B"/></linearGradient><linearGradient gradientUnits="userSpaceOnUse" x1="-819.2" x2="819.2" spreadMethod="unknown" gradientTransform="matrix(.002 0 0 .004 20.7 15.8)" id="s"><stop offset="0" stop-color="#A37243"/><stop offset="1" stop-color="#66482B"/></linearGradient><linearGradient gradientUnits="userSpaceOnUse" x1="-819.2" x2="819.2" spreadMethod="unknown" gradientTransform="matrix(0 -.003 .008 0 19.65 17.3)" id="t"><stop offset="0" stop-color="#A37243"/><stop offset="1" stop-color="#66482B"/></linearGradient><linearGradient gradientUnits="userSpaceOnUse" x1="-819.2" x2="819.2" spreadMethod="unknown" gradientTransform="matrix(-.001 0 0 -.002 17.05 10.6)" id="u"><stop offset="0" stop-color="#A37243"/><stop offset="1" stop-color="#66482B"/></linearGradient><linearGradient gradientUnits="userSpaceOnUse" x1="-819.2" x2="819.2" spreadMethod="unknown" gradientTransform="matrix(0 .006 -.006 0 20.55 28.3)" id="v"><stop offset="0" stop-color="#A37243"/><stop offset="1" stop-color="#66482B"/></linearGradient><linearGradient gradientUnits="userSpaceOnUse" x1="-819.2" x2="819.2" spreadMethod="unknown" gradientTransform="matrix(.008 -.004 .003 .006 19.85 33.85)" id="w"><stop offset="0" stop-color="#A37243"/><stop offset="1" stop-color="#66482B"/></linearGradient><linearGradient gradientUnits="userSpaceOnUse" x1="-819.2" x2="819.2" spreadMethod="unknown" gradientTransform="matrix(0 -.003 .004 0 20.25 4.55)" id="x"><stop offset="0" stop-color="#A37243"/><stop offset="1" stop-color="#66482B"/></linearGradient><linearGradient gradientUnits="userSpaceOnUse" x1="-819.2" x2="819.2" spreadMethod="unknown" gradientTransform="matrix(-.007 0 0 -.004 20 34.1)" id="y"><stop offset="0" stop-color="#66482B"/><stop offset=".565" stop-color="#A37243"/><stop offset="1" stop-color="#66482B"/></linearGradient><linearGradient gradientUnits="userSpaceOnUse" x1="-819.2" x2="819.2" spreadMethod="unknown" gradientTransform="matrix(-.004 0 0 -.006 15 25.85)" id="z"><stop offset="0" stop-color="#66482B"/><stop offset=".565" stop-color="#A37243"/><stop offset="1" stop-color="#66482B"/></linearGradient><linearGradient gradientUnits="userSpaceOnUse" x1="-819.2" x2="819.2" spreadMethod="unknown" gradientTransform="matrix(.004 0 0 .006 25 25.95)" id="A"><stop offset="0" stop-color="#66482B"/><stop offset=".565" stop-color="#A37243"/><stop offset="1" stop-color="#66482B"/></linearGradient></defs><path fill="url(#a)" d="M30.35 10.25q2.3-.9 4.25-4.55l.15-.35 1.6-3.65.05-.05.1.05 1.7 1.7.35.6.15.25h.1l.9 2.4.05.25q.15 1.45-4.15 2.95-2.15.9-4.35 1.3l-.15-.25q-.25-.4-.75-.65"/><path fill="url(#b)" d="M30.35 10.25q.5.25.75.65l.15.25v.25l-.4 1.15-1.1.7-.15.35-.15.8-.9.95-1.65 1.5-1.3.8-.15.25-.2.4q-.15.05-.3.25-.85.9-2.3.8l-.1-.3-.1-1.05v-.5q1.4-.35 2.8-1.45l1.3-1.35 1.65-1.95q0-.8.25-1.35.1-.4.4-.65l.35-.25q.55-.35 1.15-.25"/><path fill="url(#c)" d="M31.25 11.15q2.2-.4 4.35-1.3 4.3-1.5 4.15-2.95L40 8.45l-.25 2.7-.25.9q-1.15.7-5 .65l-3.65-.15.4-1.15v-.25"/><path fill="url(#d)" d="M39.5 12.05v.25q.25 1.45-1.05 3.25L37.2 17v.1q-1.6.15-4.65-1.65L29.6 13.6l.15-.35 1.1-.7 3.65.15q3.85.05 5-.65"/><path fill="url(#e)" d="M37.2 17.1l-.05.45-1.3 1.65-.9.55-.25.2-.35.15-5.8-4.75.9-.95.15-.8 2.95 1.85q3.05 1.8 4.65 1.65"/><path fill="url(#f)" d="M34.35 20.1q.1 1.1-1.3 2l-1.4.75q-.4.95-1.75 1.7l-.7.35-.35.1-.15.05-3.1-7.4 1.3-.8 1.65-1.5 5.8 4.75m-7.45-3.25l4.75 6-4.75-6"/><path fill="url(#g)" d="M28.7 25.05q.1.4-.15.65l-.85.75-1.05.3-.75.35-.65-1.4v1.45l-1-.05-1.1-.45-.7-1.95q.4-1.25.2-4.4v-.95q1.45.1 2.3-.8.15-.2.3-.25l.2-.4.15-.25 3.1 7.4m-6.05-5.7l1.45 3.6 1.15 2.75-1.15-2.75-1.45-3.6"/><path fill="url(#h)" d="M.25 6.7l.05-.25.9-2.4h.1l.15-.25.35-.6 1.7-1.7.1-.05.05.05q.6 1.8 1.6 3.65l.15.35q1.95 3.65 4.25 4.55l-.75.65-.15.25-4.35-1.3Q.1 8.15.25 6.7"/><path fill="url(#i)" d="M9.65 10.05q.6-.1 1.15.25l.35.25q.3.25.4.65l.25 1.35 1.65 1.95 1.3 1.35q1.4 1.1 2.75 1.45v.5l-.05 1.05-.1.3q-1.45.1-2.3-.8l-.3-.25-.2-.4-.15-.25q-.4-.1-1.3-.8l-1.65-1.5-.9-.95-.15-.8-.15-.35-1.1-.7q-.45-.6-.4-1.15v-.25l.15-.25.75-.65"/><path fill="url(#j)" d="M.5 11.85l-.25-.9L0 8.25.25 6.7Q.1 8.15 4.4 9.65l4.35 1.3v.25q-.05.55.4 1.15l-3.65.15q-3.85.05-5-.65"/><path fill="url(#k)" d="M.5 11.85q1.15.7 5 .65l3.65-.15 1.1.7.15.35-2.95 1.85q-3.05 1.8-4.7 1.65v-.1l-1.2-1.45Q.25 13.55.5 12.1v-.25"/><path fill="url(#l)" d="M5.65 19.9l-.35-.15-.25-.2-.9-.55-1.3-1.65-.1-.45q1.65.15 4.7-1.65l2.95-1.85.15.8.9.95-5.8 4.75"/><path fill="url(#m)" d="M5.65 19.9l5.8-4.75 1.65 1.5q.9.7 1.3.8l-3.1 7.4-.15-.05-.35-.1-.7-.35q-1.35-.75-1.75-1.7l-1.4-.75q-1.4-.9-1.3-2m2.7 2.75l4.75-6-4.75 6"/><path fill="url(#n)" d="M17.35 19.15v.95q-.2 3.15.15 4.4l-.65 1.95-1.1.45-1 .05V25.5l-.65 1.4q-.45-.1-.75-.35l-1.1-.3q-.7-.35-.8-.75-.25-.25-.15-.65l3.1-7.4.15.25.2.4.3.25q.85.9 2.3.8l-1.45 3.6-1.15 2.75 1.15-2.75 1.45-3.6"/><path fill="url(#o)" d="M22.95 3.7v-.05l.9-3q.8-1.05 1.4.15l-.65 3.45.2.35.65 1.25h-.1l-.9.8-2.1 2.1-2 1.55q-.7-.1-2.3-1.75l-3-2.9.2-.6.2-.5-.35-3.9.05-.1.05-.05q.65-1 1.45 0l.05.05.65 3.35v2.3l1.1 1.65 1.8 1.6 2.9-3.2-.2-2.55v.05-.05M16.7.55L16.65.5l.05.05"/><path fill="url(#p)" d="M25.05 13.3v-.1l-1.3 1.5q-.7-1.1-2.15-1.9l-1.35-.6q-.8.1-2.2 1.2l-1 1.1-1.1-1.1-.6-.7-.3-.5-.05-.1-.2-.65-.2-.5-.05-.5-.1-.9v-1.1q.1-1.5.6-2.8l3 2.9q1.6 1.65 2.3 1.75l2-1.55 2.1-2.1.9-.8h.1l.1.1q.75 2.85.25 5.35l-.55 1.8-.2.2m-7.4-2.9q-1.3-1.15-2.3-1.05l.1.45.3 1.1q.9 1.4 3 .6l-1.1-1.1m4.8 1.5h1.3q1.6-.4 1.1-2.25-1.1.1-2.2 1.15l-.8 1.1h.6"/><path fill="url(#q)" d="M22.45 11.9h-.6l.8-1.1q1.1-1.05 2.2-1.15.5 1.85-1.1 2.25h-1.3"/><path fill="url(#r)" d="M22.95 3.75V3.7v.05"/><path fill="url(#s)" d="M23.75 14.7l-.5.4-1.2.6q-.2 1.6-.95 2.65l-.95 1.1q-.6-.4-1.3-2.15l-.8-1.9-1-.9 1-1.1q1.4-1.1 2.2-1.2l1.35.6q1.45.8 2.15 1.9"/><path fill="url(#t)" d="M23.75 14.7l1.3-1.5v.1l-.1 6.45.7.7.65.5-.35-.1h-.1l-.4-.1-6.7-.4-3.4.2-1.9.1.9-.4 1-1.1.3-2.25q.1-2.4-.3-4.2l.6.7 1.1 1.1 1 .9.8 1.9q.7 1.75 1.3 2.15l.95-1.1q.75-1.05.95-2.65l1.2-.6.5-.4"/><path fill="url(#u)" d="M17.65 10.4l1.1 1.1q-2.1.8-3-.6l-.3-1.1-.1-.45q1-.1 2.3 1.05"/><path fill="url(#v)" d="M15.35 20.55l3.4-.2 6.7.4-2.8.4q-.7.2-1.25.6l-.6.5v4.25l-.1 2.4-.25 2.1v.2h-.3l-.7-.1-.2-7.45v-1.5q-.8-.7-3.9-1.6"/><path fill="url(#w)" d="M13.25 31.1v.15V31.1"/><path fill="url(#x)" d="M17.35 3.9l2.1-.3h1.35l2.15.1.2 2.55-2.9 3.2-1.8-1.6-1.1-1.65V3.9m5.6-.15V3.7v.05"/><path fill="url(#y)" d="M27 31.2h.1v.15l.4 2.8V35.85l-1.95-.1-.8.8-5.8.5-4.4-.5q-.5-.9-1.4-.9h-.7l-.1-1.6.9-2.8v-.15h6.2l.7.1H27"/><path fill="url(#z)" d="M13.45 20.65l1.9-.1q3.1.9 3.9 1.6v1.5l.2 7.45h-6.2q-.8-4.1-.4-7.55l.6-2.9"/><path fill="url(#A)" d="M25.85 20.85h.1l.35.1q.95 1.2.8 10.25h-6.65V31l.25-2.1.1-2.4v-4.25l.6-.5q.55-.4 1.25-.6l2.8-.4.4.1"/><path fill="none" stroke="#66482B" stroke-width=".05" stroke-linecap="round" stroke-linejoin="round" d="M39.75 6.9l-.05-.25-.9-2.4h-.1L38.55 4l-.35-.6-1.7-1.7-.1-.05-.05.05-1.6 3.65-.15.35q-1.95 3.65-4.25 4.55.5.25.75.65l.15.25q2.2-.4 4.35-1.3 4.3-1.5 4.15-2.95L40 8.45l-.25 2.7-.25.9v.25q.25 1.45-1.05 3.25L37.2 17v.1l-.05.45-1.3 1.65-.9.55-.25.2-.35.15q.1 1.1-1.3 2l-1.4.75q-.4.95-1.75 1.7l-.7.35-.35.1-.15.05q.1.4-.15.65l-.85.75-1.05.3-.75.35-.65-1.4-1.15-2.75-1.45-3.6-.1-.3-.1-1.05v-.5q1.4-.35 2.8-1.45l1.3-1.35 1.65-1.95q0-.8.25-1.35.1-.4.4-.65l.35-.25q.55-.35 1.15-.25m-5.1 16.9l-1-.05-1.1-.45-.7-1.95q.4-1.25.2-4.4v-.95q1.45.1 2.3-.8.15-.2.3-.25l.2-.4.15-.25 3.1 7.4m10.8-13q-1.15.7-5 .65l-3.65-.15-1.1.7-.15.35 2.95 1.85q3.05 1.8 4.65 1.65m-5.95-5.95v.25l-.4 1.15M29.6 13.6l-.15.8-.9.95 5.8 4.75m-8.75-2.45l1.3-.8 1.65-1.5m3.1 7.5l-4.75-6M9.65 10.05q.6-.1 1.15.25l.35.25q.3.25.4.65l.25 1.35 1.65 1.95 1.3 1.35q1.4 1.1 2.75 1.45v.5l-.05 1.05-.1.3v.95q-.2 3.15.15 4.4l-.65 1.95-1.1.45-1 .05m0-1.45l-.65 1.4q-.45-.1-.75-.35l-1.1-.3q-.7-.35-.8-.75-.25-.25-.15-.65l-.15-.05-.35-.1-.7-.35q-1.35-.75-1.75-1.7l-1.4-.75q-1.4-.9-1.3-2l-.35-.15-.25-.2-.9-.55-1.3-1.65-.1-.45v-.1l-1.2-1.45Q.25 13.55.5 12.1v-.25l-.25-.9L0 8.25.25 6.7l.05-.25.9-2.4h.1l.15-.25.35-.6 1.7-1.7.1-.05.05.05q.6 1.8 1.6 3.65l.15.35q1.95 3.65 4.25 4.55l-.75.65-.15.25v.25q-.05.55.4 1.15l1.1.7.15.35.15.8.9.95 1.65 1.5q.9.7 1.3.8l.15.25.2.4.3.25q.85.9 2.3.8l-1.45 3.6-1.15 2.75m-6-14.55L4.4 9.65Q.1 8.15.25 6.7m8.9 5.65l-3.65.15q-3.85.05-5-.65m2.25 5.05q1.65.15 4.7-1.65l2.95-1.85m1.05 1.75l-5.8 4.75m7.45-3.25l-4.75 6m6.05-5.2l-3.1 7.4M25.85 20.85h.1l.35.1-.65-.5-.7-.7.1-6.45m0-.1l-1.3 1.5-.5.4-1.2.6q-.2 1.6-.95 2.65l-.95 1.1q-.6-.4-1.3-2.15l-.8-1.9-1-.9-1.1-1.1-.6-.7q.4 1.8.3 4.2l-.3 2.25-1 1.1-.9.4-.6 2.9q-.4 3.45.4 7.55v.15M27 31.2h-.7m-.95 0h-5.2l-.7-.1h-6.2m-.9 2.95l.1 1.6h.7q.9 0 1.4.9l4.4.5 5.8-.5.8-.8 1.95.1v-1.6m-.4-2.9v-.15q.15-9.05-.8-10.25M22.95 3.7v-.05l.9-3q.8-1.05 1.4.15l-.65 3.45.2.35.65 1.25.1.1q.75 2.85.25 5.35l-.55 1.8-.2.2m-2.1-9.6l-2.15-.1h-1.35l-2.1.3v2.3l1.1 1.65 1.8 1.6 2.9-3.2-.2-2.55v.05-.05m2.5 2.15h-.1l-.9.8-2.1 2.1-2 1.55q-.7-.1-2.3-1.75l-3-2.9q-.5 1.3-.6 2.8v1.1l.1.9.05.5.2.5.2.65.05.1.3.5M16.7.55l.65 3.35m-.7-3.4l.05.05M16.65.5q-.8-1-1.45 0l-.05.05-.05.1.35 3.9-.2.5-.2.6m2.6 4.75q-1.3-1.15-2.3-1.05l.1.45.3 1.1q.9 1.4 3 .6l-1.1-1.1m6.1 4.3q-.7-1.1-2.15-1.9l-1.35-.6q-.8.1-2.2 1.2l-1 1.1m5.4-2.6h1.3q1.6-.4 1.1-2.25-1.1.1-2.2 1.15l-.8 1.1h.6M20.8 23.75v-.5m-1.55.3v.1m1.55 2.85v-.1m-.35 4.8V31"/><path fill="none" stroke="#825B36" stroke-width=".05" stroke-linecap="round" stroke-linejoin="round" d="M20.45 31l.25-2.1.1-2.4m-7.35-5.85l1.9-.1q3.1.9 3.9 1.6v1.4m6.2-2.8l.4.1m-5.05 2.4v-1l.6-.5q.55-.4 1.25-.6l2.8-.4m-6.2 2.9l.2 7.45m1.35-4.7v-2.65"/></svg>