<svg xmlns="http://www.w3.org/2000/svg" viewBox="0 0 16.0 16.0" width="16" height="16"><path fill="#fff" d="M14.4 3.1l-.95 1.45q.65.95.85 2.05l1.7.35V9.1l-1.7.35-.85 2.05.95 1.4-1.5 1.55-1.4-.95-2.1.8-.35 1.7H6.9l-.35-1.7q-1.1-.2-2.05-.8l-1.4.95-1.5-1.55.9-1.4q-.6-.95-.8-2.05L0 9.1V6.95l1.7-.3q.2-1.15.8-2.15l-.9-1.4 1.5-1.5 1.4.95q1-.65 2.05-.85L6.9 0h2.15l.3 1.7q1.15.2 2.1.85l1.45-.95 1.5 1.5m-3.35 8Q12.3 9.8 12.3 8t-1.25-3.05Q9.8 3.7 8 3.7q-1.8 0-3.1 1.25Q3.65 6.2 3.65 8q0 1.8 1.25 3.1 1.3 1.25 3.1 1.25t3.05-1.25"/></svg>