<svg xmlns="http://www.w3.org/2000/svg" viewBox="0 0 105.5 99.1" width="105.5" height="99.1"><defs><linearGradient gradientUnits="userSpaceOnUse" x1="-819.2" x2="819.2" gradientTransform="matrix(.003 .005 -.044 .031 33.6 69.55)" id="a"><stop offset="0" stop-color="#FBFBFB"/><stop offset="1" stop-color="#bbb"/></linearGradient><linearGradient gradientUnits="userSpaceOnUse" x1="-819.2" x2="819.2" gradientTransform="matrix(.002 .002 .035 -.032 36.6 67.2)" id="b"><stop offset="0" stop-color="#D0D0D0"/><stop offset="1" stop-color="#A6A6A6"/></linearGradient></defs><path fill="#333" d="M68.3 28.05l-.05-.1 18.5-16.1 4.35-3.9Q92.75-.15 98.05 0q1.65 0 3.45.85l1.55.85q5 8.25-.15 11.3-2.55 1.45-6.1 1.35L75.65 35.6l-.25-.2.25.2-.05.05Q80.4 42 82.4 49.5l-3.8 1.8-2.5-5.6q-2.8-5.65-4.35-5.5l-2.85 2.45-2.6-3.8q-2.75-3.45-4.9-4.7l.15-.2.8-.1.85-.35.75-.5q.25-.2.65-.5l.55-.5L64 30.9l-.8-.75-2.8-2.4q-5.15-4.3-7.1-4.35l1.3-3.9 1.9.85 4.75 2.55q3.75 2.3 7.05 5.15 3.2 2.7 6 5.95l1.1 1.4.15.2.05.05-.05-.05-.15-.2-1.1-1.4q-2.8-3.25-6-5.95"/><path fill="url(#a)" d="M68.9 42.65l1.35 6.65-5.4 5.65-.95 1-2.6 2.6-9.4 9.35Q32.05 87.45 24.2 92.45q-6.7 4.25-16.15 5.9L0 99.1q.4-3.7 1.8-8.3 2.8-9.3 7.45-14.4 4.7-5.15 26.25-25.35l20.65-19.2q2.6 1.35 4.6 2l.65.3q2.15 1.25 4.9 4.7l2.6 3.8m-4.45-1.25q-.25-1.45-1.3-1.95l-.25-.15-.9-.1h-.45l-20.1 18.5L16.9 80.3q-3.65 3.35-7.1 7.75L7.1 91.9q4.85-.4 31.65-24.8l18-16.8 7.8-7.55-.1-1.35"/><path fill="url(#b)" d="M64.45 41.4l.1 1.35-7.8 7.55-18 16.8Q11.95 91.5 7.1 91.9l2.7-3.85q3.45-4.4 7.1-7.75l24.55-22.6 20.1-18.5H62l.9.1.25.15q1.05.5 1.3 1.95"/><path fill="none" stroke="#666" stroke-width=".05" d="M56.15 31.85q2.6 1.35 4.6 2l.8.1.8-.1.85-.35.75-.5q.25-.2.65-.5l.55-.5L64 30.9l-.8-.75-2.8-2.4q-5.15-4.3-7.1-4.35l1.3-3.9 1.9.85 4.75 2.55q3.75 2.3 7.05 5.15m-6.9 6.1q2.15 1.25 4.9 4.7l2.6 3.8m-8.15-8.8l.65.3"/><path fill="none" stroke="#999" stroke-width=".05" d="M70.25 49.3l-5.4 5.65-.95 1-2.6 2.6-9.4 9.35Q32.05 87.45 24.2 92.45q-6.7 4.25-16.15 5.9L0 99.1q.4-3.7 1.8-8.3 2.8-9.3 7.45-14.4 4.7-5.15 26.25-25.35l20.65-19.2"/><path fill="none" stroke="#666" stroke-width=".05" d="M75.65 35.6L96.8 14.35q3.55.1 6.1-1.35 5.15-3.05.15-11.3L101.5.85Q99.7 0 98.05 0q-5.3-.15-6.95 7.95l-4.35 3.9-18.5 16.1.05.1q3.2 2.7 6 5.95l1.1 1.4m.2.25l-.05-.05-.15-.2"/><path fill="none" stroke="#666" stroke-width=".05" stroke-linecap="round" d="M75.4 35.4l.25.2-.05.05Q80.4 42 82.4 49.5l-3.8 1.8-2.5-5.6q-2.8-5.65-4.35-5.5l-2.85 2.45 1.35 6.65"/></svg>