<svg xmlns="http://www.w3.org/2000/svg" viewBox="1.8 -5.5 328.8 197.6" width="328.8" height="197.6"><defs><linearGradient gradientUnits="userSpaceOnUse" x1="-819.2" x2="819.2" gradientTransform="matrix(.201 0 0 .121 166.15 93.3)" id="a"><stop offset="0" stop-color="#477AB4"/><stop offset="1" stop-color="#3C6491"/></linearGradient><linearGradient gradientUnits="userSpaceOnUse" x1="-819.2" x2="819.2" gradientTransform="matrix(.07 .002 0 .008 81.65 80.65)" id="b"><stop offset="0" stop-color="#65381B"/><stop offset="1" stop-color="#7E4723"/></linearGradient><linearGradient gradientUnits="userSpaceOnUse" x1="-819.2" x2="819.2" gradientTransform="matrix(.003 0 0 .001 74.35 84.85)" id="c"><stop offset="0" stop-color="#65381B"/><stop offset="1" stop-color="#7E4723"/></linearGradient><linearGradient gradientUnits="userSpaceOnUse" x1="-819.2" x2="819.2" gradientTransform="matrix(.003 0 0 .001 96.5 85.2)" id="d"><stop offset="0" stop-color="#65381B"/><stop offset="1" stop-color="#7E4723"/></linearGradient><linearGradient gradientUnits="userSpaceOnUse" x1="-819.2" x2="819.2" gradientTransform="matrix(.003 0 0 .001 120.35 85.75)" id="e"><stop offset="0" stop-color="#65381B"/><stop offset="1" stop-color="#7E4723"/></linearGradient><linearGradient gradientUnits="userSpaceOnUse" x1="-819.2" x2="819.2" gradientTransform="matrix(.002 0 0 .001 136.15 75.35)" id="f"><stop offset="0" stop-color="#65381B"/><stop offset="1" stop-color="#7E4723"/></linearGradient><linearGradient gradientUnits="userSpaceOnUse" x1="-819.2" x2="819.2" gradientTransform="matrix(.003 0 0 .001 136.65 74.3)" id="g"><stop offset="0" stop-color="#65381B"/><stop offset="1" stop-color="#7E4723"/></linearGradient><linearGradient gradientUnits="userSpaceOnUse" x1="-819.2" x2="819.2" gradientTransform="matrix(.001 0 0 .001 138.5 75)" id="h"><stop offset="0" stop-color="#65381B"/><stop offset="1" stop-color="#7E4723"/></linearGradient><linearGradient gradientUnits="userSpaceOnUse" x1="-819.2" x2="819.2" gradientTransform="matrix(.002 0 0 .001 108.8 74.7)" id="i"><stop offset="0" stop-color="#65381B"/><stop offset="1" stop-color="#7E4723"/></linearGradient><linearGradient gradientUnits="userSpaceOnUse" x1="-819.2" x2="819.2" gradientTransform="matrix(.003 0 0 .001 109.3 73.55)" id="j"><stop offset="0" stop-color="#65381B"/><stop offset="1" stop-color="#7E4723"/></linearGradient><linearGradient gradientUnits="userSpaceOnUse" x1="-819.2" x2="819.2" gradientTransform="matrix(.001 0 0 .001 111.15 74.3)" id="k"><stop offset="0" stop-color="#65381B"/><stop offset="1" stop-color="#7E4723"/></linearGradient><linearGradient gradientUnits="userSpaceOnUse" x1="-819.2" x2="819.2" gradientTransform="matrix(0 0 -.001 .002 87.7 73.2)" id="l"><stop offset="0" stop-color="#65381B"/><stop offset="1" stop-color="#7E4723"/></linearGradient><linearGradient gradientUnits="userSpaceOnUse" x1="-819.2" x2="819.2" gradientTransform="matrix(.001 0 -.001 .001 89.55 73.95)" id="m"><stop offset="0" stop-color="#65381B"/><stop offset="1" stop-color="#7E4723"/></linearGradient><linearGradient gradientUnits="userSpaceOnUse" x1="-819.2" x2="819.2" gradientTransform="matrix(0 0 -.002 .002 62.65 73.3)" id="n"><stop offset="0" stop-color="#65381B"/><stop offset="1" stop-color="#7E4723"/></linearGradient><linearGradient gradientUnits="userSpaceOnUse" x1="-819.2" x2="819.2" gradientTransform="matrix(.001 .001 -.001 .001 64.3 73.6)" id="o"><stop offset="0" stop-color="#65381B"/><stop offset="1" stop-color="#7E4723"/></linearGradient><linearGradient gradientUnits="userSpaceOnUse" x1="-819.2" x2="819.2" gradientTransform="matrix(.001 .001 -.002 .001 49.45 84.7)" id="p"><stop offset="0" stop-color="#65381B"/><stop offset="1" stop-color="#7E4723"/></linearGradient><linearGradient gradientUnits="userSpaceOnUse" x1="-819.2" x2="819.2" gradientTransform="matrix(.001 .001 -.002 .001 23.9 83.7)" id="q"><stop offset="0" stop-color="#65381B"/><stop offset="1" stop-color="#7E4723"/></linearGradient><linearGradient gradientUnits="userSpaceOnUse" x1="-819.2" x2="819.2" gradientTransform="matrix(0 .001 0 0 21.25 85.75)" id="r"><stop offset="0" stop-color="#65381B"/><stop offset="1" stop-color="#7E4723"/></linearGradient><linearGradient gradientUnits="userSpaceOnUse" x1="-819.2" x2="819.2" gradientTransform="matrix(.001 .001 -.001 .001 41 73.05)" id="s"><stop offset="0" stop-color="#65381B"/><stop offset="1" stop-color="#7E4723"/></linearGradient><linearGradient gradientUnits="userSpaceOnUse" x1="-819.2" x2="819.2" gradientTransform="matrix(.001 .001 -.002 .001 39 72.3)" id="t"><stop offset="0" stop-color="#65381B"/><stop offset="1" stop-color="#7E4723"/></linearGradient></defs><path fill="url(#a)" d="M270.8-4.55q13-2.9 24.4 3.4 1.7 1 2.7 2.5 5.95 9 10.05 19.15 5.05 12.4 9.4 24.95 4.75 13.6 8.15 27.5 3.15 13 4.3 26.4l.6 7.6q1.3 16.9-9.5 29.5l-7.2 9.6q-4.35 5.35-12.2 10.6-3.7 2.5-28.75 7.1-12.25 2.2-24 4.9l-22.95 5-22.3 4.95-43.9 9.8-2.65.65q-13.55 3.95-27.5 2.8-13.8-.7-26.55-5.55-12.7-4.9-24.95-10.6-12.4-5.85-24.75-12.4-12-6.4-23.2-14.45-2.75-2-4.6-4.95-3.05-4.95-6.7-9.35-2.35-2.8-5.7-4-5.7-2.15-9.55-6.7-3.4-4.15.1-7.7 2.75-2.8 6.1-5.3 11.2-8.55 23.5-15.2 12.35-6.75 25.75-9.2 8.25-1.5 15.5-5.2 8.05-4.25 6.55-13.1-.65-3.85-3.25-6.6-4.1-4.3-6.7-9.5-.9-1.75-.85-3.8.2-10.6 8.85-17.45 11.1-8.75 24.45-12.6 11.85-3.3 24.5-4.3l27.95-3 27.9-2.4L211.7 7q13.9-1.35 27.75-4.2l7.05-1.35q11.75-1.8 22.6-5.65l1.7-.35"/><path fill="url(#b)" d="M89.8 75l17.1.4 3.8.05h.9l22.65.5 3.85.15h.85l.55.05-16.4 12.15h-.05l-.4-.05.15-2.9v-.05l-.05.05-3.35-.1-1.35.85-.05 2.05-19.2-.6.15-2.7v-.05l-.05.05-3.35-.1-1.35.8-.05 1.85-17.5-.55.05-2.35-3.35-.1-1.35.8-.05 1.5-20.25-.6.05-1.9v-.05l-.05.05-3.35-.1-1.3.85-.05 1-20.85-.65.05-2.1v-.05.05l-2.35-.05 12.5-9.35.2.05 3.8.1h.9l18.55.4 3.85.1.9.05 20.55.4 3.8.1h.9m-13.1 9.5v-.05.05"/><path fill="url(#c)" d="M76.7 84.5l-.85.9v-.05L72 85.2l1.35-.8 3.35.1"/><path fill="url(#d)" d="M94.2 85.55l1.35-.8 3.35.1-.85.85-.05-.05-3.8-.1"/><path fill="url(#e)" d="M118.05 86.1l1.35-.85 3.35.1-.85.9-.05-.05-3.8-.1"/><path fill="url(#f)" d="M134.25 75.95v-1.3l3.85.15v1.3l-3.85-.15"/><path fill="url(#g)" d="M134.25 74.65l1.4-.85 3.35.1-.9.9-3.85-.15"/><path fill="url(#h)" d="M139 73.9l-.05 2.2h-.85v-1.3l.9-.9"/><path fill="url(#i)" d="M106.9 75.4v-1.5l3.8.1v1.45l-3.8-.05"/><path fill="url(#j)" d="M106.9 73.9l1.4-.85 3.35.1-.9.9-.05-.05-3.8-.1"/><path fill="url(#k)" d="M111.65 73.15l-.05 2.3h-.9v-1.4h.05l.9-.9"/><path fill="url(#l)" d="M85.15 73.45l1.35-.85 3.35.1-.85.95-.05-.05-3.8-.15"/><path fill="url(#m)" d="M89.9 72.7l-.1 2.3h-.9l.05-1.35H89l.85-.95h.05"/><path fill="url(#n)" d="M59.85 73.05l1.4-.8 3.35.1-.85.85-.05-.05-3.85-.1"/><path fill="url(#o)" d="M64.65 72.35l-.1 2.15-.9-.05.05-1.25h.05l.85-.85h.05"/><path fill="url(#p)" d="M47.05 84.95l1.3-.85 3.35.1-.8.95-.05-.05-3.8-.15"/><path fill="url(#q)" d="M21.5 83.95l1.3-.85 1.05.05 2.35.05-.85.9-.05-.05-3.8-.1"/><path fill="url(#r)" d="M21.4 86.35l-.3-.05.05-1.15.3.05-.05 1.15"/><path fill="url(#s)" d="M41.3 71.8l-.05 2.15h-.9l.05-1.2.05-.05.85-.9"/><path fill="url(#t)" d="M41.3 71.8l-.85.9h-.05l-3.8-.1 1.3-.9 3.4.1"/><path fill="#4F2D15" d="M139.5 76.15l-.05 1.05-.55.45-.15 3.1-.85 1.35-3.85-.15v-.75L123 89.45l-.4-.05-.1 2.8-.85 1.3-3.8-.1.1-4.1-19.2-.6-.1 3-.85 1.25-3.8-.1.1-4.3L76.6 88l-.15 3.35-.85 1.3-3.85-.15.15-4.65-20.3-.6-.1 3.8-.9 1.35-3.8-.15.15-5.15-20.85-.65-.15 3.6-.9 1.3-3.8-.1.15-4.9.05-1.15v-.3l.05-.95 3.8.1v.05h.05l.85-.9-.05 2.1 20.85.65.05-1 3.8.15-.05.05h.1l.8-.95h.05l-.05 1.9 20.25.6-.05 1.15.05-1.15.05-1.5 3.85.15v.05l.85-.9-.05 2.35 17.5.55.05-1.85 3.8.1v.05h.05l.85-.85h.05l-.15 2.7 19.2.6.05-2.05 3.8.1v.05h.05l.85-.9h.05l-.15 2.9v.05l.4.05.05-.05 16.4-12.15m-102.95-2.3l.05-1.25 3.8.1v.05l-.05 1.2-3.8-.1m23.25.5l.05-1.3 3.85.1v.05l-.05 1.25-3.85-.1m25.3.55l.05-1.45 3.8.15v.05L88.9 75l-3.8-.1M51.6 87.25l.1-1.15-.1 1.15m24 5.4l.25-7.25-.25 7.25m18.55-5.25l-.05 1.15.05-1.15M76.6 88l.05-1.15L76.6 88M47 85.95l-.05 1.15.05-1.15m3.6 6.45l.2-7.25-.2 7.25m87.3-10.3l.1-3.8.9-.65-.9.65-.1 3.8m-3.85-.9l3.95-2.9-3.95 2.9M118 88.15l-.05 1.15.05-1.15m-19.25.55l.05-1.15-.05 1.15m22.9 4.8l.2-7.25-.2 7.25m1.35-4.05l.05-1.1-.05 1.1m-.4-.05l.05-1.1-.05 1.1m-24.8 3.55l.2-7.25-.2 7.25m-71.7-6.5l.05-1.15-.05 1.15m-1.05 4.9l.25-7.25-.25 7.25"/><path fill="none" stroke="#3C6491" stroke-width=".05" stroke-linecap="round" stroke-linejoin="round" d="M270.8-4.55q13-2.9 24.4 3.4 1.7 1 2.7 2.5 5.95 9 10.05 19.15 5.05 12.4 9.4 24.95 4.75 13.6 8.15 27.5 3.15 13 4.3 26.4l.6 7.6q1.3 16.9-9.5 29.5l-7.2 9.6q-4.35 5.35-12.2 10.6-3.7 2.5-28.75 7.1-12.25 2.2-24 4.9l-22.95 5-22.3 4.95-43.9 9.8-2.65.65q-13.55 3.95-27.5 2.8-13.8-.7-26.55-5.55-12.7-4.9-24.95-10.6-12.4-5.85-24.75-12.4-12-6.4-23.2-14.45-2.75-2-4.6-4.95-3.05-4.95-6.7-9.35-2.35-2.8-5.7-4-5.7-2.15-9.55-6.7-3.4-4.15.1-7.7 2.75-2.8 6.1-5.3 11.2-8.55 23.5-15.2 12.35-6.75 25.75-9.2 8.25-1.5 15.5-5.2 8.05-4.25 6.55-13.1-.65-3.85-3.25-6.6-4.1-4.3-6.7-9.5-.9-1.75-.85-3.8.2-10.6 8.85-17.45 11.1-8.75 24.45-12.6 11.85-3.3 24.5-4.3l27.95-3 27.9-2.4L211.7 7q13.9-1.35 27.75-4.2l7.05-1.35q11.75-1.8 22.6-5.65l1.7-.35"/><path fill="none" stroke="#3E2411" stroke-width=".05" stroke-linecap="round" stroke-linejoin="round" d="M85.15 73.45l1.35-.85 3.35.1h.05l-.1 2.3 17.1.4v-1.5l1.4-.85 3.35.1v-.05.05l-.05 2.3 22.65.5v-1.3l1.4-.85 3.35.1-.05 2.2.55.05-.05 1.05-.55.45-.15 3.1-.85 1.35-3.85-.15v-.75L123 89.45l-.4-.05-.1 2.8-.85 1.3-3.8-.1.1-4.1-19.2-.6-.1 3-.85 1.25-3.8-.1.1-4.3L76.6 88l-.15 3.35-.85 1.3-3.85-.15.15-4.65-20.3-.6-.1 3.8-.9 1.35-3.8-.15.15-5.15-20.85-.65-.15 3.6-.9 1.3-3.8-.1.15-4.9-.3-.05.05-1.15h-.05l.35-.25.05-.95 1.3-.85 1.05.05 12.5-9.35.2.05.05-1.25 1.3-.9 3.4.1v-.05.05l-.05 2.15 18.55.4.05-1.3 1.4-.8 3.35.1.05-.05v.05l-.1 2.15 20.55.4.05-1.45 3.8.15v.05H89l.85-.95M71.9 87.85l.05-1.15-20.25-.6-.1 1.15m20.35-.55l.05-1.5 1.35-.8 3.35.1v-.05.05l-.05 2.35 17.5.55.05-1.85 1.35-.8 3.35.1.05-.05v.05l-.15 2.7 19.2.6.05-2.05 1.35-.85 3.35.1.05-.05v.05l-.15 2.9.4.05v.05l-.05 1.1m.1-1.15l16.4-12.15M76.7 84.5l-.85.9-.25 7.25m.25-7.25v-.05L72 85.2m4.65 1.65L76.6 88m17.5.55l.05-1.15M88.9 75h.9m-.9 0l-3.8-.1m3.85-1.25L88.9 75m-25.15-1.8l.85-.85m-4.75.7l3.85.1v.05h.05m-23.35-.45l.05-.05.85-.9m-.9.9v.05l-.05 1.2h.9M36.6 72.6l3.8.1m-.05 1.25l-3.8-.1M26.2 83.2l-.05 2.1 20.85.65.05-1 1.3-.85 3.35.1.05-.05v.05l-.05 1.9m-4.75 1l.05-1.15m16.65-11.5l-3.85-.1m3.85.1l.05-1.25m.85 1.3l-.9-.05M50.85 85.1l-.05.05h.1m-.05-.05l-3.8-.15m4.65-.75l-.8.95m-.1 0l-.2 7.25m87.5-17.6v.05-.05l.9-.9m-.9.9l-3.85-.15m4.65 3l-.9.65-.1 3.8m.2-6h.85m-.85 0l-3.85-.15M138 78.3l-3.95 2.9m4.05-6.35v1.25m-27.4-2.05h.05l.9-.9m-.95.85v1.45h.9m-4.7-1.55l3.8.1m0 1.45l-3.8-.05M98 85.65v.05h.05m-.05-.05l-3.8-.1m4.7-.7l-.85.85m.75 1.85l-.05 1.15m19.2.6l.05-1.15m4.75-2.8l-.85.9h-.05l-.2 7.25m1-5.2v-.05m.4.1l.05-.05m-.05.05l-.4-.05-.05 1.1m-.75-3.2v.05m-3.8-.15l3.8.1M98 85.7l-.2 7.25M26.2 83.2v-.05.05l-2.35-.05m1.5.95l.85-.9m-.9.85v.05h.05m-4.2 1.05l.3.05v-.3m-.05 1.45l.05-1.15m4.7.1l-.05 1.15m-4.6-2.5l3.8.1m0 .05l-.25 7.25"/></svg>