<svg xmlns="http://www.w3.org/2000/svg" viewBox="0 0 485.3 418.9" width="485.3" height="418.9"><defs><linearGradient gradientUnits="userSpaceOnUse" x1="-819.2" x2="819.2" gradientTransform="matrix(.006 .005 -.027 .031 460.5 22.8)" id="a"><stop offset="0" stop-color="#2B1E11"/><stop offset="1" stop-color="#514D4D"/></linearGradient><linearGradient gradientUnits="userSpaceOnUse" x1="-819.2" x2="819.2" gradientTransform="matrix(-.002 -.002 .002 -.002 434.2 45.3)" id="b"><stop offset="0" stop-color="#f00"/><stop offset="1" stop-color="#6D0101"/></linearGradient><linearGradient gradientUnits="userSpaceOnUse" x1="-819.2" x2="819.2" gradientTransform="matrix(.003 .003 -.011 .012 422.65 54.35)" id="c"><stop offset="0" stop-color="#2B1E11"/><stop offset="1" stop-color="#514D4D"/></linearGradient><linearGradient gradientUnits="userSpaceOnUse" x1="-819.2" x2="819.2" gradientTransform="matrix(-.001 -.003 .004 -.001 435.75 48.8)" id="d"><stop offset="0" stop-color="#f00"/><stop offset="1" stop-color="#6D0101"/></linearGradient><linearGradient gradientUnits="userSpaceOnUse" x1="-819.2" x2="819.2" gradientTransform="matrix(0 -.018 .011 0 441.65 69.5)" id="e"><stop offset="0" stop-color="#f00"/><stop offset="1" stop-color="#6D0101"/></linearGradient><linearGradient gradientUnits="userSpaceOnUse" x1="-819.2" x2="819.2" gradientTransform="matrix(.003 .004 -.26 .207 202 233.1)" id="f"><stop offset="0" stop-color="#2B1E11"/><stop offset="1" stop-color="#514D4D"/></linearGradient><linearGradient gradientUnits="userSpaceOnUse" x1="-819.2" x2="819.2" gradientTransform="matrix(.004 -.012 .01 .003 432.65 82.8)" id="g"><stop offset="0" stop-color="#f00"/><stop offset="1" stop-color="#6D0101"/></linearGradient></defs><path fill="url(#a)" d="M439.55 19.6Q462.65 7.05 485.3 0q-8.05 19.75-23.65 39.25-14.25 17.85-22.55 8.4l-1.25-1.6-.1-.2-.1-.15q-3.65-.6-4.4-2.55V41.3l-.3-.15Q416.7 32 439.55 19.6"/><path fill="url(#b)" d="M429.65 43.05l.3-1.35q.7-1.15 3-.55l.3.15v1.85q.75 1.95 4.4 2.55l.1.15.1.2q.3 2.15-.75 2.2l-1.15-.4-.4.5q-2.45-.55-4.4-3l-1.5-2.3"/><path fill="url(#c)" d="M429.65 43.05l1.5 2.3q1.95 2.45 4.4 3l-2.65 3.15h-.05l-2.65 3.15-10.15 11.85-3.1-.45Q414 65 411.65 61.7l-1.35-2.65-1.2-2.35 20.55-13.65"/><path fill="url(#d)" d="M439.1 47.65q.65 2.1.2 3.2v.05q-.6 1.4-3.55 1.15l-2.85-.55 2.65-3.15.4-.5 1.15.4q1.05-.05.75-2.2l1.25 1.6"/><path fill="url(#e)" d="M439.3 50.9q3.15 8.25 6.1 18.85 5.85 21 4.85 32.65l-.05.2-14.8 8.25-.3-6.9-2.15-50.6v-.1l-.05-.75-.05-1h.05l2.85.55q2.95.25 3.55-1.15"/><path fill="url(#f)" d="M416.95 66.05L149.75 296.5l.05-.05-1.2 1.05L7.75 418.85q-7.1.45-7.7-3.15-.2-1.1.3-2.5l.55-1.15 141.85-122.4.75-.65 2.25-1.95-.05.15L410.3 59.05l1.35 2.65q2.35 3.3 5.3 4.35M145.7 287.2l-2.2 1.8 2.2-1.8m4 9.3h.05-.05l-1.1 1 1.1-1"/><path fill="url(#g)" d="M435.1 103.95l-9.9-5.55 7.75-45.05 2.15 50.6"/><path fill="none" stroke="#333" stroke-width=".05" d="M439.55 19.6Q462.65 7.05 485.3 0q-8.05 19.75-23.65 39.25-14.25 17.85-22.55 8.4m.2 3.2v.05m-6.35 2.35l-.05-.75m-12.85 14l-3.1-.45M149.8 296.45l-1.2 1.05M7.75 418.85q-7.1.45-7.7-3.15-.2-1.1.3-2.5l.55-1.15 141.85-122.4.75-.65m2.25-1.95l-.05.15M409.1 56.7l20.55-13.65m.3-1.35q.7-1.15 3-.55m4.9 4.9l-.1-.2-.1-.15q-3.65-.6-4.4-2.55V41.3m-2.1 4.05q1.95 2.45 4.4 3m-23.9 13.35q2.35 3.3 5.3 4.35M149.7 296.5l-1.1 1"/><path fill="none" stroke="#6D0000" stroke-width=".05" d="M445.4 69.75q5.85 21 4.85 32.65l-.05.2-14.8 8.25-.3-6.9m-9.9-5.55l7.75-45.05m4.15-5.1q1.05-.05.75-2.2m-2.1 6q2.95.25 3.55-1.15"/><path fill="none" stroke="#333" stroke-width=".05" stroke-linecap="round" d="M439.1 47.65q.65 2.1.2 3.2m-6.35 2.5v-.1m-.05-.75l-2.7 2.15-10.15 11.85m-3.1-.45L149.75 296.5l.05-.05m-1.2 1.05L7.75 418.85M143.5 289l2.25-1.95m-.05.15L410.3 59.05l-1.2-2.35m20.55-13.65l.3-1.35m3-.55Q416.7 32 439.55 19.6m-6.3 21.7l-.3-.15m-3.3 1.9l1.5 2.3m6.7.7l1.25 1.6m-6.25 3.85l-2.65 3.15m2.7-3.15h-.05l.05 1m-22.6 6.55l1.35 2.65m23.9-13.35l-2.65 3.15M143.5 289l2.2-1.8m4.05 9.3h-.05"/><path fill="none" stroke="#6D0000" stroke-width=".05" stroke-linecap="round" d="M439.3 50.9q3.15 8.25 6.1 18.85m-10.3 34.2l-9.9-5.55m7.7-46.9l2.85.55m-2.8 1.3l2.15 50.6"/><path fill="none" stroke="#333" stroke-width=".05" stroke-linecap="round" d="M435.55 48.35l.4-.5"/><path fill="none" stroke="#6D0000" stroke-width=".05" d="M435.95 47.85l1.15.4"/></svg>