<svg xmlns="http://www.w3.org/2000/svg" viewBox="0 0 128.2 199.8" width="128.2" height="199.8"><defs><radialGradient gradientUnits="userSpaceOnUse" r="819.2" cx="0" cy="0" spreadMethod="pad" gradientTransform="matrix(.068 -.01 .021 .15 69.65 45.5)" id="a"><stop offset=".051" stop-color="#ADC884"/><stop offset=".192" stop-color="#6D9441"/><stop offset=".58" stop-color="#B4C483"/><stop offset=".831" stop-color="#86A464"/><stop offset=".98" stop-color="#3C6F0A"/></radialGradient><radialGradient gradientUnits="userSpaceOnUse" r="819.2" cx="0" cy="0" spreadMethod="pad" gradientTransform="matrix(.043 .011 -.034 .132 30.65 138.45)" id="b"><stop offset="0" stop-color="#F59AFA"/><stop offset=".208" stop-color="#E2A6E2"/><stop offset=".345" stop-color="#E66DE7"/><stop offset=".565" stop-color="#8E5E99"/><stop offset=".769" stop-color="#BB77A6"/><stop offset="1" stop-color="#FFE8FA"/></radialGradient><radialGradient gradientUnits="userSpaceOnUse" r="819.2" cx="0" cy="0" spreadMethod="pad" gradientTransform="matrix(.046 0 0 .106 60.15 170.95)" id="c"><stop offset="0" stop-color="#F59AFA"/><stop offset=".149" stop-color="#E2A6E2"/><stop offset=".345" stop-color="#E45FE4"/><stop offset=".541" stop-color="#8E5E99"/><stop offset=".784" stop-color="#BB77A6"/><stop offset="1" stop-color="#FFE8FA"/></radialGradient><radialGradient gradientUnits="userSpaceOnUse" r="819.2" cx="0" cy="0" fx="28.8" fy="0" spreadMethod="pad" gradientTransform="matrix(.041 -.007 .014 .089 101.65 154.95)" id="d"><stop offset="0" stop-color="#F59AFA"/><stop offset=".208" stop-color="#DA93DB"/><stop offset=".345" stop-color="#EB8AEC"/><stop offset=".565" stop-color="#8E5E99"/><stop offset=".769" stop-color="#BB77A6"/><stop offset="1" stop-color="#FFE8FA"/></radialGradient></defs><path fill="url(#a)" d="M24.65 81.5h-2.5l.5-4.5 7-9q1-5.5 4.5-11.5l3.5-4.5q2-.5 10-12.5l8-12 5-7 9-10Q74.15 5 75.15 0h17.5q-4 4-6.5 9.5-5.5 12 0 23l12 41.5q.5 2 .5 4l8.5 5.5q1 .5 2 1.5 2.5 3.5 3 9l5.05 19.95-2.05 13.5-7-24.45q-2-6.5-3.5-8l-2.5 11q-3.5 10.95-5.5 12.95l-9.5-18.45-2.5 6.5-1 7.45-1.5-9.45-.5-5.5-9 23.45-7-21.95q-.5 0-1-.5-1.5 0-3.5 1.5 0-6.5 1-18-8.5-5-11.5-16.5-1-3.5-1.5-7V57l-10 14.5-14.5 10m44.5-22q-3.5 10-5 17-1.5 6.5-2 7.5.5-1 2-7.5 1.5-7 5-17 1-4.5 1.5-11 1.5-13 .5-22.5l-9.5 10 2 11q3 11 5.5 12.5"/><path fill="url(#b)" d="M40.15 158.95l-2.5-1.5-4 2q-1-1-.5-5l.5-4.5q-12.5 7-18 2-2-1.5-3-4l-.5-2.5-4.5 2.5q-2.5 2-5 .5l-1.5-1.5q-2-1.5-.5-2h2.5q3.5.5 5.5-7 .5-2 .5-5l.5-2.5q.5-6 3.5-13l3.5-5.45q6.5-8.5 8-20.5v-10l14.5-10 10-14.5v3.5q.5 3.5 1.5 7 3 11.5 11.5 16.5-1 11.5-1 18v.5q0 6.5-1.5 19.45-.5 7-1.5 12.5l-6.5 16q-1.5 3-.5 4.5l1.5 1q2 1 1 1.5-.5.5-1.5.5l-3-.5-1-.5q-2-.5-2.5.5-.5.5 0 1.5 0 1-2 1-1.5 0-3.5-1"/><path fill="url(#c)" d="M40.15 158.95q2 1 3.5 1 2 0 2-1-.5-1 0-1.5.5-1 2.5-.5l1 .5 3 .5q1 0 1.5-.5 1-.5-1-1.5l-1.5-1q-1-1.5.5-4.5l6.5-16q1-5.5 1.5-12.5 1.5-12.95 1.5-19.45v-.5q2-1.5 3.5-1.5.5.5 1 .5l7 21.95 9-23.45.5 5.5-3 31.45 2.5 13v2l1.5 14.5 1 11.5h-.5q-1.5 2.5-2.5 7.5-.5 3-.5 5 2.5 2.5 2 4.5l-1 1.5q-3 1.5-7-1.5l-3.5-3.5q-1 1.5-5.5 5.5-4 4.5-8.5 3l-2.5-2-1-1-5-6q-2 4.5-5.5 5-1 0-2-.5h-.5q-4.5-1.5-2.5-4l2.5-2.5q-5-10.5-3.5-21 .5-3.5 2-6.5l1-2"/><path fill="url(#d)" d="M115.15 127.45q0 1.5 4.05 14.5 2 6.5 4.5 12.5 1 5 1 7.5v1.5q-1 2-.5 11.5 6.5 3 2.5 4.5l-4 1h-2q.5 3-.5 4.5-.5.5-1.5.5-2.5 3-7.55.5l-4.5-2.5q-2.5-2-6-.5l-3 1.5q-1 1-6.5 1l-4.5-.5q-3 1-3-.5v-1.5q.5-1 .5-5.5l-1-11.5-1.5-14.5v-2l2-35 1-7.45 2.5-6.5 9.5 18.45q2-2 5.5-12.95l2.5-11q1.5 1.5 3.5 8l7 24.45"/><path fill="none" stroke="#734B7A" stroke-width=".05" stroke-linecap="round" stroke-linejoin="round" d="M62.15 84q-1 11.5-1 18"/><path fill="none" stroke="#50930D" stroke-width=".05" stroke-linecap="round" stroke-linejoin="round" d="M61.15 102q2-1.5 3.5-1.5.5.5 1 .5m-41-19.5h-2.5l.5-4.5 7-9q1-5.5 4.5-11.5l3.5-4.5q2-.5 10-12.5l8-12 5-7 9-10Q74.15 5 75.15 0h17.5q-4 4-6.5 9.5-5.5 12 0 23l12 41.5q.5 2 .5 4l8.5 5.5q1 .5 2 1.5 2.5 3.5 3 9l5.05 19.95-2.05 13.5M24.65 81.5l14.5-10 10-14.5v3.5q.5 3.5 1.5 7 3 11.5 11.5 16.5.5-1 2-7.5 1.5-7 5-17-2.5-1.5-5.5-12.5l-2-11 9.5-10q1 9.5-.5 22.5-.5 6.5-1.5 11m13 45.5l1.5 9.45 1-7.45 2.5-6.5 9.5 18.45q2-2 5.5-12.95l2.5-11q1.5 1.5 3.5 8l7 24.45"/><path fill="none" stroke="#86578E" stroke-width=".05" stroke-linecap="round" stroke-linejoin="round" d="M115.15 127.45q0 1.5 4.05 14.5 2 6.5 4.5 12.5 1 5 1 7.5v1.5q-1 2-.5 11.5 6.5 3 2.5 4.5l-4 1h-2q.5 3-.5 4.5-.5.5-1.5.5-2.5 3-7.55.5l-4.5-2.5q-2.5-2-6-.5l-3 1.5q-1 1-6.5 1l-4.5-.5q-3 1-3-.5v-1.5q.5-1 .5-5.5l-1-11.5-1.5-14.5v-2l-2.5-13 3-31.45m1.5 72.45q-1.5 2.5-2.5 7.5-.5 3-.5 5 2.5 2.5 2 4.5l-1 1.5q-3 1.5-7-1.5l-3.5-3.5m-16.5 6.5l-1-1m-5-6q-2 4.5-5.5 5-1 0-2-.5h-.5q-4.5-1.5-2.5-4l2.5-2.5q-5-10.5-3.5-21 .5-3.5 2-6.5l1-2-2.5-1.5m-25-9.5l-.5-2.5-4.5 2.5q-2.5 2-5 .5l-1.5-1.5q-2-1.5-.5-2h2.5q3.5.5 5.5-7 .5-2 .5-5l.5-2.5q.5-6 3.5-13l3.5-5.45q6.5-8.5 8-20.5v-10m36.5 21q0 6.5-1.5 19.45-.5 7-1.5 12.5l-6.5 16q-1.5 3-.5 4.5l1.5 1q2 1 1 1.5-.5.5-1.5.5l-3-.5-1-.5q-2-.5-2.5.5-.5.5 0 1.5 0 1-2 1-1.5 0-3.5-1m41.5-59.45l.5 5.5m-.5 44.45l2-35"/><path fill="none" stroke="#E66DE7" stroke-width=".05" stroke-linecap="round" stroke-linejoin="round" d="M37.65 157.45l-4 2q-1-1-.5-5l.5-4.5q-12.5 7-18 2-2-1.5-3-4"/><path fill="none" stroke="#C55EC9" stroke-width=".05" stroke-linecap="round" stroke-linejoin="round" d="M71.15 190.95q-1 1.5-5.5 5.5-4 4.5-8.5 3l-2.5-2m-1-1l-5-6"/><path fill="none" stroke="#81A153" stroke-width=".05" stroke-linecap="round" stroke-linejoin="round" d="M65.65 101l7 21.95 9-23.45"/></svg>