<svg xmlns="http://www.w3.org/2000/svg" viewBox="0 0 39.9 40.0" width="39.9" height="40"><defs><radialGradient gradientUnits="userSpaceOnUse" r="819.2" cx="0" cy="0" spreadMethod="unknown" gradientTransform="matrix(.038 0 0 .038 25.25 10.95)" id="a"><stop offset="0" stop-color="#A8BAC7"/><stop offset="1" stop-color="#4B5C67"/></radialGradient><radialGradient gradientUnits="userSpaceOnUse" r="819.2" cx="0" cy="0" spreadMethod="unknown" gradientTransform="matrix(.017 0 0 .017 20.3 20.65)" id="b"><stop offset="0" stop-color="#BCC6CB"/><stop offset="1" stop-color="#E1E7EA"/></radialGradient></defs><path fill="url(#a)" d="M34.05 5.85l.9 1q3.55 4.05 4.55 9.2.4 1.9.4 3.95v.95q-.25 6.65-4.55 11.7l-1.3 1.45-2.1 1.9Q26.8 40 20 40h-.5l-4.8-.7Q9.75 38 5.85 34.1q-2.6-2.55-4.05-5.65-1-2.05-1.4-4.3l-.05-.3Q0 21.95 0 20q0-2.15.4-4.15.4-2.05 1.25-3.95.9-2.15 2.35-4l1.85-2.05q2.1-2.1 4.55-3.45 2.25-1.25 4.75-1.85l2.15-.4 1.85-.1h.15L20 0l.5.05 1.75.1 2.55.4q2.55.6 4.75 1.85l1.85 1.2 2.65 2.25"/><path fill="url(#b)" d="M32.3 15.65v8.8l-7.05.85-.95 7.05h-8.8q-.6-3.5-.85-7.05l-7.05-.85v-8.8l7.05-.95q.25-3.5.85-7.05h8.8l.95 7.05 7.05.95"/><path fill="none" stroke="#7A8C99" stroke-width=".05" stroke-linecap="round" stroke-linejoin="round" d="M32.3 15.65v8.8l-7.05.85-.95 7.05h-8.8q-.6-3.5-.85-7.05l-7.05-.85v-8.8l7.05-.95q.25-3.5.85-7.05h8.8l.95 7.05 7.05.95"/></svg>