<svg xmlns="http://www.w3.org/2000/svg" viewBox="0 0 40.0 39.6" width="40" height="39.6"><defs><radialGradient gradientUnits="userSpaceOnUse" r="819.2" cx="0" cy="0" spreadMethod="unknown" gradientTransform="matrix(.032 0 0 .032 26.65 13.6)" id="a"><stop offset="0" stop-color="#E2C69C"/><stop offset="1" stop-color="#856536"/></radialGradient><linearGradient gradientUnits="userSpaceOnUse" x1="-819.2" x2="819.2" gradientTransform="matrix(.008 .007 -.017 .018 17.9 19.25)" id="b"><stop offset=".271" stop-color="#fff"/><stop offset=".612" stop-color="#ff9"/><stop offset=".992" stop-color="#ff0"/></linearGradient><radialGradient gradientUnits="userSpaceOnUse" r="819.2" cx="0" cy="0" spreadMethod="pad" gradientTransform="matrix(.02 .005 -.005 .02 31.25 26.25)" id="c"><stop offset=".271" stop-color="#fff"/><stop offset=".612" stop-color="#ff9"/><stop offset=".992" stop-color="#ff0"/></radialGradient><radialGradient gradientUnits="userSpaceOnUse" r="819.2" cx="0" cy="0" fx="2240" fy="0" spreadMethod="pad" gradientTransform="matrix(.022 0 0 .022 9.1 17.75)" id="d"><stop offset=".271" stop-color="#fff"/><stop offset=".612" stop-color="#ff9"/><stop offset=".992" stop-color="#ff0"/></radialGradient></defs><path fill="url(#a)" d="M32.9 10.1q3 3.35 3.8 7.6v.05l.3 3.2v.8q-.25 5.5-3.75 9.65l-1.1 1.25-1.75 1.55q-4.3 3.3-9.95 3.3h-.35l-4-.55q-4.1-1.1-7.3-4.3-2.15-2.15-3.35-4.7-.85-1.8-1.2-3.8-.3-1.55-.3-3.2 0-3.6 1.35-6.65.8-1.8 2-3.35L8.8 9.3q3.35-3.35 7.65-4.4l1.85-.3 1.5-.15h1.1l1.45.1 2.15.35q2.95.7 5.45 2.5l2.2 1.9.75.8"/><path d="M37.45 15.2l1.75.8-.45-.05-1.3-.75"/><path fill-opacity=".212" d="M26 28.7l.9.2 2.8-.55q2.2-.6 3.35-3.15.9-2.05 1-4.2.05-1.25-.7-1.7 1.15-.4 1.75-1.35.3-.5.25-1.15-.2-1.15-1.1-1.75L31.6 12.8q.7-.4.9-1.3l-.1-.7.55.7.05.35q-.15.85-.85 1.3l2.6 2.2q.95.6 1.1 1.75.1.65-.25 1.15-.6 1-1.65 1.35.7.5.65 1.7-.1 2.2-1 4.25-1.1 2.5-3.35 3.15l-2.85.5-.85-.15-.55-.35m-5.4 8.8l-.95.2-1.05.5.5-.5.45-.3q1.75-.7 2.7-2.2 2.4-4.1.9-8.45l.65.6q1.3 4.25-1.05 8.15-.75 1.3-2.15 2m7.15-28.15l.95 1.45h-1.8q-1.15-.75-1.5.1-.05-.75.2-1.55.2-1.1 1.5-.3l.65.3m-.65 6.75l1.7 1.25q-1.15.75-2.95.45-2.45-.55-3.15.7-.45-3.2 3.35-2.5l1.05.1m-3.05 4.75l1.15.45-1.4 1.4q-1.8 1.55-2.25 3.1-.35-2.4 2.4-4.85l.1-.1m-2.75 6.4q.05 1.05.7 2.15l-2.6-1.05-2.9.1-1.2 1.15-.9-.05q.9-2 2.1-2.75 1.35-.85 3.05-.2l1.75.65m-2.9-5.1q-.1-1.55-1.05-3.45l1 .45q.4 1.7.05 3m.2-4.7q-.15-1.45-.7-2.9l.8.75.05 2.2-.15-.05m2.95-3.25q-.3-3.3-2.65-6.2l1.15-.3q1.85 3.1 1.6 6.55l-.1-.05M10.6 17.75l2.5.65-.95.05-1.55-.7m-1.75 12.6l.85.25-.3.05-.55-.3"/><path fill="url(#b)" d="M20.05 7.7l-1-1.45 5.95-1 .9-.05L23.6.05 26.7 0l.05.25q1.1 3.15 4.25 4.1l-1.35.4-.8.4Q27.4 6 28 7.55l.8 1.5-1.05.3-.65-.3q-1.3-.8-1.5.3-.25.8-.2 1.55.3 2.65 3.55 4.75l-1.85.45-1.05-.1q-3.8-.7-3.35 2.5l.05.3q1.45.15 2.6.75l-1.3 1.3-.1.1q-2.75 2.45-2.4 4.85.1.9.6 1.75l-.85-.3-1.75-.65q-1.7-.65-3.05.2-1.2.75-2.1 2.75l.9.05 1-.1-7.2 9.15V37.1l.2-1.95.3-1.15q1.2-5.65 6.4-9l1.05-.75q1-.9 1.35-2.1.35-1.3-.05-3l-.8-2.25 1.05.55.15.05-.05-2.2q-.15-1.25-.65-2.5.55.75 1.4.85l2.1.55.1.05q.25-3.45-1.6-6.55"/><path fill="url(#c)" d="M26 28.7l.55.35.85.15 2.85-.5q2.25-.65 3.35-3.15.9-2.05 1-4.25.05-1.2-.65-1.7 1.05-.35 1.65-1.35.35-.5.25-1.15-.15-1.15-1.1-1.75l-2.6-2.2q.7-.45.85-1.3l-.05-.35v-.4l.95 1.2 3.55 2.9 1.3.75.9.35q-.5-.2-1.05.25l-.7.7q-.7.8-.45 1.8.25 1.05.8 2.05.7 1.1 1.75 1.9-1.1 0-2.05.5l-.65.5q-.4.25-.55.75-.9 1.8-.6 3.7l.2.6q.65 2.35 1.9 4.25-2.1-1.05-4.35-1.6l-.2-.05-2.65-.25q-2.25.1-3.45 2.1-1 1.7-.95 3.15.1 1.55 1.15 2.95l-.65-.4-.05-.05q-1.1-.6-2.55-.95l-2.3-.35q-1.75-.2-3.15.65l.95-.8.55-.2q1.4-.7 2.15-2 2.35-3.9 1.05-8.15l-.15-.3 1.4 1.15.95.5"/><path fill="url(#d)" d="M9.4 30.65l1 .35q-2.25.3-2.35 1.7l.05.55-1.85-1.35q-.5-.25-.05-.8l-.7-.4q-.55-.45-.65-1.1l.45-.25q1.9-1.5.2-3.1l-2.4-2.1-.45-.3.35-.35q1.45-1.4-.3-2.65l-.8-.5-.05-.05-.1-.1-.2-.15L0 18.9q1.7-.05 2.75-.75 1.9-1.15 1.7-4.35l-.15-1.3-.9-2.65L2.15 7.5l-.45-.65L3 8q1.7 1.1 3.65.75L7.9 8.4q.8-.3 1.05-1.25V7.1l.15.1q3.95 2.5 6.85-1.45l.9-1.35.8-1.95.1-.2-.05.2q-.4 2.2.2 4.75l.4 2.05q-1-.55-1.8-.7-3-.65-4.7 3.1l-.7 2.45-.5-1.25q-.35-.55-.9-.65l-.8.1q-.9.4-.8 1.55.2 2.45 2.15 3.75l.1.05.25.1 1.55.7 1.65.3q-3.35.05-3.65 2.95-.2 2.1 1.35 3.5l1.4 1.15q-2.8-.65-5.1.35-1.05 1.6 0 2.7l1.05.95.55.3"/><path fill="none" stroke="#FFFF48" stroke-width=".05" stroke-linecap="round" stroke-linejoin="round" d="M26 28.7l.55.35.85.15 2.85-.5q2.25-.65 3.35-3.15.9-2.05 1-4.25.05-1.2-.65-1.7 1.05-.35 1.65-1.35.35-.5.25-1.15-.15-1.15-1.1-1.75l-2.6-2.2q.7-.45.85-1.3l-.05-.35v-.4l.95 1.2 3.55 2.9m1.3.75l.9.35q-.5-.2-1.05.25l-.7.7q-.7.8-.45 1.8.25 1.05.8 2.05.7 1.1 1.75 1.9-1.1 0-2.05.5l-.65.5q-.4.25-.55.75-.9 1.8-.6 3.7l.2.6q.65 2.35 1.9 4.25-2.1-1.05-4.35-1.6l-.2-.05-2.65-.25q-2.25.1-3.45 2.1-1 1.7-.95 3.15.1 1.55 1.15 2.95l-.65-.4-.05-.05q-1.1-.6-2.55-.95l-2.3-.35q-1.75-.2-3.15.65l.95-.8.55-.2m3.2-10.15l-.15-.3 1.4 1.15.95.5m-5.95-21l-1-1.45 5.95-1 .9-.05L23.6.05 26.7 0l.05.25q1.1 3.15 4.25 4.1l-1.35.4-.8.4Q27.4 6 28 7.55l.8 1.5-1.05.3-.65-.3q-1.3-.8-1.5.3-.25.8-.2 1.55.3 2.65 3.55 4.75l-1.85.45-1.05-.1q-3.8-.7-3.35 2.5l.05.3q1.45.15 2.6.75l-1.3 1.3-.1.1q-2.75 2.45-2.4 4.85.1.9.6 1.75l-.85-.3-1.75-.65q-1.7-.65-3.05.2-1.2.75-2.1 2.75l.9.05 1-.1-7.2 9.15V37.1l.2-1.95.3-1.15q1.2-5.65 6.4-9l1.05-.75q1-.9 1.35-2.1.35-1.3-.05-3l-.8-2.25 1.05.55.15.05-.05-2.2q-.15-1.25-.65-2.5.55.75 1.4.85l2.1.55m-1.5-6.5q1.85 3.1 1.6 6.55l-.1-.05m17.2 1.75l-1.3-.75M23.8 27.35q1.3 4.25-1.05 8.15-.75 1.3-2.15 2"/></svg>