<svg xmlns="http://www.w3.org/2000/svg" viewBox="0 0 58.9 27.7" width="58.9" height="27.7"><defs><linearGradient gradientUnits="userSpaceOnUse" x1="-819.2" x2="819.2" gradientTransform="matrix(.011 .019 -.027 .016 28.35 25.45)" id="a"><stop offset="0" stop-color="#765A30"/><stop offset="1" stop-color="#B3773C"/></linearGradient><linearGradient gradientUnits="userSpaceOnUse" x1="-819.2" x2="819.2" gradientTransform="matrix(0 -.003 .016 0 29.65 14.1)" id="b"><stop offset="0" stop-color="#999"/><stop offset="1" stop-color="#666"/></linearGradient><linearGradient gradientUnits="userSpaceOnUse" x1="-819.2" x2="819.2" gradientTransform="matrix(0 -.003 .005 0 39.3 17.2)" id="c"><stop offset="0" stop-color="#999"/><stop offset="1" stop-color="#666"/></linearGradient><linearGradient gradientUnits="userSpaceOnUse" x1="-819.2" x2="819.2" gradientTransform="matrix(0 -.01 .019 0 30.25 14.65)" id="d"><stop offset="0" stop-color="#999"/><stop offset="1" stop-color="#666"/></linearGradient></defs><path fill="#ccc" d="M40.95 2.05l-.1 1.15h-.65l.1-1.2.65.05m1.35 1.3h.05l-.05.55h-1.5l-.05.75-.2 1.5h-.65l.05-.15.1-1.35-.05-.8-1.4-.1.1-.55 1.4.05 2.2.1m-29.8.6l.05-.8h-.35l-1.2-.1.05-.85 3.6.2-.05.85h-.7l-1.35-.1.65.05-.05 1.45-.1 1.65-.65.05.1-2.4m.1-1.75l.05-1.7.65.05-.1 1.7-.6-.05m5.05 1.9l-.2-1.3-1.65.15-.1-.6 3.95-.4.05.6-1.55.2.2 1.35.1 1-.7.05-.1-1.05m-.3-2L17.2.9l.7-.1.05.45v.05l.1.75-.7.05m5.6.65L21.7 2.3l.3-.7 1.25.4 1.95.65-.3.75-1.3-.4-.4 1.2-.4 1.05-.55-.2.3-.8.4-1.45v-.05M24.5.6l-.6 1.55-.55-.2L23.9.4l.6.2m4.1 3.75L28.65 3l-1.5-.1.05-.55 1.5.05 2.25.05H31l-.05.6h-1.5l-.1 1.3-.1.95h-.7l.05-.95m.95-3.15l-.05 1.15h-.75l.1-1.2.7.05m4.3 1.45l-1.3-.15.1-.75 1.3.1 2 .1-.05.8-1.4-.05-.2 1.8-.15 1.3h-.6l.05-.2.15-1.05.2-1.9h-.1m.95-2.5l-.2 1.65-.55-.05.15-1.6h.6m6 3.75l-.8-.05.8.05m-6.85-1.25l.55.05-.55-.05m-5.3.35l.8.05-.8-.05M23.6 3l-.65-.2.65.2m-6.15-.2l.7-.05-.7.05"/><path fill="url(#a)" d="M40.75 4.65l2.35.05 15.8 22.4-58.9.6L5.75 3.8l6.75.15-.1 2.4.65-.05.1-1.65.05-.7 4.45.15.1 1.05.7-.05-.1-1 4.05.15-.15.8.55.2.4-1.05 5.4.15-.05.95h.7l.1-.95 4.3.2-.05 1.05-.05.2h.6l.15-1.3 5.65.15V6l-.05.15h.65l.2-1.5m-26.25 18l31.5-.1-8.3-15.4-23.05-.5-.15 16"/><path fill="url(#b)" d="M21.4 9.7v.3-.3m2.45.5l-.25-.15.25.15m.1.6l-3.25.15 3.25-.15m1.9-.55l-.05.15.05-.1v-.05m4.35 2.05l-7.85-.1-.25 6.5 7.65.05.45-6.45m5.3 6.45h-4l.6-7.85-.6 7.85h4l7.6 2.55-26.55.05-.05-2.65-.3-11.2 20.25.4-.95 10.85m-14.8-7.8l-.25 7.75H16.5h3.95l.25-7.75m10.05-.9l-.5.1.5-.1m.45.95l-6.5-.2 6.5.2"/><path d="M30.2 12.3l-.45 6.45-7.65-.05.25-6.5 7.85.1"/><path fill="url(#c)" d="M35.5 18.75l.95-10.85 6.65 13.4-7.6-2.55"/><path fill="url(#d)" d="M36.45 7.9L16.2 7.5l.3 11.2.05 2.65 26.55-.05-6.65-13.4M14.5 22.65l.15-16 23.05.5 8.3 15.4-31.5.1"/><path fill="none" stroke="#000" stroke-width=".05" stroke-miterlimit="10" d="M20.7 10.95l3.25-.15m-.35-.75l.25.15M21.4 10v-.3m4.45.55v.05l-.05.1.05-.15m4.35 2.05l-.45 6.45-7.65-.05.25-6.5 7.85.1m-5.5-1.5l6.5.2m-.95-.85l.5-.1"/><path fill="none" stroke="#765A30" stroke-width=".05" stroke-miterlimit="10" d="M40.85 3.2l1.45.15M11.05 2.2h1.55m.05-1.7V.35m.65 0v.2m-.1 1.7l1.45.15m-.75.85l-.7-.05v.75l4.45.15M15.7 2.35l1.65-.25M17.2.9V.75l.7-.05.05.55m.1.8l1.6-.1m-1.3 2.15l4.05.15.55-1.5M22 1.6l1.25.35.65-1.7.55.2.05.15m-.6 1.55l1.3.5m-2 1.55l5.4.15m-1.4-2h1.5L28.8 1l.7.05.05.15m-.05 1.15l1.45.1m-1.6 1.9l4.3.2.2-1.9m-1.2-.9h1.3l.2-1.75h.55l.1.15m-.2 1.65l1.35.15M40.3 2l-.05-.1m-6.3-.05v-.1m.2-1.75l.05.15m-.45 4.4h-.1L33.6 5.6M28.8 1l.05.15M28.7 2.4v-.05M23.9.4V.25M23.25 2v-.05m-.85 2.3h.15m-.3.8l.15-.8M17.9.7v.1m-4.75 3.85l.05-.7"/><path fill="none" stroke="#666" stroke-width=".05" stroke-miterlimit="10" d="M40.95 2.05l-.1 1.15m-28.35.75l.05-.8h-.35l-1.2-.1.05-.85m1.55 0l.05-1.7.65.05-.1 1.7m-.55-1.9h.65m1.35 2.05l-.05.85h-.7m3.75.85l-.2-1.3-1.65.15-.1-.6 3.95-.4.05.6-1.55.2.2 1.35m-1-2L17.2.9m.75.35v.05l.1.75-.7.05m5.6.65L21.7 2.3l.3-.7m2.5-1l-.6 1.55m1.3.5l-.3.75-1.3-.4-.4 1.2m5.4.15L28.65 3l-1.5-.1.05-.55 1.5.05 2.25.05H31l-.05.6h-1.5l-.1 1.3m.2-3.15l-.05 1.15m4.35.3l-1.3-.15.1-.75 1.3.1 2 .1-.05.8-1.4-.05-.2 1.8m.5-4.35l-.2 1.65m5.6 1.4l.1-1.2M34.8.15h-.6l-.15 1.6.55.05m-.1.9l-.55-.05-.2 1.9-.15 1.05-.05.2h.6l.15-1.3m-5.45-3.35l.7.05m-.1 1.85l-.8-.05m.2-1.85l-.1 1.2h.75m-.9 2l-.05.95h.7l.1-.95M24.5.6l-.6-.2-.55 1.55.55.2m-.95.6v.05l.65.2m1.6-.35L23.25 2 22 1.6m.95 1.2l-.4 1.45-.3.8m.55.2l.4-1.05m8.9 6.7l-.6 7.85h4l7.6 2.55-26.55.05m-.05-2.65h3.95l.25-7.75M17.9.8l.05.45M17.9.8l-.7.1m.45 3.2l.1 1.05.7-.05-.1-1m-.2-1.35l-.7.05m-4.3 1.85l.05-1.45-.65-.05m.05-.95l.6.05m1.45.15l-3.6-.2m2 4.1l.1-1.65m-.65-.7l-.1 2.4m2.1 16.3l31.5-.1-8.3-15.4-23.05-.5-.15 16M40.2 3.2h.65m.1-1.15L40.3 2m-.2 1.25l2.2.1"/><path fill="none" stroke="#4B4B4B" stroke-width=".05" stroke-miterlimit="10" d="M36.45 7.9L16.2 7.5l.3 11.2m.05 2.65l-.05-2.65m26.6 2.6L36.45 7.9"/><path fill="none" stroke="#4D4D4D" stroke-width=".05" stroke-miterlimit="10" d="M35.5 18.75l.95-10.85"/><path fill="none" stroke="#666" stroke-width=".05" stroke-linecap="round" stroke-linejoin="round" d="M22.25 5.05l.55.2m-10.4 1.1l.65-.05"/><path fill="none" stroke="#765A30" stroke-width=".05" stroke-linecap="round" stroke-miterlimit="10" d="M38.7 3.2h1.4m-.05 1.45h-.1V6M40.1 3.2l.15-1.3h.65l.05.15m-.2 2.6l2.35.05 15.8 22.4-58.9.6L5.75 3.8l6.75.15m27.6-.75h.1"/><path fill="none" stroke="#666" stroke-width=".05" stroke-miterlimit="10" d="M42.3 3.35h.05l-.05.55h-1.5l-.05.75"/><path fill="none" stroke="#765A30" stroke-width=".05" stroke-miterlimit="10" d="M34.3 4.5l5.65.15.05-.8m.1-.6V3.2"/><path fill="none" stroke="#666" stroke-width=".05" stroke-linecap="round" stroke-miterlimit="10" d="M40 3.85l-1.4-.1.1-.55M39.95 6l-.05.15h.65l.2-1.5M39.95 6l.1-1.35-.05-.8.8.05M38.7 3.2l1.4.05"/></svg>