<svg xmlns="http://www.w3.org/2000/svg" viewBox="0 0 36.8 40.0" width="36.8" height="40"><defs><linearGradient gradientUnits="userSpaceOnUse" x1="-819.2" x2="819.2" spreadMethod="unknown" gradientTransform="matrix(.021 0 0 .014 17.85 11.7)" id="a"><stop offset="0" stop-color="#666"/><stop offset=".565" stop-color="#ccc"/><stop offset="1" stop-color="#999"/></linearGradient><radialGradient gradientUnits="userSpaceOnUse" r="819.2" cx="0" cy="0" spreadMethod="unknown" gradientTransform="matrix(.036 0 0 .036 26.9 13.2)" id="b"><stop offset="0" stop-color="#B65A5A"/><stop offset="1" stop-color="#6B3030"/></radialGradient><radialGradient gradientUnits="userSpaceOnUse" r="819.2" cx="0" cy="0" spreadMethod="pad" gradientTransform="matrix(.03 0 0 .031 18.5 4.6)" id="c"><stop offset="0" stop-color="#ff9"/><stop offset=".537" stop-color="#f90"/><stop offset=".867" stop-color="#f30"/></radialGradient><radialGradient gradientUnits="userSpaceOnUse" r="819.2" cx="0" cy="0" spreadMethod="pad" gradientTransform="matrix(.023 .013 -.011 .019 25.45 10.15)" id="d"><stop offset="0" stop-color="#ff9"/><stop offset=".537" stop-color="#f90"/><stop offset=".867" stop-color="#f30"/></radialGradient><radialGradient gradientUnits="userSpaceOnUse" r="819.2" cx="0" cy="0" spreadMethod="pad" gradientTransform="matrix(-.017 -.013 .013 -.018 9 34.45)" id="e"><stop offset="0" stop-color="#ff9"/><stop offset=".537" stop-color="#f90"/><stop offset=".867" stop-color="#f30"/></radialGradient><radialGradient gradientUnits="userSpaceOnUse" r="819.2" cx="0" cy="0" spreadMethod="pad" gradientTransform="matrix(.007 -.02 .021 .007 4.15 18)" id="f"><stop offset="0" stop-color="#ff9"/><stop offset=".537" stop-color="#f90"/><stop offset=".867" stop-color="#f30"/></radialGradient><radialGradient gradientUnits="userSpaceOnUse" r="819.2" cx="0" cy="0" spreadMethod="pad" gradientTransform="matrix(.011 .018 -.019 .012 31 18.25)" id="g"><stop offset="0" stop-color="#ff9"/><stop offset=".537" stop-color="#f90"/><stop offset=".867" stop-color="#f30"/></radialGradient><radialGradient gradientUnits="userSpaceOnUse" r="819.2" cx="0" cy="0" spreadMethod="pad" gradientTransform="matrix(-.007 .015 -.016 -.008 26.1 27.05)" id="h"><stop offset="0" stop-color="#ff9"/><stop offset=".537" stop-color="#f90"/><stop offset=".867" stop-color="#f30"/></radialGradient><radialGradient gradientUnits="userSpaceOnUse" r="819.2" cx="0" cy="0" spreadMethod="pad" gradientTransform="matrix(.004 .006 -.007 .005 21.2 20.05)" id="i"><stop offset="0" stop-color="#ff9"/><stop offset=".537" stop-color="#f90"/><stop offset=".867" stop-color="#f30"/></radialGradient></defs><path fill="url(#a)" d="M1.35 22.55v.35l-.05-.4.05.05"/><path fill="url(#b)" d="M1.35 22.55q0-3.75 1.4-6.8.75-1.85 2-3.45l1.5-1.7q3.45-3.4 7.8-4.45l1.9-.35 1.5-.15h1.15l1.45.1 2.15.4q3.05.7 5.55 2.55L30 10.6l.8.85q3 3.45 3.8 7.8l.3 3.35v.8q-.2 5.6-3.75 9.9L30 34.55l-1.8 1.55q-4.35 3.4-10.05 3.4h-.4l-4.05-.55q-4.15-1.15-7.45-4.4-2.15-2.2-3.35-4.8-.9-1.85-1.25-3.9l-.3-2.95v-.35"/><path fill="url(#c)" d="M1.25 22.5L.9 19.9q-.1-1.1.3-2.35l.55-2.05.25-2.25q.05-1.55.4-2.85l.3-2.35.65.7 1 .3q.6 0 1.3-1.6.55-1.4.85-4-.1 1.95.65 2.65l.95.5q.85 0 2.4-5.5.15 3.1.55 3.65l.45 1.35q.1-1.4.85-1.5l1.55-.5q.8-.65 1.05-1.45.15-.45-.5-2.65l1.5 2.5q.6 1.1.6 2.05l1.3-2.05.2 1.85.2-.05L20 3.2q.65 1.65 1.05 1.65.5 0 .95-1.75l.55-2.2.9 1.85q.75 1.45 1.3 1.8l.3-.8q-.05-.15.3-.15.5.4 1.05 1.55l.15.15q1.3-1.05 1.25-1.75L27.4 2q0-.7.3-1.45 2.2 4.5 2.75 6.95-.1-.5.5-.95l.7-.85q-.05 1.75.4 3.2l.85 2.95v.1l.35-.9.15-.85 1.2 8.9q-.85-4.25-3.8-7.65l-.8-.85-2.25-1.9Q25.2 6.85 22.2 6.15L20 5.8l-1.4-.1H17.45l-1.5.1-1.9.35q-4.4 1-7.8 4.45l-1.5 1.75q-1.3 1.6-2.05 3.4-1.4 3.15-1.4 6.8l-.05-.05"/><path fill="url(#d)" d="M5.85 13.85l.65-1.8q.3-.75 1.1-1.35l1.1-1.05 1-1.3q.6-.95 1.3-1.6l1.15-1.35.2.75.7.55q.45.3 1.5-.35l2.1-2.2q-.7 1.2-.4 2l.5.7q.65.35 3.85-2.4-1 2.05-.9 2.55l-.1 1.05q.55-.85 1.15-.6l1.4.35q.8-.05 1.3-.45L24 5.5l.25 2.25q.1.9-.2 1.5l1.7-.65-.5 1.2.2.05 1.7.05q-.05 1.35.25 1.55.4.2 1.3-.7l1.25-1.2v1.65q.1 1.2.4 1.65l.45-.4.3.05.35 1.45.05.15q1.35-.1 1.55-.5l.25-1.2.7-.75q.15 3.75-.3 5.55.05-.35.7-.4l.85-.25q-.7 1.15-.85 2.25l-.35 2.2-.05.05.55-.35.4-.5-2.2 6.1q.9-3-.2-6.45l-.3-.9-1.1-2.2q-1.3-2.25-3.4-4.05l-1.5-1.15-1.05-.7-.35-.2-.5-.3-1.25-.55-1.6-.65q-3.7-1.25-7.55-.6l-1.8.45q-1.55.45-2.75 1.25-2.2 1.35-3.5 3.65l-.05-.05"/><path fill="url(#e)" d="M26.15 31.25l-.95 1.65-1.15 1.2-1.15.95-1.15 1.25-1.4 1.45-1.25 1.2-.05-.7-.4-.55q-.3-.25-1.4.4l-2.2 1.9q.85-1.05.8-1.8l-.3-.65q-.45-.35-3.75 2.15l1.35-2.3q0-.5.35-1-.7.8-1.15.55l-1.1-.35q-.7.05-1.15.4-.3.2-.9 1.75l.3-2.05q.1-.95.5-1.45l-1.55.65.65-1.15h-.15l-1.4-.15q.35-1.2.15-1.4-.3-.2-1.3.65L5.15 34.9l.3-1.5.05-1.5-.5.3-.25-.05q-.1-.4.1-1.3v-.15q-1.15.05-1.45.5l-.45 1.05-.8.7q.7-3.5 1.5-5.1l-.65.3q-.55 0-.8.25l1.2-2 .75-2.1.05-.1-.6.4-.4.4 3.2-5.6q-1.4 2.8-1.25 6l.05.8.45 2.05q.6 2.1 1.95 3.75l1.05 1.1.75.7.25.15.35.3.9.55 1.15.55q2.9 1.25 6.2.65l1.6-.35q1.4-.35 2.6-1.1 2.15-1.25 3.7-3.35v.05"/><path fill="url(#f)" d="M12.65 33.35l-1.85-.4q-.8-.15-1.6-.75l-1.25-.8q-.45-.3-1.5-.65l-1.85-.9q-.8-.5-1.55-.8l.6-.2.4-.6q.15-.4-.75-1.2-.8-.7-2.55-1.45l2 .15.5-.5Q3.4 24.7 0 22.4l2.6.45 1.05.05q-.95-.4-.85-.85V20.9L2 19.85.1 19.6l2-.45 1.55.1-1.1-1.35 1.3.35v-.2L3.5 16.7q1.25-.1 1.35-.35.1-.3-1-1l-1.4-.85 1.5-.15 1.5-.45-.5-.4-.05-.25 1.3-.35q0-.1.1-.05-.4-1.1-.85-1.2l-1.15-.1-1-.55 5.4-.2q-.35-.05-.55-.5l-.45-.7 2.25.45 2.25.15h.05l-.55-.45-.5-.3 6.3 1.25q-3.1-.4-6.05.75l-.75.35q-.95.45-1.75 1-1.85 1.3-3 3.1l-.7 1.35-.35.95-.1.25-.15.45-.3 1-.15 1.35q-.25 3.05 1.4 6.1l.85 1.4q.8 1.2 1.85 2.05 1.85 1.7 4.35 2.5v.05"/><path fill="url(#g)" d="M13.8 14.95l1.45-1.2q.7-.45 1.55-.75l1.45-.4q.55-.15 1.5-.7.95-.6 1.85-.9l1.6-.7-.25.65.2.7 1.45.15q1.05-.2 2.75-1-1.25.65-1.4 1.4v.7q.35.5 4.3-.7-1.85 1.3-2.05 1.75l-.7.8 1.25-.1.9.7 1.2.05q.35-.05 1.5-1.3-.9 1.4-1.05 1.85l-.95 1.15 1.65-.05-1 .8.1.15q.25.1 1.3.55-.75 1.05-.6 1.3l1.35-.1 1.55-.55-.8 1.25q-.6.95-.6 1.45l.55-.15.25.1-.6 1.2.05.15 1.5.1.75-.85 1-.4q-1.9 3-3.25 4.3l.75-.1.8.1Q34 27 33.3 27.8l-1.5 1.65-.05.05.65-.15.55-.25L28 33.15q2.3-2.1 3.25-5.1l.3-.75.3-2.1q.2-2.2-.45-4.2l-.55-1.45-.45-.85-.2-.25-.2-.4h-.05l-.6-.85-.9-.95Q26.25 14 22.9 13.4l-1.65-.25-2.75.1Q16 13.6 13.8 15v-.05"/><path fill="url(#h)" d="M20.85 13.75l1.4.5 1.2.75.9.8 1.15.7q.8.4 1.35.95l1.2.75-.5.15-.4.45q-.15.3.5 1.05.6.65 1.9 1.45-1-.5-1.55-.35l-.5.3q-.2.45 2.35 2.65-1.7-.7-2.05-.65l-.85-.1q.75.4.6.8-.2.6-.1.9l.5.85q.2.25 1.5.5l-1.65.05-1.2-.15.75 1.15-1-.35-.05.1.15 1.2-1.1.05q-.15.25.7.9l1.05.85h-1.25l-1.2.2.35.35-.05.2-1.05.15-.1.05q.25.9.65 1.05l.85.2.7.5-4.25-.35q.25.05.35.45l.3.6q-.9-.5-1.8-.6l-1.75-.35h-.05l.45.35.35.35-4.95-1.7q2.45.65 4.9 0l.65-.15 1.55-.6q1.55-.85 2.65-2.25l.75-.95.35-.7.1-.2.2-.35.3-.85.25-1q.5-2.5-.5-5.05l-.55-1.2-1.25-1.9q-1.3-1.55-3.25-2.45l.05-.05"/><path fill="url(#i)" d="M14.8 19.1l.55-.45q.2-.2.55-.3l.5-.2.55-.3.65-.3.6-.3-.05.25.05.25h.5l1.05-.4q-.45.3-.5.55v.3l1.55-.35-.7.65-.25.3.5-.05.3.25h.45l.55-.5-.35.65-.35.45.6-.05-.35.35.05.05.5.15-.2.5.45-.1.6-.15q-.2.25-.25.45l-.25.5.25-.05.05.05-.15.45v.05l.5.05.3-.35.4-.15-1.15 1.6.25-.05.3.05-.65.5-.5.65.25-.05.15-.1-1.75 1.6 1.15-1.95.05-.3.1-.75L21.4 21l-.2-.5-.2-.3-.1-.1-.1-.1-.2-.35-.35-.35q-.85-.75-2.1-.95h-.6l-1.05.05q-.9.15-1.7.7"/><path fill="none" stroke="#FF8400" stroke-width=".05" stroke-linecap="round" stroke-linejoin="round" d="M1.25 22.5L.9 19.9q-.1-1.1.3-2.35l.55-2.05.25-2.25q.05-1.55.4-2.85l.3-2.35.65.7 1 .3q.6 0 1.3-1.6.55-1.4.85-4-.1 1.95.65 2.65l.95.5q.85 0 2.4-5.5.15 3.1.55 3.65l.45 1.35q.1-1.4.85-1.5l1.55-.5q.8-.65 1.05-1.45.15-.45-.5-2.65l1.5 2.5q.6 1.1.6 2.05l1.3-2.05.2 1.85.2-.05L20 3.2q.65 1.65 1.05 1.65.5 0 .95-1.75l.55-2.2.9 1.85q.75 1.45 1.3 1.8l.3-.8q-.05-.15.3-.15.5.4 1.05 1.55l.15.15q1.3-1.05 1.25-1.75L27.4 2q0-.7.3-1.45 2.2 4.5 2.75 6.95-.1-.5.5-.95l.7-.85q-.05 1.75.4 3.2l.85 2.95v.1l.35-.9.15-.85 1.2 8.9M1.25 22.5l.1.95M5.85 13.85l.65-1.8q.3-.75 1.1-1.35l1.1-1.05 1-1.3q.6-.95 1.3-1.6l1.15-1.35.2.75.7.55q.45.3 1.5-.35l2.1-2.2q-.7 1.2-.4 2l.5.7q.65.35 3.85-2.4-1 2.05-.9 2.55l-.1 1.05q.55-.85 1.15-.6l1.4.35q.8-.05 1.3-.45L24 5.5l.25 2.25q.1.9-.2 1.5l1.7-.65-.5 1.2.2.05 1.7.05q-.05 1.35.25 1.55.4.2 1.3-.7l1.25-1.2v1.65q.1 1.2.4 1.65l.45-.4.3.05.35 1.45.05.15q1.35-.1 1.55-.5l.25-1.2.7-.75q.15 3.75-.3 5.55.05-.35.7-.4l.85-.25q-.7 1.15-.85 2.25l-.35 2.2-.05.05.55-.35.4-.5-2.2 6.1M5.85 13.85l-.25.6M26.15 31.25l-.95 1.65-1.15 1.2-1.15.95-1.15 1.25-1.4 1.45-1.25 1.2-.05-.7-.4-.55q-.3-.25-1.4.4l-2.2 1.9q.85-1.05.8-1.8l-.3-.65q-.45-.35-3.75 2.15l1.35-2.3q0-.5.35-1-.7.8-1.15.55l-1.1-.35q-.7.05-1.15.4-.3.2-.9 1.75l.3-2.05q.1-.95.5-1.45l-1.55.65.65-1.15h-.15l-1.4-.15q.35-1.2.15-1.4-.3-.2-1.3.65L5.15 34.9l.3-1.5.05-1.5-.5.3-.25-.05q-.1-.4.1-1.3v-.15q-1.15.05-1.45.5l-.45 1.05-.8.7q.7-3.5 1.5-5.1l-.65.3q-.55 0-.8.25l1.2-2 .75-2.1.05-.1-.6.4-.4.4 3.2-5.6m19.75 11.85l.35-.6M12.65 33.35l-1.85-.4q-.8-.15-1.6-.75l-1.25-.8q-.45-.3-1.5-.65l-1.85-.9q-.8-.5-1.55-.8l.6-.2.4-.6q.15-.4-.75-1.2-.8-.7-2.55-1.45l2 .15.5-.5Q3.4 24.7 0 22.4l2.6.45 1.05.05q-.95-.4-.85-.85V20.9L2 19.85.1 19.6l2-.45 1.55.1-1.1-1.35 1.3.35v-.2L3.5 16.7q1.25-.1 1.35-.35.1-.3-1-1l-1.4-.85 1.5-.15 1.5-.45-.5-.4-.05-.25 1.3-.35q0-.1.1-.05-.4-1.1-.85-1.2l-1.15-.1-1-.55 5.4-.2q-.35-.05-.55-.5l-.45-.7 2.25.45 2.25.15h.05l-.55-.45-.5-.3 6.3 1.25m-4.85 22.65l.6.1M13.8 14.95l1.45-1.2q.7-.45 1.55-.75l1.45-.4q.55-.15 1.5-.7.95-.6 1.85-.9l1.6-.7-.25.65.2.7 1.45.15q1.05-.2 2.75-1-1.25.65-1.4 1.4v.7q.35.5 4.3-.7-1.85 1.3-2.05 1.75l-.7.8 1.25-.1.9.7 1.2.05q.35-.05 1.5-1.3-.9 1.4-1.05 1.85l-.95 1.15 1.65-.05-1 .8.1.15q.25.1 1.3.55-.75 1.05-.6 1.3l1.35-.1 1.55-.55-.8 1.25q-.6.95-.6 1.45l.55-.15.25.1-.6 1.2.05.15 1.5.1.75-.85 1-.4q-1.9 3-3.25 4.3l.75-.1.8.1Q34 27 33.3 27.8l-1.5 1.65-.05.05.65-.15.55-.25L28 33.15m-14.2-18.2l-.5.4M20.85 13.75l1.4.5 1.2.75.9.8 1.15.7q.8.4 1.35.95l1.2.75-.5.15-.4.45q-.15.3.5 1.05.6.65 1.9 1.45-1-.5-1.55-.35l-.5.3q-.2.45 2.35 2.65-1.7-.7-2.05-.65l-.85-.1q.75.4.6.8-.2.6-.1.9l.5.85q.2.25 1.5.5l-1.65.05-1.2-.15.75 1.15-1-.35-.05.1.15 1.2-1.1.05q-.15.25.7.9l1.05.85h-1.25l-1.2.2.35.35-.05.2-1.05.15-.1.05q.25.9.65 1.05l.85.2.7.5-4.25-.35q.25.05.35.45l.3.6q-.9-.5-1.8-.6l-1.75-.35h-.05l.45.35.35.35-4.95-1.7m6.2-17.7l-.55-.2M14.8 19.1l.55-.45q.2-.2.55-.3l.5-.2.55-.3.65-.3.6-.3-.05.25.05.25h.5l1.05-.4q-.45.3-.5.55v.3l1.55-.35-.7.65-.25.3.5-.05.3.25h.45l.55-.5-.35.65-.35.45.6-.05-.35.35.05.05.5.15-.2.5.45-.1.6-.15q-.2.25-.25.45l-.25.5.25-.05.05.05-.15.45v.05l.5.05.3-.35.4-.15-1.15 1.6.25-.05.3.05-.65.5-.5.65.25-.05.15-.1-1.75 1.6M14.8 19.1l-.2.1"/></svg>