<svg xmlns="http://www.w3.org/2000/svg" viewBox="0 0 12.0 11.3" width="12" height="11.3"><defs><radialGradient gradientUnits="userSpaceOnUse" r="819.2" cx="0" cy="0" spreadMethod="pad" gradientTransform="matrix(.005 0 0 .005 8 4.2)" id="a"><stop offset=".49" stop-color="#FFF100"/><stop offset=".604" stop-color="#FFD302"/></radialGradient><radialGradient gradientUnits="userSpaceOnUse" r="819.2" cx="0" cy="0" spreadMethod="pad" gradientTransform="matrix(.005 0 0 .005 7 7.3)" id="b"><stop offset=".49" stop-color="#FFF100"/><stop offset=".604" stop-color="#FFD302"/></radialGradient><radialGradient gradientUnits="userSpaceOnUse" r="819.2" cx="0" cy="0" spreadMethod="pad" gradientTransform="matrix(.005 0 0 .005 4 4)" id="c"><stop offset=".49" stop-color="#FFF100"/><stop offset=".604" stop-color="#FFD302"/></radialGradient></defs><path fill="url(#a)" d="M6.2.65Q7 .2 8 .2q1.65 0 2.85 1.2Q12 2.55 12 4.2q0 1.6-1 2.7-.15-1.35-1.2-2.4Q9 3.7 8 3.45q-.2-1.3-1.15-2.25L6.2.65"/><path fill="url(#b)" d="M8 3.45Q9 3.7 9.8 4.5q1.05 1.05 1.2 2.4v.4q0 1.65-1.2 2.85Q8.65 11.3 7 11.3t-2.85-1.15Q3.2 9.15 3 7.9v-.6q0-1.6 1.15-2.8Q5.35 3.3 7 3.3l1 .15"/><path fill="url(#c)" d="M8 3.45L7 3.3q-1.65 0-2.85 1.2Q3 5.7 3 7.3v.6q-1-.3-1.8-1.1Q0 5.65 0 4t1.2-2.8Q2.4 0 4 0q1.25 0 2.2.65l.65.55Q7.8 2.15 8 3.45"/><path fill="none" stroke="#E57422" stroke-width=".75" stroke-linecap="round" stroke-linejoin="round" d="M11 6.9q1-1.1 1-2.7 0-1.65-1.15-2.8Q9.65.2 8 .2q-1 0-1.8.45l.65.55Q7.8 2.15 8 3.45 9 3.7 9.8 4.5q1.05 1.05 1.2 2.4v.4q0 1.65-1.2 2.85Q8.65 11.3 7 11.3t-2.85-1.15Q3.2 9.15 3 7.9q-1-.3-1.8-1.1Q0 5.65 0 4t1.2-2.8Q2.4 0 4 0q1.25 0 2.2.65M3 7.9v-.6q0-1.6 1.15-2.8Q5.35 3.3 7 3.3l1 .15"/></svg>