<svg xmlns="http://www.w3.org/2000/svg" viewBox="-16.2 124.8 195.0 193.2" width="195" height="193.2" preserveAspectRatio="xMinYMin"><defs><linearGradient gradientUnits="userSpaceOnUse" x1="-819.2" x2="819.2" gradientTransform="matrix(.013 .013 -.089 .089 108.9 201.45)" id="a"><stop offset="0" stop-color="#eee"/><stop offset="1" stop-color="#666"/></linearGradient><linearGradient gradientUnits="userSpaceOnUse" x1="-819.2" x2="819.2" gradientTransform="matrix(-.012 -.012 .089 -.089 103.15 196.4)" id="b"><stop offset="0" stop-color="#ccc"/><stop offset="1" stop-color="#666"/></linearGradient></defs><path fill="url(#a)" d="M25.7 262.25q17.55-15.75 19.7-18.35L64.9 225q20.4-20.1 25.3-26.3 10.45-11.7 26.8-26.8 32.55-30.2 61.8-47.15L32.35 269.85l-.3-.2-6.85-6.95.5-.45"/><path fill="#666" d="M25.7 262.25l-.5.45 6.85 6.95.3.2q6.75 6.6 8.15 7.15v.05h.05l6.55 6.65q-1.7 1.95-5.3 5.1l-6.85-6-3.6-3.35-2.25 2.8-2.6-5.25-1.9-4.2-.1-.25q-2-4.6-2.1-5.75l-1.6 1.85-7.1-7.7 2.95-2.95 2-2.05 7.05 6.3m-7.05-6.3q4.75 6.6 17.05 17.85l8 7.1 3.4 2.8-3.4-2.8-8-7.1q-12.3-11.25-17.05-17.85m12.7 23.5l-6.85-6.9 6.85 6.9M4.85 303.9l-.8-.25q-.95-.5-1.95-1.2-2.9-2.2-4.3-5.85l5.8-6.25q2.95 3.05 9.85 6.65l-8.6 6.9m-9.5-5q.9 3.05 4.1 5.7.95.8 2.15 1.45l.9.55-7.5 10h-.05l-1.65-.4q-2-.55-3.65-1.5-5.15-3.2-4.4-9.25l10.05-6.5.05-.05"/><path fill="url(#b)" d="M32.35 269.85l146.45-145.1q-17.15 29.1-47.15 61.2-15.05 16.1-26.6 26.35-6.25 4.8-26.45 25.15l-19 19.35Q56.95 259 40.55 277h-.05q-1.4-.55-8.15-7.15"/><path fill="#333" d="M-2.2 296.6q1.4 3.65 4.3 5.85 1 .7 1.95 1.2l.8.25q-.05 1.35-1.2 2.15l-1.15.55-.9-.55q-1.2-.65-2.15-1.45-3.2-2.65-4.1-5.7v-.05l.4-1q.7-1.05 2.05-1.25m-12.55 8.85q-.75 6.05 4.4 9.25 1.65.95 3.65 1.5l1.65.4-.95 1.35-1.75-.35q-2.1-.6-3.75-1.6-5.3-3.2-4.65-9.55l1.4-1"/><path fill="none" stroke="#ccc" stroke-width=".05" stroke-linecap="round" stroke-miterlimit="3" d="M178.8 124.75Q149.55 141.7 117 171.9q-16.35 15.1-26.8 26.8-4.9 6.2-25.3 26.3l-19.5 18.9q-2.15 2.6-19.7 18.35l-.5.45m153.6-137.95q-17.15 29.1-47.15 61.2-15.05 16.1-26.6 26.35-6.25 4.8-26.45 25.15l-19 19.35Q56.95 259 40.55 277h-.05l.05.05m-.05-.05v.05h.05"/><path fill="none" stroke="#333" stroke-width=".05" stroke-linecap="round" stroke-miterlimit="3" d="M40.55 277.05l6.55 6.65q-1.7 1.95-5.3 5.1l-6.85-6-3.6-3.35-2.25 2.8m-3.9-19.55l6.85 6.95.3.2q6.75 6.6 8.15 7.15m-19.7-8.35l-7.1-7.7 2.95-2.95 2-2.05 7.05 6.3m-1.2 10.3l6.85 6.9m15.75 4.25l-3.4-2.8-8-7.1q-12.3-11.25-17.05-17.85M4.85 303.9l8.6-6.9m-9.85-6.65l-5.8 6.25m-2.5 2.35l-10.05 6.5m9.7 11.15H-5l7.5-10"/><path fill="none" stroke="#999" stroke-width=".05" stroke-linecap="round" stroke-miterlimit="3" d="M2.5 306.6l1.15-.55q1.15-.8 1.2-2.15m-7.05-7.3q-1.35.2-2.05 1.25l-.4 1v.05m0-.05l-.05.1m-10.05 6.5l-1.4 1q-.65 6.35 4.65 9.55 1.65 1 3.75 1.6l1.75.35.95-1.35"/></svg>