<svg xmlns="http://www.w3.org/2000/svg" viewBox="-27.6 135.4 244.3 194.3" width="244.3" height="194.3" preserveAspectRatio="xMinYMin"><defs><linearGradient gradientUnits="userSpaceOnUse" x1="-819.2" x2="819.2" gradientTransform="matrix(.005 .004 .01 -.012 174.5 149)" id="a"><stop offset="0" stop-color="#2B1E11"/><stop offset="1" stop-color="#A37243"/></linearGradient><linearGradient gradientUnits="userSpaceOnUse" x1="-819.2" x2="819.2" gradientTransform="matrix(.021 .021 .04 -.039 178.4 201.5)" id="b"><stop offset="0" stop-color="#555"/><stop offset="1" stop-color="#bbb"/></linearGradient><linearGradient gradientUnits="userSpaceOnUse" x1="-819.2" x2="819.2" gradientTransform="matrix(-.002 -.002 -.036 .028 156 165.95)" id="c"><stop offset="0" stop-color="#555"/><stop offset="1" stop-color="#bbb"/></linearGradient><linearGradient gradientUnits="userSpaceOnUse" x1="-819.2" x2="819.2" gradientTransform="matrix(-.012 -.012 -.026 .025 128.35 157.05)" id="d"><stop offset="0" stop-color="#555"/><stop offset="1" stop-color="#bbb"/></linearGradient><linearGradient gradientUnits="userSpaceOnUse" x1="-819.2" x2="819.2" gradientTransform="matrix(.005 .006 .086 -.069 63.05 251.5)" id="e"><stop offset="0" stop-color="#2B1E11"/><stop offset="1" stop-color="#A37243"/></linearGradient><linearGradient gradientUnits="userSpaceOnUse" x1="-819.2" x2="819.2" gradientTransform="matrix(-.004 -.003 -.01 .014 -12.65 318.35)" id="f"><stop offset="0" stop-color="#555"/><stop offset="1" stop-color="#bbb"/></linearGradient></defs><path fill="url(#a)" d="M159.75 152.85l14.85-16.95q4-1.95 8.55 4.25 1.5 2 2.75 4.5l1 2.35q-.05.45-17.35 13.9l-.25-.15-5.05-3.6q-3.9-2.9-4.5-4.3"/><path fill="url(#b)" d="M169.3 160.75l.25.15q8.85 6.55 22.85 4.95 7.05-.8 12.3-2.9l.8.65q4.8 27.7-3.5 44.4-6.85 13.8-22.25 19.55-11.1 4.1-25.3 3.7l-8.7-.6-3.35-.55q17.75-21.3 8.05-33.75-3-3.9-8.4-6.45l-4.8-1.8 32.05-27.35"/><path fill="url(#c)" d="M169.3 160.75l-32.05 27.35-6.25 6.3q-.9-5.05-3.8-7.35-1.4-1.15-2.6-1.3l.4-.4 7.8-7.5 26.05-26 .9 1.05v-.05q.6 1.4 4.5 4.3l5.05 3.6"/><path fill="#ddd" d="M205.5 163.6q2.4 1.8 5.6 1 1.95-.5 3.35-1.5 6.2 32.5-4.7 52.45-8.7 15.9-27.9 23.1-13.65 5.2-31.25 5.45l-10.65-.35-4.1-.4q6-2.25 6.95-7.75.5-2.95-.4-5.5l3.35.55 8.7.6q14.2.4 25.3-3.7Q195.15 221.8 202 208q8.3-16.7 3.5-44.4m-109.35 2.35l-1.2.15-5.6.9q11.55-20.25 39.85-26.4 14.15-3.1 26.1-2.15-.95 1.5-1.1 3.3-10.55-.25-23.1 2.6-25.1 5.7-34.95 21.6"/><path fill="url(#d)" d="M96.15 165.95q9.85-15.9 34.95-21.6 12.55-2.85 23.1-2.6v.3q-.1 3.45 2.7 7.5l1.95 2.3-26.05 26q-5.4-11.6-24.95-12.4l-11.7.5"/><path fill="url(#e)" d="M131 194.4L30.9 285.3l-1.8-3.05-2.6-5.25-.5-1.15 98.6-90.1q1.2.15 2.6 1.3 2.9 2.3 3.8 7.35M7.05 293.2q2.6 1.8 6.4 3.8l1.05.55 1.9.95L.75 312.7l-.6-.05q-2.5-.45-4.55-1.5-4.65-2.25-1.95-5.7l13.4-12.25"/><path fill="url(#f)" d="M-6.35 305.45q-2.7 3.45 1.95 5.7 2.05 1.05 4.55 1.5l-1.55 3.1q-4 1.9-5.55 3.55l-2.85 4.8q-2.65 3.8-7.1 5.3-4.55 1.5-8.1-3.4-1.75-2.45-2.6-5.2l5.6-4.95 8.3-7.05q2.2-1.8 2.25-3.05 0-.65-.45-.95l5.55.65"/><path fill="none" stroke="#666" stroke-width=".05" stroke-miterlimit="1" d="M145.75 230.65l-3.35-.55q17.75-21.3 8.05-33.75-3-3.9-8.4-6.45l-4.8-1.8-6.25 6.3m-6.4-8.65h-.05l.45-.4 7.8-7.5q-5.4-11.6-24.95-12.4l-11.7.5-1.2.15m59.25-24.35v.3q-.1 3.45 2.7 7.5l1.95 2.3.9 1.05v-.05M125 185.35l-.4.4"/><path fill="none" stroke="#ccc" stroke-width=".05" stroke-miterlimit="1" d="M94.95 166.1l-5.6.9q11.55-20.25 39.85-26.4 14.15-3.1 26.1-2.15-.95 1.5-1.1 3.3"/><path fill="none" stroke="#22180D" stroke-width=".05" stroke-linecap="round" stroke-linejoin="round" d="M131 194.4L30.9 285.3m-4.9-9.45l98.6-90.1q1.2.15 2.6 1.3 2.9 2.3 3.8 7.35M7.05 293.2l-13.4 12.25q-2.7 3.45 1.95 5.7 2.05 1.05 4.55 1.5l.6.05 15.65-14.2"/><path fill="none" stroke="#333" stroke-width=".05" stroke-miterlimit="1" d="M.15 312.65l-1.55 3.1q-4 1.9-5.55 3.55l-2.85 4.8q-2.65 3.8-7.1 5.3-4.55 1.5-8.1-3.4-1.75-2.45-2.6-5.2l5.6-4.95 8.3-7.05q2.2-1.8 2.25-3.05 0-.65-.45-.95l5.55.65"/><path fill="none" stroke="#2B1E11" stroke-width=".05" stroke-linecap="round" stroke-miterlimit="1" d="M169.55 160.9q17.3-13.45 17.35-13.9l-1-2.35q-1.25-2.5-2.75-4.5-4.55-6.2-8.55-4.25l-14.85 16.95"/><path fill="none" stroke="#666" stroke-width=".05" stroke-miterlimit="1" d="M159.75 152.85q.6 1.4 4.5 4.3l5.05 3.6.25.15"/><path fill="none" stroke="#666" stroke-width=".05" stroke-linecap="round" stroke-miterlimit="1" d="M169.55 160.9q8.85 6.55 22.85 4.95 7.05-.8 12.3-2.9l.8.65M205.5 163.6l-.3-1.85"/><path fill="none" stroke="#ccc" stroke-width=".05" stroke-miterlimit="1" d="M142.4 230.1q.9 2.55.4 5.5-.95 5.5-6.95 7.75l4.1.4 10.65.35q17.6-.25 31.25-5.45 19.2-7.2 27.9-23.1 10.9-19.95 4.7-52.45-1.4 1-3.35 1.5-3.2.8-5.6-1"/></svg>