<svg xmlns="http://www.w3.org/2000/svg" viewBox="-59.9 262.9 105.5 99.1" width="105.5" height="99.1" preserveAspectRatio="xMinYMin"><defs><linearGradient gradientUnits="userSpaceOnUse" x1="-819.2" x2="819.2" gradientTransform="matrix(.003 .005 -.044 .031 -26.25 332.45)" id="a"><stop offset="0" stop-color="#FBFBFB"/><stop offset="1" stop-color="#bbb"/></linearGradient><linearGradient gradientUnits="userSpaceOnUse" x1="-819.2" x2="819.2" gradientTransform="matrix(.002 .002 .035 -.032 -23.25 330.1)" id="b"><stop offset="0" stop-color="#D0D0D0"/><stop offset="1" stop-color="#A6A6A6"/></linearGradient></defs><path fill="#333" d="M25.9 275.65l1-.9 4.35-3.9q1.65-8.1 6.95-7.95 1.65 0 3.45.85l1.55.85q5 8.25-.15 11.3-2.55 1.45-6.1 1.35l-6.8 6.85-1.05-1.85-2.6-5.25-.6-1.35M3.95 287.5l-1.45 1.6 1.1 1.25q2.95 3.05 9.85 6.65l1.05.55.8.4.25.35.15.2.05.05-.05-.05-.15-.2-.25-.35.7.35-.2.2-.05.05q4.8 6.35 6.8 13.85l-3.8 1.8-2.5-5.6q-2.8-5.65-4.35-5.5l-2.85 2.45-2.6-3.8q-2.75-3.45-4.9-4.7l.15-.2.8-.1.85-.35.75-.5.65-.5.55-.5-1.15-1.1-.8-.75-2.8-2.4q-5.15-4.3-7.1-4.35l1.3-3.9q.7.25 1.9.85 2.35 1.1 4.75 2.55l2.55 1.7m11.85 11l-.25-.2.25.2"/><path fill="url(#a)" d="M1.55 297.05q2.15 1.25 4.9 4.7l2.6 3.8 1.35 6.65-5.4 5.65-.95 1-2.6 2.6-9.4 9.35q-19.85 19.55-27.7 24.55-6.7 4.25-16.15 5.9l-8.05.75q.4-3.7 1.8-8.3 2.8-9.3 7.45-14.4 4.7-5.15 26.25-25.35l20.65-19.2q2.6 1.35 4.6 2l.65.3m1.75 5.3l-.25-.15-.9-.1H1.7l-20.1 18.5-24.55 22.6q-3.65 3.35-7.1 7.75l-2.7 3.85q4.85-.4 31.65-24.8l18-16.8 7.8-7.55-.1-1.35q-.25-1.45-1.3-1.95"/><path fill="url(#b)" d="M3.3 302.35q1.05.5 1.3 1.95l.1 1.35-7.8 7.55-18 16.8q-26.8 24.4-31.65 24.8l2.7-3.85q3.45-4.4 7.1-7.75l24.55-22.6 20.1-18.5h.45l.9.1.25.15"/><path fill="none" stroke="#666" stroke-width=".05" d="M30.15 284.1l6.8-6.85q3.55.1 6.1-1.35 5.15-3.05.15-11.3l-1.55-.85q-1.8-.85-3.45-.85-5.3-.15-6.95 7.95l-4.35 3.9-1 .9M3.95 287.5l-2.55-1.7q-2.4-1.45-4.75-2.55-1.2-.6-1.9-.85l-1.3 3.9q1.95.05 7.1 4.35l2.8 2.4.8.75 1.15 1.1-.55.5-.65.5-.75.5-.85.35-.8.1-.8-.1.65.3q2.15 1.25 4.9 4.7l2.6 3.8 2.85-2.45q1.55-.15 4.35 5.5l2.5 5.6 3.8-1.8q-2-7.5-6.8-13.85l-.05-.05-.15-.2-.25-.35m.7.35l-.2.2-.05.05m-.2-.25l.25.2m-5.4 13.7l-1.35-6.65m-8.15-8.8q-2-.65-4.6-2"/><path fill="none" stroke="#999" stroke-width=".05" d="M-3.7 294.75l-20.65 19.2q-21.55 20.2-26.25 25.35-4.65 5.1-7.45 14.4-1.4 4.6-1.8 8.3l8.05-.75q9.45-1.65 16.15-5.9 7.85-5 27.7-24.55l9.4-9.35 2.6-2.6.95-1 5.4-5.65"/></svg>