<svg xmlns="http://www.w3.org/2000/svg" viewBox="-72.5 57 346.9 306.9" width="346.9" height="306.9" preserveAspectRatio="xMinYMin"><defs><radialGradient gradientUnits="userSpaceOnUse" r="819.2" cx="0" cy="0" spreadMethod="pad" gradientTransform="matrix(.03 -.002 .002 .031 249.35 84.35)" id="a"><stop offset=".714" stop-color="#684B31"/><stop offset="1" stop-color="#D1AF47"/></radialGradient><linearGradient gradientUnits="userSpaceOnUse" x1="-819.2" x2="819.2" gradientTransform="matrix(.001 .002 -.193 .156 86.45 234.05)" id="b"><stop offset="0" stop-color="#684B31"/><stop offset="1" stop-color="#D1AF47"/></linearGradient><linearGradient gradientUnits="userSpaceOnUse" x1="-819.2" x2="819.2" gradientTransform="matrix(-.017 .016 -.02 -.023 251.15 82.2)" id="c"><stop offset="0" stop-color="#684B31"/><stop offset="1" stop-color="#D1AF47"/></linearGradient></defs><path fill="url(#a)" d="M243.7 102l-1.5.75 1.15-.85q.55-.3 3.15-1.15 2.95-.95 6-1.55 8.3-1.7 11.25-7.5 1.5-2.85 1.35-5.4-1.65-9.3-5.95-13.5-2.15-2.15-4.95-2.95-2.65-.9-5.65-.55l-2.5.6q-4.7.65-7.45 6.2-3.2 6.25-6.3 7.55-4.4 1.8-6.5-1.4l-1.35-3.7q12-24.55 28.3-21.2 2.3.45 4.45 1.25 5.35 2.3 9.55 6.9 15.1 21.75.25 35.95-8.8 8.45-22.6 12l-.45.1 1.25-12.35-1.5.8"/><path fill="url(#b)" d="M243.7 102l1.5-.8-1.25 12.35.05.2L31.25 285.8l-2.15-3.55-2.6-5.2 3.05-2.5 209.3-169.1.85-1.35 4-2.1M15.85 298.25l-80.65 65.1q-7.65 1.65-7.75-2.8 0-1.4.7-3.2l.75-1.55 77.7-62.7.1-.05.05-.05q2.7 1.9 6.7 4l1.05.55 1.35.7"/><path fill="url(#c)" d="M243.95 113.55l.45-.1-.4.3-.05-.2"/><path fill="none" stroke="#513A26" stroke-width=".05" d="M244.4 113.45q13.8-3.55 22.6-12 14.85-14.2-.25-35.95-4.2-4.6-9.55-6.9-2.15-.8-4.45-1.25-16.3-3.35-28.3 21.2l1.35 3.7q2.1 3.2 6.5 1.4 3.1-1.3 6.3-7.55 2.75-5.55 7.45-6.2l2.5-.6q3-.35 5.65.55 2.8.8 4.95 2.95 4.3 4.2 5.95 13.5.15 2.55-1.35 5.4-2.95 5.8-11.25 7.5-3.05.6-6 1.55-2.6.85-3.15 1.15l-1.15.85 1.5-.75 1.5-.8m-.8 12.25l-.4.3L31.25 285.8m-4.75-8.75l3.05-2.5 209.3-169.1.85-1.35 4-2.1m.3 11.75l-.05-.2M6.75 293l-.05.05-.1.05-77.7 62.7-.75 1.55q-.7 1.8-.7 3.2.1 4.45 7.75 2.8l80.65-65.1"/></svg>