<svg xmlns="http://www.w3.org/2000/svg" viewBox="-25.4 27.3 310.1 305.9" width="310.1" height="305.9" preserveAspectRatio="xMinYMin"><defs><linearGradient gradientUnits="userSpaceOnUse" x1="-819.2" x2="819.2" gradientTransform="matrix(.004 .004 -.144 .144 170.3 143.1)" id="a"><stop offset="0" stop-color="#555"/><stop offset="1" stop-color="#bbb"/></linearGradient><linearGradient gradientUnits="userSpaceOnUse" x1="-819.2" x2="819.2" gradientTransform="matrix(.004 -.004 .046 .046 116.2 337.3)" id="b"><stop offset="0" stop-color="#2B2B2B"/><stop offset="1" stop-color="#5E5E5E"/></linearGradient><linearGradient gradientUnits="userSpaceOnUse" x1="-819.2" x2="819.2" gradientTransform="matrix(-.007 .007 -.011 -.011 -3 310.25)" id="c"><stop offset="0" stop-color="#555"/><stop offset="1" stop-color="#bbb"/></linearGradient></defs><path fill="url(#a)" d="M41.6 246.7q-.8-2.45-1.1-5.15-.55-5.45 2.1-6.55 7.4-2.9 18.85-9.2 16.4-9 20.5-14.95 4.8-6.85 8.85-14.75 4.1-7.85 4.45-10.9.1-1.2 1.25-1l3.45.75q6.7.55 15.2-7.6l77.55-77q67.75-67.15 71.45-69.05 4-2.05 11.55-3.2l8.35-.75q1.4.1-.3 7.4-1.7 7.3-3.95 10.75l-4.75 6.75-2.45 3.25-143.85 138.3q-1.9 1.9-3.55 4.25-4.9 7.2-3 14.2-2.8-.35-7.85 1.5-10.15 3.75-21.55 14.85-10.5 10.2-14.5 20.3l-2.8 7.5q-1.8 4.2-4.55 7.6l-.75.45-2.1.8q-3.65.75-7.95-1.6.4-1.5 1.15-3.4-6.3 3.7-11.6 1.05-2.55-1.3-4.8-2.8-.15-3 1.2-8.5l.8-3.45.6-1.35-.8-.05q-1.4.25-5.1 1.55"/><path fill="url(#b)" d="M41.6 246.7q3.7-1.3 5.1-1.55l.8.05-.6 1.35-.8 3.45q-1.35 5.5-1.2 8.5 2.25 1.5 4.8 2.8 5.3 2.65 11.6-1.05-.75 1.9-1.15 3.4-1.6 5.85-.2 10.2 3.6 11.35 10.05 13.9 6.6 2.65 10.1 2.2 1.6-.15 3.35-1.55.6-.45 1.5 1.95.95 2.6.6 5.2-1.1 7.75-13.1 7.55L40 280.75l-.35-.35L27 267.75l-23.1-36.5q.1-2 1.7-4.05 3.15-4.15 10.5-4.55l.6 9.7 1.9 3q2.35 3.6 4.9 6.35 8.1 8.9 14.65 6.35l3.45-1.35"/><path fill="url(#c)" d="M39.55 280.45L35 282.5l-3.75 3.25-2.15-3.5-2.6-5.25-1.9-4.2-.65-1.6 3.05-3.45 12.65 12.65-.1.05M5.15 292l.15-.1-.15.1.15-.1q2.95 2.4 8.15 5.1l1.05.55 2.85 1.4-1.8 1.75-15.8 15.15-.65 3.8q-.9 4.65-2.85 7.9-6.05 10.25-18.85 1.7-2.95-4.95-2.8-10.15.2-10.5 15.5-11.95L5.15 292"/><path fill="none" stroke="#666" stroke-width=".05" d="M41.6 246.7q-.8-2.45-1.1-5.15-.55-5.45 2.1-6.55 7.4-2.9 18.85-9.2 16.4-9 20.5-14.95 4.8-6.85 8.85-14.75 4.1-7.85 4.45-10.9.1-1.2 1.25-1l3.45.75q6.7.55 15.2-7.6l77.55-77q67.75-67.15 71.45-69.05 4-2.05 11.55-3.2l8.35-.75q1.4.1-.3 7.4-1.7 7.3-3.95 10.75l-4.75 6.75-2.45 3.25-143.85 138.3q-1.9 1.9-3.55 4.25-4.9 7.2-3 14.2-2.8-.35-7.85 1.5-10.15 3.75-21.55 14.85-10.5 10.2-14.5 20.3l-2.8 7.5q-1.8 4.2-4.55 7.6l-.75.45-2.1.8q-3.65.75-7.95-1.6-1.6 5.85-.2 10.2 3.6 11.35 10.05 13.9 6.6 2.65 10.1 2.2 1.6-.15 3.35-1.55.6-.45 1.5 1.95.95 2.6.6 5.2-1.1 7.75-13.1 7.55L40 280.75l-.45-.3L35 282.5l-3.75 3.25m-7.3-14.55l3.05-3.45-23.1-36.5q.1-2 1.7-4.05 3.15-4.15 10.5-4.55l.6 9.7 1.9 3q2.35 3.6 4.9 6.35 8.1 8.9 14.65 6.35l3.45-1.35q3.7-1.3 5.1-1.55l.8.05-.6 1.35-.8 3.45q-1.35 5.5-1.2 8.5 2.25 1.5 4.8 2.8 5.3 2.65 11.6-1.05-.75 1.9-1.15 3.4M5.3 291.9l-.15.1.15-.1m12.05 7.05l-1.8 1.75-15.8 15.15-.65 3.8q-.9 4.65-2.85 7.9-6.05 10.25-18.85 1.7-2.95-4.95-2.8-10.15.2-10.5 15.5-11.95L5.15 292m34.5-11.6L27 267.75m12.65 12.65l.35.35"/></svg>