<svg xmlns="http://www.w3.org/2000/svg" viewBox="-37 100.8 231.8 242.5" width="231.8" height="242.5" preserveAspectRatio="xMinYMin"><defs><linearGradient gradientUnits="userSpaceOnUse" x1="-819.2" x2="819.2" gradientTransform="matrix(.008 .008 -.008 .009 165.15 118.9)" id="a"><stop offset="0" stop-color="#2B1E11"/><stop offset="1" stop-color="#A37243"/></linearGradient><linearGradient gradientUnits="userSpaceOnUse" x1="-819.2" x2="819.2" gradientTransform="matrix(-.006 -.002 .001 -.002 166.9 123.5)" id="b"><stop offset="0" stop-color="#CDA987"/><stop offset="1" stop-color="#A37243"/></linearGradient><linearGradient gradientUnits="userSpaceOnUse" x1="-819.2" x2="819.2" gradientTransform="matrix(.006 .004 -.003 .004 163.95 122.3)" id="c"><stop offset="0" stop-color="#CDA987"/><stop offset="1" stop-color="#A37243"/></linearGradient><linearGradient gradientUnits="userSpaceOnUse" x1="-819.2" x2="819.2" gradientTransform="matrix(-.011 .006 -.002 -.004 140.15 149.05)" id="d"><stop offset="0" stop-color="#CDA987"/><stop offset="1" stop-color="#A37243"/></linearGradient><linearGradient gradientUnits="userSpaceOnUse" x1="-819.2" x2="819.2" gradientTransform="matrix(.009 -.014 .043 .028 144.7 142.4)" id="e"><stop offset="0" stop-color="#2B1E11"/><stop offset="1" stop-color="#A37243"/></linearGradient><linearGradient gradientUnits="userSpaceOnUse" x1="-819.2" x2="819.2" gradientTransform="matrix(-.005 -.01 .022 -.011 178.6 160.55)" id="f"><stop offset="0" stop-color="#2B1E11"/><stop offset="1" stop-color="#A37243"/></linearGradient><linearGradient gradientUnits="userSpaceOnUse" x1="-819.2" x2="819.2" gradientTransform="matrix(.001 .001 -.003 .004 188.9 151.15)" id="g"><stop offset="0" stop-color="#2B1E11"/><stop offset="1" stop-color="#A37243"/></linearGradient><linearGradient gradientUnits="userSpaceOnUse" x1="-819.2" x2="819.2" gradientTransform="matrix(.001 .001 -.002 .003 188.45 158.4)" id="h"><stop offset="0" stop-color="#2B1E11"/><stop offset="1" stop-color="#A37243"/></linearGradient><linearGradient gradientUnits="userSpaceOnUse" x1="-819.2" x2="819.2" gradientTransform="matrix(.002 .001 -.003 .005 180.45 160.45)" id="i"><stop offset="0" stop-color="#2B1E11"/><stop offset="1" stop-color="#A37243"/></linearGradient><linearGradient gradientUnits="userSpaceOnUse" x1="-819.2" x2="819.2" gradientTransform="matrix(.002 .001 -.003 .004 171.3 172.35)" id="j"><stop offset="0" stop-color="#2B1E11"/><stop offset="1" stop-color="#A37243"/></linearGradient><linearGradient gradientUnits="userSpaceOnUse" x1="-819.2" x2="819.2" gradientTransform="matrix(.001 .001 -.003 .003 179.7 168.75)" id="k"><stop offset="0" stop-color="#2B1E11"/><stop offset="1" stop-color="#A37243"/></linearGradient><linearGradient gradientUnits="userSpaceOnUse" x1="-819.2" x2="819.2" gradientTransform="matrix(.007 .03 -.016 .004 143.15 137.45)" id="l"><stop offset="0" stop-color="#CDA987"/><stop offset="1" stop-color="#A37243"/></linearGradient><linearGradient gradientUnits="userSpaceOnUse" x1="-819.2" x2="819.2" gradientTransform="matrix(.006 -.01 .016 .009 108.15 107.55)" id="m"><stop offset="0" stop-color="#2B1E11"/><stop offset="1" stop-color="#A37243"/></linearGradient><linearGradient gradientUnits="userSpaceOnUse" x1="-819.2" x2="819.2" gradientTransform="matrix(.003 .004 -.004 .004 130.7 169.8)" id="n"><stop offset="0" stop-color="#CDA987"/><stop offset="1" stop-color="#A37243"/></linearGradient><linearGradient gradientUnits="userSpaceOnUse" x1="-819.2" x2="819.2" gradientTransform="matrix(.005 .004 -.083 .102 42.65 263.45)" id="o"><stop offset="0" stop-color="#2B1E11"/><stop offset="1" stop-color="#A37243"/></linearGradient><linearGradient gradientUnits="userSpaceOnUse" x1="-819.2" x2="819.2" gradientTransform="matrix(.004 .004 -.003 .003 133.6 164.85)" id="p"><stop offset="0" stop-color="#CDA987"/><stop offset="1" stop-color="#A37243"/></linearGradient><linearGradient gradientUnits="userSpaceOnUse" x1="-819.2" x2="819.2" gradientTransform="matrix(.004 .001 -.001 .005 119.7 178.8)" id="q"><stop offset="0" stop-color="#CDA987"/><stop offset="1" stop-color="#A37243"/></linearGradient><linearGradient gradientUnits="userSpaceOnUse" x1="-819.2" x2="819.2" gradientTransform="matrix(.004 .004 -.003 .003 126.6 173.9)" id="r"><stop offset="0" stop-color="#CDA987"/><stop offset="1" stop-color="#A37243"/></linearGradient><linearGradient gradientUnits="userSpaceOnUse" x1="-819.2" x2="819.2" gradientTransform="matrix(-.009 .002 -.001 -.003 123.5 155.45)" id="s"><stop offset="0" stop-color="#CDA987"/><stop offset="1" stop-color="#A37243"/></linearGradient><linearGradient gradientUnits="userSpaceOnUse" x1="-819.2" x2="819.2" gradientTransform="matrix(0 .002 -.002 0 137.05 169.7)" id="t"><stop offset="0" stop-color="#CDA987"/><stop offset="1" stop-color="#A37243"/></linearGradient><linearGradient gradientUnits="userSpaceOnUse" x1="-819.2" x2="819.2" gradientTransform="matrix(.005 .005 -.003 .003 12.85 300.85)" id="u"><stop offset="0" stop-color="#CDA987"/><stop offset="1" stop-color="#A37243"/></linearGradient><linearGradient gradientUnits="userSpaceOnUse" x1="-819.2" x2="819.2" gradientTransform="matrix(.005 .007 -.005 .004 4.5 305.75)" id="v"><stop offset="0" stop-color="#CDA987"/><stop offset="1" stop-color="#A37243"/></linearGradient><linearGradient gradientUnits="userSpaceOnUse" x1="-819.2" x2="819.2" gradientTransform="matrix(.004 .004 -.003 .003 10.65 304.35)" id="w"><stop offset="0" stop-color="#CDA987"/><stop offset="1" stop-color="#A37243"/></linearGradient></defs><path fill="url(#a)" d="M155.7 113.05l4.35-6.85 9.8 5.2q9.5 5.8 7.95 8.85-1.25 2.4-3.4 4.65-1.95-.35-7.2-2.45l-6.9-2.95-4.6-6.45m14.4 15.2q-4.85.15-8.9-1.5-4.3-1.7-6-4.65-.8-1.35-1.2-2.95 2.05 3.2 7.8 6 4.05 1.95 8.3 3.1"/><path fill="url(#b)" d="M174.4 124.9h1l-2.15 2.05-.05-.05-1-.05q-5.9-.55-11.9-7.35l6.9 2.95q5.25 2.1 7.2 2.45"/><path fill="url(#c)" d="M173.15 127l-1.4 1.7-1.05-.25-.25-.2h-.35q-4.25-1.15-8.3-3.1-5.75-2.8-7.8-6-1.1-1.75-1.1-3.6l.1-1.05 2-2.4.7.95 4.6 6.45q6 6.8 11.9 7.35l1 .05-.05.1"/><path fill="url(#d)" d="M171.7 128.75l.5.05q1.9.35 2.55 1.55l.25 1.15v.05q-2.45 3.25-19.85 13.15l-17 9.3-.4-4.8v-.9q5.85-2.9 14.4-7.9 10-5.9 19-11.65l.05-.05.5.05-.5.55.5-.55"/><path fill="url(#e)" d="M175 131.55l18.15 13.15-.15.15q-2.8-2.1-8.7 1.75-5.85 3.8-11.3 11.25-5.5 7.45-7.4 14.15-1.7 6.1.5 8.4-10.55-3.45-25.05-17.8-2.05-3.4-2.85-8.3l-.05-.3 17-9.3q17.4-9.9 19.85-13.15m-4.9-3.3h.35l.25.2.45.3q-9 5.75-19 11.65-8.55 5-14.4 7.9-.3-16.75 13.7-33.85l.7.55.3.2.45.35q0 1.85 1.1 3.6.4 1.6 1.2 2.95 1.7 2.95 6 4.65 4.05 1.65 8.9 1.5l.6.2-.6-.2m-43.3 23.85l-1.25-.9q-19.55-13.7-20.4-17.85-.15-2.1.7-5.1 1.9-6.7 7.4-14.15 5.4-7.45 11.25-11.25 3.1-2 3.9-2.1l5.6 1.05.25.2 12.55 9.1q-1.6 2-3.7 5.15-4.4 6.6-7.15 13.15-4.4 10.35-3.65 19.55l.2 1.8q-3.25 1.35-5.15 1.65l-.5-.35-.05.05m6.65 3.1l.85 2.3-2.75-2 1.9-.3"/><path fill="url(#f)" d="M166.1 180.4q-2.2-2.3-.5-8.4 1.9-6.7 7.4-14.15 5.45-7.45 11.3-11.25 5.9-3.85 8.7-1.75 2.85 2.1 1 8.85-1.9 6.75-7.35 14.2-5.5 7.45-11.35 11.2-5.3 3.4-8.1 2.1l-1.1-.8m25.75-32l-.7-.4-.75-.45q-1.3 0-3.35 1.7-2.2 1.8-2.35 3.7l7.65.9-.4-5.45h-.1m-9.35 7.9l-.05-.25h-.95q-2.75 1.4-3.55 2.35-1.35 1.5-1.6 4.9l7.5.4-1.55-7.1.15-.15.05-.15m4.35.7q-1.05 1.25-1.1 2.85v.05l4.65.25-.9-4.65q-1.55.25-2.65 1.5m-14.75 11.25l-3.05 1.9q-1.85 1.8-1.2 4.7v.05l6.5-.25.65-.05-.65.05-2.25-6.4.55-.35-.55.35m4.8 3.1h5.85l-1.05-5.9v-.05q-3.65-.4-4.8 5.95"/><path fill="url(#g)" d="M191.85 148.4h.1l.4 5.45-7.65-.9q.15-1.9 2.35-3.7 2.05-1.7 3.35-1.7l.75.45.7.4"/><path fill="url(#h)" d="M186.85 157q1.1-1.25 2.65-1.5l.9 4.65-4.65-.25v-.05q.05-1.6 1.1-2.85"/><path fill="url(#i)" d="M182.5 156.3l-.05.15-.15.15 1.55 7.1-7.5-.4q.25-3.4 1.6-4.9.8-.95 3.55-2.35h.95l.05.25"/><path fill="url(#j)" d="M174.35 174.65l-6.5.25v-.05q-.65-2.9 1.2-4.7l3.05-1.9 2.25 6.4"/><path fill="url(#k)" d="M176.9 171.35q1.15-6.35 4.8-5.95v.05l1.05 5.9h-5.85"/><path fill="#A37243" d="M166.1 180.4l1.1.8-.65-.4-.45-.4"/><path fill="url(#l)" d="M137.75 148.3v.9l.4 4.8.05.3q.8 4.9 2.85 8.3l.2.3q-1.35.7-2.75 1.35l-.05-.05q-2.65-3.05-4.15-6.7l-.85-2.3q-.65-2.15-.95-4.45l-.2-1.8q-.75-9.2 3.65-19.55 2.75-6.55 7.15-13.15 2.1-3.15 3.7-5.15l.15-.25q3.05-.25 4.1 1.65.5.95.4 1.95-14 17.1-13.7 33.85m2.55 13.55l.05.05.1-.15-.15.1"/><path fill="url(#m)" d="M105.15 133.35l-2.8-30 26.05-2.6q-.8.1-3.9 2.1-5.85 3.8-11.25 11.25-5.5 7.45-7.4 14.15-.85 3-.7 5.1"/><path fill="url(#n)" d="M135.25 169.95L132 173.7q-.25.25-.65.3l-.85-.1q-1.95-.6-5.5-4.2-3.15-3.2-6.9-8l-.05-.05-.05-.05-.65-.85 4.05-3.75.1.1.3.45q2.6 3.75 5.6 6.75 4.1 4.05 7.15 4.65l1.45.05-.75.95"/><path fill="url(#o)" d="M138.45 164.2l-.1.15-5.65-4.3-4.75-4 3.6-.55 2.75 2q1.5 3.65 4.15 6.7m-2.7 6.05h-.05v-.05l.05.05m-13.05 13l-32.35 38.4L33.2 288q-1.7-1.3-4.1-5.75L26.5 277l-1.9-4.2-.1-.2q30.35-36.95 51.15-61.8 16.15-19.25 29.85-34.85 4.05 4.6 11.45 6.4l5.75.9M109 171.9l7.1-7.95 4.45 7.45q4.2 6.35 6.05 7.2h-.05l-7.05-1.15q-3.55-.95-6.45-2.6L109 171.9m12.4-14.9h.05l.05.1-.1-.1m4.25-3.6l1.15-1.3.45.35-.45-.35.05-.05.5.35-.1.05-.65.05-.85 1.05-.1-.15m14.65 8.45l.15-.1-.1.15-.05-.05M19.05 305.25l.7-1.6q-1.1 0-5.85-5.2l-1.9-2.2 1.45.75 1.05.55q4.1 2.1 7.75 3.6l-3.2 4.1M-1.7 298.5l.1 2.6q.25 3.2 1.2 5.8 3 8.2 11.35 8.05-18 20.4-34 28.3-5-.3-9.05-2.15-8.05-3.7-3-11.25 5.05-7.55 31.85-30l1.4-1.25.15-.1"/><path fill="url(#p)" d="M138.35 164.35l1.3.95-.65.75-2.7 2.9-.3.05-1.45-.05q-3.05-.6-7.15-4.65-3-3-5.6-6.75l-.3-.45-.05-.1-.25-.35 4.35-3.55.1.3.1.15q.45.85 2.2 2.5l-.55.05-1.8-2.4.15-.15-.15.15 1.8 2.4.55-.05 4.75 4 5.65 4.3"/><path fill="url(#q)" d="M127 178.7l-3.3 4.55h-1l-5.75-.9q-7.4-1.8-11.45-6.4l-.3-.35 3.4-4 .4.3 4.05 2.95q2.9 1.65 6.45 2.6l7.05 1.15.15.05h.3v.05"/><path fill="url(#r)" d="M127 178.7v-.05h-.3l-.1-.05q-1.85-.85-6.05-7.2l-4.45-7.45-.35-.6 2.3-1.7.05.05q3.75 4.8 6.9 8 3.55 3.6 5.5 4.2l.85.1-4 4.65-.35.05"/><path fill="url(#s)" d="M132.5 150.75q.3 2.3.95 4.45l-1.9.3-3.6.55q-1.75-1.65-2.2-2.5l.85-1.05.65-.05.1-.05q1.9-.3 5.15-1.65"/><path fill="url(#t)" d="M139 166.05l-.1 3.2q-.3 1.1-1.05 1.4-.8.25-2.1-.4l-.05-.05-.45-.25.75-.95.3-.05 2.7-2.9"/><path fill="url(#u)" d="M3.25 295.25q-.15-.55-.65-.55l3-2.55q2.45 1.95 6.4 4.1l1.9 2.2q4.75 5.2 5.85 5.2l-.7 1.6-.25 1.65h-1.05q-2.65-.55-7.4-4.65l-7.1-7"/><path fill="url(#v)" d="M3.25 295.25Q2.2 301.4 8.4 307.2q2.8 2.55 5.65 4.15l.35.15.05.05.4.2-3.5 3.2h-.4Q2.6 315.1-.4 306.9q-.95-2.6-1.2-5.8l-.1-2.6.2-.15.6-.55q2.2-2.95 3.35-3.1h.15q.5 0 .65.55"/><path fill="url(#w)" d="M3.25 295.25l7.1 7q4.75 4.1 7.4 4.65h1.05v.35l-4.35 4.3-.05-.05-.35-.15q-2.85-1.6-5.65-4.15-6.2-5.8-5.15-11.95"/><path fill="none" stroke="#2B1E11" stroke-width=".05" d="M155.7 113.05l4.35-6.85 9.8 5.2q9.5 5.8 7.95 8.85-1.25 2.4-3.4 4.65h1l-2.15 2.05-.1.05-1.4 1.7-.05.05.5.05q1.9.35 2.55 1.55l.25 1.15v.05l18.15 13.15 1.45 1.05m-34.3-26.25q6 6.8 11.9 7.35l1 .05-.05.1m-3.05 1.25h.35l.25.2 1.05.25m-.05.05l-.5.55m-.05-.55l.05-.05.5.05m-1-.3l.45.3q-9 5.75-19 11.65-8.55 5-14.4 7.9v.9l.4 4.8 17-9.3q17.4-9.9 19.85-13.15m-4.3-3.1l-.6-.2q-4.85.15-8.9-1.5-4.3-1.7-6-4.65-.8-1.35-1.2-2.95-1.1-1.75-1.1-3.6l-.45-.35-.3-.2-.7-.55q-14 17.1-13.7 33.85m28.35 32.1q-2.2-2.3-.5-8.4 1.9-6.7 7.4-14.15 5.45-7.45 11.3-11.25 5.9-3.85 8.7-1.75m-1.15 3.55h.1l.4 5.45-7.65-.9q.15-1.9 2.35-3.7 2.05-1.7 3.35-1.7l.75.45.7.4m-17.45-23.5q-1.95-.35-7.2-2.45l-6.9-2.95-4.6-6.45-.7-.95-2 2.4-.1 1.05m29.6 40.75l-.05.15-.15.15 1.55 7.1-7.5-.4q.25-3.4 1.6-4.9.8-.95 3.55-2.35h.95l.05.25m4.35.7q1.1-1.25 2.65-1.5l.9 4.65-4.65-.25v-.05q.05-1.6 1.1-2.85m-19.65 24.2q2.8 1.3 8.1-2.1 5.85-3.75 11.35-11.2 5.45-7.45 7.35-14.2 1.85-6.75-1-8.85m-18.65 29.8l-6.5.25v-.05q-.65-2.9 1.2-4.7l3.05-1.9.55-.35m4.25 3.45h5.85l-1.05-5.9v-.05q-3.65-.4-4.8 5.95m-2.55 3.3l.65-.05m-8.9 5.8l1.1.8-.65-.4-.45-.4q-10.55-3.45-25.05-17.8l.2.3q-1.35.7-2.75 1.35l-.05-.05-.1.15 1.3.95-.65.75-.1 3.2q-.3 1.1-1.05 1.4-.8.25-2.1-.4m-.05 0v-.05l-.45-.25-3.25 3.75q-.25.25-.65.3l-4 4.65-.35.05-3.3 4.55h-1l-32.35 38.4L33.2 288m42.45-77.2q16.15-19.25 29.85-34.85l-.3-.35 3.4-4 .4.3 7.1-7.95-.35-.6 2.3-1.7-.05-.05-.65-.85 4.05-3.75h.05l-.25-.35 4.35-3.55.1.3 1.15-1.3-1.25-.9q-19.55-13.7-20.4-17.85l-2.8-30 26.05-2.6 5.6 1.05.25.2 12.55 9.1.15-.25q3.05-.25 4.1 1.65.5.95.4 1.95m20.65 53.8l2.25 6.4M146.8 111.1q-1.6 2-3.7 5.15-4.4 6.6-7.15 13.15-4.4 10.35-3.65 19.55l.2 1.8q.3 2.3.95 4.45l.85 2.3q1.5 3.65 4.15 6.7M154 119.15q2.05 3.2 7.8 6 4.05 1.95 8.3 3.1m-43.5 50.35q-1.85-.85-6.05-7.2l-4.45-7.45m1.95-2.3l.05.05q3.75 4.8 6.9 8 3.55 3.6 5.5 4.2l.85.1m-25.85 1.95q4.05 4.6 11.45 6.4l5.75.9M109 171.9l4.05 2.95q2.9 1.65 6.45 2.6l7.05 1.15h.05l.1.05h.3v.05m14.05-16.1q-2.05-3.4-2.85-8.3l-.05-.3m-10.8-1.6q1.9-.3 5.15-1.65m-5.25 1.7l-.45-.35.05-.05m-1.1 1.5l.85-1.05.65-.05.1-.05m-1.7 1l.1.15-.15.15 1.8 2.4.55-.05 4.75 4 5.65 4.3m-10.4-8.3l3.6-.55 1.9-.3m-11.95 1.9l.3.45q2.6 3.75 5.6 6.75 4.1 4.05 7.15 4.65l1.45.05.3-.05 2.7-2.9m-3.3 4.15l.05.05m-.5-.3l.75-.95m-4.45-13.5l2.75 2m-7.6 21.15l-.15-.05m-5.1-21.6l.05.1M2.6 294.7q.5 0 .65.55l7.1 7q4.75 4.1 7.4 4.65h1.05l.25-1.65.7-1.6q-1.1 0-5.85-5.2l-1.9-2.2m-6.4-4.1l-3 2.55h-.15q-1.15.15-3.35 3.1l-.6.55-.2.15.1 2.6q.25 3.2 1.2 5.8 3 8.2 11.35 8.05h.4l3.5-3.2-.4-.2-.05-.05-.35-.15q-2.85-1.6-5.65-4.15-6.2-5.8-5.15-11.95M18.8 306.9v.35l-4.35 4.3m7.8-10.4l-3.2 4.1m-8.1 9.7q-18 20.4-34 28.3-5-.3-9.05-2.15-8.05-3.7-3-11.25 5.05-7.55 31.85-30l1.4-1.25.15-.1"/></svg>