<svg xmlns="http://www.w3.org/2000/svg" viewBox="-115.8 -12.4 485.4 418.9" width="485.4" height="418.9" preserveAspectRatio="xMinYMin"><defs><linearGradient gradientUnits="userSpaceOnUse" x1="-819.2" x2="819.2" gradientTransform="matrix(0 -.018 .011 0 325.85 57.05)" id="a"><stop offset="0" stop-color="#f00"/><stop offset="1" stop-color="#6D0101"/></linearGradient><linearGradient gradientUnits="userSpaceOnUse" x1="-819.2" x2="819.2" gradientTransform="matrix(.003 .003 -.011 .012 306.85 41.9)" id="b"><stop offset="0" stop-color="#2B1E11"/><stop offset="1" stop-color="#514D4D"/></linearGradient><linearGradient gradientUnits="userSpaceOnUse" x1="-819.2" x2="819.2" gradientTransform="matrix(.003 .004 -.26 .207 86.15 220.65)" id="c"><stop offset="0" stop-color="#2B1E11"/><stop offset="1" stop-color="#514D4D"/></linearGradient><linearGradient gradientUnits="userSpaceOnUse" x1="-819.2" x2="819.2" gradientTransform="matrix(-.002 -.002 .002 -.002 318.4 32.85)" id="d"><stop offset="0" stop-color="#f00"/><stop offset="1" stop-color="#6D0101"/></linearGradient><linearGradient gradientUnits="userSpaceOnUse" x1="-819.2" x2="819.2" gradientTransform="matrix(.006 .005 -.027 .031 344.7 10.35)" id="e"><stop offset="0" stop-color="#2B1E11"/><stop offset="1" stop-color="#514D4D"/></linearGradient><linearGradient gradientUnits="userSpaceOnUse" x1="-819.2" x2="819.2" gradientTransform="matrix(-.001 -.003 .004 -.001 319.95 36.35)" id="f"><stop offset="0" stop-color="#f00"/><stop offset="1" stop-color="#6D0101"/></linearGradient><linearGradient gradientUnits="userSpaceOnUse" x1="-819.2" x2="819.2" gradientTransform="matrix(.004 -.012 .01 .003 316.85 70.35)" id="g"><stop offset="0" stop-color="#f00"/><stop offset="1" stop-color="#6D0101"/></linearGradient></defs><path fill="url(#a)" d="M323.5 38.45q3.15 8.25 6.1 18.85 5.85 21 4.85 32.65l-.05.2-14.8 8.25-.3-6.9-2.15-50.6v-.1l-.05-.75-.05-1h.05l2.85.55q2.95.25 3.55-1.15"/><path fill="url(#b)" d="M314.4 42.2l-10.15 11.85-3.1-.45q-2.95-1.05-5.3-4.35l-1.35-2.65-1.25-2.35 20.6-13.65 1.5 2.3q1.95 2.45 4.4 3l-2.65 3.15h-.05l-2.65 3.15"/><path fill="url(#c)" d="M301.15 53.6L33.9 284l-1.15 1-1.25 1.1-2.4-3.85-2.4-4.9.2-.2.75-.65 2.25-1.95-.05.15L294.5 46.6l1.35 2.65q2.35 3.3 5.3 4.35M29.85 274.7l-2.2 1.8 2.2-1.8m2.9 10.3l1.1-1h.05-.05l-1.1 1m-25 8.7l5.7 3.3 1.05.55 2.35 1.2-124.95 107.6q-7.1.45-7.7-3.15-.2-1.1.3-2.5l.55-1.15L7.75 293.7"/><path fill="url(#d)" d="M313.85 30.6l.3-1.35q.7-1.15 3-.55l.3.15v1.85q.75 1.95 4.4 2.55l.1.15.1.2q.3 2.15-.75 2.2l-1.15-.4-.4.5q-2.45-.55-4.4-3l-1.5-2.3"/><path fill="url(#e)" d="M317.15 28.7q-16.25-9.15 6.6-21.55 23.1-12.55 45.75-19.6-8.05 19.75-23.65 39.25-14.25 17.85-22.55 8.4l-1.25-1.6-.1-.2-.1-.15q-3.65-.6-4.4-2.55v-1.85l-.3-.15"/><path fill="url(#f)" d="M323.3 35.2q.65 2.1.2 3.2v.05q-.6 1.4-3.55 1.15l-2.85-.55 2.65-3.15.4-.5 1.15.4q1.05-.05.75-2.2l1.25 1.6"/><path fill="url(#g)" d="M319.3 91.5l-9.9-5.55 7.75-45.05 2.15 50.6"/><path fill="none" stroke="#333" stroke-width=".05" d="M294.5 46.6l1.35 2.65q2.35 3.3 5.3 4.35M33.9 284h-.05l-1.1 1m-5.1-8.5l2.2-1.8m-22.1 19l-122.7 105.85-.55 1.15q-.5 1.4-.3 2.5.6 3.6 7.7 3.15l124.95-107.6"/><path fill="none" stroke="#6D0000" stroke-width=".05" d="M323.5 38.45q3.15 8.25 6.1 18.85 5.85 21 4.85 32.65l-.05.2-14.8 8.25-.3-6.9m4.2-53.05q-.6 1.4-3.55 1.15l-2.85-.55"/><path fill="none" stroke="#6D0000" stroke-width=".05" stroke-linecap="round" d="M319.3 91.5l-9.9-5.55 7.75-45.05 2.15 50.6"/><path fill="none" stroke="#333" stroke-width=".05" stroke-linecap="round" d="M317.15 40.9v-.1l-.05-.75-2.7 2.15m-.55-11.6l.3-1.35q.7-1.15 3-.55m-.05 10.35h-.05l.05 1m4.95-6.45l-.1-.2-.1-.15q-3.65-.6-4.4-2.55v-1.85l-.3-.15m2.6 7.2l-2.65 3.15m-3.25-8.45l1.5 2.3q1.95 2.45 4.4 3m-2.7 3.15l-2.65 3.15M314.4 42.2l-10.15 11.85-3.1-.45L33.9 284l-1.15 1-1.25 1.1M317.15 28.7q-16.25-9.15 6.6-21.55 23.1-12.55 45.75-19.6-8.05 19.75-23.65 39.25-14.25 17.85-22.55 8.4.65 2.1.2 3.2v.05"/><path fill="none" stroke="#333" stroke-width=".05" d="M26.7 277.35l.2-.2.75-.65 2.25-1.95-.05.15L294.5 46.6l-1.25-2.35 20.6-13.65m9.45 4.6l-1.25-1.6m-1.9 1.8l-.4.5"/><path fill="none" stroke="#6D0000" stroke-width=".05" stroke-linecap="round" d="M322.05 33.6q.3 2.15-.75 2.2l-1.15-.4"/></svg>