<svg xmlns="http://www.w3.org/2000/svg" viewBox="-116.9 9.4 463.4 397.1" width="463.4" height="397.1" preserveAspectRatio="xMinYMin"><defs><linearGradient gradientUnits="userSpaceOnUse" x1="-819.2" x2="819.2" gradientTransform="matrix(-.006 -.007 .075 -.063 291.2 76.1)" id="a"><stop offset="0" stop-color="#ddd"/><stop offset="1" stop-color="#A6A6A6"/></linearGradient><linearGradient gradientUnits="userSpaceOnUse" x1="-819.2" x2="819.2" gradientTransform="matrix(.003 .004 -.274 .243 113.05 212.9)" id="b"><stop offset="0" stop-color="#2B1E11"/><stop offset="1" stop-color="#514D4D"/></linearGradient></defs><path fill="url(#a)" d="M340.55 16.3l3.05-2.3.2.5q12.35 32-30.5 68.3-4.55 3.9-38.4 29.65-23.15 17.55-33 29.3l-11.25-28.15-.65-1.75q15.6-12.45 55.55-49.1l2.4-2.2q31.1-28.25 52.6-44.25"/><path fill="url(#b)" d="M340.55 16.3q-21.5 16-52.6 44.25l-2.4 2.2Q245.6 99.4 230 111.85l.65 1.75L31.1 285.55l-2-3.3-2.6-5.25-.1-.25L287.95 51.3l47.8-41.9q3.35.95 4.05 3.05.7 2.2.75 3.85M16.2 298.4l-.05.05-15 12.9-110.3 95.05q-7.1.45-7.7-3.15-.2-1.1.3-2.5l.55-1.15L6.7 293.8l-.15.05.65-.55q2.55 1.75 6.25 3.7l1.05.55 1.7.85"/><path fill="none" stroke="#ccc" stroke-width=".05" d="M343.6 14l.2.5q12.35 32-30.5 68.3-4.55 3.9-38.4 29.65-23.15 17.55-33 29.3l-11.25-28.15"/><path fill="none" stroke="#1F150C" stroke-width=".05" d="M230.65 113.6L31.1 285.55m-4.7-8.8L287.95 51.3l47.8-41.9q3.35.95 4.05 3.05.7 2.2.75 3.85m-109.9 97.3l-.65-1.75q15.6-12.45 55.55-49.1l2.4-2.2q31.1-28.25 52.6-44.25M16.2 298.4l-.05.05-15 12.9-110.3 95.05q-7.1.45-7.7-3.15-.2-1.1.3-2.5l.55-1.15L6.7 293.8l-.15.05.65-.55"/></svg>