<svg xmlns="http://www.w3.org/2000/svg" viewBox="41.0 29.3 106.1 273.8" width="106.1" height="273.8" preserveAspectRatio="xMinYMin"><defs><linearGradient gradientUnits="userSpaceOnUse" x1="-819.2" x2="819.2" gradientTransform="matrix(.03 0 0 .043 89.55 67.55)" id="a"><stop offset="0" stop-color="#D98651"/><stop offset=".533" stop-color="#DFA168"/><stop offset="1" stop-color="#D98651"/></linearGradient><linearGradient gradientUnits="userSpaceOnUse" x1="-819.2" x2="819.2" gradientTransform="matrix(-.007 0 0 -.004 108.15 60.6)" id="b"><stop offset="0" stop-color="#B46532"/><stop offset="1" stop-color="#80421A"/></linearGradient><radialGradient gradientUnits="userSpaceOnUse" r="819.2" cx="0" cy="0" spreadMethod="pad" gradientTransform="matrix(.003 0 0 .003 108.4 66.35)" id="c"><stop offset="0" stop-color="#fff"/><stop offset=".612"/></radialGradient><linearGradient gradientUnits="userSpaceOnUse" x1="-819.2" x2="819.2" gradientTransform="matrix(-.001 -.033 .002 0 114.95 49.35)" id="d"><stop offset="0" stop-color="#D98651"/><stop offset=".533" stop-color="#DFA168"/><stop offset="1" stop-color="#D98651"/></linearGradient><linearGradient gradientUnits="userSpaceOnUse" x1="-819.2" x2="819.2" gradientTransform="matrix(-.01 0 0 -.004 85.95 62)" id="e"><stop offset="0" stop-color="#B46532"/><stop offset="1" stop-color="#80421A"/></linearGradient><radialGradient gradientUnits="userSpaceOnUse" r="819.2" cx="0" cy="0" spreadMethod="pad" gradientTransform="matrix(.004 0 0 .004 87.9 68.3)" id="f"><stop offset="0" stop-color="#fff"/><stop offset=".612"/></radialGradient><linearGradient gradientUnits="userSpaceOnUse" x1="-819.2" x2="819.2" gradientTransform="matrix(0 .002 -.008 -.001 98.15 88.85)" id="g"><stop offset="0" stop-color="#E36C60"/><stop offset="1" stop-color="#613416"/></linearGradient><linearGradient gradientUnits="userSpaceOnUse" x1="-819.2" x2="819.2" gradientTransform="matrix(-.001 .003 -.007 -.001 97.95 90.8)" id="h"><stop offset="0" stop-color="#E36C60"/><stop offset="1" stop-color="#613416"/></linearGradient><linearGradient gradientUnits="userSpaceOnUse" x1="-819.2" x2="819.2" gradientTransform="matrix(-.009 .031 -.053 -.016 94 162.85)" id="i"><stop offset="0" stop-color="#311A0B"/><stop offset=".596" stop-color="#7B431E"/><stop offset="1" stop-color="#613416"/></linearGradient><radialGradient gradientUnits="userSpaceOnUse" r="819.2" cx="0" cy="0" spreadMethod="pad" gradientTransform="matrix(.035 0 0 .035 68.7 169.4)" id="j"><stop offset="0" stop-color="#311A0B"/><stop offset="1" stop-color="#FCF4F1"/></radialGradient><linearGradient gradientUnits="userSpaceOnUse" x1="-819.2" x2="819.2" gradientTransform="matrix(-.001 .009 -.047 -.005 85.95 181.9)" id="k"><stop offset="0" stop-color="#311A0B"/><stop offset=".596" stop-color="#7B431E"/><stop offset="1" stop-color="#613416"/></linearGradient><linearGradient gradientUnits="userSpaceOnUse" x1="-819.2" x2="819.2" gradientTransform="matrix(.057 0 0 .022 94.7 165.2)" id="l"><stop offset="0" stop-color="#311A0B"/><stop offset=".596" stop-color="#7B431E"/><stop offset="1" stop-color="#613416"/></linearGradient><radialGradient gradientUnits="userSpaceOnUse" r="819.2" cx="0" cy="0" spreadMethod="pad" gradientTransform="matrix(.033 0 0 .033 136.1 170.7)" id="m"><stop offset="0" stop-color="#311A0B"/><stop offset="1" stop-color="#FCF4F1"/></radialGradient><radialGradient gradientUnits="userSpaceOnUse" r="819.2" cx="0" cy="0" spreadMethod="pad" gradientTransform="matrix(.046 0 0 .046 96.1 232.2)" id="n"><stop offset="0" stop-color="#311A0B"/><stop offset="1" stop-color="#FCF4F1"/></radialGradient><linearGradient gradientUnits="userSpaceOnUse" x1="-819.2" x2="819.2" gradientTransform="matrix(.065 0 0 .057 94.05 256.6)" id="o"><stop offset="0" stop-color="#311A0B"/><stop offset=".596" stop-color="#7B431E"/><stop offset="1" stop-color="#613416"/></linearGradient></defs><path fill="url(#a)" d="M68.1 64.8V64.65q-4.2-18.6 9.05-27.1 6.65-4.25 14.1-4.95 14.65-.9 19.85 8.65 1.7 3.15 2.35 7.5l.3 2.2L114 54l.2 1.95q.1 2.35-.2 5.35l-.1-.65v-.05l-.15-.9q-.3-1.4-1.05-1.45-.4-.05-1.3-.55h.1-.1l-1.1.25-.25.2q-3.4 2.55-6.4 3.75l-.9.7-.5 1.1v.15l.05-.05.2-.2.85-.55 2.9-1.05 2.8-1.65q2.2-1.4 3-1.2.75.2.9.85.15.55.85 1.9l.1.25-.05.6v.05h-.05v-.05l-.05.05-.45.7-.2-.55-.25-.5-.95 1.1v-.5l-1.1.9-.95.6-.4-.25-.6.35-.4-.05h-.05l-.25-.15-.8.35-.3-.15-.35.45q-.2.45-.75.25l-.95.95-1.35 1q-.45.15-.85.35l3.25 1.65 1.6.15.5-.05h.25l1.85-.45 1.8-.5v-.1l-.25-.25.1-.05h1.25v-.1l-.3-.4-.35-.2h.05l.6-.05.4-.3-.4-.65v.05h-.05l.4-1.6.05-.25h.05q.75 5.75.55 14l-.05.5-.1 3.2q-.45 2.3-1.95 5.35L110 91.25l-.55.9-1.75 2.6-.9 1.2-3.95 5.65-2.05 1.05q-4.35-.05-12.65-4.45l-7.4-4.45-2.4-1.6q-2.5-2.2-3.8-6.2l-.95-5.1q-.45.55-2.1.85-1.95.35-2.85-2.35l-.5-2.8-.2-.05-.2-.2-.45-.65q-.85-1.45-1.65-4.65l-.45-1.85-.25-1.9q0-.8.25-1.35l.15-.25q.6-1 2.25-.9l.45.05h.05l1.8.45 1.4.6-1.4-.6-1.8-.45m43.25-7.1h.05-.05.15l-.15-.05h-.05q-.7-.45-1.35-.35H109.8l.1.05v.05l1.45.3m-27.9 2.2l-.9-.5q-.45.15-.45.55h-.5v.4l.2.15-2.45 1.55q-1.4 1.2-1.4 2.25l.1.5q.65-1 .95-.95.3 0 .25-.55-.05-.55 1.85-1.75 1.85-1.25 3.15-.85l2.9.8q1.65.4 2.95 1.3l1.85 1.35q.5.4 1.05.5l.9.15v-.2q-.25-.05-.4-.65l-.4-.7q0 .25.15.5v.2q-2.85-2.05-3.9-2.35-1.1-.35-2.75-1.5L85.05 59l-.3.35-.95.15q-.35-.6-.2-.05l-.15.45m6.1 8.05l-2.7-1.2v.35l-.65-.65v.3l-.95-.7-.8-.85-.05-.05v.05l.05.65-.25.7-1-.6-.7-.8v1.05l-.05-.05L81.7 65l-.25.35v.45h-.15l-.45-.55-.2-.4-.15.8v.05l-.05-.05-1.1-1.75h-.05l.65 1.3q-.6-.7-.25.3h-.45v.25l.5.95.2.2 1.2.5-.1.1-.8.5q1-.1 1.5.4l-.6.45 2.2.1q2.9 2.9 5.45 2.05 2.5-.85 3.4-2.7l-2.25-.3-.4-.05m-8.4.9h-.05.05m20 5.4q.05 1.85 1.9 5.3.45 2.7-1.1 3.7l-1.65.45q-1.75-1.55-3.45-1.3l-1.4.55 1.4-.55q1.7-.25 3.45 1.3l1.65-.45q1.55-1 1.1-3.7-1.85-3.45-1.9-5.3M94 82.9q-1.1-1.1-.65-2.35l.65-1-.65 1q-.45 1.25.65 2.35m6.3-12.6q-.1-1.3.2-2.5l.35-.9-.35.9q-.3 1.2-.2 2.5m-8.95 18.95l.6.2.1.1.4 1q.5.7 2.9 1.6l2.45.8q2.85.8 4.65-.8 1.1-1 1.75-2.85l.5-.25q-2.75-2.25-8.35-1.3l-5 1.45h-.1l.1.05m12.65-6.5q.7-.7.5-2.3l-.35-1.45.35 1.45q.2 1.6-.5 2.3m-30.4-1.9l.1-.2v-.05l-.1.25"/><path fill="url(#b)" d="M111.4 57.7q.9.5 1.3.55.75.05 1.05 1.45l.15.9v.05l.1.65-.1.85-.1-.25q-.7-1.35-.85-1.9-.15-.65-.9-.85-.8-.2-3 1.2l-2.8 1.65-2.9 1.05-.85.55-.2.2-.05-.1.5-1.1.9-.7q3-1.2 6.4-3.75l.25-.2 1.1-.25"/><path fill="#3C2111" d="M108.85 64.65l.6-.35.4.25.95-.6 1.1-.9v.5l.95-1.1.25.5.2.55.45-.7h.05l-.05.75-.2 1-.05.25-.4 1.6v.05l.05-.05v-.05l.4.65-.4.3-.6.05h-.05l.35.2.3.4v.1h-1.25l-.1.05.25.25v.1l-1.8.5-1.85.45v-.05q2.2-.4 3.8-2.55l.25-1.4.05-.55-2.55.45-3.4.85-1.35.45-1.55.7 1.35-1 .95-.95q.55.2.75-.25l.35-.45.3.15.8-.35.25.15.15.1.3-.05m-22 2.4v-.3l2.7 1.2V68l-3.3-.45-4.2-.65 1.3 2.05-2.2-.1.6-.45q-.5-.5-1.5-.4l.8-.5.1-.1-1.2-.5-.2-.2-.5-.95v-.25h.45q-.35-1 .25-.3l-.65-1.3h.05l1.1 1.75.05.05v-.05l.15-.8.2.4.45.55h.15v-.45l.25-.35.75 1.15.05.05v-1.05l.7.8 1 .6.25-.7-.05-.65h.05l.8.85.95.7v-.3l.65.65v-.05"/><path fill="#fff" d="M103.65 67.3l1.55-.7 1.35-.45-.05.4q0 .8.55 1.35.6.6 1.4.6.8 0 1.35-.6.6-.55.6-1.35 0-.7-.45-1.25l2.55-.45-.05.55-.25 1.4q-1.6 2.15-3.8 2.55l-.25.05-.5.05-1.6-.15-3.25-1.65q.4-.2.85-.35m-13.7.7l2.25.3q-.9 1.85-3.4 2.7-2.55.85-5.45-2.05l-1.3-2.05 4.2.65q-.45.55-.45 1.25 0 .8.55 1.35.6.6 1.4.6.8 0 1.35-.6.6-.55.6-1.35l-.15-.8h.4"/><path fill="url(#c)" d="M106.55 66.15l3.4-.85q.45.55.45 1.25 0 .8-.6 1.35-.55.6-1.35.6t-1.4-.6q-.55-.55-.55-1.35l.05-.4"/><path fill="#8E5027" d="M102.3 63.8l-.05.05v-.15l.05.1"/><path fill="url(#d)" d="M113.75 63.75l.05-.05.25-.2q.65-.35 1.3-.25l.65.25.95.85v3.7l-1.65 3.7.5 1.05.05.05q.55 1.6.55 3.9t-1.1 2.3l-1.15-.5q.2-8.25-.55-14l.15-.8"/><path fill="url(#e)" d="M83.45 59.9l.15-.45q-.15-.55.2.05l.95-.15.3-.35 1.55 1.1q1.65 1.15 2.75 1.5 1.05.3 3.9 2.35v-.2q-.15-.25-.15-.5l.4.7q.15.6.4.65v.2l-.9-.15q-.55-.1-1.05-.5L90.1 62.8q-1.3-.9-2.95-1.3l-2.9-.8q-1.3-.4-3.15.85-1.9 1.2-1.85 1.75.05.55-.25.55-.3-.05-.95.95l-.1-.5q0-1.05 1.4-2.25l2.45-1.55-.2-.15v-.4h.5q0-.4.45-.55l.9.5"/><path fill="url(#f)" d="M86.25 67.55l3.3.45.15.8q0 .8-.6 1.35-.55.6-1.35.6t-1.4-.6q-.55-.55-.55-1.35 0-.7.45-1.25"/><path fill="url(#g)" d="M91.95 89.45l-.6-.2v-.05l5-1.45q5.6-.95 8.35 1.3l-.5.25-1.15.5-1.65.15-1.55.8-4.3-.95-3.45-.3-.15-.05"/><path fill="url(#h)" d="M92.1 89.5l3.45.3 4.3.95 1.55-.8 1.65-.15 1.15-.5q-.65 1.85-1.75 2.85-1.8 1.6-4.65.8l-2.45-.8q-2.4-.9-2.9-1.6l-.4-1 .05-.05"/><path fill="url(#i)" d="M97 168.5l1.05-.1 3.7 2.15 4.55-2.4h5q5.95-.25 11-1.55 15.5-4 16.35-17.85h.05q.15.7.05-.15l.15-.05 1.05 3.8q1.1 3.7 1.3 7.1.5 11-8.45 15.3-3.1 2.35-7.85 3.2h-.1q-9.6 1.75-18.05-5.55-7.7 1.05-9.8.25l-2.1-.55-2.4 2.7q-3.15 3.15-6.8 5.2-11.6 6.65-23.7.35-5.55-2.4-9.7-7.6-2.35-3-3.35-6.25l-.05-.1-.15-.45q-2.3-8.25 2.85-18.95h.1l2.15 3.8q3 4.6 7.4 8.25 13.7 11.3 35.5 9.5l.25-.05"/><path fill="url(#j)" d="M97 168.5l-.25.05q-21.8 1.8-35.5-9.5-4.4-3.65-7.4-8.25L51.7 147l.05-.3q.25-.85 1.05-1.75 1.05-1.25 2.15-1.25 1.05 0 1.1 2.1l-.2 2.7q1.1-.3 2.15-1.35.8.85 1.1 1.6l.2 1.6 2.2-.25q0 1.45 3.05 3.9 3.7 3 4.55 4.35 1.25-.9 1.85-1.15l1.35-.25q.95 0 1.95 1.75 1.15 2 1.75 2.25 2.25 1.05 6.5 1.05l1.15-.25 1.1-.3q.7 0 2.15 1.85t3.15 1.9l2.15-.35q1.45-.05 2.35 1.4l.85-.75.65-.6q1.25 0 1.45 2.25l-.15 1-.35.35"/><path fill="url(#k)" d="M124.9 178q-1.2 1.75-2.6 4.85-4.35 4.45-37.2 3.85l-32-1.5-4.15-18.7q1 3.25 3.35 6.25 4.15 5.2 9.7 7.6 12.1 6.3 23.7-.35 3.65-2.05 6.8-5.2l2.4-2.7 2.1.55q2.1.8 9.8-.25 8.45 7.3 18.05 5.55l.05.05"/><path fill="url(#l)" d="M138.85 148.35l.05.2-.15.05v-.25h.1"/><path fill="url(#m)" d="M107.3 168.15l-.85-.25q-.3-.1-.35-.2l-.1-1.2q0-1.65 1.2-1.85h4.05q1.65-.05 2.85-.65 1.15-.65 1.95-.65 1.6 0 3.95 2.9 1.1-.2 1-2.25-.1-1.8 2-1.4l2.7-1.15 3.05-1.55-.55-.65-.2-.65q0-1.3 1.35-1.35l1.4.25q.5 0 1.25-1 .95-1.2 2.35-1.9l.1-1.85-.1-1.5q0-.55 1-1.3l1.15-.95.6-1.5q.2-.6.45-.6.85 0 1.1.8l.1.9-.05.15-.05-.15v.15q-.85 13.85-16.35 17.85-5.05 1.3-11 1.55h-4"/><path fill="url(#n)" d="M63.1 210.9l-.4-.75 1.95-2.7h.4l3.85 1.9q5.25 2.35 11.6 4.4 19.35 6.2 42.1 7.6l1.05.05 2.1.65.25.05.85-.65.55.9 1.15.15q-2.35.45.3.7-1.3.25-.85.45l.2.1q1.5.55-.3.25l-.1-.05q-2.1-.4-1.65.85 0 .7-1.35.7l-2.7-.05q-.55.05-2.1.95-1.45.8-2.55.8l-3.75-1.55q-3.35-1.55-3.85-1.55l-2.3.6-1.65.6q-1.35 0-2.35-1-.95-1-2.05-1l-1.35.05-1.85-.05q-1.1-.2-2.3-1.25-1.15-1-1.75-1l-2.4.35q-.95 0-2.1-.75-1.15-.8-2.75-.8-.4 0-1.45.7l-1.15.65q-2.3 0-4.1-2.35l-2-2.4q-.6 0-.85 1.05-.25 1-1.5 1-1.85 0-3.05-1.7-1.25-1.7-3.15-1.7-5.25 0-5.25-2 0-.55.9-1.05-1.25-.2-2-.85l-.3-.3m65.1 12.85l-.3.25.3-.25"/><path fill="url(#o)" d="M63.1 210.9l.3.3q.75.65 2 .85-.9.5-.9 1.05 0 2 5.25 2 1.9 0 3.15 1.7 1.2 1.7 3.05 1.7 1.25 0 1.5-1 .25-1.05.85-1.05l2 2.4q1.8 2.35 4.1 2.35l1.15-.65q1.05-.7 1.45-.7 1.6 0 2.75.8 1.15.75 2.1.75l2.4-.35q.6 0 1.75 1 1.2 1.05 2.3 1.25l1.85.05 1.35-.05q1.1 0 2.05 1 1 1 2.35 1l1.65-.6 2.3-.6q.5 0 3.85 1.55l3.75 1.55q1.1 0 2.55-.8 1.55-.9 2.1-.95l2.7.05q1.35 0 1.35-.7-.45-1.25 1.65-.85l.1.05 1.15 1q4.7 4.95 10.2 19.6 5.45 14.6 7.35 48.2 1.25-.15-.75.2-3.95.8-9.6 6.1-5.65 5.3-7.6 3.6-2.7-4.35-6.45-7.55-6.5-6.05-8.7-7.5-3.45-2.25-5.35.85-1.85 3.05-4.85 1-5.5-4.7-11.35-8.95-3.7-2.65-7.95-4.55l-6.55-2.6q-6.6-2.75-9.35-9-3.1-7.15-9.4-10.3-3.6-1.8-10.25-2.7l-5.9-1.1-1.55-.5q2.15-6.1 5.45-13.1 6.6-14 12.4-18.45.55-1.85 1.85-4.45 1.3-2.65 2.4-2.9m65.75 12.3q-2.65-.25-.3-.7l.3.7"/><path fill="#600" d="M91.55 34.2l.45.05h-.25l-.2-.05m9.25-.4v-.1l1.5-.25 1.55-.3 2.65.3q1.4.4 3.15 1.7l-.1-.25q-2.8-2.35-4.65-3.2-2.05-.95-4.8-.95t-3.95 1.75q-.95-.95-3.15-1.75-2.25-.85-4.45-1h-.1l-1.05.15-1.3.6h.8l1-.05q-.65.15-1.55.6l-3.75 1.9 1.95-.65 2.4-.05 3 .15-4.45.4q-3.2.5-5.25 1.35-2.15.85-2.6 1.8L76 39.45q2.2-3.55 3.7-4.35 3-1.55 10.4-1-3.25 0-6.95 2.9l3.75-.2 1.3-.1-1.95.6q-4.2 1.55-4.2 4.25h.1q2.85-1.6 4.1-2.75l4.25-.35 3.8.3q1.55.25 3.75 1.25l.45.2.2.55h.1q.5-.9 1.05-1.05l1.5-.05 7.3.7h.65l-.1-.25-5.2-1.55h.9l.75-.05 1.75.3 2.85.7-.05-.05q-1.5-.85-4-1.75-2.2-.8-3.4-.85l.7-.15 4.4.65q2.1.75 2.75 2v-.65q0-1.1-2.75-2.8-3.25-2.05-7.1-2.1m-58.85 88.35l.35-.4 1.65-2.8q5.7-10.85 11.2-37.35.15-14.55 5.2-28.3 10-27.45 34.25-23.5l4.8-.2q5.7.4 10.25 3.55 14.65 10 12.35 43.45l-.2 4q-.15 4.95.2 9.65 1.2 14.95 7.05 21.45l-5.45-1-1.1-.05q-6.25-11.65-7-17.2.25-5.05-.15-8.55v-.55q-1.25 3.75-1.7 6.05-.5 2.4-.5 4.75 0 4.85 1.2 11.35l1.25 6.2-10.65-4-1.3-8 4.05-5.95.9-1.4 3.45-5.75q1.7-3.2 1.95-4.65.4-2.5.25-3.3l-.25-.35 1.45-1.5q1.15-2.05.35-5l-.1-.5-.05-.05-.3-.55-.05-.05 1.6-3.65v-3.6l-1-.9-.55-.25q-.65-.1-1.3.25l-.15.15-.1.05-.05-.1v-.05l-.05-.65.1-1 .1-1.25v-.05l.3-4.65q-.05-2.55-.45-5l-.8-3.1q-.75-2.5-4.75-4-4-1.55-7.55 1.45-8.05-4.25-15.7-1.85-7.65 2.4-10 10.6l-1.9 6.35-.05.15.9 11.25-2.45-6-1.6-.35-2-.35-.75.1-.75.15q-.6.05-.75.35l-.05.65.3 2.55q.4 2.7.7 3.6.7 2.05 1.35 3.1l.75 1.05q.35.6.15 1.4l.35.95-.4 3.5-.4 4.1v2.9q-.05 2.3-.45 4.05l-1.8 8.35q-.6.95-1.45 2.95-.6 1.9-.15 3.95 3-4.9 4.6-9.15 2.95-7.75 2.55-18.8l.9-.55 1.05-.1q.3.35.35 1.45L74 82.9l-.15 1.4.8 3.05q.95 3.1 1.55 3.3.85.3-.25 9.5-1.15 9.45-2.75 11.25-1.45 1.65-9.1 5.5l-7.3 3.5-2.2-.05q2-2.9 4-9.95 2.25-7.95 2.25-14.2 0-2.15-.4-4.75-.45-2.95-1.15-4.4 0 2.25-1.35 7.85l.1 4.15q.1 2-.4 3.8-1.6 5.5-2.65 7.15l-3.15 5.2-1.4 2q-1.35 2.15-1.3 3.25-4.8.25-6.75 1.3l-.45.4m45.95-91.7l.85-.15 1.55.1-2.4.05m.3 6.25l4.2-.1-4.2.1m14.6.15l-.9.05h-.1l1-.05"/><path fill="#510000" d="M102.8 36.85q1.2.05 3.4.85 2.5.9 4 1.75l.05.05-2.85-.7-1.75-.3-.75.05h-.9l5.2 1.55.1.25h-.65l-7.3-.7-1.5.05q-.55.15-1.05 1.05h-.1l-.2-.55-.45-.2q-2.2-1-3.75-1.25l-3.8-.3-4.25.35q-1.25 1.15-4.1 2.75h-.1q0-2.7 4.2-4.25l1.95-.6-1.3.1-3.75.2q3.7-2.9 6.95-2.9-7.4-.55-10.4 1-1.5.8-3.7 4.35l1.65-3.5q.45-.95 2.6-1.8 2.05-.85 5.25-1.35l4.45-.4-3-.15-2.4.05-1.95.65 3.75-1.9q.9-.45 1.55-.6l-1 .05h-.8l1.3-.6 1.05-.15h.1q2.2.15 4.45 1 2.2.8 3.15 1.75 1.2-1.75 3.95-1.75t4.8.95q1.85.85 4.65 3.2l.1.25q-1.75-1.3-3.15-1.7l-2.65-.3-1.55.3-1.5.25v.1q3.85.05 7.1 2.1 2.75 1.7 2.75 2.8v.65q-.65-1.25-2.75-2l-4.4-.65-.7.15-1 .05h.1l.9-.05M91.55 34.2l.2.05H92l-.45-.05m30.95 76.45q-5-.25-6.85 2.05h-.05l-1.25-6.2q-1.2-6.5-1.2-11.35 0-2.35.5-4.75.45-2.3 1.7-6.05v.55q.4 3.5.15 8.55.75 5.55 7 17.2M69.15 79l.4.95.75.8 1.35.1q.4 11.05-2.55 18.8-1.6 4.25-4.6 9.15-.45-2.05.15-3.95.85-2 1.45-2.95l1.8-8.35q.4-1.75.45-4.05v-2.9l.4-4.1.4-3.5M54.6 120.35h-3.65l-1.8.1q-.05-1.1 1.3-3.25l1.4-2L55 110q1.05-1.65 2.65-7.15.5-1.8.4-3.8l-.1-4.15q1.35-5.6 1.35-7.85.7 1.45 1.15 4.4.4 2.6.4 4.75 0 6.25-2.25 14.2-2 7.05-4 9.95M88.2 36.7l4.2-.1-4.2.1m-.3-6.25l2.4-.05-1.55-.1-.85.15"/><path fill="none" stroke="#8E5027" stroke-width=".05" stroke-linecap="round" stroke-linejoin="round" d="M114 61.3q.3-3 .2-5.35L114 54l-.25-3.05-.3-2.2q-.65-4.35-2.35-7.5-5.2-9.55-19.85-8.65-7.45.7-14.1 4.95-13.25 8.5-9.05 27.1V64.8l1.8.45 1.4.6M114 61.3v1l-.1-.15-.05.6v.05l-.1.8v.15l.05-.05.25-.2m1.3-.25l.65.25.95.85v3.7l-1.65 3.7.5 1.05.05.05q.55 1.6.55 3.9t-1.1 2.3l-1.15-.5-.05.5-.1 3.2q-.45 2.3-1.95 5.35L110 91.25l-.55.9-1.75 2.6-.9 1.2-3.95 5.65-2.05 1.05q-4.35-.05-12.65-4.45l-7.4-4.45-2.4-1.6q-2.5-2.2-3.8-6.2l-.95-5.1q-.45.55-2.1.85-1.95.35-2.85-2.35l-.5-2.8-.2-.05m-.2-.2l-.45-.65q-.85-1.45-1.65-4.65l-.45-1.85-.25-1.9m.4-1.6q.6-1 2.25-.9l.45.05h.05m34.2-1l-.05.05m9.1-6.2l.15.05m-2.65 6.95l.6-.35.4.25.95-.6 1.1-.9v.5l.95-1.1.25.5.2.55.45-.7.05-.05v.05m-5.4 1.8l.15.1.3-.05-.4-.05h-.05l-.25-.15-.8.35-.3-.15-.35.45q-.2.45-.75.25l-.95.95-1.35 1 1.55-.7 1.35-.45 3.4-.85 2.55-.45-.05.55-.25 1.4q-1.6 2.15-3.8 2.55m0 .05l1.85-.45 1.8-.5v-.1l-.25-.25.1-.05h1.25v-.1l-.3-.4-.35-.2h.05l.6-.05.4-.3-.4-.65v.05l-.05.05v-.05l.4-1.6.05-.25.2-1 .05-.75m-10.15 4.5q-.45.15-.85.35l3.25 1.65 1.6.15.5-.05.25-.05m0 .05h-.25m5.45-4.85l.15-.8m-26.9 3.3v-.3l2.7 1.2.4.05 2.25.3q-.9 1.85-3.4 2.7-2.55.85-5.45-2.05l-2.2-.1h-.05.05l.6-.45q-.5-.5-1.5-.4l.8-.5.1-.1-1.2-.5-.2-.2-.5-.95v-.25h.45q-.35-1 .25-.3m-.65-1.3h.05m1.1 1.75l.05.05v-.05l.15-.8.2.4.45.55h.15v-.45l.25-.35.75 1.15.05.05v-1.05l.7.8 1 .6.25-.7-.05-.65v-.05l.05.05.8.85.95.7v-.3l.65.65v-.05.05m2.7.9h.4m-3.7-.45l3.3.45m-3.3-.45l-4.2-.65 1.3 2.05m17.5-2.05l-.35.9q-.3 1.2-.2 2.5M94 79.55l-.65 1q-.45 1.25.65 2.35m1.45.05l1.4-.55q1.7-.25 3.45 1.3l1.65-.45q1.55-1 1.1-3.7-1.85-3.45-1.9-5.3m-9.8 15l.6.2.15.05 3.45.3 4.3.95 1.55-.8 1.65-.15 1.15-.5.5-.25q-2.75-2.25-8.35-1.3l-5 1.45m0 .05l-.1-.05h.1m.6.25l.1.1.4 1q.5.7 2.9 1.6l2.45.8q2.85.8 4.65-.8 1.1-1 1.75-2.85m-.05-10.3l.35 1.45q.2 1.6-.5 2.3m9.6-18.2q.75 5.75.55 14m-40.55 2.3l.1-.25v.05l-.1.2"/><path fill="none" stroke="#8A6926" stroke-width=".05" stroke-linecap="round" stroke-linejoin="round" d="M111.5 57.7h-.1q.9.5 1.3.55.75.05 1.05 1.45l.15.9m0 .05l.1.65m-.1.85l-.1-.25q-.7-1.35-.85-1.9-.15-.65-.9-.85-.8-.2-3 1.2l-2.8 1.65-2.9 1.05-.85.55-.2.2m-.05-.1l.5-1.1.9-.7q3-1.2 6.4-3.75l.25-.2 1.1-.25h-.05v-.05m.15.05h-.15m2.55 4.45l.1-.85m-30.55-1.4l.15-.45q-.15-.55.2.05l.95-.15.3-.35 1.55 1.1q1.65 1.15 2.75 1.5 1.05.3 3.9 2.35v-.2q-.15-.25-.15-.5l.4.7q.15.6.4.65v.2l-.9-.15q-.55-.1-1.05-.5L90.1 62.8q-1.3-.9-2.95-1.3l-2.9-.8q-1.3-.4-3.15.85-1.9 1.2-1.85 1.75.05.55-.25.55-.3-.05-.95.95l-.1-.5q0-1.05 1.4-2.25l2.45-1.55-.2-.15v-.4h.5q0-.4.45-.55l.9.5"/><path fill="none" stroke="#371D0C" stroke-width=".05" stroke-linecap="round" stroke-linejoin="round" d="M51.6 147l.15-.3q.25-.85 1.05-1.75 1.05-1.25 2.15-1.25 1.05 0 1.1 2.1l-.2 2.7q1.1-.3 2.15-1.35.8.85 1.1 1.6l.2 1.6 2.2-.25q0 1.45 3.05 3.9 3.7 3 4.55 4.35 1.25-.9 1.85-1.15l1.35-.25q.95 0 1.95 1.75 1.15 2 1.75 2.25 2.25 1.05 6.5 1.05l1.15-.25 1.1-.3q.7 0 2.15 1.85t3.15 1.9l2.15-.35q1.45-.05 2.35 1.4l.85-.75.65-.6q1.25 0 1.45 2.25l-.15 1-.35.35 1.05-.1 3.7 2.15 4.55-2.4h1l-.85-.25q-.3-.1-.35-.2l-.1-1.2q0-1.65 1.2-1.85h4.05q1.65-.05 2.85-.65 1.15-.65 1.95-.65 1.6 0 3.95 2.9 1.1-.2 1-2.25-.1-1.8 2-1.4l2.7-1.15 3.05-1.55-.55-.65-.2-.65q0-1.3 1.35-1.35l1.4.25q.5 0 1.25-1 .95-1.2 2.35-1.9l.1-1.85-.1-1.5q0-.55 1-1.3l1.15-.95.6-1.5q.2-.6.45-.6.85 0 1.1.8l.05.1.15.55.05.2 1.05 3.8q1.1 3.7 1.3 7.1.5 11-8.45 15.3-3.1 2.35-7.85 3.2l-.05.05q-1.2 1.75-2.6 4.85-4.35 4.45-37.2 3.85l-32-1.5-4.15-18.7-.05-.1-.15-.45q-2.3-8.25 2.85-18.95m.1 0l.05-.3m-2.8 19.8q1 3.25 3.35 6.25 4.15 5.2 9.7 7.6 12.1 6.3 23.7-.35 3.65-2.05 6.8-5.2l2.4-2.7 2.1.55q2.1.8 9.8-.25 8.45 7.3 18.05 5.55h.1M51.7 147l2.15 3.8q3 4.6 7.4 8.25 13.7 11.3 35.5 9.5l.25-.05m41.75-19.9q.1.85-.05.15l-.05-.15v.15q-.85 13.85-16.35 17.85-5.05 1.3-11 1.55h-4m31.45-19.8l-.05-.55m-.05-.1l.1.9v-.25m0 .25l-.05.15m-10.15 73.75l-1.15-.15-.55-.9-.85.65-.25-.05-2.1-.65-1.05-.05q-22.75-1.4-42.1-7.6-6.35-2.05-11.6-4.4l-3.85-1.9h-.4l-1.95 2.7.4.75.3.3q.75.65 2 .85-.9.5-.9 1.05 0 2 5.25 2 1.9 0 3.15 1.7 1.2 1.7 3.05 1.7 1.25 0 1.5-1 .25-1.05.85-1.05l2 2.4q1.8 2.35 4.1 2.35l1.15-.65q1.05-.7 1.45-.7 1.6 0 2.75.8 1.15.75 2.1.75l2.4-.35q.6 0 1.75 1 1.2 1.05 2.3 1.25l1.85.05 1.35-.05q1.1 0 2.05 1 1 1 2.35 1l1.65-.6 2.3-.6q.5 0 3.85 1.55l3.75 1.55q1.1 0 2.55-.8 1.55-.9 2.1-.95l2.7.05q1.35 0 1.35-.7-.45-1.25 1.65-.85l.1.05.3-.25-.2-.1q-.45-.2.85-.45-2.65-.25-.3-.7l-1.7-1.05-1.1.6.85-1.15-2.95.5m4.55 2.35l.65-.55-.3-.7m-.65 1.5q1.8.3.3-.25M63.1 210.9q-1.1.25-2.4 2.9-1.3 2.6-1.85 4.45-5.8 4.45-12.4 18.45-3.3 7-5.45 13.1l1.55.5 5.9 1.1q6.65.9 10.25 2.7 6.3 3.15 9.4 10.3 2.75 6.25 9.35 9L84 276q4.25 1.9 7.95 4.55 5.85 4.25 11.35 8.95 3 2.05 4.85-1 1.9-3.1 5.35-.85 2.2 1.45 8.7 7.5 3.75 3.2 6.45 7.55 1.95 1.7 7.6-3.6 5.65-5.3 9.6-6.1 2-.35.75-.2-1.9-33.6-7.35-48.2-5.5-14.65-10.2-19.6l-1.15-1m-63.25-16.55h-.6l-1 1.1-.45.95.1.65M41.95 122.15l.35-.4 1.65-2.8q5.7-10.85 11.2-37.35.15-14.55 5.2-28.3 10-27.45 34.25-23.5l4.8-.2q5.7.4 10.25 3.55 14.65 10 12.35 43.45l-.2 4q-.15 4.95.2 9.65 1.2 14.95 7.05 21.45l-5.45-1-1.1-.05q-5-.25-6.85 2.05h-.05l-10.65-4-1.3-8 4.05-5.95.9-1.4 3.45-5.75q1.7-3.2 1.95-4.65.4-2.5.25-3.3l-.25-.35 1.45-1.5q1.15-2.05.35-5l-.1-.5-.05-.05-.3-.55-.05-.05 1.6-3.65v-3.6l-1-.9-.55-.25q-.65-.1-1.3.25l-.15.15-.1.05-.05-.1v-.05l-.05-.65.1-1 .1-1.25v-.05l.3-4.65q-.05-2.55-.45-5l-.8-3.1q-.75-2.5-4.75-4-4-1.55-7.55 1.45-8.05-4.25-15.7-1.85-7.65 2.4-10 10.6l-1.9 6.35-.05.15.9 11.25-2.45-6-1.6-.35-2-.35-.75.1-.75.15q-.6.05-.75.35l-.05.65.3 2.55q.4 2.7.7 3.6.7 2.05 1.35 3.1l.75 1.05q.35.6.15 1.4l.35.95.4.95.75.8 1.35.1.9-.55 1.05-.1q.3.35.35 1.45L74 82.9l-.15 1.4.8 3.05q.95 3.1 1.55 3.3.85.3-.25 9.5-1.15 9.45-2.75 11.25-1.45 1.65-9.1 5.5l-7.3 3.5-2.2-.05h-3.65l-1.8.1q-4.8.25-6.75 1.3l-.45.4-.4.35m73.8-37.6v-.55"/></svg>