<svg xmlns="http://www.w3.org/2000/svg" viewBox="0 0 200 500" width="200" height="500" preserveAspectRatio="xMinYMin"><defs><linearGradient gradientUnits="userSpaceOnUse" x1="-819.2" x2="819.2" gradientTransform="matrix(-.119 0 0 -.253 102.35 292.2)" id="a"><stop offset="0" stop-color="#D98651"/><stop offset=".533" stop-color="#DFA168"/><stop offset="1" stop-color="#D98651"/></linearGradient><linearGradient gradientUnits="userSpaceOnUse" x1="-819.2" x2="819.2" gradientTransform="matrix(-.006 .008 -.026 -.019 59.8 175.45)" id="b"><stop offset="0" stop-color="#D98651"/><stop offset=".533" stop-color="#DFA168"/><stop offset="1" stop-color="#D98651"/></linearGradient><linearGradient gradientUnits="userSpaceOnUse" x1="-819.2" x2="819.2" gradientTransform="matrix(-.006 .08 -.049 -.003 85.75 209.1)" id="c"><stop offset="0" stop-color="#D98651"/><stop offset=".533" stop-color="#DFA168"/><stop offset="1" stop-color="#D98651"/></linearGradient><linearGradient gradientUnits="userSpaceOnUse" x1="-819.2" x2="819.2" gradientTransform="matrix(.005 .007 -.02 .014 134.05 174)" id="d"><stop offset="0" stop-color="#D98651"/><stop offset=".533" stop-color="#DFA168"/><stop offset="1" stop-color="#D98651"/></linearGradient><linearGradient gradientUnits="userSpaceOnUse" x1="-819.2" x2="819.2" gradientTransform="matrix(-.033 .008 -.04 -.161 143.75 356.45)" id="e"><stop offset="0" stop-color="#D98651"/><stop offset=".533" stop-color="#DFA168"/><stop offset="1" stop-color="#D98651"/></linearGradient><linearGradient gradientUnits="userSpaceOnUse" x1="-819.2" x2="819.2" gradientTransform="matrix(-.043 .011 -.041 -.166 83.55 358.65)" id="f"><stop offset="0" stop-color="#D98651"/><stop offset=".533" stop-color="#DFA168"/><stop offset="1" stop-color="#D98651"/></linearGradient><linearGradient gradientUnits="userSpaceOnUse" x1="-819.2" x2="819.2" gradientTransform="matrix(.119 0 0 .253 102.35 292.2)" id="g"><stop offset="0" stop-color="#D98651"/><stop offset=".533" stop-color="#DFA168"/><stop offset="1" stop-color="#D98651"/></linearGradient></defs><path fill="url(#a)" d="M76.7 91.9l-.2-.05.5-7.15 27.25.7-.4 14.35v3q.2 3.15 1.3 5.8l2.65 1.2q3.45 1.45 7.65 2.6l2.4-.5 5.8-.55q9.1-.25 13.4 3.95 2.4-.05 4.4 3.25 4.1 6.65 2.55 23.5 2.05 7.45 4.1 16.05 4.15 17.15 4.15 22.6 1.95 1.1 4.1 5.1 4.3 7.95 5.3 22.3.7 8 2.1 17.2 2.7 18.35 5.9 24.3l2.05 2.9 4.1 6.6q5.65 10.1 2.55 13L175 274.8l-.9 3.3-5.15 2.95q-5.5 2.9-6.9 2.65l-1.25-1.4q-1.25-1.8-.95-3.75l3.75-4.9-2.9-10.05v8.95l-1.1 3.55-2.45 1.35q-1.25-2.9-2.4-6.55-2.3-7.15-1.6-10.65l4.65-6.2q.5-1.7.35-4.8-.25-6.15-3.2-13.3-4.45-5.75-9.15-14.25-9.3-17-10.3-30.85-1.8-1.7-3.7-4.4-3.75-5.45-4.15-10.45l-.05-.25 4.8-1.85 2.25-1.25q2.5-1.75 4.1-4.45 5.05-8.6-1.2-23.1l-4.65-5.85q-3.05-4.25-4.75-7.5.85 3.95 3.6 11.05 2.25 5.8 2.25 11.7 0 6.2-3.4 10.45-3.8 4.8-10.45 4.8-6.95 0-10.15-5.15-2.1-3.35-3.75-12.1v.35l-.25-.75-.25-1.1q-.05-.9-1-2.9l-1.75-3.7v.05q-.35.85-.4 2.15v3.05l-1.7 9.15h-.15q-2.65 4.85-7.8 6.95-4.85 2-13 2l-6.3.1-6.6-.45q-2.8-.45-5.05-2.25-1.95-1.55-2.35-3.15-1.6-5.95-1.75-8.1l.05-6.8.05-8.1q.1-3.75.5-6.75-4.1 6.65-6.9 14.7-2.85 8.1-2.55 14.1l.15 1.65-.65 3.15-.1.25q-2.55 11.6-9.55 34.15-.15 5.55-1.65 15.75l-1.45 9q-5 9.5-11.3 26.5-3.15 8.5-5.25 15.1l2.35 3.7q4 1.6 6.15 6 1.1 2.2 1.3 4.05-.15 1.2-2.2 3.7l-2.15 2.45.15.05 1 .45q.65 1.65.05 4.15l-.8 2.1q-.5 2.6-2.7 3.05l-2.1-.05q-3.65-.6-6.6-2-2.9-1.35-5.2-3.5-2.3-2.15-3.15-4.1-.75-2.2.15-8.95.4-2.95 1.15-6.8L13 242.55q-2.65-21.2 2.8-37.2 2.7-7.95 5.95-11.7.2-9.9 2.6-22.85 1.2-6.45 2.35-10.95l-1.1-12.45q-2.65-17.45 13.9-24.1 8.25-3.3 17.1-3.1 3.65-2.45 10.6-5.6l6.25-2.65q1.45-4.2 2.5-12.55l.75-7.5M20.1 279q-.25 2.8 1.55 5.05 1.2 1.35 3.05 2.45-1.85-1.1-3.05-2.45-1.8-2.25-1.55-5.05h.75v-.05l-.15-1.8q-.25-1.7-.6 1.85m.75.55V279v.55m64.4-156.15q-2.95-3.85-12.25-4.35l-8.7.3 8.7-.3q9.3.5 12.25 4.35m17.85-.6q-1.15.65-2.05 2.8l-.7 2.05-.1.2.1-.2.7-2.05q.9-2.15 2.05-2.8m10.45-5.85q-3.5.5-6.65 2.3l-2.35 1.7 2.35-1.7q3.15-1.8 6.65-2.3m11.7 5.2q-.3 1.95.5 4.2l.85 1.85 1.25 3-1.25-3-.85-1.85q-.8-2.25-.5-4.2m-28.9 8.05h.05q2.7-.3 3.85-2.35l-2.25 1.7-1.65.65-1.75-.05 1.75.05m-2.55-.1l.9.65q.45.25-.4-.6h.3l-.6-.3-.3-.25.3.3-.2.2m-6-3.85q.8.2 1.95.75 2.25 1 3.9 2.55l.05.05-.05-.05Q92 128 89.75 127q-1.15-.55-1.95-.75"/><path fill="url(#b)" d="M58.5 132.25q-.4 3-.5 6.75l-.05 8.1-.05 6.8q.15 2.15 1.75 8.1.4 1.6 2.35 3.15 2.25 1.8 5.05 2.25l6.6.45 6.3-.1q8.15 0 13-2 5.15-2.1 7.8-6.95h.15v.6q-.6 2.85-2.05 5.65l-1.65 3-.4.75-.25.25q-14.7 17.2-30.65 11.25-8.15-3.05-13.4-9.75-2.75-3.15-3.3-7.85l-.15-1.65q-.3-6 2.55-14.1 2.8-8.05 6.9-14.7"/><path fill="url(#c)" d="M49.2 162.7q.55 4.7 3.3 7.85 5.25 6.7 13.4 9.75 15.95 5.95 30.65-11.25l.25-.25.4-.75 1.65-3q1.45-2.8 2.05-5.65v-.6l1.7-9.15v-3.05q.05-1.3.4-2.15v-.05l1.75 3.7q.95 2 1 2.9l.25 1.1.25.75q-1.3 17.25 3.3 20.6 6.65 4.8 15.4 3-3.05 5.35-4.9 18.45l-1.25 12.45q3.15 4.65 5.2 10.1l1.1 3.4-.3.1q.1 9.85-1.8 14.75-1.2 3.15-2.55 7.95-1.3 4-3.7 7.25l.25.25q-5.05 4.35-10.2 9.65-9.25 9.65-10.7 14.9l-.35-.1q-9.55-15.45-19.4-19.35l-.55-.6-6.2-7q-3.4-4.15-6.45-8.75-2.45-3.65-2.25-10.05v-9.65l.05-.05q-.25-4.4 2.25-9.1 1.25-2.4 2.55-3.9-7.2-7.35-12.9-25.05-2.85-8.75-4.25-16.05l-.05-.2.65-3.15"/><path fill="url(#d)" d="M106.25 152.85v-.35q1.65 8.75 3.75 12.1 3.2 5.15 10.15 5.15 6.65 0 10.45-4.8 3.4-4.25 3.4-10.45 0-5.9-2.25-11.7-2.75-7.1-3.6-11.05 1.7 3.25 4.75 7.5l4.65 5.85q6.25 14.5 1.2 23.1-1.6 2.7-4.1 4.45l-2.25 1.25-4.8 1.85-2.45.7h-.2q-8.75 1.8-15.4-3-4.6-3.35-3.3-20.6"/><path fill="url(#e)" d="M125.1 220.85l.35 1.1q9.4 6.95 14.4 29.7Q142.35 263 143 273q1.1 5.95.8 37.6l-.5 30.5q0 4.15.95 6.6.4 1.25.85 1.65 8.25 7.4 12.5 28.95 2.1 10.75 2.55 20 1.35 5.75 8.4 21.8l6.8 14.9 2.5 1.45q2.85 1.5 3.3 5.25v.15q.15 1.9-.25 3.5l4.8 4.55 10.05 9.4q4.35 4.05 3.95 6.7-.2 1.35-1.25 1.9l-1.15 3.15q-1.8 4.2-4.95 9.55-3.1 5.4-6.85 5.45-1.2.05-2.3-.5l-.85-.5q-2.8-3-7.4-18.05l-4.05-14.45-2.7-2.35q-2.7-1.45-3.75-3.85l-.65-2.05q-.2-1.15-.05-2.4l.2-.95q-3.6-12.3-14.25-30.05l-6.95-10.9-3-4.35q-10.25-7.15-15.3-23.4-1.55-5.1-2.4-10.5l-.55-4.35q-4.45-3.6-9.05-14.75l-3.7-10.5v-.05q.9-27.55-4.85-40.75-2.95-7.4-7.9-15.35l.1-.3q1.45-5.25 10.7-14.9 5.15-5.3 10.2-9.65l-.25-.25q2.4-3.25 3.7-7.25 1.35-4.8 2.55-7.95 1.9-4.9 1.8-14.75l.3-.1m10.9 119.4q-1.55 3 .15 5.55.9 1.25 2.05 1.95 1.1 8.8-3.3 9.85l-3.1-.15-1.5-.6 1.5.6 3.1.15q4.4-1.05 3.3-9.85-1.15-.7-2.05-1.95-1.7-2.55-.15-5.55"/><path fill="url(#f)" d="M108.75 332.15v.2q-.3 8.3-1.2 17l-.8 7q5.05 12.7 1.25 35.9-1.9 11.6-4.8 20.65-2.75 7-3 20.15-.1 4.7.1 8.65l.2 3.1 1 1.55q1.75 3.05 1.1 5.6-.4 1.6-1.4 2.45l1.75 6.75-1.55 6.25 5.1 16.2q1.35 6 .95 8.35-.4 2.35-1.45 3.45-.55.5-1 .6l-6.75 3.1-5.85.55-8.4-.55q-2.1-.8-3.75-4.05l-1.15-3.1L82 480.8q2.95-11.55 2.65-13.65-.25-2.1 1.1-8.15l1.35-5.7q-2.2-3.35-.75-5.8.4-.65 1-1.15l.2-.2.7-.4.05-4.05-.55-11.7-.85-11.8q-11.2-26.35-9.4-46.85.55-6.4 2.3-11.45l1.7-3.75q-7.25-8.1-19.6-34.9-6.25-13.45-10.95-25.2-9.6-24.25-7.35-43.35.95-8.15 4.1-15.35 3.3-7.55 8.6-13.15 2.6-2.7 4.6-4v9.65q-.2 6.4 2.25 10.05 3.05 4.6 6.45 8.75l6.2 7 .55.6q9.85 3.9 19.4 19.35l.25.4q-.15.55-.15 1.05 0-.5.15-1.05 4.95 7.95 7.9 15.35 5.75 13.2 4.85 40.75v.05m-7.25 32.4q-6.9 5.55-9.15 1.65-.7-1.25-.85-3.25v-1.8l.35-4.55-.15-1.35q-1.55-1.25-3-4.35l-1.15-2.85 1.15 2.85q1.45 3.1 3 4.35l.15 1.35-.35 4.55v1.8q.15 2 .85 3.25 2.25 3.9 9.15-1.65"/><path fill="url(#g)" d="M20.85 278.95v.05h-.75l.75-.05"/><path fill="none" stroke="#9B5526" stroke-width=".05" stroke-linecap="round" stroke-linejoin="round" d="M76.7 91.9l-.75 7.5q-1.05 8.35-2.5 12.55l-6.25 2.65q-6.95 3.15-10.6 5.6-8.85-.2-17.1 3.1-16.55 6.65-13.9 24.1l1.1 12.45q-1.15 4.5-2.35 10.95-2.4 12.95-2.6 22.85-3.25 3.75-5.95 11.7-5.45 16-2.8 37.2L6.65 270.9q-.75 3.85-1.15 6.8-.9 6.75-.15 8.95.85 1.95 3.15 4.1 2.3 2.15 5.2 3.5 2.95 1.4 6.6 2l2.1.05q2.2-.45 2.7-3.05l.8-2.1q.6-2.5-.05-4.15l-1-.45-.15-.05q-1.85-1.1-3.05-2.45-1.8-2.25-1.55-5.05.35-3.55.6-1.85l.15 1.8V279.55m83-179.8l.4-14.35L77 84.7l-.5 7.15m-12.2 27.5l8.7-.3q9.3.5 12.25 4.35m-26.75 8.85q-4.1 6.65-6.9 14.7-2.85 8.1-2.55 14.1l.15 1.65q.55 4.7 3.3 7.85 5.25 6.7 13.4 9.75 15.95 5.95 30.65-11.25l.25-.25.4-.75m9.05-15.2v-.35m21.9-20.75q1.7 3.25 4.75 7.5l4.65 5.85q6.25 14.5 1.2 23.1-1.6 2.7-4.1 4.45l-2.25 1.25-4.8 1.85m.05.25q.4 5 4.15 10.45 1.9 2.7 3.7 4.4 1 13.85 10.3 30.85 4.7 8.5 9.15 14.25 2.95 7.15 3.2 13.3.15 3.1-.35 4.8l-4.65 6.2q-.7 3.5 1.6 10.65 1.15 3.65 2.4 6.55l2.45-1.35 1.1-3.55v-8.95l2.9 10.05-3.75 4.9q-.3 1.95.95 3.75l1.25 1.4q1.4.25 6.9-2.65l5.15-2.95.9-3.3 3.35-2.75q3.1-2.9-2.55-13l-4.1-6.6-2.05-2.9q-3.2-5.95-5.9-24.3-1.4-9.2-2.1-17.2-1-14.35-5.3-22.3-2.15-4-4.1-5.1 0-5.45-4.15-22.6-2.05-8.6-4.1-16.05 1.55-16.85-2.55-23.5-2-3.3-4.4-3.25-4.3-4.2-13.4-3.95l-5.8.55-2.4.5q-4.2-1.15-7.65-2.6l-2.65-1.2q-1.1-2.65-1.3-5.8v-2.7m-55.3 65.8l.65-3.15m-.65 3.15l-.1.25q-2.55 11.6-9.55 34.15-.15 5.55-1.65 15.75l-1.45 9q-5 9.5-11.3 26.5-3.15 8.5-5.25 15.1l2.35 3.7q4 1.6 6.15 6 1.1 2.2 1.3 4.05-.15 1.2-2.2 3.7l-2.15 2.45m36.2-66.3l.05-.05q-.25-4.4 2.25-9.1 1.25-2.4 2.55-3.9-7.2-7.35-12.9-25.05-2.85-8.75-4.25-16.05l-.05-.2m79.3-34.65l-1.25-3-.85-1.85q-.8-2.25-.5-4.2m-20.7-1.2l2.35-1.7q3.15-1.8 6.65-2.3m-13.3 10.9l.1-.2.7-2.05q.9-2.15 2.05-2.8m-6.75 7.4l1.65-.65 2.25-1.7q-1.15 2.05-3.85 2.35h-.05l-1.75-.05h-.3q.85.85.4.6l-.9-.65m.2-.2l-.3-.3-.05-.05Q92 128 89.75 127q-1.15-.55-1.95-.75m6.8 3.9l-.6-.3-.3-.25m.6.55l-.5-.05m.2-.2l.3.25m11.95 22.7q-1.3 17.25 3.3 20.6 6.65 4.8 15.4 3h.2l2.45-.7m-2.65.7q-3.05 5.35-4.9 18.45l-1.25 12.45q3.15 4.65 5.2 10.1l1.1 3.4.35 1.1q9.4 6.95 14.4 29.7Q142.35 263 143 273q1.1 5.95.8 37.6l-.5 30.5q0 4.15.95 6.6.4 1.25.85 1.65 8.25 7.4 12.5 28.95 2.1 10.75 2.55 20 1.35 5.75 8.4 21.8l6.8 14.9 2.5 1.45q2.85 1.5 3.3 5.25v.15q.15 1.9-.25 3.5l4.8 4.55 10.05 9.4q4.35 4.05 3.95 6.7-.2 1.35-1.25 1.9l-1.15 3.15q-1.8 4.2-4.95 9.55-3.1 5.4-6.85 5.45-1.2.05-2.3-.5l-.85-.5q-2.8-3-7.4-18.05l-4.05-14.45-2.7-2.35q-2.7-1.45-3.75-3.85l-.65-2.05q-.2-1.15-.05-2.4l.2-.95q-3.6-12.3-14.25-30.05l-6.95-10.9-3-4.35q-10.25-7.15-15.3-23.4-1.55-5.1-2.4-10.5l-.55-4.35q-4.45-3.6-9.05-14.75l-3.7-10.5v.2q-.3 8.3-1.2 17l-.8 7q5.05 12.7 1.25 35.9-1.9 11.6-4.8 20.65-2.75 7-3 20.15-.1 4.7.1 8.65l.2 3.1 1 1.55q1.75 3.05 1.1 5.6-.4 1.6-1.4 2.45l1.75 6.75-1.55 6.25 5.1 16.2q1.35 6 .95 8.35-.4 2.35-1.45 3.45-.55.5-1 .6l-6.75 3.1-5.85.55-8.4-.55q-2.1-.8-3.75-4.05l-1.15-3.1L82 480.8q2.95-11.55 2.65-13.65-.25-2.1 1.1-8.15l1.35-5.7q-2.2-3.35-.75-5.8.4-.65 1-1.15l.2-.2.7-.4.05-4.05-.55-11.7-.85-11.8q-11.2-26.35-9.4-46.85.55-6.4 2.3-11.45l1.7-3.75q-7.25-8.1-19.6-34.9-6.25-13.45-10.95-25.2-9.6-24.25-7.35-43.35.95-8.15 4.1-15.35 3.3-7.55 8.6-13.15 2.6-2.7 4.6-4m15.45 36.05q9.85 3.9 19.4 19.35l.25.4.1-.3q1.45-5.25 10.7-14.9 5.15-5.3 10.2-9.65M96 276q-.15.55-.15 1.05M96 276q4.95 7.95 7.9 15.35 5.75 13.2 4.85 40.75v.05m21.55 24.7l1.5.6 3.1.15q4.4-1.05 3.3-9.85-1.15-.7-2.05-1.95-1.7-2.55-.15-5.55m-48.45 7.8l1.15 2.85q1.45 3.1 3 4.35l.15 1.35-.35 4.55v1.8q.15 2 .85 3.25 2.25 3.9 9.15-1.65"/><path fill="none" stroke="#630" stroke-width=".05" stroke-linecap="round" stroke-linejoin="round" d="M101.25 214.65h.75v-3.8q-.75-.4-1.15-.8 0 3.1.4 4.6"/></svg>