<svg xmlns="http://www.w3.org/2000/svg" viewBox="0 0 210 500" width="210" height="500" preserveAspectRatio="xMinYMin"><defs><linearGradient gradientUnits="userSpaceOnUse" x1="-819.2" x2="819.2" gradientTransform="matrix(.002 .008 -.03 .008 39.45 115.75)" id="a"><stop offset="0" stop-color="#C96A2C"/><stop offset="1" stop-color="#DFA168"/></linearGradient><linearGradient gradientUnits="userSpaceOnUse" x1="-819.2" x2="819.2" gradientTransform="matrix(-.005 -.008 .009 -.005 34.05 171.5)" id="b"><stop offset="0" stop-color="#C96A2C"/><stop offset="1" stop-color="#DFA168"/></linearGradient><linearGradient gradientUnits="userSpaceOnUse" x1="-819.2" x2="819.2" gradientTransform="matrix(.126 0 0 .142 103.25 181.15)" id="gradient2"><stop offset="0" stop-color="#D98651"/><stop offset=".533" stop-color="#DFA168"/><stop offset="1" stop-color="#D98651"/></linearGradient><linearGradient gradientUnits="userSpaceOnUse" x1="-819.2" x2="819.2" gradientTransform="matrix(0 .009 -.021 0 154.4 114.95)" id="d"><stop offset="0" stop-color="#C96A2C"/><stop offset="1" stop-color="#DFA168"/></linearGradient><linearGradient gradientUnits="userSpaceOnUse" x1="-819.2" x2="819.2" gradientTransform="matrix(.008 -.005 .007 .012 165.95 182.3)" id="e"><stop offset="0" stop-color="#C96A2C"/><stop offset="1" stop-color="#DFA168"/></linearGradient><linearGradient gradientUnits="userSpaceOnUse" x1="-819.2" x2="819.2" gradientTransform="matrix(0 .13 -.126 0 103.6 190.75)" id="f"><stop offset="0" stop-color="#D98651"/><stop offset=".533" stop-color="#DFA168"/><stop offset="1" stop-color="#D98651"/></linearGradient><linearGradient gradientUnits="userSpaceOnUse" x1="-819.2" x2="819.2" gradientTransform="matrix(-.006 -.025 .04 -.01 84.8 127.3)" id="g"><stop offset="0" stop-color="#C96A2C"/><stop offset="1" stop-color="#DFA168"/></linearGradient><radialGradient gradientUnits="userSpaceOnUse" r="819.2" cx="0" cy="0" spreadMethod="pad" gradientTransform="matrix(.082 0 0 .082 105.55 177.3)" id="h"><stop offset=".196" stop-color="#DFA168"/><stop offset="1" stop-color="#C96A2C"/></radialGradient><linearGradient gradientUnits="userSpaceOnUse" x1="-819.2" x2="819.2" gradientTransform="matrix(-.009 -.025 .03 -.011 134 123.8)" id="i"><stop offset="0" stop-color="#C96A2C"/><stop offset="1" stop-color="#DFA168"/></linearGradient><linearGradient gradientUnits="userSpaceOnUse" x1="-819.2" x2="819.2" gradientTransform="matrix(-.043 .025 -.07 -.123 134.4 361.9)" id="j"><stop offset="0" stop-color="#D98651"/><stop offset=".533" stop-color="#DFA168"/><stop offset="1" stop-color="#D98651"/></linearGradient><linearGradient gradientUnits="userSpaceOnUse" x1="-819.2" x2="819.2" gradientTransform="matrix(.038 .01 -.039 .145 82.1 360.75)" id="k"><stop offset="0" stop-color="#D98651"/><stop offset=".533" stop-color="#DFA168"/><stop offset="1" stop-color="#D98651"/></linearGradient><linearGradient gradientUnits="userSpaceOnUse" x1="-819.2" x2="819.2" gradientTransform="matrix(0 .13 -.126 0 103.6 191.15)" id="l"><stop offset="0" stop-color="#D98651"/><stop offset=".533" stop-color="#DFA168"/><stop offset="1" stop-color="#D98651"/></linearGradient><linearGradient gradientUnits="userSpaceOnUse" x1="-819.2" x2="819.2" gradientTransform="matrix(.126 0 0 .142 103.25 181.15)" id="c"><stop offset="0" stop-color="#D98651"/><stop offset=".533" stop-color="#DFA168"/><stop offset="1" stop-color="#D98651"/></linearGradient></defs><path fill="#360000" d="M141.7 216.15l1.55 6.9-21.95 26.9q-5 5.8-11.5 5.8-5 .4-10-1.55l-3.85-2.3-38.45-25.4v-1.15l-.75-2.3q-.75-4.6-.75-9.6 3.45 1.5 8.85 2.7 11.5 3.05 22.25 4.6 15.35 2.3 28.05 1.55 15.8-.8 26.55-6.15"/><path fill="url(#a)" d="M16.35 127.65q-1.9-7.7.8-13.85 3.85-8.05 15.35-12.65 8.1-2.7 18.85-3.1l1.55-.4h7.7q-4.25.4-7.7 1.55-1.9.75-4.25 2.7l-3.05 2.7q-1.95 1.55-4.25 1.55-3.45.75-6.15 4.2l-1.15 2.3q-.75 1.55-1.55 1.15-1.9-.75-4.6-.35-3.05.35-5 2.3-1.55 1.15-4.25 6.9l-2.3 5"/><path fill="url(#b)" d="M43.65 171.9q-4.2 7.7-9.6 15.75-.75-3.85-2.3-6.5-1.15-2.35-2.3-3.85h1.9l4.25-.8q5.75-1.55 7.7-4.2v-.4h.35"/><path fill="url(#c)" d="M43.65 171.9h-.35v.4q-1.95 2.65-7.7 4.2l-4.25.8h-1.9q1.15 1.5 2.3 3.85 1.55 2.65 2.3 6.5.8 2.3 1.15 5.4 1.55 8.85 0 19.25-1.55 13.45-8.45 28.05l-.55 3.45-.2 1.95-.8 8.45q0 5 .8 8.45.2 2.25.65 3.35l.5.9 2.3 1.15q1.9.75 2.7 1.9 3.85 2.35 4.6 6.55l1.15 1.95 1.55 1.9q1.9 2.7.75 5.4-.35.75-1.15.75-1.55 0-4.2-2.7l-3.5-3.45q-.75-1.15-1.5-1.55v-.75l-1.2-.4h-.75q-.4.8-.4 1.95l1.15 3.05q1.95 3.5 6.95 9.25 2.7 3.05-1.55 3.85-.75.4-1.9.4l-2.3.35H28.3q-.4.4-1.15.4H26l-1.55.4-6.55.35q-12.7-.75-16.55-11.9-1.9-5.8-1.15-11.95.65-3.5 2.35-7.8l.75-1.8 2.3-4.6 1.9-4.25q1.95-4.6 1.55-8.45l-.65-3.1-1.65-8.45q-1.9-9.2-3.1-16.15-1.9-21.55 6.55-33.45l-.75-5.4q-.4-6.55-.4-13.45.4-22.3 7.3-39.25l2.3-5q2.7-5.75 4.25-6.9 1.95-1.95 5-2.3 2.7-.4 4.6.35.8.4 1.55-1.15l1.15-2.3q2.7-3.45 6.15-4.2 2.3 0 4.25-1.55l3.05-2.7q2.35-1.95 4.25-2.7 3.45-1.15 7.7-1.55h-7.7l-1.55.4v-.4h.4l1.15-.75q5.75-4.25 15.75-8.45l4.25-1.55 4.25-1.95L79 84.2q1.55-2.7 2.7-6.9 0-1.15.4-2.35.75-5.35.35-10.75l38.5 3.1 1.15 10 1.15 6.9-.4.4h.4q3.05.35 7.3 1.55 10 2.65 18.05 6.5l-11.5-.35q-.8.35 0 1.5l3.45 3.1q2.3 1.55 5.4 3.05 2.65 1.2 5 1.55 3.45 0 6.5 3.45 1.15 1.95 1.15 3.5 1.95 3.05.8 6.15l-.8 1.15h1.95q2.7-.4 5.4.75 2.65 1.15 4.2 8.1.4 1.9.4 4.2v1.95l1.9 1.15q1.95 2.3 4.65 6.9 6.9 15 11.9 50.4.4 0 1.15 1.15.8 1.95 1.55 6.55 3.1 14.15 4.25 46.9v.4l1.15 1.15 2.3 3.85q3.85 5.75 5.4 10.75 1.35 3.25 1.8 6.05.55 3.5-.3 6.3-1.5 5.75-9.6 7.65-.4-.35-1.15-.35-2.3.75-6.55 3.45h-1.55l-2.65-.4q-1.2 0-1.95-.75-2.3-1.55-1.9-3.85.75-2.7 4.6-6.55l.4-.75.35-1.55q0-1.9-1.3-3.2l-1.4-1.05h-.35q-.95 0-1.65 1.05l-.3.5q-1.5 1.95-1.5 5.4 0 1.15.35 2.7v3.05q0 1.15-.75 1.15l-1.55 1.15-1.55-.35q-1.5-.4-2.7-1.55-1.15-1.55-.35-2.3-.8-2.3-1.15-5.4-.15-2.35 0-4.35.25-2.8 1.15-4.85l2.7-6.55 2.3-6.95-2-3.85-1.45-3.05q-4.65-8.45-7.7-16.15-8.1-18.85-6.95-31.15l7.3-.8q3.85-.75 6.55-2.3 7.3-3.85 5-11.9-1.55.75-4.6 1.15H169l-6.55-1.15q-6.5-.8-8.45-1.95h-.4q-1.5-2.7-2.65-5.35-5-11.2-3.85-18.5v-.35l1.9-3.5.6-1.45 2.1-4.3q2.7-4.6 3.1-10.75l3.45-3.5.35-1.5v-2.35q0-3.05-1.15-8.05 0-3.1-1.15-8.1l-4.6.8q-4.25.35-6.9 1.9l2.65 2.3q1.95 1.55 2.7 2.7 3.45 3.45 3.45 6.55 0 3.85-1.5 5.75-.8 1.15-3.1 1.15l-3.05.4q-1.15 0-1.15 1.15 0 1.95.75 3.1 0 .35.75 1.15.8.4.8.75.75.8.75 2.7 0 4.25-6.15 6.15-2.3 1.15-5.4 1.15h-5.35l-5.8-.35q-1.55-.4-2.3-1.2l-1.55-3.8q0-4.65-.75-7.35-.75-1.5-.75-5l.35-6.15-.75-5.75q-1.15-2.7-3.45-3.85l-.4-.4q-3.1 0-3.85 3.5-.4 1.15-.75 3.45v3.85q-1.55 5-2.7 7.3-2.7 3.45-7.7 3.45 1.15.4 1.9 3.45v3.5q0 3.05-.75 5-.75 1.5-1.9 1.9-.8.75-3.1.75l-5.4.4q-10.35 0-17.65-1.55-11.15-2.7-11.15-7.7l.4-2.3 1.55-2.7v-4.2q-5.4 1.55-5.8-5.4 0-2.3.4-5.75l.4-3.85-3.85 4.2q0 .4-.4.4l-.75 1.15q-1.95 4.65-1.95 9.25-.35 1.55 0 3.45-.35-.6-.35-1.15v1.15q0 .75.35 1.55v6.9l-.75 5.8-1.55 5.75v.4l-2.7 8.05-3.45 8.5q-.4.35-.4.75m69.95-29.85v.25h-.25l.25-.25m-26.9 12.9l-.4.4-1.15-.4h1.55"/><path fill="url(#d)" d="M148.6 92.65h.4l.4.4q1.9 1.15 3.45 1.55 9.25 5.35 14.25 12.7 6.9 10 3.45 23.45v-1.95q0-2.3-.4-4.2-1.55-6.95-4.2-8.1-2.7-1.15-5.4-.75h-1.95l.8-1.15q1.15-3.1-.8-6.15 0-1.55-1.15-3.5-3.05-3.45-6.5-3.45-2.35-.35-5-1.55-3.1-1.5-5.4-3.05l-3.45-3.1q-.8-1.15 0-1.5l11.5.35"/><path fill="url(#e)" d="M160.15 193.45q0-3.85 1.55-7.3-.4 0-1.15-.4l-1.95-1.55q-1.15-1.15-1.9-2.7l-.75-1.15-1.55-2.7v-.75q-.4 0-.8-.4h.4q1.95 1.15 8.45 1.95l6.55 1.15h5.4q3.05-.4 4.6-1.15 2.3 8.05-5 11.9-2.7 1.55-6.55 2.3l-7.3.8"/><path fill="url(#f)" d="M51.35 97.65l1.15-.75h.4l-1.15.75h-.4"/><path fill="url(#g)" d="M52.5 134.2q-.35-1.9 0-3.45 0-4.6 1.95-9.25l.75-1.15q.4 0 .4-.4l3.85-4.2-.4 3.85q-.4 3.45-.4 5.75.4 6.95 5.8 5.4v4.2l-1.55 2.7-.4 2.3q0 5 11.15 7.7 7.3 1.55 17.65 1.55l5.4-.4q2.3 0 3.1-.75 1.15-.4 1.9-1.9.75-1.95.75-5v-3.5q-.75-3.05-1.9-3.45 5 0 7.7-3.45 1.15-2.3 2.7-7.3v-3.85q.35-2.3.75-3.45.75-3.5 3.85-3.5l.4.4v.4q1.5 9.6 1.15 16.9-.8 6.55-3.5 11.55v.15l-.25.25h-.1q-1.55 2.65-3.85 5.35l-1.15 1.15q-.8.4-1.15.8l-.8.75-1.15.4v.4q-7.3 3.8-18.45 3.8H80.15q-8.4-.75-14.55-3.45-.75-.35-1.15-.35-4.25-2.35-6.95-5-1.5-1.55-2.65-3.5l-.8-1.5-1.55-4.65v-2.3"/><path fill="url(#h)" d="M147.1 152.3l-.15.3q-1.05 2.15-1.8 4.3-5.35 14.6-6.9 23.45-.4 1.15-.4 2.7l1.95 17.7q1.15 13.45 1.9 15.4-10.75 5.35-26.55 6.15-12.7.75-28.05-1.55-10.75-1.55-22.25-4.6-5.4-1.2-8.85-2.7.75-9.65 5.75-19.65l.4-.75q0-1.55-.8-4.25-2.3-10-11.15-34.2v-.4l1.55-5.75.75-5.8v-6.15l1.55 4.65.8 1.5q1.15 1.95 2.65 3.5 2.7 2.65 6.95 5 .4 0 1.15.35 6.15 2.7 14.55 3.45h5l1.15.4.4-.4q11.15 0 18.45-3.8v-.4l1.15-.4.8-.75q.35-.4 1.15-.8l1.15-1.15q2.3-2.7 3.85-5.35h.35q0 .75.4 1.5.8 1.95 2.7 3.85v.4h.4q2.3 2.3 5 3.1l1.9.75q.8.4 1.95.4H132.1l1.9-.4 10.8-3.1q3.05-1.5 5-3.85l1.5-1.9v.4l-1.7 3.9-.6 1.45-1.9 3.5"/><path fill="url(#i)" d="M115.95 113.05q2.3 1.15 3.45 3.85l.75 5.75-.35 6.15q0 3.5.75 5 .75 2.7.75 7.35l1.55 3.8q.75.8 2.3 1.2l5.8.35h5.35q3.1 0 5.4-1.15 6.15-1.9 6.15-6.15 0-1.9-.75-2.7 0-.35-.8-.75-.75-.8-.75-1.15-.75-1.15-.75-3.1 0-1.15 1.15-1.15l3.05-.4q2.3 0 3.1-1.15 1.5-1.9 1.5-5.75 0-3.1-3.45-6.55-.75-1.15-2.7-2.7l-2.65-2.3q2.65-1.55 6.9-1.9l4.6-.8q1.15 5 1.15 8.1 1.15 5 1.15 8.05v2.35l-.35 1.5-3.45 3.5q-.4 6.15-3.1 10.75h-.4l-1.5 1.9q-1.95 2.35-5 3.85l-10.8 3.1-1.9.4H125.95q-1.15 0-1.95-.4l-1.9-.75q-2.7-.8-5-3.1h-.4v-.4q-1.9-1.9-2.7-3.85-.4-.75-.4-1.5v-.4q2.7-5 3.5-11.55.35-7.3-1.15-16.9v-.4"/><path fill="url(#j)" d="M143.25 223.05l3.85 14.25 1.5 6.5q3.45 15.6 3.1 16.55l1.4 5.65 2.05 10.5q2.3 19.25-.35 32.7l-.4 7.7q0 8.05.4 10.4 1.15 1.5 1.15 5.35.35 2.7 0 4.65 0 1.5.75 8.45l1.1 6.4.05.5 3.45 31.95q3.5 32.7 5 35.75.4 1.95 3.1 4.25l4.2 3.85 4.25 3.85q1.95 2.3 2.7 3.85l3.45 1.5q4.25 1.55 8.45 3.5 11.55 5 11.95 6.5.4.8-.4 3.1-1.15 2.3-2.7 4.2-5 6.2-11.5 6.95-6.2.4-16.2-8.1l-6.5-6.15-2.7-2.7-2.7-.35-5.4-.4q-7.3-1.55-7.3-5.4 0-2.65 1.15-8.45.8-4.2.4-5l-3.85-8.45q-4.6-10-7.7-18.45-1.55-1.15-3.45-3.5-4.25-4.2-7.7-10-4.25-8.05-5.4-17.3-1.3-7.5-.15-15.5.55-3.9 1.7-7.95-1.55-1.55-3.05-3.85-4.65-5.75-8.5-11.9-9.6-16.15-9.6-30.4 2.7-9.25 4.25-19.6l1.45-12.45 1.25-10.25q6.5 0 11.5-5.8l21.95-26.9"/><path fill="url(#k)" d="M102.85 298.05q-3.05 13.85-7.7 24.6l-1.9 4.65q-2.3 4.6-4.25 9.2-4 10.15-5.75 15.65l-1.15 4v10.75q1.15 7.3-1.15 13.85l-4.95 15q-2.7 8.45-3.85 14.2-1.15 8.5-1.55 12.35-.75 5 0 6.5l.4 4.25q.75 3.1-.4 4.6-.75 1.15-1.15 5.4 0 1.9.4 3.45l3.45 9.65 1.15 1.5q.75 1.95 1.9 3.5 3.05 5.75 1.5 9.2l-.1.2q-2.2 4.1-4.1 5.95-1.9 2.3-5.35 2.7l-14.65.4q-11.5-.4-12.3-3.45-.85-2.3 0-5.6l.8-2.5 1.9-3.45 1.15-2.3q.8-.4 3.1-6.15 1.9-5.4 1.9-6.95v-4.6l-1.55-2.7v-3.85l.8-11.55q.4-13.05-1.55-20.35l-2.3-9.25q-1.15-5.75-2.3-10-1.55-11.95 1.15-22.3l4-12.45.6-1.8.8-3.05-1.95-4.65q-1.9-5.35-3.05-11.15Q41 312.65 46 299.6q0-11.55 1.5-26.55l.75-7.05q1.45-12.3 3.8-22.2 2.3-9.8 5.45-17.3l38.45 25.4 3.85 2.3q5 1.95 10 1.55L108.55 266l-1.45 12.45q-1.55 10.35-4.25 19.6"/><path fill="#630" d="M139.2 217.8l2.1-1.3h.4l-2.5 1.3m-81.3 9.1l-.4-.4-.35-.75-.15-1.45.5 1.45.4.75 14.25 10-14.25-9.6v-.4.4m-1.7-7.5l-.2-5.6h.35q-.25 2.9-.15 5.6"/><path fill="url(#l)" d="M52.15 134.2h.35v1.25q0-.75-.35-1.25l.35.75-.35-.75"/><path fill="url(#c)" d="M52.5 136.5l1.55 4.65-1.55-4.25v-.4m97.65 10q.4-1.55 1.15-3.05l.4-.4-1.55 3.45m-25.75 5.4h-.4q-4.2-.75-6.9-3.85h.35q2.7 3.1 6.95 3.85m-88.3-51.35l-3.2.95q-2.9 1-5.35 2.25 2.3-1.25 4.95-2.25l3.6-.95m-25.9 85.6l-.75-5.8q-.4-5-.4-10l.8 10 .35 5.8m144-9l.6.5 1.5 2.7q1 2.05 2.35 3.6-1.45-1.55-2.7-3.6l-1.55-2.7-.2-.5M3.65 207.3q-.3 5.4.4 11.9.8 6.95 2.7 16.15l1.55 8.45-1.95-8.45-2.7-16.15q-.45-6.5 0-11.9m25.1 70.35l1.1.4q0 .4.35.75l1.55 1.55 2.4 2.8-2.8-2.8q-.75-1.15-1.5-1.55l-.4-.75-.7-.4m154.5-12.7h.35q.85.45 1.5 1.05l.95 1.4-1.1-1.4q-.7-.6-1.7-1.05m.35 8.5q-1.9 2.7-2.3 4.6-.65 1.6.4 3-1.1-1.4-.75-3 .35-1.9 2.65-4.6m12.8 6.15q.35.05.7.35h-.4l-.3-.35m-23.35-4.8q-.65-2.05-.95-4.05v-.4q-.15-2.35 0-4.35.25-2.8 1.15-4.85l2.7-6.55-2.35 6.55q-1.1 2.05-1.3 4.85-.15 2 .15 4.35v.4q0 2 .6 4.05m.55 3.25q1.55 1.15 3.1 1.55h-.4q-1.5-.4-2.7-1.55"/><path fill="none" stroke="#9B5526" stroke-width=".05" stroke-linecap="round" stroke-linejoin="round" d="M197.1 279.95q7.7-1.9 9.2-7.65.4-.8.4-1.55.35-2.25 0-4.75-.35-2.65-1.55-5.65-1.9-5.4-5.35-11.15l-2.7-3.85-.8-1.15v-.4q-1.15-32.75-4.2-46.9-.8-4.6-1.95-6.55-.35-1.15-.75-1.15-4.6-31.15-10.8-46.9l-1.5-3.5q-2.3-4.6-4.65-6.5-1.15-1.55-1.5-1.55-1.15 4.2-3.1 8.85M36.1 100.55l2.2-.6 13.05-1.9q5.4-3.85 14.65-8.1l2.65-1.5 4.25-1.55 4.6-1.95 1.5-.75 2.05-4.35q1.95-6.2 1.55-15.6l38.7 3.1 1.95 17.25q3.05.35 7.3 1.55 10 2.65 18.05 6.5.4 0 .4.4h.4l.75.4q1.55.35 2.7 1.15 9.25 5.35 14.25 12.7 3.45 5.35 4.6 11.5.75 5.4-.75 11.95m-12.3 53.2l1.5 1.4 1.55.8q2.7 1.5 6.15 1.15 2.7 0 5.4-1.15 1.15-.4 1.9-1.2m-60-87.65l5.8-4.65.35-1.5.8-2.35m-28.85-.75l4.6 4.25 3.85 1.9q3.85 1.95 3.85 2.3M129 94.2l2.3-.75q2.7-.8 5.8-1.15h.35l11.15.35m.5.4l1.05.4m-86.5 4.2H53.3l-1.95.4m-.75 28.45q.75 1.15 1.55 4.25v2.3q0 .55.35 1.15v-3.45q0-4.25 1.95-9.25m-2.3 11.55v1.15q.35.5.35 1.25v1.05l1.55 4.65q3.45 6.9 11.55 10.35 6.15 2.7 14.55 3.45l6.55.4 18.45-4.2 4.65-3.5 3.8-5.35q2.7-5 3.85-11.55 0-7.7-1.5-17.3v-.8l-1.55-6.5M52.5 134.2v1.25m0-.5l-.35-.75m.35 2.3v6.15q-.35 5.8-1.9 11.95 8.45 24.2 10.75 34.2.8 3.1.8 4.65l-.4.75q-5 10-5.4 19.6 3.1 1.15 8.85 2.7 11.15 3.1 21.9 4.65l1.5.35 20.4 1.55 6.55-.4 12.3-1.5 10.75-3.1.6-.25m2.5-1.3q-.75-1.9-1.9-15.35l-1.95-18.1q1.15-9.25 7.3-25.75.8-2.35 1.95-4.25v-.4q1.5-3.45 3.05-6.15l1.55-3.45-.4.4q-5.75 7.7-19.2 8.85H125.95l-1.15-.4h-.4q-4.25-.75-6.95-3.85h-.75q-2.3-2.7-3.1-5.75m-77.5-41.75l-3.2.95q-2.9 1-5.35 2.25-2.1 1.4-4.25 2.75l-5.8 6.55v.4q-.35 0-.35.35-2.7 6.15-.8 13.85 1.55 5.8 5.4 11.95m-12.7 30.75v-3.45q.4-22.3 7.3-39.25M3.65 207.3l.8-6.15 5-13.85.75-.8v-.35m-1.15-15.8l.8 10 .35 5.8m23.95 97l.7.65q2.65 2.7 4.2 2.7.8 0 1.55-.75 1.15-2.3-.75-5.4l-1.95-1.9-.75-1.95q-1.15-4.2-4.65-6.55-.75-1.15-2.65-1.9-1.95-.75-2.35-1.15-.4-.25-.7-.9-.6-1.1-.8-3.35-.4-3.45-.4-8.45.4-4.25.4-8.45l.35-1.95.8-3.45q6.5-14.6 8.45-28.05 1.55-10.4 0-19.25-.75-2.7-1.15-5.4-1.15-3.45-2.7-6.15l-1.9-4.2m20.75-22.7q-1.15 4.2-2.7 8.05l-8.45 16.95q-2.3 4.2-5 8.05m117.25-44.6q0-.4.4-.75 2.7-4.25 2.7-10 .35-3.85 0-8.85-.8-2.3-1.2-4.65-.75-3.45-1.9-5.75m-31.9 55q-3.1 1.15-6.2 1.15v16.15q6.55-.75 12.35-4.6m-25.4-14.6q2.3 1.15 5.75 2.3 3.85 1.15 7.3.75v-11.15M83.25 206.5v-2.7q0-2.65.75-6.15 1.15-10 5.8-17.7 5-10 6.9-13.05 1.9-4.6 1.15-9.25m-4.25 38.5l2.35 1.5q3.05 1.55 6.9 2.7 5 1.15 10.75.8v-15.8q-3.45.4-7.3-.75-3.45-.4-6.5-1.95-1.95-.75-1.95-1.15m56.35-4.35v-.05l-.6-.6q-1.5-2.7-2.65-5.35-3.85-9.25-3.85-15.8v-2.3m-25.8 3.85q0 2.7 1.95 7.3 1.9 5 4.6 10.4 1.95 3.45 4.25 6.9l1.5 7.3q1.55 8.85 1.55 17.7m19.05-29.35l.6.5 1.5 2.7q1 2.05 2.35 3.6m17.3 70.65l2.3-6.95-2-3.85-1.45-3.05q-4.65-8.1-7.7-16.15-7.7-18.85-6.95-31.15.4-3.85 1.55-7.3m-20 30.35l-2.5 1.3m2.5-1.3l1.55 6.95 3.85 14.2 1.4 6.15q3.6 15.95 3.6 16.95l1.3 5.25 1 4.75.75 6.15q1.95 14.6.8 26.15-.4 3.45-1.15 6.55l-.4 7.7q0 8.05.4 10 1.15 1.9 1.15 5.75.35 2.7 0 4.6 0 1.55.75 8.5l1.05 6 .1.9 3.45 31.9q3.85 32.7 5 35.8.4 1.9 3.1 3.85.75 1.15 4.2 4.2 3.1 2.35 4.65 3.85 1.55 1.95 2.3 3.85l3.45 1.55q4.25 1.55 8.45 3.45 11.95 4.65 11.95 6.15.4 1.15-.4 3.1-1.15 2.7-2.7 4.6-5 6.15-11.5 6.95-5.8.35-16.2-8.5l-6.5-5.75-2.7-2.7-2.7-.4-5.4-.35q-7.3-1.55-7.3-5.4 0-2.7 1.15-8.45.8-4.6.4-5l-3.85-8.45q-4.6-10.4-7.7-18.5-1.55-1.15-3.45-3.45-4.25-4.2-7.7-10-4.25-8.05-5.4-17.3-1.3-7.7-.05-15.9.55-3.7 1.6-7.55-1.55-1.55-3.05-3.85-4.65-5.8-8.5-12.3-9.6-15.8-9.6-30.4-3.05 14.25-7.7 25l-1.9 4.25q-1.95 5-4.25 9.6-3.9 9.9-5.5 15.25-.8 2.5-1.05 4v11.15q.8 7.3-1.5 13.45-1.55 5.75-4.95 15.4-2.7 8.05-3.85 14.2Q71 418.8 71 422.65q-1.15 5-.4 6.15l.4 4.25q.75 3.1 0 4.6-1.15 1.55-1.55 5.8 0 1.9.4 3.45l3.45 9.6 1.15 1.55 1.9 3.45q2.95 5.65 1.6 9.05l-.1.2q-2.25 4.2-4.2 6.15-1.9 2.3-5.35 2.7H53.65q-11.5 0-12.3-3.1-.85-2.3.05-5.95l.75-2.5 1.9-3.1 1.15-2.3q1.15-.35 3.1-6.15 2.3-5.75 2.3-6.9v-2.7l-.4-1.95-1.55-2.65v-3.85l.8-11.55q.4-13.1-1.55-20.4l-2.3-9.6q-1.15-5.75-2.3-9.6-1.55-11.95 1.55-22.35l3.65-12.8.55-1.8.8-3.05-1.2-2.35-.75-1.9-3.05-11.55Q41 313.8 46 300.75q0-.8.35-1.15 0-11.15 1.15-26.15l.95-7.45q1.7-12.35 4.05-22.2 2.35-9.6 5.4-16.9v-.4l-.4-.75-.5-1.45-.05-.1-.2-.4v-.35l-.55-4.05m.15-5.6q-.25 2.9-.15 5.6m73.6-22.1l-1.95.75q-7.3 2.7-14.25 3.1v5.75m-10.75 91.15q2.7-8.85 4.25-19.25l1.5-12.8 1.2-9.85h-.8l-5.75-.4-1.95-.8-1.5-.75q-1.95-1.15-3.85-1.9l-23.8-15.8m71.1-13.05l-21.55 26.9q-5.4 5.4-11.9 5.8M57.9 226.5l14.25 10M8.3 243.8l-1.55-8.45q-1.9-9.2-2.7-16.15-.7-6.5-.4-11.9m4.65 36.5q.35 2.7.75 3.5.8 3.45-1.55 8.05-.35 1.95-1.9 4.25l-2.3 4.6-.75 1.8q-1.7 4.3-2.35 7.8-.75 6.15 1.15 11.95 4.25 11.15 16.55 11.9l6.55-.35q.75 0 1.55-.4h1.15q.75 0 1.5-.4h1.2l2.3-.35 2.3-.4q4.2-.8 1.55-3.85-5.4-5.75-7.35-9.25l-1.15-3.05q0-1.15.8-1.95h.45l1.1.4q0 .4.35.75l1.55 1.55 2.4 2.8M61 344.2l-3.85 1.15q-1.55.4-2.7-.4l-1.55-1.9q-1.9-4.25-4.25-18.1-2.65-15-2.65-24.2m40.3-4.6q-2.3 9.6-5.75 20.35-6.5 21.95-12.65 29.25m88.05-42.7q-3.85 17.3-11.95 24.25-4.2 3.05-10.75 3.85-2.7.35-5.4-6.95-1.55-3.45-2.3-7.3m3.45 32.7l-5-5m62.05-77.2l-.95-1.4q-.65-.6-1.5-1.05h-.35m2.8 2.45l.15.45.1.55v.8l-.35 1.55-.4.75-1.95 1.95q-1.9 2.7-2.3 4.6-.65 1.6.4 3l.4.45.75.4q1.15.75 2.3.75l2.3.4H189q4.25-2.7 6.55-3.45h.85q.35.05.7.35m-21.15-25.35l-2.35 6.55q-1.1 2.05-1.3 4.85-.15 2 .15 4.35v.4q0 2 .6 4.05l.2.55v.4q-.8.75.35 2.3 1.55 1.15 3.1 1.55.4 0 .75.35h.4q1.15 0 1.55-1.15.75 0 .75-1.15.4-1.15 0-3.05-.35-1.55-.35-2.7 0-.4.35-1.15 0-2.7 1.15-4.25l.4-.5q.9-1.05 1.55-1.05"/></svg>