<svg xmlns="http://www.w3.org/2000/svg" viewBox="0 0 284.2 479.7" width="284.2" height="479.7" preserveAspectRatio="xMinYMin"><defs><radialGradient gradientUnits="userSpaceOnUse" r="819.2" cx="0" cy="0" spreadMethod="pad" gradientTransform="matrix(.229 0 0 .229 250.5 154.3)" id="a"><stop offset=".6" stop-color="#999"/><stop offset="1" stop-color="#333"/></radialGradient><radialGradient gradientUnits="userSpaceOnUse" r="819.2" cx="0" cy="0" spreadMethod="pad" gradientTransform="matrix(.222 0 0 .222 237.15 151.2)" id="b"><stop offset="0" stop-color="#fff"/><stop offset="1" stop-color="#aaa"/></radialGradient><radialGradient gradientUnits="userSpaceOnUse" r="819.2" cx="0" cy="0" spreadMethod="pad" gradientTransform="matrix(.222 0 0 .222 237.15 151.2)" id="c"><stop offset=".6" stop-color="#848484"/><stop offset="1" stop-color="#444"/></radialGradient><linearGradient gradientUnits="userSpaceOnUse" x1="-819.2" x2="819.2" gradientTransform="matrix(.126 0 0 .142 103.6 181)" id="d"><stop offset="0" stop-color="#D98651"/><stop offset=".533" stop-color="#DFA168"/><stop offset="1" stop-color="#D98651"/></linearGradient><linearGradient gradientUnits="userSpaceOnUse" x1="-819.2" x2="819.2" gradientTransform="matrix(.126 0 0 .142 103.6 181)" id="e"><stop offset="0" stop-color="#BB642B"/><stop offset="1" stop-color="#D5834D"/></linearGradient><linearGradient gradientUnits="userSpaceOnUse" x1="-819.2" x2="819.2" gradientTransform="matrix(.03 0 0 .029 138.25 128.3)" id="f"><stop offset="0" stop-color="#BB642B"/><stop offset="1" stop-color="#D5834D"/></linearGradient><linearGradient gradientUnits="userSpaceOnUse" x1="-819.2" x2="819.2" gradientTransform="matrix(.029 .009 -.007 .024 212.8 198)" id="g"><stop offset="0" stop-color="#D98651"/><stop offset=".533" stop-color="#DFA168"/><stop offset="1" stop-color="#D98651"/></linearGradient><linearGradient gradientUnits="userSpaceOnUse" x1="-819.2" x2="819.2" gradientTransform="matrix(.065 0 0 .02 185.5 192.4)" id="h"><stop offset="0" stop-color="#BB642B"/><stop offset="1" stop-color="#D5834D"/></linearGradient><linearGradient gradientUnits="userSpaceOnUse" x1="-819.2" x2="819.2" gradientTransform="matrix(.037 -.007 .01 .053 100.25 43.9)" id="i"><stop offset="0" stop-color="#D98651"/><stop offset=".533" stop-color="#DFA168"/><stop offset="1" stop-color="#D98651"/></linearGradient><linearGradient gradientUnits="userSpaceOnUse" x1="-819.2" x2="819.2" gradientTransform="matrix(-.005 .011 -.005 -.002 131.3 48.1)" id="j"><stop offset="0" stop-color="#D98651"/><stop offset=".533" stop-color="#DFA168"/><stop offset="1" stop-color="#D98651"/></linearGradient><linearGradient gradientUnits="userSpaceOnUse" x1="-819.2" x2="819.2" gradientTransform="matrix(.126 0 0 .142 103.25 181.2)" id="k"><stop offset="0" stop-color="#D98651"/><stop offset=".533" stop-color="#DFA168"/><stop offset="1" stop-color="#D98651"/></linearGradient><radialGradient gradientUnits="userSpaceOnUse" r="819.2" cx="0" cy="0" spreadMethod="pad" gradientTransform="matrix(.342 0 0 .342 -97.6 255.45)" id="l"><stop offset=".6" stop-color="#999"/><stop offset="1" stop-color="#333"/></radialGradient><radialGradient gradientUnits="userSpaceOnUse" r="819.2" cx="0" cy="0" spreadMethod="pad" gradientTransform="matrix(.232 0 0 .232 -68.15 167.5)" id="m"><stop offset=".6" stop-color="#999"/><stop offset="1" stop-color="#333"/></radialGradient><linearGradient gradientUnits="userSpaceOnUse" x1="-819.2" x2="819.2" gradientTransform="matrix(-.013 .034 -.043 -.017 79.9 124.85)" id="n"><stop offset="0" stop-color="#BB642B"/><stop offset="1" stop-color="#D5834D"/></linearGradient><linearGradient gradientUnits="userSpaceOnUse" x1="-819.2" x2="819.2" gradientTransform="matrix(.126 0 0 .142 103.45 181.2)" id="o"><stop offset="0" stop-color="#D98651"/><stop offset=".533" stop-color="#DFA168"/><stop offset="1" stop-color="#D98651"/></linearGradient><linearGradient gradientUnits="userSpaceOnUse" x1="-819.2" x2="819.2" gradientTransform="matrix(-.006 -.025 .04 -.01 84.8 127.35)" id="p"><stop offset="0" stop-color="#C96A2C"/><stop offset="1" stop-color="#DFA168"/></linearGradient><linearGradient gradientUnits="userSpaceOnUse" x1="-819.2" x2="819.2" gradientTransform="matrix(.058 0 0 .049 101.55 182.7)" id="q"><stop offset="0" stop-color="#BB642B"/><stop offset="1" stop-color="#D5834D"/></linearGradient><radialGradient gradientUnits="userSpaceOnUse" r="819.2" cx="0" cy="0" spreadMethod="pad" gradientTransform="matrix(.082 0 0 .082 105.55 177.35)" id="r"><stop offset=".196" stop-color="#DFA168"/><stop offset="1" stop-color="#C96A2C"/></radialGradient><linearGradient gradientUnits="userSpaceOnUse" x1="-819.2" x2="819.2" gradientTransform="matrix(.071 0 0 .028 85.65 195.6)" id="s"><stop offset="0" stop-color="#D98651"/><stop offset=".533" stop-color="#DFA168"/><stop offset="1" stop-color="#D98651"/></linearGradient><linearGradient gradientUnits="userSpaceOnUse" x1="-819.2" x2="819.2" gradientTransform="matrix(.008 0 0 .011 12.05 192.7)" id="t"><stop offset="0" stop-color="#D98651"/><stop offset=".533" stop-color="#DFA168"/><stop offset="1" stop-color="#D98651"/></linearGradient><linearGradient gradientUnits="userSpaceOnUse" x1="-819.2" x2="819.2" gradientTransform="matrix(.081 0 0 .065 106.55 261.65)" id="u"><stop offset="0" stop-color="#BB642B"/><stop offset="1" stop-color="#D5834D"/></linearGradient><linearGradient gradientUnits="userSpaceOnUse" x1="-819.2" x2="819.2" gradientTransform="matrix(.009 0 0 .013 95 199.35)" id="v"><stop offset="0" stop-color="#D98651"/><stop offset=".533" stop-color="#DFA168"/><stop offset="1" stop-color="#D98651"/></linearGradient><linearGradient gradientUnits="userSpaceOnUse" x1="-819.2" x2="819.2" gradientTransform="matrix(.01 .012 -.034 .026 199.25 191.4)" id="w"><stop offset="0" stop-color="#D98651"/><stop offset=".533" stop-color="#DFA168"/><stop offset="1" stop-color="#D98651"/></linearGradient><linearGradient gradientUnits="userSpaceOnUse" x1="-819.2" x2="819.2" gradientTransform="matrix(.071 0 0 .028 85.65 195.6)" id="x"><stop offset="0" stop-color="#BB642B"/><stop offset="1" stop-color="#D5834D"/></linearGradient><radialGradient gradientUnits="userSpaceOnUse" r="819.2" cx="0" cy="0" spreadMethod="pad" gradientTransform="matrix(.137 0 0 .137 124.1 257.4)" id="y"><stop offset="0" stop-color="#fff"/><stop offset="1" stop-color="#aaa"/></radialGradient><radialGradient gradientUnits="userSpaceOnUse" r="819.2" cx="0" cy="0" spreadMethod="pad" gradientTransform="matrix(.135 0 0 .135 71.55 293.1)" id="z"><stop offset="0" stop-color="#fff"/><stop offset="1" stop-color="#aaa"/></radialGradient><linearGradient gradientUnits="userSpaceOnUse" x1="-819.2" x2="819.2" gradientTransform="matrix(.038 .01 -.039 .145 82.1 360.85)" id="A"><stop offset="0" stop-color="#D98651"/><stop offset=".533" stop-color="#DFA168"/><stop offset="1" stop-color="#D98651"/></linearGradient><linearGradient gradientUnits="userSpaceOnUse" x1="-819.2" x2="819.2" gradientTransform="matrix(-.043 .025 -.07 -.123 134.4 362)" id="B"><stop offset="0" stop-color="#D98651"/><stop offset=".533" stop-color="#DFA168"/><stop offset="1" stop-color="#D98651"/></linearGradient><linearGradient gradientUnits="userSpaceOnUse" x1="-819.2" x2="819.2" gradientTransform="matrix(.082 .005 -.014 .218 -41.3 158.65)" id="C"><stop offset="0" stop-color="#888"/><stop offset="1" stop-color="#EAEAEA"/></linearGradient></defs><path fill="#ABABAB" d="M176.3 107.8l3.3-20.35q7.15-42.8 8.8-48.4l.6 16.75.6 15.35q0 18-6.9 45.35l-4.45 16.65-1.2-1.1H177q3.8-13.75-.7-24.25m18.5 72.2l.1-1.1q2.15-24.55 4.85-32.15 2.65-7.4 12.85-31.2 7.9-18.5 10.55-28.8 1.75-6.95 2.05-12.95 1.35 7.5 4.1 15.65l3.65 10.95q1.65 5.65 1.65 9.75 0 21.1-15.3 57.05l-2.7 6.1-3.7 8-11.5 1.1q-1.3-1.6-5.15-2.3l-1.45-.1m-214.95 81.8l-2.25-1.65q-13.7-9.95-15.85-10.55-1.35 6.7-1.5 20.3-14.5-16.8-24.5-49.25-4.3-13.85-12.7-52.3v-77.1q4.65 2.7 9.15 19.95 3.7 14.45 6.3 34.5 1.3 10.25 6.55 25.25L-45 197.9q4.7 13.1 13.3 33.85 7.65 18.4 11.55 30.05m213.2-57.85l.95-.6h.1l.9.15q-.45 2.5-1.65 5.65l-.6-.2.3-5m2.85 12l-.6-12.4 6.2.95-4.1 8.2-1.5 3.25"/><path fill="#fff" d="M120.55 42q-.65.5-.65 1.3t.65 1.35q.65.55 1.55.55t1.55-.55q.65-.55.65-1.35t-.65-1.35q-.65-.55-1.55-.55h-.15q3.3-1.1 5.1-.65-2.4 5.15-6.55 4.55-1.3-.2-2.65-1l-1.05-.7q2-1.05 3.75-1.6m-24.2 4.05l-2.6-.75q-1.7-.7-3.25-1.85l-1.2-1q4.35-.2 7.5 0-.65.1-1.1.5-.65.55-.65 1.35t.65 1.35l.65.4m1.7-3.5q4.7.35 6.25 1.65-3.25 2.1-6.7 2 .7-.1 1.2-.55.65-.55.65-1.35t-.65-1.35l-.75-.4"/><path fill="#600" d="M98.05 42.55l.75.4q.65.55.65 1.35t-.65 1.35q-.5.45-1.2.55h-.35l-.9-.15-.65-.4q-.65-.55-.65-1.35t.65-1.35q.45-.4 1.1-.5l.45-.05.8.15m23.9-1.15h.15q.9 0 1.55.55t.65 1.35q0 .8-.65 1.35t-1.55.55q-.9 0-1.55-.55t-.65-1.35q0-.8.65-1.3l.05-.05-.05.05v-.05h.05l.05-.05 1.3-.5"/><path fill="url(#a)" d="M133.4 81.55q3.1-5.05 8.8-17.8 8.35-18.85 8.35-25.45 3.6 3.6 6.5 8.6 4.3 7.5 3.8 13.7 12.2-8.9 20.4-41.35 3.35-13.5 4.7-26.45 1.3-13 14.85-19.2 12.4 8.9 24.3 25.6 4.55 6.35 9.4 14.55l.05.05 9.95 11.05q11.5 12.1 19.1 17.2 4.5 3 6.35 6.15 1.8 3.05.6 5.15-2.85 4.8-16.55 1.2 3.7 10.5 6.25 21.55l1.7 8.45v.05l6 14q7.15 16.1 12.75 25.75 6.1 10.5 1.6 12-2.3.8-18.5-1.6-.85 17.5-2.9 32.45-4.1 29.75-13.05 49.2-9.2 19.95-14.55 32.85-4.3 10.2-6.1 16-4.2 13-38.25 61.25l4.3-23.65 11.2-18.85q6.55-11.65 8.85-22.8 1.1-5.45 3.3-11.95l2.35-6.45q3.15-8.15 6.55-14.75 6.2-11.95 10.45-23.3 2.85-.9 2.85-1.9l-.15-5.8 2.75-9.65q2.4-9.45 3.8-20.2 1.15-9.25 1.6-19.45l.15-5.5-.3.1.25-12.75.05-11.9-.15-21.3q-.4-12.4-1.65-17.9-1.8-7.75-4.3-14.2-1.05-2.75-5.5-12.8-9.95-22.2-14.65-32.05-10.4-21.7-17.25-31.6l-.1-.25h-.05Q193.7-7.7 191 7.25q-.85 4.65-1.55 13.75-.65 9.5-1.3 13.4-.95 5.85-4.3 12.55-3.3 6.7-7.3 10.7l-8.7 9.15q-8.55 8.6-10.95 8.6-1.2 0-3-2.15l-2.55-3.3-.6-.7v1.3q4.65 8.25-2.3 14.8-6.65-2.3-15.05-3.8m70.65-94.3l-.7.35.7-.35m48.95 67l1 .3-1-.3M123.2 84.3l.05.35h-.4l.35-.35"/><path fill="url(#b)" d="M203.45-12.15l-.15-.25h.05l.1.25"/><path fill="url(#c)" d="M203.45-12.15q6.85 9.9 17.25 31.6 4.7 9.85 14.65 32.05 4.45 10.05 5.5 12.8 2.5 6.45 4.3 14.2 1.25 5.5 1.65 17.9l.15 21.3-.05 11.9-.25 12.75.3-.1-.15 5.5q-.45 10.2-1.6 19.45-1.4 10.75-3.8 20.2l-2.75 9.65-.35-11.85q-.65-.65-1.95-.95-2.4-.6-5.15.95-2.6 1.4-4.05 4.2-6.65.7-10.25.25l-2.75-.7q1.05-2.05 11.05-2.45 6.75-2.55 4.65-5-8.25-.65-16.95-.2l3.7-8 2.7-6.1q15.3-35.95 15.3-57.05 0-4.1-1.65-9.75l-3.65-10.95q-2.75-8.15-4.1-15.65-.3 6-2.05 12.95-2.65 10.3-10.55 28.8-10.2 23.8-12.85 31.2-2.7 7.6-4.85 32.15l-.1 1.1-2.85-.25.15-8.1q-.3-10.6-3.2-19.7-1.2-3.65-2.8-7.05-3.65-7.75-7.85-11.75l4.45-16.65q6.9-27.35 6.9-45.35L189 55.8l-.6-16.75q-1.65 5.6-8.8 48.4l-3.3 20.35-.8-1.65-.2-.4q-5.65-10.7-20.5-17.8-2.8-1.35-5.7-2.35l-.65-.25q6.95-6.55 2.3-14.8v-1.3l.6.7 2.55 3.3q1.8 2.15 3 2.15 2.4 0 10.95-8.6l8.7-9.15q4-4 7.3-10.7 3.35-6.7 4.3-12.55.65-3.9 1.3-13.4.7-9.1 1.55-13.75 2.7-14.95 12.3-19.65l.15.25M225.2 73.8q.3-6.65-1.25-12.05.1 5.75 1.25 12.05m-41.4 133.8q4.85-1.05 9.25-3.65l-.3 5 .6.2-.05.05-1.65 3.7q-2.25 4.65-5.65 18.9l-5.8 20.7q2.4-26.9 3.6-44.9m52.15-2.85q-4.25 11.35-10.45 23.3-3.4 6.6-6.55 14.75l-2.35 6.45q-2.2 6.5-3.3 11.95-2.3 11.15-8.85 22.8l-11.2 18.85 4.55-25.15-1.85-61.4-.05-.35 1.5-3.25 4.1-8.2 18 2.8q11.85-1.15 16.45-2.55"/><path fill="url(#d)" d="M175.3 105.75l.2.4.8 1.65q4.5 10.5.7 24.25l-1.05 3.45-.2.6-.1.35-1.9 4.8 1.4-.2 1.7-.2 1.2.1.8.2q5.05 1.5 8.5 10.8l.95 2.95q1.35 4.45 2.35 10.4.85 5.45 1.45 6.35l-.15 8.1q-3.1-1.45-7.15-2l-2.6-.25q-9.65-.6-16.6 5-2.15-1-4.35-2.2l-4.6-2.8-4.25-3.25q-3.2-2.75-5.25-5.85l-.05-.5q-.7-6.15-.2-11.55l.2-1.85.2-1.4v-.4l.35-.75 1.6-3.4 3.8-2.45q4-3.35 5.8-8.25 2.1-5.8 1.2-13.75l-.05-.4q0-5.75.15-7.9v-.45q.5-5.85 2.55-9.25v-1.8q-1.7 2.5-3.55 3.05l-.65.15-3.35.1-3-.1q-.95-.15-2.2-1.1.95.9 2.35 3.15l1.3 2.3q2.25 4.1 2.25 5.35 0 3.8-1.55 4.75l-.35.15-.4.15-.9.3q-.6.3-.6 1.3 0 .8 1.25 2.4l1.4 1.65.3.35 1.65 2.45q.7 1.45.7 2.9l-.65 1.55-2.35 2.4-.45.45q-2.5 2.05-4.25 2.75-1.25.5-2.7 1.45-1.35.85-2.9 2.15l-.4.35q-2.05 1.55-4.6 1.6h-.2q-1.95 0-4.85-1.3-2.9-1.3-4.45-1.3-.35 0-3.1 1.3l-2.05.95-1.05.35q-2.7 0-3.25-3.8v-5.2l.1-4.5.2-2.7q.3-1.25 1.95-3.9l.45-.75 1.1-2.15q0-.75-.3-.6-2.1-1.35-2.95-4.1-.4-1.25-.9-5.1-.85-6.35-5.1-7.15l-.05-.25h-3.95q-.7.65-1.45 1.8-.95 1.45-.95 2.35l2.2 2.05q1.2 1.1 1.75 2.45.45 1.05.45 2.3 0 2.3-1.35 3.1l-.35.2-4.2.55q-.1 1.35 1.45 3.55l1.65 2.5.2.45q.6 2.6.6 7.25v4.1q-.25.6-3.3 3.2-.65.55-3.55.5h-1.35l-3.05.35q-1.9.7-3.9 2.6l-2.95 2.7q-1.75 1.2-3.9 1.05l-4.1-.45-5.95-.25-7.35-2.95-3.75-.6-.75-.05-.9-.05-2.55-.25q-4.8-.8-4.8-5.3l2.25-3.8q2.2-3.65 2.2-4.35 0-1.3-1.8-2.15l-1.95-.5-.7.15q-.6-1.8-.6-3l.6-5.15-.2-3.2-.1-.2q-.35-.9-1.9-.9-2.05 0-3.05 2.1-1.05 2.05-3.65 2.05-1.85 0-4.45-2-2.05-1.55-2.6-2.45 1.7 4.8 7.8 15.2l1.8 3.2h.05l.05.1.25.45v.05q3.05 5.8 3.65 9.5l.05.25v.35q.25 3.5 0 7l-.6 4.9q-.6 3.45-1.7 6.9l-.1.3-.1.3q-1.4 4.1-3.5 8.2l-7.35 1.1h-.8l-4.85-.6-4.55-.6q-2.35 0-3.8 2.4-1.2 1.95-1.2 4 0 3.7 2.55 9.95l4.25 9.65 1.55 4.2.35 1.3 1 4.25q.75 3.65.95 6.6-10.65-4.2-20-12.8-2.25-3-5.6-9.85-3.1-6.45-6.85-8.7l-.15-.1v-.15l.15.25-.15-.25-.05-.35q2.05-6.1 2.8-10l.6-5.3q.7-4.55 1.8-5.9 2.75-3.25 2.9-9.7v-1q0-6.95 2.7-9.65l-1.1-2.65L14 134.7l-.05-.25-.45-1.65-.85-3.55-.05-.3q-.75-3.6-.95-6.9l-.05-.85q3.1-8.3 4.55-10.05 1.8-2.15 5.1-2.95l.8-.2 4.4-.35q-.5-1.5-.45-2.85v-.35q.2-3.3 3.55-5.8 4.6-3.4 11.3-2.6 4.75.6 9-2.1l.1-.1 5.95-3.8h4.4l.8-1.05q2.65-3.15 9.15-3.6l6.5-.2h.35l6.55.05q.4-2.4.4-7.4l-.4-3.3q-.45-2.8-.85-3.7l.05-1.4.45.85 2.9 5.4q.25 1.8 3.2 4.7 2.75 2.65 4.25 3.15 1.3.5 4.25 2.5 3.4 2.3 3.4 3.15 0 2.85.45 4.95-1.85-1.1-3.7-1.8l-4.6-4.25 4.6 4.25q1.85.7 3.7 1.8l.05.15q.6 2.7 1.9 4.15 1.5 1.6 5.8 2.7 1.75.45 3.15 1 2.4.9 3.9 2.05 3.9 3.15 6.1 10.3v-3.25l-1.45-8.7q0-3.95 1.8-8.2l.25-.55q1.4-3.8 2.05-8.85h-.2l-.75.1-1.6.05q-.4-.15 0-.8l.4-.75.05.75.05-.05-.1-.75-.05-.1.15-.05 3.35-.9 2.85-.4q1.6 0 3.2.7.3.1.65.3 1.35.7 2.75 1.9 3.2 3.3 5 4.55l.2.15.1-.05 1.3-1.1q1.15-.85 1.8-.85l.85.2q1.7.6 6.45 3 7.05 3.55 9.5 6 1.15 2.15 2.2 3.7 2.1 3.05 4.6 3.1 1.45 0 4.15.85 2.15.65 3.1 1.25m-1.95 36.35l.3-.65.1-.2-.1.2-.3.65M63.25 90.05H60.3h2.95m60-5.4l-.05-.35-.35.35h.4M16.9 142.4l-.45-1.1.45 1.1m36.3-3.9l1 2.7-1-3.05v.35"/><path fill="url(#e)" d="M148.45 85.35l.65.25q2.9 1 5.7 2.35 14.85 7.1 20.5 17.8-.95-.6-3.1-1.25-2.7-.85-4.15-.85-2.5-.05-4.6-3.1-1.05-1.55-2.2-3.7-2.45-2.45-9.5-6-4.75-2.4-6.45-3l-.85-.2q-.65 0-1.8.85l-1.3 1.1-.1.05-.2-.15q-1.8-1.25-5-4.55-1.4-1.2-2.75-1.9-.35-.2-.65-.3-1.6-.7-3.2-.7l-2.85.4-3.35.9-.15.05v-.2l-.05-.15v-.1l-.3-2.55.3 2.55v.1l-.5-3.05.05.1.15.3-.15-.3-.05-.1-.05-.05h.1l10.8 1.6q8.4 1.5 15.05 3.8m29.8 47.8q4.2 4 7.85 11.75 1.6 3.4 2.8 7.05 2.9 9.1 3.2 19.7-.6-.9-1.45-6.35-1-5.95-2.35-10.4l-.95-2.95q-3.45-9.3-8.5-10.8l-.8-.2-1.2-.1-1.7.2-1.4.2 1.9-4.8.1-.35.2-.6 1.05-3.45h.05l1.2 1.1M82.8 70.85q.4.9.85 3.7l.4 3.3q0 5-.4 7.4l-6.55-.05h-.35l-6.5.2q-6.5.45-9.15 3.6l-.8 1.05h-9.55 5.15l-5.95 3.8-.1.1q-4.25 2.7-9 2.1-6.7-.8-11.3 2.6-3.35 2.5-3.55 5.8v.35q-.05 1.35.45 2.85l-4.4.35-.8.2q-3.3.8-5.1 2.95-1.45 1.75-4.55 10.05-.55-10.3 3.95-17.5 6.8-10.8 24.55-13.05l10.65-.6 2.55-1.9q2.3-1.55 4.75-2.9l2.1-1.1q11.15-5.5 20.8-4.25l.1.05h.2v-.05q1.25-3.9 1.55-9.05m-70.15 58.4l.85 3.55.45 1.65.05.25 1.35 3.95 1.1 2.65q-2.7 2.7-2.7 9.65v1q-.15 6.45-2.9 9.7-1.1 1.35-1.8 5.9l-.6 5.3q-.75 3.9-2.8 10-2.65-15.15 0-30.9l1.45-7.1q1.7-7 3.8-12.1.75-1.9 1.6-3.55v-.05l.15.1m26.4 59.2q-.5-3.15-1.35-5.5l-.05-.15-.15-.4-1.4-2.8.25-.1.8-.3 1.75-.6 3.65-.45 4.2.25q-3.3 5.1-7.65 10.05h-.05m-1.9-9.25l1.8-.55 3.6-.5-3.6.5-1.8.55"/><path fill="url(#f)" d="M162.7 104.3v1.8q-2.05 3.4-2.55 9.25v.45q-.15 2.15-.15 7.9l.05.4q.9 7.95-1.2 13.75-1.8 4.9-5.8 8.25l-3.8 2.45-.15.1-.1.05q-2.25 1.1-4.9 1.7l-4.15.6-.3.1-4.05.85-3.3.4h-6.15l-1.15-.4h-.4l-1.15-.25-1.9-.7q-2.25-1-3.9-2.9h-.75l-.2-.25-.65-.85q-1.6-2.2-2.25-4.65 2.7-5 3.85-11.55 0-6.55-1.05-14.45l-.45-2.85v-.8l-1.5-6.35q4.25.8 5.1 7.15.5 3.85.9 5.1.85 2.75 2.95 4.1.3-.15.3.6l-1.1 2.15-.45.75q-1.65 2.65-1.95 3.9l-.2 2.7-.1 4.5v5.2q.55 3.8 3.25 3.8l1.05-.35 2.05-.95q2.75-1.3 3.1-1.3 1.55 0 4.45 1.3 2.9 1.3 4.85 1.3h.2q2.55-.05 4.6-1.6l.4-.35q1.55-1.3 2.9-2.15 1.45-.95 2.7-1.45 1.75-.7 4.25-2.75l.45-.45 2.35-2.4.65-1.55q0-1.45-.7-2.9l-1.65-2.45-.3-.35-1.4-1.65q-1.25-1.6-1.25-2.4 0-1 .6-1.3l.9-.3.4-.15.35-.15q1.55-.95 1.55-4.75 0-1.25-2.25-5.35l-1.3-2.3q-1.4-2.25-2.35-3.15 1.25.95 2.2 1.1l3 .1 3.35-.1.65-.15q1.85-.55 3.55-3.05m-5.4 7.45q2.05 6.45 2.7 11.95-.65-5.5-2.7-11.95"/><path fill="url(#g)" d="M191.95 179.75l2.85.25 1.45.1q3.85.7 5.15 2.3l11.5-1.1q8.7-.45 16.95.2 2.1 2.45-4.65 5-10 .4-11.05 2.45l2.75.7-7.95 7.5 7.45-1.25 9.45-3.3 1.05-2.75.25-.45q1.45-2.8 4.05-4.2 2.75-1.55 5.15-.95 1.3.3 1.95.95l.35 11.85.15 5.8q0 1-2.85 1.9-4.6 1.4-16.45 2.55l-18-2.8-6.2-.95-.3-.05-.9-.15h-.1l-.95.6q-4.4 2.6-9.25 3.65l-4.5.6q-9.65.65-15.75-6.2-1.6-2.2-3.3-5.15l-1.5-2.75-1.5-3.9-.15-.5.15.5-.65.1-.5-.85-.35-.6-1.35-2.6q-5.8-6.4-7.25-17.85 2.05 3.1 5.25 5.85l4.25 3.25 4.6 2.8q2.2 1.2 4.35 2.2 6.95-5.6 16.6-5l2.6.25q4.05.55 7.15 2m-28.8 4.9l2.45-2.15-2.45 2.15m37.75-1.75q-3.65 1-6.55 2.9-2.85 1.85-4.95 4.6-.65.8-1.55 2.35l.4-1.55-.4 1.55q.9-1.55 1.55-2.35 2.1-2.75 4.95-4.6 2.9-1.9 6.55-2.9m.85.1l-.35-.6.35.6m5.45 14.4l1.75-.25-1.75.25M154 176.75l-.2-.2.2.2m36 26l3.1.5.9.1-.9-.1-3.1-.5"/><path fill="url(#h)" d="M216.9 189.65q3.6.45 10.25-.25l-.25.45-1.05 2.75-9.45 3.3-7.45 1.25 7.95-7.5"/><path fill="url(#i)" d="M82.5 65.15l-2.4-3.7-2.6.1q-1.9-.75-1.9-2.7 0-1.5-1.15-4.2l-2.3-4.25q-2.3-3.05-2.7-5-1.15-3.45.4-6.15.75-1.55 2.3-1.55 0-7.3.35-10.35.2-2.85.85-5.75.65-3.05 1.85-6.2 2.3-5.75 6.5-8.45 2.7-1.95 8.45-5Q94.4-.75 103.6.4q8.1.4 12.7 3.1 3.85 1.9 7.7 10.35l2.75 7.75 1.85 6.9q.8 3.85 1.2 10.75.35 5.75.35 11.95l-.05.75.3 5.8.1 2.3q.15 2.35-2.65 7.5l-2.8 4.65-.65 1.75-1.8 4.95-.15.45-.95 2.5-.45.55q-2.95 3.15-8.1 3.7l-7.9-.4q-3.6-.65-7.45-2l-2.35-1.75-.6-.9-.7-1.15-.55-.9-.65-1.1-10.1-12.6-.15-.15M120.55 42q-1.75.55-3.75 1.6l1.05.7q1.35.8 2.65 1 4.15.6 6.55-4.55-1.8-.45-5.1.65l-1.3.5-.05.05h-.05V42m-23.75.45q-3.15-.2-7.5 0l1.2 1q1.55 1.15 3.25 1.85l2.6.75.9.15h.35q3.45.1 6.7-2-1.55-1.3-6.25-1.65l-.8-.15-.45.05m21.8 25.25l-12.3.4-5 1.55 5-1.55 12.3-.4m-6.9-8.85q.4-.35 5.85.05 3.55-2.25 1.45-6.55l-3.4-8.15q-.8-.85-1.4-3.3-.6-2.5-1.35-3.55.75 1.05 1.35 3.55.6 2.45 1.4 3.3l3.4 8.15q2.1 4.3-1.45 6.55-5.45-.4-5.85-.05m-18.15 13.5l-.35 3.35q-.1 1.9.2 3.3-.3-1.4-.2-3.3l.35-3.35m30.95-2.9l.05 1.4-.15 3.1.15-3.1-.05-1.4m-47-28.65l-3.05-2.3q-1.15-.8-2.3-.8 1.15 0 2.3.8l3.05 2.3m2.6 20.65q-1.25-1-1.9-9.95l-.35-9.05.35 9.05q.65 8.95 1.9 9.95"/><path fill="url(#j)" d="M129.8 39.25l1.5-1.15q1.15-.75 1.15 1.15.4 5.75.4 9.25 0 7.3-.4 8.05 0 .4-1.9 1.15l-.15.05-.3-5.8.05-.75q0-6.2-.35-11.95"/><path fill="url(#k)" d="M147.3 153.1l-.2 1.4-.2 1.85.1-2.65.1-.25.2-.35m-24.8-73.25l.05.1h-.05v-.1.1l.05.05.5 3.05.05.15v.2l.05.1.1.75-.05.05-.05-.75-.4.75q-.4.65 0 .8l1.6-.05.75-.1h.2q-.65 5.05-2.05 8.85l-.25.55q-1.8 4.25-1.8 8.2l1.45 8.7v3.25q-2.2-7.15-6.1-10.3-1.5-1.15-3.9-2.05-1.4-.55-3.15-1-4.3-1.1-5.8-2.7-1.3-1.45-1.9-4.15l-.05-.15q-.45-2.1-.45-4.95 0-.85-3.4-3.15-2.95-2-4.25-2.5-1.5-.5-4.25-3.15-2.95-2.9-3.2-4.7l-2.9-5.4-.45-.85-.05 1.4q-.3 5.15-1.55 9.05v.05h-.2l-.1-.05.75-2.55q0-1.15.4-2.35.7-4.9.4-9.85l.15.15 10.1 12.6.65 1.1.55.9.7 1.15.6.9 2.35 1.75q3.85 1.35 7.45 2l7.9.4q5.15-.55 8.1-3.7l.45-.55.95-2.5.05.5m-27.85 1.2q-.95-.7-1.25-2.05.3 1.35 1.25 2.05m-12-15.75q.25 8.75-1.6 14.6v.05-.05q1.85-5.85 1.6-14.6m22.9 31.25q0-.35-3.75-2.25 3.75 1.9 3.75 2.25m16.55-7.7l-.8 2.35-.35 1.5-5.8 4.65 5.8-4.65.35-1.5.8-2.35m1-5.45l.05.15-.05-.15m0-.15l-.05-.2.05.2m24 71.25v-1.05 1.05M33.05 281.95L34.1 283l.9.85q2.5 2.55 4.05 2.7-1.55 0-4.2-2.7l-.05-.05-.65-.6-.3-.3-.55-.55-.25-.25v-.15"/><path fill="url(#l)" d="M58.05 85.25q-2.45 1.35-4.75 2.9l-2.55 1.9-10.65.6q-8.4-3.2-15.1-7Q6.35 73-.75 56.5q.2-.4-.8-.4-.25 0-3.75 2.35-3.95 2.35-6.65 2.35-13.65 0-25.75-13.15-2.95-3.15-8.5-10.45-4.3-5.6-6.45-7.5l-.2-.25q-6.1-7.7-9.1-18.95l-2.15-9.15Q-65.35-3.9-66.6-7q-21.85 15.05-35.5 29-18.65 19.15-24.05 38v.75l-8.65 17.85q-4.85 11.8-4.7 21.35.1 7.65-.1 20.1-.3 14.45.1 19.5l.3 7.9q.75 6.25 3.25 10.55 3.2 5.5 5.5 11.2l4.3 9.95q2.75 5.5 5.1 11.75l3.6 10q4.35 11.5 13.25 22.9l15.65 19.8q9.7 12.3 14.9 19.8 3.85 5.6 18.9 20.8 14.1 14.25 17.25 15.55l.05.25q.8 3.7 1.85 6.6 4.35 11.85 21 33.25l-30.65-24.3q-17.35-13.85-28.4-26-28.75-31.7-50.2-70.55-24.6-44.45-28.8-81.95l-7.35 5.1q-9.8 6.3-10.8 3.5-.6-1.55.75-6.45l3-10.4q2.1-7.8 7.05-18.3l2.6-5.35 9.4-24.3.95-3.35 1.75-5.45 3.4-9q-15.75 1.9-18.1-1l-.3-.55q-.25-.75.3-2 1.25-2.7 6.45-7.55 4.9-4.55 20.8-17.1l14.95-11.55q11.25-13.5 24.85-24.45 17.7-14.4 28.5-19.4 10.75-5 10.9 8.95.1 13.95 12 33.15Q-23.65 50.3-16.1 50.3q5.85 0 10.6-3.25Q-.4 43.5 0 38.3q2.9 14.5 24.3 30.25 18.45 13.55 33.75 16.7m-198.6-22.4l-1.35.2 1.35-.2"/><path fill="url(#m)" d="M-37.5 299.75q-3.15-1.3-17.25-15.55-15.05-15.2-18.9-20.8-5.2-7.5-14.9-19.8l-15.65-19.8q-8.9-11.4-13.25-22.9l-3.6-10q-2.35-6.25-5.1-11.75l-4.3-9.95q-2.3-5.7-5.5-11.2-2.5-4.3-3.25-10.55l-.3-7.9q-.4-5.05-.1-19.5.2-12.45.1-20.1-.15-9.55 4.7-21.35l8.65-17.85V60q5.4-18.85 24.05-38Q-88.45 8.05-66.6-7q1.25 3.1 2.5 8.35l2.15 9.15q3 11.25 9.1 18.95l.2.25q2.15 1.9 6.45 7.5 5.55 7.3 8.5 10.45Q-25.6 60.8-11.95 60.8q2.7 0 6.65-2.35 3.5-2.35 3.75-2.35 1 0 .8.4Q6.35 73 25 83.65q6.7 3.8 15.1 7-17.75 2.25-24.55 13.05-4.5 7.2-3.95 17.5l.05.85q.2 3.3.95 6.9l.05.3-.15-.1v.05q-.85 1.65-1.6 3.55l-3.6.2H0q-.6 1.45-.95 4.2-8.9-14.2-13.9-25.2-3.8-8.45-6.3-16.3-1.65-5.15-2.75-10.05-1.65-7.45-2.05-14.4V80l1.2 5.75v.05l2.25 10.25 5.8 26.6q4.85 22.55 4.85 24.25l.85.25-1.2 3.65q-.9 3.2-.9 5.6 0 8.95 5.85 26.4 5.5 16.4 13.05 31.35v7.3h-7.1l-3.1-1.9q-1.4-.9-3.65-.9-1.95 0-3.2 1.15-4.55-17.25-12-48.95-11-46.85-24.15-108.1V75.8q0 31.1 6.1 61.5 7.05 35.4 27.2 97.35l.9-.05.1 1.7q0 6.55.9 9.85.45 1.55 2 4.35 2.9 5.2 2.9 19.7h-1.5q-.8-.8-10.8-8l.6-.85-.9.6-.25-.15q-3.9-11.65-11.55-30.05Q-40.3 211-45 197.9l-9.95-26.95q-5.25-15-6.55-25.25-2.6-20.05-6.3-34.5-4.5-17.25-9.15-19.95v77.1q8.4 38.45 12.7 52.3 10 32.45 24.5 49.25v2.55q0 16.75 2.25 27.3m50-170.6l.1-.2-.1.2"/><path fill="url(#n)" d="M52.25 134.35l-.05-.1h-.05l-1.8-3.2q-6.1-10.4-7.8-15.2.55.9 2.6 2.45 2.6 2 4.45 2 2.6 0 3.65-2.05 1-2.1 3.05-2.1 1.55 0 1.9.9l.1.2.2 3.2-.6 5.15q0 1.2.6 3l.7-.15 1.95.5q1.8.85 1.8 2.15 0 .7-2.2 4.35l-2.25 3.8q0 4.5 4.8 5.3l2.55.25.9.05.75.05 3.75.6 7.35 2.95 5.95.25 4.1.45q2.15.15 3.9-1.05l2.95-2.7q2-1.9 3.9-2.6l3.05-.35h1.35q2.9.05 3.55-.5 3.05-2.6 3.3-3.2v-4.1q0-4.65-.6-7.25l-.2-.45-1.65-2.5q-1.55-2.2-1.45-3.55l4.2-.55.35-.2q1.35-.8 1.35-3.1 0-1.25-.45-2.3-.55-1.35-1.75-2.45l-2.2-2.05q0-.9.95-2.35.75-1.15 1.45-1.8h3.95l.05.25 1.5 6.35v.8l.45 2.85q1.05 7.9 1.05 14.45-1.15 6.55-3.85 11.55l-.15.25v.05L110 147.7l-4.65 3.5-6.9 1.6-11.55 2.6h-.2l-6.35-.4q-7.8-.7-13.65-3.05l-.3-.1-.65-.3q-5.85-2.5-9.3-6.8l-.3-.4q-.6-3.7-3.65-9.5v-.05l-.25-.45m2.35-12.8q-1.75 4.5-1.9 8.4l-.15-.3-1.75-3.05 1.75 3.05.15.3q.15-3.9 1.9-8.4m-1.4 9.6q2.4 5.6 2.95 13.2-.55-7.6-2.95-13.2"/><path fill="url(#o)" d="M53.2 138.5v-.35l1 3.05-1-2.7m64.1 9.6h.35q1.65 1.9 3.9 2.9l1.9.7 1.15.25h-.4q-4.2-.75-6.9-3.85M33.05 281.95v-.15l1.05 1.2-1.05-1.05"/><path fill="url(#p)" d="M56.35 144.85l-.15-.15v-.1l-.05-.25.3.4-.1.1-.15-.25.15.25"/><path fill="url(#q)" d="M56.35 144.85l.1-.1q3.45 4.3 9.3 6.8l.65.3.3.1q5.85 2.35 13.65 3.05l6.35.4h.2l11.55-2.6-1.45 1.25-4.2 3.4q-4.2 3.4-8.9 3.35-5.9-.8-9.6-.25-7 1-5.85 7.6H67.4q-.5-.5-1.25-.5-3.05 0-3.45 4.6l.2 6.8-.05 2.4-3.65-1.2-5.3-16.5q1.1-3.45 1.7-6.9l.6-4.9q.25-3.5 0-7l.15-.1m92.9 3.7l-1.6 3.4-.35.75v.4l-.2.35-.1.25q-.95 1.65-1.65 3.65-4.5 12.05-6.3 20.2v-.9l-.05-4.05-.3-4.7q-.25-1.75-2.4-4.15l-2.15-2.2q0-.75 1.05-1.8 1-1.05 1-1.65 0-2.95-4.25-4.75l-2.45-1H132.3l3.3-.4 4.05-.85.3-.1 4.15-.6q2.65-.6 4.9-1.7l.1-.05.15-.1"/><path fill="url(#r)" d="M56.2 144.95v-.25l.15.15-.15.1m-2.5 19.4l.1-.3.1-.3 5.3 16.5-.3-.1-1.35-4.65-3.85-11.15m.1-.3l3.75 11.45-3.75-11.45"/><path fill="url(#s)" d="M38.3 214.8q-.2-2.95-.95-6.6l-1-4.25-.35-1.3-1.55-4.2-4.25-9.65q-2.55-6.25-2.55-9.95 0-2.05 1.2-4 1.45-2.4 3.8-2.4l4.55.6 4.85.6h.8l7.35-1.1-1.1 2-2.1 3.5h-.3l-4.15.1-3.65.45-1.75.6-.8.3-.25.1 1.4 2.8.15.4.05.15q.85 2.35 1.35 5.5h.05q4.35-4.95 7.65-10.05l.25-.35q5.65.25 11.9 2.1l.3.1 3.65 1.2q7 2.55 14.7 6.95l7.65 3.5 4.4 1.95.65.3-.05.1-.6.85q-3.35 5.15-1.55 10.45l1.6 4.7 13.35-4q-2.25-1.3-4.1-3.45 6.95 1.85 11.9 2.05l10.5.15 2.5-.85 4.85-2.55 6.35-3.65 2.4-1.65 2.1-.3.6-.1q2.8 0 3.35 2.25.45 1.9.05 4.4l-.05.25-.15.65-.8 2.55-1.3 1.5-3.45 3.85-5.9 1.35-2.85 1.25q-4.7 4.6-12.95 4.75-.85 2.75-19.3-2.55l-3.6.1-19.65.35q-4.95 1.85-11.55 2.1l-6.45-.1-.95-.05q-8.45-.7-16.25-3.75m49.3-.45l5.55 1.9-5.55-1.9m28.65-7.75l5.05-1.6-5.05 1.6"/><path fill="url(#t)" d="M5.85 183.45q3.75 2.25 6.85 8.7 3.35 6.85 5.6 9.85l-1.65-1.55q-1.7-2.3-5.3-8l-5.5-9"/><path fill="url(#u)" d="M98.45 152.8l6.9-1.6 4.65-3.5 3.65-5.05v-.05l.15-.25q.65 2.45 2.25 4.65l.65.85.2.25h.4q2.7 3.1 6.9 3.85h.8l1.15.4h3.35l2.45 1q4.25 1.8 4.25 4.75 0 .6-1 1.65-1.05 1.05-1.05 1.8l2.15 2.2q2.15 2.4 2.4 4.15l.3 4.7.05 4.05v.9q-.7 3.05-1 5.55l1.45 12.9-2.1.3-2.4 1.65-6.35 3.65-5 .45L115 201l-1.2-.15-6.75-.85-2.25-.45-3.85-1.2.1-.2 1.6-4.15-1.4-4.4-1.8-.75-.75-.3-2 .05q-3.15.8-6.45 5.55l-.65-.3-4.4-1.95-7.65-3.5q-7.7-4.4-14.7-6.95l.05-2.4-.2-6.8q.4-4.6 3.45-4.6.75 0 1.25.5h1.05q-1.15-6.6 5.85-7.6 3.7-.55 9.6.25 4.7.05 8.9-3.35l4.2-3.4 1.45-1.25m-.4 4.9q.75 4.65-1.15 9.25Q95 170 90 180q-1.4 2.35-2.55 5.05-1.4 3.25-2.25 6.85.85-3.6 2.25-6.85 1.15-2.7 2.55-5.05 5-10 6.9-13.05 1.9-4.6 1.15-9.25m0 23.85q0 .4 1.95 1.15 3.05 1.55 6.5 1.95l2.75.65 2.65.2h.45l1.25-.05.2-.05v15.45-15.45l-.2.05-1.25.05h-.45l-2.65-.2-2.75-.65q-3.45-.4-6.5-1.95-1.95-.75-1.95-1.15M120 168.1l-3.2.85-3 .3-.2.05-1.25.05h-.45l-2.65-.2-2.75-.65q-3.45-1.15-5.75-2.3 2.3 1.15 5.75 2.3l2.75.65 2.65.2h.45l1.25-.05.2-.05V158.1v11.15l3-.3 3.2-.85m-6.2 1.15v16.15-16.15m16.2 28.1l-1.95.75-3.75 1.25L115 201l9.3-1.65 3.75-1.25 1.95-.75m-8.5-40.4q0 2.7 1.95 7.3 1.9 5 4.6 10.4 1.95 3.45 4.25 6.9l1.5 7.3q.8 4.55 1.2 9.1-.4-4.55-1.2-9.1l-1.5-7.3q-2.3-3.45-4.25-6.9-2.7-5.4-4.6-10.4-1.95-4.6-1.95-7.3m-7.7 28.45q6.55-.75 12.35-4.6-5.8 3.85-12.35 4.6"/><path fill="url(#v)" d="M89.65 210.25l-1.6-4.7q-1.8-5.3 1.55-10.45l.6-.85.05-.1q3.3-4.75 6.45-5.55l2-.05.75.3 1.8.75 1.4 4.4-1.6 4.15-.1.2-1.6 2.9-.05.05-.8 1.5h.4q1.85 2.15 4.1 3.45l-13.35 4"/><path fill="url(#w)" d="M156.7 190.5l-.1-.2.65-.1-.55.3"/><path fill="url(#x)" d="M100.95 198.35l3.85 1.2 2.25.45 6.75.85 1.2.15 8.65 1.05 5-.45-4.85 2.55-2.5.85-10.5-.15q-4.95-.2-11.9-2.05h-.4l.8-1.5.05-.05 1.6-2.9"/><path fill="url(#y)" d="M54.55 218.55l.95.05 6.45.1q6.6-.25 11.55-2.1l19.65-.35 3.6-.1q18.45 5.3 19.3 2.55 8.25-.15 12.95-4.75l2.85-1.25 5.9-1.35 4.25-1.5 26.85 76.3.4 1.05 6.15 17.15q-1.25 1.4-5.95 4.3l-7.1 5.05q-4.45 3.3-7.95 5.05l-5.15 2.4q-5.45 2.2-11.85 3.9l-8.45 1.9q-7.55 1.35-16.15 2.1h-.05l-20.5.85h-1.1l-1.45-.05-13.4-.35-16.4-1.2-10.9-1.25-5.05-.75-9.6-1.65 5.5-42.05.05-.4-.05-1.5v-.5q2.7-11.25 8.65-33.3 4-15.95 6.05-28.35M73.6 229.8l-13.7 98.5 13.7-98.5m20.45-.25l-2.9 100.35 2.9-100.35m22.75-1l20.6 96.5-20.6-96.5m-4.35 100l.3.5-.3-.5M131 226l29.65 88.3L131 226"/><path fill="url(#z)" d="M141.2 207.5l.8 2.35-4.25 1.5 3.45-3.85"/><path fill="url(#A)" d="M80.95 380.85l-1.95 6.5-3 8.5q-2.7 8.45-3.85 14.2-1.15 8.5-1.55 12.35-.6 3.9-.25 5.65l.25.85.4 4.25.15.75q.45 2.55-.55 3.85-.75 1.15-1.15 5.4v.4q0 1.9.4 3.45l3.45 9.6 1.15 1.55 1.9 3.45q1.95 3.7 2.05 6.45-.1-2.75-2.05-6.45l-1.9-3.45-1.15-1.55-3.45-9.6q-.4-1.55-.4-3.45.05 1.65.4 3.05l3.45 9.65 1.15 1.5q.75 1.95 1.9 3.5 2.1 3.95 2.05 6.8-.05 1.3-.55 2.4l-.1.2q-2.2 4.1-4.1 5.95-1.9 2.3-5.35 2.7l-11.7.4h-2.95q-11.5-.4-12.3-3.45-.35-.95-.4-2.05-.05-1.6.45-3.55l.2-.85-.2.85q-.5 1.95-.45 3.55-.1-1.6.4-3.55l.25-.85.55-1.65 1.9-3.45 1.15-2.3q.8-.4 3.1-6.15 1.9-5.4 1.9-6.95v-4.6l-1.55-2.7v-3.85l.8-11.55-.55-14.95q-.35-3-1-5.4L45.6 397l-1.4-6.4-.9-3.6-.3-2.5-.2-6.9q.05-6.75 1.65-12.9l4-12.45.6-1.8.8-3.05-.15-.3-.1-.2-1.7-4.15-.5-1.4q-1.55-4.7-2.55-9.75l-.9-5.3 5.05.75 10.9 1.25 16.4 1.2 13.4.35 1.45.05h.9L89 336.6q-4 10.15-5.75 15.65l-1.15 4V367q1.15 7.3-1.15 13.85m-13.05-35q4.1-4.9 8.4-16.35-4.3 11.45-8.4 16.35M61 344.3l-3.85 1.15q-1.55.4-2.7-.4l-1.55-1.9q-1.75-3.95-3.9-16.1 2.15 12.15 3.9 16.1l1.55 1.9q1.15.8 2.7.4L61 344.3m-18.2 33.3q.25-6.55 2.05-12.55l3.65-12.8.55-1.8-.55 1.8-3.65 12.8q-1.8 6-2.05 12.55m5.85 60.95l.8-11.55v-.4.4l-.8 11.55m-6.5 29.6l1.9-3.1 1.15-2.3q1.15-.35 3.1-6.15 2.3-5.75 2.3-6.9V447l-.4-1.95.4 1.95v2.7q0 1.15-2.3 6.9-1.95 5.8-3.1 6.15l-1.15 2.3-1.9 3.1"/><path fill="url(#B)" d="M154.4 318.75q.05 6.55.4 8.65 1.15 1.5 1.15 5.35l.2 2.75-.2-2.35v-.4.4l.2 2.35-.2 1.9v.35l.75 8.1 1.1 6.4.05.5 3.45 31.95.25 2.25 4.35 32.2.4 1.3q.4 1.95 3.1 4.25l4.2 3.85 3.9 3.5.35.35 1.6 2.05 1.1 1.8 3.45 1.5q4.25 1.55 8.45 3.5 5.4 2.35 8.4 3.95 3.35 1.75 3.55 2.55.4.8-.4 3.1-1.15 2.3-2.7 4.2-5 6.2-11.5 6.95-4.05.25-9.8-3.25l-7.8-6.05-5.1-4.95-2.7-2.7-2.7-.35-5.4-.4q-7.2-1.55-7.3-5.3v-.1q0-2.65 1.15-8.45l.55-3.95-.15-1.05-3.85-8.45q-4.6-10-7.7-18.45-1.55-1.15-3.45-3.5-4.25-4.2-7.7-10-4.25-8.05-5.4-17.3l-.25-1.7-.15-.95-.2-7.7q.1-2.55.45-5.15.55-3.75 1.6-7.65l.1-.3q-1.55-1.55-3.05-3.85-4.45-5.5-8.15-11.4 8.6-.75 16.15-2.1 2.15 4.6 4.3 4.3 6.55-.8 10.75-3.85 2.9-2.5 5.25-6.25-2.35 3.75-5.25 6.25-4.2 3.05-10.75 3.85-2.15.3-4.3-4.3l8.45-1.9q6.4-1.7 11.85-3.9l5.15-2.4M129 349.7l-5-5-.1-.1.1.1 5 5m32.55 37.25l-.25-1.9-3.45-31.9-.1-.9-1.05-6q-.75-6.95-.75-8.5 0 1.55.75 8.5l1.05 6 .1.9 3.45 31.9.25 1.9M124 344.7q-1.05 3.85-1.6 7.55-.4 2.6-.55 5.15.15-2.55.55-5.15.55-3.7 1.6-7.55m45.4 80q-2.7-1.95-3.1-3.85l-.4-1.7.4 1.7q.4 1.9 3.1 3.85.75 1.15 4.2 4.2l3.9 3.15-3.9-3.15q-3.45-3.05-4.2-4.2m31.45 20.5q-3-1.5-8.4-3.6-4.2-1.9-8.45-3.45l-3.45-1.55-1.1-2.15 1.1 2.15 3.45 1.55q4.25 1.55 8.45 3.45 5.4 2.1 8.4 3.6M149 438.9q.1-2.7 1.15-8.05l.55-4.35-.55 4.35q-1.05 5.35-1.15 8.05"/><path fill="url(#C)" d="M-.95 137.15l-.2 2.25-.15 8.4q-3-1.5-4.5-2.05-2.5-.95-4.5-.95l-.7 2.35-.85-.25q0-1.7-4.85-24.25l-5.8-26.6-2.25-10.25v-.05l-1.2-5.75v-8.8q.4 6.95 2.05 14.4 1.1 4.9 2.75 10.05 2.5 7.85 6.3 16.3 5 11 13.9 25.2m-10.3 82.65q-1.55 1.4-1.95 4.65-.3 3.05 0 10.1v.05l-.9.05q-20.15-61.95-27.2-97.35-6.1-30.4-6.1-61.5V62.75q13.15 61.25 24.15 108.1 7.45 31.7 12 48.95m-8.35 42.4l-.3-.25.9-.6-.6.85"/><path fill="none" stroke="#515151" stroke-width=".05" stroke-linecap="round" stroke-linejoin="round" d="M203.35-12.4l.7-.35m-.7.35h-.05M-24.75 85.75v.05"/><path fill="none" stroke="#B9B9B9" stroke-width=".05" stroke-linecap="round" stroke-linejoin="round" d="M133.4 81.55q3.1-5.05 8.8-17.8 8.35-18.85 8.35-25.45 3.6 3.6 6.5 8.6 4.3 7.5 3.8 13.7 12.2-8.9 20.4-41.35 3.35-13.5 4.7-26.45 1.3-13 14.85-19.2 12.4 8.9 24.3 25.6 4.55 6.35 9.4 14.55l.05.05 9.95 11.05q11.5 12.1 19.1 17.2 4.5 3 6.35 6.15 1.8 3.05.6 5.15-2.85 4.8-16.55 1.2 3.7 10.5 6.25 21.55l1.7 8.45v.05l6 14q7.15 16.1 12.75 25.75 6.1 10.5 1.6 12-2.3.8-18.5-1.6-.85 17.5-2.9 32.45-4.1 29.75-13.05 49.2-9.2 19.95-14.55 32.85-4.3 10.2-6.1 16-4.2 13-38.25 61.25l4.3-23.65-.8 1.3M254 54.55l-1-.3m-194.95 31q-15.3-3.15-33.75-16.7Q2.9 52.8 0 38.3q-.4 5.2-5.5 8.75-4.75 3.25-10.6 3.25-7.55 0-25.45-28.75-11.9-19.2-12-33.15-.15-13.95-10.9-8.95-10.8 5-28.5 19.4-13.6 10.95-24.85 24.45l-14.95 11.55q-15.9 12.55-20.8 17.1-5.2 4.85-6.45 7.55-.55 1.25-.3 2l.3.55q2.35 2.9 18.1 1l1.35-.2m151.45 69.9l-3.6.2H0q-.6 1.45-.95 4.2l-.2 2.25-.15 8.4q-3-1.5-4.5-2.05-2.5-.95-4.5-.95l-.7 2.35-1.2 3.65q-.9 3.2-.9 5.6 0 8.95 5.85 26.4 5.5 16.4 13.05 31.35v7.3h-7.1l-3.1-1.9q-1.4-.9-3.65-.9-1.95 0-3.2 1.15-1.55 1.4-1.95 4.65-.3 3.05 0 10.1v.05l.1 1.7q0 6.55.9 9.85.45 1.55 2 4.35 2.9 5.2 2.9 19.7h-1.5q-.8-.8-10.8-8l-.3-.25h-.2l-.05-.15-2.25-1.65q-13.7-9.95-15.85-10.55-1.35 6.7-1.5 20.3v2.55q0 16.75 2.25 27.3l.1.05.4.05.7-.25.25-.55m229.3 3.8l4.55-25.15-1.85-61.4-.05-.35-.6-12.4m-.3-.05q-.45 2.5-1.65 5.65l-.05.05-1.65 3.7q-2.25 4.65-5.65 18.9l-5.8 20.7q2.4-26.9 3.6-44.9M-141.9 63.05l-3.4 9-1.75 5.45-.95 3.35-9.4 24.3-2.6 5.35q-4.95 10.5-7.05 18.3l-3 10.4q-1.35 4.9-.75 6.45 1 2.8 10.8-3.5l7.35-5.1q4.2 37.5 28.8 81.95 21.45 38.85 50.2 70.55 11.05 12.15 28.4 26l30.65 24.3q-16.65-21.4-21-33.25-1.05-2.9-1.85-6.6l-.05-.25m17.6-37.8l-.25-.15m1.15-.45l-.9.6"/><path fill="none" stroke="#C16B33" stroke-width=".05" stroke-linecap="round" stroke-linejoin="round" d="M148.45 85.35l.65.25q2.9 1 5.7 2.35 14.85 7.1 20.5 17.8l.2.4.8 1.65q4.5 10.5.7 24.25l-1.05 3.45-.2.6-.1.35-1.9 4.8-.1.2-.3.65m4.9-8.95q4.2 4 7.85 11.75 1.6 3.4 2.8 7.05 2.9 9.1 3.2 19.7l-.15 8.1 2.85.25 1.45.1q3.85.7 5.15 2.3l11.5-1.1q8.7-.45 16.95.2 2.1 2.45-4.65 5-10 .4-11.05 2.45l2.75.7q3.6.45 10.25-.25 1.45-2.8 4.05-4.2 2.75-1.55 5.15-.95 1.3.3 1.95.95l.35 11.85.15 5.8q0 1-2.85 1.9-4.6 1.4-16.45 2.55l-18-2.8-6.2-.95-.3-.05-.9-.15h-.1l-.9-.1-3.1-.5m-27.3-98.45v1.8q-2.05 3.4-2.55 9.25v.45q-.15 2.15-.15 7.9l.05.4q.9 7.95-1.2 13.75-1.8 4.9-5.8 8.25l-3.8 2.45-1.6 3.4-.35.75v.4l-.2 1.4-.2 1.85q-.5 5.4.2 11.55l.05.5m18.45 14.1q6.95-5.6 16.6-5l2.6.25q4.05.55 7.15 2M177 132.05h.05l1.2 1.1M165.6 182.5l-2.45 2.15m38.25-2.25l.35.6m-13.5 8.2l-.4 1.55q.9-1.55 1.55-2.35 2.1-2.75 4.95-4.6 2.9-1.9 6.55-2.9m26.25 6.5l-.25.45-1.05 2.75-9.45 3.3-7.45 1.25-1.75.25M82.5 65.15l-2.4-3.7-2.6.1q-1.9-.75-1.9-2.7 0-1.5-1.15-4.2l-2.3-4.25q-2.3-3.05-2.7-5-1.15-3.45.4-6.15.75-1.55 2.3-1.55 0-7.3.35-10.35.2-2.85.85-5.75.65-3.05 1.85-6.2 2.3-5.75 6.5-8.45 2.7-1.95 8.45-5Q94.4-.75 103.6.4q8.1.4 12.7 3.1 3.85 1.9 7.7 10.35l2.75 7.75 1.85 6.9q.8 3.85 1.2 10.75.35 5.75.35 11.95l-.05.75.3 5.8.1 2.3q.15 2.35-2.65 7.5l-2.8 4.65-.65 1.75-1.8 4.95m-.05 1.05h.05l10.8 1.6q8.4 1.5 15.05 3.8m-26.5-43.95h.15q.9 0 1.55.55t.65 1.35q0 .8-.65 1.35t-1.55.55q-.9 0-1.55-.55t-.65-1.35q0-.8.65-1.3-1.75.55-3.75 1.6l1.05.7q1.35.8 2.65 1 4.15.6 6.55-4.55-1.8-.45-5.1.65l-1.3.5-.05.05-.05.05v-.05h.05m-23.8.5q-3.15-.2-7.5 0l1.2 1q1.55 1.15 3.25 1.85l2.6.75-.65-.4q-.65-.55-.65-1.35t.65-1.35q.45-.4 1.1-.5l.45-.05.8.15q4.7.35 6.25 1.65-3.25 2.1-6.7 2h-.35l-.9-.15m1.7-3.5l.75.4q.65.55.65 1.35t-.65 1.35q-.5.45-1.2.55m15.25-8.85q.75 1.05 1.35 3.55.6 2.45 1.4 3.3l3.4 8.15q2.1 4.3-1.45 6.55-5.45-.4-5.85-.05m-10.4 10.8l5-1.55 12.3-.4m-35.75 1.75l-.05 1.4q-.3 5.15-1.55 9.05v.05h-.2l-.1-.05q-9.65-1.25-20.8 4.25l-2.1 1.1q-2.45 1.35-4.75 2.9l-2.55 1.9h12.5m19.25-24.9l.15.15 10.1 12.6.65 1.1q-.3-1.4-.2-3.3l.35-3.35M93.4 79l.55.9.7 1.15.6.9 2.35 1.75q3.85 1.35 7.45 2l7.9.4q5.15-.55 8.1-3.7l.45-.55.95-2.5.15-.45m-29.2.1q.3 1.35 1.25 2.05m-13.6-1.1v-.05q1.85-5.85 1.6-14.6m19.1 28.85q-1.85-1.1-3.7-1.8l-4.6-4.25m8.35 6.2q3.75 1.9 3.75 2.25m9.6.8l5.8-4.65.35-1.5.8-2.35m2.3-14.9l.15-3.1-.05-1.4m-2 10.4v.1h.05m0 .05l.05.1.15.3m.35 2.85V83.4m.1.9l.05.35m-.05-.35l-.05-.75-.05-.15m-.6-3.45l.05.05m-50.4-42.3q1.15 0 2.3.8l3.05 2.3M40.1 90.65l10.65-.6m27.1-47.6l.35 9.05q.65 8.95 1.9 9.95M11.6 121.2l.05.85q.2 3.3.95 6.9l.05.3.85 3.55.45 1.65.05.25 1.35 3.95 1.1 2.65.45 1.1m35.35-8.05l.25.45m3.65 9.55q-.55-7.6-2.95-13.2m-2.4-4.55l1.75 3.05.15.3q.15-3.9 1.9-8.4m1.6 23.15v.25m0-.25v-.1l-.05-.25.3.4q3.45 4.3 9.3 6.8l.65.3.3.1q5.85 2.35 13.65 3.05l6.35.4h.2l11.55-2.6 6.9-1.6 4.65-3.5 3.65-5.05v-.05l.15-.25q2.7-5 3.85-11.55 0-6.55-1.05-14.45l-.45-2.85v-.8l-1.5-6.35-.05-.25m-103 15.1q-.55-10.3 3.95-17.5 6.8-10.8 24.55-13.05m-27.6 38.5v.05q-.85 1.65-1.6 3.55-2.1 5.1-3.8 12.1l-1.45 7.1q-2.65 15.75 0 30.9m6.95-53.9l-.1.2m25.8 85.65q7.8 3.05 16.25 3.75l.95.05 6.45.1q6.6-.25 11.55-2.1l19.65-.35-5.55-1.9m-81.75-30.9l5.5 9q3.6 5.7 5.3 8L18.3 202q9.35 8.6 20 12.8M5.7 183.2v.15m.15.1l-.15-.25-.05-.35m36.9-4.7l-3.6.5-1.8.55-.8.3m17.55-15.75q1.1-3.45 1.7-6.9l.6-4.9q.25-3.5 0-7m-2.5 19.4l.1-.3.1-.3 5.3 16.5 3.65 1.2q7 2.55 14.7 6.95l7.65 3.5q.85-3.6 2.25-6.85 1.15-2.7 2.55-5.05 5-10 6.9-13.05 1.9-4.6 1.15-9.25M50.2 172.55q2.1-4.1 3.5-8.2m5.2 15.8l.3.1m-16.65-2.1l4.15-.1h.3l2.1-3.5 1.1-2m-3.45 5.85l.25-.35q5.65.25 11.9 2.1M160 123.7q-.65-5.5-2.7-11.95m-43.5 30.6q.65 2.45 2.25 4.65l.65.85.2.25m.55 0h.2q1.65 1.9 3.9 2.9l1.9.7 1.15.25m.2 0h.2l1.15.4m5.15 0h1l3.3-.4 4.05-.85.3-.1 4.15-.6q2.65-.6 4.9-1.7l.1-.05.15-.1m-48.5 17.65q2.3 1.15 5.75 2.3l2.75.65 2.65.2h.45l1.25-.05.2-.05V158.1m0 11.15l3-.3 3.2-.85m-6.2 32.75V185.4l-.2.05-1.25.05h-.45l-2.65-.2-2.75-.65q-3.45-.4-6.5-1.95-1.95-.75-1.95-1.15m-7.8 12.6l-.65-.3-4.4-1.95m4.45 18.35l-1.6-4.7q-1.8-5.3 1.55-10.45l.6-.85.05-.1q3.3-4.75 6.45-5.55l2-.05.75.3 1.8.75 1.4 4.4-1.6 4.15-.1.2 3.85 1.2 2.25.45 6.75.85 1.2.15 9.3-1.65 3.75-1.25 1.95-.75m-16.2-11.95v-16.15m33.3-15.8l-.1.25m.3-.6l-.2.35m-8.05 24.1q1.8-8.15 6.3-20.2.7-2 1.65-3.65m-7.95 23.85q-.7 3.05-1 5.55l1.45 12.9.6-.1q2.8 0 3.35 2.25.45 1.9.05 4.4l-.05.25-.15.65-.8 2.55-1.3 1.5-3.45 3.85-5.9 1.35-2.85 1.25q-4.7 4.6-12.95 4.75-.85 2.75-19.3-2.55l-3.6.1m61.25 102.5q.05 6.55.4 8.65 1.15 1.5 1.15 5.35v.4l.2 2.35-.2 2.25q0 1.55.75 8.5l1.05 6 .1.9 3.45 31.9.25 1.9 4.35 32.2.4 1.7q.4 1.9 3.1 3.85.75 1.15 4.2 4.2l3.9 3.15.75.7 1.2 1.7 1.1 2.15 3.45 1.55q4.25 1.55 8.45 3.45 5.4 2.1 8.4 3.6 3.35 1.75 3.55 2.55.4.8-.4 3.1-1.15 2.7-2.7 4.6-5 6.15-11.5 6.95-3.85.2-9.8-3.65l-7.8-6.05-5.1-4.55-2.7-2.7-2.7-.4-5.4-.35q-7.3-1.55-7.3-5.4v-.4m1.7-12.4l-.15-.65-3.85-8.45q-4.6-10.4-7.7-18.5-1.55-1.15-3.45-3.45-4.25-4.2-7.7-10-4.25-8.05-5.4-17.3-.2-1.05-.25-2.1l-.15-.95-.2-7.7q.15-2.55.55-5.15.55-3.7 1.6-7.55l5 5m-5.1-5.1q-1.5-1.5-2.95-3.75-4.45-5.6-8.2-11.8m-20.5.85L89 337q-3.9 9.9-5.5 15.25-.8 2.5-1.05 4v11.15q.8 7.3-1.5 13.45l-1.95 6.5-3 8.9q-2.7 8.05-3.85 14.2Q71 418.9 71 422.75q-.85 3.7-.65 5.3l.25.85.4 4.25.15.75q.5 2.55-.15 3.85-1.15 1.55-1.55 5.8m8.95 24.5q0 1.45-.45 2.6l-.1.2q-2.25 4.2-4.2 6.15-1.9 2.3-5.35 2.7H53.65q-11.5 0-12.3-3.1-.4-1.05-.4-2.4m.65-4.4l.55-1.65m8.05-23.1l-1.55-2.65v-3.85m.8-11.95l-.55-14.95q-.4-2.8-1-5.05l-2.3-9.6-1.4-6.4-.9-3.2-.3-2.9-.2-6.9m6.25-27.15l.8-3.05-.15-.3-.1-.2-.95-1.85-.75-1.9-.5-1.8q-1.55-4.7-2.55-9.75l-.9-5.3M135 197.95q-.4-4.55-1.2-9.1l-1.5-7.3q-2.3-3.45-4.25-6.9-2.7-5.4-4.6-10.4-1.95-4.6-1.95-7.3m18 39.05l-2.1.3-2.4 1.65-6.35 3.65-4.85 2.55-2.5.85-5.05 1.6m37.55-30.05l.2.2m3.25 13.45l-.15-.5m-.5.6l-.5-.85-.35-.6-1.35-2.6q-5.8-6.4-7.25-17.85m10.1 21.8l1.5 3.9 1.5 2.75q1.7 2.95 3.3 5.15 6.1 6.85 15.75 6.2l4.5-.6q4.85-1.05 9.25-3.65l.95-.6m-67.85-22.55q-5.8 3.85-12.35 4.6M115 201l8.65 1.05 5-.45m-29.75 1.2q1.85 2.15 4.1 3.45m-2.05-7.9l-1.6 2.9-.05.05-.8 1.5h.4M49 327.05q2.15 12.15 3.9 16.1l1.55 1.9q1.15.8 2.7.4L61 344.3m15.3-14.8q-4.3 11.45-8.4 16.35m-18.85 4.6l-.55 1.8-3.65 12.8q-1.8 6-2.05 12.55m106.45-56.45q-2.35 3.75-5.25 6.25-4.2 3.05-10.75 3.85-2.15.3-4.3-4.3m-5.05 17.65l.1.1m-31.95-14.8h-.9m59.55 96.6l-.55 4.35q-1.05 5.35-1.15 8.05m-99.55-12.3v.4l-.8 11.55m1.55 6.5l.4 1.95v2.7q0 1.15-2.3 6.9-1.95 5.8-3.1 6.15l-1.15 2.3-1.9 3.1m36.25-.1q-.1-2.75-2.05-6.45l-1.9-3.45-1.15-1.55-3.45-9.6q-.4-1.55-.4-3.45M41.6 469.8l-.2.85q-.5 1.95-.45 3.55"/><path fill="none" stroke="#77411A" stroke-width=".05" stroke-linecap="round" stroke-linejoin="round" d="M129.8 39.25l1.5-1.15q1.15-.75 1.15 1.15.4 5.75.4 9.25 0 7.3-.4 8.05 0 .4-1.9 1.15l-.15.05"/><path fill="none" stroke="#9B5526" stroke-width=".05" stroke-linecap="round" stroke-linejoin="round" d="M122.6 78.9l-.1.95m.25.55l.3 2.55v.1l.05.2m-66.75 61.6l-.15-.25m1.35 30.9l-3.75-11.45m3.75 11.45l1.35 4.65m88.2-26.7v1.05"/><path fill="none" stroke="#915228" stroke-width=".05" stroke-linecap="round" stroke-linejoin="round" d="M39.05 188.45h.05m108.05-20.05l-.2-.4-.5-.75m10.25 23.25l-.1-.2m2.15 3.8l-2.05-3.6"/><path fill="none" stroke="#999" stroke-width=".05" stroke-linecap="round" stroke-linejoin="round" d="M141.2 207.5l.8 2.35 26.85 76.3.4 1.05 6.15 17.15q-1.25 1.4-5.95 4.3l-7.1 5.05q-4.45 3.3-7.95 5.05l-5.15 2.4q-5.45 2.2-11.85 3.9m-24.65 4l-20.5.85h-.2m-48.1-3.6l-9.6-1.65 5.5-42.05m0-1.9v-.5q2.7-11.25 8.65-33.3 4-15.95 6.05-28.35m-14.7 62.15l.05 1.5-.05.4m4.1 43.7l5.05.75 10.9 1.25 16.4 1.2 13.4.35 1.45.05m37.8-2.95q-7.55 1.35-16.15 2.1h-.05l-.3-.5m16.5-1.6l8.45-1.9"/><path fill="none" stroke="#975C35" stroke-width=".05" stroke-linecap="round" stroke-linejoin="round" d="M163.55 202q-2.8-3.15-4.8-7.9"/><path fill="none" stroke="#371D0C" stroke-width=".05" stroke-linecap="round" stroke-linejoin="round" d="M39.85 282.6v-1.9"/><path fill="none" stroke="#ABABAB" stroke-width=".05" stroke-linecap="round" stroke-linejoin="round" d="M59.9 328.3l13.7-98.5m17.55 100.1l2.9-100.35m43.35 95.5l-20.6-96.5m43.85 85.75L131 226"/></svg>