<svg xmlns="http://www.w3.org/2000/svg" viewBox="0 0 156.1 202.8" width="156.1" height="202.8" preserveAspectRatio="xMinYMin"><defs><linearGradient gradientUnits="userSpaceOnUse" x1="-819.2" x2="819.2" gradientTransform="matrix(.012 .001 -.003 .029 152.7 117.35)" id="a"><stop offset="0" stop-color="#7F5629"/><stop offset=".192" stop-color="#67411D"/><stop offset=".447" stop-color="#4C2A10"/><stop offset=".6" stop-color="#42210B"/><stop offset=".945"/></linearGradient><linearGradient gradientUnits="userSpaceOnUse" x1="-819.2" x2="819.2" gradientTransform="matrix(-.005 -.017 .007 -.002 138.7 97.8)" id="b"><stop offset="0" stop-color="#7F5629"/><stop offset=".192" stop-color="#67411D"/><stop offset=".447" stop-color="#4C2A10"/><stop offset=".6" stop-color="#42210B"/><stop offset=".945"/></linearGradient><linearGradient gradientUnits="userSpaceOnUse" x1="-819.2" x2="819.2" gradientTransform="matrix(-.007 -.027 .011 -.003 74.8 97.7)" id="c"><stop offset="0" stop-color="#7F5629"/><stop offset=".192" stop-color="#67411D"/><stop offset=".447" stop-color="#4C2A10"/><stop offset=".6" stop-color="#42210B"/><stop offset=".945"/></linearGradient><radialGradient gradientUnits="userSpaceOnUse" r="819.2" cx="0" cy="0" spreadMethod="pad" gradientTransform="matrix(.004 0 0 .004 83.15 118.8)" id="d"><stop offset="0" stop-color="#fff"/><stop offset="1"/></radialGradient><linearGradient gradientUnits="userSpaceOnUse" x1="-819.2" x2="819.2" gradientTransform="matrix(-.025 0 0 -.029 59.85 119.6)" id="e"><stop offset="0" stop-color="#7F5629"/><stop offset=".192" stop-color="#67411D"/><stop offset=".447" stop-color="#4C2A10"/><stop offset=".6" stop-color="#42210B"/><stop offset=".945"/></linearGradient><linearGradient gradientUnits="userSpaceOnUse" x1="-819.2" x2="819.2" gradientTransform="matrix(-.028 .017 -.012 -.019 67.75 152.8)" id="f"><stop offset="0" stop-color="#7F5629"/><stop offset=".192" stop-color="#67411D"/><stop offset=".447" stop-color="#4C2A10"/><stop offset=".6" stop-color="#42210B"/><stop offset=".945"/></linearGradient><linearGradient gradientUnits="userSpaceOnUse" x1="-819.2" x2="819.2" gradientTransform="matrix(-.019 .026 -.022 -.016 83.75 172.5)" id="g"><stop offset="0" stop-color="#7F5629"/><stop offset=".192" stop-color="#67411D"/><stop offset=".447" stop-color="#4C2A10"/><stop offset=".6" stop-color="#42210B"/><stop offset=".945"/></linearGradient><radialGradient gradientUnits="userSpaceOnUse" r="819.2" cx="0" cy="0" spreadMethod="pad" gradientTransform="matrix(.004 0 0 .004 144.1 117.1)" id="h"><stop offset="0" stop-color="#fff"/><stop offset="1"/></radialGradient><radialGradient gradientUnits="userSpaceOnUse" r="819.2" cx="0" cy="0" spreadMethod="pad" gradientTransform="matrix(.05 0 0 .05 124.35 136.2)" id="i"><stop offset="0" stop-color="#fff"/><stop offset="1"/></radialGradient><linearGradient gradientUnits="userSpaceOnUse" x1="-819.2" x2="819.2" gradientTransform="matrix(.002 0 0 .003 136.3 109.85)" id="j"><stop offset="0" stop-color="#7F5629"/><stop offset=".192" stop-color="#67411D"/><stop offset=".447" stop-color="#4C2A10"/><stop offset=".6" stop-color="#42210B"/><stop offset=".945"/></linearGradient><linearGradient gradientUnits="userSpaceOnUse" x1="-819.2" x2="819.2" gradientTransform="matrix(-.002 -.02 .026 -.002 113.7 105.2)" id="k"><stop offset="0" stop-color="#7F5629"/><stop offset=".192" stop-color="#67411D"/><stop offset=".447" stop-color="#4C2A10"/><stop offset=".6" stop-color="#42210B"/><stop offset=".945"/></linearGradient><linearGradient gradientUnits="userSpaceOnUse" x1="-819.2" x2="819.2" gradientTransform="matrix(.013 .008 -.008 .013 147.35 148.6)" id="l"><stop offset="0" stop-color="#7F5629"/><stop offset=".192" stop-color="#67411D"/><stop offset=".447" stop-color="#4C2A10"/><stop offset=".6" stop-color="#42210B"/><stop offset=".945"/></linearGradient><linearGradient gradientUnits="userSpaceOnUse" x1="-819.2" x2="819.2" gradientTransform="matrix(0 -.004 .004 0 135.85 137.95)" id="m"><stop offset="0" stop-color="#7F5629"/><stop offset=".192" stop-color="#67411D"/><stop offset=".447" stop-color="#4C2A10"/><stop offset=".6" stop-color="#42210B"/><stop offset=".945"/></linearGradient><linearGradient gradientUnits="userSpaceOnUse" x1="-819.2" x2="819.2" gradientTransform="matrix(0 -.004 .004 0 142.4 128.2)" id="n"><stop offset="0" stop-color="#7F5629"/><stop offset=".192" stop-color="#67411D"/><stop offset=".447" stop-color="#4C2A10"/><stop offset=".6" stop-color="#42210B"/><stop offset=".945"/></linearGradient><linearGradient gradientUnits="userSpaceOnUse" x1="-819.2" x2="819.2" gradientTransform="matrix(.014 .015 -.016 .014 135 169.35)" id="o"><stop offset="0" stop-color="#7F5629"/><stop offset=".192" stop-color="#67411D"/><stop offset=".447" stop-color="#4C2A10"/><stop offset=".6" stop-color="#42210B"/><stop offset=".945"/></linearGradient><linearGradient gradientUnits="userSpaceOnUse" x1="-819.2" x2="819.2" gradientTransform="matrix(0 -.004 .004 0 126.35 144.1)" id="p"><stop offset="0" stop-color="#7F5629"/><stop offset=".192" stop-color="#67411D"/><stop offset=".447" stop-color="#4C2A10"/><stop offset=".6" stop-color="#42210B"/><stop offset=".945"/></linearGradient><linearGradient gradientUnits="userSpaceOnUse" x1="-819.2" x2="819.2" gradientTransform="matrix(.004 0 -.001 .006 90.75 114.5)" id="q"><stop offset="0" stop-color="#7F5629"/><stop offset=".192" stop-color="#67411D"/><stop offset=".447" stop-color="#4C2A10"/><stop offset=".6" stop-color="#42210B"/><stop offset=".945"/></linearGradient><linearGradient gradientUnits="userSpaceOnUse" x1="-819.2" x2="819.2" gradientTransform="matrix(0 -.004 .004 0 86.7 129.85)" id="r"><stop offset="0" stop-color="#7F5629"/><stop offset=".192" stop-color="#67411D"/><stop offset=".447" stop-color="#4C2A10"/><stop offset=".6" stop-color="#42210B"/><stop offset=".945"/></linearGradient><linearGradient gradientUnits="userSpaceOnUse" x1="-819.2" x2="819.2" gradientTransform="matrix(0 -.004 .004 0 94.1 138.7)" id="s"><stop offset="0" stop-color="#7F5629"/><stop offset=".192" stop-color="#67411D"/><stop offset=".447" stop-color="#4C2A10"/><stop offset=".6" stop-color="#42210B"/><stop offset=".945"/></linearGradient><linearGradient gradientUnits="userSpaceOnUse" x1="-819.2" x2="819.2" gradientTransform="matrix(0 -.004 .004 0 104.25 144.15)" id="t"><stop offset="0" stop-color="#7F5629"/><stop offset=".192" stop-color="#67411D"/><stop offset=".447" stop-color="#4C2A10"/><stop offset=".6" stop-color="#42210B"/><stop offset=".945"/></linearGradient><linearGradient gradientUnits="userSpaceOnUse" x1="-819.2" x2="819.2" gradientTransform="matrix(0 .026 -.027 0 113.65 178.35)" id="u"><stop offset="0" stop-color="#7F5629"/><stop offset=".192" stop-color="#67411D"/><stop offset=".447" stop-color="#4C2A10"/><stop offset=".6" stop-color="#42210B"/><stop offset=".945"/></linearGradient><linearGradient gradientUnits="userSpaceOnUse" x1="-819.2" x2="819.2" gradientTransform="matrix(0 -.004 .004 0 115.7 145.75)" id="v"><stop offset="0" stop-color="#7F5629"/><stop offset=".192" stop-color="#67411D"/><stop offset=".447" stop-color="#4C2A10"/><stop offset=".6" stop-color="#42210B"/><stop offset=".945"/></linearGradient></defs><path fill="url(#a)" d="M145.5 98.85l3.95-5.5q.05.85 1.35 4.25 1.25 3.35 3.8 13.35 2.55 9.95.6 23.85l-.55 3.35-.05.25q-7.1 5.05-12.95-1.15-1.9-2-3.4-4.95l-1.1-2.45.05-.15q2.35-3.75 2.55-8.25 1.8.5 4.3 1.7 3.2 1.5 5.85-5.15l-3.45-15.1-.95-4.05m-6.6 29.3q0 1.45 1 2.5 1.05 1 2.5 1 1.4 0 2.45-1 1.05-1.05 1.05-2.5 0-1.4-1.05-2.45-1.05-1.05-2.45-1.05-1.45 0-2.5 1.05-1 1.05-1 2.45"/><path fill="url(#b)" d="M132.45 82.95q5.4-4 7.2-.65 1.75 3.35 2.15 5.3 1.55 2.6 3.7 11.25l.95 4.05 3.45 15.1q-2.65 6.65-5.85 5.15-2.5-1.2-4.3-1.7l-1.1-.3-.9-6.2.05-2.2-.3-5.6q-.6-6.2-2.35-13.1l-2.7-11.1m15.3 34.15q0-1.45-1.05-2.5-1.05-1-2.45-1-1.45 0-2.5 1-1 1.05-1 2.5 0 1.4 1 2.45 1.05 1.05 2.5 1.05 1.4 0 2.45-1.05 1.05-1.05 1.05-2.45"/><path fill="url(#c)" d="M74.75 111.55Q73 104.1 68.6 95.4l-5.05-8.9-2.2-3.35-.05-.05q2.8-3.3 7.4-4.8 2.4-.75 4.2-.85 5.7 3.45 12.3 24.35l2.9 9.75 2 8 .55 2.45-.5.65q-3.65 4.6-9.1 2.1-1.85-.85-3.65-2.4L75.95 121q0-4.45-1.2-9.45m6.05 4.75q-1 1.05-1 2.5 0 1.4 1 2.45 1.05 1.05 2.5 1.05 1.4 0 2.45-1.05 1.05-1.05 1.05-2.45 0-1.45-1.05-2.5-1.05-1-2.45-1-1.45 0-2.5 1"/><path fill="url(#d)" d="M80.8 116.3q1.05-1 2.5-1 1.4 0 2.45 1 1.05 1.05 1.05 2.5 0 1.4-1.05 2.45-1.05 1.05-2.45 1.05-1.45 0-2.5-1.05-1-1.05-1-2.45 0-1.45 1-2.5"/><path fill="url(#e)" d="M74.75 111.55q1.2 5 1.2 9.45l1.45 1.35q1.8 1.55 3.65 2.4 5.45 2.5 9.1-2.1.45 4.05 2.75 7.5l-.05.15q-1.45 4.65-7.25 8.35-11.65 7.5-33.75 2.1V96.1q14.05 12.75 22.9 15.45M86.7 126.3q-1.45 0-2.5 1-1 1.05-1 2.5 0 1.4 1 2.45 1.05 1.05 2.5 1.05 1.4 0 2.45-1.05 1.05-1.05 1.05-2.45 0-1.45-1.05-2.5-1.05-1-2.45-1"/><path fill="url(#f)" d="M55.2 174.15l-1.65-7.75q-.55-1.45-1.05-4.95-1-7.05-.65-17.5v-3.2q22.1 5.4 33.75-2.1 5.8-3.7 7.25-8.35l.2.05q1.7 2.45 4.25 4.5l3.05 2.1q-1.65 9.2-8.25 18.4-12.95 18.1-36.9 18.8m38.9-31.95q1.4 0 2.45-1.05 1.05-1.05 1.05-2.45 0-1.45-1.05-2.5-1.05-1-2.45-1-1.45 0-2.5 1-1 1.05-1 2.5 0 1.4 1 2.45 1.05 1.05 2.5 1.05"/><path fill="url(#g)" d="M91.15 195.4l-16.35 1.1-14 1.75q-4.8.2-5.3-2.7-.55-2.95.85-16.05l-1.15-5.35q23.95-.7 36.9-18.8 6.6-9.2 8.25-18.4 4.3 2.6 9.55 3.35l-.1 7.6q-.35 9.1-1.7 17.15-4.3 25.6-16.95 30.35m13.1-47.75q1.4 0 2.45-1.05 1.05-1.05 1.05-2.45 0-1.45-1.05-2.5-1.05-1-2.45-1-1.45 0-2.5 1-1 1.05-1 2.5 0 1.4 1 2.45 1.05 1.05 2.5 1.05"/><path fill="url(#h)" d="M147.75 117.1q0 1.4-1.05 2.45-1.05 1.05-2.45 1.05-1.45 0-2.5-1.05-1-1.05-1-2.45 0-1.45 1-2.5 1.05-1 2.5-1 1.4 0 2.45 1 1.05 1.05 1.05 2.5"/><path fill="url(#i)" d="M90.15 122.65l.5-.65-.55-2.45q.35-5.5 4-9.85 1.35-1.65 3.2-3.15 7.3-5.85 17.6-5.85t17.55 5.85l2.25 2.05q1.9 1.95 3.1 4.15l-.05 2.2.9 6.2 1.1.3q-.2 4.5-2.55 8.25l-.05.15q-1.75 2.6-4.7 5l-2.8 1.95-.2.15q-3.6 2.2-7.85 3.1l-.2.05-6.5.6-4.95-.4h-.05q-5.25-.75-9.55-3.35l-3.05-2.1q-2.55-2.05-4.25-4.5l-.15-.2q-2.3-3.45-2.75-7.5m46.2-2.75q0-6.05-4.45-10.55l-1.85-1.65q-6.2-5-15.1-5-8 0-13.95 4.1l-1.2.9q-6.25 5.05-6.25 12.2 0 7.15 6.25 12.2 6.3 5.05 15.15 5.05 8.9 0 15.1-5.05 6.3-5.05 6.3-12.2"/><path fill="url(#j)" d="M134.7 108.6q1.4-.55 2.8-1.45l.3 5.6q-1.2-2.2-3.1-4.15"/><path fill="url(#k)" d="M136.35 119.9q0 7.15-6.3 12.2-6.2 5.05-15.1 5.05-8.85 0-15.15-5.05-6.25-5.05-6.25-12.2 0-7.15 6.25-12.2l1.2-.9q5.95-4.1 13.95-4.1 8.9 0 15.1 5l1.85 1.65q4.45 4.5 4.45 10.55"/><path fill="url(#l)" d="M154.6 138.4q-2.15 11.55-7.2 19.95-.85 1.4-1.5 3.75-7.05-2.6-12.25-13.5-1.8-3.8-3.2-8.1l-1-3.55.2-.15 2.8-1.95q2.95-2.4 4.7-5l1.1 2.45q1.5 2.95 3.4 4.95 5.85 6.2 12.95 1.15m-18.75-3.95q-1.45 0-2.5 1-1 1.05-1 2.5 0 1.4 1 2.45 1.05 1.05 2.5 1.05 1.4 0 2.45-1.05 1.05-1.05 1.05-2.45 0-1.45-1.05-2.5-1.05-1-2.45-1"/><path fill="url(#m)" d="M135.85 134.45q1.4 0 2.45 1 1.05 1.05 1.05 2.5 0 1.4-1.05 2.45-1.05 1.05-2.45 1.05-1.45 0-2.5-1.05-1-1.05-1-2.45 0-1.45 1-2.5 1.05-1 2.5-1"/><path fill="url(#n)" d="M138.9 128.15q0-1.4 1-2.45 1.05-1.05 2.5-1.05 1.4 0 2.45 1.05 1.05 1.05 1.05 2.45 0 1.45-1.05 2.5-1.05 1-2.45 1-1.45 0-2.5-1-1-1.05-1-2.5"/><path fill="url(#o)" d="M145.9 162.1q-2 6.55-2.75 20.5-.5 9.45-.35 17.8-1.3-1.45-3.4-2.6-1.8-1-3.55-1.3-10.75-11.45-13.65-35.1-.95-7.35-.95-15.1l.15-6.2.2-.05q4.25-.9 7.85-3.1l1 3.55q1.4 4.3 3.2 8.1 5.2 10.9 12.25 13.5m-19.55-21.5q-1.45 0-2.5 1-1 1.05-1 2.5 0 1.4 1 2.45 1.05 1.05 2.5 1.05 1.4 0 2.45-1.05 1.05-1.05 1.05-2.45 0-1.45-1.05-2.5-1.05-1-2.45-1"/><path fill="url(#p)" d="M126.35 140.6q1.4 0 2.45 1 1.05 1.05 1.05 2.5 0 1.4-1.05 2.45-1.05 1.05-2.45 1.05-1.45 0-2.5-1.05-1-1.05-1-2.45 0-1.45 1-2.5 1.05-1 2.5-1"/><path fill="url(#q)" d="M90.1 119.55l-2-8q2.9-.65 6-1.85-3.65 4.35-4 9.85"/><path fill="url(#r)" d="M86.7 126.3q1.4 0 2.45 1 1.05 1.05 1.05 2.5 0 1.4-1.05 2.45-1.05 1.05-2.45 1.05-1.45 0-2.5-1.05-1-1.05-1-2.45 0-1.45 1-2.5 1.05-1 2.5-1"/><path fill="url(#s)" d="M94.1 142.2q-1.45 0-2.5-1.05-1-1.05-1-2.45 0-1.45 1-2.5 1.05-1 2.5-1 1.4 0 2.45 1 1.05 1.05 1.05 2.5 0 1.4-1.05 2.45-1.05 1.05-2.45 1.05"/><path fill="url(#t)" d="M104.25 147.65q-1.45 0-2.5-1.05-1-1.05-1-2.45 0-1.45 1-2.5 1.05-1 2.5-1 1.4 0 2.45 1 1.05 1.05 1.05 2.5 0 1.4-1.05 2.45-1.05 1.05-2.45 1.05"/><path fill="url(#u)" d="M135.85 196.5q-2.3-.35-4.55.45-1.65.6-3.85 2.55-2.3 2-3.75 2.6-5.35 2.3-17.15-3.45-6.05-2.95-15.4-3.25 12.65-4.75 16.95-30.35 1.35-8.05 1.7-17.15l.1-7.6h.05l4.95.4 6.5-.6-.15 6.2q0 7.75.95 15.1 2.9 23.65 13.65 35.1m-22.6-53.3q-1 1.05-1 2.5 0 1.4 1 2.45 1.05 1.05 2.5 1.05 1.4 0 2.45-1.05 1.05-1.05 1.05-2.45 0-1.45-1.05-2.5-1.05-1-2.45-1-1.45 0-2.5 1"/><path fill="url(#v)" d="M113.25 143.2q1.05-1 2.5-1 1.4 0 2.45 1 1.05 1.05 1.05 2.5 0 1.4-1.05 2.45-1.05 1.05-2.45 1.05-1.45 0-2.5-1.05-1-1.05-1-2.45 0-1.45 1-2.5"/><path fill="none" stroke="#110802" stroke-width=".05" stroke-linecap="round" stroke-linejoin="round" d="M132.45 82.95q5.4-4 7.2-.65 1.75 3.35 2.15 5.3 1.55 2.6 3.7 11.25l3.95-5.5q.05.85 1.35 4.25 1.25 3.35 3.8 13.35 2.55 9.95.6 23.85l-.55 3.35-.05.25q-2.15 11.55-7.2 19.95-.85 1.4-1.5 3.75-2 6.55-2.75 20.5-.5 9.45-.35 17.8-1.3-1.45-3.4-2.6-1.8-1-3.55-1.3-2.3-.35-4.55.45-1.65.6-3.85 2.55-2.3 2-3.75 2.6-5.35 2.3-17.15-3.45-6.05-2.95-15.4-3.25l-16.35 1.1-14 1.75q-4.8.2-5.3-2.7-.55-2.95.85-16.05l-1.15-5.35h-1m83.3-67q-.6-6.2-2.35-13.1l-2.7-11.1-.1 1.65-.2 1M88.1 111.55l-2.9-9.75q-6.6-20.9-12.3-24.35-1.8.1-4.2.85-4.6 1.5-7.4 4.8l.05.05 2.2 3.35 5.05 8.9q4.4 8.7 6.15 16.15 1.2 5 1.2 9.45l1.45 1.35q1.8 1.55 3.65 2.4 5.45 2.5 9.1-2.1l.5-.65-.55-2.45-2-8q2.9-.65 6-1.85 1.35-1.65 3.2-3.15 7.3-5.85 17.6-5.85t17.55 5.85l2.25 2.05q1.4-.55 2.8-1.45l.3 5.6-.05 2.2.9 6.2 1.1.3q1.8.5 4.3 1.7 3.2 1.5 5.85-5.15l-3.45-15.1-.95-4.05m-93.65 41.9v3.2q-.35 10.45.65 17.5.5 3.5 1.05 4.95l1.65 7.75q23.95-.7 36.9-18.8 6.6-9.2 8.25-18.4l-3.05-2.1q-2.55-2.05-4.25-4.5l-.15-.2-.05.15q-1.45 4.65-7.25 8.35-11.65 7.5-33.75 2.1V96.1q14.05 12.75 22.9 15.45m59.95-2.95q1.9 1.95 3.1 4.15m1.95 8.7q-.2 4.5-2.55 8.25l-.05.15 1.1 2.45q1.5 2.95 3.4 4.95 5.85 6.2 12.95 1.15m-17.45-8.55q-1.75 2.6-4.7 5l-2.8 1.95-.2.15 1 3.55q1.4 4.3 3.2 8.1 5.2 10.9 12.25 13.5m-16.45-25.15q-3.6 2.2-7.85 3.1l-.2.05-.15 6.2q0 7.75.95 15.1 2.9 23.65 13.65 35.1M90.1 119.55q.35-5.5 4-9.85m27.3 30.4l-6.5.6-4.95-.4h-.05l-.1 7.6q-.35 9.1-1.7 17.15-4.3 25.6-16.95 30.35m1.75-65.25q-2.3-3.45-2.75-7.5m19.75 17.65q-5.25-.75-9.55-3.35"/><path fill="none" stroke="#333" stroke-width=".05" stroke-linecap="round" stroke-linejoin="round" d="M80.8 116.3q1.05-1 2.5-1 1.4 0 2.45 1 1.05 1.05 1.05 2.5 0 1.4-1.05 2.45-1.05 1.05-2.45 1.05-1.45 0-2.5-1.05-1-1.05-1-2.45 0-1.45 1-2.5m66.95.8q0 1.4-1.05 2.45-1.05 1.05-2.45 1.05-1.45 0-2.5-1.05-1-1.05-1-2.45 0-1.45 1-2.5 1.05-1 2.5-1 1.4 0 2.45 1 1.05 1.05 1.05 2.5m-11.4 2.8q0 7.15-6.3 12.2-6.2 5.05-15.1 5.05-8.85 0-15.15-5.05-6.25-5.05-6.25-12.2 0-7.15 6.25-12.2l1.2-.9q5.95-4.1 13.95-4.1 8.9 0 15.1 5l1.85 1.65q4.45 4.5 4.45 10.55m-.5 14.55q1.4 0 2.45 1 1.05 1.05 1.05 2.5 0 1.4-1.05 2.45-1.05 1.05-2.45 1.05-1.45 0-2.5-1.05-1-1.05-1-2.45 0-1.45 1-2.5 1.05-1 2.5-1m3.05-6.3q0-1.4 1-2.45 1.05-1.05 2.5-1.05 1.4 0 2.45 1.05 1.05 1.05 1.05 2.45 0 1.45-1.05 2.5-1.05 1-2.45 1-1.45 0-2.5-1-1-1.05-1-2.5m-12.55 12.45q1.4 0 2.45 1 1.05 1.05 1.05 2.5 0 1.4-1.05 2.45-1.05 1.05-2.45 1.05-1.45 0-2.5-1.05-1-1.05-1-2.45 0-1.45 1-2.5 1.05-1 2.5-1M86.7 126.3q1.4 0 2.45 1 1.05 1.05 1.05 2.5 0 1.4-1.05 2.45-1.05 1.05-2.45 1.05-1.45 0-2.5-1.05-1-1.05-1-2.45 0-1.45 1-2.5 1.05-1 2.5-1m7.4 15.9q-1.45 0-2.5-1.05-1-1.05-1-2.45 0-1.45 1-2.5 1.05-1 2.5-1 1.4 0 2.45 1 1.05 1.05 1.05 2.5 0 1.4-1.05 2.45-1.05 1.05-2.45 1.05m10.15 5.45q-1.45 0-2.5-1.05-1-1.05-1-2.45 0-1.45 1-2.5 1.05-1 2.5-1 1.4 0 2.45 1 1.05 1.05 1.05 2.5 0 1.4-1.05 2.45-1.05 1.05-2.45 1.05m9-4.45q1.05-1 2.5-1 1.4 0 2.45 1 1.05 1.05 1.05 2.5 0 1.4-1.05 2.45-1.05 1.05-2.45 1.05-1.45 0-2.5-1.05-1-1.05-1-2.45 0-1.45 1-2.5"/></svg>