<svg xmlns="http://www.w3.org/2000/svg" viewBox="11.4 29.4 189.8 472.3" width="189.8" height="472.3" preserveAspectRatio="xMinYMin"><defs><linearGradient gradientUnits="userSpaceOnUse" x1="-819.2" x2="819.2" gradientTransform="matrix(.03 0 0 .043 89.55 67.45)" id="a"><stop offset="0" stop-color="#D98651"/><stop offset=".533" stop-color="#DFA168"/><stop offset="1" stop-color="#D98651"/></linearGradient><radialGradient gradientUnits="userSpaceOnUse" r="819.2" cx="0" cy="0" spreadMethod="pad" gradientTransform="matrix(.127 0 0 .127 98.15 36.5)" id="b"><stop offset=".063" stop-color="#333"/><stop offset=".573"/><stop offset="1"/></radialGradient><linearGradient gradientUnits="userSpaceOnUse" x1="-819.2" x2="819.2" gradientTransform="matrix(-.007 0 0 -.004 108.2 60.5)" id="c"><stop offset="0" stop-color="#B07E35"/><stop offset="1" stop-color="#80751A"/></linearGradient><radialGradient gradientUnits="userSpaceOnUse" r="819.2" cx="0" cy="0" spreadMethod="pad" gradientTransform="matrix(.003 0 0 .003 108.45 66.25)" id="d"><stop offset="0" stop-color="#fff"/><stop offset=".612"/></radialGradient><linearGradient gradientUnits="userSpaceOnUse" x1="-819.2" x2="819.2" gradientTransform="matrix(-.001 -.033 .002 0 115 49.25)" id="e"><stop offset="0" stop-color="#D98651"/><stop offset=".533" stop-color="#DFA168"/><stop offset="1" stop-color="#D98651"/></linearGradient><linearGradient gradientUnits="userSpaceOnUse" x1="-819.2" x2="819.2" gradientTransform="matrix(-.01 0 0 -.004 85.95 61.9)" id="f"><stop offset="0" stop-color="#B07E35"/><stop offset="1" stop-color="#80751A"/></linearGradient><radialGradient gradientUnits="userSpaceOnUse" r="819.2" cx="0" cy="0" spreadMethod="pad" gradientTransform="matrix(.004 0 0 .004 87.9 68.2)" id="g"><stop offset="0" stop-color="#fff"/><stop offset=".612"/></radialGradient><radialGradient gradientUnits="userSpaceOnUse" r="819.2" cx="0" cy="0" spreadMethod="pad" gradientTransform="matrix(.032 0 0 .032 99.55 86.05)" id="h"><stop offset=".063" stop-color="#333"/><stop offset=".573"/><stop offset="1"/></radialGradient><radialGradient gradientUnits="userSpaceOnUse" r="819.2" cx="0" cy="0" spreadMethod="pad" gradientTransform="matrix(.034 0 0 .034 96.55 110.45)" id="i"><stop offset=".063" stop-color="#333"/><stop offset=".573"/><stop offset="1"/></radialGradient><radialGradient gradientUnits="userSpaceOnUse" r="819.2" cx="0" cy="0" spreadMethod="pad" gradientTransform="matrix(.047 0 0 .047 67.25 150.2)" id="j"><stop offset=".063" stop-color="#333"/><stop offset=".573"/><stop offset="1"/></radialGradient><radialGradient gradientUnits="userSpaceOnUse" r="819.2" cx="0" cy="0" spreadMethod="pad" gradientTransform="matrix(.02 0 0 .02 37.75 167.8)" id="k"><stop offset=".063" stop-color="#333"/><stop offset=".573"/><stop offset="1"/></radialGradient><radialGradient gradientUnits="userSpaceOnUse" r="819.2" cx="0" cy="0" spreadMethod="pad" gradientTransform="matrix(.105 0 0 .105 101.65 231.8)" id="l"><stop offset=".063" stop-color="#333"/><stop offset=".573"/><stop offset="1"/></radialGradient><radialGradient gradientUnits="userSpaceOnUse" r="819.2" cx="0" cy="0" spreadMethod="pad" gradientTransform="matrix(.068 0 0 .068 131.7 158.8)" id="m"><stop offset=".063" stop-color="#333"/><stop offset=".573"/><stop offset="1"/></radialGradient><radialGradient gradientUnits="userSpaceOnUse" r="819.2" cx="0" cy="0" spreadMethod="pad" gradientTransform="matrix(.041 0 0 .041 144.15 149.15)" id="n"><stop offset=".063" stop-color="#333"/><stop offset=".573"/><stop offset="1"/></radialGradient><radialGradient gradientUnits="userSpaceOnUse" r="819.2" cx="0" cy="0" spreadMethod="pad" gradientTransform="matrix(.022 0 0 .022 154.85 207.45)" id="o"><stop offset=".063" stop-color="#333"/><stop offset=".573"/><stop offset="1"/></radialGradient><radialGradient gradientUnits="userSpaceOnUse" r="819.2" cx="0" cy="0" spreadMethod="pad" gradientTransform="matrix(.049 0 0 .049 131.3 259.8)" id="p"><stop offset=".063" stop-color="#333"/><stop offset=".573"/><stop offset="1"/></radialGradient><radialGradient gradientUnits="userSpaceOnUse" r="819.2" cx="0" cy="0" spreadMethod="pad" gradientTransform="matrix(.057 0 0 .057 50.75 263.95)" id="q"><stop offset=".063" stop-color="#333"/><stop offset=".573"/><stop offset="1"/></radialGradient><radialGradient gradientUnits="userSpaceOnUse" r="819.2" cx="0" cy="0" spreadMethod="pad" gradientTransform="matrix(.022 0 0 .022 21.9 215.35)" id="r"><stop offset=".063" stop-color="#333"/><stop offset=".573"/><stop offset="1"/></radialGradient><radialGradient gradientUnits="userSpaceOnUse" r="819.2" cx="0" cy="0" spreadMethod="pad" gradientTransform="matrix(.157 0 0 .157 80.6 374.25)" id="s"><stop offset=".063" stop-color="#333"/><stop offset=".573"/><stop offset="1"/></radialGradient><radialGradient gradientUnits="userSpaceOnUse" r="819.2" cx="0" cy="0" spreadMethod="pad" gradientTransform="matrix(.159 0 0 .159 133.7 368.7)" id="t"><stop offset=".063" stop-color="#333"/><stop offset=".573"/><stop offset="1"/></radialGradient></defs><path fill="url(#a)" d="M73.2 81.1l-.05-.35-1.45.05-1.8-1.4-1.15-4.2-2.3-4.25L65 66.6l.05-.35 1.8-1.4 5.75 1.5v-6.9q.4-2.8 1.75-6.15 2.65-6.7 7.45-9.6 4.8-2.85 11.5-.35 3.45 1.25 6.2 3.15 8.9-9.3 12.55-2.2.85 1.6 1.35 3.55l.1.8.55 5.25-.05 7.05-.2-1.35q-.3-1.4-1.05-1.45l-1.3-.55h.1H111.4h.05l-1.1.25-.25.2q-3.4 2.55-6.4 3.75l-.9.7q-.35.4-.5 1.1v.15l.05-.05.2-.2q.4-.35.85-.55l2.9-1.05 2.8-1.65q2.2-1.4 3-1.2.75.2.9.85l.95 2.15-.05.6v.05h-.05v-.05l-.05.05-.45.7-.2-.55-.25-.5-.95 1.1v-.5l-1.1.9-.95.6q-.05-.25-.4-.25l-.6.35-.4-.05h-.05l-.25-.15-.8.35-.3-.15-.35.45q-.2.45-.75.25l-.95.95q-.6.6-1.35 1l-.85.35 3.25 1.65 1.6.15.5-.05h.25l1.85-.45 1.8-.5v-.1l-.25-.25.1-.05h1.25v-.1l-.3-.4q-.1-.15-.35-.2h.05l.6-.05.4-.3-.4-.65v.05h-.05l.4-1.6.05-.25h.05q.7 5.7.55 13.9-1.7-1.75-7.95-3.1l-5.75-1.95q-7.55 3.35-17.65 5.2-7.4 1.3-9.05 3.2l-.2-.95.1-.2v-.05l-.1.25-.4.35m38.2-23.55h-.05q-.7-.45-1.35-.35H109.85l.1.05v.05l1.45.3h.15l-.15-.05M83.45 59.8l-.9-.5q-.45.15-.45.55h-.5v.4l.2.15-2.45 1.55q-1.4 1.2-1.4 2.25l.1.5q.65-1 .95-.95.3 0 .25-.55-.05-.55 1.85-1.75 1.85-1.25 3.15-.85l2.9.8q1.65.4 2.95 1.3l1.85 1.35q.5.4 1.05.5l.9.15v-.2q-.25-.05-.4-.65l-.4-.7q0 .25.15.5v.2q-2.85-2.05-3.9-2.35-1.1-.35-2.75-1.5l-1.55-1.1-.3.35-.95.15q-.35-.6-.2-.05l-.15.45m6.1 8.05l-2.7-1.2V67l-.65-.65v.3l-.95-.7-.8-.85-.05-.05v.05l.05.65-.25.7-1-.6-.7-.8v1.05l-.05-.05-.75-1.15-.25.35v.45h-.15l-.45-.55-.2-.4-.15.8v.05l-.05-.05-1.1-1.75h-.05l.65 1.3q-.6-.7-.25.3h-.45v.25l.5.95.2.2 1.2.5-.1.1-.8.5q1-.1 1.5.4l-.6.45 2.2.1q2.9 2.9 5.45 2.05 2.5-.85 3.4-2.7l-2.25-.3-.4-.05m-8.4.9h-.05.05m19.2 1.45q-.1-1.3.2-2.5l.35-.9-.35.9q-.3 1.2-.2 2.5m-26.8 9.75l.15.55-.15-.55"/><path fill="url(#b)" d="M72.05 112.2l-32.7 9.7q4.8-6.1 10.65-18.9 11.65-25.55 17.2-58.75.85-2.2 4.3-5.85 3.4-3.65 16-8 12.6-4.4 25.45 10.3 4.15 11.5 5.2 23.1l2.2 20.6q3.1 21.5 7.9 26 7.65 7.2 1.15 1.2l-8.1-.4-13.55-2.65-.25-.2q-.65-.55-1.25-1.6-1.55-2.55-1.55-6.2v-.1l3.4-4.4.5-.8q4.15-6.25 5.65-11.55l.05-.5v-.15l.3-4.15v-.25L114 63.5v-2.55l.05-7.05v-.75q-.1-2.9-.65-5.3-.5-1.95-1.35-3.55-3.65-7.1-12.55 2.2-2.75-1.9-6.2-3.15-6.7-2.5-11.5.35-4.8 2.9-7.45 9.6-1.35 3.35-1.75 6.15v6.9l-5.75-1.5-1.8 1.4-.15.1.1.25 1.45 4.35 2.3 4.25 1.15 4.2 1.8 1.4 1.45-.05.05.35.15 1.4.15 1.45.15 1.45q.35 2.6.9 3.45l.05.1 1.9 2.3v.1L76.2 96l-1.6-1.1v.1l-2.5 17.15-.05.05M70.7 80.85l1-.05-1 .05"/><path fill="url(#c)" d="M114 60.95v.7l-.05.4-.95-2.15q-.15-.65-.9-.85-.8-.2-3 1.2l-2.8 1.65-2.9 1.05q-.45.2-.85.55l-.2.2-.05-.1q.15-.7.5-1.1l.9-.7q3-1.2 6.4-3.75l.25-.2 1.1-.25 1.3.55q.75.05 1.05 1.45l.2 1.35"/><path fill="#3C2111" d="M108.9 64.55l.6-.35q.35 0 .4.25l.95-.6 1.1-.9v.5l.95-1.1.25.5.2.55.45-.7h.05l-.25 1.75-.05.25-.4 1.6v.05l.05-.05v-.05l.4.65-.4.3-.6.05h-.05q.25.05.35.2l.3.4v.1h-1.25l-.1.05.25.25v.1l-1.8.5-1.85.45v-.05q2.2-.4 3.8-2.55l.25-1.4.05-.55-2.55.45-3.4.85-1.35.45-1.55.7q.75-.4 1.35-1l.95-.95q.55.2.75-.25l.35-.45.3.15.8-.35.25.15.15.1.3-.05m-22.05 2.4v-.3l2.7 1.2v.05l-3.3-.45-4.2-.65 1.3 2.05-2.2-.1.6-.45q-.5-.5-1.5-.4l.8-.5.1-.1-1.2-.5-.2-.2-.5-.95v-.25h.45q-.35-1 .25-.3l-.65-1.3h.05l1.1 1.75.05.05v-.05l.15-.8.2.4.45.55h.15v-.45l.25-.35.75 1.15.05.05v-1.05l.7.8 1 .6.25-.7-.05-.65h.05l.8.85.95.7v-.3l.65.65v-.05"/><path fill="#fff" d="M103.7 67.2l1.55-.7 1.35-.45-.05.4q0 .8.55 1.35.6.6 1.4.6.8 0 1.35-.6.6-.55.6-1.35 0-.7-.45-1.25l2.55-.45-.05.55-.25 1.4q-1.6 2.15-3.8 2.55l-.25.05-.5.05-1.6-.15-3.25-1.65.85-.35m-13.75.7l2.25.3q-.9 1.85-3.4 2.7-2.55.85-5.45-2.05l-1.3-2.05 4.2.65q-.45.55-.45 1.25 0 .8.55 1.35.6.6 1.4.6.8 0 1.35-.6.6-.55.6-1.35l-.15-.8h.4"/><path fill="url(#d)" d="M106.6 66.05l3.4-.85q.45.55.45 1.25 0 .8-.6 1.35-.55.6-1.35.6t-1.4-.6q-.55-.55-.55-1.35l.05-.4"/><path fill="#8E5027" d="M102.35 63.7l-.05.05v-.15l.05.1"/><path fill="url(#e)" d="M114 63.5l.6 15.15-.25-.1-.15-.2q.15-8.2-.55-13.9l.15-.8.2-.15"/><path fill="url(#f)" d="M83.45 59.8l.15-.45q-.15-.55.2.05l.95-.15.3-.35L86.6 60q1.65 1.15 2.75 1.5 1.05.3 3.9 2.35v-.2q-.15-.25-.15-.5l.4.7q.15.6.4.65v.2l-.9-.15q-.55-.1-1.05-.5L90.1 62.7q-1.3-.9-2.95-1.3l-2.9-.8q-1.3-.4-3.15.85-1.9 1.2-1.85 1.75.05.55-.25.55-.3-.05-.95.95l-.1-.5q0-1.05 1.4-2.25l2.45-1.55-.2-.15v-.4h.5q0-.4.45-.55l.9.5"/><path fill="url(#g)" d="M86.25 67.45l3.3.45.15.8q0 .8-.6 1.35-.55.6-1.35.6t-1.4-.6q-.55-.55-.55-1.35 0-.7.45-1.25"/><path fill="url(#h)" d="M76.5 91.35v-.1l-1.9-2.3-.05-.1-1.05-4.9-.15-1.45.45-.8q1.65-1.9 9.05-3.2 10.1-1.85 17.65-5.2l5.75 1.95q6.25 1.35 7.95 3.1l.15.2.25.35-.3 4.15v.15l-.05.4-6.15 12.45-3.4 4.4v.1l-.65.8q-1.6 1.75-3 2.15l-1.7-.1q-5.4-1.2-11.4-4.3l-.25-.15q-7.65-4-11.2-7.6"/><path fill="url(#i)" d="M107.5 108.35l.2.25-.2-.05 4.15 4.75-4.15-4.75.2.05q1.5 1.9 4.3 4.15l-.35.55q-8.9 12.5-24.15 7.25l-13-4.8-3.1-1.2 3.55-1 .3-1.35-2.25-.1-1 .45.05-.35.05-.05L74.6 95q5.7 4.3 13.35 4.1 6 3.1 11.4 4.3l1.7.1q1.4-.4 3-2.15l.65-.8q0 3.65 1.55 6.2.6 1.05 1.25 1.6m-33 7.4l.45-2.2-.45 2.2"/><path fill="url(#j)" d="M74.5 115.75q-3.6 17.4-1.55 28.85 2 11.4 5.15 20.6 3.15 9.1 10.55 12.35-18.75 4.85-24.45 2.7L59.3 178q-6.1-3.15-8.6-8.85-1.05-2.4-1.5-5.25v-.05q-1.3-8.65 3.2-20.45l4.75-10.15q.45-1.8-1.05-7.65l-1.55-5.5L72 112.55l1-.45 2.25.1-.3 1.35L73 112.1l1.95 1.45-3.55 1 3.1 1.2"/><path fill="url(#k)" d="M48.7 168.85l-2.5 11q-4.45-3.85-9.55-6.65-10.25-5.65-13.55-.55L26 156.8l3.25-.05 7.35.9q9.8 2.2 11.7 8.8l-.15.4.3 1.05.25.95"/><path fill="url(#l)" d="M48.7 168.85l-.25-.95-.3-1.05.15-.4.9-2.55q.45 2.85 1.5 5.25 2.5 5.7 8.6 8.85l4.9 2.25q5.7 2.15 24.45-2.7l13.8 40.8.75-1.05q2.65-8.95 4.2-15.75 1.55-6.8 3.85-14.7 2.3-7.95 1.9-10.85l11.8.9q-3.2 9.25-4.3 20.45-.55 5.7-.45 9.55 1.85 3 5.6 13.85v.1q-.7 9.3-4.9 20.9-2.1 5.8-5.2 8.55-3.75 3.75-12.3 14.9-2.9 3.75-5.95 8.25l-1.5 2.15v.05l-.15.2-.15-.45.3.2-.3-.2q-1.45-3.9-10.55-13.5l-11-8.9q-11-8.65-14.25-21.5-1-4-1.15-7.95l.1-2.25v-.9q0-1.85 2.85-7.75l2.8-5.55q-6.3-5.85-11.9-23.65l-3.85-14.6.4-1.95-.4 1.95m-.25-.95l-.15-1.45.15 1.45"/><path fill="url(#m)" d="M107.7 108.6l14.4 2.9 6.4 15.2 1.55 4.7q1.8 5.05 3.15 6.9l4.45 6 2.2 4.4q2.25 5.3 2.5 10.05.35 6.2-2.75 10.4-3.9 5.25-13.05 7.4l-1.45.35h-.15l-11.8-.9q9.95-2.7 8.8-24.5-1.2-21.85-10.3-38.2l.35-.55q-2.8-2.25-4.3-4.15"/><path fill="url(#n)" d="M139.85 148.7l1.25-1.7q1.65-2 3.75-3.2 2.1-1.2 3.65 7.2.8 4.2 1.15 8.65-4.45 5.2-9.4 10.05-10 9.75-12.7 8.25l-1-1.4q9.15-2.15 13.05-7.4 3.1-4.2 2.75-10.4-.25-4.75-2.5-10.05"/><path fill="url(#o)" d="M153.95 196.85q4.75-1.1 7.9-.8l.6 13.8q-4.5-2.25-12 3.2-3.8 2.7-6.65 5.85-2.25-1.5-4.95-6.6l-2.05-6.25.05-.05q7.8-6.95 17.1-9.15"/><path fill="url(#p)" d="M125.8 220.85q11.8 8.6 14.5 23.85 1.35 7.65.6 13.4-9.8-9.45-27.65 2.05-8.85 5.75-15.8 13.3 3.05-4.5 5.95-8.25 8.55-11.15 12.3-14.9 3.1-2.75 5.2-8.55 4.2-11.6 4.9-20.9"/><path fill="url(#q)" d="M95.65 275.4q-26.6-19.8-41.25-10.5-7.25 4.6-9.55 12.8-5.55-26.1 2.25-42.85 2.65-5.75 6.2-9.5 2.85-2.95 5.5-4.05l-.1 2.25q.15 3.95 1.15 7.95Q63.1 244.35 74.1 253l11 8.9q9.1 9.6 10.55 13.5"/><path fill="url(#r)" d="M11.45 220.65q-.25-3.95 1.3-8.75l1.65-2.65q7.65-3.65 16.95-1.65 3.55.75 6 2.15 2.35 1.35 2.35 2.5 0 3-3 12.65-2.25-6-14.3-5.7-6 .15-10.95 1.45"/><path fill="url(#s)" d="M108.65 335.5L107.5 356l1.2 3.75q1.3 5.05 1.65 11.4 1.1 20.25-7.65 46.05l-.5 12q-.15 13.6 1.5 21.85l.6 6.05q.4 6.55-.35 9.1l4.55 11.45q3.85 12.35.25 16.85l-5.9 4q-6.65 3.85-9.95 2.95-3.2.55-6.5-.1-6.7-1.3-7.45-7.3-.45-.2-.65-1.35-.35-2.35 1.15-7.3l4.05-20.9 2.65-11q-.7-.8-.95-2.3-.55-3 1.7-6.6l-.25-11.4q-.5-12.2-1.7-15.95-4.1-9.05-6.75-21.2-5.25-24.3 1.95-39.75L66 334.7q1.4-1.55 3.75-3.45 4.9-3.95 10.05-6.15 16.5-7.1 29.1 6.05l-.25 4.35"/><path fill="url(#t)" d="M108.65 335.5l.25-4.35q5-6.7 11.9-11.55 13.85-9.6 23.5-.05l.05 13.3q.25 13.6 1.5 15.15l2.15 1.7q2.55 2.6 4.85 7 7.35 14.1 8.95 41.05l5.35 14.15 8.25 21.3 3.55 2.9q3.65 3.85 4.15 8.55l9.35 7.15q9.2 8.05 8.75 12.8-.65 6.4-5.5 14.35-5.25 8.65-9.8 8.35-1.15.5-2.65-.35-2.95-1.7-4.6-8.6l-8.05-25.55q-2.55-1.1-4.7-3.15-4.35-4.15-2.55-9-4.55-9.9-9.9-20.35-10.6-20.85-14.4-23.4-3.85-2.4-8.1-8.45-8.5-12.15-10.45-30.4-3.3-4.2-6.45-9.55-4.6-7.85-5.4-13"/><path fill="none" stroke="#150C0B" stroke-width=".05" stroke-linecap="round" stroke-linejoin="round" d="M72.05 112.2l-32.7 9.7q4.8-6.1 10.65-18.9 11.65-25.55 17.2-58.75.85-2.2 4.3-5.85 3.4-3.65 16-8 12.6-4.4 25.45 10.3 4.15 11.5 5.2 23.1l2.2 20.6q3.1 21.5 7.9 26 7.65 7.2 1.15 1.2l-8.1-.4-13.55-2.65-.25-.2.2.25 14.4 2.9 6.4 15.2 1.55 4.7q1.8 5.05 3.15 6.9l4.45 6 2.2 4.4 1.25-1.7q1.65-2 3.75-3.2 2.1-1.2 3.65 7.2.8 4.2 1.15 8.65-4.45 5.2-9.4 10.05-10 9.75-12.7 8.25l-1-1.4-1.45.35h-.15q-3.2 9.25-4.3 20.45-.55 5.7-.45 9.55 1.85 3 5.6 13.85v.1q11.8 8.6 14.5 23.85 1.35 7.65.6 13.4-9.8-9.45-27.65 2.05-8.85 5.75-15.8 13.3l-1.5 2.15v.05l-.15.2-.15-.45q-26.6-19.8-41.25-10.5-7.25 4.6-9.55 12.8-5.55-26.1 2.25-42.85 2.65-5.75 6.2-9.5 2.85-2.95 5.5-4.05v-.9q0-1.85 2.85-7.75l2.8-5.55q-6.3-5.85-11.9-23.65l-3.85-14.6-2.5 11q-4.45-3.85-9.55-6.65-10.25-5.65-13.55-.55L26 156.8l3.25-.05 7.35.9q9.8 2.2 11.7 8.8l.9-2.55v-.05q-1.3-8.65 3.2-20.45l4.75-10.15q.45-1.8-1.05-7.65l-1.55-5.5L72 112.55l.05-.35.05-.05L74.6 95v-.1l1.6 1.1.3-4.65v-.1l-1.9-2.3-.05-.1q-.55-.85-.9-3.45l-.15-1.45-.15-1.45-.15-1.4-.05-.35-1.45.05-1 .05m42.7-33q-.5-1.95-1.35-3.55-3.65-7.1-12.55 2.2-2.75-1.9-6.2-3.15-6.7-2.5-11.5.35-4.8 2.9-7.45 9.6-1.35 3.35-1.75 6.15v6.9l-5.75-1.5-1.8 1.4-.15.1.1.25 1.45 4.35 2.3 4.25 1.15 4.2 1.8 1.4m41.7-32.95q.55 2.4.65 5.3v.75l-.05 7.05v2.55l.6 15.15v.25l-.3 4.15v.15l-.05.5q-1.5 5.3-5.65 11.55l-.5.8-3.4 4.4v.1q0 3.65 1.55 6.2.6 1.05 1.25 1.6m6.7-30l.15.2.25.35m-.35 4.7l-6.15 12.45M73.8 81.7q1.65-1.9 9.05-3.2 10.1-1.85 17.65-5.2l5.75 1.95q6.25 1.35 7.95 3.1M73.8 81.7l-.45.8m1.2 6.35l-1.05-4.9m-1.5 28.6l1-.45 2.25.1-.3 1.35-.45 2.2 13 4.8q15.25 5.25 24.15-7.25l-4.15-4.75.2.05q1.5 1.9 4.3 4.15l-.35.55q9.1 16.35 10.3 38.2 1.15 21.8-8.8 24.5l11.8.9M73 112.1l1.95 1.45-3.55 1 3.1 1.2q-3.6 17.4-1.55 28.85 2 11.4 5.15 20.6 3.15 9.1 10.55 12.35l13.8 40.8.75-1.05q2.65-8.95 4.2-15.75 1.55-6.8 3.85-14.7 2.3-7.95 1.9-10.85M49.2 163.9v-.05m-.5 5l-.25-.95-.3-1.05.15-.4.15 1.45m.25.95l.4-1.95m39.55 10.65q-18.75 4.85-24.45 2.7L59.3 178q-6.1-3.15-8.6-8.85-1.05-2.4-1.5-5.25m38.75-64.8q6 3.1 11.4 4.3l1.7.1q1.4-.4 3-2.15l.65-.8m-28.2-9.2q3.55 3.6 11.2 7.6l.25.15q-7.65.2-13.35-4.1m79.35 101.85q-9.3 2.2-17.1 9.15l-.05.05 2.05 6.25q2.7 5.1 4.95 6.6 2.85-3.15 6.65-5.85 7.5-5.45 12-3.2l-.6-13.8q-3.15-.3-7.9.8m-27.4-20.3q9.15-2.15 13.05-7.4 3.1-4.2 2.75-10.4-.25-4.75-2.5-10.05m-14.05 72.15q-.7 9.3-4.9 20.9-2.1 5.8-5.2 8.55-3.75 3.75-12.3 14.9-2.9 3.75-5.95 8.25m-1.5 2.15l-.3-.2q-1.45-3.9-10.55-13.5l-11-8.9q-11-8.65-14.25-21.5-1-4-1.15-7.95l.1-2.25m-47.35-.65q4.95-1.3 10.95-1.45 12.05-.3 14.3 5.7 3-9.65 3-12.65 0-1.15-2.35-2.5-2.45-1.4-6-2.15-9.3-2-16.95 1.65l-1.65 2.65q-1.55 4.8-1.3 8.75m97.2 114.85L107.5 356l1.2 3.75q1.3 5.05 1.65 11.4 1.1 20.25-7.65 46.05l-.5 12q-.15 13.6 1.5 21.85l.6 6.05q.4 6.55-.35 9.1l4.55 11.45q3.85 12.35.25 16.85l-5.9 4q-6.65 3.85-9.95 2.95-3.2.55-6.5-.1-6.7-1.3-7.45-7.3-.45-.2-.65-1.35-.35-2.35 1.15-7.3l4.05-20.9 2.65-11q-.7-.8-.95-2.3-.55-3 1.7-6.6l-.25-11.4q-.5-12.2-1.7-15.95-4.1-9.05-6.75-21.2-5.25-24.3 1.95-39.75L66 334.7q1.4-1.55 3.75-3.45 4.9-3.95 10.05-6.15 16.5-7.1 29.1 6.05 5-6.7 11.9-11.55 13.85-9.6 23.5-.05l.05 13.3q.25 13.6 1.5 15.15l2.15 1.7q2.55 2.6 4.85 7 7.35 14.1 8.95 41.05l5.35 14.15 8.25 21.3 3.55 2.9q3.65 3.85 4.15 8.55l9.35 7.15q9.2 8.05 8.75 12.8-.65 6.4-5.5 14.35-5.25 8.65-9.8 8.35-1.15.5-2.65-.35-2.95-1.7-4.6-8.6l-8.05-25.55q-2.55-1.1-4.7-3.15-4.35-4.15-2.55-9-4.55-9.9-9.9-20.35-10.6-20.85-14.4-23.4-3.85-2.4-8.1-8.45-8.5-12.15-10.45-30.4-3.3-4.2-6.45-9.55-4.6-7.85-5.4-13l.25-4.35"/><path fill="none" stroke="#8E5027" stroke-width=".05" stroke-linecap="round" stroke-linejoin="round" d="M114.05 53.9l-.55-5.25-.1-.8m-48.35 18.4l-.05.35m46.4-9.05l.15.05m-9.2 6.1l-.05.05m6.6.8l.6-.35q.35 0 .4.25l.95-.6 1.1-.9v.5l.95-1.1.25.5.2.55.45-.7.05-.05v.05m.05 0v-.05l.05-.6.05.1m-5.55 2.35l.15.1.3-.05-.4-.05h-.05l-.25-.15-.8.35-.3-.15-.35.45q-.2.45-.75.25l-.95.95q-.6.6-1.35 1l1.55-.7 1.35-.45 3.4-.85 2.55-.45-.05.55-.25 1.4q-1.6 2.15-3.8 2.55m0 .05l1.85-.45 1.8-.5v-.1l-.25-.25.1-.05h1.25v-.1l-.3-.4q-.1-.15-.35-.2h.05l.6-.05.4-.3-.4-.65v.05l-.05.05v-.05l.4-1.6.05-.25.25-1.75m-10.15 4.5l-.85.35 3.25 1.65 1.6.15.5-.05.25-.05m0 .05h-.25m5.8-5.8l-.2.15-.15.8q.7 5.7.55 13.9m.15.2l.25.1m-.7-15.95l-.1.95m-26.95 3.3v-.3l2.7 1.2.4.05 2.25.3q-.9 1.85-3.4 2.7-2.55.85-5.45-2.05l-2.2-.1h-.05.05l.6-.45q-.5-.5-1.5-.4l.8-.5.1-.1-1.2-.5-.2-.2-.5-.95v-.25h.45q-.35-1 .25-.3m-.65-1.3h.05m1.1 1.75l.05.05v-.05l.15-.8.2.4.45.55h.15v-.45l.25-.35.75 1.15.05.05v-1.05l.7.8 1 .6.25-.7-.05-.65v-.05l.05.05.8.85.95.7v-.3l.65.65v-.05.05m2.7.9h.4m-.4 0l-3.3-.45m-2.9 1.4l-1.3-2.05 4.2.65m14.65-.65l-.35.9q-.3 1.2-.2 2.5M73.7 80.5v.05l-.1.2.2.95m-.6-.6l.4-.35.1-.25-.15-.55"/><path fill="none" stroke="#8A6926" stroke-width=".05" stroke-linecap="round" stroke-linejoin="round" d="M111.45 57.6l1.3.55q.75.05 1.05 1.45l.2 1.35m-2.45-3.35H111.4v-.05m.15.05h-.15m2.55 4.45L113 59.9q-.15-.65-.9-.85-.8-.2-3 1.2l-2.8 1.65-2.9 1.05q-.45.2-.85.55l-.2.2m-.05-.1q.15-.7.5-1.1l.9-.7q3-1.2 6.4-3.75l.25-.2 1.1-.25m2.5 4.45l.05-.4M83.45 59.8l.15-.45q-.15-.55.2.05l.95-.15.3-.35L86.6 60q1.65 1.15 2.75 1.5 1.05.3 3.9 2.35v-.2q-.15-.25-.15-.5l.4.7q.15.6.4.65v.2l-.9-.15q-.55-.1-1.05-.5L90.1 62.7q-1.3-.9-2.95-1.3l-2.9-.8q-1.3-.4-3.15.85-1.9 1.2-1.85 1.75.05.55-.25.55-.3-.05-.95.95l-.1-.5q0-1.05 1.4-2.25l2.45-1.55-.2-.15v-.4h.5q0-.4.45-.55l.9.5"/><path fill="none" stroke="#150C0B" stroke-width=".05" stroke-linecap="round" stroke-linejoin="round" d="M98.7 214.35l9.95-5M95.5 207.15l16.85-6.85M91.15 198.75l20.6-7.15M88.35 190.7l29.6-8.4M84.95 181.65l35.2 9.65M89.9 191.9l24.35 6.25M94.3 200.3l19.95 5.65M90.85 206.85l23.7 9.35"/></svg>