<svg xmlns="http://www.w3.org/2000/svg" viewBox="0 0 208.8 258.5" width="208.8" height="258.5" preserveAspectRatio="xMinYMin"><defs><linearGradient gradientUnits="userSpaceOnUse" x1="-819.2" x2="819.2" gradientTransform="matrix(.032 0 0 .104 177.35 171.9)" id="a"><stop offset="0" stop-color="#fff"/><stop offset=".486" stop-color="#B0B0B0"/><stop offset="1" stop-color="#fff"/></linearGradient><linearGradient gradientUnits="userSpaceOnUse" x1="-819.2" x2="819.2" gradientTransform="matrix(-.023 .009 -.034 -.089 128.75 139.5)" id="b"><stop offset="0" stop-color="#3A241B"/><stop offset="1" stop-color="#8A5D3B"/></linearGradient><linearGradient gradientUnits="userSpaceOnUse" x1="-819.2" x2="819.2" gradientTransform="matrix(.038 -.019 .033 .065 85.4 130.6)" id="c"><stop offset="0" stop-color="#3A241B"/><stop offset="1" stop-color="#8A5D3B"/></linearGradient><linearGradient gradientUnits="userSpaceOnUse" x1="-819.2" x2="819.2" gradientTransform="matrix(.036 0 0 .101 24.25 175.55)" id="d"><stop offset="0" stop-color="#fff"/><stop offset=".486" stop-color="#B0B0B0"/><stop offset="1" stop-color="#fff"/></linearGradient><linearGradient gradientUnits="userSpaceOnUse" x1="-819.2" x2="819.2" gradientTransform="matrix(.022 -.02 .057 .064 141.25 101.4)" id="e"><stop offset="0" stop-color="#64422D"/><stop offset=".718" stop-color="#5F4029"/><stop offset="1" stop-color="#8A5D3B"/></linearGradient><linearGradient gradientUnits="userSpaceOnUse" x1="-819.2" x2="819.2" gradientTransform="matrix(-.023 .003 -.01 -.071 136.6 128.8)" id="f"><stop offset="0" stop-color="#3A241B"/><stop offset="1" stop-color="#8A5D3B"/></linearGradient></defs><path fill="url(#a)" d="M152.85 87.05q2 .4 4.2 1.3 7.05 2.85 13.25 9.85 19.8 22.35 23.45 77.4l5.6 17.7q5.25 18.95 3.8 25.15-.75 3.2-7.35 6.9l-13.85 6.9q-9.05 4.6-13.55 8.65-6.15 5.65-6.35 12.2-.4 13.6-2.8-20.35-2.35-34.1-1.9-41.9-1.3-1.45-2.7-4.25-2.15-4.3-2.9-9.2.7-8.65.9-18.85 2.2-6.3 4.1-14 3.8-15.45 2.35-22.4l-7.8-35.05.05-.25 1.5.2"/><path fill="#231510" d="M76.15 103.8l4.4-6.05q.4-.55 1.05-.65.65-.1 1.15.3.55.4.65 1.05.1.65-.3 1.2l-2.95 4-2.4 3.3 2.4-3.3 5.15-.15 1.2.4q.45.45.45 1.15.05.65-.4 1.1-.5.55-1.15.55l-5.7.2-1.95.05-4.75 6.4-1.05.6q-.65.15-1.2-.25-.5-.4-.6-1.1-.05-.6.3-1.15l3.25-4.4 2.25-3.05-2.25 3.05-5.3.15q-.65.05-1.1-.45-.5-.45-.55-1.1 0-.7.5-1.15.4-.45 1.05-.5l7.4-.2.25.2.2-.2m16.05 13.3h.75l4.15-5.7q.4-.55 1.05-.65.65-.1 1.15.3.55.4.65 1.05.1.65-.3 1.2l-2.7 3.65 5.45-.15 1.2.4q.45.45.45 1.15.05.65-.4 1.1-.5.55-1.15.55l-6.1.2h-.65l-1.2.05-5 6.75q-.35.55-1.05.6-.65.15-1.2-.25-.5-.4-.6-1.1-.05-.6.3-1.15l3.5-4.75-5.05.15q-.65.05-1.1-.45-.5-.45-.55-1.1 0-.7.5-1.15.4-.45 1.05-.5l6.85-.2m16.75 15.35l.6-.05 4.5-6.1q.4-.55 1.05-.65.65-.1 1.15.3.55.4.65 1.05.1.65-.3 1.2l-3 4.1 4.45-.15q.65 0 1.2.4.45.45.45 1.15.05.65-.4 1.1-.5.55-1.15.55l-6.15.2h-.8l-4.7 6.35q-.35.55-1.05.6-.65.15-1.2-.25-.5-.4-.6-1.1-.05-.6.3-1.15l3.2-4.3-6.05.15q-.65.05-1.1-.45-.5-.45-.55-1.1 0-.7.5-1.15.4-.45 1.05-.5l7.95-.2m13.85 15.2l4.4-6q.4-.55 1.05-.65.65-.1 1.15.3.55.4.65 1.05.1.65-.3 1.2l-2.9 3.95 4.85-.15q.65 0 1.2.4.45.45.45 1.15.05.65-.4 1.1-.5.55-1.15.55l-6.05.2h-1.3l-4.8 6.5q-.35.55-1.05.6l-1.2-.25q-.5-.4-.6-1.1-.05-.6.3-1.15l3.3-4.45-5.6.15q-.65.05-1.1-.45-.5-.45-.55-1.1 0-.7.5-1.15.4-.45 1.05-.5l8.1-.2-2.4 3.25 2.4-3.25m-62.65-51.2l-5.4.15q-.65.05-1.1-.45-.5-.45-.55-1.1 0-.7.5-1.15.4-.45 1.05-.5l6.1-.15 1.8-.05 4.65-6.35q.4-.55 1.05-.65.65-.1 1.15.3.55.4.65 1.05.1.65-.3 1.2l-3.15 4.3 5.05-.15 1.2.4q.45.45.45 1.15.05.65-.4 1.1-.5.55-1.15.55l-6.45.2-1.1.05 2.4-3.3-2.4 3.3-4.55 6.1q-.35.55-1.05.6l-1.2-.25q-.5-.4-.6-1.1-.05-.6.3-1.15l3.05-4.1 2.4-3.25-2.4 3.25m36.8 20.5l-2.4 3.3 2.4-3.3m-6.45 3.4l2.45-3.25-2.45 3.25m19.05 12.05l-2.4 3.3 2.4-3.3m4.05-.1l-2.4 3.25 2.4-3.25m10.85 18.45l2.4-3.25-2.4 3.25"/><path fill="url(#b)" d="M151.75 177.4l-.75 8.3-.55-.05q.4.3.45.75l-.05.6q-1.45 12.05-3.95 20.35-2.5 8.45-4.85 10.5 2.55-2.55 3.3-13l.25-9.9q-.35-3.35-1.1-6.7l-.05-.6q-1.3-4.5-3.4-9.9-2.4-6.2-4.65-10.3l-.2-.35-.15-.3v-.05l.25-.35h-.45l.15.35q-6.55-10.6-10.25-15.45v-.55l6.05-.2q.65 0 1.15-.55.45-.45.4-1.1 0-.7-.45-1.15-.55-.4-1.2-.4l-4.85.15 2.9-3.95q.4-.55.3-1.2-.1-.65-.65-1.05-.5-.4-1.15-.3-.65.1-1.05.65l-4.4 6q-4.9-6-10.8-12.1l6.15-.2q.65 0 1.15-.55.45-.45.4-1.1 0-.7-.45-1.15-.55-.4-1.2-.4l-4.45.15 3-4.1q.4-.55.3-1.2-.1-.65-.65-1.05-.5-.4-1.15-.3-.65.1-1.05.65l-4.5 6.1-.6.05q-5.8-5.8-12.55-11.7v-.55l6.1-.2q.65 0 1.15-.55.45-.45.4-1.1 0-.7-.45-1.15l-1.2-.4-5.45.15 2.7-3.65q.4-.55.3-1.2-.1-.65-.65-1.05-.5-.4-1.15-.3-.65.1-1.05.65l-4.15 5.7h-.75l-2-1.7-6.55-5.4-3.95-3.1 5.7-.2q.65 0 1.15-.55.45-.45.4-1.1 0-.7-.45-1.15l-1.2-.4-5.15.15 2.95-4q.4-.55.3-1.2-.1-.65-.65-1.05-.5-.4-1.15-.3-.65.1-1.05.65l-4.4 6.05h-.45l-10.4-7.5 6.45-.2q.65 0 1.15-.55.45-.45.4-1.1 0-.7-.45-1.15l-1.2-.4-5.05.15 3.15-4.3q.4-.55.3-1.2-.1-.65-.65-1.05-.5-.4-1.15-.3-.65.1-1.05.65l-4.65 6.35-1.8.05q-4.6-3.05-9.15-5.75 11.7-8.3 18.2-7.9 3.2.25 4.1 2.05 27.15 19.1 38.65 16.75 5.75-1.2 15.15-9.15 2.65-8.4 13.8-8.55 5.6-.1 8.8 2.1l.95 4.05.05.25 7.8 35.05q1.45 6.95-2.35 22.4-1.9 7.7-4.1 14-.2 10.2-.9 18.85l-.3-3 .3 3"/><path fill="url(#c)" d="M125.75 151.3q-3.1 17.2-37.4 41.5-17.2 12.2-33.8 20.95-5-10-5-31.05 0-9.75 1.05-20.5l.1-.95q.9-9.5 2.65-19.75 2.5-14.75-6.3-30.55-5.45-9.8-13.9-17.95l-2.1-1.95L51.6 87.5q4.55 2.7 9.15 5.75l-6.1.15q-.65.05-1.05.5-.5.45-.5 1.15.05.65.55 1.1.45.5 1.1.45l5.4-.15-3.05 4.1q-.35.55-.3 1.15.1.7.6 1.1l1.2.25q.7-.05 1.05-.6l4.55-6.1 1.1-.05 10.4 7.5-7.4.2q-.65.05-1.05.5-.5.45-.5 1.15.05.65.55 1.1.45.5 1.1.45l5.3-.15-3.25 4.4q-.35.55-.3 1.15.1.7.6 1.1.55.4 1.2.25l1.05-.6 4.75-6.4 1.95-.05 3.95 3.1 6.55 5.4 2 1.7-6.85.2q-.65.05-1.05.5-.5.45-.5 1.15.05.65.55 1.1.45.5 1.1.45l5.05-.15-3.5 4.75q-.35.55-.3 1.15.1.7.6 1.1.55.4 1.2.25.7-.05 1.05-.6l5-6.75 1.2-.05.65.55q6.75 5.9 12.55 11.7l-7.95.2q-.65.05-1.05.5-.5.45-.5 1.15.05.65.55 1.1.45.5 1.1.45l6.05-.15-3.2 4.3q-.35.55-.3 1.15.1.7.6 1.1.55.4 1.2.25.7-.05 1.05-.6l4.7-6.35h.8q5.9 6.1 10.8 12.1l-8.1.2q-.65.05-1.05.5-.5.45-.5 1.15.05.65.55 1.1.45.5 1.1.45l5.6-.15-3.3 4.45q-.35.55-.3 1.15.1.7.6 1.1l1.2.25q.7-.05 1.05-.6l4.8-6.5h.85l.45.55"/><path fill="url(#d)" d="M50.6 162.2q-1.9 9.75-6.7 17.65-2.5 4.2-4.65 6.3l3.55 18.8-.75 32.45q-1.15 29.9-3.35 17.45T15.35 230.9q-6.6-3.55-14.3-6.6-3.85-1.55-6.4-2.35l7.05-26.4q0-7.9.65-20.6 1.3-25.4 4.6-49.3Q10.25 101.8 22 95q5.9-3.4 11.15-2 8.45 8.15 13.9 17.95 8.8 15.8 6.3 30.55-1.75 10.25-2.65 19.75l-.1.95"/><path fill="url(#e)" d="M151 185.75l-.1.65q-.05-.45-.45-.75l.55.1M96.4 120.2v.55l-.65-.55h.65m29.35 30.55v.55l-.45-.55h.45"/><path fill="url(#f)" d="M151 185.7v.05l-.55-.1.55.05"/><path fill="none" stroke="#959595" stroke-width=".05" d="M152.85 87.05q2 .4 4.2 1.3 7.05 2.85 13.25 9.85 19.8 22.35 23.45 77.4l5.6 17.7q5.25 18.95 3.8 25.15-.75 3.2-7.35 6.9l-13.85 6.9q-9.05 4.6-13.55 8.65-6.15 5.65-6.35 12.2-.4 13.6-2.8-20.35-2.35-34.1-1.9-41.9-1.3-1.45-2.7-4.25-2.15-4.3-2.9-9.2M50.6 162.2q-1.9 9.75-6.7 17.65-2.5 4.2-4.65 6.3l3.55 18.8-.75 32.45q-1.15 29.9-3.35 17.45T15.35 230.9q-6.6-3.55-14.3-6.6-3.85-1.55-6.4-2.35l7.05-26.4q0-7.9.65-20.6 1.3-25.4 4.6-49.3Q10.25 101.8 22 95q5.9-3.4 11.15-2"/><path fill="none" stroke="#3A241B" stroke-width=".05" d="M33.15 93l-2.1-1.95L51.6 87.5q11.7-8.3 18.2-7.9 3.2.25 4.1 2.05 27.15 19.1 38.65 16.75 5.75-1.2 15.15-9.15 2.65-8.4 13.8-8.55 5.6-.1 8.8 2.1l.95 4.05h.1l1.5.2m-1.1 90.35l-.75 8.3v.05l-.1.65v.15l-.05.45q-1.45 12.05-3.95 20.35-2.5 8.45-4.85 10.5 2.55-2.55 3.3-13l.25-9.9q-.35-3.35-1.1-6.7l-.05-.25v-.35q-1.3-4.5-3.4-9.9-2.4-6.2-4.65-10.3l-.2-.35-.2-.35q-6.55-10.6-10.25-15.45-3.1 17.2-37.4 41.5-17.2 12.2-33.8 20.95-5-10-5-31.05 0-9.75 1.05-20.5l.1-.95q.9-9.5 2.65-19.75 2.5-14.75-6.3-30.55-5.45-9.8-13.9-17.95m47 10.65l2.95-4q.4-.55.3-1.2-.1-.65-.65-1.05-.5-.4-1.15-.3-.65.1-1.05.65l-4.4 6.05-.2.2-2.25 3.05-3.25 4.4q-.35.55-.3 1.15.1.7.6 1.1.55.4 1.2.25l1.05-.6 4.75-6.4 2.4-3.3 5.15-.15 1.2.4q.45.45.45 1.15.05.65-.4 1.1-.5.55-1.15.55l-5.7.2 3.95 3.1 6.55 5.4 2 1.7h.75l4.15-5.7q.4-.55 1.05-.65.65-.1 1.15.3.55.4.65 1.05.1.65-.3 1.2l-2.7 3.65 5.45-.15 1.2.4q.45.45.45 1.15.05.65-.4 1.1-.5.55-1.15.55l-6.1.2h-.65l.65.55q6.75 5.9 12.55 11.7l.6-.05 4.5-6.1q.4-.55 1.05-.65.65-.1 1.15.3.55.4.65 1.05.1.65-.3 1.2l-3 4.1 4.45-.15q.65 0 1.2.4.45.45.45 1.15.05.65-.4 1.1-.5.55-1.15.55l-6.15.2q5.9 6.1 10.8 12.1l4.4-6q.4-.55 1.05-.65.65-.1 1.15.3.55.4.65 1.05.1.65-.3 1.2l-2.9 3.95 4.85-.15q.65 0 1.2.4.45.45.45 1.15.05.65-.4 1.1-.5.55-1.15.55l-6.05.2m0 .55l-.45-.55h-.85l-4.8 6.5q-.35.55-1.05.6l-1.2-.25q-.5-.4-.6-1.1-.05-.6.3-1.15l3.3-4.45-5.6.15q-.65.05-1.1-.45-.5-.45-.55-1.1 0-.7.5-1.15.4-.45 1.05-.5l8.1-.2-2.4 3.25m30.85-64.05l.05.25 7.8 35.05q1.45 6.95-2.35 22.4-1.9 7.7-4.1 14-.2 10.2-.9 18.85l-.3-3m-90.7-81.15l-6.1.15q-.65.05-1.05.5-.5.45-.5 1.15.05.65.55 1.1.45.5 1.1.45l5.4-.15 2.4-3.25-1.8.05q-4.6-3.05-9.15-5.75m15 5.55l3.15-4.3q.4-.55.3-1.2-.1-.65-.65-1.05-.5-.4-1.15-.3-.65.1-1.05.65l-4.65 6.35m1.65 3.15l1.1-.05 6.45-.2q.65 0 1.15-.55.45-.45.4-1.1 0-.7-.45-1.15l-1.2-.4-5.05.15-2.4 3.3-4.55 6.1q-.35.55-1.05.6l-1.2-.25q-.5-.4-.6-1.1-.05-.6.3-1.15l3.05-4.1m17.6 10.5l1.95-.05m-3.55-3.1h-.45l.25.2m-.25-.2l-7.4.2q-.65.05-1.05.5-.5.45-.5 1.15.05.65.55 1.1.45.5 1.1.45l5.3-.15m22.05 13.15l-1.2.05-5 6.75q-.35.55-1.05.6-.65.15-1.2-.25-.5-.4-.6-1.1-.05-.6.3-1.15l3.5-4.75-5.05.15q-.65.05-1.1-.45-.5-.45-.55-1.1 0-.7.5-1.15.4-.45 1.05-.5l6.85-.2m2.35 3.15l2.4-3.3m-4 .15l-2.45 3.25m18.45 12.1l-7.95.2q-.65.05-1.05.5-.5.45-.5 1.15.05.65.55 1.1.45.5 1.1.45l6.05-.15 2.4-3.3m-2.4 3.3l-3.2 4.3q-.35.55-.3 1.15.1.7.6 1.1.55.4 1.2.25.7-.05 1.05-.6l4.7-6.35 2.4-3.25m-2.4 3.25h.8m13.3 15.2h.45m10.45 16.35l-.15-.3-.05-.05-.15-.35h.45l-.25.35v.05m14.85 19.6l-.05.6m-6.35 1.25l-.05-.6m-17.6-40.15l-2.4 3.25M65.3 96.3l10.4 7.5"/></svg>