<svg xmlns="http://www.w3.org/2000/svg" viewBox="0 0 151.9 206.1" width="151.9" height="206.1" preserveAspectRatio="xMinYMin"><defs><linearGradient gradientUnits="userSpaceOnUse" x1="-819.2" x2="819.2" gradientTransform="matrix(.008 -.015 .036 .019 72.4 170.7)" id="a"><stop offset="0" stop-color="#3A241B"/><stop offset="1" stop-color="#8A5D3B"/></linearGradient><linearGradient gradientUnits="userSpaceOnUse" x1="-819.2" x2="819.2" gradientTransform="matrix(-.024 -.008 .019 -.054 39.35 155.3)" id="b"><stop offset="0" stop-color="#fff"/><stop offset=".486" stop-color="#B0B0B0"/><stop offset="1" stop-color="#fff"/></linearGradient><linearGradient gradientUnits="userSpaceOnUse" x1="-819.2" x2="819.2" gradientTransform="matrix(-.024 .01 -.023 -.053 136.05 152.9)" id="c"><stop offset="0" stop-color="#fff"/><stop offset=".486" stop-color="#B0B0B0"/><stop offset="1" stop-color="#fff"/></linearGradient><linearGradient gradientUnits="userSpaceOnUse" x1="-819.2" x2="819.2" gradientTransform="matrix(-.004 -.009 .025 -.01 123.85 166.3)" id="d"><stop offset="0" stop-color="#3A241B"/><stop offset="1" stop-color="#8A5D3B"/></linearGradient></defs><path fill="url(#a)" d="M66.1 115.35l.35-.4.5-.4q-1.4-.05-.5-.35l1.25-.65 1.25-.5.95-.95q.45-.85 1.45-.55 1 .25 2.1-1.5-1.25 3.8.25 9.35 1.65 14.85 7.5 26.8 5.8 11.9 20.85 24.5.95 2.8 4.95 5.5-3.4 4.4-13.9 7.65-21.05 6.5-31.1 19.4-3.3-4-6.55-10.35-6.3-12.4-6.1-23.9l.05-.45-.05-.1.05.1q.95 1.8 2.35 3.4 8.05 9.35 18.6 11.6 10.5 2.2 24.85-6.95-14.35 9.15-24.85 6.95-10.55-2.25-18.6-11.6-1.4-1.6-2.35-3.4l-.05.45v-.55l-.15-.3q-4.35-8.6 2.25-21.25Q58.1 134.05 63 125.1l3.55-8.65q-.95-.4-.45-1.1"/><path fill="url(#b)" d="M66.1 115.35q-.5.7.45 1.1L63 125.1q-4.9 8.95-11.55 21.8-6.6 12.65-2.25 21.25l.15.3v.55l-3.5 17.15-1.8 14.35q-1.8 11.75-1.8-1.45T32 174.3q-3.2-3.6-7.05-6.65l-3.2-2.3 1.65-26.4L30 126.1l25.1-7.95 11-2.8"/><path fill="url(#c)" d="M113.8 110.9l10.3-1.95 11.55.95 9.2 9.6 6.95 37.3-8.5 18q-8.4 20.05-8 30.15l-4.6-18.45-3.6-7.1.3-.3q5.15-1.8 9.5-5.95 8.75-8.35 4.85-20.15-.65-2.95-2.35-6.8-3.4-7.8-8.8-12.55l-5.7-6.85q-4.05-5.25-10.1-14.9l-1-1"/><path fill="url(#d)" d="M113.8 110.9l1 1q6.05 9.65 10.1 14.9l5.7 6.85q5.4 4.75 8.8 12.55 1.7 3.85 2.35 6.8 3.9 11.8-4.85 20.15-4.35 4.15-9.5 5.95l-.3.3q-2.25 2.3-4.35 12.75-1.15 5.6-1.8 10.75v-12.8l-7.05-8.95-1.55-1.05-5.35-3.9q-4-2.7-4.95-5.5 24.05-18 16.05-42.3-2.5-7.6-7.85-14.9l-4.85-5.75 8.4 3.15"/><path fill="#231510" d="M103.25 172.4l3.7-3.75q.35-.35.8-.3.5-.05.8.3.35.3.35.75 0 .55-.35.85l-2.4 2.45-2.05 2.05 2.05-2.05 3.35.4q.5.05.8.4.3.35.25.85l-.4.75-.9.25-5.15-.6-4.05 4.05q-.3.35-.8.25l-.8-.25q-.35-.35-.3-.85 0-.45.3-.8l2.8-2.75-3.95-.5-.7-.4q-.3-.35-.25-.85.05-.45.45-.75.3-.25.8-.25l5.65.75-2 2 2-2"/><path fill="none" stroke="#3A241B" stroke-width=".05" stroke-linecap="round" stroke-linejoin="round" d="M66.1 115.35l.35-.4.5-.4q-1.4-.05-.5-.35l1.25-.65 1.25-.5.95-.95q.45-.85 1.45-.55 1 .25 2.1-1.5-1.25 3.8.25 9.35 1.65 14.85 7.5 26.8 5.8 11.9 20.85 24.5 24.05-18 16.05-42.3-2.5-7.6-7.85-14.9l-4.85-5.75 8.4 3.15m13.3 68.5q-2.25 2.3-4.35 12.75-1.15 5.6-1.8 10.75v-12.8l-7.05-8.95-1.55-1.05-5.35-3.9q-3.4 4.4-13.9 7.65-21.05 6.5-31.1 19.4-3.3-4-6.55-10.35-6.3-12.4-6.1-23.9l.05-.45m16.7-53.2q-.5.7.45 1.1L63 125.1q-4.9 8.95-11.55 21.8-6.6 12.65-2.25 21.25l.15.3.05.1m-.05-.1v.55m77.75 10.4l.3-.3q5.15-1.8 9.5-5.95 8.75-8.35 4.85-20.15-.65-2.95-2.35-6.8-3.4-7.8-8.8-12.55l-5.7-6.85q-4.05-5.25-10.1-14.9m-12.75 58.8q.95 2.8 4.95 5.5"/><path fill="none" stroke="#B3B3B3" stroke-width=".05" stroke-linecap="round" stroke-linejoin="round" d="M113.8 110.9l10.3-1.95 11.55.95 9.2 9.6 6.95 37.3-8.5 18q-8.4 20.05-8 30.15l-4.6-18.45-3.6-7.1M49.35 169l-3.5 17.15-1.8 14.35q-1.8 11.75-1.8-1.45T32 174.3q-3.2-3.6-7.05-6.65l-3.2-2.3 1.65-26.4L30 126.1l25.1-7.95 11-2.8m48.7-3.45l-1-1"/><path fill="none" stroke="#241611" stroke-width=".05" stroke-linecap="round" stroke-linejoin="round" d="M49.4 168.55q.95 1.8 2.35 3.4 8.05 9.35 18.6 11.6 10.5 2.2 24.85-6.95"/><path fill="none" stroke="#3A241B" stroke-width=".05" d="M109.5 173.1q.5.05.8.4.3.35.25.85l-.4.75-.9.25"/><path fill="none" stroke="#3A241B" stroke-width=".05" stroke-linecap="round" d="M106.15 172.7l2.4-2.45q.35-.3.35-.85 0-.45-.35-.75-.3-.35-.8-.3-.45-.05-.8.3l-3.7 3.75-2 2-2.8 2.75q-.3.35-.3.8-.05.5.3.85l.8.25q.5.1.8-.25l4.05-4.05 2.05-2.05m-2.9-.3l-5.65-.75q-.5 0-.8.25-.4.3-.45.75-.05.5.25.85l.7.4 3.95.5M106.15 172.7l3.35.4"/><path fill="none" stroke="#3A241B" stroke-width=".05" d="M109.25 175.35l-5.15-.6"/></svg>