<svg xmlns="http://www.w3.org/2000/svg" viewBox="2.0 28.9 205.3 482.6" width="205.3" height="482.6" preserveAspectRatio="xMinYMin"><defs><linearGradient gradientUnits="userSpaceOnUse" x1="-819.2" x2="819.2" gradientTransform="matrix(.026 0 0 .022 87.5 338.2)" id="a"><stop offset="0"/><stop offset=".596" stop-color="#2B2B2B"/><stop offset="1"/></linearGradient><linearGradient gradientUnits="userSpaceOnUse" x1="-819.2" x2="819.2" gradientTransform="matrix(.021 0 0 .019 93.65 345.4)" id="b"><stop offset="0" stop-color="#F2D202"/><stop offset="1" stop-color="#AA7C02"/></linearGradient><linearGradient gradientUnits="userSpaceOnUse" x1="-819.2" x2="819.2" gradientTransform="matrix(.023 0 0 .063 94.75 398.05)" id="c"><stop offset="0" stop-color="#8C8C8C"/><stop offset=".596" stop-color="#fff"/><stop offset="1" stop-color="#ddd"/></linearGradient><linearGradient gradientUnits="userSpaceOnUse" x1="-819.2" x2="819.2" gradientTransform="matrix(.022 0 0 .025 127.1 337.8)" id="d"><stop offset="0"/><stop offset=".596" stop-color="#2B2B2B"/><stop offset="1"/></linearGradient><linearGradient gradientUnits="userSpaceOnUse" x1="-819.2" x2="819.2" gradientTransform="matrix(.018 0 0 .021 135.3 345.85)" id="e"><stop offset="0" stop-color="#F2D202"/><stop offset="1" stop-color="#AA7C02"/></linearGradient><linearGradient gradientUnits="userSpaceOnUse" x1="-819.2" x2="819.2" gradientTransform="matrix(.035 0 0 .061 149.6 393)" id="f"><stop offset="0" stop-color="#8C8C8C"/><stop offset=".596" stop-color="#fff"/><stop offset="1" stop-color="#ddd"/></linearGradient><linearGradient gradientUnits="userSpaceOnUse" x1="-819.2" x2="819.2" gradientTransform="matrix(.011 0 0 .008 171.5 438.8)" id="g"><stop offset="0" stop-color="#F2D202"/><stop offset="1" stop-color="#AA7C02"/></linearGradient><linearGradient gradientUnits="userSpaceOnUse" x1="-819.2" x2="819.2" gradientTransform="matrix(.017 0 0 .016 177.95 448.85)" id="h"><stop offset="0" stop-color="#8C8C8C"/><stop offset=".596" stop-color="#fff"/><stop offset="1" stop-color="#ddd"/></linearGradient><linearGradient gradientUnits="userSpaceOnUse" x1="-819.2" x2="819.2" gradientTransform="matrix(.014 0 0 .011 183.25 459.1)" id="i"><stop offset="0" stop-color="#F2D202"/><stop offset="1" stop-color="#AA7C02"/></linearGradient><linearGradient gradientUnits="userSpaceOnUse" x1="-819.2" x2="819.2" gradientTransform="matrix(.021 0 0 .021 190.05 470.75)" id="j"><stop offset="0" stop-color="#8C8C8C"/><stop offset=".596" stop-color="#fff"/><stop offset="1" stop-color="#ddd"/></linearGradient><linearGradient gradientUnits="userSpaceOnUse" x1="-819.2" x2="819.2" gradientTransform="matrix(.012 0 0 .006 94.4 448.35)" id="k"><stop offset="0" stop-color="#F2D202"/><stop offset="1" stop-color="#AA7C02"/></linearGradient><linearGradient gradientUnits="userSpaceOnUse" x1="-819.2" x2="819.2" gradientTransform="matrix(.016 0 0 .016 93.1 460.8)" id="l"><stop offset="0" stop-color="#8C8C8C"/><stop offset=".596" stop-color="#fff"/><stop offset="1" stop-color="#ddd"/></linearGradient><linearGradient gradientUnits="userSpaceOnUse" x1="-819.2" x2="819.2" gradientTransform="matrix(.017 0 0 .007 93.3 472.75)" id="m"><stop offset="0" stop-color="#F2D202"/><stop offset="1" stop-color="#AA7C02"/></linearGradient><linearGradient gradientUnits="userSpaceOnUse" x1="-819.2" x2="819.2" gradientTransform="matrix(.02 0 0 .024 93.05 491.5)" id="n"><stop offset="0" stop-color="#8C8C8C"/><stop offset=".596" stop-color="#fff"/><stop offset="1" stop-color="#ddd"/></linearGradient><linearGradient gradientUnits="userSpaceOnUse" x1="-819.2" x2="819.2" gradientTransform="matrix(.03 0 0 .043 89.55 67.5)" id="o"><stop offset="0" stop-color="#D98651"/><stop offset=".533" stop-color="#DFA168"/><stop offset="1" stop-color="#D98651"/></linearGradient><linearGradient gradientUnits="userSpaceOnUse" x1="-819.2" x2="819.2" gradientTransform="matrix(-.001 -.033 .002 0 114.95 49.3)" id="p"><stop offset="0" stop-color="#D98651"/><stop offset=".533" stop-color="#DFA168"/><stop offset="1" stop-color="#D98651"/></linearGradient><linearGradient gradientUnits="userSpaceOnUse" x1="-819.2" x2="819.2" gradientTransform="matrix(.045 0 0 .04 93.75 144.1)" id="q"><stop offset="0" stop-color="#F2D202"/><stop offset="1" stop-color="#AA7C02"/></linearGradient><linearGradient gradientUnits="userSpaceOnUse" x1="-819.2" x2="819.2" gradientTransform="matrix(.025 0 0 .031 68.85 157.15)" id="r"><stop offset="0"/><stop offset=".596" stop-color="#2B2B2B"/><stop offset="1"/></linearGradient><linearGradient gradientUnits="userSpaceOnUse" x1="-819.2" x2="819.2" gradientTransform="matrix(.051 .001 -.001 .067 116.75 220.9)" id="s"><stop offset="0"/><stop offset=".596" stop-color="#2B2B2B"/><stop offset="1"/></linearGradient><linearGradient gradientUnits="userSpaceOnUse" x1="-819.2" x2="819.2" gradientTransform="matrix(.018 0 0 .028 127.75 154.55)" id="t"><stop offset="0"/><stop offset=".596" stop-color="#2B2B2B"/><stop offset="1"/></linearGradient><linearGradient gradientUnits="userSpaceOnUse" x1="-819.2" x2="819.2" gradientTransform="matrix(.028 0 0 .036 119.65 250.45)" id="u"><stop offset="0"/><stop offset=".596" stop-color="#2B2B2B"/><stop offset="1"/></linearGradient><linearGradient gradientUnits="userSpaceOnUse" x1="-819.2" x2="819.2" gradientTransform="matrix(.035 0 0 .036 69.9 250.3)" id="v"><stop offset="0"/><stop offset=".596" stop-color="#2B2B2B"/><stop offset="1"/></linearGradient><linearGradient gradientUnits="userSpaceOnUse" x1="-819.2" x2="819.2" gradientTransform="matrix(.01 -.001 .001 .01 120.9 213.3)" id="w"><stop offset="0" stop-color="#8C8C8C"/><stop offset=".596" stop-color="#fff"/><stop offset="1" stop-color="#ddd"/></linearGradient><linearGradient gradientUnits="userSpaceOnUse" x1="-819.2" x2="819.2" gradientTransform="matrix(.013 -.001 .001 .013 104.7 216.6)" id="x"><stop offset="0" stop-color="#F2D202"/><stop offset="1" stop-color="#AA7C02"/></linearGradient><linearGradient gradientUnits="userSpaceOnUse" x1="-819.2" x2="819.2" gradientTransform="matrix(.018 -.002 .001 .012 80.8 217.6)" id="y"><stop offset="0" stop-color="#8C8C8C"/><stop offset=".596" stop-color="#fff"/><stop offset="1" stop-color="#ddd"/></linearGradient><linearGradient gradientUnits="userSpaceOnUse" x1="-819.2" x2="819.2" gradientTransform="matrix(.025 -.003 .004 .041 106.75 257.45)" id="z"><stop offset="0" stop-color="#8C8C8C"/><stop offset=".596" stop-color="#fff"/><stop offset="1" stop-color="#ddd"/></linearGradient><linearGradient gradientUnits="userSpaceOnUse" x1="-819.2" x2="819.2" gradientTransform="matrix(.025 -.003 .004 .041 106.75 257.45)" id="A"><stop offset="0" stop-color="#F2D202"/><stop offset="1" stop-color="#AA7C02"/></linearGradient><linearGradient gradientUnits="userSpaceOnUse" x1="-819.2" x2="819.2" gradientTransform="matrix(.028 0 0 .03 41.35 140)" id="B"><stop offset="0" stop-color="#8C8C8C"/><stop offset=".596" stop-color="#fff"/><stop offset="1" stop-color="#ddd"/></linearGradient><linearGradient gradientUnits="userSpaceOnUse" x1="-819.2" x2="819.2" gradientTransform="matrix(.028 0 0 .03 41.35 140)" id="C"><stop offset="0" stop-color="#F2D202"/><stop offset="1" stop-color="#AA7C02"/></linearGradient><linearGradient gradientUnits="userSpaceOnUse" x1="-819.2" x2="819.2" gradientTransform="matrix(-.023 -.001 0 .024 136.8 131.65)" id="D"><stop offset="0" stop-color="#8C8C8C"/><stop offset=".596" stop-color="#fff"/><stop offset="1" stop-color="#ddd"/></linearGradient><linearGradient gradientUnits="userSpaceOnUse" x1="-819.2" x2="819.2" gradientTransform="matrix(-.023 -.001 0 .024 136.8 131.65)" id="E"><stop offset="0" stop-color="#F2D202"/><stop offset="1" stop-color="#AA7C02"/></linearGradient><linearGradient gradientUnits="userSpaceOnUse" x1="-819.2" x2="819.2" gradientTransform="matrix(.014 0 0 .059 135.95 262.95)" id="F"><stop offset="0" stop-color="#8C8C8C"/><stop offset=".596" stop-color="#fff"/><stop offset="1" stop-color="#ddd"/></linearGradient><linearGradient gradientUnits="userSpaceOnUse" x1="-819.2" x2="819.2" gradientTransform="matrix(.014 0 0 .059 135.95 262.95)" id="G"><stop offset="0" stop-color="#F2D202"/><stop offset="1" stop-color="#AA7C02"/></linearGradient><linearGradient gradientUnits="userSpaceOnUse" x1="-819.2" x2="819.2" gradientTransform="matrix(.014 0 0 .063 51.35 267.15)" id="H"><stop offset="0" stop-color="#8C8C8C"/><stop offset=".596" stop-color="#fff"/><stop offset="1" stop-color="#ddd"/></linearGradient><linearGradient gradientUnits="userSpaceOnUse" x1="-819.2" x2="819.2" gradientTransform="matrix(.014 0 0 .063 51.35 267.15)" id="I"><stop offset="0" stop-color="#F2D202"/><stop offset="1" stop-color="#AA7C02"/></linearGradient><linearGradient gradientUnits="userSpaceOnUse" x1="-819.2" x2="819.2" gradientTransform="matrix(.017 0 0 .013 149.05 198.35)" id="J"><stop offset="0" stop-color="#F2D202"/><stop offset="1" stop-color="#AA7C02"/></linearGradient><linearGradient gradientUnits="userSpaceOnUse" x1="-819.2" x2="819.2" gradientTransform="matrix(.014 0 0 .012 146.45 190.35)" id="K"><stop offset="0"/><stop offset=".596" stop-color="#2B2B2B"/><stop offset="1"/></linearGradient><linearGradient gradientUnits="userSpaceOnUse" x1="-819.2" x2="819.2" gradientTransform="matrix(.021 -.005 .007 .028 167.1 218.95)" id="L"><stop offset="0" stop-color="#F2D202"/><stop offset="1" stop-color="#AA7C02"/></linearGradient><linearGradient gradientUnits="userSpaceOnUse" x1="-819.2" x2="819.2" gradientTransform="matrix(.021 0 0 .034 153.35 219.65)" id="M"><stop offset="0" stop-color="#8C8C8C"/><stop offset=".596" stop-color="#fff"/><stop offset="1" stop-color="#ddd"/></linearGradient><linearGradient gradientUnits="userSpaceOnUse" x1="-819.2" x2="819.2" gradientTransform="matrix(.01 0 0 .007 162.45 246.7)" id="N"><stop offset="0" stop-color="#F2D202"/><stop offset="1" stop-color="#AA7C02"/></linearGradient><linearGradient gradientUnits="userSpaceOnUse" x1="-819.2" x2="819.2" gradientTransform="matrix(.017 0 0 .017 166.1 260)" id="O"><stop offset="0" stop-color="#8C8C8C"/><stop offset=".596" stop-color="#fff"/><stop offset="1" stop-color="#ddd"/></linearGradient><linearGradient gradientUnits="userSpaceOnUse" x1="-819.2" x2="819.2" gradientTransform="matrix(.015 0 0 .009 27.15 201.75)" id="P"><stop offset="0"/><stop offset=".596" stop-color="#2B2B2B"/><stop offset="1"/></linearGradient><linearGradient gradientUnits="userSpaceOnUse" x1="-819.2" x2="819.2" gradientTransform="matrix(.018 0 0 .01 25.3 211.8)" id="Q"><stop offset="0" stop-color="#F2D202"/><stop offset="1" stop-color="#AA7C02"/></linearGradient><linearGradient gradientUnits="userSpaceOnUse" x1="-819.2" x2="819.2" gradientTransform="matrix(.021 0 0 .033 23.1 235.7)" id="R"><stop offset="0" stop-color="#8C8C8C"/><stop offset=".596" stop-color="#fff"/><stop offset="1" stop-color="#ddd"/></linearGradient><linearGradient gradientUnits="userSpaceOnUse" x1="-819.2" x2="819.2" gradientTransform="matrix(.022 .002 -.003 .029 25.7 236.15)" id="S"><stop offset="0" stop-color="#F2D202"/><stop offset="1" stop-color="#AA7C02"/></linearGradient><linearGradient gradientUnits="userSpaceOnUse" x1="-819.2" x2="819.2" gradientTransform="matrix(.017 0 0 .02 16.2 279.7)" id="T"><stop offset="0" stop-color="#8C8C8C"/><stop offset=".596" stop-color="#fff"/><stop offset="1" stop-color="#ddd"/></linearGradient><linearGradient gradientUnits="userSpaceOnUse" x1="-819.2" x2="819.2" gradientTransform="matrix(.011 0 0 .005 15.5 263.45)" id="U"><stop offset="0" stop-color="#F2D202"/><stop offset="1" stop-color="#AA7C02"/></linearGradient><linearGradient gradientUnits="userSpaceOnUse" x1="-819.2" x2="819.2" gradientTransform="matrix(.021 0 0 .05 112.15 70.7)" id="V"><stop offset="0" stop-color="#5E201A"/><stop offset="1" stop-color="#A2422B"/></linearGradient><linearGradient gradientUnits="userSpaceOnUse" x1="-819.2" x2="819.2" gradientTransform="matrix(-.001 -.006 .024 -.005 91.85 40.25)" id="W"><stop offset="0" stop-color="#5E201A"/><stop offset="1" stop-color="#A2422B"/></linearGradient><linearGradient gradientUnits="userSpaceOnUse" x1="-819.2" x2="819.2" gradientTransform="matrix(.032 0 0 .055 69.2 73.85)" id="X"><stop offset="0" stop-color="#5E201A"/><stop offset="1" stop-color="#A2422B"/></linearGradient><linearGradient gradientUnits="userSpaceOnUse" x1="-819.2" x2="819.2" gradientTransform="matrix(-.001 -.006 .024 -.005 91.85 40.25)" id="Y"><stop offset="0" stop-color="#F2D202"/><stop offset="1" stop-color="#AA7C02"/></linearGradient><linearGradient gradientUnits="userSpaceOnUse" x1="-819.2" x2="819.2" gradientTransform="matrix(-.003 -.02 .064 -.009 87.25 80.55)" id="Z"><stop offset="0" stop-color="#5E201A"/><stop offset="1" stop-color="#A2422B"/></linearGradient><linearGradient gradientUnits="userSpaceOnUse" x1="-819.2" x2="819.2" gradientTransform="matrix(-.001 .008 -.025 -.002 95 44.7)" id="aa"><stop offset="0"/><stop offset="1" stop-color="#A2422B"/></linearGradient><linearGradient gradientUnits="userSpaceOnUse" x1="-819.2" x2="819.2" gradientTransform="matrix(-.001 0 0 -.003 104.3 66.3)" id="ab"><stop offset="0" stop-color="#fff"/><stop offset="1" stop-color="#959595"/></linearGradient><linearGradient gradientUnits="userSpaceOnUse" x1="-819.2" x2="819.2" gradientTransform="matrix(0 0 0 .002 109.8 65.55)" id="ac"><stop offset="0" stop-color="#fff"/><stop offset="1" stop-color="#959595"/></linearGradient><radialGradient gradientUnits="userSpaceOnUse" r="819.2" cx="0" cy="0" spreadMethod="pad" gradientTransform="matrix(.002 0 0 .003 108.1 66.15)" id="ad"><stop offset=".769" stop-color="#369A36"/><stop offset="1"/></radialGradient><radialGradient gradientUnits="userSpaceOnUse" r="819.2" cx="0" cy="0" spreadMethod="pad" gradientTransform="matrix(.003 0 0 .003 91.1 66.75)" id="ae"><stop offset=".769" stop-color="#369A36"/><stop offset="1"/></radialGradient><linearGradient gradientUnits="userSpaceOnUse" x1="-819.2" x2="819.2" gradientTransform="matrix(-.002 0 0 -.003 86.45 66.3)" id="af"><stop offset="0" stop-color="#fff"/><stop offset="1" stop-color="#959595"/></linearGradient><linearGradient gradientUnits="userSpaceOnUse" x1="-819.2" x2="819.2" gradientTransform="matrix(.001 0 0 .003 94.6 66.75)" id="ag"><stop offset="0" stop-color="#fff"/><stop offset="1" stop-color="#959595"/></linearGradient><linearGradient gradientUnits="userSpaceOnUse" x1="-819.2" x2="819.2" gradientTransform="matrix(0 -.002 .009 .001 98.4 88.25)" id="ah"><stop offset="0" stop-color="#8D3636"/><stop offset=".584" stop-color="#CC6F6F"/><stop offset="1" stop-color="#933131"/></linearGradient><linearGradient gradientUnits="userSpaceOnUse" x1="-819.2" x2="819.2" gradientTransform="matrix(0 .004 -.009 .001 98.05 91.05)" id="ai"><stop offset="0" stop-color="#8D3636"/><stop offset=".584" stop-color="#CC6F6F"/><stop offset="1" stop-color="#933131"/></linearGradient></defs><path fill="url(#a)" d="M80.9 356.05l-.1-.1q-3.35-3.4-6.9-8-7.15-9.25-8.05-15 1.35-1.5 3.65-3.45 4.7-3.9 9.75-6.2 16.15-7.4 29.95 4.1l-.1 1.95v.15l-.3 5.4v.05l-1.05 20.2q-2.6-.15-5.25-2.5-6.4-5.65-7.55-22.55l-.7 4.15q-.9 4.95-2.45 9.1-3.95 10.5-10.9 12.7"/><path fill="url(#b)" d="M80.9 356.05q6.95-2.2 10.9-12.7 1.55-4.15 2.45-9.1l.7-4.15q1.15 16.9 7.55 22.55 2.65 2.35 5.25 2.5l1.1-.05 1.7 3.6q-10.65-1.1-14.25-7.6-1.15-2.05-1.5-4.35l-.1-1.9-.3 1.85q-1.55 6.65-9.2 10.9-4.3 2.35-8.45 3.15l.45-4.2 3.45-.45.2-.05h.05"/><path fill="url(#c)" d="M110.55 358.7q5.45 13.5.75 34.35-2.65 11.85-6.9 20.85-2.3 5.5-1.75 18.75.3 6.65 1.05 12.15l.35 4.6q-1.95-3.15-5.35-4.75-6.4-2.95-13.3 4.15 1.1-7.8-.2-19.15l-2.1-12.8q-5.75-11.4-6.85-30.65-.7-12.4.5-25.4v-.05q4.15-.8 8.45-3.15 7.65-4.25 9.2-10.9l.4.05q.35 2.3 1.5 4.35 3.6 6.5 14.25 7.6"/><path fill="url(#d)" d="M109.1 329.35q3.6-5.5 9.7-9.1 12.1-7.15 24.35 2.55l1.65 1.3-.65 10.5q-.35 10.75 1.3 13.6-1.8.2-6.75-1.65-6-2.25-12.65-17.5l.15 3.35q.4 4.6.3 8.8-.4 12.85-5.45 17.2l-.1-.05q-5.1-3.4-9.1-13.7l-3-9.7-.05-.05.3-5.4v-.15"/><path fill="url(#e)" d="M145.45 348.2l.6-.2q2.15 1.7 4 4.15-10.75.1-16.5-5.2-1.8-1.7-2.85-3.7l-.75-1.65.35 1.75q1.2 8-3.65 14.25-2.7 3.4-5.75 5.1l-.3-3.95.4-.3.05-.05q5.05-4.35 5.45-17.2.1-4.2-.3-8.8l-.15-3.35q6.65 15.25 12.65 17.5 4.95 1.85 6.75 1.65"/><path fill="url(#f)" d="M150.05 352.15q5.6 7.4 8.35 21.55 1.85 9.4 1.9 17.4 5.3 22.15 16.15 40.45l1.85 1.85q-7.8-3.45-12.65 2.55-2.5 3.05-3.4 6.85l-1.2-1.7q-2.75-11.5-13.4-30.4l-10.15-16.65q-8.25-6.1-12.7-16.5-3-7-3.9-14.85 3.05-1.7 5.75-5.1 4.85-6.25 3.65-14.25l.4-.1q1.05 2 2.85 3.7 5.75 5.3 16.5 5.2"/><path fill="url(#g)" d="M178.3 433.4l2.1 2.1.35 1.5q-8-3.95-13.1 1.75-2.6 2.9-3.6 6.7l-1.8-2.65q.9-3.8 3.4-6.85 4.85-6 12.65-2.55"/><path fill="url(#h)" d="M180.75 437l.75 3.75q.95 4.75 6 8.45 2.15 1.55 4.35 3.6-8.6-5.6-15.1 1.4-3.3 3.5-4.85 8.1l-1.05-6.95.2-.1-6.85-9.6-.15-.2q1-3.8 3.6-6.7 5.1-5.7 13.1-1.75m-8.7 19.55l-1-1.3 1 1.3"/><path fill="url(#i)" d="M191.85 452.8l2.8 2.8q-8.85-5.5-16.1 2.55-3.85 4.3-5.75 9.8l-.9-5.55v-.1q1.55-4.6 4.85-8.1 6.5-7 15.1-1.4"/><path fill="url(#j)" d="M194.65 455.6l.85.85 2.4 2.7q2.65 3.1 3.6 6.95l5.85 19.8-17.55 2.15q-5.8.65-9.45-1.55-3.7-2.3-7-14.75l-.55-3.6v-.2q1.9-5.5 5.75-9.8 7.25-8.05 16.1-2.55"/><path fill="url(#k)" d="M104.05 449.4l.2 2.45q-6.7-5.95-13.8-3.1-2.25.9-4.3 2.6l-1.6 1.55.85-4.1q6.9-7.1 13.3-4.15 3.4 1.6 5.35 4.75"/><path fill="url(#l)" d="M104.25 451.85l.05.25.85 11.05 1.1 8.2q-9.95-6.6-19.2-2.65-2.9 1.25-5.4 3.4l-1.7 1.7q2.7-13.6 4.6-20.9l1.6-1.55q2.05-1.7 4.3-2.6 7.1-2.85 13.8 3.1"/><path fill="url(#m)" d="M106.25 471.35l1.3 6.55q-6.2-8.95-17.9-5.2-3.75 1.2-7.6 3.55l-3 2.1.8-4.2.05-.1.05-.25 1.7-1.7q2.5-2.15 5.4-3.4 9.25-3.95 19.2 2.65"/><path fill="url(#n)" d="M107.55 477.9l.85 3.75q1.6 8.3 1.15 12.4-.45 4.15-9.45 10.25l-11.55 7.15q-8.05-10.25-10.95-15.4-.9-1.6-1.1-3.05v-1.15L79 478.5l.05-.15 3-2.1q3.85-2.35 7.6-3.55 11.7-3.75 17.9 5.2"/><path fill="url(#o)" d="M114.2 57.75l-.55 5.8.05.4-.1.55q.75 5.75.55 14l-.05.2v.3l-.05 1.45-.4 2.4-.3 1.75q-1.05 2.85-3.35 6.6l-3.2 4.7-2.7 4.1-.5.55v.1l-.75.9-2.05 1.05q-4.35-.05-12.65-4.45l-7.4-4.45q-4.35-2.05-6.2-7.8l-.95-5.1.1-.2v-.05l-.1.25v.05l-.05-.15-.5-.05-1.5.2q-1.35.45-1.95-.5l-.35-1.05q-.2-2.3-.95-3.85-.45-.95-1.75-4.85l-1.15-3.65 1.35-1.75 1.1-.2h1.45l.9.2.3.25q.85.95 2.5 5.85l1 2.75q.3.6.15-1.3-.3-3.55-.15-11.5l.2-7.3.05.25 3.2 13.3 5.3-12q5.85-6.9 13.35-8.95 7.4-2.05 14.7 6.1l1.35 6.9q-.35.1-.95.6l-1.05.85-1.25.8-1.3.4q-.65.1-1 .35l-.85.85-.05.05-1.35 1.7 2.55-1.35h.05l.1.1.15.05q-1.6.75-2.85 1.55l-.4.3-.15.35-.05.05q-.2.3-.25.7l.55.45q.7.6 1.5.8l2.5.2v-.05h.2q.6-.2 1.2-.6l.05-.05q.65-.6.7-1.55v-.15l.3-.15.5-.5-.65-.35.25-.3.15-.3h-.35l.05-.55-.4.15H110l.05-.1v-.25h-.25q-.1 0-.25.15h-.3l.1-.35v-.05l-.1.05-.25.15-.15.05.05-.2-.1-.05-.1-.05-.5.1-.45.05.1-.05 1.45-.7q.25-.15.95-.55l.95-.55 1.1-.6.15-.1.1.7 1.35-4.4.3-.2v.75M74.05 52.5q-.5-2.65 1.05-6.9l.15-.3-.85 2.85q-.5 2.2-.35 4.3v.05m23.2 28.8q-.45.35-.45.95t.35 1.05q.2.35.75.25l.45-.25.8.05q.95.05 1.75-.4l1.65.6q1.6.1 2.15-1.25l.25-1v-.4l-2.2-6q-.45-1.75-.5-3.85-.05-4.15 2.1-5.9-2.15 1.75-2.1 5.9.05 2.1.5 3.85l2.2 6v.4l-.25 1q-.55 1.35-2.15 1.25l-1.65-.6q-.8.45-1.75.4l-.8-.05-.45.25q-.55.1-.75-.25-.35-.45-.35-1.05 0-.6.45-.95m11.6-17.7v.05h-.1l.1-.05m-1.3.35h.1l.2.05-.3-.05m3.25 3.2l.4.2-.5-.75q-.15.8-.85 1.45l-.15.1q-.8.65-1.55.55v.05h.5l.05.05.15.15v.2l.3-.2.3-.15.1.3.05.05.25-.55.35-.3.1.05.05.15.25-.6.2-.75m-15.3-.85l-1-1.1-.6-.45q-.45-.25-.5-.8l-.45.15-.25-.55-.3.1-.15.1h-.05v-.05l-.25-.3-.35.1-.35.25-.15-.15-.6.4-.4-.25-.3-.45-.35.4-.25.2-.5-.3-.1-.1-.45-.3-.25 1.15-.25-.05-.4-.3q.1.7-.45.65-.5-.2-.45.45l-.45-.5-.1-.15v.25l.1.4q-.2 1.05-.55 1l-.35-.25-.45-.35h-.05l-.05.05v.15l.05.15.45.55.45.3.7.8q1.15.95 2.3 1.45l1.8.25 1.4-.25-.9.35h.45l1.05-.35q1.7-.65 3.3-2.65m-1.05-5.05l-3.25-.1-2.25.05-1.95.05-2.4.55q-2.3.6-2.4 1.1l.2.05.2.1 1.25-.3 1.25-.4 1.85-.15H88.6l2.9.3 3.85.8h.05l.35-.15.7-.65q.05-1.05-2-1.25M90.6 64.4l.75-.1.85.25-1.6-.15m-5.25 3.55v.7l.55-.4-.1.6.6-.1-.05.5.25-.1.4.05-.05.45q.1-.15.3-.15l.25-.05.45.1.1.2.2.2.65-.25.25.2.15.2 1.1-.2-2.7-.9q-1.7-.5-2.7-1.6v.1l-.05.1-.05.4.05.15.3-.15.05-.05h.05m13 15.35q.4-.3 1.4-.45l1.1.1h.05-.05l-1.1-.1q-1 .15-1.4.45m6.5 4.8l.25-.1-2.2-.6q-.85.7-1.4.7l-.75-.15-.4-.1-2.1-.35-4.4.7-2.7 1.05.05.1 4.8 2q2.15.9 3.8.7 3.15.05 3.7-.8l.95-2 .4-1.15M70.5 65.45L69.3 65l1.2.45M73.55 80l.15.55-.15-.55"/><path fill="url(#p)" d="M113.7 63.95l.6 7.15.35.05 1.1-7.8h.05l.95 1.05.15 3.35-.9 2.45-.7 1.5.15.25.7 6.2-1 .75-.75-.5v.2l-.25-.1q.2-8.25-.55-14l.1-.55m.6 7.15v2.35l.35-2.3-.35 2.3V71.1"/><path fill="url(#q)" d="M116.05 112.15l2.25-.1.35 4.2.75 5.1-3.45-9.15.1-.05m-53.35 17.9q1.7 9.5 4.8 16.95 8.9 21.45 27.1 24.9l11.85.45 1.25-.15 3.8-.45q5.7-1.45 9.25-5.9 6.9-8.8 3.45-27.25 1.05 2.5 2.25 4.6l2.2 3.3 1.8 2.05.45.45q.3 14.9-8.25 22.1-4.45 3.75-9.6 4.8l-4.95.6q-9.5 1.1-18.6-.05-13-3.65-21.9-19.05-4.45-7.6-7.25-17.25l1.2-4.75 1.15-5.35"/><path fill="url(#r)" d="M60.35 140.15q2.8 9.65 7.25 17.25 8.9 15.4 21.9 19.05-12.9 9.8-25.65 3.95-4.75-2.2-8.95-6.35l-3.25-3.75q-1.95-2.2-2.8-5.2-.4-1.35-.5-2.85l.95-.9 2.2-2.5 2.75-4q3.55-6 6.1-14.7"/><path fill="url(#s)" d="M89.5 176.45q9.1 1.15 18.6.05l4.95-.6q6.3 3.05 13.25.65l.1.05-3.3 13.2q-3.3 13.65-3.3 15.7l.05.05q-1 4.5-7.4 3.15l-.8-.7q-2.15-1.75-4.65-2.25l-3.4-.15q-4.6.45-7.5 4l-.9 1.4q-9.2 1.9-18.35-.15l-9.45-2.3-3.4-1.5q-4.4-5.85-8.45-13.9-8.35-16.4-6.95-28l.25-.05q.85 3 2.8 5.2l3.25 3.75q4.2 4.15 8.95 6.35 12.75 5.85 25.65-3.95m34.7 38q1.35 3.75 1.35 6.65 0 6.7-2.25 16.45-1.35 5.95-3 9.6l-3.4-9.75-.2-.5-4.35-12.4.9-.95.9-1.3.2-.2.05-.05.4-.7 7.75-5.5 1.65-1.35m-64.05 2.25l.4-1.1 20.1 6.15q10 3.3 15.85 2.6l-6.4 42.95q-6.3-7-12.3-10.25-4.65-3.45-9.2-9.6-9.1-12.15-9.05-26.6v-.2l-.05-.7q0-1.2.65-3.25"/><path fill="url(#t)" d="M113.05 175.9q5.15-1.05 9.6-4.8 8.55-7.2 8.25-22.1l1.95 1.7.25.2.15.1.25.2.5.3 5-4.25.5.9q4.9 8.9 1.6 17.4-1.6 5.05-12.7 10.15l-2 .8-.1.05q-6.95 2.4-13.25-.65"/><path fill="url(#u)" d="M120.3 247.15q1.65-3.65 3-9.6 2.25-9.75 2.25-16.45l2.6 2.3.55.55q3.4 11.25 5.05 32.5l.5 7.2-5.2.4-2.65.45-6.1-17.35"/><path fill="url(#v)" d="M89.3 272.45q-11.9-7.6-27.45-8-2.6-.1-5.15.05-.9-9.6-.25-20.9.5-8.95 1.85-17.9l.95-4.6.3-.25q-.05 14.45 9.05 26.6 4.55 6.15 9.2 9.6 6 3.25 12.3 10.25l-.8 5.15"/><path fill="url(#w)" d="M112.45 208.7q6.4 1.35 7.4-3.15l.05-.2q3.45 4.2 4.5 8.85l-.2.25-1.65 1.35-7.75 5.5-.4.7q1.15-2.05 1.25-4.4l.05-.15-.05-1.95q-.4-4.05-3.2-6.8"/><path fill="url(#x)" d="M112.45 208.7q2.8 2.75 3.2 6.8l.05 1.95-.05.15q-.1 2.35-1.25 4.4l-.05.05-.2.2-.9 1.3-.9.95q-2.65 2.7-6.55 3.1-3.25.35-6-1l-2.1-1.45-.85-.75-.2-.2q-1.8-1.8-2.5-4.2l-.1-.2q-.25-1-.35-2.1-.4-3.75 1.5-6.7l.9-1.4q2.9-3.55 7.5-4l3.4.15q2.5.5 4.65 2.25l.8.7"/><path fill="url(#y)" d="M64 207.05l3.4 1.5 9.45 2.3Q86 212.9 95.2 211q-1.9 2.95-1.5 6.7.1 1.1.35 2.1l.1.2q.7 2.4 2.5 4.2l-.15.15q-5.85.7-15.85-2.6l-20.1-6.15-.55-.2q.25-5 3.8-8.45l.2.1"/><path fill="url(#z)" d="M112.35 224.5l4.35 12.4.2.5 3.4 9.75 6.1 17.35 1.8 5.25L109.85 287l-5.35-2.45h-.05l-15.9-7.05.75-5.05.8-5.15 6.4-42.95.15-.15.2.2.85.75 2.1 1.45q2.75 1.35 6 1 3.9-.4 6.55-3.1"/><path fill="url(#A)" d="M128.2 269.75l1 2.75-15.75 15.65-1.7 1.7-.4.4h-.1l-1.25 1.2L88.15 280l.4-2.5 15.9 7.05h.05l5.35 2.45 18.35-17.25"/><path fill="url(#B)" d="M43.3 118.75l-.15.15 17.6-2.95-.25 1-.15.7q-1.15 5.2-2.2 13.4l-.05.25-.05.55q-1.1 7.9-2.45 10.9l-1.75 4.2-.3.65-1.95 3.4-2.9 4.1-.05.15h-.05l-1.5 2-.1.15-.4.4-.65.7-.3.45-5.25-4-6.85-5.7-8.25-7.7-.8-.8-.85-.95v-2.45q.15-7.35 8.5-13.45 4.15-3.05 11.15-5.15"/><path fill="url(#C)" d="M60.75 115.95l3.45-.55.1.2.15.2V115.95l-.45 5.6-1.3 8.5-1.15 5.35-1.2 4.75q-2.55 8.7-6.1 14.7l-2.75 4-2.2 2.5-.95.9-2.05 1.65-.3.2-.2.15-.05.05-.3.2-.6.35L32.2 153.6q-5.25-4.95-8.55-8.6v-5.2l.85.95.8.8 8.25 7.7 6.85 5.7 5.25 4 .3-.45.65-.7.4-.4.1-.15 1.5-2h.05l.05-.15 2.9-4.1 1.95-3.4.3-.65 1.75-4.2q1.35-3 2.45-10.9l.05-.55.05-.25q1.05-8.2 2.2-13.4l.15-.7.25-1m-14.7 43.3l-.4-.3.4.3"/><path fill="url(#D)" d="M121.35 111.8l7.7-.35-.45-.5q8.6.35 12.75 5.85 5.7 7.65 6.7 18.15l-5 4.35-5.5 4.35-.45.35-3.75 2.75-.25-.4-.5-.55-.3-.3-.1-.2-1.2-1.6-.1-.1-.45-.7-1.85-2.7q-.75-1.05-1.55-2.75l-.25-.55-1.45-3.4q-1.1-2.55-2-9.3l-1.45-9.35-.35-1.65-.15-1.25-.05-.15"/><path fill="url(#E)" d="M118.3 112.05l2.7-.25h.1l.3.15.15 1.25.35 1.65 1.45 9.35q.9 6.75 2 9.3l1.45 3.4.25.55q.8 1.7 1.55 2.75l1.85 2.7.45.7.1.1 1.2 1.6.1.2.3.3.5.55.25.4 3.75-2.75.45-.35 5.5-4.35 5-4.35v4.3l-3.9 3.6-5.15 4.4-5 4.25-.5-.3-.25-.2-.15-.1-.25-.2-1.95-1.7-.45-.45-1.8-2.05-2.2-3.3q-1.2-2.1-2.25-4.6-2.1-4.85-3.6-11.25l-1.2-6-.75-5.1-.35-4.2m14.7 34.9l.35-.2-.35.2"/><path fill="url(#F)" d="M128.7 223.95q-1.9-6.2-4.35-9.35l5.25 4.45q5 5.9 8.8 14.9 10.7 25.15 8.95 65.4-.8-8.85-6.65-12.85-1.85-1.25-3.95-1.9l-1.65-.3q-.15-10-.85-20.65l-.5-7.2q-1.65-21.25-5.05-32.5"/><path fill="url(#G)" d="M147.35 299.35l-.8 12q0-5.4-1.4-11-2.85-11.2-10-12.2l-.05-3.85 1.65.3q2.1.65 3.95 1.9 5.85 4 6.65 12.85"/><path fill="url(#H)" d="M56.7 264.5q1.05 12.25 4.55 21.8l-2.2 2.55q-2.3 3.2-3.9 6.4-4.9 9.85-1.6 16.85-8.4-16.5-12.7-42.15-5.2-31.15 19.55-54.35l-.25 1.1q-.65 2.05-.65 3.25l-.25 1.15-.95 4.6q-1.35 8.95-1.85 17.9-.65 11.3.25 20.9"/><path fill="url(#I)" d="M61.25 286.3l1.55 3.8-1.85 2.25q-2.2 2.85-3.6 6.1-4.55 10.3-.1 20.25-1.75-2.8-3.35-5.9l-.25-.45-.1-.25q-3.3-7 1.6-16.85 1.6-3.2 3.9-6.4l2.2-2.55"/><path fill="url(#J)" d="M157.95 188.15q2.25.4 4.5 1.35l.9 5.25q-7.45-7.15-17.95 2.6-5.4 4.95-9.25 11.5l-1.35-4.2q.55-2.5 1.55-4.65 1.95-4.2 5.35-6.9 8-6.35 16.25-4.95"/><path fill="url(#K)" d="M157.95 188.15q-8.25-1.4-16.25 4.95-3.4 2.7-5.35 6.9-.65-.85-1.1-4.85l-.3-3.9q3.1-2.9 6.75-5.65 7.4-5.5 10.5-4.8l2.35 1.15q2.55 1.95 3.4 6.2"/><path fill="url(#L)" d="M155.65 213.15l-4.5.85-1.1-4.45 4.8-1.3-1.3-5.65 4.8-.75 1.2 5.85 5.2-.9.9 4.25-5.4.95 3.9 18.8-2.45.55q-2.5.25-2.6-.7l-3.45-17.5"/><path fill="url(#M)" d="M155.65 213.15l3.45 17.5q.1.95 2.6.7l2.45-.55-3.9-18.8 5.4-.95-.9-4.25-5.2.9-1.2-5.85-4.8.75 1.3 5.65-4.8 1.3 1.1 4.45 4.5-.85m7.7-18.4l3.3 19.5q3.2 19.75 3.95 29.45-6.2-5.25-12-1.2-2.9 2.05-4.55 5.1l-7.2-14.25q-7.7-15.8-10.7-24.5 3.85-6.55 9.25-11.5 10.5-9.75 17.95-2.6"/><path fill="url(#N)" d="M170.6 243.7l.25 5.05-.25-.05-.4-.3q-3.15-2.35-6.4-2.1-7.15.45-7 6.3l-.05.05-2.6-4.9-.1-.15q1.65-3.05 4.55-5.1 5.8-4.05 12 1.2"/><path fill="url(#O)" d="M170.6 248.7l2.1 2.7q2.8 3.9 4.65 7.4 6 11.3.2 14.9-1.9-2.3-4.8-4.15-5.75-3.65-10.6-1.25l-.8-3.85v5.8q-1.15-1.45-2.7-2.4-3.05-1.95-5 .45-1.05-1.9-1.55-4.25-1-4.6 1.9-6.55l1.9-1.9q1.75-2.05.9-3-.15-5.85 7-6.3 3.25-.25 6.4 2.1l.4.3"/><path fill="url(#P)" d="M15.1 204.35q.9-2.3 2.1-4.7 2.35-4.8 3.7-5.45l8.65 1q8.8 1.65 9.6 4.75.3 7.65-.5 9.35-2.75-5.5-10.3-5.75l-13.25.8"/><path fill="url(#Q)" d="M15.1 204.35l13.25-.8q7.55.25 10.3 5.75.7 1.4 1.1 3.15.75 3.15.25 7.7-1.55-11.3-15.4-11.65-7.15-.2-14.15 2.05 1.25-3.65 2.75-5.8l1.9-.4"/><path fill="url(#R)" d="M40 220.15l-.1.95q-1 7.4-5.05 18.2-5.3 14.2-10.15 23.65-4.8-4.45-12.05-3.9-3.6.3-6.3 1.45-.25-9.7.05-19.4.6-20.45 4.05-30.55 7-2.25 14.15-2.05 13.85.35 15.4 11.65m-27.35 1.5l-.4 4.55 4.5.65-2.55 17.7q-.15.95 2.25 1.55l2.5.35 2.55-19.15 5.45.95.5-4.35-5.2-.85.8-5.95-4.75-.9-.65 5.8-5-.35"/><path fill="url(#S)" d="M12.65 221.65l5 .35.65-5.8 4.75.9-.8 5.95 5.2.85-.5 4.35-5.45-.95-2.55 19.15-2.5-.35q-2.4-.6-2.25-1.55l2.55-17.7-4.5-.65.4-4.55"/><path fill="url(#T)" d="M22.05 267.9l6.05 6.65q2.3 2.8 2.3 4.85l-3.35-.95q-4.8-3-6.05.4-.6 1.65-.25 3.95-7.55-2.7-9.35 4.9-.9 3.8-.3 8.1-10.85-1.5-8.75-15.25.65-4.3 2.5-9.3l1.75-4.15q3.05-4.65 8.7-3.1 4.7 1.25 6.2 3.25l.35.6.1.2.1-.15"/><path fill="url(#U)" d="M22.05 267.9l-.2-.05-.35-.6q-1.5-2-6.2-3.25-5.65-1.55-8.7 3.1l-.25-6.4v-.2q2.7-1.15 6.3-1.45 7.25-.55 12.05 3.9l-2.65 4.95"/><path fill="url(#V)" d="M95.25 30.4v-.05l3.5-.65q4.35-.3 8 1.7 11.85 6.4 12.8 33l.4 3.1 1.95 19.35q2.65 19.1 6.7 24.1l.45.5-7.7.35H121l-2.7.25-2.25.1q-5.95.05-10.8-1.55-1.95-3.55-1.65-9.95v-.1l.5-.55 4.4-6q3.8-5.7 4.85-9.4l.3-1.75.4-2.4.35-1.85v-.2l.75.5 1-.75-.7-6.2-.05-.25.6-1.5.9-2.45-.15-3.35-.95-1.05-.05-.05v.05l-1.1 7.8-.35-.05-.6-7.15-.05-.4.55-5.8.1-.8.55-.35q.35-2.85-.2-6.3l-.7-3.65-.05-.2v-.1q.15-3.05-2.25-6.05l-2.4-2.4-.1-.1q-3.35-4.3-7.65-5.5l-1.15-.4-4.7-1.55-.4.05"/><path fill="url(#W)" d="M95.25 30.4l.4-.05 4.7 1.55 1.15.4-9.55.25q-1.95.5-4 1.45l-.65.3q1.6-.95 2.95-1.65l1.65-.8q2.45-1.2 3.35-1.45m18.65 16.05l.05.2.7 3.65q.55 3.45.2 6.3l-.55.35-.1.05-.3.2-1.35 4.4-.1-.7.4-.65q0-.75-.45-.8l-.25.1-1.35-6.9q-7.3-8.15-14.7-6.1-7.5 2.05-13.35 8.95l-5.3 12-3.2-13.3-.05-.25-.15-1.15v-.35l4-4.05q5.05-4.55 10.05-7.2 14.9-7.9 24.45 3.5l1.35 1.7v.05m.05.2l-.05-.25.05.25"/><path fill="url(#X)" d="M95.2 30.35l.05.05q-.9.25-3.35 1.45l-1.65.8q-1.35.7-2.95 1.65-3.05 1.45-6 3.7l-1.35 1-3.2 2.75q-.7 1.1-1.5 3.55l-.15.3q-1.55 4.25-1.05 6.9v.3l.15 1.15-.2 7.3q-.15 7.95.15 11.5.15 1.9-.15 1.3l-1-2.75q-1.65-4.9-2.5-5.85l-.3-.25-.9-.2h-1.45l-1.1.2-1.35 1.75 1.15 3.65q1.3 3.9 1.75 4.85.75 1.55.95 3.85l.35 1.05q.6.95 1.95.5l1.5-.2.5.05.05.15q.4 2 .35 4.05 1.2 4 2.05 4.85.4.4.5 1.95l-2.45 20.15-9.1 3.4-.75.15-3.45.55-17.6 2.95.15-.15q5.35-6.15 12.85-38.05 3.8-16.2 6.5-31.2 2.25-6.75 7.45-12.55 10.4-11.55 25.05-6.6h.05"/><path fill="url(#Y)" d="M109.15 37.8l.1.1.25.3.6.8 2.05 2.85q.95 1.4 1.75 4.5v.1-.05l-1.35-1.7Q103 33.3 88.1 41.2q-5 2.65-10.05 7.2l-4 4.05q-.15-2.1.35-4.3l.85-2.85q.8-2.45 1.5-3.55l3.2-2.75 1.35-1 1.95-1.25 4.05-2.45.65-.3q2.05-.95 4-1.45l9.55-.25q3.3 1.25 4.8 2.65l2.45 2.4.4.45m4.75 8.6v-.05.05"/><path fill="url(#Z)" d="M101.5 32.3q4.3 1.2 7.65 5.5l-.4-.45-2.45-2.4q-1.5-1.4-4.8-2.65M81.3 38q2.95-2.25 6-3.7l-4.05 2.45L81.3 38M34.4 83.05q-.15-.5.3-.25l-.15.6-.15-.35"/><path fill="url(#aa)" d="M114.85 56.6l-.55.35.55-.35"/><path fill="#630" d="M112.45 60.9l-.15.1-1.1.6-.95.55q-.7.4-.95.55l-1.45.7-.1.05.45-.05.5-.1.1.05.1.05-.05.2.15-.05.25-.15.1-.05v.05l-.1.35h.3q.15-.15.25-.15h.25v.25l-.05.1h.05l.4-.15-.05.55h.35l-.15.3-.25.3.65.35-.5.5-.3.15q-.05-.75-.6-1.35-.55-.5-1.2-.55h-.05l-.1-.05-.3-.05h-.4l-.1-.15h-.05l-.2.15-.15-.05-.1-.1h-.05l-2.55 1.35 1.35-1.7.05-.05.85-.85q.35-.25 1-.35l1.3-.4 1.25-.8 1.05-.85q.6-.5.95-.6l.25-.1q.45.05.45.8l-.4.65m-3.6 2.7l-.1.05h.1v-.05m1.95 3.55l-.2.75-.25.6-.05-.15-.1-.05-.35.3-.25.55-.05-.05-.1-.3-.3.15-.3.2v-.2l-.15-.15-.05-.05h-.5v-.05q.75.1 1.55-.55l.15-.1q.7-.65.85-1.45l.5.75-.4-.2m-16.35-5.9q2.05.2 2 1.25l-.7.65-.35.15h-.05l-3.85-.8-2.9-.3H86.95l-1.85.15-1.25.4-1.25.3-.2-.1-.2-.05q.1-.5 2.4-1.1l2.4-.55 1.95-.05 2.25-.05 3.25.1M85.4 66.7l-.45-.3-.45-.55-.05-.15v-.15l.05-.05h.05l.45.35.35.25q.35.05.55-1l-.1-.4v-.25l.1.15.45.5q-.05-.65.45-.45.55.05.45-.65l.4.3.25.05.25-1.15.45.3.1.1.5.3.25-.2.35-.4.3.45.4.25.6-.4.15.15.35-.25.35-.1.25.3v.05h.05l.15-.1.3-.1.25.55.45-.15q.05.55.5.8l.6.45 1 1.1q-1.7-1.35-3.3-1.75l-.85-.25-.75.1q-1.15-.1-2.4.35-1.15.45-2.1 1.15l-.8.65.1.15m-.05 1.25h-.05l-.05.05-.3.15-.05-.15.05-.4.05-.1v-.1q1 1.1 2.7 1.6l2.7.9-1.1.2-.15-.2-.25-.2-.65.25-.2-.2-.1-.2-.45-.1-.25.05q-.2 0-.3.15l.05-.45-.4-.05-.25.1.05-.5-.6.1.1-.6-.55.4v-.7"/><path fill="url(#ab)" d="M108.05 68.3v.05l-2.5-.2q-.8-.2-1.5-.8l-.55-.45q.05-.4.25-.7l.05-.05.15-.35.4-.3q1.25-.8 2.85-1.55l.2-.15h.05l.1.15.3.05q-.7.05-1.25.55-.7.65-.7 1.5-.05.9.6 1.55.6.65 1.55.7"/><path fill="url(#ac)" d="M107.65 63.95h.3l.3.05h-.4l-.2-.05"/><path fill="url(#ad)" d="M110.2 65.95v.15q-.05.95-.7 1.55l-.05.05q-.6.4-1.2.6h-.2q-.95-.05-1.55-.7-.65-.65-.6-1.55 0-.85.7-1.5.55-.5 1.25-.55h.4l.1.05h.05q.65.05 1.2.55.55.6.6 1.35m-1.5 1.1l.05.1.1.05.35.15.3-.15.15-.35-.05-.3v-.05l-.25-.1.05-.45-.05-.45-.3-.4q-.35-.35-.8-.35-.5 0-.85.25-.35.35-.35.9 0 .5.3.8.35.45.85.45l.5-.1"/><path d="M108.7 67.05l-.5.1q-.5 0-.85-.45-.3-.3-.3-.8 0-.55.35-.9.35-.25.85-.25.45 0 .8.35l.3.4.05.45-.05.45h-.1l-.35.1-.25.35.05.2m-16.95.7l-.7.15q-.55-.05-.95-.5-.35-.45-.3-1 .1-.5.5-.8.45-.35 1-.3.5.05.8.5.4.4.3.9l-.15.6q-.25-.05-.35.15l-.15.3"/><path fill="#fff" d="M91.75 67.75l.15-.3q.1-.2.35-.15l.3.2.15.35-.25.3-.35.05-.3-.1-.05-.35m16.95-.7l-.05-.2.25-.35.35-.1h.1l.25.1v.05l.05.3-.15.35-.3.15-.35-.15-.1-.05-.05-.1"/><path fill="url(#ae)" d="M92.2 68.95l-1.05.35h-.45l.9-.35-1.4.25-1.2-.9q-.55-.75-.45-1.8.1-1.05.9-1.7.6-.35 1.15-.4l1.6.15.8.7q.65.8.55 1.85-.1 1.05-1 1.6l-.35.25m.05-1.65l.15-.6q.1-.5-.3-.9-.3-.45-.8-.5-.55-.05-1 .3-.4.3-.5.8-.05.55.3 1 .4.45.95.5l.7-.15.05.35.3.1.35-.05.25-.3-.15-.35-.3-.2"/><path fill="url(#af)" d="M90.2 69.2l-1.8-.25q-1.15-.5-2.3-1.45l-.7-.8-.1-.15.8-.65q.95-.7 2.1-1.15 1.25-.45 2.4-.35-.55.05-1.15.4-.8.65-.9 1.7-.1 1.05.45 1.8l1.2.9"/><path fill="url(#ag)" d="M95.5 66.3q-1.6 2-3.3 2.65l.35-.25q.9-.55 1-1.6.1-1.05-.55-1.85l-.8-.7q1.6.4 3.3 1.75"/><path fill="url(#ah)" d="M91.15 89.25l2.7-1.05 4.4-.7 2.1.35.4.1.75.15q.55 0 1.4-.7l2.2.6-.25.1-2.05.4-1.45.6-2.1-.05-1.1-.3-4.6.1-2.4.4"/><path fill="url(#ai)" d="M91.15 89.25l2.4-.4 4.6-.1 1.1.3 2.1.05 1.45-.6 2.05-.4-.4 1.15-.95 2q-.55.85-3.7.8-1.65.2-3.8-.7l-4.8-2-.05-.1"/><path fill="none" stroke="#040404" stroke-width=".05" stroke-linecap="round" stroke-linejoin="round" d="M80.9 356.05l-.1-.1q-3.35-3.4-6.9-8-7.15-9.25-8.05-15 1.35-1.5 3.65-3.45 4.7-3.9 9.75-6.2 16.15-7.4 29.95 4.1m-.1 1.95q3.6-5.5 9.7-9.1 12.1-7.15 24.35 2.55l1.65 1.3-.65 10.5q-.35 10.75 1.3 13.6m-24.4 10.2l-.1-.05q-5.1-3.4-9.1-13.7l-3-9.7m-.05 0l-1.05 20.2m1.35-25.65l-.3 5.4"/><path fill="none" stroke="#666" stroke-width=".05" stroke-linecap="round" stroke-linejoin="round" d="M108.8 334.9v.05m49.15-146.8q2.25.4 4.5 1.35l.9 5.25 3.3 19.5q3.2 19.75 3.95 29.45l.25 5.05v.15l-.25-.2 2.1 2.7q2.8 3.9 4.65 7.4 6 11.3.2 14.9-1.9-2.3-4.8-4.15-5.75-3.65-10.6-1.25l-.8-3.85v5.8q-1.15-1.45-2.7-2.4-3.05-1.95-5 .45-1.05-1.9-1.55-4.25-1-4.6 1.9-6.55l1.9-1.9q1.75-2.05.9-3v.2l-.05-.15-2.6-4.9-.1-.15-7.2-14.25q-7.7-15.8-10.7-24.5l-1.35-4.2q.55-2.5 1.55-4.65m21.6-11.85q-8.25-1.4-16.25 4.95-3.4 2.7-5.35 6.9M64.2 115.4l.1.2.15.2V115.95l-.45 5.6-1.3 8.5q1.7 9.5 4.8 16.95 8.9 21.45 27.1 24.9l11.85.45 1.25-.15 3.8-.45q5.7-1.45 9.25-5.9 6.9-8.8 3.45-27.25-2.1-4.85-3.6-11.25l-1.2-6-3.45-9.15m-55.2 3.75l-.25 1-.15.7q-1.15 5.2-2.2 13.4l-.05.25-.05.55q-1.1 7.9-2.45 10.9l-1.75 4.2-.3.65-1.95 3.4-2.9 4.1-.05.15h-.05l-1.5 2-.1.15-.4.4-.65.7-.3.45.4.3m16.65-29.2l-1.15 5.35-1.2 4.75q-2.55 8.7-6.1 14.7l-2.75 4-2.2 2.5-.95.9-2.05 1.65-.3.2-.2.15-.05.05-.3.2-.6.35L32.2 153.6q-5.25-4.95-8.55-8.6v-5.2l.85.95.8.8 8.25 7.7 6.85 5.7 5.25 4M130.9 149l-.45-.45-1.8-2.05-2.2-3.3q-1.2-2.1-2.25-4.6m-100.55 1.2v-2.45q.15-7.35 8.5-13.45 4.15-3.05 11.15-5.15m-4.65 90.55q.7 1.4 1.1 3.15.75 3.15.25 7.7l-.1.95q-1 7.4-5.05 18.2-5.3 14.2-10.15 23.65l-2.65 4.95 6.05 6.65q2.3 2.8 2.3 4.85l-3.35-.95q-4.8-3-6.05.4-.6 1.65-.25 3.95-7.55-2.7-9.35 4.9-.9 3.8-.3 8.1-10.85-1.5-8.75-15.25.65-4.3 2.5-9.3l1.75-4.15-.25-6.4v-.2q-.25-9.7.05-19.4.6-20.45 4.05-30.55 1.25-3.65 2.75-5.8l1.9-.4 13.25-.8q7.55.25 10.3 5.75M64 207.05l3.4 1.5 9.45 2.3Q86 212.9 95.2 211l.9-1.4q2.9-3.55 7.5-4l3.4.15q2.5.5 4.65 2.25l.8.7q6.4 1.35 7.4-3.15m28.2-70.6q-1-10.5-6.7-18.15-4.15-5.5-12.75-5.85m-7.2 1l.15 1.25.35 1.65 1.45 9.35q.9 6.75 2 9.3l1.45 3.4.25.55q.8 1.7 1.55 2.75l1.85 2.7.45.7.1.1 1.2 1.6.1.2.3.3.5.55.25.4 3.75-2.75.45-.35 5.5-4.35 5-4.35v4.3l-3.9 3.6-5.15 4.4-5 4.25-.5-.3-.25-.2-.15-.1-.25-.2-1.95-1.7m2.45-2.25l-.35.2m-11.65-35.15l.05.15-.3-.15m-1.7 9.55l-.75-5.1-.35-4.2m37.35 101.1l3.45 17.5q.1.95 2.6.7l2.45-.55-3.9-18.8 5.4-.95-.9-4.25-5.2.9-1.2-5.85-4.8.75 1.3 5.65-4.8 1.3 1.1 4.45 4.5-.85m-31.45 1.3l-1.65 1.35-7.75 5.5m-.4.7l-.05.05-.2.2-.9 1.3-.9.95 4.35 12.4.2.5 3.4 9.75m8.4-23.2q-1.9-6.2-4.35-9.35l5.25 4.45q5 5.9 8.8 14.9 10.7 25.15 8.95 65.4l-.8 12q0-5.4-1.4-11-2.85-11.2-10-12.2l-.05-3.85q-.15-10-.85-20.65l-.5-7.2q-1.65-21.25-5.05-32.5m-2.3 40.55l1.8 5.25 1 2.75-15.75 15.65-1.7 1.7-.4.4h-.1l-1.25 1.2L88.15 280l.4-2.5.75-5.05m-32.6-7.95q1.05 12.25 4.55 21.8l1.55 3.8-1.85 2.25q-2.2 2.85-3.6 6.1-4.55 10.3-.1 20.25-1.75-2.8-3.35-5.9l-.25-.45-.1-.25q-8.4-16.5-12.7-42.15-5.2-31.15 19.55-54.35l-.25 1.1q-.65 2.05-.65 3.25l-.25 1.15-.95 4.6q-1.35 8.95-1.85 17.9-.65 11.3.25 20.9m3.85-48.9l-.55-.2q.25-5 3.8-8.45l.2.1m60.2 7.4l.2-.25q-1.05-4.65-4.5-8.85l-.05.2m-7.4 3.15q2.8 2.75 3.2 6.8l.05 1.95-.05.15q-.1 2.35-1.25 4.4m-19.2-11q-1.9 2.95-1.5 6.7.1 1.1.35 2.1l.1.2q.7 2.4 2.5 4.2l.2.2.85.75 2.1 1.45q2.75 1.35 6 1 3.9-.4 6.55-3.1m-15.7-.3l-.15.15-6.4 42.95-.8 5.15m-.75 5.05l15.9 7.05h.05l5.35 2.45 18.35-17.25m28.6-17.15q-.15-5.85 7-6.3 3.25-.25 6.4 2.1l.4.3m-23.25 50.65q-.8-8.85-6.65-12.85-1.85-1.25-3.95-1.9l-1.65-.3m18.95-36.7q1.65-3.05 4.55-5.1 5.8-4.05 12 1.2m-44.2 20.8l-6.1-17.35M60.55 215.6l20.1 6.15q10 3.3 15.85 2.6m-86.05-13.8q7-2.25 14.15-2.05 13.85.35 15.4 11.65m-27.35 1.5l-.4 4.55 4.5.65-2.55 17.7q-.15.95 2.25 1.55l2.5.35 2.55-19.15 5.45.95.5-4.35-5.2-.85.8-5.95-4.75-.9-.65 5.8-5-.35m9.2 46.2l-.35-.6q-1.5-2-6.2-3.25-5.65-1.55-8.7 3.1m15.25.75l.1.2.1-.15-.2-.05m-15.5-7.35q2.7-1.15 6.3-1.45 7.25-.55 12.05 3.9m36.55 23.35l-2.2 2.55q-2.3 3.2-3.9 6.4-4.9 9.85-1.6 16.85m55.65 15.3l-.1 1.95v.15m36.35 18.7l.6-.2q2.15 1.7 4 4.15 5.6 7.4 8.35 21.55 1.85 9.4 1.9 17.4 5.3 22.15 16.15 40.45l1.85 1.85 2.1 2.1.35 1.5.75 3.75q.95 4.75 6 8.45 2.15 1.55 4.35 3.6l2.8 2.8.85.85 2.4 2.7q2.65 3.1 3.6 6.95l5.85 19.8-17.55 2.15q-5.8.65-9.45-1.55-3.7-2.3-7-14.75l-.55-3.6v-.2l-.9-5.55v-.1l-1.05-6.95-5.35-5.65-4.45-8.6q-2.75-11.5-13.4-30.4l-10.15-16.65q-8.25-6.1-12.7-16.5-3-7-3.9-14.85l-.3-3.95.4-.3.05-.05q5.05-4.35 5.45-17.2.1-4.2-.3-8.8l-.15-3.35q6.65 15.25 12.65 17.5 4.95 1.85 6.75 1.65m-36.6-13.25l-.05-.05m-1.05 20.25l1.1-.05 1.7 3.6q5.45 13.5.75 34.35-2.65 11.85-6.9 20.85-2.3 5.5-1.75 18.75.3 6.65 1.05 12.15l.35 4.6.2 2.45.05.25.85 11.05 1.1 8.2 1.3 6.55.85 3.75q1.6 8.3 1.15 12.4-.45 4.15-9.45 10.25l-11.55 7.15q-8.05-10.25-10.95-15.4-.9-1.6-1.1-3.05v-1.15L79 478.5l.05-.15.8-4.2.05-.1.05-.25q2.7-13.6 4.6-20.9l.85-4.1-.85.85m-3.65-93.6h-.05l-.2.05-3.45.45-.45 4.2q4.15-.8 8.45-3.15 7.65-4.25 9.2-10.9l.3-1.85.1 1.9q.35 2.3 1.5 4.35 3.6 6.5 14.25 7.6m-33.8 2.05v.05q-1.2 13-.5 25.4 1.1 19.25 6.85 30.65l2.1 12.8q1.3 11.35.2 19.15 6.9-7.1 13.3-4.15 3.4 1.6 5.35 4.75m26.65-106.15l-.75-1.65.35 1.75q1.2 8-3.65 14.25-2.7 3.4-5.75 5.1m9.8-19.45q1.05 2 2.85 3.7 5.75 5.3 16.5 5.2m-42.3 3q-2.6-.15-5.25-2.5-6.4-5.65-7.55-22.55l-.7 4.15q-.9 4.95-2.45 9.1-3.95 10.5-10.9 12.7m82.45-161.3q-7.45-7.15-17.95 2.6-5.4 4.95-9.25 11.5M178.3 433.4q-7.8-3.45-12.65 2.55-2.5 3.05-3.4 6.85l1.8 2.65q1-3.8 3.6-6.7 5.1-5.7 13.1-1.75m-9.7 18.25l-6.85-9.6-.15-.2m7 9.8l1 1.3m22.6-.95q-8.85-5.5-16.1 2.55-3.85 4.3-5.75 9.8m19.05-15.15q-8.6-5.6-15.1 1.4-3.3 3.5-4.85 8.1m-67.65-10.45q-6.7-5.95-13.8-3.1-2.25.9-4.3 2.6l-1.6 1.55m-5.5 25.45l3-2.1q3.85-2.35 7.6-3.55 11.7-3.75 17.9 5.2m-1.3-6.55q-9.95-6.6-19.2-2.65-2.9 1.25-5.4 3.4l-1.7 1.7m82.3-31l-1.2-1.7"/><path fill="none" stroke="#8E5027" stroke-width=".05" stroke-linecap="round" stroke-linejoin="round" d="M114.2 57.75V57m-9.85 8.15q-2.15 1.75-2.1 5.9.05 2.1.5 3.85l2.2 6v.4l-.25 1q-.55 1.35-2.15 1.25l-1.65-.6q-.8.45-1.75.4l-.8-.05-.45.25q-.55.1-.75-.25-.35-.45-.35-1.05 0-.6.45-.95m18.55-17.95h-.05m-2.05.6l-.1.55q.75 5.75.55 14l.25.1m1.05-6.65l-.15-.25.7-1.5m-15.1 12.75h-.05l-1.1-.1q-1 .15-1.4.45m6.5 4.8l.25-.1-2.2-.6q-.85.7-1.4.7l-.75-.15-.4-.1-2.1-.35-4.4.7-2.7 1.05 2.4-.4 4.6-.1 1.1.3 2.1.05 1.45-.6 2.05-.4-.4 1.15-.95 2q-.55.85-3.7.8-1.65.2-3.8-.7l-4.8-2m22.85-8.9l.05-1.45v-.3l.05-.2M104.1 100l2.7-4.1 3.2-4.7q2.3-3.75 3.35-6.6M69.3 65l1.2.45m3.1 15.4v-.05l.1-.25-.15-.55m.15.55v.05l-.1.2.95 5.1q1.85 5.75 6.2 7.8l7.4 4.45q8.3 4.4 12.65 4.45l2.05-1.05.75-.9"/><path fill="none" stroke="#150C0B" stroke-width=".05" stroke-linecap="round" stroke-linejoin="round" d="M115.95 112.2l.1-.05m-55.7 28q2.8 9.65 7.25 17.25 8.9 15.4 21.9 19.05 9.1 1.15 18.6.05l4.95-.6q5.15-1.05 9.6-4.8 8.55-7.2 8.25-22.1m-82.55 13.25q.1 1.5.5 2.85.85 3 2.8 5.2l3.25 3.75q4.2 4.15 8.95 6.35 12.75 5.85 25.65-3.95m-40.9-11.3q-1.4 11.6 6.95 28 4.05 8.05 8.45 13.9m55.85-1.5l-.05-.05q0-2.05 3.3-15.7l3.3-13.2m-.1-.05q-6.95 2.4-13.25-.65M139 147.25l.5.9q4.9 8.9 1.6 17.4-1.6 5.05-12.7 10.15l-2 .8v.1m-.1-.05l.1-.05m-.85 44.6q0-2.9-1.35-6.65m-3.9 32.7q1.65-3.65 3-9.6 2.25-9.75 2.25-16.45l2.6 2.3.55.55m5.55 39.7l-5.2.4-2.65.45m-37.1 7.95q-11.9-7.6-27.45-8-2.6-.1-5.15.05m3.45-47.8l.4-1.1m-1.05 4.35l.05.7v.2q-.05 14.45 9.05 26.6 4.55 6.15 9.2 9.6 6 3.25 12.3 10.25m-30.85-46.2l.3-.25"/><path fill="none" stroke="#0A0A0A" stroke-width=".05" stroke-linecap="round" stroke-linejoin="round" d="M136.35 200q-.65-.85-1.1-4.85l-.3-3.9q3.1-2.9 6.75-5.65 7.4-5.5 10.5-4.8l2.35 1.15q2.55 1.95 3.4 6.2"/><path fill="none" stroke="#0B0B0B" stroke-width=".05" stroke-linecap="round" stroke-linejoin="round" d="M15.1 204.35q.9-2.3 2.1-4.7 2.35-4.8 3.7-5.45l8.65 1q8.8 1.65 9.6 4.75.3 7.65-.5 9.35"/><path fill="none" stroke="#552117" stroke-width=".05" stroke-linecap="round" stroke-linejoin="round" d="M101.5 32.3q4.3 1.2 7.65 5.5l.1.1 2.4 2.4q2.4 3 2.25 6.05v.1m.4 10.5l-.1.8-.55 5.8.05.4.6 7.15m.35.05l1.1-7.8v-.05l.05.05.95 1.05.15 3.35-.9 2.45-.6 1.5.05.25.7 6.2-1 .75-.75-.5m5.55-10.9l-.4-3.1q-.95-26.6-12.8-33-3.65-2-8-1.7l-3.5.65h-.1Q80.5 25.4 70.1 36.95q-5.2 5.8-7.45 12.55M87.3 34.3l.65-.3q2.05-.95 4-1.45l9.55-.25m-25 59.4q-.1-1.55-.5-1.95-.85-.85-2.05-4.85.05-2.05-.35-4.05l-.05-.15-.5-.05-1.5.2q-1.35.45-1.95-.5l-.35-1.05q-.2-2.3-.95-3.85-.45-.95-1.75-4.85l-1.15-3.65 1.35-1.75 1.1-.2h1.45l.9.2.3.25q.85.95 2.5 5.85l1 2.75q.3.6.15-1.3-.3-3.55-.15-11.5l.2-7.3.05.25 3.2 13.3 5.3-12q5.85-6.9 13.35-8.95 7.4-2.05 14.7 6.1l1.35 6.9m-38.1-7.05q-.5-2.65 1.05-6.9l.15-.3q.8-2.45 1.5-3.55l3.2-2.75 1.35-1q2.95-2.25 6-3.7m26.6 12.1l.05.25m-.05-.25l-1.35-1.7Q103 33.3 88.1 41.2q-5 2.65-10.05 7.2l-4 4.05m39.85 4.75l-1.35 4.4-.1-.7m1.85-3.95l.55-.35m-.2 14.55l-.35 2.3V71.1"/><path fill="none" stroke="#7E585A" stroke-width=".05" stroke-linecap="round" stroke-linejoin="round" d="M114.4 78.4v.2l-.35 1.85-.4 2.4-.3 1.75q-1.05 3.7-4.85 9.4l-4.4 6-.5.55v.1q-.3 6.4 1.65 9.95 4.85 1.6 10.8 1.55l2.25-.1 2.7-.25h.35l7.7-.35-.45-.5q-4.05-5-6.7-24.1l-1.95-19.35"/><path fill="none" stroke="#77411A" stroke-width=".05" stroke-linecap="round" stroke-linejoin="round" d="M62.65 49.5q-2.7 15-6.5 31.2-7.5 31.9-12.85 38.05l-.15.15 17.6-2.95 3.45-.55.75-.15 9.1-3.4L76.5 91.7"/></svg>