<svg xmlns="http://www.w3.org/2000/svg" viewBox="0 0 188 235.8" width="188" height="235.8" preserveAspectRatio="xMinYMin"><defs><radialGradient gradientUnits="userSpaceOnUse" r="819.2" cx="0" cy="0" spreadMethod="pad" gradientTransform="matrix(.02 0 0 .02 175.85 103.55)" id="a"><stop offset="0" stop-color="#fff"/><stop offset=".278" stop-color="#B1B1B1"/><stop offset=".631" stop-color="#525252"/><stop offset=".882" stop-color="#171717"/><stop offset="1"/></radialGradient><radialGradient gradientUnits="userSpaceOnUse" r="819.2" cx="0" cy="0" spreadMethod="pad" gradientTransform="matrix(.043 0 0 .043 141.05 104.6)" id="b"><stop offset="0" stop-color="#fff"/><stop offset=".278" stop-color="#B1B1B1"/><stop offset=".631" stop-color="#525252"/><stop offset=".882" stop-color="#171717"/><stop offset="1"/></radialGradient><radialGradient gradientUnits="userSpaceOnUse" r="819.2" cx="0" cy="0" spreadMethod="pad" gradientTransform="matrix(.014 0 0 .014 175.85 115.15)" id="c"><stop offset="0" stop-color="#fff"/><stop offset=".278" stop-color="#B1B1B1"/><stop offset=".631" stop-color="#525252"/><stop offset=".882" stop-color="#171717"/><stop offset="1"/></radialGradient><radialGradient gradientUnits="userSpaceOnUse" r="819.2" cx="0" cy="0" spreadMethod="pad" gradientTransform="matrix(.019 0 0 .019 169.55 122.55)" id="d"><stop offset="0" stop-color="#fff"/><stop offset=".278" stop-color="#B1B1B1"/><stop offset=".631" stop-color="#525252"/><stop offset=".882" stop-color="#171717"/><stop offset="1"/></radialGradient><radialGradient gradientUnits="userSpaceOnUse" r="819.2" cx="0" cy="0" spreadMethod="pad" gradientTransform="matrix(.048 0 0 .048 113.2 101.9)" id="e"><stop offset="0" stop-color="#fff"/><stop offset=".278" stop-color="#B1B1B1"/><stop offset=".631" stop-color="#525252"/><stop offset=".882" stop-color="#171717"/><stop offset="1"/></radialGradient><radialGradient gradientUnits="userSpaceOnUse" r="819.2" cx="0" cy="0" spreadMethod="pad" gradientTransform="matrix(.075 0 0 .075 46.15 104.6)" id="f"><stop offset="0" stop-color="#fff"/><stop offset=".278" stop-color="#B1B1B1"/><stop offset=".631" stop-color="#525252"/><stop offset=".882" stop-color="#171717"/><stop offset="1"/></radialGradient><radialGradient gradientUnits="userSpaceOnUse" r="819.2" cx="0" cy="0" spreadMethod="pad" gradientTransform="matrix(.035 0 0 .035 16.6 108.8)" id="g"><stop offset="0" stop-color="#fff"/><stop offset=".278" stop-color="#B1B1B1"/><stop offset=".631" stop-color="#525252"/><stop offset=".882" stop-color="#171717"/><stop offset="1"/></radialGradient><radialGradient gradientUnits="userSpaceOnUse" r="819.2" cx="0" cy="0" spreadMethod="pad" gradientTransform="matrix(.037 0 0 .037 19.8 121.5)" id="h"><stop offset="0" stop-color="#fff"/><stop offset=".278" stop-color="#B1B1B1"/><stop offset=".631" stop-color="#525252"/><stop offset=".882" stop-color="#171717"/><stop offset="1"/></radialGradient><radialGradient gradientUnits="userSpaceOnUse" r="819.2" cx="0" cy="0" spreadMethod="pad" gradientTransform="matrix(.1 0 0 .1 127.9 150.5)" id="i"><stop offset="0" stop-color="#fff"/><stop offset=".278" stop-color="#B1B1B1"/><stop offset=".631" stop-color="#525252"/><stop offset=".882" stop-color="#171717"/><stop offset="1"/></radialGradient><radialGradient gradientUnits="userSpaceOnUse" r="819.2" cx="0" cy="0" spreadMethod="pad" gradientTransform="matrix(.046 0 0 .046 16.6 135.2)" id="j"><stop offset="0" stop-color="#fff"/><stop offset=".278" stop-color="#B1B1B1"/><stop offset=".631" stop-color="#525252"/><stop offset=".882" stop-color="#171717"/><stop offset="1"/></radialGradient><radialGradient gradientUnits="userSpaceOnUse" r="819.2" cx="0" cy="0" spreadMethod="pad" gradientTransform="matrix(.035 0 0 .035 116.6 190.1)" id="k"><stop offset="0" stop-color="#fff"/><stop offset=".278" stop-color="#B1B1B1"/><stop offset=".631" stop-color="#525252"/><stop offset=".882" stop-color="#171717"/><stop offset="1"/></radialGradient><radialGradient gradientUnits="userSpaceOnUse" r="819.2" cx="0" cy="0" spreadMethod="pad" gradientTransform="matrix(.07 0 0 .07 104.15 213.25)" id="l"><stop offset="0" stop-color="#fff"/><stop offset=".278" stop-color="#B1B1B1"/><stop offset=".631" stop-color="#525252"/><stop offset=".882" stop-color="#171717"/><stop offset="1"/></radialGradient></defs><path fill="url(#a)" d="M173.45 94.1l6.75 3.8q6.95 5 7.85 11l-1.1 6.7-3.55-1.4-16.6-6.7 3-10.7 1.35-.65q1.5-.9 2.2-1.9l.1-.15"/><path fill="url(#b)" d="M173.45 94.1l-.1.15q-.7 1-2.2 1.9l-1.35.65-3 10.7-.6 2.05-1.9 6.4-2.45 7.65-2.6 7.15q-2.5 6.35-9.2 4.4l-1.55-.55q-2.45-1-5.15-2.9l-2.2-1.7q-14.65-13.65-21.85-22.75l-1.65-2.15q12.9.1 17.45 3l1.45-.35q1.7-.5 2.8-1.35 3.6-2.65.3-7.35L128.3 95.3l-15.95-.5-.1-.85v-.05q-.1-2.85 2.75-3.65l2.8-.2q7.6-1.2 14.75-10.6 3.55-4.65 5.6-9.05l5.45 9.55q3.45.6 15.65 4 10 2.85 13.2 5.85 2.35 2.15 1 4.3M143.6 79.95l-1.25-.1 1.8 1.1-.55-1"/><path fill="url(#c)" d="M183.4 114.2l.35 2.15q.2 2.85-.6 6.65l-3.15-1.2-15.7-5.85 1.9-6.4.6-2.05 16.6 6.7"/><path fill="url(#d)" d="M180 121.8l.85 1.85q.75 2.45.45 5.55l-.25 3.55q-3.9-2.65-8.25-5.15-8.7-4.95-10.95-4l2.45-7.65 15.7 5.85"/><path fill="url(#e)" d="M106.85 94.7l5.4.1h.1l15.95.5 11.35 3.75q3.3 4.7-.3 7.35-1.1.85-2.8 1.35l-1.45.35q-4.55-2.9-17.45-3l-13.65.45-.3.05-22.85 2.5q-8.55-5.45-5.85-8.95 1.3-1.7 4.35-2.35 3.05-2.25 26.3-2.1h1.2"/><path fill="url(#f)" d="M106.85 94.7h-1.2q-23.25-.15-26.3 2.1-3.05.65-4.35 2.35-2.7 3.5 5.85 8.95l22.85-2.5-1.65 2.4-.05.05-2.6 3.3-1.2 1.3q-11.3 12.85-21.85 23.4-6.6 6.6-16.4.95l-1.2-.75q-2.45-1.6-4.85-3.8l-4.1-4.4-7.3-8.25-.05-.05-18.1-19.9q-3.3-3.55-4.45-6.2-1.2-2.65-.25-4.45.6-1.1 1.95-1.75l1.25-.4 6.3-1 17.05-2.1q8.95-.95 13.3-9.25 2.15-4.15 2.55-8.1l4.15 7 7.15 5.1 5.1 2.8q7.5 3.4 19.75 6.3 7.65 1.75 8.65 6.9m-85.8-2l-1.15.95 1.15-.95"/><path fill="url(#g)" d="M8.8 110.65l-2.2-.45q-2.7-7.35 5.05-12.7 3.85-2.65 8.25-3.85 1.15 2.65 4.45 6.2l18.1 19.9q-2.2-2.3-19.15-6.1l-14.5-3"/><path fill="url(#h)" d="M8.8 110.65l14.5 3q16.95 3.8 19.15 6.1l.05.05 7.3 8.25-43.45.65H3.7l.7-9.6q0-5.1 2.25-7.3 1.1-1.05 2.15-1.15"/><path fill="url(#i)" d="M150.05 135.15q-.15.4.05 6.15.3 8.45 1.3 20.9 1 12.2-.35 17.6-.7 2.7-1.6 2.95-1.5 1.5-4.05 2.65-2.9 1.3-7.15 2.25l.15-2.05q0-7.35-7.25-12.55-7.2-5.15-17.45-5.15t-17.5 5.15q-7.15 5.2-7.15 12.55 0 1.6.35 3.1l-7.75-.65q-16.9-1-25.15-6.25-3.3-2.05-5.2-4.8-2.15-3-2.35-6.5l4.55-34.8q3.5-.1 5.25.55l1.2.75q9.8 5.65 16.4-.95 10.55-10.55 21.85-23.4l1.2-1.3 2.6-3.3 1.85 1.05q2.25 1.1 4.45 1.65 7.1 1.65 11-3.5 7.2 9.1 21.85 22.75l2.2 1.7q2.7 1.9 5.15 2.9l1.55.55"/><path fill="url(#j)" d="M53.5 135.7q-8.3.2-26.5 4.25L2.25 146.2q-.25.75.25-5.5.3-3.9 2.1-8.35l1.75-3.65 43.45-.65 1.7 1.95 2.4 2.45-.4 3.25"/><path fill="url(#k)" d="M89.4 188.7q-.35-1.5-.35-3.1 0-7.35 7.15-12.55 7.25-5.15 17.5-5.15t17.45 5.15q7.25 5.2 7.25 12.55l-.15 2.05q-.85 6.05-7.1 10.45-7.2 5.2-17.45 5.2t-17.5-5.2q-5.6-4.05-6.8-9.4l1.25.1-1.25-.1"/><path fill="url(#l)" d="M89.4 188.7q1.2 5.35 6.8 9.4 7.25 5.2 17.5 5.2t17.45-5.2q6.25-4.4 7.1-10.45 4.25-.95 7.15-2.25-.15 8.3 3.95 24.8 2.05 8.3 4.1 14.9-27.15 15.4-67.05 8.65-14.1-2.4-25.2-6.8-10.05-4-9.6-6 1-4.7 4.9-39.15 8.25 5.25 25.15 6.25l7.75.65"/><path fill="none" stroke="#666" stroke-width=".05" stroke-linecap="round" stroke-linejoin="round" d="M112.35 94.8l-.1-.85v-.05q-.1-2.85 2.75-3.65l2.8-.2q7.6-1.2 14.75-10.6 3.55-4.65 5.6-9.05l5.45 9.55q3.45.6 15.65 4 10 2.85 13.2 5.85 2.35 2.15 1 4.3l6.75 3.8q6.95 5 7.85 11l-1.1 6.7-3.55-1.4.35 2.15q.2 2.85-.6 6.65l-3.15-1.2.85 1.85q.75 2.45.45 5.55l-.25 3.55q-3.9-2.65-8.25-5.15-8.7-4.95-10.95-4l-2.6 7.15q-2.5 6.35-9.2 4.4-.15.4.05 6.15.3 8.45 1.3 20.9 1 12.2-.35 17.6-.7 2.7-1.6 2.95-1.5 1.5-4.05 2.65-.15 8.3 3.95 24.8 2.05 8.3 4.1 14.9-27.15 15.4-67.05 8.65-14.1-2.4-25.2-6.8-10.05-4-9.6-6 1-4.7 4.9-39.15-3.3-2.05-5.2-4.8-2.15-3-2.35-6.5l4.55-34.8q-8.3.2-26.5 4.25L2.25 146.2q-.25.75.25-5.5.3-3.9 2.1-8.35l1.75-3.65H3.7l.7-9.6q0-5.1 2.25-7.3 1.1-1.05 2.15-1.15l-2.2-.45q-2.7-7.35 5.05-12.7 3.85-2.65 8.25-3.85-1.2-2.65-.25-4.45.6-1.1 1.95-1.75l1.25-.4 6.3-1 17.05-2.1q8.95-.95 13.3-9.25 2.15-4.15 2.55-8.1l4.15 7 7.15 5.1 5.1 2.8q7.5 3.4 19.75 6.3 7.65 1.75 8.65 6.9l5.4.1h.1l15.95.5 11.35 3.75q3.3 4.7-.3 7.35-1.1.85-2.8 1.35l-1.45.35q-4.55-2.9-17.45-3l1.65 2.15q7.2 9.1 21.85 22.75l2.2 1.7q2.7 1.9 5.15 2.9l1.55.55m23.4-41.05l-.1.15q-.7 1-2.2 1.9l-1.35.65-3 10.7 16.6 6.7m-16.6-6.7l-.6 2.05-1.9 6.4 15.7 5.85m-76.3-16.2l-22.85 2.5q-8.55-5.45-5.85-8.95 1.3-1.7 4.35-2.35 3.05-2.25 26.3-2.1h1.2m36.75-14.75l-1.25-.1 1.8 1.1-.55-1M19.9 93.65l1.15-.95m21.4 27.05l.05.05 7.3 8.25 4.1 4.4q2.4 2.2 4.85 3.8l1.2.75q9.8 5.65 16.4-.95 10.55-10.55 21.85-23.4l1.2-1.3 2.6-3.3.05-.05 1.65-2.4.3-.05 13.65-.45M53.5 135.7q3.5-.1 5.25.55m-5.25-.55l.4-3.25-2.4-2.45-1.7-1.95-43.45.65m2.45-18.05l14.5 3q16.95 3.8 19.15 6.1l-18.1-19.9q-3.3-3.55-4.45-6.2m82.1 14.4l1.85 1.05q2.25 1.1 4.45 1.65 7.1 1.65 11-3.5M89.4 188.7l-7.75-.65q-16.9-1-25.15-6.25m81.75 5.85l.15-2.05q0-7.35-7.25-12.55-7.2-5.15-17.45-5.15t-17.5 5.15q-7.15 5.2-7.15 12.55 0 1.6.35 3.1l1.25.1m54.75-3.4q-2.9 1.3-7.15 2.25-.85 6.05-7.1 10.45-7.2 5.2-17.45 5.2t-17.5-5.2q-5.6-4.05-6.8-9.4m74.9-72.75l-2.45 7.65"/></svg>