<svg xmlns="http://www.w3.org/2000/svg" viewBox="0 0 155.9 291.8" width="155.9" height="291.8" preserveAspectRatio="xMinYMin"><defs><radialGradient gradientUnits="userSpaceOnUse" r="819.2" cx="0" cy="0" spreadMethod="pad" gradientTransform="matrix(.15 0 0 .15 141 143.4)" id="a"><stop offset="0" stop-color="#AA7F80"/><stop offset=".275" stop-color="#A77C7D"/><stop offset=".51" stop-color="#9C7172"/><stop offset=".725" stop-color="#8B6061"/><stop offset=".824" stop-color="#805556"/></radialGradient><radialGradient gradientUnits="userSpaceOnUse" r="819.2" cx="0" cy="0" spreadMethod="pad" gradientTransform="matrix(.037 0 0 .037 46.6 160.65)" id="b"><stop offset=".29" stop-color="#552A2A"/><stop offset=".482" stop-color="#663B3C"/><stop offset=".749" stop-color="#794E4F"/><stop offset=".933" stop-color="#805556"/></radialGradient><radialGradient gradientUnits="userSpaceOnUse" r="819.2" cx="0" cy="0" spreadMethod="pad" gradientTransform="matrix(.127 0 0 .127 101.85 249.4)" id="c"><stop offset="0" stop-color="#AA7F80"/><stop offset=".275" stop-color="#A77C7D"/><stop offset=".51" stop-color="#9C7172"/><stop offset=".725" stop-color="#8B6061"/><stop offset=".824" stop-color="#805556"/></radialGradient><radialGradient gradientUnits="userSpaceOnUse" r="819.2" cx="0" cy="0" spreadMethod="pad" gradientTransform="matrix(.069 0 0 .069 56.25 173.7)" id="d"><stop offset=".29" stop-color="#552A2A"/><stop offset=".482" stop-color="#663B3C"/><stop offset=".749" stop-color="#794E4F"/><stop offset=".933" stop-color="#805556"/></radialGradient><linearGradient gradientUnits="userSpaceOnUse" x1="-819.2" x2="819.2" gradientTransform="matrix(.043 .015 -.008 .024 76.05 192.15)" id="e"><stop offset=".447" stop-color="#805556"/><stop offset=".925" stop-color="#AA7F80"/></linearGradient><radialGradient gradientUnits="userSpaceOnUse" r="819.2" cx="0" cy="0" spreadMethod="pad" gradientTransform="matrix(.041 0 0 .041 140.15 161.75)" id="f"><stop offset=".29" stop-color="#552A2A"/><stop offset=".482" stop-color="#663B3C"/><stop offset=".749" stop-color="#794E4F"/><stop offset=".933" stop-color="#805556"/></radialGradient><radialGradient gradientUnits="userSpaceOnUse" r="819.2" cx="0" cy="0" spreadMethod="pad" gradientTransform="matrix(.137 0 0 .137 103.5 257.55)" id="g"><stop offset=".29" stop-color="#552A2A"/><stop offset=".482" stop-color="#663B3C"/><stop offset=".749" stop-color="#794E4F"/><stop offset=".933" stop-color="#805556"/></radialGradient><radialGradient gradientUnits="userSpaceOnUse" r="819.2" cx="0" cy="0" spreadMethod="pad" gradientTransform="matrix(.018 0 0 .018 123 184.1)" id="h"><stop offset=".29" stop-color="#552A2A"/><stop offset=".482" stop-color="#663B3C"/><stop offset=".749" stop-color="#794E4F"/><stop offset=".933" stop-color="#805556"/></radialGradient><linearGradient gradientUnits="userSpaceOnUse" x1="-819.2" x2="819.2" gradientTransform="matrix(.008 -.002 .006 .02 125.65 190.5)" id="i"><stop offset=".447" stop-color="#805556"/><stop offset=".925" stop-color="#AA7F80"/></linearGradient><radialGradient gradientUnits="userSpaceOnUse" r="819.2" cx="0" cy="0" spreadMethod="pad" gradientTransform="matrix(.137 0 0 .137 103.5 257.55)" id="j"><stop offset="0" stop-color="#AA7F80"/><stop offset=".275" stop-color="#A77C7D"/><stop offset=".51" stop-color="#9C7172"/><stop offset=".725" stop-color="#8B6061"/><stop offset=".824" stop-color="#805556"/></radialGradient><linearGradient gradientUnits="userSpaceOnUse" x1="-819.2" x2="819.2" gradientTransform="matrix(.029 0 0 .04 150.2 239.9)" id="k"><stop offset=".447" stop-color="#805556"/><stop offset=".925" stop-color="#AA7F80"/></linearGradient><linearGradient gradientUnits="userSpaceOnUse" x1="-819.2" x2="819.2" gradientTransform="matrix(.035 .012 -.017 .048 71.55 252.55)" id="l"><stop offset=".447" stop-color="#805556"/><stop offset=".925" stop-color="#AA7F80"/></linearGradient></defs><path fill="url(#a)" d="M20.2 145.7h-1.5q-.8-6.7 3.4-13.75 8.3-13.95 33-15.5l1.55 9.1q2.1 9.05 6.1 17 12.85 25.4 39.8 30 8.55-5.45 15.45-15.85 13.85-20.7 5.7-45.15l4.45-.9q5.35-.6 10.2.6 12.3 3.05 17.4 16.8l-.5.2q-1.35-.1-3.25 1.95-6.05 6.4-17.7 34.25-1.55 3.45-3.85 6.75l-.05.1q-4.4 6.2-11.45 11.3-3.35 2.45-6.8 4.15l-.15.1-3.95 1.7q-16.5 6.05-34.35-4.15-11.85-9.55-20.8-19.45l-4.5-4.7h-.05q-14.6-14.2-28.15-14.55m131.4-15.9l.4.4-.4-.4"/><path fill="url(#b)" d="M26 158.35l-.5-3.95q-.25-1.1-2.2-1.1l-1.7.25q-.95.6-1.05 2.4 0-6.8-.35-10.25 13.55.35 28.15 14.55l-.3.3q-.45 3.05-.5 6.3l-.95-.1q-.35 0-1.7 1.35-1.5 1.55-2.5 2-1.3-2.65-5.1-7.55-4.9-6.3-7.1-6.3-1.2 0-2.3.9l-1.65 1.45-.25-.25"/><path fill="url(#c)" d="M48.05 160.55l.3-.3h.05l-.35.3"/><path fill="url(#d)" d="M48.05 160.55l.35-.3 4.5 4.7q8.95 9.9 20.8 19.45 17.85 10.2 34.35 4.15l.15 6.9-2.35 3.25q-.6-.95-3.1-2.5-2.75-1.7-4.5-1.7-1.85 0-3.1 1.05-1.45 1.25-4 5.25v-.85q-1.1-2.75-2.15-4.15-1.85-2.55-5.85-2.55l-4 .15q-2.75.4-3.55 1.95-1.4-4.5-3.4-6.65-2.1-2.25-5.85-3.05-1.45-.3-3.5-4.35-2.45-4.9-3.2-5.7H55l-.25.1q-.9-2.75-2.45-5-2.2-3.35-4.75-3.85.05-3.25.5-6.3"/><path fill="url(#e)" d="M47.55 166.85q2.55.5 4.75 3.85 1.55 2.25 2.45 5l.25-.1h4.65q.75.8 3.2 5.7 2.05 4.05 3.5 4.35 3.75.8 5.85 3.05 2 2.15 3.4 6.65.8-1.55 3.55-1.95l4-.15q4 0 5.85 2.55 1.05 1.4 2.15 4.15v.85q2.55-4 4-5.25 1.25-1.05 3.1-1.05 1.75 0 4.5 1.7 2.5 1.55 3.1 2.5l2.35-3.25.35 15.9q-8.25.55-18.95.05-16.15-.8-30.5-3.2l.4-1.2q-3.7-6.3-6.95-15.25-5.05-13.85-5-24.9"/><path fill="url(#f)" d="M152 130.2q.7.75.85 1.45l.05 2.35-1.05 3.25q-1.05 3.15-1.05 6.85l-2.9.3q-1.75.75-1.75 2.2 0 .55 1.7 4.45l1.65 3.95q-2.15-.4-3.3 2-1 2.1-.45 3.9l-2.5 2.45q-1.7 1.55-1.7 3.8l.2 2.1.2 2.95q0-.25-.4-.35l-.45-.05q-1.9-1.6-2.8-1.95l-1.8-.15q-1.4 0-1.7.4-.4.55-.4 2.95l.4 5.05q-4.15-1.35-5.1 1.3-.55 1.7-.75 7.55h-1.7l-.6-.4v-.15l.2-2.25q.55-5.15 2.1-9.55l1.45-3.3.05-.1q2.3-3.3 3.85-6.75 11.65-27.85 17.7-34.25"/><path fill="url(#g)" d="M116.6 272.65l-6.15.35q0-4.1-3.1-12.05 1.3-12.35 1.55-34.5v-1.1q2.5-2.05 3.7-4.7.8-1.85.8-4.05l1.9-1.15.45.1q.15 15.8-.1 34.75 0 13.2.95 22.35m-8.55-84.1l3.95-1.7.1 2.55q.15 4.45.95 9.75l1.9 11.6-3.25.35-3.15.25-.35-15.9-.15-6.9"/><path fill="url(#h)" d="M112 186.85l.15-.1q3.45-1.7 6.8-4.15 7.05-5.1 11.45-11.3l-1.45 3.3q-1.55 4.4-2.1 9.55l-.2 2.25-.3-.05-1-.25q-1.2 0-3.4 1.95-2.8 2.4-2.3 5.55l-3.1-2.7q-2.25-1.85-2.95-1.85-.85 0-1.5.35l-.1-2.55"/><path fill="url(#i)" d="M126.65 186.55q-.65 9.9 2.45 20.3h-.05l-.3.1q-5.15 2.65-13.8 3.8l-1.9-11.6q-.8-5.3-.95-9.75.65-.35 1.5-.35.7 0 2.95 1.85l3.1 2.7.05.05v.4l-.05-.45.05.45v-.4l-.05-.05q-.5-3.15 2.3-5.55 2.2-1.95 3.4-1.95l1 .25.3.05v.15l-.3-.2.3.2"/><path fill="url(#j)" d="M129.1 206.85l.1.3v.05l-.35.1-.1-.35.3-.1h.05m-23.7 66.45l-.45.05-2.15.1-2.5-11.1-.6-3.1v-.1q-1.05-6-1.5-10.9.75 4.9 2.35 10.8 2.05 7.35 4.6 13.7l.25.55m-9.35.55H96v-.2l.05.2m19.55-58.55l.15.25-.45-.1.3-.15m-6.7 10.05v1.1q-.25 22.15-1.55 34.5l-.2-.5q-4.7-11.75-3.85-23.45.25-3.6 1-6.85l.8-2.45q2.15-1.05 3.8-2.35m-11.3 12.8v-.05l.15.1q.5-4.35 2.3-7.3-2.95 5.15-1.85 17.35-.85-5.75-.45-10.05l-.15-.05m7.35 35.2l.2-.6-.2.6"/><path fill="url(#k)" d="M129.2 207.2q1.7 5.55 4.45 11.25 8.65 17.8 13.75 36.75 2.55 9.5 3.35 15.4l-34.15 2.05q-.95-9.15-.95-22.35.25-18.95.1-34.75l-.15-.25 13.25-8 .35-.1"/><path fill="#fff" d="M110.45 273q-.05 1.75-.6 2.8-.95 1.75-2.9 1.15l-1.55-3.65-.25-.55q-2.55-6.35-4.6-13.7-1.6-5.9-2.35-10.8-1.1-12.2 1.85-17.35-1.8 2.95-2.3 7.3l-.15-.1 1.45-8.65q-4.95.85-5.4-5.95-.15-2.15.2-4.8l.3-2.25q-10.75-.95-24.35-4.75l-10.7-3.4-.55-.2.55.1q14.35 2.4 30.5 3.2 10.7.5 18.95-.05l3.15-.25 3.25-.35q8.65-1.15 13.8-3.8l.1.35-13.25 8-.3.15-1.9 1.15q0 2.2-.8 4.05-1.2 2.65-3.7 4.7-1.65 1.3-3.8 2.35l-.8 2.45q-.75 3.25-1 6.85-.85 11.7 3.85 23.45l.2.5q3.1 7.95 3.1 12.05m-7.65.45q1.5 5.95 3.25 11.5-1.85 1.8-4 1.35-4.3-1.05-6-12.45l-.05-.2q-1.7-11.65.5-29.05l1.1-6.45.15.05q-.4 4.3.45 10.05.45 4.9 1.5 10.9v.1l.6 3.1 2.5 11.1m-3.75-44q3.05-.45 5.95-1.75h.1-.1q-2.9 1.3-5.95 1.75"/><path fill="url(#l)" d="M99.05 229.45l-1.45 8.65v.05l-1.1 6.45q-2.2 17.4-.5 29.05v.2l-27.55-4.9q-3.25-2.85-7.3-3.95-8.15-2.25-12.25 6.4T44 286.8l-.3.05-2.15-30.9 8.15-31.8 6.5-7.35 2.9-8.5 10.7 3.4q13.6 3.8 24.35 4.75l-.3 2.25q-.35 2.65-.2 4.8.45 6.8 5.4 5.95"/><path fill="none" stroke="#483132" stroke-width=".05" stroke-linecap="round" stroke-linejoin="round" d="M20.55 155.95q.1-1.8 1.05-2.4l1.7-.25q1.95 0 2.2 1.1l.5 3.95v.45l.25-.2m-5.7-2.65v1.15-1.15m99.1 37.65l.05.45v-.4l-.05-.05"/><path fill="none" stroke="#745052" stroke-width=".05" stroke-linecap="round" stroke-linejoin="round" d="M20.2 145.7h-1.5q-.8-6.7 3.4-13.75 8.3-13.95 33-15.5l1.55 9.1q2.1 9.05 6.1 17 12.85 25.4 39.8 30m53.2-44.5l.1.35-.6-.15q-1.35-.1-3.25 1.95l-.4-.4m-22.65 57.15h-1.7l-.6-.4q-.65 9.9 2.45 20.3l.1.3v.05q1.7 5.55 4.45 11.25 8.65 17.8 13.75 36.75 2.55 9.5 3.35 15.4l-34.15 2.05-6.15.35q-.05 1.75-.6 2.8-.95 1.75-2.9 1.15l-1.55-3.65-.45.05-2.15.1q1.5 5.95 3.25 11.5-1.85 1.8-4 1.35-4.3-1.05-6-12.45H96l-27.55-4.9q-3.25-2.85-7.3-3.95-8.15-2.25-12.25 6.4T44 286.8l-.15 2.3q-.1 1.65.15 2.7m4.35-131.55q-14.6-14.2-28.15-14.55m28.2 14.55h-.05m.05 0l4.5 4.7q8.95 9.9 20.8 19.45 17.85 10.2 34.35 4.15l3.95-1.7.15-.1q3.45-1.7 6.8-4.15 7.05-5.1 11.45-11.3l.05-.1q2.3-3.3 3.85-6.75 11.65-27.85 17.7-34.25M47.55 166.85q-.05 11.05 5 24.9Q55.8 200.7 59.5 207l-.4 1.2q14.35 2.4 30.5 3.2 10.7.5 18.95-.05l-.35-15.9-.15-6.9m6.9 22.2q8.65-1.15 13.8-3.8m-2.4-20.6l.3.2v-.15m2.2 20.9l-13.25 8-.3.15.45.1m-.8-4.8l-3.25.35-3.15.25m6.75 4.1l-1.9 1.15q0 2.2-.8 4.05-1.2 2.65-3.7 4.7v1.1q-.25 22.15-1.55 34.5 3.1 7.95 3.1 12.05M97.6 238.1l1.45-8.65q-4.95.85-5.4-5.95-.15-2.15.2-4.8l.3-2.25q-10.75-.95-24.35-4.75l-10.7-3.4-2.9 8.5-6.5 7.35-8.15 31.8 2.15 30.9.15 2.25m53.9-50.9q.5-4.35 2.3-7.3-2.95 5.15-1.85 17.35.75 4.9 2.35 10.8 2.05 7.35 4.6 13.7l.25.55m-7.8-35.15l-1.1 6.45q-2.2 17.4-.5 29.05l.05.2m12.85-48.5q-1.65 1.3-3.8 2.35l-.8 2.45q-.75 3.25-1 6.85-.85 11.7 3.85 23.45l.2.5m-2.25-33.25h-.1q-2.9 1.3-5.95 1.75m-.85 18.8q.45 4.9 1.5 10.9v.1l.6 3.1 2.5 11.1m2.35-.7l-.2.6m-6.75-25.1q-.85-5.75-.45-10.05m-38.65-30l-.55-.1.55.2"/><path fill="none" stroke="#7E585A" stroke-width=".05" stroke-linecap="round" stroke-linejoin="round" d="M102.55 172.55q8.55-5.45 15.45-15.85 13.85-20.7 5.7-45.15l4.45-.9q5.35-.6 10.2.6 12.3 3.05 17.4 16.8"/></svg>