<svg xmlns="http://www.w3.org/2000/svg" viewBox="0 0 189.1 338.8" width="189.1" height="338.8" preserveAspectRatio="xMinYMin"><defs><radialGradient gradientUnits="userSpaceOnUse" r="819.2" cx="0" cy="0" spreadMethod="pad" gradientTransform="matrix(.131 0 0 .131 111.15 139.9)" id="a"><stop offset="0" stop-color="#AA7F80"/><stop offset=".275" stop-color="#A77C7D"/><stop offset=".51" stop-color="#9C7172"/><stop offset=".725" stop-color="#8B6061"/><stop offset=".824" stop-color="#805556"/></radialGradient><radialGradient gradientUnits="userSpaceOnUse" r="819.2" cx="0" cy="0" spreadMethod="pad" gradientTransform="matrix(.03 0 0 .03 162.7 139.65)" id="b"><stop offset=".29" stop-color="#552A2A"/><stop offset=".482" stop-color="#663B3C"/><stop offset=".749" stop-color="#794E4F"/><stop offset=".933" stop-color="#805556"/></radialGradient><radialGradient gradientUnits="userSpaceOnUse" r="819.2" cx="0" cy="0" spreadMethod="pad" gradientTransform="matrix(.032 0 0 .032 35.55 134.05)" id="c"><stop offset=".29" stop-color="#552A2A"/><stop offset=".482" stop-color="#663B3C"/><stop offset=".749" stop-color="#794E4F"/><stop offset=".933" stop-color="#805556"/></radialGradient><radialGradient gradientUnits="userSpaceOnUse" r="819.2" cx="0" cy="0" spreadMethod="pad" gradientTransform="matrix(.032 0 0 .032 32.45 143.7)" id="d"><stop offset=".29" stop-color="#552A2A"/><stop offset=".482" stop-color="#663B3C"/><stop offset=".749" stop-color="#794E4F"/><stop offset=".933" stop-color="#805556"/></radialGradient><radialGradient gradientUnits="userSpaceOnUse" r="819.2" cx="0" cy="0" spreadMethod="pad" gradientTransform="matrix(.04 0 0 .04 82.3 158.45)" id="e"><stop offset=".29" stop-color="#552A2A"/><stop offset=".482" stop-color="#663B3C"/><stop offset=".749" stop-color="#794E4F"/><stop offset=".933" stop-color="#805556"/></radialGradient><linearGradient gradientUnits="userSpaceOnUse" x1="-819.2" x2="819.2" gradientTransform="matrix(.001 .022 -.038 .003 84.1 208.15)" id="f"><stop offset=".447" stop-color="#805556"/><stop offset=".925" stop-color="#AA7F80"/></linearGradient><radialGradient gradientUnits="userSpaceOnUse" r="819.2" cx="0" cy="0" spreadMethod="pad" gradientTransform="matrix(.035 0 0 .035 130.7 156.85)" id="g"><stop offset=".29" stop-color="#552A2A"/><stop offset=".482" stop-color="#663B3C"/><stop offset=".749" stop-color="#794E4F"/><stop offset=".933" stop-color="#805556"/></radialGradient><linearGradient gradientUnits="userSpaceOnUse" x1="-819.2" x2="819.2" gradientTransform="matrix(.012 .139 -.082 .007 159.3 368.9)" id="h"><stop offset=".447" stop-color="#805556"/><stop offset=".925" stop-color="#AA7F80"/></linearGradient><radialGradient gradientUnits="userSpaceOnUse" r="819.2" cx="0" cy="0" spreadMethod="pad" gradientTransform="matrix(.038 0 0 .038 123.5 162.7)" id="i"><stop offset=".29" stop-color="#552A2A"/><stop offset=".482" stop-color="#663B3C"/><stop offset=".749" stop-color="#794E4F"/><stop offset=".933" stop-color="#805556"/></radialGradient><radialGradient gradientUnits="userSpaceOnUse" r="819.2" cx="0" cy="0" spreadMethod="pad" gradientTransform="matrix(.236 0 0 .236 117.1 282.45)" id="j"><stop offset=".29" stop-color="#552A2A"/><stop offset=".482" stop-color="#663B3C"/><stop offset=".749" stop-color="#794E4F"/><stop offset=".933" stop-color="#805556"/></radialGradient><linearGradient gradientUnits="userSpaceOnUse" x1="-819.2" x2="819.2" gradientTransform="matrix(-.013 .116 -.067 -.007 57.75 348.3)" id="k"><stop offset=".447" stop-color="#805556"/><stop offset=".925" stop-color="#AA7F80"/></linearGradient><linearGradient gradientUnits="userSpaceOnUse" x1="-819.2" x2="819.2" gradientTransform="matrix(-.022 .068 -.074 -.023 66.25 372)" id="l"><stop offset=".447" stop-color="#805556"/><stop offset=".925" stop-color="#AA7F80"/></linearGradient></defs><path fill="url(#a)" d="M175.95 129h-.2q-5.15 2.1-11 5.45l-16.45 9q-9.65 5-20 9.85l-15.75 1.3h-.05l-12.7.2q-31.3-.3-45.3-9.4-3.1-2-5.15-4.25-12.35-13.6-16.95-16-2.1-1.1-4.55-1.15l-5.2.15-7.3.35-2.6.55q-3.8 1.35-7.15 6.4-.9 1.4-.95-.55 0-1.95.95-5.85 2.55-10.35 9.65-21.5Q22.3 92.4 36.4 87.95q14.05-4.45 25.1-6.3l7 6.05q8.55 7 16.5 11.95 25.55 15.9 35.4 5.65 9.9-10.25 13.85-18.9 1.2-2.7 1.7-4.9l.25-1.7 3.05-.15q4.1.6 13.25 4.4 9.1 3.75 16.4 11.85 7.25 8.1 14.55 20.1 3.65 6 5.6 9.95l-3.2.1q-4.2.6-9.75 2.8l-.15.15"/><path fill="url(#b)" d="M175.95 129l.15-.1 4.4 12.3q-5.85.75-4.95 8.25-.8-1.4-2.9-3.4-2.65-2.5-4.25-2.5-3 0-5 2.55-1.7 2.1-2.35 5.35h-1.2q-.45-1.35-2.05-1.7l-2.85-.1q-4.3 0-6.7 2.35-1.95 1.95-2.45 5 .1-2.4.45-4.8l2.05-8.75 16.45-9q5.85-3.35 11-5.45h.2"/><path fill="url(#c)" d="M15.35 124.5l7.3-.35 5.2-.15q2.45.05 4.55 1.15 4.6 2.4 16.95 16 2.05 2.25 5.15 4.25l-1.5 4.5-.65 2.15-2-1.8q-1.65-1.2-3.8-1.2l-1.9.9q-2 .9-3.25.9.8-2.8-.75-6.45-1.5-3.6-4.05-5.1l-2.15 2.85q-1.5 2.25-2 3.5l-.15-.2q-.6-3.4-2.6-6.2-3.45-4.75-9.55-4.75-3.7 0-5.85 1.4-1.95 1.25-3.9 4.6l-.6-.1.65-3.5 4.9-12.4"/><path fill="url(#d)" d="M32.3 145.45l.15.2-.15.4v-.6"/><path fill="url(#e)" d="M54.5 145.4q14 9.1 45.3 9.4l12.7-.2v.55l.1 10.1q-1.7-4.65-4.75-4.65-2.5 0-7.7 2.7-6.4 3.3-8.95 7.65-1.75-4.9-3.8-5.75l-6.55-.4-7.95.6q-2 1.1-5.1 8l-.25-.05q-1.9-4.6-5-7.1-3.3-2.65-7.5-2.65-3.4 0-3.8 2.65l-1.05.15-.75-4.95 2.9-9.4.65-2.15 1.5-4.5"/><path fill="url(#f)" d="M67.8 173.4q3.1-6.9 5.1-8l7.95-.6 6.55.4q2.05.85 3.8 5.75 2.55-4.35 8.95-7.65 5.2-2.7 7.7-2.7 3.05 0 4.75 4.65v3.7l.35 43.8q-10.65.05-25.15-1.7-18.65-2.25-35.05-6l-.2-.05.45-4.9q.75-7.2-1.3-23.65l-.55-3.8q-.2-4.85.1-6.4.4-2.65 3.8-2.65 4.2 0 7.5 2.65 3.1 2.5 5 7.1v.6l.25-.55"/><path fill="url(#g)" d="M148.3 143.45l-2.05 8.75q-.35 2.4-.45 4.8l-1.75 2.1q-1.1 1.5-1.85 1.5t-1.65-.6q-.95-.6-1.7-.6-2.95 0-6.4 4.3-2.45 3-3.4 5.45l-.2-.1q-.45-1.2-2.1-3-1.55-1.75-2.75-2.45-2.95 4.7-4.35 8.8l-2.8 8.45-.75-.25q-.85-1.35-1.5-5l-1.05-6.65-.95-3.7-.1-10.1.05-.55 15.75-1.3q10.35-4.85 20-9.85"/><path fill="url(#h)" d="M112.95 212.75l-.35-43.8h.95l1.05 6.65q.65 3.65 1.5 5l.6.7.15-.45 2.8-8.45q1.4-4.1 4.35-8.8 1.2.7 2.75 2.45 1.65 1.8 2.1 3v.7l.2-.6q.95-2.45 3.4-5.45 3.45-4.3 6.4-4.3.75 0 1.7.6.9.6 1.65.6.75 0 1.85-1.5l1.75-2.1-.05.45v.75q-.1 2.75.2 5.45l.6 14.6q.6 16.7.6 27.35 0 9.2 10.1 57.65 7.9 37.95 15.1 57.5-7.8 4-15.8 2.8-8-1.2-9.2 1.25l-10.4 3.2q-8.35 5.2-14.9 6.05l-3.25-.3-.7-.55v-.1l-.1-.05-.05-116.25 14.9-6.4 7-3-7 3-.15-.35q-7.15 2.65-19.75 2.7M136.8 208q-1.75 1.15-4.1 2.05 2.35-.9 4.1-2.05"/><path fill="url(#i)" d="M128.85 169.05l.2.1-.2.6v-.7"/><path fill="#fff" d="M52.75 205.05q16.4 3.75 35.05 6 14.5 1.75 25.15 1.7 12.6-.05 19.75-2.7l.15.35-14.9 6.4-3.65 1.55q-.2 2.15-1.3 3.95-2.7 4.2-9.25 6.35l-1.1 2.4q-1.2 3.15-1.85 6.75-2.15 11.6 2 23.7 4.15 12.15 1.55 15.5-1.25 1.65-3.4.9-3.35-8.35-5.5-18.4-1.25-6-1.6-10.95-.05-12.25 3.85-17.15-2.35 2.8-3.3 7.1l-.2-.1 2.5-8.5q-5.7.4-5.55-6.45.05-2.15.7-4.75l.6-2.2q-12.15-1.9-27.25-6.9l-12.45-4.55M96.7 229.9q3.55-.2 6.95-1.25h.1-.1q-3.4 1.05-6.95 1.25m-2.2 29.7l.35 3.2q1.55 12.2 4.3 23-2.3 1.65-4.7 1-4.9-1.4-5.65-13.15t3.5-28.9l1.9-6.3.2.05q-.95 4.25-.55 10.05 0 4.9.65 10.95v.1"/><path fill="url(#j)" d="M118.1 333.2l-.1-.1h.1v.1m-.1-.15q-.8-.55-3.1-.95-4.05-.8-8.45 1.45l6.65-96.35-.1-14.9q1.1-1.8 1.3-3.95l3.65-1.55.05 116.25"/><path fill="url(#k)" d="M106.45 333.55v.05l-16.1 5.15-8.35-1.1q-9.65-.9-16.7.05-7.05.95-23.05-1.7l-14.45-2.8v-.05l1.45-9.45q5.2-29.05 12.9-64.6l2.25-10.45 8-35.15q-.4-1.3.15-8.45h.2l12.45 4.55q15.1 5 27.25 6.9l-.6 2.2q-.65 2.6-.7 4.75-.15 6.85 5.55 6.45l-2.5 8.5v.05l-1.9 6.3q-4.25 17.15-3.5 28.9t5.65 13.15q2.4.65 4.7-1-2.75-10.8-4.3-23l-.35-3.2.95-.1q2.15 10.05 5.5 18.4 2.15.75 3.4-.9 2.6-3.35-1.55-15.5-4.15-12.1-2-23.7.65-3.6 1.85-6.75l1.1-2.4q6.55-2.15 9.25-6.35l.1 14.9-6.65 96.35"/><path fill="url(#l)" d="M94.5 259.5h.95l-.95.1v-.1"/><path fill="none" stroke="#793E3F" stroke-width=".05" stroke-linecap="round" stroke-linejoin="round" d="M175.95 129h-.2q-5.15 2.1-11 5.45l-16.45 9-2.05 8.75q-.35 2.4-.45 4.8l-.05.45v.75q-.1 2.75.2 5.45l.6 14.6q.6 16.7.6 27.35 0 9.2 10.1 57.65 7.9 37.95 15.1 57.5m8.15-179.55l-4.4-12.3v-.05l-.15.15m4.55 12.2l.65-.1m-5.05-12.25q5.55-2.2 9.75-2.8l3.2-.1q-1.95-3.95-5.6-9.95-7.3-12-14.55-20.1-7.3-8.1-16.4-11.85-9.15-3.8-13.25-4.4l-3.05.15-.25 1.7q-.5 2.2-1.7 4.9-3.95 8.65-13.85 18.9-9.85 10.25-35.4-5.65-7.95-4.95-16.5-11.95l-7-6.05q-11.05 1.85-25.1 6.3-14.1 4.45-21.15 15.6-7.1 11.15-9.65 21.5-.95 3.9-.95 5.85.05 1.95.95.55 3.35-5.05 7.15-6.4l2.6-.55 7.3-.35 5.2-.15q2.45.05 4.55 1.15 4.6 2.4 16.95 16 2.05 2.25 5.15 4.25 14 9.1 45.3 9.4l12.7-.2h.05l15.75-1.3q10.35-4.85 20-9.85m-95.95 8.6l.65-2.15 1.5-4.5m-39.15-20.9l-4.9 12.4-.65 3.5m102.8 24.85l-.1-10.1m-60.15-3.1l-2.9 9.4.75 4.95.95 6.25.55 3.8q2.05 16.45 1.3 23.65l-.45 4.9.2.05q16.4 3.75 35.05 6 14.5 1.75 25.15 1.7l-.35-43.8v-3.7l.95 3.7m-62.3-2.7q-.3 1.55-.1 6.4m55.3 160.9v.05m-78.65-.45l1.45-9.45q5.2-29.05 12.9-64.6l2.25-10.45 8-35.15q-.4-1.3.15-8.45V205m80.15 5.05q2.35-.9 4.1-2.05m-3.95 2.4l7-3m-7 3l-14.9 6.4-3.65 1.55q-.2 2.15-1.3 3.95l.1 14.9-6.65 96.35M94.2 238.4l2.5-8.5q-5.7.4-5.55-6.45.05-2.15.7-4.75l.6-2.2q-12.15-1.9-27.25-6.9l-12.45-4.55m41.45 33.4v-.05m.2.1q.95-4.3 3.3-7.1-3.9 4.9-3.85 17.15.35 4.95 1.6 10.95 2.15 10.05 5.5 18.4 2.15.75 3.4-.9 2.6-3.35-1.55-15.5-4.15-12.1-2-23.7.65-3.6 1.85-6.75l1.1-2.4h-.1q-3.4 1.05-6.95 1.25m-2.2 29.7l.35 3.2q1.55 12.2 4.3 23-2.3 1.65-4.7 1-4.9-1.4-5.65-13.15t3.5-28.9l1.9-6.3m.2.05q-.95 4.25-.55 10.05 0 4.9.65 10.95m0 .1v-.1m18.5-37.2q-2.7 4.2-9.25 6.35m9.2-15.9q12.6-.05 19.75-2.7M27.8 333.15v.05"/><path fill="none" stroke="#333" stroke-width=".05" stroke-linecap="round" stroke-linejoin="round" d="M124 163.6q1.2.7 2.75 2.45 1.65 1.8 2.1 3m-12 11.8l-.15.45m12.15-11.55v-.7"/><path fill="none" stroke="#793E3F" stroke-width=".05" stroke-linecap="round" stroke-miterlimit="3" d="M172.35 320.75q-7.8 4-15.8 2.8-8-1.2-9.2 1.25l-10.4 3.2q-8.35 5.2-14.9 6.05l-3.25-.3-.7-.55-.1-.1m0-.05q-.8-.55-3.1-.95-4.05-.8-8.45 1.45m0 .05l-16.1 5.15-8.35-1.1q-9.65-.9-16.7.05-7.05.95-23.05-1.7l-14.45-2.8-.15-.05h.15"/><path fill="none" stroke="#000" stroke-width=".05" stroke-linecap="round" stroke-miterlimit="3" d="M118.1 333.1l-.1-.05"/></svg>