<svg xmlns="http://www.w3.org/2000/svg" viewBox="17.2 28.6 184.7 473.1" width="184.7" height="473.1" preserveAspectRatio="xMinYMin"><defs><linearGradient gradientUnits="userSpaceOnUse" x1="-819.2" x2="819.2" gradientTransform="matrix(.03 0 0 .043 89.55 67.5)" id="a"><stop offset="0" stop-color="#D98651"/><stop offset=".533" stop-color="#DFA168"/><stop offset="1" stop-color="#D98651"/></linearGradient><linearGradient gradientUnits="userSpaceOnUse" x1="-819.2" x2="819.2" gradientTransform="matrix(-.001 -.033 .002 0 114.95 49.3)" id="b"><stop offset="0" stop-color="#D98651"/><stop offset=".533" stop-color="#DFA168"/><stop offset="1" stop-color="#D98651"/></linearGradient><linearGradient gradientUnits="userSpaceOnUse" x1="-819.2" x2="819.2" gradientTransform="matrix(-.067 .002 -.002 -.07 71.3 169.5)" id="c"><stop offset="0" stop-color="#4C4C4C"/><stop offset=".573" stop-color="#2B2B2B"/><stop offset="1" stop-color="#404040"/></linearGradient><linearGradient gradientUnits="userSpaceOnUse" x1="-819.2" x2="819.2" gradientTransform="matrix(-.03 .001 -.002 -.062 133.35 158.35)" id="d"><stop offset="0" stop-color="#4C4C4C"/><stop offset=".573" stop-color="#2B2B2B"/><stop offset="1" stop-color="#404040"/></linearGradient><linearGradient gradientUnits="userSpaceOnUse" x1="-819.2" x2="819.2" gradientTransform="matrix(-.029 .001 -.003 -.07 78.45 169.25)" id="e"><stop offset="0" stop-color="#4C4C4C"/><stop offset=".573" stop-color="#2B2B2B"/><stop offset="1" stop-color="#404040"/></linearGradient><linearGradient gradientUnits="userSpaceOnUse" x1="-819.2" x2="819.2" spreadMethod="unknown" gradientTransform="matrix(.063 0 0 .052 94.3 269.4)" id="f"><stop offset="0" stop-color="#3F1F1F"/><stop offset=".239" stop-color="#6C4824"/><stop offset="1" stop-color="#4A2724"/></linearGradient><linearGradient gradientUnits="userSpaceOnUse" x1="-819.2" x2="819.2" spreadMethod="unknown" gradientTransform="matrix(-.046 .002 0 -.014 92 228.45)" id="g"><stop offset="0" stop-color="#3F1F1F"/><stop offset=".239" stop-color="#6C4824"/><stop offset="1" stop-color="#4A2724"/></linearGradient><radialGradient gradientUnits="userSpaceOnUse" r="819.2" cx="0" cy="0" fx="22.4" fy="0" spreadMethod="pad" gradientTransform="matrix(.142 0 0 .142 111 210.95)" id="h"><stop offset="0" stop-color="#6c6"/><stop offset=".482" stop-color="#660"/><stop offset=".573" stop-color="#666F09"/><stop offset="1"/></radialGradient><linearGradient gradientUnits="userSpaceOnUse" x1="-819.2" x2="819.2" spreadMethod="unknown" gradientTransform="matrix(.021 0 0 .097 92.9 421.95)" id="i"><stop offset=".071" stop-color="#333"/><stop offset=".388" stop-color="#302B1B"/><stop offset=".929" stop-color="#4D4D4D"/></linearGradient><linearGradient gradientUnits="userSpaceOnUse" x1="-819.2" x2="819.2" spreadMethod="unknown" gradientTransform="matrix(-.022 .009 -.038 -.089 159.85 413.6)" id="j"><stop offset=".071" stop-color="#333"/><stop offset=".388" stop-color="#302B1B"/><stop offset=".929" stop-color="#4D4D4D"/></linearGradient><linearGradient gradientUnits="userSpaceOnUse" x1="-819.2" x2="819.2" gradientTransform="matrix(.025 0 0 .022 94.95 92.45)" id="k"><stop offset="0" stop-color="#4C4C4C"/><stop offset=".573" stop-color="#2B2B2B"/><stop offset="1" stop-color="#404040"/></linearGradient><radialGradient gradientUnits="userSpaceOnUse" r="819.2" cx="0" cy="0" spreadMethod="pad" gradientTransform="matrix(.003 0 0 .003 108.15 66.4)" id="l"><stop offset=".773" stop-color="#335F81"/><stop offset="1"/></radialGradient><linearGradient gradientUnits="userSpaceOnUse" x1="-819.2" x2="819.2" gradientTransform="matrix(.001 0 0 .001 110.8 66.2)" id="m"><stop offset="0" stop-color="#fff"/><stop offset="1" stop-color="#999"/></linearGradient><linearGradient gradientUnits="userSpaceOnUse" x1="-819.2" x2="819.2" gradientTransform="matrix(-.001 0 0 -.002 104.55 66.5)" id="n"><stop offset="0" stop-color="#fff"/><stop offset="1" stop-color="#999"/></linearGradient><linearGradient gradientUnits="userSpaceOnUse" x1="-819.2" x2="819.2" gradientTransform="matrix(-.001 0 0 -.003 84.9 67.55)" id="o"><stop offset="0" stop-color="#fff"/><stop offset="1" stop-color="#999"/></linearGradient><radialGradient gradientUnits="userSpaceOnUse" r="819.2" cx="0" cy="0" spreadMethod="pad" gradientTransform="matrix(.003 0 0 .003 89.4 67.35)" id="p"><stop offset=".773" stop-color="#335F81"/><stop offset="1"/></radialGradient><linearGradient gradientUnits="userSpaceOnUse" x1="-819.2" x2="819.2" gradientTransform="matrix(.002 0 0 .002 93.45 67.95)" id="q"><stop offset="0" stop-color="#fff"/><stop offset="1" stop-color="#999"/></linearGradient><linearGradient gradientUnits="userSpaceOnUse" x1="-819.2" x2="819.2" gradientTransform="matrix(0 .002 -.008 -.001 98.15 88.8)" id="r"><stop offset="0" stop-color="#E36C60"/><stop offset="1" stop-color="#613416"/></linearGradient><linearGradient gradientUnits="userSpaceOnUse" x1="-819.2" x2="819.2" gradientTransform="matrix(-.001 .003 -.007 -.001 97.95 90.75)" id="s"><stop offset="0" stop-color="#E36C60"/><stop offset="1" stop-color="#613416"/></linearGradient><linearGradient gradientUnits="userSpaceOnUse" x1="-819.2" x2="819.2" spreadMethod="unknown" gradientTransform="matrix(-.008 .062 -.068 -.009 81.45 76.65)" id="t"><stop offset=".071" stop-color="#7D4002"/><stop offset=".388" stop-color="#4B2601"/><stop offset=".929" stop-color="#211001"/></linearGradient></defs><path fill="url(#a)" d="M75.4 86.1l-1.8-7.25-4.1.3q-1.1-4.35-3.55-7.1l-.65-2.65-.1-.75q-.1-1.95 2.05-3.1 2.15-1.2 4.45 1.2 2.3 2.35 2.65 5.35-1.4-22.55 10.8-26.25 6.1-1.9 13.1.9 11.4-4.6 14 1.05 1.1 2.45 1.65 4.7l.1 1.45q.35 2.45-.15 8.15l-.05.6V62.85q-1.6-2.55-3.35-3.8l-2-.15-7.55 3.9q-.15.3.6 1.75 1.65-2.2 4.75-3.45 3.05-1.25 3.7-1 .7.25 2.6 1.7l1.2 1.45-.15 1.25h-.05l-.05.2v.05h.1l.3 2.8q.4 4.75.25 10.95l-.05.25h-.05l.05.3v.45q-5.25-5.25-12.6-5.1-5.4.05-11.95 2.95-5.1 2.3-10.45 6-2.2 1.5-3.7 2.75m36.1-19.35l.25-.35.4-1.1v-.1l-.75.4.2-1.15-.75.55-.05.05v-.15l-.1-1.05-.5.55-.3.25-.1.1.1-.55v-.55l-.05-.05-.35.35-.1.05-.3.15v-.75l-.1-.05-.55.35-.1.1-.3.4-.05-.45-.1-.15q-.15-.15-.4-.15l-.4.4-.15.4-.25.3h-.1l-.2-.35-.1-.1-.15-.2-.5-.15-.5.85-.05.1-.6.85-.1.05.1-.05-.05.05.05-.05-.05.05h-.05q-1.1.7-2.3 1.85l2.9.6h.05l2 .1.65-.05 1.65-.25.55-.25 1.7-.75-.1-.1m-3.5-3l.35.05-.35-.05m2.2.65l-.3-.2.3.2m-1.1-.45l.3.05-.3-.05m1.75 1.05l-.05-.1.05.1m-8.35 1.4q1.35-1.1 2.65-1.8-1.3.7-2.65 1.8m8.5 2.1l.2-.4q.55.05.6.55v-.05l.15-.75.7.2-.05-.45-.65-.4-1.5.95q-1.9.85-4.35.55l2 .45 1.25.1.3-.25q.3 0 .4.35.2-.5.55-.7l.05.2.35-.35m-4.7-4.4l.8-.25-.8.25m6.8 2.25l.4-1.6-.4 1.6M84.8 60.1q.8-.35 4.5.95 3.7 1.3 5.8 3.8.85-1.75.6-2.15l-9.15-4.15-2.4.4q-2.45 2-4.55 6.45l2.25-3.1q2.15-1.85 2.95-2.2m6.05 5.05l-.7-1q-.2 0-.55.25l-.2.2-.15.2q-.15.15-.15.35H89l-.25-.25-.3-.5.95.2-.95-.2-.5-.5q-.25 0-.45.25l-.1.2q-.15.2-.05.5v.1-.1l-.4-.45-.1-.15q-.2-.35-.65-.35l-.15.05v.9l-.35-.15-.1-.1-.4-.35-.1.1v.25l.1.4.1.65-.1-.1-.35-.35-.65-.55-.1 1.25v.15l-.05-.05-.9-.65.3 1.35-.9-.4v.1l.55 1.25.3.4-.1.15 2.7 1.05 1.95.2 3.2-.25.05-.05v.05l3.35-.9-2.75-2h-.05l-.05-.1-.65-.8-.2-.25q1.5.7 3.2 1.95-1.7-1.25-3.2-1.95m-3.45-.8l-.45.05.45-.05m-2.2.65l-.35.2.35-.2m-1.1.9l-.05.1.05-.1m1.95-1.3l-.35.1.35-.1m-1.95 5.55l.4.35.1-.25.7.85q.05-.5.4-.5l.45.3 1.45-.2 2.35-.65q-2.95.5-5.2-.4l-1.8-1q-.3 0-.8.5v.5l.8-.2.2.8v.1q.1-.6.75-.7l.2.5m6.95-4.75l.15.15.5.65.1.1-.1-.1-.5-.65-.15-.15m.1 3.8h.05-.05m9.4-3.25q.3 5.05.95 8.45-.65-3.4-.95-8.45"/><path fill="url(#b)" d="M114 63.55l.3 8.8 1.65-8.7.9.6.1 1.05v2.35l-.1.6-1.55 3.45.55 1.1.45 1.9.05 1.55-.9 2.75-.25-.05-1.05-.45q.15-6.2-.25-10.95l-.3-3.05.05-.4.1-.4.2-.15h.05"/><path fill="url(#c)" d="M126.75 176.95l-5.55 28.65 2.4 11.1q-9.35 12.4-36.65 8.7-8.7-1.2-18.25-3.85l-8-3.1-.1-.15q.25-5.7 2.4-8.2l.35-3.85-.2-.25q-5.3-6.1-10.2-21.9l-3.9-16.05h.05l-.1-.25-.6-1.65-4.35 19.6-3.95 14.8L38.9 215q0-3.8-10.85-9.8l-10.85-5.3 4.2-8.7 3.65-33.2q-7.35-24.3 10.65-34.35 9.05-5 19.5-5.15l17.9-6.8 3.3 9.4q4.1 11.4 8.45 21.1 13.8 31.1 24.15 34.15l.85-2.15.1-.2 3.15 1.45q3.9 1.5 7.7 1.8l5.95-.35v.05M57.9 133l-2.3 3.4q-2.65 4.25-4.5 8.6-5.45 12.4-2.7 21.15-2.75-8.75 2.7-21.15 1.85-4.35 4.5-8.6l2.3-3.4m-9.05 31.05l-.45 2.1.45-2.1m49.45 4.8q-11.7 14.7-25.4 13.95-4.3-.25-8.3-2l-3.1-1.7q-9.25-3.8-12.4-11.05 3.15 7.25 12.4 11.05l3.1 1.7q4 1.75 8.3 2 13.7.75 25.4-13.95M64.15 207.1l-.8-.85.8.85"/><path fill="url(#d)" d="M130.5 110.95l10.35 4.05 3.85 5.95 7.85 50.9 3.05 6.35 3.3 8.7q-5.05 3.65-10.15 8.2-10.15 9.05-10.35 13.55l-2.35-7.3q-2.2-7.15-1.9-10.9l-.2-.35-3.65-5.9q-3-5.2-3.55-7.25v-.05l-5.95.35q-3.8-.3-7.7-1.8l-3.15-1.45q4.7-12.7 5.75-26.2 1.75-22.8-8.6-39l6.35.95 1.45.35 1.65.1 4.8.7H130l.5.05m-4.45 12.1q.2 3.2 3.25 9.9 1.55 3.35 3.05 6.05 9.6 11.9 9.4 20.85-.1 4.5-2.15 6.6-4.9 8.65-12.85 10.45l-.1-.85.1.85q7.95-1.8 12.85-10.45 2.05-2.1 2.15-6.6.2-8.95-9.4-20.85-1.5-2.7-3.05-6.05-3.05-6.7-3.25-9.9"/><path fill="url(#e)" d="M109.85 174.2l.1-.2-.1.2"/><path fill="url(#f)" d="M130 226.5l2.65 3.05q3.2 4.45 5.8 11.5 8.3 22.7 7.7 63.15-6.3-3.35-14.1-4.3-15.55-1.9-23 10h-.35l-.15 2.4q-14.3-8.05-34.25-4.8-6.25 1-12.35 3l-4.8 1.8q-19.35-40.45-13.3-67.1 1.9-8.3 6.1-14.25l3.85-4.25q31.3 17.7 56.55 10.85Q123 234.15 130 226.5m-32.65 47.15q5.65 8.5 8.6 18.65 2.9 9.9 2.75 17.6.15-7.7-2.75-17.6-2.95-10.15-8.6-18.65-7.05-10.55-18.3-18.5 11.25 7.95 18.3 18.5 3.05-4.75 6.9-9.9 7.7-10.35 11.9-12.4-4.2 2.05-11.9 12.4-3.85 5.15-6.9 9.9"/><path fill="url(#g)" d="M124 216.4q3.9 5.35 6 10.1-7 7.65-19.65 11.05Q85.1 244.4 53.8 226.7q.15-1.4 1-3.2 1.75-3.45 5.5-5.2l.3.1.1.05 8 3.1q9.55 2.65 18.25 3.85 27.3 3.7 36.65-8.7l.4-.3"/><path fill="url(#h)" d="M60.6 218.4v-.1l.1.15-.1-.05"/><path fill="url(#i)" d="M80.35 355.9l-3.45-5.75.15-.1q.9-1.1 2.45-2.35 3.3-2.7 6.9-4.1 11.45-4.55 21.5 5.75l-.4 5.75 1.15 3.2q1.25 4.4 1.65 10.35 1.15 19.05-7 46.55l-.3 14.95q0 16.05 1.45 21.8v5.75l-.75 9.15 4.55 14.4q3.65 14.65-1.15 15.85L88 501.7l-7.3-4.2-3.45-5.75 7.3-32.15.75-6.15.05-3.85q.3-4.2 1.5-6.1l-.75-24.85q-4.85-10.05-8.05-22.9-6.3-25.7 2.3-39.85"/><path fill="url(#j)" d="M145 340.95l1.25 7.6 2.15 2.4q2.55 3.3 4.8 8.05 7.1 15.15 8 38.75l7.6 18.95q8.85 20.25 15.15 26.65l.75 3.15 8.95 6.05q8.85 6.9 8.2 11.35-.6 4.45-5.25 13.1l-4.55 7.75q-1.75 2.2-4.15 3.25-4.7 2.05-7.6-3.75-2.9-5.8-5.55-13.9l-2.05-6.9-2.2-10.05q-2.35-.95-4.7-2.95-4.65-3.9-4.35-8.8-1.9-6.35-4.8-13.95-5.75-15.2-10.65-21.35-7.45-5.85-14.35-14.8-13.8-17.8-10.9-32.95l-4.15-5.9q2-5.1 6.75-8.95 9.4-7.7 21.65-2.8"/><path fill="url(#k)" d="M104.8 105.3l-2.05 4.65q-.75 1.5-5-.65-4.15-2.1-9.2-5.7-9.15-6.5-12.2-12.4l.1-.8-1.05-4.3q1.5-1.25 3.7-2.75 5.35-3.7 10.45-6 6.55-2.9 11.95-2.95.6 3.35 1.55 5.1.45 2.7-1.1 3.7l-1.65.45q-1.75-1.55-3.45-1.3l-1.4.55 1.4-.55q1.7-.25 3.45 1.3l1.65-.45q1.55-1 1.1-3.7-.95-1.75-1.55-5.1 7.35-.15 12.6 5.1l.05.1q.2 2.3-.85 4.7l-9.45 16.25.95 4.75M94 82.85q-1.1-1.1-.65-2.35l.65-1-.65 1q-.45 1.25.65 2.35m-2.65 6.3v.05l.6.2.15.05-.05.05.4 1q.7 1 5.35 2.4 4.6 1.3 6.4-3.65l.5-.25q-2.75-2.25-8.35-1.3l-5 1.45h-.1l.1.05-.1-.05h.1m.7.35l-.1-.1.1.1M104 82.7q.7-.7.5-2.3l-.35-1.45.35 1.45q.2 1.6-.5 2.3"/><path fill="#630" d="M113.95 63.2l.05.35h-.05l-.15-.25-.05-.05-1.2-1.45q-1.9-1.45-2.6-1.7-.65-.25-3.7 1-3.1 1.25-4.75 3.45-.75-1.45-.6-1.75l7.55-3.9 2 .15q1.75 1.25 3.35 3.8v.05l.15.3M84.8 60.1q-.8.35-2.95 2.2l-2.25 3.1q2.1-4.45 4.55-6.45l2.4-.4 9.15 4.15q.25.4-.6 2.15-2.1-2.5-5.8-3.8-3.7-1.3-4.5-.95"/><path fill="#2B1500" d="M104.5 65.55l.6-.85.05-.1.5-.85.5.15.15.2.1.1.2.35h.1l.25-.3.15-.4.4-.4q.25 0 .4.15l.1.15.05.45.3-.4.1-.1.55-.35.1.05v.75l.3-.15.1-.05.35-.35.05.05v.55l-.1.55.1-.1.3-.25.5-.55.1 1.05v.15l.05-.05.75-.55-.2 1.15.75-.4v.1l-.4 1.1-.25.35-.45-.65-1.25-.9-.6-.3-1.55-.3h-.3q-1.4.05-2.85.95m6.5 2.95l-.35.35-.05-.2q-.35.2-.55.7-.1-.35-.4-.35l-.3.25-1.25-.1-2-.45q2.45.3 4.35-.55l1.5-.95.65.4.05.45-.7-.2-.15.75v.05q-.05-.5-.6-.55l-.2.4m-21.6-3.9l.2-.2q.35-.25.55-.25l.7 1 .2.25.65.8.05.1q-2.05-1.1-3.8-1-1.05.05-1.95.45-1.2.55-2.05 1.55l-.55.75-.3-.4-.55-1.25v-.1l.9.4-.3-1.35.9.65.05.05v-.15l.1-1.25.65.55.35.35.1.1-.1-.65-.1-.4v-.25l.1-.1.4.35.1.1.35.15v-.9l.15-.05q.45 0 .65.35l.1.15.4.45v.1-.1q-.1-.3.05-.5l.1-.2q.2-.25.45-.25l.5.5.3.5.25.25h.1q0-.2.15-.35l.15-.2m-5.3 5.55l-.2-.5q-.65.1-.75.7v-.1l-.2-.8-.8.2v-.5q.5-.5.8-.5l1.8 1q2.25.9 5.2.4l-2.35.65-1.45.2-.45-.3q-.35 0-.4.5l-.7-.85-.1.25-.4-.35"/><path fill="url(#l)" d="M107.35 64.6h.3l1.55.3.6.3q.45.5.45 1.25 0 .65-.35 1.15l-.55.25-1.65.25-.65.05-.3-.25q-.6-.6-.6-1.45t.6-1.45q.25-.25.6-.4m1.75.85q-.3-.25-.75-.25-.5 0-.9.35-.35.4-.35.9t.35.85q.4.4.9.4t.85-.4q.4-.35.4-.85l-.1-.45v-.05l.1-.25-.1-.2-.25-.1-.15.05"/><path d="M109.1 65.45l-.05.05-.1.2.1.25.2.1.25-.05.1.45q0 .5-.4.85-.35.4-.85.4t-.9-.4q-.35-.35-.35-.85t.35-.9q.4-.35.9-.35.45 0 .75.25m-18.05 1.7v.3q0 .6-.45 1-.35.45-1 .45t-1.1-.45q-.4-.4-.4-1 0-.65.4-1.1.45-.4 1.1-.4.65 0 1 .4l.2.2-.2.1-.1.2.1.25.2.1.25-.05"/><path fill="#fff" d="M91.05 67.15l-.25.05-.2-.1-.1-.25.1-.2.2-.1.25.1.1.2-.1.25v.05m18.05-1.7l.15-.05.25.1.1.2-.1.25V66l-.25.05-.2-.1-.1-.25.1-.2.05-.05"/><path fill="url(#m)" d="M109.8 65.2l1.25.9.45.65.1.1-1.7.75q.35-.5.35-1.15 0-.75-.45-1.25"/><path fill="url(#n)" d="M104.5 65.55q1.45-.9 2.85-.95-.35.15-.6.4-.6.6-.6 1.45t.6 1.45l.3.25-2-.1H105l-2.9-.6q1.2-1.15 2.3-1.85h.05l.05-.05"/><path fill="url(#o)" d="M83.4 68.05l.55-.75q.85-1 2.05-1.55.9-.4 1.95-.45l-.35.25q-.75.75-.75 1.8t.75 1.8l.35.3-1.95-.2-2.7-1.05.1-.15"/><path fill="url(#p)" d="M87.95 65.3q1.75-.1 3.8 1l.2 1.05q0 1.05-.75 1.8l-.05.05-3.2.25-.35-.3q-.75-.75-.75-1.8t.75-1.8l.35-.25m2.85 1.25l-.2-.2q-.35-.4-1-.4t-1.1.4q-.4.45-.4 1.1 0 .6.4 1 .45.45 1.1.45.65 0 1-.45.45-.4.45-1v-.35l.1-.25-.1-.2-.25-.1"/><path fill="url(#q)" d="M91.2 69.15q.75-.75.75-1.8l-.2-1.05h.05l2.75 2-3.35.9v-.05"/><path fill="url(#r)" d="M91.35 89.2v-.05l5-1.45q5.6-.95 8.35 1.3l-.5.25-1.15.5-1.65.15-1.55.8-4.3-.95-3.45-.3-.15-.05-.6-.2"/><path fill="url(#s)" d="M92.1 89.45l3.45.3 4.3.95 1.55-.8 1.65-.15 1.15-.5q-1.8 4.95-6.4 3.65-4.65-1.4-5.35-2.4l-.4-1 .05-.05"/><path fill="url(#t)" d="M76.35 91.2l-3.3 19.9-18.75 6.7q-3.1-.35-7.15 0-8.05.75-12.55 4.35 5.15-7.05 10.3-15.15l.1-.1-4.1 4.35q-5.05 4.75-10.15 6.55l-11.05-6.25q6.15-1.9 13.1-6.25 13.95-8.6 18.15-20.65 1.2-3.45 4.8-17.9 3.2-12.9 6.15-19.85 9.3-22.15 27.5-16.1l4.5-1.9q5.25-.95 14.65 1.5 9.35 2.4 10.65 25.4l.55 17.45q1.35 18.5 5.25 23.9l8.65 13.95-3.15-.15-.5-.05-13.45-.7-1.65-.1-1.45-.35-8.2-2.05-.45-2.4-.95-4.75 9.45-16.25q1.05-2.4.85-4.7l-.05-.55-.05-.3h.05l1.1.2.25.05.9-2.75-.05-1.55-.1-1.6-.75-1.5 1.25-2.55.15-.8.1-.6.15-.85-.15-1.5-.1-1.05-.9-.6-1.65 8.7-.3-8.8-.05-.35.05-.95v-.5l.2-3.9q.35-2.5-.3-5.35-.55-2.25-1.65-4.7-2.6-5.65-14-1.05-7-2.8-13.1-.9-12.2 3.7-10.8 26.25-.35-3-2.65-5.35-2.3-2.4-4.45-1.2-2.15 1.15-2.05 3.1l.1.75q.15 1.45.6 2.6l.05.05q2.45 2.75 3.55 7.1l4.1-.3 1.8 7.25 1.05 4.3-.1.8M55.3 84.65q.65 4.95-10.3 22.25 10.95-17.3 10.3-22.25"/><path fill="none" stroke="#8E5027" stroke-width=".05" stroke-linecap="round" stroke-linejoin="round" d="M113.8 62.85V62.7l.05-.6q.5-5.7.15-8.15l-.1-1.45m.1 8.75v.5m-.2 1.1q-1.6-2.55-3.35-3.8l-2-.15-7.55 3.9q-.15.3.6 1.75 1.65-2.2 4.75-3.45 3.05-1.25 3.7-1 .7.25 2.6 1.7l1.2 1.45.05.05.15.25h.05m-9.5 2q1.45-.9 2.85-.95h.3l1.55.3.6.3 1.25.9.45.65.1.1-1.7.75-.55.25-1.65.25-.65.05-2-.1H105l-2.9-.6q1.2-1.15 2.3-1.85l.1-.05-.05.05.05-.05m4.9-1.55l-.3-.05m.8.25l.3.2m-1.85-.6l-.35-.05m1.8 1.45q.45.5.45 1.25 0 .65-.35 1.15m-2.85.55l-.3-.25q-.6-.6-.6-1.45t.6-1.45q.25-.25.6-.4m3.45.3l.05.1m-6.45.6h.05m.7-1q-1.3.7-2.65 1.8m4.6-2.55l-.8.25m10.65 3.55V65.3m-3-2.1l-.15-.3v-.05m-.05.85v-.15l.05-.25m.15.25l-.2.15-.1.4-.05.4.15-1.25m.15 4.3q.4 4.75.25 10.95l1.05.45m-1.6-14.2v-.1l-.05-.15-.05.2v.05l-.4 1.6m.5-1.6l.3 2.8m-.3-2.9v-.15m.4-2.25l-.1-.15m2.4 12.6l-.45-1.9-.55-1.1 1.55-3.45M84.8 60.1q-.8.35-2.95 2.2l-2.25 3.1q2.1-4.45 4.55-6.45l2.4-.4 9.15 4.15q.25.4-.6 2.15-2.1-2.5-5.8-3.8-3.7-1.3-4.5-.95m6.05 5.05q1.5.7 3.2 1.95m-4.65-2.5l-.95-.2m-5.05 3.65l.55-.75q.85-1 2.05-1.55.9-.4 1.95-.45 1.75-.1 3.8 1h.05l-.1-.1-.5-.65-.15-.15m-4.1-1l.45-.05m-1.7.35l.35-.1m-2 1.4l.05-.1m.75-.7l.35-.2m-1.8 3.05l-.1.15 2.7 1.05 1.95.2 3.2-.25.05-.05m0 .05l3.35-.9-2.75-2m-.6 2.9h-.05m4.3 13.7l1.4-.55q1.7-.25 3.45 1.3l1.65-.45q1.55-1 1.1-3.7-.95-1.75-1.55-5.1-.65-3.4-.95-8.45M94 79.5l-.65 1q-.45 1.25.65 2.35m-2.65 6.35l.6.2.15.05 3.45.3 4.3.95 1.55-.8 1.65-.15 1.15-.5.5-.25q-2.75-2.25-8.35-1.3l-5 1.45h-.1l.1.05m.6.2l.1.1m12.15-.25q-1.8 4.95-6.4 3.65-4.65-1.4-5.35-2.4l-.4-1m22.05-10.75l.05-.25m-.05 1v-.45m-9.95-.1l.35 1.45q.2 1.6-.5 2.3M65.3 69.4l.65 2.65"/><path fill="none" stroke="#8A6926" stroke-width=".05" stroke-linecap="round" stroke-linejoin="round" d="M113.9 62.1l.1-.85"/><path fill="none" stroke="#1D1D1D" stroke-width=".05" stroke-linecap="round" stroke-linejoin="round" d="M130.5 110.95l10.35 4.05 3.85 5.95 7.85 50.9 3.05 6.35 3.3 8.7q-5.05 3.65-10.15 8.2-10.15 9.05-10.35 13.55l-2.35-7.3q-2.2-7.15-1.9-10.9l-.2-.35-3.65-5.9q-3-5.2-3.55-7.25l-5.55 28.65 2.4 11.1q-9.35 12.4-36.65 8.7-8.7-1.2-18.25-3.85l-8-3.1m-.1-.15q.25-5.7 2.4-8.2l.35-3.85-.2-.25q-5.3-6.1-10.2-21.9l-3.9-16.05m-.05-.25l-.6-1.65-4.35 19.6-3.95 14.8L38.9 215q0-3.8-10.85-9.8l-10.85-5.3 4.2-8.7 3.65-33.2q-7.35-24.3 10.65-34.35 9.05-5 19.5-5.15l17.9-6.8 3.3 9.4q4.1 11.4 8.45 21.1 13.8 31.1 24.15 34.15l.85-2.15m.1-.2q4.7-12.7 5.75-26.2 1.75-22.8-8.6-39l6.35.95m-65.05 56.4q-2.75-8.75 2.7-21.15 1.85-4.35 4.5-8.6l2.3-3.4M49 167.8l.1.25q3.15 7.25 12.4 11.05l3.1 1.7q4 1.75 8.3 2 13.7.75 25.4-13.95m-49.9-2.7l.45-2.1M130 110.9h-8.65l-4.8-.7m10.1 65.85l.1.85q7.95-1.8 12.85-10.45 2.05-2.1 2.15-6.6.2-8.95-9.4-20.85-1.5-2.7-3.05-6.05-3.05-6.7-3.25-9.9M109.95 174l3.15 1.45q3.9 1.5 7.7 1.8l5.95-.35v.05m-63.4 29.3l.8.85"/><path fill="none" stroke="#666D07" stroke-width=".05" stroke-linecap="round" stroke-linejoin="round" d="M123.6 216.7l.3-.45.1.15m-63.7 1.9l.3.1v-.1m-11.55-50.25l-.05-.25m60.85 6.4l.1-.2M60.7 218.45l-.1-.05"/><path fill="none" stroke="#4B2C21" stroke-width=".05" stroke-linecap="round" stroke-linejoin="round" d="M124 216.4q3.9 5.35 6 10.1l2.65 3.05q3.2 4.45 5.8 11.5 8.3 22.7 7.7 63.15-6.3-3.35-14.1-4.3-15.55-1.9-23 10m-.35 0l-.15 2.4q-14.3-8.05-34.25-4.8-6.25 1-12.35 3l-4.8 1.8q-19.35-40.45-13.3-67.1 1.9-8.3 6.1-14.25l3.85-4.25q.15-1.4 1-3.2 1.75-3.45 5.5-5.2m18.75 36.85q11.25 7.95 18.3 18.5 3.05-4.75 6.9-9.9 7.7-10.35 11.9-12.4m-7.45 58.55q.15-7.7-2.75-17.6-2.95-10.15-8.6-18.65M53.8 226.7q31.3 17.7 56.55 10.85Q123 234.15 130 226.5"/><path fill="none" stroke="#29261D" stroke-width=".05" stroke-linecap="round" stroke-linejoin="round" d="M76.35 91.2l-3.3 19.9-18.75 6.7q-3.1-.35-7.15 0-8.05.75-12.55 4.35 5.15-7.05 10.3-15.15l.1-.1-4.1 4.35q-5.05 4.75-10.15 6.55l-11.05-6.25q6.15-1.9 13.1-6.25 13.95-8.6 18.15-20.65 1.2-3.45 4.8-17.9 3.2-12.9 6.15-19.85 9.3-22.15 27.5-16.1l4.5-1.9q5.25-.95 14.65 1.5 9.35 2.4 10.65 25.4l.55 17.45q1.35 18.5 5.25 23.9l8.65 13.95-3.15-.15-.5-.05-13.45-.7-1.65-.1-1.45-.35-8.2-2.05-.45-2.4-2.05 4.65q-.75 1.5-5-.65-4.15-2.1-9.2-5.7-9.15-6.5-12.2-12.4l.1-.8-1.05-4.3-1.8-7.25-4.1.3q-1.1-4.35-3.55-7.1L65.9 72q-.45-1.15-.6-2.6l-.1-.75q-.1-1.95 2.05-3.1 2.15-1.2 4.45 1.2 2.3 2.35 2.65 5.35-1.4-22.55 10.8-26.25 6.1-1.9 13.1.9 11.4-4.6 14 1.05 1.1 2.45 1.65 4.7.65 2.85.3 5.35l-.2 3.9v.5l-.05.95.05.35.3 8.8 1.65-8.7.9.6.1 1.05.15 1.5-.15.85-.1.6-.15.8-1.25 2.55.75 1.5.1 1.6.05 1.55-.9 2.75-.25-.05-1.1-.2h-.05l.05.3.05.55q.2 2.3-.85 4.7l-9.45 16.25.95 4.75m-3.3-30.9q-5.4.05-11.95 2.95-5.1 2.3-10.45 6-2.2 1.5-3.7 2.75m38.7-6.6l.05.1m-12.65-5.2q7.35-.15 12.6 5.1M45 106.9q10.95-17.3 10.3-22.25M80.35 355.9l-3.45-5.75.15-.1q.9-1.1 2.45-2.35 3.3-2.7 6.9-4.1 11.45-4.55 21.5 5.75l-.4 5.75 1.15 3.2q1.25 4.4 1.65 10.35 1.15 19.05-7 46.55l-.3 14.95q0 16.05 1.45 21.8v5.75l-.75 9.15 4.55 14.4q3.65 14.65-1.15 15.85L88 501.7l-7.3-4.2-3.45-5.75 7.3-32.15.75-6.15.05-3.85q.3-4.2 1.5-6.1l-.75-24.85q-4.85-10.05-8.05-22.9-6.3-25.7 2.3-39.85M145 340.95l1.25 7.6 2.15 2.4q2.55 3.3 4.8 8.05 7.1 15.15 8 38.75l7.6 18.95q8.85 20.25 15.15 26.65l.75 3.15 8.95 6.05q8.85 6.9 8.2 11.35-.6 4.45-5.25 13.1l-4.55 7.75q-1.75 2.2-4.15 3.25-4.7 2.05-7.6-3.75-2.9-5.8-5.55-13.9l-2.05-6.9-2.2-10.05q-2.35-.95-4.7-2.95-4.65-3.9-4.35-8.8-1.9-6.35-4.8-13.95-5.75-15.2-10.65-21.35-7.45-5.85-14.35-14.8-13.8-17.8-10.9-32.95l-4.15-5.9q2-5.1 6.75-8.95 9.4-7.7 21.65-2.8"/></svg>