<svg xmlns="http://www.w3.org/2000/svg" viewBox="-6.6 -4.2 215.8 487.6" width="215.8" height="487.6" preserveAspectRatio="xMinYMin"><defs><linearGradient gradientUnits="userSpaceOnUse" x1="-819.2" x2="819.2" gradientTransform="matrix(-.005 .011 -.005 -.002 131.3 48.05)" id="a"><stop offset="0" stop-color="#D98651"/><stop offset=".533" stop-color="#DFA168"/><stop offset="1" stop-color="#D98651"/></linearGradient><linearGradient gradientUnits="userSpaceOnUse" x1="-819.2" x2="819.2" gradientTransform="matrix(-.008 -.05 .037 -.006 99.8 41.9)" id="b"><stop offset="0" stop-color="#D98651"/><stop offset=".533" stop-color="#DFA168"/><stop offset="1" stop-color="#D98651"/></linearGradient><radialGradient gradientUnits="userSpaceOnUse" r="819.2" cx="0" cy="0" spreadMethod="pad" gradientTransform="matrix(.002 0 0 .002 123.35 40.6)" id="c"><stop offset=".682" stop-color="#630"/><stop offset="1"/></radialGradient><linearGradient gradientUnits="userSpaceOnUse" x1="-819.2" x2="819.2" gradientTransform="matrix(-.003 .001 0 -.002 117.2 41.45)" id="d"><stop offset="0" stop-color="#fff"/><stop offset="1" stop-color="#666"/></linearGradient><linearGradient gradientUnits="userSpaceOnUse" x1="-819.2" x2="819.2" gradientTransform="matrix(.002 0 0 .002 127.35 40.8)" id="e"><stop offset="0" stop-color="#fff"/><stop offset="1" stop-color="#666"/></linearGradient><linearGradient gradientUnits="userSpaceOnUse" x1="-819.2" x2="819.2" gradientTransform="matrix(-.004 0 0 -.003 93.55 42.15)" id="f"><stop offset="0" stop-color="#fff"/><stop offset="1" stop-color="#666"/></linearGradient><radialGradient gradientUnits="userSpaceOnUse" r="819.2" cx="0" cy="0" spreadMethod="pad" gradientTransform="matrix(.003 0 0 .003 100.35 41.65)" id="g"><stop offset=".682" stop-color="#630"/><stop offset="1"/></radialGradient><linearGradient gradientUnits="userSpaceOnUse" x1="-819.2" x2="819.2" gradientTransform="matrix(.003 0 0 .002 105.15 41.95)" id="h"><stop offset="0" stop-color="#fff"/><stop offset="1" stop-color="#666"/></linearGradient><radialGradient gradientUnits="userSpaceOnUse" r="819.2" cx="0" cy="0" spreadMethod="pad" gradientTransform="matrix(.045 0 0 .045 116.2 72)" id="i"><stop offset="0" stop-color="#f00"/><stop offset="1"/></radialGradient><radialGradient gradientUnits="userSpaceOnUse" r="819.2" cx="0" cy="0" spreadMethod="pad" gradientTransform="matrix(.009 0 0 .009 79.4 69.6)" id="j"><stop offset="0" stop-color="#f00"/><stop offset="1"/></radialGradient><linearGradient gradientUnits="userSpaceOnUse" x1="-819.2" x2="819.2" spreadMethod="unknown" gradientTransform="matrix(.025 0 0 .016 72.15 204.6)" id="k"><stop offset="0" stop-color="#3F1F1F"/><stop offset=".239" stop-color="#6C4824"/><stop offset="1" stop-color="#4A2724"/></linearGradient><linearGradient gradientUnits="userSpaceOnUse" x1="-819.2" x2="819.2" spreadMethod="unknown" gradientTransform="matrix(.011 -.104 .131 .014 111.85 157.35)" id="l"><stop offset=".071" stop-color="#ccc"/><stop offset=".388" stop-color="#EBEBEB"/><stop offset=".929" stop-color="#fff"/></linearGradient><linearGradient gradientUnits="userSpaceOnUse" x1="-819.2" x2="819.2" spreadMethod="unknown" gradientTransform="matrix(.012 0 0 .014 138.75 204.85)" id="m"><stop offset="0" stop-color="#3F1F1F"/><stop offset=".239" stop-color="#6C4824"/><stop offset="1" stop-color="#4A2724"/></linearGradient><radialGradient gradientUnits="userSpaceOnUse" r="819.2" cx="0" cy="0" spreadMethod="pad" gradientTransform="matrix(.026 0 0 .026 111.3 211.55)" id="n"><stop offset="0" stop-color="#AEAEAE"/><stop offset="1" stop-color="#4D4D4D"/></radialGradient><linearGradient gradientUnits="userSpaceOnUse" x1="-819.2" x2="819.2" spreadMethod="unknown" gradientTransform="matrix(.078 .01 -.011 .088 106.25 283.15)" id="o"><stop offset="0" stop-color="#3F1F1F"/><stop offset=".239" stop-color="#6C4824"/><stop offset="1" stop-color="#4A2724"/></linearGradient><linearGradient gradientUnits="userSpaceOnUse" x1="-819.2" x2="819.2" spreadMethod="unknown" gradientTransform="matrix(.018 0 0 .013 111 212.35)" id="p"><stop offset="0" stop-color="#3F1F1F"/><stop offset=".239" stop-color="#6C4824"/><stop offset="1" stop-color="#4A2724"/></linearGradient><linearGradient gradientUnits="userSpaceOnUse" x1="-819.2" x2="819.2" spreadMethod="unknown" gradientTransform="matrix(-.036 .003 -.007 -.085 62.6 413.5)" id="q"><stop offset=".071" stop-color="#333"/><stop offset=".388" stop-color="#302B1B"/><stop offset=".929" stop-color="#333"/></linearGradient><linearGradient gradientUnits="userSpaceOnUse" x1="-819.2" x2="819.2" spreadMethod="unknown" gradientTransform="matrix(-.049 .004 -.006 -.073 162.6 406.95)" id="r"><stop offset=".071" stop-color="#333"/><stop offset=".388" stop-color="#302B1B"/><stop offset=".929" stop-color="#333"/></linearGradient></defs><path fill="url(#a)" d="M130.05 44.9l.5 3.45 1.4-10.5.7 17.4-1.4 2.1-.7.3-.3.1-.25-.25-.45-.15.6-6.2-.1-6.25"/><path fill="url(#b)" d="M130.05 44.9l.1 6.25-.6 6.2-5.05-1.6-3.55-.1-12.5-.35-1.7.45.35-.65-.35.65L81.2 62l-.25-.1-.4-.75-1.45.5-.15-.15Q77.3 59.75 75 56.05l-.55-1.45-2.3-4.25-1.8-2.7q-.7-1.3-.9-2.3l-.2-.6q-.8-3.1.6-5.55l.1-.15q1.1-1.15 2.95-.95.75 0 1.55.35l.05.05 1.5 1.05.2.2L77.25 41q2.05 7.2 2.05 9.1 0 2.5 1.55-1.65 1.55-4.1 1.55-10.4 0-10.15.55-15.65.5-5.5 5.65-4.8l11.75 1.9 8.75 1.8 2.85.8q.8.1 2.75-3.05 6-3.6 8.3-3.8l1.65.15.75 2.05 1.4 5.8q.9 3.25 1.9 9.6l.45 3.1q-.7-1.65-1.5-1.9l-2.1-.1-1.95.25-1.4.75-1-.45-1.9 1.4-.05-.95-2.05 1.1-.55-.9-1.05.75-1.4-1.1 1.75 4.3q3.2-1.05 10.6-2.35l1.6 1 1.35 1.3.05 1.05q0 1.05.5 4.75v.05m-12.55-4.05q3.7-3.95 7.45-2.65 1.2.45 2.2 1.3l.8.8-.8-.8q-1-.85-2.2-1.3-3.75-1.3-7.45 2.65m6.65-1.25h.05l-.1.05.05-.05m-1.75 2.75h.2l2.05-.25 1.05-.25.1-.05 1.7-.15-1.7.15-.1.05 1.45-.7-.6-.85q-.5-.5-1.45-.9l-1.7-.55q-.55-.15-1.2 0-2.05.3-4.85 2.85l3.7.55 1.35.1h.2-.2m-22.95-7.4l-1.7-.8L95.4 34l-2.5.35q-1 .4-1.85 2.95-.9 2.55-.45 4.4.15-1.35 2-2.95l1.85-1.3q8.9.95 12.75 1.95l1.75-5.25-1.55 1.4-1.35-.8-.6 1.15-2.5-1.15v1.15l-2.35-1.55-1.15.6m-.35 4.5l-.75.15q-2.75.85-3.6 1.95l-.65 1.05 2.55.9 2.4.2h.15l2.2-.25.5-.05 3.85-.95-.6-.45q-4.35-4.8-8.7-2.95-1.4.55-2.55 1.7l-.9 1 .9-1q1.15-1.15 2.55-1.7 4.35-1.85 8.7 2.95-1.55-1.15-2.85-1.75-1.8-.9-3.2-.8m5.2 4.75l-3.3-.35-1.8-.15 1.8.15 3.3.35m-10.65-.85l2.05.05.95.1-.95-.1-2.05-.05m27.3 12.3q.2-2.1-2.5-7.4l-4.35-7.4 4.35 7.4q2.7 5.3 2.5 7.4m-9.8-5.65q.45-2.8-.45-6.1l-1.05-2.8 1.05 2.8q.9 3.3.45 6.1m7.5-7l3.8-.65-3.8.65M76.2 39.75l-1.7-1.25 1.7 1.25"/><path fill="#630" d="M129.15 35.95l.35 3.1-1.35-1.3-1.6-1q-7.4 1.3-10.6 2.35l-1.75-4.3 1.4 1.1 1.05-.75.55.9 2.05-1.1.05.95 1.9-1.4 1 .45 1.4-.75 1.95-.25 2.1.1q.8.25 1.5 1.9m-29.7-1l1.15-.6 2.35 1.55v-1.15l2.5 1.15.6-1.15 1.35.8 1.55-1.4-1.75 5.25q-3.85-1-12.75-1.95l-1.85 1.3q-1.85 1.6-2 2.95-.45-1.85.45-4.4.85-2.55 1.85-2.95l2.5-.35 2.35.15 1.7.8"/><path d="M43.2 67.25l-.3.25-.1-.15q-1.3-2.15.4-.1M80.8 79.5l-.6-.2 1.55-2.35-.95 2.55m43.8-39.25v.2q0 .5-.35.85l-.8.3-.8-.3q-.35-.35-.35-.85 0-.45.35-.8.3-.35.8-.35.4 0 .7.3l-.05.05-.15.3.15.25.25.1.25-.05m-22.8 1.1v.3q0 .55-.4.95-.4.4-1 .4-.55 0-.95-.4-.4-.4-.4-.95 0-.6.4-1t.95-.4q.55 0 .95.35l-.2.05-.15.35.15.3.3.15.35-.1"/><path fill="#fff" d="M101.8 41.35l-.35.1-.3-.15-.15-.3.15-.35.2-.05.1-.05.35.1.15.35-.15.3v.05m22.4-1.75l.15-.05.3.1.1.3-.1.25-.05.05-.25.05-.25-.1-.15-.25.15-.3.1-.05"/><path fill="url(#c)" d="M124.2 39.6h-.05q-.3-.3-.7-.3-.5 0-.8.35-.35.35-.35.8 0 .5.35.85l.8.3.8-.3q.35-.35.35-.85v-.2l.05-.05.1-.25-.1-.3-.3-.1-.15.05m-1.8 2.75l-.5-.4q-.6-.6-.6-1.45t.6-1.45l.3-.2q.65-.15 1.2 0l1.7.55.3 1.1q0 .85-.6 1.45l-.15.15-2.05.25h-.2"/><path fill="url(#d)" d="M122.4 42.35l-1.35-.1-3.7-.55q2.8-2.55 4.85-2.85l-.3.2q-.6.6-.6 1.45t.6 1.45l.5.4"/><path fill="url(#e)" d="M124.65 42.1l.15-.15q.6-.6.6-1.45l-.3-1.1q.95.4 1.45.9l.6.85-1.45.7-1.05.25"/><path fill="url(#f)" d="M99.1 39.45q-.25.15-.5.4-.7.7-.7 1.7t.7 1.7l.6.45h-.15l-2.4-.2-2.55-.9.65-1.05q.85-1.1 3.6-1.95l.75-.15"/><path fill="url(#g)" d="M99.1 39.45q1.4-.1 3.2.8.4.55.4 1.3 0 1-.7 1.7l-.1.15-.5.05-2.2.25-.6-.45q-.7-.7-.7-1.7t.7-1.7q.25-.25.5-.4m2.25 1.15q-.4-.35-.95-.35-.55 0-.95.4-.4.4-.4 1 0 .55.4.95.4.4.95.4.6 0 1-.4t.4-.95v-.35l.15-.3-.15-.35-.35-.1-.1.05"/><path fill="url(#h)" d="M101.9 43.4l.1-.15q.7-.7.7-1.7 0-.75-.4-1.3 1.3.6 2.85 1.75l.6.45-3.85.95"/><path fill="#4B2601" d="M43.2 67.25q2.3 2.75 5.6 1.95 1.1-.3 9.2-4 5.2-2.35 7.4-15.7 1.15-6.65 1.2-12.85Q65.3 10.6 82.5.9q8.6-4.85 17.45-4.5 8.1-1.8 16.3 2.55Q132.6 7.65 133 38.4q.35 5.6 1.2 12.4 1.75 13.6 4.3 19.6 2.6 6.05 5.8 6.3 1.75.15 4.5-1.15.9-.15.8 1.15-.15 1.25-1.25 2.8-2.95 4.2-8.15 3.95-5.75-.25-2.9 1.75 2.9 2 7.7 2 5.6 0 7.5 1.1 2.2 1.3-3.2 3.35l-.15.05q-5.15 1.95-10.65 2.9l-3.8.2-7.25-7.75-2.75-2.95.3-2.7.15-1v-.05l.05-.5q.3-2.6 1.05-5.85l4.65-15.4-.25-.35.6-.9 1.4-2.1-.7-17.4-1.4 10.5-.5-3.45v-.05q-.5-3.7-.5-4.75l-.05-1.05-.35-3.1-.45-3.1q-1-6.35-1.9-9.6l-1.4-5.8-.1-1q0-.8-.65-1.05l-1.65-.15q-2.3.2-8.3 3.8-1.95 3.15-2.75 3.05l-2.85-.8-8.75-1.8-11.75-1.9q-5.15-.7-5.65 4.8-.55 5.5-.55 15.65 0 6.3-1.55 10.4-1.55 4.15-1.55 1.65 0-1.9-2.05-9.1l-1.05-1.25-.2-.2-1.5-1.05-.05-.05q-.8-.35-1.55-.35-1.85-.2-2.95.95l-.3.3q-1.45 1.7-.4 5.4l.2.6q.2 1 .9 2.3l1.4 2.75L75 56.05q2.3 3.7 3.95 5.45l.15.15 1.1.8Q78.55 64 77.5 65.8q-2.35 3.95 1.05 5.35L79 76.6q.15 3.6-.25 5.55l1.45-2.85.6.2-1.5 3.95q-.35 1.3-1.9 2.5-3.8 2.8-14.55 4.9l-2.05.3-6.25.8q4.95-.8 4.25-3.85-.75-3.2-5.65-2.95-4.1.25-6.95-5.2-1.05-1.95-.9-2.85.2-1 1.65.5 2.6 2.6 11.6-.9l1.15-.45.1-.05 2.55-1.35q.7-.7-2.75.6l-.25.05Q53 77.8 46.1 71.25q-2.05-2-3.2-3.75l.3-.25m88.75-29.4v-.15.15"/><path fill="#333" d="M60.8 91.15l2.05-.3q10.75-2.1 14.55-4.9 5.15 4.7 21.35 16.75l18.85 13.85 9.85-29.5 7.25 7.75 3.8-.2q5.5-.95 10.65-2.9l.15-.05 2.95 1.05h.35l13.5 8.85 6.15 10.8q0 3.45.75 7.65.75 8.5 2.7 11.55 1.9 3.1 7.7 24.25l5.75 20.4 1.55 12.65 7.3 34.65 3.85 16.5 1.8 3.85 5.5 11.95-3.85-3.85-11.15-3.1-18.05 4.65-12.7 5.35 4.6-9.2V235.4l-1.15-8.45-6.55-8.85-3.05-16.9v-5.8l-9.25-25-1.55-16.15-1.5 13.85-2.35 9.6-.35 5.4 3.1 10.05-.05.05-5.15 4.6q-6.2 4.6-11.35 4.65l-.1-.15q-1.8-3.45-7.25-3.45H100.7q-7 0-7.9 5.8-7.9-.6-16.45-2.55-17.05-3.9-20.15-10.6l-.5.2 1.15-2.45-.4-14.25L52 162.3l-.15-.35V162.35l-.4 2.3L48 165.8l-1.9 6.15-5 9.25-4.25 8.45 2.3 15v14.2l-4.6 9.65-.8 10.75 1 4.6 2.1 9.65 2.7 20.75-5.4-10.4L28.4 260l-35-9.6 5.35-3.45 1.9-3.1 1.6-2.65 1.9-8.1-3.45-8.85.75-22.3 4.65-19.6-1.55-9.65 1.55-4.2q1.5-5.4 1.5-11.55t3.5-19.6q1.9-6.55 3.85-11.95-2.35-13.05 5.35-20.4 3.85-3.8 8.45-4.6l8.85-1.55q8.5-1.5 10-1.15l13.2-6.55M80.2 79.3l-1.45 2.85q.4-1.95.25-5.55l-.45-5.45q-3.4-1.4-1.05-5.35 1.05-1.8 2.7-3.35l.6.3-.3-.6.7-.15 25.55-6.25 1.7-.45 12.5.35 3.55.1 5.05 1.6.45.15.25.25.4.5.25.35-4.65 15.4q-.75 3.25-1.05 5.85l-.2 1.55-2.35 8.95-2.3 7.85-3.55 2.45-2.9-3.75q-2.9-3.85-3.05-4.4-.2-.9-6.8-6.6L85.4 71.5l-.65-.5-.05-.05-3.9-8.2 3.9 8.2.05.05.65.5-2.65 3.95-1 1.5-1.55 2.35m67.65 125.55l.15.95-2.7 8.85-1.55-.8-5.35 1.95q-.8 0-1.95 1.55-1.5 1.5-2.3 1.5-.75 0-2.7.8-1.9 1.15-2.3 1.15v-.4l.1-3.5v-.35l6.75-2.3q7.55-3.4 11.55-8.8l.3-.6M55.3 213.5l-.75-.4h-.4l-4.6-6.9 1.95-5.2.25 1.1q7.8 9.9 25.3 13.75 8.75 1.9 15.95 1.85v3.1l-1.55.75H85.7l-12.3-.35-7.3-3.1-6.55-3.1-4.25-1.5M78.55 71.15l2.75.1 3.45-.25-3.45.25-2.75-.1m66.35 81.75q-5.25 13.65-13.8 25.2-5.8 8.1-12.7 14.25l-5.4 4.2Q78 175.4 59.15 132.7q-6.15-13.45-9.6-27.3l-1.95-7.7 1.95 7.7q3.45 13.85 9.6 27.3Q78 175.4 113 196.55l5.4-4.2q6.9-6.15 12.7-14.25 8.55-11.55 13.8-25.2l1.55.6v.75-.75l.4-1.95-1.25-.5v.05l-.7 1.8m-89.95-12.1L53 149.25l-1.15 12.7 1.15-12.7 1.95-8.45m97.65-48.1q.8 12.7 0 23.85v.4q-1.35 18.4-7 34.1 5.65-15.7 7-34.1v-.4q.8-11.15 0-23.85m2.7 38.5l-.35 11.15-8.1 9.2 8.1-9.2.35-11.15"/><path fill="url(#i)" d="M125.2 79.85l-.05.5v.05l-.15 1 .2-1.55"/><path fill="url(#j)" d="M80.5 62.15l.3.6-.6-.3.3-.3"/><path fill="url(#k)" d="M51.5 201q-.35-1.6-.15-3.35.45-4.45 4.35-5.95l.5-.2q3.1 6.7 20.15 10.6 8.55 1.95 16.45 2.55l-.05.1q-.15.85-.15 1.8l.4 11.15q-7.2.05-15.95-1.85-17.5-3.85-25.3-13.75l-.25-1.1"/><path fill="url(#l)" d="M144.9 152.9l.7-1.8v-.05l1.25.5-.4 1.95-1.55-.6"/><path fill="url(#m)" d="M145.4 193.35l.2.6.1.35q3.4 2.55 3 7-.15 1.95-.85 3.55l-.3.6q-4 5.4-11.55 8.8l-6.75 2.3.3-10q0-2.35-.75-4.1 5.15-.05 11.35-4.65l5.15-4.6.1.15"/><path fill="url(#n)" d="M92.8 204.65q.9-5.8 7.9-5.8h20.75q5.45 0 7.25 3.45l.1.15q.75 1.75.75 4.1l-.3 10v.35l-.1 3.5q-1.15 5.4-7.7 5.4H100.7q-6.55 0-7.7-5v-3.1l-.4-11.15q0-.95.15-1.8l.05-.1m32.75 14.2l.3-11.1q0-6.2-6.5-6.2H102.7q-6.5 0-6.5 6.2l.3 8.95v2.5q.95 4 6.2 4h16.65q5.3 0 6.2-4.35"/><path fill="url(#o)" d="M143.75 213.85l13.85 53.1 6.95 61.55-4.6 5.75-2.7 14.25q-5 2.7-20.4 4.6L120.7 355l-7.7-10.75-9.6-31.15v.4l-1.95 13.45-3.85 13.45-6.5 8.85-6.55 6.95q-4.25 0-17.3-3.1l-20-5.75q-1.15-.8-2.3-1.15v-.4l-9.65-18.1 3.1-22.7 5-18.8 4.2-45.8 7.7-26.9 4.25 1.5 6.55 3.1 7.3 3.1 12.3.35h5.75l1.55-.75q1.15 5 7.7 5h20.75q6.55 0 7.7-5.4v.4q.4 0 2.3-1.15 1.95-.8 2.7-.8.8 0 2.3-1.5 1.15-1.55 1.95-1.55l5.35-1.95m-34.6 72.35l-2.3 10-1.55 4.6-1.9 12.3 1.9-12.3 1.55-4.6 2.3-10"/><path fill="url(#p)" d="M125.55 218.85q-.9 4.35-6.2 4.35H102.7q-5.25 0-6.2-4v-2.5l-.3-8.95q0-6.2 6.5-6.2h16.65q6.5 0 6.5 6.2l-.3 11.1"/><path fill="url(#q)" d="M84.55 356.2q1.9-.4 2.3-1.2l-5.4 34.65Q76.1 425.8 76.1 432.7l-4.25 9.65 5.4 10q4.6 10.75 3.85 15-3.5 13.85-8.5 14.6l-18.05 1.55q-15.4.35-16.15-5-.4-5 2.7-13.5l7.65-18.45-1.9-13.05-1.15-29.25-6.15-35v-10q0-10.4 1.15-12.7 1.15-1.9 3.85-.75h.4v.4q1.15.35 2.3 1.15l20 5.75q13.05 3.1 17.3 3.1"/><path fill="url(#r)" d="M157.25 348.5l1.9-1.55 9.25 73.45 18.45 15.8 18.45 5.35 1.15 3.85q1.15 4.6.4 8.45-1.55 12.35-18.85 10.8l-13.85-8.85q-14.2-8.85-15-8.85l-6.9-.4q-5.8-1.15-6.55-3.85t.75-9.6l1.95-6.55-11.55-24.2-6.9-9.25q-7.35-10.75-8.85-18.1l-3.1-16.5.75-3.1 1.95-.4 16.15-1.9q15.4-1.9 20.4-4.6"/><path fill="none" stroke="#77411A" stroke-width=".05" stroke-linecap="round" stroke-linejoin="round" d="M124.65 15.4l.75 2.05m4.15 39.9l.6-6.2-.1-6.25m.2 12.85l.3-.1.7-.3m-62-12.6q-.8-3.1.6-5.55l.1-.15m4.55-.55l1.7 1.25M75 56.05l-.55-1.45-2.3-4.25-1.8-2.7M81.2 62l-.25-.1-.4-.75-1.45.5"/><path fill="none" stroke="#8E5027" stroke-width=".05" stroke-linecap="round" stroke-linejoin="round" d="M127.95 40.3l-.8-.8q-1-.85-2.2-1.3-3.75-1.3-7.45 2.65m4.9 1.5h.2l2.05-.25m.45-2.7l-1.7-.55q-.55-.15-1.2 0-2.05.3-4.85 2.85l3.7.55 1.35.1h.2m4.9-.7l-1.7.15-.1.05-1.05.25m.45-2.7q.95.4 1.45.9l.6.85-1.45.7m-26.6-2.4l-.75.15q-2.75.85-3.6 1.95l-.65 1.05 2.55.9 2.4.2h.15l2.2-.25.5-.05m.4-3.15q-1.8-.9-3.2-.8m-6.1 2.3l.9-1q1.15-1.15 2.55-1.7 4.35-1.85 8.7 2.95l.6.45-3.85.95m-5.25.1l-.95-.1-2.05-.05m5.55.35l1.8.15 3.3.35m.85-2.2q-1.55-1.15-2.85-1.75m7.35.85l1.05 2.8q.9 3.3.45 6.1m2.95-9.15l4.35 7.4q2.7 5.3 2.5 7.4m-13.85-.55l-.35.65m15.7-13.4l-3.8.65"/><path fill="none" stroke="#321A01" stroke-width=".05" stroke-linecap="round" stroke-linejoin="round" d="M149.3 91.65q5.4-2.05 3.2-3.35-1.9-1.1-7.5-1.1-4.8 0-7.7-2-2.85-2 2.9-1.75 5.2.25 8.15-3.95 1.1-1.55 1.25-2.8.1-1.3-.8-1.15-2.75 1.3-4.5 1.15-3.2-.25-5.8-6.3-2.55-6-4.3-19.6-.85-6.8-1.2-12.4-.4-30.75-16.75-39.45-8.2-4.35-16.3-2.55Q91.1-3.95 82.5.9q-17.2 9.7-15.9 35.75-.05 6.2-1.2 12.85-2.2 13.35-7.4 15.7-8.1 3.7-9.2 4-3.3.8-5.6-1.95m-.3.25q1.15 1.75 3.2 3.75Q53 77.8 59.35 75.5l.25-.05q3.45-1.3 2.75-.6L59.8 76.2l-.1.05-1.15.45q-9 3.5-11.6.9-1.45-1.5-1.65-.5-.15.9.9 2.85 2.85 5.45 6.95 5.2 4.9-.25 5.65 2.95.7 3.05-4.25 3.85l6.25-.8 2.05-.3q10.75-2.1 14.55-4.9 1.55-1.2 1.9-2.5l1.5-3.95m-.6-.2l-1.45 2.85q.4-1.95.25-5.55l-.45-5.45q-3.4-1.4-1.05-5.35 1.05-1.8 2.7-3.35l-1.1-.8-.15-.15Q77.3 59.75 75 56.05l-3.25-5.65-1.4-2.75q-.7-1.3-.9-2.3l-.2-.6q-1.05-3.7.4-5.4l.3-.3q1.1-1.15 2.95-.95.75 0 1.55.35l.05.05 1.5 1.05.2.2L77.25 41q2.05 7.2 2.05 9.1 0 2.5 1.55-1.65 1.55-4.1 1.55-10.4 0-10.15.55-15.65.5-5.5 5.65-4.8l11.75 1.9 8.75 1.8 2.85.8q.8.1 2.75-3.05 6-3.6 8.3-3.8l1.65.15q.65.25.65 1.05l.1 1 1.4 5.8q.9 3.25 1.9 9.6l.45 3.1.35 3.1.05 1.05q0 1.05.5 4.75v.05l.5 3.45 1.4-10.5v-.15.15l.7 17.4-1.4 2.1-.6.9.25.35-4.65 15.4q-.75 3.25-1.05 5.85l-.05.5v.05l-.15 1-.3 2.7 2.75 2.95 7.25 7.75 3.8-.2q5.5-.95 10.65-2.9l.15-.05"/><path fill="none" stroke="#1B1B1B" stroke-width=".05" stroke-linecap="round" stroke-linejoin="round" d="M149.3 91.65l2.95 1.05h.35l13.5 8.85 6.15 10.8q0 3.45.75 7.65.75 8.5 2.7 11.55 1.9 3.1 7.7 24.25l5.75 20.4 1.55 12.65 7.3 34.65 3.85 16.5 1.8 3.85 5.5 11.95-3.85-3.85-11.15-3.1-18.05 4.65-12.7 5.35 4.6-9.2V235.4l-1.15-8.45-6.55-8.85-3.05-16.9v-5.8l-9.25-25-1.55-16.15-1.5 13.85-2.35 9.6-.35 5.4 3.1 10.05M55.7 191.7l1.15-2.45-.4-14.25L52 162.3l-.15-.35V162.35l-.4 2.3L48 165.8l-1.9 6.15-5 9.25-4.25 8.45 2.3 15v14.2l-4.6 9.65-.8 10.75 1 4.6 2.1 9.65 2.7 20.75-5.4-10.4L28.4 260l-35-9.6 5.35-3.45 1.9-3.1 1.6-2.65 1.9-8.1-3.45-8.85.75-22.3 4.65-19.6-1.55-9.65 1.55-4.2q1.5-5.4 1.5-11.55t3.5-19.6q1.9-6.55 3.85-11.95-2.35-13.05 5.35-20.4 3.85-3.8 8.45-4.6l8.85-1.55q8.5-1.5 10-1.15l13.2-6.55m60.15-35.5l3.55.1 5.05 1.6.45.15.25.25.4.5m-23.9-2.5l1.7-.45 12.5.35m-14.2.1L81.2 62l-.7.15.3.6 3.9 8.2.05.05.65.5 18.65 14.4q6.6 5.7 6.8 6.6.15.55 3.05 4.4l2.9 3.75 3.55-2.45 2.3-7.85L125 81.4l.2-1.55M47.6 97.7l1.95 7.7q3.45 13.85 9.6 27.3Q78 175.4 113 196.55l5.4-4.2q6.9-6.15 12.7-14.25 8.55-11.55 13.8-25.2l.7-1.8v-.05q5.65-15.7 7-34.1v-.4q.8-11.15 0-23.85M51.85 161.95l1.15-12.7 1.95-8.45m.75 50.9l.5-.2q3.1 6.7 20.15 10.6 8.55 1.95 16.45 2.55.9-5.8 7.9-5.8h20.75q5.45 0 7.25 3.45l.1.15q5.15-.05 11.35-4.65l5.15-4.6.05-.05m1.5-41.6l8.1-9.2.35-11.15m-27.85-44.15l-9.85 29.5-18.85-13.85Q82.55 90.65 77.4 85.95m69.05 67.55l.4-1.95m-.4 2.7v-.75"/><path fill="none" stroke="#000" stroke-width=".05" stroke-linecap="round" stroke-linejoin="round" d="M145.35 193.15l.05.2.2.6M84.75 71l-3.45.25-2.75-.1m6.85.35l-2.65 3.95-1 1.5-.95 2.55m0-16.75l-.6-.3.3-.3m-37.3 5.1q-1.7-2.05-.4.1l.1.15m38.85 9.45L80.2 79.3"/><path fill="none" stroke="#431C12" stroke-width=".05" stroke-linecap="round" stroke-linejoin="round" d="M145.6 193.95l.1.35q3.4 2.55 3 7-.15 1.95-.85 3.55l-.3.6q-4 5.4-11.55 8.8l-6.75 2.3M51.5 201q-.35-1.6-.15-3.35.45-4.45 4.35-5.95m37.3 26q-7.2.05-15.95-1.85-17.5-3.85-25.3-13.75l-.25-1.1"/><path fill="none" stroke="#4C2924" stroke-width=".05" stroke-linecap="round" stroke-linejoin="round" d="M147.85 204.85l.15.95-2.7 8.85-1.55-.8 13.85 53.1 6.95 61.55-4.6 5.75-2.7 14.25 1.9-1.55 9.25 73.45 18.45 15.8 18.45 5.35 1.15 3.85q1.15 4.6.4 8.45-1.55 12.35-18.85 10.8l-13.85-8.85q-14.2-8.85-15-8.85l-6.9-.4q-5.8-1.15-6.55-3.85t.75-9.6l1.95-6.55-11.55-24.2-6.9-9.25q-7.35-10.75-8.85-18.1l-3.1-16.5.75-3.1 1.95-.4-7.7-10.75-9.6-31.15v.4l-1.95 13.45-3.85 13.45-6.5 8.85-6.55 6.95q1.9-.4 2.3-1.2l-5.4 34.65Q76.1 425.8 76.1 432.7l-4.25 9.65 5.4 10q4.6 10.75 3.85 15-3.5 13.85-8.5 14.6l-18.05 1.55q-15.4.35-16.15-5-.4-5 2.7-13.5l7.65-18.45-1.9-13.05-1.15-29.25-6.15-35v-10q0-10.4 1.15-12.7 1.15-1.9 3.85-.75h.4l-9.65-18.1 3.1-22.7 5-18.8 4.2-45.8 7.7-26.9-.75-.4h-.4l-4.6-6.9 1.95-5.2m77.75 15.55v.35l-.1 3.5v.4q.4 0 2.3-1.15 1.95-.8 2.7-.8.8 0 2.3-1.5 1.15-1.55 1.95-1.55l5.35-1.95m-14.5 2.7l.3-10q0-2.35-.75-4.1M93 217.7l-.4-11.15q0-.95.15-1.8l.05-.1m-37.5 8.85l4.25 1.5 6.55 3.1 7.3 3.1 12.3.35h5.75l1.55-.75v-3.1m36.15 2.7q-1.15 5.4-7.7 5.4H100.7q-6.55 0-7.7-5m10.4 92.3l1.9-12.3 1.55-4.6 2.3-10m-64.2 59.6v.4q1.15.35 2.3 1.15l20 5.75q13.05 3.1 17.3 3.1m36.15-1.2l16.15-1.9q15.4-1.9 20.4-4.6"/></svg>