<svg xmlns="http://www.w3.org/2000/svg" viewBox="39.6 -4.8 162.4 509.6" width="162.4" height="509.6" preserveAspectRatio="xMinYMin"><defs><linearGradient gradientUnits="userSpaceOnUse" x1="-819.2" x2="819.2" gradientTransform="matrix(.057 0 0 .043 95.05 147)" id="a"><stop offset="0" stop-color="#433423"/><stop offset=".533" stop-color="#806244"/><stop offset="1" stop-color="#433423"/></linearGradient><linearGradient gradientUnits="userSpaceOnUse" x1="-819.2" x2="819.2" gradientTransform="matrix(.014 0 0 .017 118.1 242)" id="b"><stop offset="0" stop-color="#433423"/><stop offset=".533" stop-color="#806244"/><stop offset="1" stop-color="#433423"/></linearGradient><linearGradient gradientUnits="userSpaceOnUse" x1="-819.2" x2="819.2" gradientTransform="matrix(.014 0 0 .017 117.85 242.25)" id="c"><stop offset="0" stop-color="#433423"/><stop offset=".533" stop-color="#806244"/><stop offset="1" stop-color="#433423"/></linearGradient><linearGradient gradientUnits="userSpaceOnUse" x1="-819.2" x2="819.2" gradientTransform="matrix(.01 0 0 .037 137.9 256.7)" id="d"><stop offset="0" stop-color="#433423"/><stop offset=".533" stop-color="#806244"/><stop offset="1" stop-color="#433423"/></linearGradient><linearGradient gradientUnits="userSpaceOnUse" x1="-819.2" x2="819.2" gradientTransform="matrix(.048 0 0 .013 91.5 227.6)" id="e"><stop offset="0" stop-color="#433423"/><stop offset=".533" stop-color="#806244"/><stop offset="1" stop-color="#433423"/></linearGradient><linearGradient gradientUnits="userSpaceOnUse" x1="-819.2" x2="819.2" gradientTransform="matrix(.021 0 0 .058 106 284.85)" id="f"><stop offset="0" stop-color="#433423"/><stop offset=".533" stop-color="#806244"/><stop offset="1" stop-color="#433423"/></linearGradient><linearGradient gradientUnits="userSpaceOnUse" x1="-819.2" x2="819.2" gradientTransform="matrix(.018 0 0 .022 75.15 249.3)" id="g"><stop offset="0" stop-color="#433423"/><stop offset=".533" stop-color="#806244"/><stop offset="1" stop-color="#433423"/></linearGradient><linearGradient gradientUnits="userSpaceOnUse" x1="-819.2" x2="819.2" gradientTransform="matrix(.014 0 0 .009 133.05 300.2)" id="h"><stop offset="0" stop-color="#433423"/><stop offset=".533" stop-color="#1C150F"/><stop offset="1" stop-color="#433423"/></linearGradient><linearGradient gradientUnits="userSpaceOnUse" x1="-819.2" x2="819.2" gradientTransform="matrix(.013 0 0 .04 52.25 260.45)" id="i"><stop offset="0" stop-color="#433423"/><stop offset=".533" stop-color="#806244"/><stop offset="1" stop-color="#433423"/></linearGradient><linearGradient gradientUnits="userSpaceOnUse" x1="-819.2" x2="819.2" gradientTransform="matrix(.023 0 0 .008 72 306.35)" id="j"><stop offset="0" stop-color="#433423"/><stop offset=".533" stop-color="#1C150F"/><stop offset="1" stop-color="#433423"/></linearGradient><linearGradient gradientUnits="userSpaceOnUse" x1="-819.2" x2="819.2" gradientTransform="matrix(.028 0 0 .106 87.95 417.6)" id="k"><stop offset="0" stop-color="#433423"/><stop offset=".533" stop-color="#806244"/><stop offset="1" stop-color="#433423"/></linearGradient><linearGradient gradientUnits="userSpaceOnUse" x1="-819.2" x2="819.2" gradientTransform="matrix(.056 0 0 .099 156.35 407.4)" id="l"><stop offset="0" stop-color="#433423"/><stop offset=".533" stop-color="#806244"/><stop offset="1" stop-color="#433423"/></linearGradient><linearGradient gradientUnits="userSpaceOnUse" x1="-819.2" x2="819.2" gradientTransform="matrix(.03 0 0 .043 89.55 67.5)" id="m"><stop offset="0" stop-color="#D98651"/><stop offset=".533" stop-color="#DFA168"/><stop offset="1" stop-color="#D98651"/></linearGradient><linearGradient gradientUnits="userSpaceOnUse" x1="-819.2" x2="819.2" gradientTransform="matrix(-.001 -.033 .002 0 114.95 49.3)" id="n"><stop offset="0" stop-color="#D98651"/><stop offset=".533" stop-color="#DFA168"/><stop offset="1" stop-color="#D98651"/></linearGradient><linearGradient gradientUnits="userSpaceOnUse" x1="-819.2" x2="819.2" gradientTransform="matrix(-.013 -.02 .025 -.017 64.7 6.95)" id="o"><stop offset="0" stop-color="#333"/><stop offset=".533" stop-color="#333"/><stop offset="1"/></linearGradient><linearGradient gradientUnits="userSpaceOnUse" x1="-819.2" x2="819.2" gradientTransform="matrix(.009 0 0 .006 79.65 30.95)" id="p"><stop offset="0" stop-color="#333"/><stop offset=".533" stop-color="#333"/><stop offset="1"/></linearGradient><linearGradient gradientUnits="userSpaceOnUse" x1="-819.2" x2="819.2" gradientTransform="matrix(-.02 -.025 .024 -.02 90.7 55.8)" id="q"><stop offset="0" stop-color="#333"/><stop offset=".533" stop-color="#333"/><stop offset="1"/></linearGradient><linearGradient gradientUnits="userSpaceOnUse" x1="-819.2" x2="819.2" gradientTransform="matrix(-.001 0 0 -.002 105.65 67.65)" id="r"><stop offset="0" stop-color="#fff"/><stop offset="1" stop-color="#959595"/></linearGradient><radialGradient gradientUnits="userSpaceOnUse" r="819.2" cx="0" cy="0" spreadMethod="pad" gradientTransform="matrix(.002 0 0 .002 108.9 67.05)" id="s"><stop offset=".784" stop-color="#041559"/><stop offset="1"/></radialGradient><linearGradient gradientUnits="userSpaceOnUse" x1="-819.2" x2="819.2" gradientTransform="matrix(.001 0 0 .001 111.55 67.15)" id="t"><stop offset="0" stop-color="#fff"/><stop offset="1" stop-color="#959595"/></linearGradient><radialGradient gradientUnits="userSpaceOnUse" r="819.2" cx="0" cy="0" spreadMethod="pad" gradientTransform="matrix(.003 0 0 .003 90.65 67.3)" id="u"><stop offset=".784" stop-color="#041559"/><stop offset="1"/></radialGradient><linearGradient gradientUnits="userSpaceOnUse" x1="-819.2" x2="819.2" gradientTransform="matrix(-.002 0 0 -.002 86.25 67.25)" id="v"><stop offset="0" stop-color="#fff"/><stop offset="1" stop-color="#959595"/></linearGradient><linearGradient gradientUnits="userSpaceOnUse" x1="-819.2" x2="819.2" gradientTransform="matrix(.001 0 -.001 .002 94.05 68.2)" id="w"><stop offset="0" stop-color="#fff"/><stop offset="1" stop-color="#959595"/></linearGradient><linearGradient gradientUnits="userSpaceOnUse" x1="-819.2" x2="819.2" gradientTransform="matrix(0 .003 -.007 .001 100.5 91.05)" id="x"><stop offset="0" stop-color="#611205"/><stop offset=".569" stop-color="#A65134"/><stop offset=".992" stop-color="#380600"/></linearGradient><linearGradient gradientUnits="userSpaceOnUse" x1="-819.2" x2="819.2" gradientTransform="matrix(0 -.002 .007 -.001 101.1 88.3)" id="y"><stop offset="0" stop-color="#611205"/><stop offset=".569" stop-color="#A65134"/><stop offset=".992" stop-color="#380600"/></linearGradient></defs><path fill="url(#a)" d="M57.25 119.5l3.2-1.95 3.75 34.9 37.55 14.65 12-5.7q12.6-6.25 15.45-9.3 2.85-3.05-5.25-21.9l-8.65-18.3 5.5-.45 4.25 11.7q.25 6.05 4.95 11.9 4.7 5.85 7.8 8.75 7.05 16.65 1.4 25.75-2.8 4.6-7 5.8-10.55 4.9-19.5.5-2.75-1.35-5.05-3.5L106 170.6l-9.1-.1q-15.2 10.95-19.35 11.85l-6-.35-8.85-2.5q-9.6-2.6-12.9-12.45-1-3.1-1.3-6.55l-.05-2.8 3.1-7.6q3.55-11.45 5-21.75l.55-8.75.15-.1"/><path fill="url(#b)" d="M128.8 228.25l.6-.5.25.9-.5.2-.35-.6"/><path fill="url(#c)" d="M128.8 228.25l.35.6q-1.35 8.55-9.55 18.8-4.1 5.15-7.9 8.6-2.6-11.5-5.1-18.8 7.7-1.25 14.35-4.45 4.8-2.25 7.85-4.75"/><path fill="url(#d)" d="M129.65 228.65l-.25-.9.2-.15 1.45-1.5 2.75 4.15q3.25 5.4 5.85 11.75 8.2 20.2 6.45 41.75-1.3 1.2-3.4 2.2-4.25 2-8.4 1.1.1-10.05-.3-22.3-.8-23.2-4.3-36l-.05-.05v-.05"/><path fill="url(#e)" d="M129.4 227.75l-.6.5q-3.05 2.5-7.85 4.75-6.65 3.2-14.35 4.45l-17.55.5-.4-.05q-11.95-1.2-25.45-6l-.65-.25q-5.05-1.85-10.45-4.3l-.15-.1 7.1-8.6L67.7 222q9.2 2.6 17.85 3.8 27.55 3.8 40.2-8.9l5.3 9.2-1.45 1.5-.2.15m-23 9.15l.2.55-.2-.55"/><path fill="url(#f)" d="M88.65 237.9l.4.05 17.55-.5q2.5 7.3 5.1 18.8l.1.5q3.25 14.7 6.35 33.35l.65 3.55q1 4.75 2.6 9.4l.05.2 1.8 4.45q1.25 2.75 2.75 5.3 2.45 4.2 5.55 7.7-14.65 12.65-23.4 11.35-2.75-.45-5.35-1.75l-14.95-3.55q2.1-4.85 2.95-13.75l.05-.6.4-6.1q.2-5.7.05-12.65-.25-8.55-1.05-18.95l-.5-7.3-.05-.45q-.55-8.8-.85-18.05l-.2-11"/><path fill="url(#g)" d="M88.65 237.9l.2 11q.3 9.25.85 18.05-19.45-17-26.1-25.35-2.1-2.6-2.75-4.1l-.05-.15-.2-.85 1.95-4.85.65.25q13.5 4.8 25.45 6"/><path fill="url(#h)" d="M121.4 303.05l9.05-2.85q9.9-3.65 14.1-7.5l.15 4.2.05 1.2q-3.5 3.65-12.85 6.95l-8.65 2.65-1.8-4.45-.05-.2"/><path fill="url(#i)" d="M52.1 227.35q5.4 2.45 10.45 4.3l-1.95 4.85-.4 1q-2.7 7.4-4.25 24.25-1.55 16.8 4.2 31.75l-3.45-.1-2.55.05q-5.75.5-9.7-1.2-2.9-10.5-2.45-30.7.4-20.25 10.1-34.2"/><path fill="url(#j)" d="M90.85 312.4q-15.95.85-27.75-2.75-3.7-1.15-6.55-2.65l-2.1-1.25-1.7-5.6 3.4 1.45q4.3 1.7 8.85 2.9 14.55 3.95 26.25 1.8l-.4 6.1"/><path fill="url(#k)" d="M64.85 330.45l2.05 1.35q3.3 1.9 7.7 3.35 14.1 4.6 34.15 3.1l-.95 16.3 1.35 3.7q1.4 5.05 1.8 11.6 1.35 21.05-7.95 49.8l-.95 13q-.5 14.7 1.9 23.4v10.55l3.8 12.2q3.45 12.7 1.95 15.1-2.25 3.6-8.4 7.45-7.05 4.4-11.25 3.1-13.05-4-12.45-11.5.3-3.9 2.1-11.9l5.6-25.95.15-4.95q.35-5.25 1.25-7.05.9-1.8-.65-13.05l-1.75-10.9q-4.55-8.25-7.4-20.55-5.7-24.55 2.65-44.6-2.75-3.25-6-7.85-6.3-8.95-8.7-15.7"/><path fill="url(#l)" d="M136.8 333q3.45-1.9 6.05-4.4l1.9-2.05.9 20.55q8.8 10.55 13.4 31.95 2.3 10.7 2.85 19.25l13.8 35.25.05-.65q.55-.2 3 1.9 2.45 2.15 4.4 6.35 1 2.1 1.45 3.75 3.4 4.9 17.45 18.7-2.7 16.65-10.35 22.25-3.8 2.85-7.1 2.3-5.35 0-11.05-16.85l-4.6-16.9q-1.15-.6-3.9-5.4l-2.55-4.7q-3.25-13.2-13.9-31.7l-10-15.85q-10.55-7.45-15.5-24.55-1.6-5.35-2.4-11l-.5-4.6q-3.45-1.9-6.95-10.5l-2.55-8.5q15.15 1.55 26.1-4.6"/><path fill="url(#m)" d="M114.15 78.5l-.05.5-.1 3.2q-.7 3.55-4 9l-3.2 4.7-3.95 5.65-2.05 1.05q-4.35-.05-12.65-4.45l-7.4-4.45q-4.35-2.05-6.2-7.8l-.95-5.1q-.45.55-2.1.85-1.95.35-2.85-2.35l-.5-2.8q-.3 0-.85-.9-1.05-1.85-2.1-6.5-1.05-4.6 2.4-4.4l.5.05-.05-.3.3.05q.65.2 1.15.55l.85.95.25.7.3.3q1.6 1.9 2.85 4.3 1.5 2.9 1.4 4.5v.2l.05-.15v-.05.05l-.05.15v-.2h.05l.65-8.15q.65-4.35 3.15-6.6l-1.05-.9q-.95-.5-1.6-.45 1.9-4.1 4.9-6.3 3.2-2.3 6.3-1.5l-1.45-2-1.6-1.95 1.4-.3q1-.05 3 .8l2.3 1.2q.6.65 2.25 1.2 1.3.45 1.45 1.1.95-1.65 2.1-2.05l2.4.05 1.2-3.7q.6-1.35 1.5-1.4 1.2-.05 2.25 1.35.9 1.2.9 1.8l2.65-1.75q.9 1.1 1.25 3.1l.35 3.1q.65 0 1.2-.45l.6-.45q.9 0 1.55 3.9l.55 4.55.45 2.55v.2l-.1.95-.15.8q.75 5.75.55 14M68.1 64.75l1.4.3-1.4-.3m36.6-2.9l.7.5 2.35-1.35q2.45-1.1 3.05.4 5.35 4.85-.8-2.45l-2.2.55q-2.3.85-3.1 2.35m7.25 5.5l-.4-.6-.65-.7q-1.7-1.1-1.95-1.05l-.05.05-.1.05-.5-.25-.15.2-.05.1-.95-.6-.4.55-.35.5-.45-.05v.05l.05.5-.3-.05-.3.05.15.6-.45.1h-.5v.5l-.75.15.1.65.4.35.15.05.1.4.3.45.05.05.1.05v-.15l.05-.1.35.3.5.3-.05-.2v-.05l.35.25.2.2.25-.2q.1-.2.3-.2l.1.15.2.4.5-.55.45.3.3-.35.2-.05.2.05.6-.25.65-.4.85.1.25-.25.5-.2q.6-.1.5-.5l-.1-.3-.1-.15-.15-.25m-9.65.65l-.1 1.95 1.3 2.7 1.6 3.3.25.5.6 1.45.05.45.05.85q.1.5-.4 1.15l-.4.45-.65.55-1.7 1.05 1.7-1.05.65-.55.4-.45q.5-.65.4-1.15l-.05-.85-.05-.45-.6-1.45-.25-.5-1.6-3.3-1.3-2.7.1-1.95m-5.4-6.5l-.1-.5q-1.85-1.6-5.6-1.85l-3.4.05-5.5 3.6q4.4-2.75 9.25-1.9 2.45.45 4 1.45 1.2-.3 1.35-.85m-4.8 4.35l.6.45 1.5 1.6.1.15h.1l.3.5-.25-.6-.05-.05-.05-.1-.65-1.15-2.25-1.9-.1.1-.1.05-.65-.45-.2.15-.15.15-1-1.1-.75.65q-.3.1-.55.55l-.6-.15v.05l-.1.65-.35-.15h-.4v.8h-.6l-.7-.1-.1.65-1.05-.05v.9l.25.45.15.15h.2v.5l.3.7.05.05.05.05.1-.1.05-.15.45.5.5.55v-.3l.05-.1.4.45.15.35.35-.25.5-.2.1.3.1.55.85-.55.5.45q.25-.25.5-.3h.25l.3.05.8-.15.95-.35 1.1.35.4-.2.7-.15q.8.05.8-.5l-.05-.45-.15-.05-.05-.15-.15-.4-.35-.5-.1-.15-1.55-1.7-.45-.35m-1.35 3h-.4.4m-1.25 0q-.2.05-.05-.05v.05h.05m-2.4-.55l-.65.05.5-.05h.15m13.95 12.55l-1.05-.1q-1.55.2-.95.7l.8.55q-.2-.65 1.15-.6l1.5.15q-.35-.45-1.45-.7m-1.7 2q-2.55-.35-2.75-2.3l.15-1.3.15-.6-.15.6-.15 1.3q.2 1.95 2.75 2.3m-4.9 6.85l.55.55 1.7 1.2q2.9 1.75 6.1 1.55 1.15-.15 1.9-.9 1.55-1.6 1.35-3.35l.35-.2-.35.2-.35.1.7-.3.15-.25-.05-.2-.2-.7-.55-.7-.75-.05q-.45.7-1.35.5l-.75-.35q-1.15-.3-4.45 1.3l-3.05 1.7h-.05l-.9-.1-.45-.05.45.05M106.4 79q.3 1.35-.75 2.55l-1.1.95 1.1-.95q1.05-1.2.75-2.55m-32.7 1.55l-.1.25.1-.2v-.05l-.15-.55.15.55"/><path fill="url(#n)" d="M115.85 63.35l.15.1.95.85V68l-1.65 3.7.55 1.1q.55 1.6.55 3.9t-1.1 2.3l-1.15-.5q.2-8.25-.55-14l.15-.8q.15-.15.3-.2l.3 1.7.1.65q.65 3 .35 4.45h.05l1-6.95m-1.05 6.95v.2l.05-.2-.05.2v-.2"/><path fill="url(#o)" d="M62.15 19.45q-1.25-.65-2.25-.75l-3.35.05-4.05.5q-.9.35-2.35 1.5l-.5.2-1.5.65q-1.65.8-1.9 1.3h-.2l-.15-2.35q-.6-2.5-2.7-3.45 2.15-1.8 5.9-3.35 5.7-2.5 10.4-1.65L50 6.55q-7.25-4.05-10.4-5.5L40.65.2l3.9-.6q3.8-.2 16.95 6.1V3.5L61 1.6l-.5-1.75v-1.6q2.05.55 4 2.95 1.9 2.85 2.95 3.8h.4l.1-2.85q.2-2.8.5-3.45l1.95-1.6 2.5-1.9h.2L74.25.35q.65 2.9 1.3 3.9l.4.15v-.1q.05-3 3.7-5.6 3.05-2.25 5.05-2.4l2.05-.1Q78.7 4.15 78.4 7.8v.4l1-.05q.75-.4 3.45-.8l4.3-.8 1.65-.1q-4.7 4.2-5.95 6.6-.8 1.5-.8 4.1 0 3.45.55 5.4.45 1.85 1.8 4.2l-4.2-.3q-2.2.1-5 1.8-1.3.75-2.05 1.6-.9-2.15-3.5-4.75-2.4-2.45-5.3-4.3l-1.95-1.2-.25-.15"/><path fill="url(#p)" d="M84.4 26.75l.4.05q3.1.95 2.55 4l-6.55.55q-2.1.7-6.7 4.1-1.1-.5-1.65-1.5-.5-.9-.5-1.65 0-1.25 1.2-2.45.75-.85 2.05-1.6 2.8-1.7 5-1.8l4.2.3"/><path fill="url(#q)" d="M87.35 30.8l2.05-.1q8.25-.4 10.3.05 4.6 1.1 9.2 6.75 3.6 4.35 5.35 8.1 2.2 4.45 2.4 9.1l-.05.75-.15 2.05-.45 4.4-.15 1.45-1 6.95h-.05q.3-1.45-.35-4.45l-.1-.65-.3-1.7-.2-.95-.45-2.55-.55-4.55q-.65-3.9-1.55-3.9l-.6.45q-.55.45-1.2.45l-.35-3.1q-.35-2-1.25-3.1L105.25 48q0-.6-.9-1.8-1.05-1.4-2.25-1.35-.9.05-1.5 1.4l-1.2 3.7-2.4-.05q-1.15.4-2.1 2.05-.15-.65-1.45-1.1-1.65-.55-2.25-1.2l-2.3-1.2q-2-.85-3-.8l-1.4.3 1.6 1.95 1.45 2q-3.1-.8-6.3 1.5-3 2.2-4.9 6.3.65-.05 1.6.45l1.05.9q-2.5 2.25-3.15 6.6l-.65 8.15h-.05q.1-1.6-1.4-4.5-1.25-2.4-2.85-4.3l-.3-.3-.25-.7-.85-.95q-.5-.35-1.15-.55l-.3-.05-1.75-.25-1.5-.4q-1.4-.55-1.45-3.1-.05-1.5.2-4.65 0-6.55 1.05-9.8 1.55-4.55 6.1-8.2l3.4-2.6q4.6-3.4 6.7-4.1l6.55-.55"/><path fill="#6C3E1A" d="M104.7 61.85q.8-1.5 3.1-2.35l2.2-.55q6.15 7.3.8 2.45-.6-1.5-3.05-.4l-2.35 1.35-.7-.5m-7.8-.35q-.15.55-1.35.85-1.55-1-4-1.45-4.85-.85-9.25 1.9l5.5-3.6 3.4-.05q3.75.25 5.6 1.85l.1.5m4.15 19.35q1.1.25 1.45.7l-1.5-.15q-1.35-.05-1.15.6l-.8-.55q-.6-.5.95-.7l1.05.1"/><path fill="#030000" d="M108.65 65.45q-1-.05-2 .55-.9.55-1.6 1.5l-.55.9.35.1 1.65-.25 1.7-.15.55-.05h1l.5.1q1.15-.7 1.95-.4l.1.3q.1.4-.5.5l-.5.2-.25.25-.85-.1-.65.4-.6.25-.2-.05-.2.05-.3.35-.45-.3-.5.55-.2-.4-.1-.15q-.2 0-.3.2l-.25.2-.2-.2-.35-.25v.05l.05.2-.5-.3-.35-.3-.05.1v.15l-.1-.05-.05-.05-.3-.45-.1-.4-.15-.05-.4-.35-.1-.65.75-.15v-.5h.5l.45-.1-.15-.6.3-.05.3.05-.05-.5v-.05l.45.05.35-.5.4-.55.95.6.05-.1.15-.2.5.25.1-.05.05-.05q.25-.05 1.95 1.05l.65.7.4.6-1.8-1.45q-.8-.45-1.5-.45m-13.9 3.65l.15.05.05.45q0 .55-.8.5l-.7.15-.4.2-1.1-.35-.95.35-.8.15-.3-.05h-.25q-.25.05-.5.3l-.5-.45-.85.55-.1-.55-.1-.3-.5.2-.35.25-.15-.35-.4-.45-.05.1v.3l-.5-.55-.45-.5-.05.15-.1.1-.05-.05-.05-.05-.3-.7v-.5h-.2l-.15-.15-.25-.45v-.9l1.05.05.1-.65.7.1h.6v-.8h.4l.35.15.1-.65v-.05l.6.15q.25-.45.55-.55l.75-.65 1 1.1.15-.15.2-.15.65.45.1-.05.1-.1 2.25 1.9.65 1.15.05.1.05.05.25.6-.3-.5h-.1l-.1-.15-1.5-1.6-.6-.45q-.6-.4-1.2-.55l-.4-.1-2.35.25q-1.3.45-2.55 1.5l-.9.95-.05.05h.2l.2.15 1.4.25.65-.05h.35l1.85.35.2.05-.05.05v.05q-.15.1.05.05h1.25l1.35.3.1.05.35-.1 2.15-.05.05.05"/><path fill="url(#r)" d="M108.65 65.45q-.7.15-1.05.7-.35.6-.25 1.25.15.65.85.7l-1.7.15-1.65.25-.35-.1.55-.9q.7-.95 1.6-1.5 1-.6 2-.55"/><path fill="url(#s)" d="M108.65 65.45q.7 0 1.5.45.3.35.4.85.15.65-.2 1.25l-.1.15-.5-.1h-1l-.55.05q-.7-.05-.85-.7-.1-.65.25-1.25.35-.55 1.05-.7m1.2 1.7v-.35l-.35-.55-.7-.15q-.35.1-.5.4-.25.3-.15.65l.4.55.65.1h.05l.1.15.35.05.25-.2.1-.35-.2-.3"/><path d="M109.85 67.15l-.35-.05q-.2.05-.25.2l-.1.35.1.15h-.05l-.65-.1-.4-.55q-.1-.35.15-.65.15-.3.5-.4l.7.15.35.55v.35m-19 1.25h-.05q-.5 0-.85-.35l-.1-.15-.2-.65q0-.5.3-.8.35-.35.85-.35.45 0 .8.35.35.3.35.8l-.1.5-.45-.15-.4.15-.1.15-.05.15-.05.15.05.2"/><path fill="#fff" d="M90.85 68.4l-.05-.2.05-.15.05-.15.1-.15.4-.15.45.15.1.15.05.15v.15l-.15.4-.45.2q-.25 0-.4-.2l-.15-.2m19-1.25l.2.3-.1.35-.25.2-.35-.05-.1-.15-.1-.15.1-.35q.05-.15.25-.2l.35.05"/><path fill="url(#t)" d="M110.25 68.15l.1-.15q.35-.6.2-1.25-.1-.5-.4-.85l1.8 1.45.15.25.1.15q-.8-.3-1.95.4"/><path fill="url(#u)" d="M92.1 65.85l.45.35q.35.5.35 1.2l-.05.5v.15l-.55.9-.2.2-1.35-.3h-1.3v-.1l.05-.05-.2-.05-.6-.6-.05-.15-.1-.5q0-.9.6-1.55.55-.55 1.35-.65l.4.1q.6.15 1.2.55m-.25 1.9l.1-.5q0-.5-.35-.8-.35-.35-.8-.35-.5 0-.85.35-.3.3-.3.8l.2.65.1.15q.35.35.85.35h.05l.15.2q.15.2.4.2l.45-.2.15-.4v-.15l-.05-.15-.1-.15"/><path fill="url(#v)" d="M89.3 68.65l-1.85-.35h-.5l-.5.05-1.4-.25-.2-.15h-.2l.05-.05.9-.95q1.25-1.05 2.55-1.5l2.35-.25q-.8.1-1.35.65-.6.65-.6 1.55l.1.5.05.15.6.6"/><path fill="url(#w)" d="M92.55 66.2l1.55 1.7.1.15.35.5.15.4.05.15-.05-.05-2.15.05-.35.1-.1-.05.2-.2.55-.9v-.15l.05-.5q0-.7-.35-1.2"/><path fill="url(#x)" d="M106.05 88.75q.2 1.75-1.35 3.35-.75.75-1.9.9-3.2.2-6.1-1.55l-1.7-1.2-.55-.55.9.1h.05l5.5.05q3.15-.2 4.8-1l.35-.1"/><path fill="url(#y)" d="M95.4 89.8l3.05-1.7q3.3-1.6 4.45-1.3l.75.35q.9.2 1.35-.5l.75.05.55.7.2.7.05.2-.15.25-.7.3q-1.65.8-4.8 1l-5.5-.05"/><path fill="none" stroke="#31261A" stroke-width=".05" stroke-linecap="round" stroke-linejoin="round" d="M57.25 119.5l-.15.1-.55 8.75q-1.45 10.3-5 21.75l-3.1 7.6.05 2.8q.3 3.45 1.3 6.55 3.3 9.85 12.9 12.45l8.85 2.5 6 .35q4.15-.9 19.35-11.85l9.1.1 1.65 1.75q2.3 2.15 5.05 3.5 8.95 4.4 19.5-.5 4.2-1.2 7-5.8 5.65-9.1-1.4-25.75-3.1-2.9-7.8-8.75-4.7-5.85-4.95-11.9l-4.25-11.7-5.5.45 8.65 18.3q8.1 18.85 5.25 21.9-2.85 3.05-15.45 9.3l-12 5.7-37.55-14.65-3.75-34.9-3.2 1.95m63.55-8.05l-.25-.7m8.85 117l-.6.5q-3.05 2.5-7.85 4.75-6.65 3.2-14.35 4.45 2.5 7.3 5.1 18.8 3.8-3.45 7.9-8.6 8.2-10.25 9.55-18.8m.5-.2l-.25-.9.2-.15 1.45-1.5-5.3-9.2q-12.65 12.7-40.2 8.9-8.65-1.2-17.85-3.8l-8.65-3.35-7.1 8.6.15.1q5.4 2.45 10.45 4.3l.65.25q13.5 4.8 25.45 6l.4.05 17.55-.5-.2-.55m24.65-10.8l2.75 4.15q3.25 5.4 5.85 11.75 8.2 20.2 6.45 41.75-1.3 1.2-3.4 2.2-4.25 2-8.4 1.1.1-10.05-.3-22.3-.8-23.2-4.3-36l-.05-.05v-.05m-17.95 27.6l.1.5q3.25 14.7 6.35 33.35l.65 3.55q1 4.75 2.6 9.4l9.05-2.85q9.9-3.65 14.1-7.5l.15 4.2.1 1.15-.05.05q-3.5 3.65-12.85 6.95l-8.65 2.65q1.25 2.75 2.75 5.3 2.45 4.2 5.55 7.7-14.65 12.65-23.4 11.35-2.75-.45-5.35-1.75l-14.95-3.55q2.1-4.85 2.95-13.75l.05-.6q-15.95.85-27.75-2.75-3.7-1.15-6.55-2.65l-2.1-1.25-1.7-5.6 3.4 1.45q4.3 1.7 8.85 2.9 14.55 3.95 26.25 1.8.2-5.7.05-12.65-.25-8.55-1.05-18.95l-.5-7.3-.05-.45q-19.45-17-26.1-25.35-2.1-2.6-2.75-4.1l-.05-.15-.2-.85-.4 1q-2.7 7.4-4.25 24.25-1.55 16.8 4.2 31.75l-3.45-.1-2.55.05q-5.75.5-9.7-1.2-2.9-10.5-2.45-30.7.4-20.25 10.1-34.2m37.6 39.6q-.55-8.8-.85-18.05l-.2-11m-26.1-6.25l-1.95 4.85m4.25 93.95l2.05 1.35q3.3 1.9 7.7 3.35 14.1 4.6 34.15 3.1l-.95 16.3 1.35 3.7q1.4 5.05 1.8 11.6 1.35 21.05-7.95 49.8l-.95 13q-.5 14.7 1.9 23.4v10.55l3.8 12.2q3.45 12.7 1.95 15.1-2.25 3.6-8.4 7.45-7.05 4.4-11.25 3.1-13.05-4-12.45-11.5.3-3.9 2.1-11.9l5.6-25.95.15-4.95q.35-5.25 1.25-7.05.9-1.8-.65-13.05l-1.75-10.9q-4.55-8.25-7.4-20.55-5.7-24.55 2.65-44.6-2.75-3.25-6-7.85-6.3-8.95-8.7-15.7M136.8 333q-10.95 6.15-26.1 4.6l2.55 8.5q3.5 8.6 6.95 10.5l.5 4.6q.8 5.65 2.4 11 4.95 17.1 15.5 24.55l10 15.85q10.65 18.5 13.9 31.7l2.55 4.7q2.75 4.8 3.9 5.4l4.6 16.9q5.7 16.85 11.05 16.85 3.3.55 7.1-2.3 7.65-5.6 10.35-22.25-14.05-13.8-17.45-18.7-.45-1.65-1.45-3.75-1.95-4.2-4.4-6.35-2.45-2.1-3-1.9l-.05.65-13.8-35.25q-.55-8.55-2.85-19.25-4.6-21.4-13.4-31.95l-.9-20.55-1.9 2.05q-2.6 2.5-6.05 4.4m-15.4-29.95l.05.2 1.8 4.45m-32.4 4.7l.4-6.1m53.45-9.4l.05 1.2"/><path fill="none" stroke="#8E5027" stroke-width=".05" stroke-linecap="round" stroke-linejoin="round" d="M115.85 63.35l.15.1.95.85V68l-1.65 3.7.55 1.1q.55 1.6.55 3.9t-1.1 2.3l-1.15-.5-.05.5-.1 3.2q-.7 3.55-4 9l-3.2 4.7-3.95 5.65-2.05 1.05q-4.35-.05-12.65-4.45l-7.4-4.45q-4.35-2.05-6.2-7.8l-.95-5.1q-.45.55-2.1.85-1.95.35-2.85-2.35l-.5-2.8q-.3 0-.85-.9-1.05-1.85-2.1-6.5-1.05-4.6 2.4-4.4l.5.05-.05-.3m1.45.6l-1.4-.3m40.55.7q-1-.05-2 .55-.9.55-1.6 1.5l-.55.9.35.1 1.65-.25 1.7-.15m4-.35q-.8-.3-1.95.4M102.9 82.4l1.7-1.05.65-.55.4-.45q.5-.65.4-1.15l-.05-.85-.05-.45-.6-1.45-.25-.5-1.6-3.3-1.3-2.7.1-1.95m11.45-4.3l.1-.95v-.2m-.1 1.15l-.15.8q.75 5.75.55 14m-1.95-10.75l-.1-.15-.15-.25-1.8-1.45m3.9-2.4q-.15.05-.3.2m-21.2 2.5l1.55 1.7.1.15.35.5.15.4.05.15-.05-.05-2.15.05-.35.1-.1-.05m-2.8-.5l-1.85-.35h-.35m-.65.05l-1.4-.25-.2-.15h-.2l.05-.05.9-.95q1.25-1.05 2.55-1.5l2.35-.25m-4.05 3.15l.5-.05h.15m13.95 12.55q1.1.25 1.45.7l-1.5-.15q-1.35-.05-1.15.6l-.8-.55q-.6-.5.95-.7l1.05.1m-4.15-2.2l-.15.6-.15 1.3q.2 1.95 2.75 2.3m6.7 5.9q.2 1.75-1.35 3.35-.75.75-1.9.9-3.2.2-6.1-1.55l-1.7-1.2-.55-.55-.45-.05m1.4.15l3.05-1.7q3.3-1.6 4.45-1.3l.75.35q.9.2 1.35-.5l.75.05.55.7.2.7.05.2-.15.25-.35.2-.35.1q-1.65.8-4.8 1l-5.5-.05h-.05l-.9-.1m10.1-7.2l1.1-.95q1.05-1.2.75-2.55m0 9.55l-.7.3m-32-8.3v.05l-.1.2.1-.25-.15-.55"/><path fill="none" stroke="#242424" stroke-width=".05" stroke-linecap="round" stroke-linejoin="round" d="M62.15 19.45q-1.25-.65-2.25-.75l-3.35.05-4.05.5q-.9.35-2.35 1.5l-.5.2-1.5.65q-1.65.8-1.9 1.3h-.2l-.15-2.35q-.6-2.5-2.7-3.45 2.15-1.8 5.9-3.35 5.7-2.5 10.4-1.65L50 6.55q-7.25-4.05-10.4-5.5L40.65.2l3.9-.6q3.8-.2 16.95 6.1V3.5L61 1.6l-.5-1.75v-1.6q2.05.55 4 2.95 1.9 2.85 2.95 3.8h.4l.1-2.85q.2-2.8.5-3.45l1.95-1.6 2.5-1.9h.2L74.25.35q.65 2.9 1.3 3.9l.4.15v-.1q.05-3 3.7-5.6 3.05-2.25 5.05-2.4l2.05-.1Q78.7 4.15 78.4 7.8v.4l1-.05q.75-.4 3.45-.8l4.3-.8 1.65-.1q-4.7 4.2-5.95 6.6-.8 1.5-.8 4.1 0 3.45.55 5.4.45 1.85 1.8 4.2l.4.05q3.1.95 2.55 4l2.05-.1q8.25-.4 10.3.05 4.6 1.1 9.2 6.75 3.6 4.35 5.35 8.1 2.2 4.45 2.4 9.1l-.05.75-.15 2.05-.45 4.4-.15 1.45m-47.8 1.1l-1.75-.25-1.5-.4q-1.4-.55-1.45-3.1-.05-1.5.2-4.65 0-6.55 1.05-9.8 1.55-4.55 6.1-8.2l3.4-2.6q-1.1-.5-1.65-1.5-.5-.9-.5-1.65 0-1.25 1.2-2.45-.9-2.15-3.5-4.75-2.4-2.45-5.3-4.3l-1.95-1.2-.25-.15q-2.65.15-5.45 1.25-5.55 2.2-6.1 7.1-.6 5.7-1.2-.05-.55-5.85.35-6.55m64.1 41.35L113.4 60l-.55-4.55q-.65-3.9-1.55-3.9l-.6.45q-.55.45-1.2.45l-.35-3.1q-.35-2-1.25-3.1L105.25 48q0-.6-.9-1.8-1.05-1.4-2.25-1.35-.9.05-1.5 1.4l-1.2 3.7-2.4-.05q-1.15.4-2.1 2.05-.15-.65-1.45-1.1-1.65-.55-2.25-1.2l-2.3-1.2q-2-.85-3-.8l-1.4.3 1.6 1.95 1.45 2q-3.1-.8-6.3 1.5-3 2.2-4.9 6.3.65-.05 1.6.45l1.05.9q-2.5 2.25-3.15 6.6l-.65 8.15v.05l-.05.15v-.2q.1-1.6-1.4-4.5-1.25-2.4-2.85-4.3l-.3-.3-.25-.7-.85-.95q-.5-.35-1.15-.55l-.3-.05m45.8-1.9l.2.95.3 1.7.1.65q.65 3 .35 4.45m.05 0l1-6.95m-1 6.95l-.05.2v-.2M87.35 30.8l-6.55.55q-2.1.7-6.7 4.1m10.3-8.7l-4.2-.3q-2.2.1-5 1.8-1.3.75-2.05 1.6"/></svg>