<svg xmlns="http://www.w3.org/2000/svg" viewBox="0 0 160.2 227.5" width="160.2" height="227.5" preserveAspectRatio="xMinYMin"><defs><radialGradient gradientUnits="userSpaceOnUse" r="819.2" cx="0" cy="0" spreadMethod="pad" gradientTransform="matrix(.006 0 0 .006 122.5 127.8)" id="a"><stop offset=".322" stop-color="#787878"/><stop offset="1" stop-color="#aaa"/></radialGradient><radialGradient gradientUnits="userSpaceOnUse" r="819.2" cx="0" cy="0" spreadMethod="pad" gradientTransform="matrix(.004 0 0 .004 129.8 131.15)" id="b"><stop offset=".322" stop-color="#787878"/><stop offset="1" stop-color="#aaa"/></radialGradient><radialGradient gradientUnits="userSpaceOnUse" r="819.2" cx="0" cy="0" spreadMethod="pad" gradientTransform="matrix(.008 0 0 .008 65.5 131.8)" id="c"><stop offset=".322" stop-color="#787878"/><stop offset="1" stop-color="#aaa"/></radialGradient><radialGradient gradientUnits="userSpaceOnUse" r="819.2" cx="0" cy="0" spreadMethod="pad" gradientTransform="matrix(.006 0 0 .006 56.65 133.3)" id="d"><stop offset=".322" stop-color="#787878"/><stop offset="1" stop-color="#aaa"/></radialGradient><linearGradient gradientUnits="userSpaceOnUse" x1="-819.2" x2="819.2" gradientTransform="matrix(-.027 .011 -.011 -.027 45.85 127.25)" id="e"><stop offset=".024" stop-color="#8D9B56"/><stop offset=".271" stop-color="#8B9956"/><stop offset=".396" stop-color="#839157"/><stop offset=".408" stop-color="#829057"/><stop offset=".584" stop-color="#556137"/><stop offset=".725" stop-color="#354020"/></linearGradient><linearGradient gradientUnits="userSpaceOnUse" x1="-819.2" x2="819.2" gradientTransform="matrix(-.028 .003 -.003 -.028 44.2 121.25)" id="f"><stop offset=".024" stop-color="#8D9B56"/><stop offset=".153" stop-color="#8B9956"/><stop offset=".22" stop-color="#839157"/><stop offset=".224" stop-color="#829057"/><stop offset=".506" stop-color="#556137"/><stop offset=".725" stop-color="#354020"/></linearGradient><linearGradient gradientUnits="userSpaceOnUse" x1="-819.2" x2="819.2" gradientTransform="matrix(-.028 .003 -.003 -.028 43.95 119)" id="g"><stop offset=".024" stop-color="#8D9B56"/><stop offset=".125" stop-color="#8B9956"/><stop offset=".176" stop-color="#839157"/><stop offset=".18" stop-color="#829057"/><stop offset=".486" stop-color="#556137"/><stop offset=".725" stop-color="#354020"/></linearGradient><linearGradient gradientUnits="userSpaceOnUse" x1="-819.2" x2="819.2" gradientTransform="matrix(-.012 .001 -.001 -.012 29.6 143.3)" id="h"><stop offset=".024" stop-color="#8D9B56"/><stop offset=".271" stop-color="#8B9956"/><stop offset=".396" stop-color="#839157"/><stop offset=".408" stop-color="#829057"/><stop offset=".584" stop-color="#556137"/><stop offset=".725" stop-color="#354020"/></linearGradient><linearGradient gradientUnits="userSpaceOnUse" x1="-819.2" x2="819.2" gradientTransform="matrix(.024 .009 .009 -.024 134.35 124.5)" id="i"><stop offset=".024" stop-color="#8D9B56"/><stop offset=".271" stop-color="#8B9956"/><stop offset=".396" stop-color="#839157"/><stop offset=".408" stop-color="#829057"/><stop offset=".584" stop-color="#556137"/><stop offset=".725" stop-color="#354020"/></linearGradient><linearGradient gradientUnits="userSpaceOnUse" x1="-819.2" x2="819.2" gradientTransform="matrix(.024 .003 .003 -.024 135.8 119.35)" id="j"><stop offset=".024" stop-color="#8D9B56"/><stop offset=".153" stop-color="#8B9956"/><stop offset=".22" stop-color="#839157"/><stop offset=".224" stop-color="#829057"/><stop offset=".506" stop-color="#556137"/><stop offset=".725" stop-color="#354020"/></linearGradient><linearGradient gradientUnits="userSpaceOnUse" x1="-819.2" x2="819.2" gradientTransform="matrix(.024 .003 .003 -.024 136 117.4)" id="k"><stop offset=".024" stop-color="#8D9B56"/><stop offset=".125" stop-color="#8B9956"/><stop offset=".176" stop-color="#839157"/><stop offset=".18" stop-color="#829057"/><stop offset=".486" stop-color="#556137"/><stop offset=".725" stop-color="#354020"/></linearGradient><linearGradient gradientUnits="userSpaceOnUse" x1="-819.2" x2="819.2" gradientTransform="matrix(.011 .001 .001 -.01 148.35 138.35)" id="l"><stop offset=".024" stop-color="#8D9B56"/><stop offset=".271" stop-color="#8B9956"/><stop offset=".396" stop-color="#839157"/><stop offset=".408" stop-color="#829057"/><stop offset=".584" stop-color="#556137"/><stop offset=".725" stop-color="#354020"/></linearGradient><linearGradient gradientUnits="userSpaceOnUse" x1="-819.2" x2="819.2" gradientTransform="matrix(.01 -.007 -.007 -.012 92.55 208.9)" id="m"><stop offset="0" stop-color="#8D9B56"/><stop offset=".137" stop-color="#717D46"/><stop offset=".278" stop-color="#5A6639"/><stop offset=".412" stop-color="#4D5832"/><stop offset=".525" stop-color="#48532F"/><stop offset=".627" stop-color="#4D5832"/><stop offset=".753" stop-color="#5C683A"/><stop offset=".89" stop-color="#758248"/><stop offset="1" stop-color="#8D9B56"/></linearGradient><linearGradient gradientUnits="userSpaceOnUse" x1="-819.2" x2="819.2" gradientTransform="matrix(-.01 -.005 .004 -.012 112.05 206.7)" id="n"><stop offset="0" stop-color="#8D9B56"/><stop offset=".137" stop-color="#717D46"/><stop offset=".278" stop-color="#5A6639"/><stop offset=".412" stop-color="#4D5832"/><stop offset=".525" stop-color="#48532F"/><stop offset=".627" stop-color="#4D5832"/><stop offset=".753" stop-color="#5C683A"/><stop offset=".89" stop-color="#758248"/><stop offset="1" stop-color="#8D9B56"/></linearGradient><linearGradient gradientUnits="userSpaceOnUse" x1="-819.2" x2="819.2" gradientTransform="matrix(.012 -.008 -.008 -.014 82.1 194.65)" id="o"><stop offset="0" stop-color="#8D9B56"/><stop offset=".137" stop-color="#717D46"/><stop offset=".278" stop-color="#5A6639"/><stop offset=".412" stop-color="#4D5832"/><stop offset=".525" stop-color="#48532F"/><stop offset=".627" stop-color="#4D5832"/><stop offset=".753" stop-color="#5C683A"/><stop offset=".89" stop-color="#758248"/><stop offset="1" stop-color="#8D9B56"/></linearGradient><linearGradient gradientUnits="userSpaceOnUse" x1="-819.2" x2="819.2" gradientTransform="matrix(-.011 -.006 .005 -.013 116.05 191)" id="p"><stop offset="0" stop-color="#8D9B56"/><stop offset=".137" stop-color="#717D46"/><stop offset=".278" stop-color="#5A6639"/><stop offset=".412" stop-color="#4D5832"/><stop offset=".525" stop-color="#48532F"/><stop offset=".627" stop-color="#4D5832"/><stop offset=".753" stop-color="#5C683A"/><stop offset=".89" stop-color="#758248"/><stop offset="1" stop-color="#8D9B56"/></linearGradient><linearGradient gradientUnits="userSpaceOnUse" x1="-819.2" x2="819.2" gradientTransform="matrix(.012 -.007 -.007 -.014 73.8 181.25)" id="q"><stop offset="0" stop-color="#8D9B56"/><stop offset=".137" stop-color="#717D46"/><stop offset=".278" stop-color="#5A6639"/><stop offset=".412" stop-color="#4D5832"/><stop offset=".525" stop-color="#48532F"/><stop offset=".627" stop-color="#4D5832"/><stop offset=".753" stop-color="#5C683A"/><stop offset=".89" stop-color="#758248"/><stop offset="1" stop-color="#8D9B56"/></linearGradient><linearGradient gradientUnits="userSpaceOnUse" x1="-819.2" x2="819.2" gradientTransform="matrix(.014 -.005 -.004 -.015 87.55 175)" id="r"><stop offset="0" stop-color="#8D9B56"/><stop offset=".137" stop-color="#717D46"/><stop offset=".278" stop-color="#5A6639"/><stop offset=".412" stop-color="#4D5832"/><stop offset=".525" stop-color="#48532F"/><stop offset=".627" stop-color="#4D5832"/><stop offset=".753" stop-color="#5C683A"/><stop offset=".89" stop-color="#758248"/><stop offset="1" stop-color="#8D9B56"/></linearGradient><linearGradient gradientUnits="userSpaceOnUse" x1="-819.2" x2="819.2" gradientTransform="matrix(-.012 -.003 .002 -.014 120.15 173.65)" id="s"><stop offset="0" stop-color="#8D9B56"/><stop offset=".137" stop-color="#717D46"/><stop offset=".278" stop-color="#5A6639"/><stop offset=".412" stop-color="#4D5832"/><stop offset=".525" stop-color="#48532F"/><stop offset=".627" stop-color="#4D5832"/><stop offset=".753" stop-color="#5C683A"/><stop offset=".89" stop-color="#758248"/><stop offset="1" stop-color="#8D9B56"/></linearGradient><linearGradient gradientUnits="userSpaceOnUse" x1="-819.2" x2="819.2" gradientTransform="matrix(-.012 -.003 .002 -.014 114.85 171.7)" id="t"><stop offset="0" stop-color="#8D9B56"/><stop offset=".137" stop-color="#717D46"/><stop offset=".278" stop-color="#5A6639"/><stop offset=".412" stop-color="#4D5832"/><stop offset=".525" stop-color="#48532F"/><stop offset=".627" stop-color="#4D5832"/><stop offset=".753" stop-color="#5C683A"/><stop offset=".89" stop-color="#758248"/><stop offset="1" stop-color="#8D9B56"/></linearGradient><linearGradient gradientUnits="userSpaceOnUse" x1="-819.2" x2="819.2" gradientTransform="matrix(.018 -.002 0 -.017 102.85 205.05)" id="u"><stop offset="0" stop-color="#8D9B56"/><stop offset=".137" stop-color="#717D46"/><stop offset=".278" stop-color="#5A6639"/><stop offset=".412" stop-color="#4D5832"/><stop offset=".525" stop-color="#48532F"/><stop offset=".627" stop-color="#4D5832"/><stop offset=".753" stop-color="#5C683A"/><stop offset=".89" stop-color="#758248"/><stop offset="1" stop-color="#8D9B56"/></linearGradient><linearGradient gradientUnits="userSpaceOnUse" x1="-819.2" x2="819.2" gradientTransform="matrix(.015 0 .001 -.016 67.8 158.75)" id="v"><stop offset="0" stop-color="#8D9B56"/><stop offset=".137" stop-color="#717D46"/><stop offset=".278" stop-color="#5A6639"/><stop offset=".412" stop-color="#4D5832"/><stop offset=".525" stop-color="#48532F"/><stop offset=".627" stop-color="#4D5832"/><stop offset=".753" stop-color="#5C683A"/><stop offset=".89" stop-color="#758248"/><stop offset="1" stop-color="#8D9B56"/></linearGradient><linearGradient gradientUnits="userSpaceOnUse" x1="-819.2" x2="819.2" gradientTransform="matrix(.014 -.002 -.001 -.016 87.25 166.45)" id="w"><stop offset="0" stop-color="#8D9B56"/><stop offset=".137" stop-color="#717D46"/><stop offset=".278" stop-color="#5A6639"/><stop offset=".412" stop-color="#4D5832"/><stop offset=".525" stop-color="#48532F"/><stop offset=".627" stop-color="#4D5832"/><stop offset=".753" stop-color="#5C683A"/><stop offset=".89" stop-color="#758248"/><stop offset="1" stop-color="#8D9B56"/></linearGradient><linearGradient gradientUnits="userSpaceOnUse" x1="-819.2" x2="819.2" gradientTransform="matrix(-.012 -.003 .002 -.014 123.75 155.3)" id="x"><stop offset="0" stop-color="#8D9B56"/><stop offset=".137" stop-color="#717D46"/><stop offset=".278" stop-color="#5A6639"/><stop offset=".412" stop-color="#4D5832"/><stop offset=".525" stop-color="#48532F"/><stop offset=".627" stop-color="#4D5832"/><stop offset=".753" stop-color="#5C683A"/><stop offset=".89" stop-color="#758248"/><stop offset="1" stop-color="#8D9B56"/></linearGradient><linearGradient gradientUnits="userSpaceOnUse" x1="-819.2" x2="819.2" gradientTransform="matrix(-.013 -.001 -.001 -.014 116.7 163)" id="y"><stop offset="0" stop-color="#8D9B56"/><stop offset=".137" stop-color="#717D46"/><stop offset=".278" stop-color="#5A6639"/><stop offset=".412" stop-color="#4D5832"/><stop offset=".525" stop-color="#48532F"/><stop offset=".627" stop-color="#4D5832"/><stop offset=".753" stop-color="#5C683A"/><stop offset=".89" stop-color="#758248"/><stop offset="1" stop-color="#8D9B56"/></linearGradient><linearGradient gradientUnits="userSpaceOnUse" x1="-819.2" x2="819.2" gradientTransform="matrix(.018 -.002 0 -.017 103.75 187.45)" id="z"><stop offset="0" stop-color="#8D9B56"/><stop offset=".137" stop-color="#717D46"/><stop offset=".278" stop-color="#5A6639"/><stop offset=".412" stop-color="#4D5832"/><stop offset=".525" stop-color="#48532F"/><stop offset=".627" stop-color="#4D5832"/><stop offset=".753" stop-color="#5C683A"/><stop offset=".89" stop-color="#758248"/><stop offset="1" stop-color="#8D9B56"/></linearGradient><linearGradient gradientUnits="userSpaceOnUse" x1="-819.2" x2="819.2" gradientTransform="matrix(.018 -.002 0 -.017 102.65 170.6)" id="A"><stop offset="0" stop-color="#8D9B56"/><stop offset=".137" stop-color="#717D46"/><stop offset=".278" stop-color="#5A6639"/><stop offset=".412" stop-color="#4D5832"/><stop offset=".525" stop-color="#48532F"/><stop offset=".627" stop-color="#4D5832"/><stop offset=".753" stop-color="#5C683A"/><stop offset=".89" stop-color="#758248"/><stop offset="1" stop-color="#8D9B56"/></linearGradient><radialGradient gradientUnits="userSpaceOnUse" r="819.2" cx="0" cy="0" spreadMethod="pad" gradientTransform="matrix(.017 0 0 .017 62.55 136.65)" id="B"><stop offset=".322" stop-color="#787878"/><stop offset="1" stop-color="#aaa"/></radialGradient><radialGradient gradientUnits="userSpaceOnUse" r="819.2" cx="0" cy="0" spreadMethod="pad" gradientTransform="matrix(.015 0 0 .015 129.15 136.2)" id="C"><stop offset=".322" stop-color="#787878"/><stop offset="1" stop-color="#aaa"/></radialGradient></defs><path fill="#4F0E10" d="M58.15 136l2.45-.05-1.5.6q-1.65.9-2.25 2.25-.7 1.55.05 3.55l-.7 12.1q-1.1 15.8-2.65 18.1l2.8 5.45q.45 1.6 13.25 20.4 12.75 18.75 28.6 26.7l2.45-.2q2.8-.35 4.5-1.3 1.85-.95 5.05-4.3 4.6-4.8 8.35-11.3 11.2-19.3 10.75-46.3v-.35l1.75-4.2q1.8-5.3 2.6-10.25-.05 4.3-.95 8-1.05 3.95-2.55 5.7l.05 1.1q.7 18.9-3.65 33.5l-.15.35q-2.8 9.45-7.95 17.25-2.65 3.95-4.7 6l-2.55 2.55q-3.75 3.5-6.85 4.9-3.7 1.7-6.8 1.05l-2.35-1.05q-14.6-6.95-30.7-29.55-5.7-8.1-9.75-15.55-3.6-6.7-3.15-7.65 1.05-2.1 2.7-18.75l.15-19 1.6.15 2.1.1m9.6 2.05l-.1-.3q-.9-1.95-4.1-1.95l3.15-.2.95-.1 1.2-.1q5.3 3.6 11.85 5.15 6.55 1.5 8.2 2.7 1.55 1.2 10.25 2.05 8.7.8 14.6-5.35l1.8-2.25 1.85-1.65 2.25-2.45q1.1-1.4 1.5-1.5l.3-.15 1.35.3.5.2 2.1.55.85.25.75.3q-3.05-.35-4.8.95l-.8.9-8.3 7.4q-2.9 2.6-3.65 2.8l-5.35 2.05q-4.65 1.85-6.45.85-1.85-1.05-5.8-2.15-3.95-1.15-4.5-1.7-.6-.55-19.6-6.6m64.3.3q-.35-2.85-3.55-4.3l.45.15.65.3q1.6.7 2.75 1.35l.55 3.05-.85-.55"/><path fill="#354020" d="M132.05 138.35l.85.55q.7 4.2.75 7.85v.15q-.8 4.95-2.6 10.25l-1.75 4.2v.35q.45 27-10.75 46.3-3.75 6.5-8.35 11.3-3.2 3.35-5.05 4.3-1.7.95-4.5 1.3l-2.45.2q-15.85-7.95-28.6-26.7-12.8-18.8-13.25-20.4l-2.8-5.45q1.55-2.3 2.65-18.1l.7-12.1q.75 2 2.95 4.4l3.95 3.65 2.1-3.65 1.65-4.15.1-.4q.7-2.65.1-4.15 19 6.05 19.6 6.6.55.55 4.5 1.7 3.95 1.1 5.8 2.15 1.8 1 6.45-.85l5.35-2.05q.75-.2 3.65-2.8l8.3-7.4q-2 3.5 5.8 13 2.75-2.85 4.1-6.1.95-2.25.75-3.95"/><path fill="url(#a)" d="M121.45 131.95l-.1-.15q-.6-1.55-.25-3.45.4-1.7 1.25-2.9l1.6 1-.45.8-.6 1.8q-.4 1.9.4 3.4l-.5-.2-1.35-.3"/><path fill="url(#b)" d="M128.5 134.05l-.45-.2q1.55-1.3 1.55-3.35l-.3-2.1 1.3.05.35 2.7-.35 2-.75 1.05-.25.3-.65-.3-.45-.15"/><path fill="url(#c)" d="M66.7 135.6q-.45-2.55-2.05-4.95l-2.1-2.45-1-.85.95-.9.05-.05 1.2.85 2.5 2.6 1.4 2.1q.85 1.7 1.2 3.45l-1.2.1-.95.1"/><path fill="url(#d)" d="M56.05 135.9v-1.55l1.25-4.65.1-.05.75-.25.05-.05 1.05-.45-1.1 4.4q-.15 1.4 0 2.7l-2.1-.1"/><path fill="url(#e)" d="M72.75 112q-1.35 5.25-5.2 9.7-3.2 3.7-7.35 5.95-8.95 4.9-19.3 8.6l-1.55.55-.45.15-17.3.55-2.5-.45q-1.6-.45-3.05-1.2l3.5-2.25 15.95-8.85 20.45-8.55 16.8-4.2"/><path fill="url(#f)" d="M72.75 112l-16.8 4.2-20.45 8.55-15.95 8.85-3.6 2 3.75-4.05q6.8-6.6 14.45-12 7.75-5.45 16.55-9.4l2.55-1.1 19.5 2.95"/><path fill="url(#g)" d="M72.75 112l-19.5-2.95-2.55 1.1q-8.8 3.95-16.55 9.4-7.65 5.4-14.45 12l-3.8 3.9q.35-1.6 1.1-3.05 3.1-5.95 6.75-11.55 2.9-4.4 7.4-6.75 9.8-5.05 20.35-8.2l9.35.3q6.35 2.15 11.9 5.8"/><path fill="url(#h)" d="M40.9 136.25l1.25 3.7q2.7 7.9-4.3 11.9-4.5 2.6-8.9 1.15-3.4-1.15-6.35-3.35l-5.75-4.45 2.25-8.15 2.5.45 17.3-.55.45-.15 1.55-.55"/><path fill="url(#i)" d="M157 130l-13.7-7.65-17.6-7.35-14.5-3.65q1.2 4.55 4.5 8.4 2.7 3.15 6.3 5.1 7.7 4.2 16.65 7.4l1.35.5.35.1 14.9.45 2.15-.35 2.6-1.05-3-1.9"/><path fill="url(#j)" d="M157 130l3.15 1.7-3.3-3.5q-5.85-5.7-12.4-10.35-6.7-4.7-14.25-8.1l-2.2-.9-16.8 2.5 14.5 3.65 17.6 7.35L157 130"/><path fill="url(#k)" d="M111.2 111.35l16.8-2.5 2.2.9q7.55 3.4 14.25 8.1 6.55 4.65 12.4 10.35l3.3 3.35q-.3-1.4-.95-2.6-2.65-5.15-5.8-9.95-2.5-3.8-6.35-5.8-8.45-4.4-17.55-7.1l-8.05.25q-5.45 1.9-10.25 5"/><path fill="url(#l)" d="M157.4 132.95l-2.15.35-14.9-.45-.35-.1-1.35-.5-1.1 3.15q-2.3 6.85 3.7 10.3 3.9 2.2 7.7 1 2.9-1 5.45-2.9l4.95-3.85-1.95-7"/><path fill="url(#m)" d="M79.3 200.45l.3-.4q1-1.6 2.3-2.9 1.2-1.35 2.7-2.4l1-.65q1.3-.75 2.7-1.3l2.8-.85 2.3-.2q1.25 0 1.65.7 3.5 6.2 5 16.05l.4 3.1q.55 4.4.5 7.9 0 3.25-.45 3.55-.45.35-2.85-.7-2.65-1.2-5.75-3.35l-3.5-2.7-1.05-.85q-5.5-4.95-9.05-11.3-.6-1.05 1-3.7"/><path fill="url(#n)" d="M122.7 197.35l-.3-.3-2.45-2.3q-1.3-1-2.75-1.7l-1-.45-2.55-.8-2.65-.35-2.05.15q-1.15.2-1.35.85-2.25 6.05-2.25 15.05l.1 2.75q.15 4 .7 7.15.45 2.85.85 3.05.5.25 2.45-1.05 2.25-1.4 4.7-3.75l2.75-2.9.75-.95q4.2-5.1 6.5-11.3.35-1-1.45-3.15"/><path fill="url(#o)" d="M67 185.05l.3-.5q1.15-1.8 2.6-3.35 1.45-1.45 3.1-2.6l1.2-.8q1.45-.9 3-1.45 1.55-.65 3.25-.95l2.55-.3q1.5.05 1.9.8 4 7.1 5.75 18.35l.5 3.5q.55 5 .55 9-.05 3.75-.55 4.05-.55.4-3.2-.8-3.15-1.3-6.65-3.8l-4-3.05-1.15-1.05q-6.25-5.6-10.35-12.9-.65-1.15 1.2-4.15"/><path fill="url(#p)" d="M127.95 180.45l-.35-.4-2.7-2.55q-1.5-1.1-3.15-1.9l-1.15-.5q-1.35-.6-2.85-.9l-2.95-.4-2.25.15q-1.35.25-1.6 1-2.5 6.8-2.45 16.9V195q.2 4.45.85 7.95.5 3.25 1 3.5t2.7-1.15q2.55-1.6 5.3-4.3l3.1-3.2.85-1.1q4.7-5.8 7.3-12.75.4-1.15-1.65-3.5"/><path fill="url(#q)" d="M59.3 170.85l.35-.45q1.35-1.75 2.9-3.15l3.4-2.45 1.25-.75q1.55-.8 3.15-1.3 1.6-.55 3.35-.75l2.65-.15q1.45.15 1.85.95 3.4 7.25 4.25 18.45l.2 3.55q.15 4.95-.2 8.95-.4 3.75-.9 4.05-.6.35-3.2-1.05-3-1.45-6.35-4.05l-3.8-3.35-1.1-1.05q-5.85-5.85-9.35-13.3-.6-1.25 1.55-4.15"/><path fill="url(#r)" d="M75.1 162.25l.45-.35q1.6-1.5 3.45-2.65 1.7-1.1 3.65-1.85l1.45-.5 3.3-.7 3.45-.15 2.55.35q1.5.35 1.7 1.15 2.1 7.75.95 19L95.6 180q-.7 4.9-1.75 8.8-.95 3.6-1.5 3.85-.65.2-3-1.6-2.7-2-5.55-5.1l-3.2-3.9-.9-1.3q-4.7-6.8-6.85-14.75-.35-1.25 2.25-3.75"/><path fill="url(#s)" d="M129.25 160.55l-.4-.2q-1.6-1.15-3.3-1.85-1.65-.8-3.4-1.15l-1.25-.25-3-.2-3 .35-2.15.65q-1.25.55-1.35 1.35-.85 7.15 1.55 16.95l.85 3.05q1.2 4.3 2.6 7.6 1.3 3.05 1.8 3.15.55.15 2.4-1.8 2.1-2.15 4.15-5.35l2.2-3.85.65-1.25q3.2-6.75 4.05-14.1.15-1.2-2.4-3.1"/><path fill="url(#t)" d="M123.95 158.6l-.4-.2q-1.6-1.15-3.3-1.85-1.65-.8-3.4-1.15l-1.25-.25-3-.2-3 .35q-1.35.3-2.15.65-1.25.55-1.35 1.35-.85 7.15 1.55 16.95l.85 3.05q1.2 4.3 2.6 7.6 1.3 3.05 1.8 3.15.55.15 2.4-1.8 2.1-2.15 4.15-5.35l2.2-3.85.65-1.25q3.2-6.75 4.05-14.1.15-1.2-2.4-3.1"/><path fill="url(#u)" d="M92 188.1l.6-.25q2.4-1.2 4.9-1.9l5-1 1.8-.2 4.2.15 4.15.7 2.95 1q1.65.85 1.65 1.8.1 8.85-4.75 20.55l-1.55 3.6q-2.4 5.1-4.85 8.95-2.25 3.6-3 3.7-.8.05-3.1-2.45-2.6-2.85-5-7l-2.55-4.95-.65-1.6q-3.55-8.55-3.65-17.6 0-1.5 3.85-3.5"/><path fill="url(#v)" d="M60.3 142.65l.5-.2q2-.9 4.1-1.35l4.05-.5h1.5l3.4.45q1.65.3 3.3.95 1.45.6 2.3 1.2 1.3.8 1.25 1.65-.6 8-5.45 18.2l-1.5 3.15q-2.3 4.4-4.55 7.7-2.15 3.05-2.75 3.05-.65 0-2.3-2.45-1.9-2.75-3.5-6.65-1-2.35-1.7-4.7l-.45-1.45q-2.2-8.05-1.6-16.25.1-1.3 3.4-2.8"/><path fill="url(#w)" d="M77.7 151.5l.5-.3q1.9-1.15 3.85-1.85l4.05-1 1.45-.2q1.7-.15 3.45 0l3.35.55 2.45.85q1.35.65 1.4 1.5.45 8-3 18.7l-1.15 3.35q-1.7 4.7-3.5 8.25-1.75 3.3-2.3 3.35-.7.1-2.65-2.1-2.2-2.55-4.3-6.2-1.3-2.15-2.3-4.45l-.6-1.4q-3.2-7.65-3.65-15.85-.05-1.3 2.95-3.2"/><path fill="url(#x)" d="M132.85 142.2l-.4-.2-3.3-1.85q-1.65-.8-3.4-1.15l-1.25-.25-3-.2-3 .35q-1.35.3-2.15.65-1.25.55-1.35 1.35-.85 7.15 1.55 16.95l.85 3.05q1.2 4.3 2.6 7.6 1.3 3.05 1.8 3.15.55.15 2.4-1.8 2.1-2.15 4.15-5.35l2.2-3.85.65-1.25q3.2-6.75 4.05-14.1.15-1.2-2.4-3.1"/><path fill="url(#y)" d="M123.35 148.55l-.4-.15q-1.75-.85-3.55-1.3l-3.55-.5h-1.3l-3 .35q-1.4.25-2.85.8-1.25.55-2 1.05-1.15.75-1.1 1.55.45 7.2 4.45 16.45l1.35 2.8q1.95 4.05 3.9 7 1.8 2.85 2.35 2.85t2-2.15q1.7-2.55 3.15-6.05l1.55-4.2.35-1.35q2.05-7.15 1.6-14.55-.05-1.2-2.95-2.6"/><path fill="url(#z)" d="M92.9 170.5l.6-.25q2.4-1.2 4.9-1.9 2.45-.7 5-1l1.8-.2 4.2.15 4.15.7 2.95 1q1.65.85 1.65 1.8.1 8.85-4.75 20.55l-1.55 3.6q-2.4 5.1-4.85 8.95-2.25 3.6-3 3.7-.8.05-3.1-2.45-2.6-2.85-5-7l-2.55-4.95-.65-1.6q-3.55-8.55-3.65-17.6 0-1.5 3.85-3.5"/><path fill="url(#A)" d="M108.3 150.55l4.15.65q1.85.55 2.95 1.05 1.65.85 1.65 1.8.1 8.8-4.75 20.5l-1.55 3.65q-2.4 5.1-4.85 8.95-2.3 3.55-3 3.65-.8.1-3.05-2.4-2.65-2.85-5.05-7-1.45-2.45-2.55-5l-.65-1.6q-3.55-8.55-3.65-17.6 0-1.45 3.85-3.45l.6-.3q2.4-1.15 4.9-1.9l5-1 1.85-.15 4.15.15"/><path fill="url(#B)" d="M67.65 137.75l.15.25q.55 1.55-.15 4.15l-.1.45-1.6 4.1-2.15 3.7q-2.35-1.95-3.9-3.7-2.25-2.4-2.95-4.4-.75-1.95-.05-3.55.55-1.35 2.2-2.25l1.5-.6h.25l1.25-.05h.55l.95-.05q3.15-.05 4.05 1.95"/><path fill="url(#C)" d="M127 133.5h.25l.7.25.1.05.45.2q3.25 1.5 3.6 4.3.15 1.75-.8 4-1.3 3.25-4.05 6.05-7.85-9.45-5.85-13l.8-.9q1.75-1.3 4.8-.95"/><path fill="none" stroke="#333" stroke-width=".05" stroke-linecap="round" stroke-linejoin="round" d="M56.05 135.9v-1.55l1.25-4.65.1-.05.75-.25.05-.05 1.05-.45-1.1 4.4q-.15 1.4 0 2.7l2.45-.05m2.95-.15l3.15-.2q-.45-2.55-2.05-4.95l-2.1-2.45-1-.85.95-.9.05-.05 1.2.85 2.5 2.6 1.4 2.1q.85 1.7 1.2 3.45 5.3 3.6 11.85 5.15 6.55 1.5 8.2 2.7 1.55 1.2 10.25 2.05 8.7.8 14.6-5.35l1.8-2.25 1.85-1.65 2.25-2.45q1.1-1.4 1.5-1.5l.3-.15-.1-.15q-.6-1.55-.25-3.45.4-1.7 1.25-2.9l1.6 1-.45.8-.6 1.8q-.4 1.9.4 3.4l2.1.55.85.25.75.3m1.05.3q1.55-1.3 1.55-3.35l-.3-2.1 1.3.05.35 2.7-.35 2-.75 1.05-.25.3q1.6.7 2.75 1.35l.55 3.05q.7 4.2.75 7.85v.15q-.05 4.3-.95 8-1.05 3.95-2.55 5.7l.05 1.1q.7 18.9-3.65 33.5l-.15.35q-2.8 9.45-7.95 17.25-2.65 3.95-4.7 6l-2.55 2.55q-3.75 3.5-6.85 4.9-3.7 1.7-6.8 1.05l-2.35-1.05q-14.6-6.95-30.7-29.55-5.7-8.1-9.75-15.55-3.6-6.7-3.15-7.65 1.05-2.1 2.7-18.75l.15-19 1.6.15 2.1.1m10.7-.6l-1.2.1-.95.1m-9.8 6.75l-.7 12.1q-1.1 15.8-2.65 18.1l2.8 5.45q.45 1.6 13.25 20.4 12.75 18.75 28.6 26.7l2.45-.2q2.8-.35 4.5-1.3 1.85-.95 5.05-4.3 4.6-4.8 8.35-11.3 11.2-19.3 10.75-46.3v-.35l1.75-4.2q1.8-5.3 2.6-10.25m-10.35-14.45l-.5-.2-1.35-.3m8.15 2.55l-.65-.3-.45-.15m3.55 4.3l.85.55m-65.15-.85q19 6.05 19.6 6.6.55.55 4.5 1.7 3.95 1.1 5.8 2.15 1.8 1 6.45-.85l5.35-2.05q.75-.2 3.65-2.8l8.3-7.4"/><path fill="none" stroke="#48532F" stroke-linecap="round" d="M72.75 112q-5.55-3.65-11.9-5.8l-9.35-.3q-10.55 3.15-20.35 8.2-4.5 2.35-7.4 6.75-3.65 5.6-6.75 11.55-.75 1.45-1.1 3.05l3.8-3.9q6.8-6.6 14.45-12 7.75-5.45 16.55-9.4l2.55-1.1 19.5 2.95q-1.35 5.25-5.2 9.7-3.2 3.7-7.35 5.95-8.95 4.9-19.3 8.6l1.25 3.7q2.7 7.9-4.3 11.9-4.5 2.6-8.9 1.15-3.4-1.15-6.35-3.35l-5.75-4.45 2.25-8.15q-1.6-.45-3.05-1.2l3.5-2.25-3.6 2 3.75-4.05M72.75 112l-16.8 4.2-20.45 8.55-15.95 8.85m-.45 3.45l2.5.45 17.3-.55.45-.15 1.55-.55M111.2 111.35l14.5 3.65 17.6 7.35L157 130l3 1.9-2.6 1.05-2.15.35-14.9-.45-.35-.1-1.35-.5q-8.95-3.2-16.65-7.4-3.6-1.95-6.3-5.1-3.3-3.85-4.5-8.4l16.8-2.5 2.2.9q7.55 3.4 14.25 8.1 6.55 4.65 12.4 10.35l3.3 3.5L157 130m-45.8-18.65q4.8-3.1 10.25-5l8.05-.25q9.1 2.7 17.55 7.1 3.85 2 6.35 5.8 3.15 4.8 5.8 9.95.65 1.2.95 2.6l-3.3-3.35m.55 4.75l1.95 7-4.95 3.85q-2.55 1.9-5.45 2.9-3.8 1.2-7.7-1-6-3.45-3.7-10.3l1.1-3.15"/><path fill="none" stroke="#354020" d="M79.3 200.45q-1.6 2.65-1 3.7 3.55 6.35 9.05 11.3l1.05.85 3.5 2.7q3.1 2.15 5.75 3.35 2.4 1.05 2.85.7.45-.3.45-3.55.05-3.5-.5-7.9l-.4-3.1q-1.5-9.85-5-16.05-.4-.7-1.65-.7l-2.3.2-2.8.85q-1.4.55-2.7 1.3l-1 .65q-1.5 1.05-2.7 2.4-1.3 1.3-2.3 2.9l-.3.4M122.7 197.35q1.8 2.15 1.45 3.15-2.3 6.2-6.5 11.3l-.75.95-2.75 2.9q-2.45 2.35-4.7 3.75-1.95 1.3-2.45 1.05-.4-.2-.85-3.05-.55-3.15-.7-7.15l-.1-2.75q0-9 2.25-15.05.2-.65 1.35-.85l2.05-.15 2.65.35 2.55.8 1 .45q1.45.7 2.75 1.7l2.45 2.3.3.3M67 185.05q-1.85 3-1.2 4.15 4.1 7.3 10.35 12.9l1.15 1.05 4 3.05q3.5 2.5 6.65 3.8 2.65 1.2 3.2.8.5-.3.55-4.05 0-4-.55-9l-.5-3.5Q88.9 183 84.9 175.9q-.4-.75-1.9-.8l-2.55.3q-1.7.3-3.25.95-1.55.55-3 1.45l-1.2.8q-1.65 1.15-3.1 2.6-1.45 1.55-2.6 3.35l-.3.5M127.95 180.45q2.05 2.35 1.65 3.5-2.6 6.95-7.3 12.75l-.85 1.1-3.1 3.2q-2.75 2.7-5.3 4.3-2.2 1.4-2.7 1.15t-1-3.5q-.65-3.5-.85-7.95v-3.15q-.05-10.1 2.45-16.9.25-.75 1.6-1l2.25-.15 2.95.4q1.5.3 2.85.9l1.15.5q1.65.8 3.15 1.9l2.7 2.55.35.4M59.3 170.85q-2.15 2.9-1.55 4.15 3.5 7.45 9.35 13.3l1.1 1.05 3.8 3.35q3.35 2.6 6.35 4.05 2.6 1.4 3.2 1.05.5-.3.9-4.05.35-4 .2-8.95l-.2-3.55q-.85-11.2-4.25-18.45-.4-.8-1.85-.95l-2.65.15q-1.75.2-3.35.75-1.6.5-3.15 1.3l-1.25.75-3.4 2.45q-1.55 1.4-2.9 3.15l-.35.45M75.1 162.25q-2.6 2.5-2.25 3.75 2.15 7.95 6.85 14.75l.9 1.3 3.2 3.9q2.85 3.1 5.55 5.1 2.35 1.8 3 1.6.55-.25 1.5-3.85 1.05-3.9 1.75-8.8l.45-3.45q1.15-11.25-.95-19-.2-.8-1.7-1.15l-2.55-.35-3.45.15-3.3.7-1.45.5q-1.95.75-3.65 1.85-1.85 1.15-3.45 2.65l-.45.35M129.25 160.55q2.55 1.9 2.4 3.1-.85 7.35-4.05 14.1l-.65 1.25-2.2 3.85q-2.05 3.2-4.15 5.35-1.85 1.95-2.4 1.8-.5-.1-1.8-3.15-1.4-3.3-2.6-7.6l-.85-3.05q-2.4-9.8-1.55-16.95.1-.8 1.35-1.35l2.15-.65 3-.35 3 .2 1.25.25q1.75.35 3.4 1.15 1.7.7 3.3 1.85l.4.2M123.95 158.6q2.55 1.9 2.4 3.1-.85 7.35-4.05 14.1l-.65 1.25-2.2 3.85q-2.05 3.2-4.15 5.35-1.85 1.95-2.4 1.8-.5-.1-1.8-3.15-1.4-3.3-2.6-7.6l-.85-3.05q-2.4-9.8-1.55-16.95.1-.8 1.35-1.35.8-.35 2.15-.65l3-.35 3 .2 1.25.25q1.75.35 3.4 1.15 1.7.7 3.3 1.85l.4.2M92 188.1q-3.85 2-3.85 3.5.1 9.05 3.65 17.6l.65 1.6 2.55 4.95q2.4 4.15 5 7 2.3 2.5 3.1 2.45.75-.1 3-3.7 2.45-3.85 4.85-8.95l1.55-3.6q4.85-11.7 4.75-20.55 0-.95-1.65-1.8l-2.95-1-4.15-.7-4.2-.15-1.8.2-5 1q-2.5.7-4.9 1.9l-.6.25M60.3 142.65q-3.3 1.5-3.4 2.8-.6 8.2 1.6 16.25l.45 1.45q.7 2.35 1.7 4.7 1.6 3.9 3.5 6.65 1.65 2.45 2.3 2.45.6 0 2.75-3.05 2.25-3.3 4.55-7.7l1.5-3.15q4.85-10.2 5.45-18.2.05-.85-1.25-1.65-.85-.6-2.3-1.2-1.65-.65-3.3-.95l-3.4-.45h-1.5l-4.05.5q-2.1.45-4.1 1.35l-.5.2M77.7 151.5q-3 1.9-2.95 3.2.45 8.2 3.65 15.85l.6 1.4q1 2.3 2.3 4.45 2.1 3.65 4.3 6.2 1.95 2.2 2.65 2.1.55-.05 2.3-3.35 1.8-3.55 3.5-8.25l1.15-3.35q3.45-10.7 3-18.7-.05-.85-1.4-1.5l-2.45-.85-3.35-.55q-1.75-.15-3.45 0l-1.45.2-4.05 1q-1.95.7-3.85 1.85l-.5.3M132.85 142.2q2.55 1.9 2.4 3.1-.85 7.35-4.05 14.1l-.65 1.25-2.2 3.85q-2.05 3.2-4.15 5.35-1.85 1.95-2.4 1.8-.5-.1-1.8-3.15-1.4-3.3-2.6-7.6l-.85-3.05q-2.4-9.8-1.55-16.95.1-.8 1.35-1.35.8-.35 2.15-.65l3-.35 3 .2 1.25.25q1.75.35 3.4 1.15l3.3 1.85.4.2M123.35 148.55q2.9 1.4 2.95 2.6.45 7.4-1.6 14.55l-.35 1.35-1.55 4.2q-1.45 3.5-3.15 6.05-1.45 2.15-2 2.15t-2.35-2.85q-1.95-2.95-3.9-7l-1.35-2.8q-4-9.25-4.45-16.45-.05-.8 1.1-1.55.75-.5 2-1.05 1.45-.55 2.85-.8l3-.35h1.3l3.55.5q1.8.45 3.55 1.3l.4.15M92.9 170.5q-3.85 2-3.85 3.5.1 9.05 3.65 17.6l.65 1.6 2.55 4.95q2.4 4.15 5 7 2.3 2.5 3.1 2.45.75-.1 3-3.7 2.45-3.85 4.85-8.95l1.55-3.6q4.85-11.7 4.75-20.55 0-.95-1.65-1.8l-2.95-1-4.15-.7-4.2-.15-1.8.2q-2.55.3-5 1-2.5.7-4.9 1.9l-.6.25M108.3 150.55l-4.15-.15-1.85.15-5 1q-2.5.75-4.9 1.9l-.6.3q-3.85 2-3.85 3.45.1 9.05 3.65 17.6l.65 1.6q1.1 2.55 2.55 5 2.4 4.15 5.05 7 2.25 2.5 3.05 2.4.7-.1 3-3.65 2.45-3.85 4.85-8.95l1.55-3.65q4.85-11.7 4.75-20.5 0-.95-1.65-1.8-1.1-.5-2.95-1.05l-4.15-.65"/><path fill="none" stroke="#333" stroke-width=".05" stroke-linecap="round" stroke-linejoin="round" d="M67.65 137.75q-.9-2-4.05-1.95l-.95.05h-.55l-1.25.05h-.25l-1.5.6q-1.65.9-2.2 2.25-.7 1.6.05 3.55.7 2 2.95 4.4 1.55 1.75 3.9 3.7l2.15-3.7 1.6-4.1.1-.45q.7-2.6.15-4.15l-.15-.25M127 133.5q-3.05-.35-4.8.95l-.8.9q-2 3.55 5.85 13 2.75-2.8 4.05-6.05.95-2.25.8-4-.35-2.8-3.6-4.3l-.45-.2-.1-.05-.7-.25H127"/></svg>