<svg xmlns="http://www.w3.org/2000/svg" viewBox="0 0 40.0 40.0" width="40" height="40"><defs><radialGradient gradientUnits="userSpaceOnUse" r="819.2" cx="0" cy="0" spreadMethod="unknown" gradientTransform="matrix(.042 0 0 .042 27.55 8.25)" id="a"><stop offset="0" stop-color="#E0FCEB"/><stop offset="1" stop-color="#21C531"/></radialGradient><radialGradient gradientUnits="userSpaceOnUse" r="819.2" cx="0" cy="0" spreadMethod="unknown" gradientTransform="matrix(.026 0 0 .026 19.95 20)" id="b"><stop offset="0" stop-color="#fff"/><stop offset=".565" stop-color="#EAF3E0"/><stop offset="1" stop-color="#B3EDA3"/></radialGradient></defs><path fill="url(#a)" d="M40 20.95q-.3 6.65-4.5 11.7l-1.35 1.45-2.1 1.9q-5.2 4-12 4h-.5l-4.85-.7Q9.75 38 5.85 34.1q-2.6-2.55-4-5.65-1.1-2.15-1.5-4.6Q0 22 0 20q0-4.4 1.65-8.1.9-2.15 2.4-4l1.8-2.05Q9.9 1.8 15.15.55l2.2-.4 1.9-.1h.1l.7-.05.5.05 1.75.1 2.6.4q3.55.85 6.6 3.05l2.65 2.25.95 1q3.55 4.1 4.55 9.2v.05Q40 17.95 40 20v.95"/><path fill="url(#b)" d="M7.8 4.6l-.85 1.05q-.9 1.35-1.1 2.8-.4 2 .6 3.95 1.3 2.4 4.65 4.6l-.25-.55-.6-1.15q-.65-1.9-.2-2.7l.8 1.25 2 2.25 1.8 1q1.8 1.15 1.55 1.8l-.35 1.1-.1 1.45q0 1.8 1.15 1.7l.35-.05.75-.5q.95-1.35.1-5.45l-.25-.05-.5-.1q-.85-.35-.8-.8l.35.1.45.05-.35-.25q-.3-.3-.1-.65l.25.25.5.15.6-.45q.6-.5 1.1-.75 1.9-1.05 3.55.15l.7-.05 1.3.3-1.35.6q-1.45.7-1.7 1.35-.45 1.5-.5 3-.15 3.1 1.7 3.15h.3l.55-.4q.6-1-.15-4.1l.35-.6q.55-.8 2.2-1.7l.45-.45 1.1-1q1.6-1.65 1.7-2.55.3.35.3 1.1.05 1.4-1 3l.7-.5L31 14.7q2.25-2.1 2.8-3.55l.1-.65q.25-.75.15-1.65-.2-2.6-2.3-4.7l.3.05.8.05q1.3.3 2.15.95 1.15 1.05 1.4 2.7.3 2.2-.9 5.35l.3-.15.85-.4q1.3-.6 1.6-1.45l.2.65q.25.75.1 1.6-.45 2.65-4.05 4.7l.45.1h1.15q1.85-.15 2.9-1.4v.65l-.45 1.5q-1.1 2.45-4.7 3.85l.4.05.95.15q1.65-.05 2.9-.8l-.15.65-.8 1.5q-1.65 2.15-5.2 2.65l.35.15.8.2 2.55-.2-1 1.45q-1.65 1.5-4.6 1.95l.1.1.3.25 1.55.45-1.8 1.4q-2.2 1.5-4.9 2.25-3.7 1.15-7.65.6-4.8-.7-9.7-3.8L9 31.45l1.2-1.1h-.65L7.9 30.1q-2.45-.65-3.55-2.55l1.4.3 1.95-.1-.95-.4Q5.6 26.9 4.7 26.3q-2.9-1.85-2.85-3.7l1.2.55 2.45.15-.6-.15-1.4-.85q-2.05-1.7-2.5-5l1.1.9q1.4.7 2.9.3l-.75-.4-1.45-1.25Q.85 14.7 1.45 11.7l1.1 1.1q1.15 1.05 2.05.8l-.1-.3-.45-.85Q3.45 11 3.3 9.7q-.15-1.8.75-3.05 1.1-1.55 3.75-2.1v.05"/><path fill="none" stroke="#81BE63" stroke-width=".05" stroke-linecap="round" stroke-linejoin="round" d="M7.8 4.6l-.85 1.05q-.9 1.35-1.1 2.8-.4 2 .6 3.95 1.3 2.4 4.65 4.6l-.25-.55-.6-1.15q-.65-1.9-.2-2.7l.8 1.25 2 2.25 1.8 1q1.8 1.15 1.55 1.8l-.35 1.1-.1 1.45q0 1.8 1.15 1.7l.35-.05.75-.5q.95-1.35.1-5.45l-.25-.05-.5-.1q-.85-.35-.8-.8l.35.1.45.05-.35-.25q-.3-.3-.1-.65l.25.25.5.15.6-.45q.6-.5 1.1-.75 1.9-1.05 3.55.15l.7-.05 1.3.3-1.35.6q-1.45.7-1.7 1.35-.45 1.5-.5 3-.15 3.1 1.7 3.15h.3l.55-.4q.6-1-.15-4.1l.35-.6q.55-.8 2.2-1.7l.45-.45 1.1-1q1.6-1.65 1.7-2.55.3.35.3 1.1.05 1.4-1 3l.7-.5L31 14.7q2.25-2.1 2.8-3.55l.1-.65q.25-.75.15-1.65-.2-2.6-2.3-4.7l.3.05.8.05q1.3.3 2.15.95 1.15 1.05 1.4 2.7.3 2.2-.9 5.35l.3-.15.85-.4q1.3-.6 1.6-1.45l.2.65q.25.75.1 1.6-.45 2.65-4.05 4.7l.45.1h1.15q1.85-.15 2.9-1.4v.65l-.45 1.5q-1.1 2.45-4.7 3.85l.4.05.95.15q1.65-.05 2.9-.8l-.15.65-.8 1.5q-1.65 2.15-5.2 2.65l.35.15.8.2 2.55-.2-1 1.45q-1.65 1.5-4.6 1.95l.1.1.3.25 1.55.45-1.8 1.4q-2.2 1.5-4.9 2.25-3.7 1.15-7.65.6-4.8-.7-9.7-3.8L9 31.45l1.2-1.1h-.65L7.9 30.1q-2.45-.65-3.55-2.55l1.4.3 1.95-.1-.95-.4Q5.6 26.9 4.7 26.3q-2.9-1.85-2.85-3.7l1.2.55 2.45.15-.6-.15-1.4-.85q-2.05-1.7-2.5-5l1.1.9q1.4.7 2.9.3l-.75-.4-1.45-1.25Q.85 14.7 1.45 11.7l1.1 1.1q1.15 1.05 2.05.8l-.1-.3-.45-.85Q3.45 11 3.3 9.7q-.15-1.8.75-3.05 1.1-1.55 3.75-2.1"/></svg>