<svg xmlns="http://www.w3.org/2000/svg" viewBox="0 0 346.9 306.9" width="346.9" height="306.9"><defs><radialGradient gradientUnits="userSpaceOnUse" r="819.2" cx="0" cy="0" spreadMethod="pad" gradientTransform="matrix(.03 -.002 .002 .031 321.9 27.4)" id="a"><stop offset=".714" stop-color="#684B31"/><stop offset="1" stop-color="#D1AF47"/></radialGradient><linearGradient gradientUnits="userSpaceOnUse" x1="-819.2" x2="819.2" gradientTransform="matrix(.001 .002 -.193 .156 159 177.1)" id="b"><stop offset="0" stop-color="#684B31"/><stop offset="1" stop-color="#D1AF47"/></linearGradient><linearGradient gradientUnits="userSpaceOnUse" x1="-819.2" x2="819.2" gradientTransform="matrix(-.017 .016 -.02 -.023 323.7 25.25)" id="c"><stop offset="0" stop-color="#684B31"/><stop offset="1" stop-color="#D1AF47"/></linearGradient></defs><path fill="url(#a)" d="M316.25 45.05l-1.5.75 1.15-.85 3.15-1.15q2.95-.95 6-1.55 8.3-1.7 11.25-7.5 1.5-2.85 1.35-5.4-1.65-9.3-5.95-13.5-2.15-2.15-4.95-2.95-2.65-.9-5.65-.55l-2.5.6q-4.7.65-7.45 6.2-3.2 6.25-6.3 7.55-4.4 1.8-6.5-1.4L297 21.6Q309-2.95 325.3.4l4.45 1.25q5.35 2.3 9.55 6.9 15.1 21.75.25 35.95-8.8 8.45-22.6 12l-.45.1 1.25-12.35-1.5.8"/><path fill="url(#b)" d="M316.25 45.05l1.5-.8-1.25 12.35.05.2L103.5 229.1l.05-.05-95.8 77.4Q.1 308.1 0 303.65q0-1.4.7-3.2l.75-1.55 77.7-62.75.1-.05 22.85-18.5L311.4 48.5l.85-1.35 4-2.1"/><path fill="url(#c)" d="M316.5 56.6l.45-.1-.4.3-.05-.2"/><path fill="none" stroke="#513A26" stroke-width=".25" d="M339.55 44.5q14.85-14.2-.25-35.95-4.2-4.6-9.55-6.9L325.3.4Q309-2.95 297 21.6l1.35 3.7q2.1 3.2 6.5 1.4 3.1-1.3 6.3-7.55 2.75-5.55 7.45-6.2l2.5-.6q3-.35 5.65.55 2.8.8 4.95 2.95 4.3 4.2 5.95 13.5.15 2.55-1.35 5.4-2.95 5.8-11.25 7.5-3.05.6-6 1.55l-3.15 1.15-1.15.85 1.5-.75-4 2.1-.85 1.35-209.3 169.1-22.85 18.5-.1.05-77.7 62.75-.75 1.55q-.7 1.8-.7 3.2.1 4.45 7.75 2.8l95.8-77.4-.05.05L316.55 56.8l-.05-.2M316.95 56.5q13.8-3.55 22.6-12m-23 12.3l.4-.3"/><path fill="none" stroke="#513A26" stroke-width=".25" stroke-linecap="round" d="M316.25 45.05l1.5-.8"/></svg>