<svg xmlns="http://www.w3.org/2000/svg" viewBox="0 0 174.3 166.2" width="174.3" height="166.2"><defs><linearGradient gradientUnits="userSpaceOnUse" x1="-819.2" x2="819.2" spreadMethod="unknown" gradientTransform="matrix(.011 .012 -.073 .07 85.6 83.1)" id="a"><stop offset="0" stop-color="#A37243"/><stop offset="1" stop-color="#66482B"/></linearGradient></defs><path fill="#633" d="M169.85 26.2l-.1.05.15-.55-.05.5"/><path fill="url(#a)" d="M169.75 26.25l-6.65 6.9-12.95 13.2-.15.15-8.4 8.7-15.25 15.6-.25.2-6.4 6.45-2.5 2.1-3.2 2.35q-5.05 3.05-12.15 7.65l-55.8 46.55-2.35 1.6-34.3 28.1q-3.15.75-5.8.05-5.3-1.35-2.75-8.35l15.05-15.45 20.7-22.75 38.5-42.05q7.75-7.2 11.2-13.25 2.5-4.45 5.7-8.2l2.65-3 5.85-5.9 12.7-12.4 8.1-7.85 12.1-11.9 6.95-6.7 3.25-3.2 5.3-2.5q6.2-2.5 10.95-2.35 15.2.3 10.05 25.7l-.15.55m-16.1-7.1l-9.4-2.6-.35 9.7q6.7 1.15 8.9-2.85l.85-4.25m-20.5 18.65L124 35.65v9.3h4.85q4.7-1.25 4.3-7.15M104.5 56.6l-.6 8.05 4.45.3q3.3-.75 2.7-7.85l-6.55-.5"/><path fill="#A37243" d="M104.5 56.6l6.55.5q.6 7.1-2.7 7.85l-4.45-.3.6-8.05m65.25-30.35h.1l4.45 9.15-11.2-2.25 6.65-6.9m-29.4-18.2l-6.95 6.7-2.6-10.6 9.55 3.9m-19.05 18.6l-8.1 7.85-3.85-12.35 11.95 4.5M100.5 46.9l-5.85 5.9-2.65 3-5.15-14.1 13.65 5.2m16.7 32.65l2.5-2.1 6.4-6.45 4.35 11.2-13.25-2.65m24.4-24.35l8.4-8.7 5.25 12.5-13.65-3.8m12.05-36.05l-.85 4.25q-2.2 4-8.9 2.85l.35-9.7 9.4 2.6m-20.5 18.65q.4 5.9-4.3 7.15H124v-9.3l9.15 2.15"/><path fill="none" stroke="#47321D" stroke-width=".05" d="M169.85 26.25v-.05l-.1.05-6.65 6.9 11.2 2.25-4.45-9.15m.05-.55Q175.05.3 159.85 0q-4.75-.15-10.95 2.35l-5.3 2.5-3.25 3.2-6.95 6.7-12.1 11.9-8.1 7.85-12.7 12.4-5.85 5.9-2.65 3q-3.2 3.75-5.7 8.2-3.45 6.05-11.2 13.25L36.6 119.3l-20.7 22.75L.85 157.5q-2.55 7 2.75 8.35 2.65.7 5.8-.05l34.3-28.1 2.35-1.6 55.8-46.55q7.1-4.6 12.15-7.65l3.2-2.35 2.5-2.1 6.4-6.45.25-.2 15.25-15.6 8.4-8.7.15-.15 12.95-13.2m6.8-7.45l-.05.5m-16.2-7.05l-.85 4.25q-2.2 4-8.9 2.85l.35-9.7 9.4 2.6m-20.25-4.4l-2.6-10.6 9.55 3.9m-7.2 29.75q.4 5.9-4.3 7.15H124v-9.3l9.15 2.15m-19.95-3.3l-3.85-12.35 11.95 4.5M92 55.8l-5.15-14.1 13.65 5.2m4 9.7l6.55.5q.6 7.1-2.7 7.85l-4.45-.3.6-8.05M126.1 71l4.35 11.2-13.25-2.65M150 46.5l5.25 12.5-13.65-3.8"/></svg>