<svg xmlns="http://www.w3.org/2000/svg" viewBox="0 0 44.3 38.8" width="44.3" height="38.8"><defs><radialGradient gradientUnits="userSpaceOnUse" r="819.2" cx="0" cy="0" fx="19.2" fy="0" spreadMethod="unknown" gradientTransform="matrix(.043 .004 -.004 .043 15.95 8.35)" id="a"><stop offset="0" stop-color="#fff"/><stop offset=".788" stop-color="#637A9C"/><stop offset=".992"/></radialGradient></defs><path fill="url(#a)" d="M39.55 6.65q3.45 3.95 4.4 8.9.35 1.85.35 3.85v.95q-.25 6.45-4.35 11.3L38.6 33.1l-2.05 1.8q-5.05 3.9-11.7 3.9h-.45l-4.75-.65q-4.8-1.3-8.55-5.05-2.5-2.5-3.9-5.45-1.05-2.15-1.45-4.5-.35-1.8-.35-3.75 0-4.3 1.6-7.85.9-2.1 2.35-3.9.8-1.05 1.75-2 3.95-3.9 9-5.1l2.2-.4L24.05 0H25.35l1.75.1 2.5.45q3.5.8 6.4 2.9l2.6 2.2.95 1"/><path fill="#646F79" d="M32.8 15.85q3-1.2 4-2.2.95-.85 1.2-2.4.3.8-.9 4.1-1.15 3.4-4.95 4.1-3.8.7-7.3-1-3.5-1.75-8.6-7.85-.3-.55-3.1-3.15Q10.3 4.9 3.7 2.85q3.55-.4 8.65 1.05 5 1.45 8.1 5.85 3.05 4.3 6.2 5.75 3.1 1.5 6.15.35m2.25 4q.95-.85 1.2-2.45.25.8-.95 4.15-1.15 3.35-4.9 4-3.85.75-7.3-.95-3.55-1.7-8.65-7.9l-3.05-3.1Q8.55 11.05 1.95 9q3.55-.4 8.6 1.05 5 1.45 8.15 5.85 3.05 4.35 6.15 5.8 3.15 1.45 6.2.35 2.95-1.2 4-2.2M9.5 19.7Q6.6 17.1 0 15.05q3.55-.4 8.65 1.05 5 1.45 8.1 5.9 3.1 4.3 6.2 5.75 3.05 1.45 6.2.3 2.95-1.2 4-2.15.9-.85 1.2-2.4.25.75-.95 4.1-1.15 3.35-4.95 4-3.85.75-7.25-1-3.55-1.65-8.65-7.8L9.5 19.7"/><path fill="#C9D9E9" d="M30.2 23.65q-3.7.7-7-.95-3.4-1.6-8.3-7.55l-2.95-3Q9.2 9.7 2.85 7.75q3.4-.4 8.3 1 4.8 1.4 7.8 5.6 2.95 4.2 5.95 5.6 3 1.4 5.95.3 2.85-1.15 3.85-2.15.9-.8 1.15-2.3.25.75-.9 4-1.1 3.2-4.75 3.85m2.35-9.35q2.85-1.15 3.85-2.1.9-.8 1.15-2.3.25.75-.9 3.95-1.1 3.2-4.75 3.85-3.65.75-7-.95-3.4-1.6-8.3-7.5l-2.95-3q-2.75-2.45-9.1-4.4 3.4-.4 8.3 1 4.8 1.4 7.8 5.6Q23.6 12.6 26.6 14q3 1.4 5.95.3M10.1 17.95Q7.35 15.5 1 13.55q3.4-.4 8.3 1 4.8 1.4 7.8 5.65 2.95 4.15 5.95 5.55 2.95 1.4 5.95.3 2.85-1.15 3.85-2.1.9-.8 1.15-2.3.25.75-.9 3.95-1.1 3.2-4.75 3.85-3.7.7-7-.95-3.4-1.6-8.3-7.5l-2.95-3.05"/></svg>