<svg  xmlns="http://www.w3.org/2000/svg" viewBox="-1 -1 21.5 21"><path fill="none" stroke="#FFFFFF" stroke-width="1.5" stroke-linecap="round" stroke-linejoin="round" d="M19 2.85 Q19.6 0.05 17.9 0 L17.85 0 16.65 0.25 16.1 0.55 15.7 0.9 14.65 0.45 14.95 1.65 13.6 2.95 12.25 2.45 12.7 3.85 11.3 5.2 9.75 4.65 10.35 6.2 9.7 7.1 9.25 7.75 9.45 7.95 11.5 9.95 12.8 9.1 13.15 8.85 14.6 9.15 14.15 7.9 15.85 6.15 17.35 6.55 16.8 5.2 16.8 5.15 18.25 3.7 19.5 3.95 19 2.9 19 2.85 M11.5 9.95 L12.05 10.45 14.7 13.05 Q17.65 16.15 19.4 19 16.5 17.35 13.25 14.4 L10.6 11.8 10.05 11.15 5.2 15.15 4.95 15.35 1.15 18.45 0.5 18.45 0.1 18 0.2 17.55 1.85 15.8 4.15 13.3 8 9.15 6.15 7.35 4.15 5.55 3.5 6.2 3.3 6 3 5.7 3.95 4.65 2.25 3.05 1.4 2.15 1.2 2.05 1.15 1.95 0.15 1.3 0.1 1.3 0 1.25 0.1 0.7 0.5 0.3 0.85 0.1 1.05 0.1 1.15 0.2 1.85 1.2 1.95 1.25 2.1 1.45 3.15 2.3 4.75 3.85 5.1 3.5 5.75 2.9 6.3 3.4 5.65 4.1 7.55 6.1 9.25 7.75 M10.05 11.15 L8.05 9.2 8 9.15" style="--darkreader-inline-stroke: #e8e6e3;" data-darkreader-inline-stroke=""></path></svg>