<svg xmlns="http://www.w3.org/2000/svg" viewBox="0 0 185.9 169.2" width="185.9" height="169.2"><defs><radialGradient gradientUnits="userSpaceOnUse" r="819.2" cx="0" cy="0" spreadMethod="pad" gradientTransform="matrix(.014 0 0 .014 173.7 48.55)" id="a"><stop offset="0" stop-color="#fff"/><stop offset=".278" stop-color="#B1B1B1"/><stop offset=".631" stop-color="#525252"/><stop offset=".882" stop-color="#171717"/><stop offset="1"/></radialGradient><radialGradient gradientUnits="userSpaceOnUse" r="819.2" cx="0" cy="0" spreadMethod="pad" gradientTransform="matrix(.02 0 0 .02 173.7 36.95)" id="b"><stop offset="0" stop-color="#fff"/><stop offset=".278" stop-color="#B1B1B1"/><stop offset=".631" stop-color="#525252"/><stop offset=".882" stop-color="#171717"/><stop offset="1"/></radialGradient><radialGradient gradientUnits="userSpaceOnUse" r="819.2" cx="0" cy="0" spreadMethod="pad" gradientTransform="matrix(.019 0 0 .019 167.4 55.95)" id="c"><stop offset="0" stop-color="#fff"/><stop offset=".278" stop-color="#B1B1B1"/><stop offset=".631" stop-color="#525252"/><stop offset=".882" stop-color="#171717"/><stop offset="1"/></radialGradient><radialGradient gradientUnits="userSpaceOnUse" r="819.2" cx="0" cy="0" spreadMethod="pad" gradientTransform="matrix(.043 0 0 .043 138.9 38)" id="d"><stop offset="0" stop-color="#fff"/><stop offset=".278" stop-color="#B1B1B1"/><stop offset=".631" stop-color="#525252"/><stop offset=".882" stop-color="#171717"/><stop offset="1"/></radialGradient><radialGradient gradientUnits="userSpaceOnUse" r="819.2" cx="0" cy="0" spreadMethod="pad" gradientTransform="matrix(.048 0 0 .048 111.05 35.3)" id="e"><stop offset="0" stop-color="#fff"/><stop offset=".278" stop-color="#B1B1B1"/><stop offset=".631" stop-color="#525252"/><stop offset=".882" stop-color="#171717"/><stop offset="1"/></radialGradient><radialGradient gradientUnits="userSpaceOnUse" r="819.2" cx="0" cy="0" spreadMethod="pad" gradientTransform="matrix(.1 0 0 .1 125.75 83.9)" id="f"><stop offset="0" stop-color="#fff"/><stop offset=".278" stop-color="#B1B1B1"/><stop offset=".631" stop-color="#525252"/><stop offset=".882" stop-color="#171717"/><stop offset="1"/></radialGradient><radialGradient gradientUnits="userSpaceOnUse" r="819.2" cx="0" cy="0" spreadMethod="pad" gradientTransform="matrix(.075 0 0 .075 43.95 38)" id="g"><stop offset="0" stop-color="#fff"/><stop offset=".278" stop-color="#B1B1B1"/><stop offset=".631" stop-color="#525252"/><stop offset=".882" stop-color="#171717"/><stop offset="1"/></radialGradient><radialGradient gradientUnits="userSpaceOnUse" r="819.2" cx="0" cy="0" spreadMethod="pad" gradientTransform="matrix(.035 0 0 .035 14.4 42.2)" id="h"><stop offset="0" stop-color="#fff"/><stop offset=".278" stop-color="#B1B1B1"/><stop offset=".631" stop-color="#525252"/><stop offset=".882" stop-color="#171717"/><stop offset="1"/></radialGradient><radialGradient gradientUnits="userSpaceOnUse" r="819.2" cx="0" cy="0" spreadMethod="pad" gradientTransform="matrix(.037 0 0 .037 17.6 54.9)" id="i"><stop offset="0" stop-color="#fff"/><stop offset=".278" stop-color="#B1B1B1"/><stop offset=".631" stop-color="#525252"/><stop offset=".882" stop-color="#171717"/><stop offset="1"/></radialGradient><radialGradient gradientUnits="userSpaceOnUse" r="819.2" cx="0" cy="0" spreadMethod="pad" gradientTransform="matrix(.046 0 0 .046 14.4 68.6)" id="j"><stop offset="0" stop-color="#fff"/><stop offset=".278" stop-color="#B1B1B1"/><stop offset=".631" stop-color="#525252"/><stop offset=".882" stop-color="#171717"/><stop offset="1"/></radialGradient><radialGradient gradientUnits="userSpaceOnUse" r="819.2" cx="0" cy="0" spreadMethod="pad" gradientTransform="matrix(.07 0 0 .07 102 146.65)" id="k"><stop offset="0" stop-color="#fff"/><stop offset=".278" stop-color="#B1B1B1"/><stop offset=".631" stop-color="#525252"/><stop offset=".882" stop-color="#171717"/><stop offset="1"/></radialGradient><radialGradient gradientUnits="userSpaceOnUse" r="819.2" cx="0" cy="0" spreadMethod="pad" gradientTransform="matrix(.035 0 0 .035 114.45 123.5)" id="l"><stop offset="0" stop-color="#fff"/><stop offset=".278" stop-color="#B1B1B1"/><stop offset=".631" stop-color="#525252"/><stop offset=".882" stop-color="#171717"/><stop offset="1"/></radialGradient></defs><path fill="url(#a)" d="M162.15 49.35l2.5-8.45 16.6 6.7-.25 8.8-3.15-1.2-15.7-5.85"/><path fill="url(#b)" d="M164.65 40.9l3-10.7 3.65-2.7q8.4 3.2 12.95 10.6.75 1.3.8 2.75.15 4.05-.25 8.15l-3.55-1.4-16.6-6.7"/><path fill="url(#c)" d="M159.7 57l2.45-7.65 15.7 5.85q2.3 5.25 1.05 10.95L175 63.4q-7-5.3-15.3-6.4"/><path fill="url(#d)" d="M159.7 57l-1.8 5.7q-2.35 7.8-10 5.85-5-1.65-8.9-5.15-11.8-10.7-21.85-22.75l-1.65-2.15q7.35-.1 14.65 1.95 1.4.4 2.8 1.05 5.6-.55 5.9-5.75l-.15-1.05-.45-1.05-.75-1.2q-5.7-1.9-11.5-2.75l-15.8-1.5-.05-.9q.05-2.8 2.75-3.25 5.7-.5 10.15-3.95Q131.5 13.55 136 3.8l5.45 9.55-.4-.05.95 1.05-.55-1q3.85.7 7.75 1.85l12.6 3.25q7.05 1.7 10.05 7.55l-.55 1.5-3.65 2.7-3 10.7-2.5 8.45L159.7 57"/><path fill="url(#e)" d="M110.2 28.2l15.8 1.5q5.8.85 11.5 2.75l.75 1.2.45 1.05.15 1.05q-.3 5.2-5.9 5.75-1.4-.65-2.8-1.05-7.3-2.05-14.65-1.95l-13.95.5-22.9 2.5q-3.3-1.85-5.5-5.1-.6-.9-.5-1.9.45-3.7 4.45-4.55 13.6-2.7 27.6-1.85l5.5.1"/><path fill="url(#f)" d="M117.15 40.65Q127.2 52.7 139 63.4q3.9 3.5 8.9 5.15-.05 5.35.4 10.7 1.15 14.5 1.65 28.9.25 7.95-6.7 10.65l-7.15 2.25q.65-10.55-8.95-15.7-14.25-7.5-29.2-1-12 5.25-10.75 17.75l-7.75-.45q-13.35-.25-25.15-6.45-4.85-2.7-6.65-7.95-.55-1.65-.4-3.3Q49 86.5 51.3 69.1l5.25.55Q60.3 72.3 64.7 73q4.25.4 7.65-2.25 4-3.15 7.25-6.55 10.45-10.85 20.25-22.75 2.9 1.9 6.25 2.9 6.75 1.7 11.05-3.7"/><path fill="url(#g)" d="M104.7 28.1q-14-.85-27.6 1.85-4 .85-4.45 4.55-.1 1 .5 1.9 2.2 3.25 5.5 5.1l22.9-2.5-1.7 2.45q-9.8 11.9-20.25 22.75-3.25 3.4-7.25 6.55-3.4 2.65-7.65 2.25-4.4-.7-8.15-3.35l-4.85-3.8-4.1-4.4-7.35-8.3-22.55-26.1q-.95-1.65-.5-3.45.45-1.9 2.3-2.4 7.7-2.2 15.8-2.8 5.45-.7 10.75-1.95Q58.4 13.25 59.85 0 65.5 6.05 72.1 10.75q10.8 7.85 24 10.15 6.55 1.35 8.6 7.2m-85.85-2l-1.15.95 1.15-.95"/><path fill="url(#h)" d="M6.6 44.05l-2.2-.45-.35-1.75q-.15-1.7.35-3.25 3.2-9.35 13.3-11.55l22.55 26.1q-8.95-4.4-19.1-6.35L6.6 44.05"/><path fill="url(#i)" d="M6.6 44.05l14.55 2.75q10.15 1.95 19.1 6.35l7.35 8.3-43.45.65H1.5q.35-4.8.25-9.6-.1-5.95 4.85-8.45"/><path fill="url(#j)" d="M51.7 65.85l-.4 3.25-2.2.15Q23.95 72.3 0 79.6v-.35q-.05-9.2 4.15-17.15l43.45-.65 4.1 4.4"/><path fill="url(#k)" d="M54.3 115.2q11.8 6.2 25.15 6.45l7.75.45q3.75 10.5 14.85 13.5 16.65 4.5 29.7-6.5 3.75-3.25 4.35-8.05l7.15-2.25.4 4.7q2.15 17.85 7.65 35-6.75 3.95-14.4 6-36.1 10.15-72.1-2.2l-8.15-2.75q-4.75-1.4-7.25-5.2l4.9-39.15"/><path fill="url(#l)" d="M87.2 122.1q-1.25-12.5 10.75-17.75 14.95-6.5 29.2 1 9.6 5.15 8.95 15.7-.6 4.8-4.35 8.05-13.05 11-29.7 6.5-11.1-3-14.85-13.5l1.25.1-1.25-.1"/><path fill="none" stroke="#666" stroke-width=".05" stroke-linecap="round" stroke-linejoin="round" d="M171.3 27.5l.55-1.5q-3-5.85-10.05-7.55l-12.6-3.25q-3.9-1.15-7.75-1.85l.55 1-.95-1.05.4.05L136 3.8q-4.5 9.75-12.95 16.3-4.45 3.45-10.15 3.95-2.7.45-2.75 3.25l.05.9 15.8 1.5q5.8.85 11.5 2.75l.75 1.2.45 1.05.15 1.05q-.3 5.2-5.9 5.75-1.4-.65-2.8-1.05-7.3-2.05-14.65-1.95l1.65 2.15Q127.2 52.7 139 63.4q3.9 3.5 8.9 5.15 7.65 1.95 10-5.85l1.8-5.7 2.45-7.65 2.5-8.45 3-10.7 3.65-2.7q8.4 3.2 12.95 10.6.75 1.3.8 2.75.15 4.05-.25 8.15l-3.55-1.4-.25 8.8-3.15-1.2q2.3 5.25 1.05 10.95L175 63.4q-7-5.3-15.3-6.4m4.95-16.1l16.6 6.7m-3.4 7.6l-15.7-5.85M110.2 28.2l-5.5-.1q-14-.85-27.6 1.85-4 .85-4.45 4.55-.1 1 .5 1.9 2.2 3.25 5.5 5.1l22.9-2.5 13.95-.5m1.65 2.15q-4.3 5.4-11.05 3.7-3.35-1-6.25-2.9-9.8 11.9-20.25 22.75-3.25 3.4-7.25 6.55-3.4 2.65-7.65 2.25-4.4-.7-8.15-3.35l-5.25-.55q-2.3 17.4-4.05 34.85-.15 1.65.4 3.3 1.8 5.25 6.65 7.95 11.8 6.2 25.15 6.45l7.75.45q-1.25-12.5 10.75-17.75 14.95-6.5 29.2 1 9.6 5.15 8.95 15.7l7.15-2.25q6.95-2.7 6.7-10.65-.5-14.4-1.65-28.9-.45-5.35-.4-10.7M104.7 28.1q-2.05-5.85-8.6-7.2-13.2-2.3-24-10.15Q65.5 6.05 59.85 0q-1.45 13.25-13.8 16.45-5.3 1.25-10.75 1.95-8.1.6-15.8 2.8-1.85.5-2.3 2.4-.45 1.8.5 3.45l1.15-.95m82.7 12.9l-1.7 2.45M17.7 27.05Q7.6 29.25 4.4 38.6q-.5 1.55-.35 3.25l.35 1.75 2.2.45 14.55 2.75q10.15 1.95 19.1 6.35L17.7 27.05M4.15 62.1Q-.05 70.05 0 79.25v.35q23.95-7.3 49.1-10.35l2.2-.15.4-3.25-4.1-4.4-43.45.65H1.5q.35-4.8.25-9.6-.1-5.95 4.85-8.45m49.95 25.6l-4.85-3.8m-4.1-4.4l-7.35-8.3M54.3 115.2l-4.9 39.15q2.5 3.8 7.25 5.2l8.15 2.75q36 12.35 72.1 2.2 7.65-2.05 14.4-6-5.5-17.15-7.65-35l-.4-4.7m-56.05 3.3q3.75 10.5 14.85 13.5 16.65 4.5 29.7-6.5 3.75-3.25 4.35-8.05m-47.65 1.15l-1.25-.1"/></svg>