<svg xmlns="http://www.w3.org/2000/svg" viewBox="0 0 74.3 58.4" width="74.3" height="58.4"><defs><linearGradient gradientUnits="userSpaceOnUse" x1="-819.2" x2="819.2" gradientTransform="matrix(0 -.005 .006 0 52.4 21.35)" id="a"><stop offset="0" stop-color="#D0B583"/><stop offset="1" stop-color="#A27E3E"/></linearGradient><linearGradient gradientUnits="userSpaceOnUse" x1="-819.2" x2="819.2" gradientTransform="matrix(.005 -.009 .004 .002 60.95 36.1)" id="b"><stop offset="0" stop-color="#D0B583"/><stop offset="1" stop-color="#A27E3E"/></linearGradient><linearGradient gradientUnits="userSpaceOnUse" x1="-819.2" x2="819.2" gradientTransform="matrix(-.02 -.012 .011 -.02 20.85 19.6)" id="c"><stop offset="0" stop-color="#D0B583"/><stop offset="1" stop-color="#A27E3E"/></linearGradient><linearGradient gradientUnits="userSpaceOnUse" x1="-819.2" x2="819.2" gradientTransform="matrix(0 -.006 .012 0 46.65 42.05)" id="d"><stop offset="0" stop-color="#D0B583"/><stop offset="1" stop-color="#A27E3E"/></linearGradient><linearGradient gradientUnits="userSpaceOnUse" x1="-819.2" x2="819.2" gradientTransform="matrix(0 -.005 .006 0 63.85 39.65)" id="e"><stop offset="0" stop-color="#D0B583"/><stop offset="1" stop-color="#A27E3E"/></linearGradient><linearGradient gradientUnits="userSpaceOnUse" x1="-819.2" x2="819.2" gradientTransform="matrix(-.001 -.012 .003 0 57.2 34.7)" id="f"><stop offset="0" stop-color="#D0B583"/><stop offset="1" stop-color="#A27E3E"/></linearGradient><linearGradient gradientUnits="userSpaceOnUse" x1="-819.2" x2="819.2" gradientTransform="matrix(-.003 -.012 .005 -.001 68.3 32.65)" id="g"><stop offset="0" stop-color="#D0B583"/><stop offset="1" stop-color="#A27E3E"/></linearGradient><linearGradient gradientUnits="userSpaceOnUse" x1="-819.2" x2="819.2" gradientTransform="matrix(0 -.006 .007 0 40.05 21.85)" id="h"><stop offset="0" stop-color="#D0B583"/><stop offset="1" stop-color="#A27E3E"/></linearGradient><linearGradient gradientUnits="userSpaceOnUse" x1="-819.2" x2="819.2" gradientTransform="matrix(0 -.004 .006 0 64.35 21.1)" id="i"><stop offset="0" stop-color="#D0B583"/><stop offset="1" stop-color="#A27E3E"/></linearGradient><linearGradient gradientUnits="userSpaceOnUse" x1="-819.2" x2="819.2" gradientTransform="matrix(0 -.003 .025 0 46 16.35)" id="j"><stop offset="0" stop-color="#D0B583"/><stop offset="1" stop-color="#A27E3E"/></linearGradient><linearGradient gradientUnits="userSpaceOnUse" x1="-819.2" x2="819.2" gradientTransform="matrix(-.002 -.006 .007 -.002 26.75 23.5)" id="k"><stop offset="0" stop-color="#D0B583"/><stop offset="1" stop-color="#A27E3E"/></linearGradient><linearGradient gradientUnits="userSpaceOnUse" x1="-819.2" x2="819.2" gradientTransform="matrix(.005 -.009 .013 .008 11.25 40.15)" id="l"><stop offset="0" stop-color="#D0B583"/><stop offset="1" stop-color="#A27E3E"/></linearGradient><linearGradient gradientUnits="userSpaceOnUse" x1="-819.2" x2="819.2" gradientTransform="matrix(0 -.001 .003 0 21.3 40.35)" id="m"><stop offset="0" stop-color="#D0B583"/><stop offset="1" stop-color="#A27E3E"/></linearGradient><linearGradient gradientUnits="userSpaceOnUse" x1="-819.2" x2="819.2" gradientTransform="matrix(0 -.005 .007 0 29 43.15)" id="n"><stop offset="0" stop-color="#D0B583"/><stop offset="1" stop-color="#A27E3E"/></linearGradient><linearGradient gradientUnits="userSpaceOnUse" x1="-819.2" x2="819.2" gradientTransform="matrix(0 -.007 .002 0 35.4 43.8)" id="o"><stop offset="0" stop-color="#D0B583"/><stop offset="1" stop-color="#A27E3E"/></linearGradient><linearGradient gradientUnits="userSpaceOnUse" x1="-819.2" x2="819.2" gradientTransform="matrix(0 -.009 .002 0 35.85 46.05)" id="p"><stop offset="0" stop-color="#D0B583"/><stop offset="1" stop-color="#A27E3E"/></linearGradient><linearGradient gradientUnits="userSpaceOnUse" x1="-819.2" x2="819.2" gradientTransform="matrix(-.007 -.013 .004 -.003 16.75 37.95)" id="q"><stop offset="0" stop-color="#D0B583"/><stop offset="1" stop-color="#A27E3E"/></linearGradient><linearGradient gradientUnits="userSpaceOnUse" x1="-819.2" x2="819.2" gradientTransform="matrix(.001 .004 -.032 .005 46.6 49.4)" id="r"><stop offset="0" stop-color="#41382E"/><stop offset="1" stop-color="#695D49"/></linearGradient><linearGradient gradientUnits="userSpaceOnUse" x1="-819.2" x2="819.2" gradientTransform="matrix(-.011 .004 -.003 -.009 28.9 10.45)" id="s"><stop offset="0" stop-color="#41382E"/><stop offset="1" stop-color="#695D49"/></linearGradient><linearGradient gradientUnits="userSpaceOnUse" x1="-819.2" x2="819.2" gradientTransform="matrix(.012 -.007 .011 .018 55.05 12)" id="t"><stop offset="0" stop-color="#41382E"/><stop offset="1" stop-color="#695D49"/></linearGradient><linearGradient gradientUnits="userSpaceOnUse" x1="-819.2" x2="819.2" gradientTransform="matrix(-.009 .002 -.002 -.01 10.1 25.85)" id="u"><stop offset="0" stop-color="#41382E"/><stop offset="1" stop-color="#695D49"/></linearGradient></defs><path fill="#D0B583" d="M25.65 21.25l-1.75.6 44-3.95-1.45-.25-20.15-3.7-20.65 7.3m43.6 7.1L70 19.1l-.5.05-9.95.9-.3 8.85v.45l-1.6.15.25-9.3h-.3l-10.35.95-1.7.15 1.7-.15.15 8.9v.5l-1.65.15-.2-9.4h-.2l-10.7 1-1.75.15h-.05.05l1.75-.15.6 9 .05.5-1.65.15-.45-5-.35-4.5L21.7 23.5l.75 6.5.35 3.05-1.7.15-1.3-10.4-.8.1-2.1.15L46.25 12.7l28.05 5.2-2.65.25L71 25.7l-.2 2.5-1.55.15m-12.7 7.7l.4-.05 3.1-.35-.05.7-.3.05-2.35.25-.4.05-.3-.5-.1-.15m11.9-1.3l.35-.05.9-.1 3.75-.4-.1 1.05-.35.05-3.25.35h-.15.15l-1.05 13.1-.25.05.1.15 3.3-.4.25-.05-.1.95-3.55.4-1.3-2 .1-.9.2-.05.1.15v-.15l.1-1.4.8-10.75M56.95 36v.7-.7m-8.1 12.1l-.05-5.75-.15-.1-2.9-1.05-3 1.8.25 5.8-.7.05-.25-6.1 3.7-2.3-3.7 2.3-.1-.3 3.65-2.35.15.35 3.75 1.5-3.75-1.5-.15-.35 3.75 1.5.15.35.05 5.7V48l-.7.1m-11 4.9l.05.6-3 .4-.05-.65h.3l2.7-.35m-3.3-1.4h.3l-.2-2.2h.15l.2 2.2h-.15v.1l.25 1.5.05.15h-.3l-.3-1.75m-9.9-1l.15 1.45.05 2.05-.4-3.45-1.25-9.95h.15l1.3 9.9-.2.05.2-.05m.6 4.6l-3.9.45-.1-.95v-.15h.25l3.35-.45h.3v.15l.1.95m34.25-4.85l-.05.6-2.9.4-.8-1.7.05-.6.8 1.65 2.6-.3.3-.05m9.3-15.65l.8.95-.8-.95m.9-.1l-.1 1.05.1-1.05m-2.45 12.35l1.2 1.85-1.2-1.85m.3.1l1.15 1.7-1.15-1.7m.9 2.8l.1-.9-.1.9m-43.3 4.4l-3.9.45 3.9-.45m31.4-2.9l.05-.65-.05.65"/><path fill="#B1A078" d="M66.45 17.65l1.45.25-44 3.95 1.75-.6 40.8-3.6m3.05 1.5l.5-.05-.75 9.25-.4-.45.65-8.75M45.35 21.3h.2l.2 9.4-.2-.45-.2-8.95m12.25-1.1h.3l-.25 9.3-.3-.45.25-8.85M24.8 52.05l.25-.05.05 1.05.05 1.05h-.3l-.05-2.05m31-3l.5-.05v.1l.7 1.4 2.15-.25.05.15-2.6.3-.8-1.65"/><path fill="url(#a)" d="M47.25 21.15l10.35-.95-.25 8.85-9.95 1-.15-8.9"/><path fill="#695D49" d="M69.25 28.35l1.55-.15.2-2.5 3 2.9-55.7 5.6.1-1 .6-10.3.8-.1 1.3 10.4 1.7-.15v-.5l10.7-1.1.15.5 1.65-.15-.05-.5 10.3-1.05.2.45 1.65-.15v-.5l9.95-1 .3.45 1.6-.15v-.45l9.6-1 .4.45"/><path fill="url(#b)" d="M56.65 36.2l.3.5.4-.05L57 50.5l-.7-1.4V49l.05-2.15.3-10.65"/><path fill="url(#c)" d="M56.95 36l-.4.05L37 38.15l-3.25.35h-.1l-10.2 1.1h-.1l-4.2.45-.85-5.85L74 28.6l-.55 5.6-3.75.4-.9.1-.35.05-8.4.9-3.1.35"/><path fill="url(#d)" d="M37 38.15l19.55-2.1.1.15-.3 10.65-6.8.8-.05-5.7-.15-.35-3.75-1.5-3.65 2.35.25 6.05-4.85.6-.6-10.2.3-.05-.05-.7"/><path fill="url(#e)" d="M60.05 35.65l8.4-.9-.8 10.75-8.35 1 .4-10.1.3-.05.05-.7"/><path fill="url(#f)" d="M57.35 36.65l2.35-.25-.4 10.1-.1 3.3-.05.45-2.15.25.35-13.85"/><path fill="url(#g)" d="M73 35.3l-1.2 12.8-.05.3-3.05.35 1.05-13.1L73 35.3"/><path fill="url(#h)" d="M34.65 22.3l10.7-1 .2 8.95-10.3 1.05-.6-9"/><path fill="url(#i)" d="M59.25 28.9l.3-8.85 9.95-.9-.65 8.75-9.6 1"/><path fill="url(#j)" d="M25.65 21.25l20.65-7.3 20.15 3.7-40.8 3.6"/><path fill="url(#k)" d="M22.45 30l-.75-6.5 11.15-1.05.35 4.5.3 4.5-10.7 1.1-.35-2.55"/><path fill="url(#l)" d="M18.3 34.2l.85 5.85.15 1.05h.3l1.05 7.35-17.2 2L0 35.05l18.4-1.85-.1 1"/><path fill="url(#m)" d="M19.15 40.05l4.2-.45.1 1.05-.1.05h-.15l-3.6.4h-.3l-.15-1.05"/><path fill="url(#n)" d="M23.45 39.6l10.2-1.1.15.7.85 10.2-10 1.2-1.3-9.9.1-.05V39.6"/><path fill="url(#o)" d="M33.75 38.5l3.25-.35.05.7-.3.05-2.7.25.75 10.25h-.15l-.85-10.2-.05-.7"/><path fill="url(#p)" d="M37.35 49.1l.15 2.15.1 1.65-2.5.3-.1-1.6-.2-2.2-.75-10.25 2.7-.25.6 10.2"/><path fill="url(#q)" d="M20.65 48.45L19.6 41.1l3.6-.4 1.25 9.95.4 3.45-3.35.45-.25-1.8-.6-4.3"/><path fill="url(#r)" d="M48.65 42.25l.05 5.5.15.35.7-.1v-.35l6.8-.8L56.3 49l-.5.05-.05.6.8 1.7 2.9-.4.05-.6-.3-.55.1-3.3 8.35-1-.1 1.4h-.1l-.2.05-.1.9 1.3 2 3.55-.4 1.7 2.35-52.35 6.6v-2.75l3.9-.45-.15-2.15-.05-1.05-.25.05-.15-1.45 10-1.2.2 2.2h-.3l.05.65.3 1.75 3-.4-.05-.6-.35-1.75-.15-2.15 4.85-.6.1.35.7-.05-.25-5.8 3-1.8 2.9 1.05"/><path fill="url(#s)" d="M46.25 12.7L16.9 23.05l.6-5.65 1.15-10.85L37.2 0l9.05 12.7"/><path fill="url(#t)" d="M46.25 12.7L37.2 0l18.45 3.85L74.3 17.9l-28.05-5.2"/><path fill="url(#u)" d="M16.9 23.05l2.1-.15-.6 10.3L0 35.05l6.4-16.7 11.1-.95-.6 5.65"/><path fill="none" stroke="#695D49" stroke-width=".05" stroke-miterlimit="10" d="M32.85 22.45h.05l1.75-.15"/><path fill="none" stroke="#41392E" stroke-width=".05" stroke-miterlimit="10" d="M18.4 33.2l.6-10.3"/><path fill="none" stroke="#A27E3E" stroke-width=".05" stroke-miterlimit="10" d="M66.45 17.65l1.45.25-44 3.95 1.75-.6 20.65-7.3 20.15 3.7-40.8 3.6M22.45 30l-.75-6.5 11.15-1.05m1.8-.15l10.7-1 .2 8.95-10.3 1.05-.6-9M18.3 34.2l.85 5.85m14.35-8.6l-10.7 1.1m-3.2 8.55h-.3l-.15-1.05m-.75-6.85l-.1 1m15.2-2.75l-.3-4.5-.35-4.5M22.45 30l.35 2.55m-2.15 15.9l-17.2 2L0 35.05"/><path fill="none" stroke="#4D4436" stroke-width=".05" stroke-miterlimit="10" d="M0 35.05l18.4-1.85"/><path fill="none" stroke="#9B7A3C" stroke-width=".05" stroke-miterlimit="10" d="M19.15 40.05l4.2-.45M37 38.15l.05.7-.3.05.6 10.2m-3.7-10.6l.15.7-.05-.7m1.05 10.9l-.75-10.25 2.7-.25m-2.95.3l.85 10.2m-14-.95L19.6 41.1l3.6-.4 1.25 9.95.2-.05-1.3-9.9M35 51.6l.1 1.6 2.5-.3-.1-1.65m-2.65.35v.1l.25 1.5m.05.15l2.7-.35m-3 .35l.05.65m-.05-.65h.3m-.6-1.75l.3 1.75m-13.6 1.2h.25l-.25-1.8v1.95l3.9-.45v-.15h-.3l-3.35.45m-.15 1.1l-.1-.95m3.9-.6l-.05-1.05m.05 1.2l.1.95m-.4-1.1l-.05-2.05m-.35-1.4l.4 3.45m34.35-4.3l-.05.45-2.15.25m2.2-.1l.3-.05m-2.9.35l-.05.65m2.65-.95l-2.6.3-.8-1.65m-21 .35l.2 2.2m-13.75 1.15l-.6-4.3"/><path fill="none" stroke="#9B7A3C" stroke-width=".05" stroke-linecap="round" stroke-miterlimit="10" d="M69.5 19.15l.5-.05-.75 9.25 1.55-.15.2-2.5.65-7.55 2.65-.25m-5.45 10l.4.45M56.95 36l3.1-.35 8.4-.9.35-.05.9-.1 3.75-.4-.1 1.05-.35.05-1.2 12.8.3.4-.25.05-.1-.15-3.05.35 1.05-13.1L73 35.3m-16.35.9l.3.5V36m0 .7l.4-.05 2.35-.25.3-.05.05-.7M48.85 48.1l-.05-5.75-.15-.1.05 5.5.15.35.7-.1v-.35l-.05-5.7-3.75-1.5-3.7 2.3.25 6.1.7-.05-.25-5.8 3-1.8 2.9 1.05M45.6 40.1l.15.35m3.75 1.5l-.15-.35-3.75-1.5-3.65 2.35.1.3m.25 6.1l-.1-.35-4.85.6.15 2.15.35 1.75.05.6-3 .4-.3-1.75-.05-.65h.3l-.2-2.2-10 1.2.15 1.45.25-.05.05 1.05.15 2.15-3.9.45v2.75l52.35-6.6-1.7-2.35-3.55.4-1.3-2 .1-.9.2-.05h.1l.1-1.4-8.35 1-.1 3.3.3.55-.05.6-2.9.4-.8-1.7.05-.6.5-.05.05-2.15-6.8.8m7.1-11.45l-.3 10.65m13.4-11.2h-.15l-.8-.95m.8.95l.1-1.05m-2.25 12.3l.1.15v-.15m.9 1.9l-1.2-1.85m1.2 1.85l.25-.05-1.15-1.7m4.2 1.35l.05-.3m-4.15-2.6l.8-10.75"/><path fill="none" stroke="#41392E" stroke-width=".05" stroke-linecap="round" stroke-miterlimit="10" d="M74.3 17.9l-28.05-5.2L16.9 23.05l2.1-.15m-1.5-5.5l-11.1.95L0 35.05M17.5 17.4l1.15-10.85L37.2 0l9.05 12.7"/><path fill="none" stroke="#695D49" stroke-width=".05" stroke-miterlimit="10" d="M19 22.9l.8-.1 1.3 10.4 1.7-.15M45.35 21.3h.2m-10.3 10l.05.5-1.65.15m-10.85.6v.5m10.4-6.1l.45 5"/><path fill="none" stroke="#695D49" stroke-width=".05" stroke-linecap="round" stroke-miterlimit="10" d="M33.65 31.95l-.15-.5m-10.7 1.6L22.45 30m23.3.7l-.2-.45M45.55 21.3l1.7-.15m10.35-.95h.3l-.25 9.3 1.6-.15v-.45m-1.9.15l.3.45m-10.25.55v.5l-1.65.15-.2-9.4"/><path fill="none" stroke="#A27E3E" stroke-width=".05" stroke-linecap="round" stroke-miterlimit="10" d="M47.25 21.15l10.35-.95m1.65 8.7l.3-8.85 9.95-.9-.65 8.75-9.6 1M47.4 30.05l9.95-1 .25-8.85m-10.35.95l.15 8.9"/><path fill="none" stroke="#9B7A3C" stroke-width=".05" stroke-miterlimit="10" d="M56.55 36.05l.4-.05m-33.5 3.6l10.2-1.1h.1l3.25-.35 19.55-2.1.1.15M42.2 48.5l-.25-6.05m26.6 6.5l-.1-.15M23.2 40.7h.15l.1-.05"/><path fill="none" stroke="#9B7A3C" stroke-width=".05" stroke-linecap="round" stroke-miterlimit="10" d="M23.45 40.65V39.6m50-5.4l.55-5.6-55.7 5.6m38 14.8v.1l.7 1.4.35-13.85m2.35-.25l-.4 10.1m12.8 2l-.1.95M71 25.7l3 2.9m-2.15 19.95l-3.3.4-.1.9m-45-9.2l-.1-1.05"/><path fill="none" stroke="#41392E" stroke-width=".05" stroke-miterlimit="10" d="M37.2 0l18.45 3.85L74.3 17.9m-57.4 5.15l.6-5.65"/></svg>