<svg xmlns="http://www.w3.org/2000/svg" viewBox="0 0 34.3 40.0" width="34.3" height="40"><defs><linearGradient gradientUnits="userSpaceOnUse" x1="-819.2" x2="819.2" gradientTransform="matrix(0 -.008 .025 0 -2.4 24.5)" id="a"><stop offset=".176" stop-color="#fff"/><stop offset=".341" stop-color="#4C4CE0"/><stop offset=".647" stop-color="#fff"/><stop offset=".867" stop-color="#036"/></linearGradient><linearGradient gradientUnits="userSpaceOnUse" x1="-819.2" x2="819.2" gradientTransform="matrix(0 .012 -.02 0 17.55 29.85)" id="b"><stop offset="0" stop-color="#fff"/><stop offset=".569" stop-color="#7A9FE4"/><stop offset="1" stop-color="#8EB3E8"/></linearGradient><linearGradient gradientUnits="userSpaceOnUse" x1="-819.2" x2="819.2" gradientTransform="matrix(.003 .007 -.019 .007 19.9 29.95)" id="c"><stop offset="0" stop-color="#fff"/><stop offset=".678" stop-color="#7A9FE4"/><stop offset="1" stop-color="#B1CBEF"/></linearGradient><linearGradient gradientUnits="userSpaceOnUse" x1="-819.2" x2="819.2" gradientTransform="matrix(.02 0 0 .012 17.55 29.85)" id="d"><stop offset="0" stop-color="#fff"/><stop offset=".678" stop-color="#7A9FE4"/><stop offset="1" stop-color="#B1CBEF"/></linearGradient><linearGradient gradientUnits="userSpaceOnUse" x1="-819.2" x2="819.2" spreadMethod="unknown" gradientTransform="matrix(.008 .031 -.018 .005 21.35 31.9)" id="e"><stop offset="0" stop-color="#666"/><stop offset=".565" stop-color="#ccc"/><stop offset="1" stop-color="#999"/></linearGradient><radialGradient gradientUnits="userSpaceOnUse" r="819.2" cx="0" cy="0" spreadMethod="unknown" gradientTransform="matrix(.032 0 0 .032 22.95 9.8)" id="f"><stop offset="0" stop-color="#A6C5E1"/><stop offset=".894" stop-color="#5474B4"/></radialGradient><linearGradient gradientUnits="userSpaceOnUse" x1="-819.2" x2="819.2" gradientTransform="matrix(0 .012 -.019 .001 15.8 24.35)" id="g"><stop offset="0" stop-color="#fff"/><stop offset=".569" stop-color="#7A9FE4"/><stop offset="1" stop-color="#8EB3E8"/></linearGradient><linearGradient gradientUnits="userSpaceOnUse" x1="-819.2" x2="819.2" gradientTransform="matrix(.002 .009 -.016 .004 14.25 18.15)" id="h"><stop offset="0" stop-color="#fff"/><stop offset=".569" stop-color="#7A9FE4"/><stop offset="1" stop-color="#8EB3E8"/></linearGradient></defs><path fill="url(#a)" d="M17.5 23.5v-.1l.3.05-.3.05"/><path fill="url(#b)" d="M34 19.8l.05.45q0 1-.4 2.2-.55 1.4-.95 8.6l-.25-1.1-.5-.35-.3.1-.15.05v1h-.15q0-.45-.35-.45-.25 0-.25.1v.05q-.15.45-.15 1.2-.25-.3-.6-.3-.5 0-1.25 1.25-.5.85-.6 1.75l-.05-1q-.15-.95-.7-1.1l-.5 1.65q-.2-.9-.5-.9-.5.8-.55 2.25-.15-1.2-.5-1.4l-.35 2-.4 2.25h-.05l-.25-1.85-.85-2.4q-.95.5-2.4 3.3v-1l-.15-.35-.15-.1-1.1.75-.45-.45q-.35.4-.55 1.65h-.05l-.35-.75-.65-.85v1.7q-.15-1.75-.75-1.9l-2 1.55q-1.05.85-1.15 2.6l-.8-2.95q-.45-1.5-1.1-1.5l-1.25.6-.6-.6-.7.75-.3-1.2h-.3q0 .7-.75 2.1.15-.65-.1-2.05-.35-1.65-.85-1.9l-.6 1.3q-.4-1.75-1.1-2.45v1.55L5 35.4 4.75 33q-.1-1.25-.85-2.4-.3.55-.3 1.35V30.6h-.5V29.95l-.15-.35-.25-.4-.1.25-.05-.05-.25-.85-.3-.7-.2.25-.1-.1-.15-.7-.4.4-.1-5.2L34 19.8"/><path fill="url(#c)" d="M24.55 38.1h.05v.05l-.05-.05"/><path fill="url(#d)" d="M24.55 38.1l.05.05v.1l-.05-.15"/><path fill="url(#e)" d="M27.7 6.15l-.45-.35-.2-.2.65.55m-10.4-4.2l.6.05-.75.1-.65-.1.8-.05"/><path fill="url(#f)" d="M17.3 1.95l-.8.05.65.1.75-.1-.6-.05m9.75 1.1L29.3 5l.85.9Q33.2 9.35 34 13.75v.05l.3 3.35v.8q-.2 5.7-3.8 10.05l-1.2 1.25-1.8 1.6q-4.4 3.45-10.2 3.45h-.4l-4.1-.6q-4.2-1.1-7.5-4.45-2.2-2.2-3.45-4.85-.9-1.85-1.25-3.95-.3-1.6-.3-3.3 0-3.75 1.4-6.95.8-1.85 2.05-3.45L5.3 5Q8.75 1.55 13.2.5l1.85-.35 1.6-.15h1.1l1.5.1 2.2.4q3.05.7 5.6 2.55m.65 3.1l-.65-.55.2.2.45.35"/><path fill="#7A9FE4" d="M14.65 9.75q-.05-.8.3-.95l.35-.25.35-.25-.45.55q-.35.3 0 .4.8-.4 2.1-.75.95-.25 1.8-.9-.2 1.2-1.2 1.9 1.05-.05 1.6.5.45.45.25.95-.2.55-.9.5-.85-.05-1.9-.9.15.75.8 1.1l1.45.35 1.5.2q.7.2.9.75l-1.5-.05-1 .05 1.8.75q1.1.45 1.9 0 1.55.7 2.2-.75.35-.85.3-1.95l.85 1.6q.6 1 .35 1.6-.2-.6-1.7-.45l-3.3.55q-2.2.3-3.45 0-1.65-.5-2.15-2.05.25.75 1.35.75l.55.05-.45-.55-1-1.9-.7-1.1q-.4 0-.95 1.5l-.05-1.25M13.15 15.6q.25.45.6.35.4-.15.7-1L14.2 16q-.35.55-.25 1.15-.75-.25-.45 1 .25 1.05 1 2.5.75 1.4 1.05 1.55.35.15-.35-1.85l1 1.65.95 1.75q-2.4.4-2.95-.7l-.45-1.1q-.35-.7-1-1.15-.25 1.9 1.15 2.8 1.1.7 3.65 1l4.75.25 4.45.65q-.6.6-1.95.95l-2.35.55q-1.35.3-1.85.65-.6.55-.25 1.5l-1.75.05q-1.1.05-1.45-.3 2.05-1.05 1.8-1.55-.2-.4-2.05-.75l-3.65-.85q-2.25-.75-3.2-2 .25-.3.3-1.2l.1-1.25q.15-.95 1.55 1.75.7-1.05.7-2.7l-.25-2.85q-.2-1.65 0-2.3.3-.95 1.5-1-.65.1-.85.55-.15.45.05.85"/><path fill="#9FB8E8" d="M24.75 4.9l-.35 2.15q-.2 1.4.1 2l.2-1.65q.05-1.15.3-1.55 0 .8 1 1.15.95.3 1 .6l-.4.1-.1.35q-.85.25-1.2.45-.6.3-.55 1.05l-.65.7q-.5.35-.05.75.05 1.1-.3 1.95-.6 1.4-2.15.75 1.15-.6 1.7-2.05.45-1.3.5-3.35l.5-2.95.25-.2.2-.25M9 12.3q-.05 2.15-.7 1.5-.15-1.2-.95-1.4-.8-.2-1.3.65.2-1.6 1.2-1.4L9 12.3M9 23.3l.45 1.1q.55 1.1 2.95.7l-.95-1.75-1-1.65-.6-1.6-.65-1.6q-.1-.6.25-1.15l.25-1.05q.55 0 1.6 1.4 1.05 1.45 2.1 1.55l.3.55.2.65q-1.25-1.4-2.1-1.1-.75.3-.8 1.65-.05 1.35.75 2.55.95 1.45 2.65 1.8h.2l3.85.45q2.15-.15 2.3-1.9.3 1.15 1.05 1.15.6-.05 1.3-.9l.85-1.85q.25-1.15-.25-1.85.15-.55.45-.35l.8.35-.6-1.45-.9-.5q1.45-.25 1.85.9.25.85 0 2.75l-.4 2.9q-.1 1.4.5 1.55l-.25.35-.2.4h-.25q-.25-.45-1.2-.4-.95.1-2.05.6L19.7 28.6q-.65.65-.4 1.2l-1.75.45-1.95.25q-.35-.95.25-1.5.5-.35 1.85-.65l2.35-.55q1.35-.35 1.95-.95-1.55-.5-4.45-.65l-4.75-.25q-2.55-.3-3.65-1-1.4-.9-1.15-2.8l1 1.15"/><path fill="#375BCA" d="M14.65 7.95q-.25.65-1.25 1.1l.35-.85q.25-.4-.35-.6 0 .55-.5.75l-1.3.2-2.15.3q-.15 0-.25.1l-.2.1V8.6q.85.1.95-.5l1.2-1q.75-.6 1.5-.75.4.2.95-.2.4-.3.55 0L13.1 7l.35-.15q.65-.15 1.05.2.35.35.15.9M13.1 7q-.5.25-.9.8l.6-.55.3-.25"/><path fill="url(#g)" d="M30.65 14.1v.1l-.25 2.2q-.4 1.4-.55 8.6l-.25-1-.5-.35-.3.1-.15.05v.95h-.1q0-.45-.35-.4-.25 0-.25.1v.05q-.1.45-.05 1.2-.25-.3-.55-.3-.5.05-1.05 1.25-.5.9-.55 1.75l-.05-.95q-.15-.95-.75-1.1l-.4 1.7q-.2-.9-.5-.85-.4.8-.4 2.2-.2-1.15-.5-1.35l-.3 1.95-.2 2.35h-.05l-.35-1.9q-.4-1.75-.8-2.35-.95.5-2.2 3.4l-.05-1.05-.1-.35-.15-.1-.95.8-.45-.45q-.3.4-.45 1.75h-.05l-.3-.75-.7-.9.05 1.75q-.2-1.8-.75-1.9l-1.75 1.65q-.9.85-.95 2.6l-.9-2.9q-.45-1.5-1-1.5l-1.15.65-.55-.6-.65.8-.35-1.2h-.3q.05.7-.6 2.2.1-.7-.2-2.1-.35-1.6-.8-1.85l-.5 1.3q-.4-1.7-1.1-2.45l.05 1.6-.15 1.7-.3-2.3Q4 26.65 3.2 25.5q-.25.45-.25 1.15v-.7l-.05-.45-.4.05v-.6l-.15-.35-.25-.4-.1.25-.05-.05-.25-.85-.3-.75-.15.35L1.1 23l-.1-.7-.4.4-.25-5.2H.4l.75 1.9q1.2 2.6 3.3 4.75 3.2 3.15 7.05 4.15l3.85.45.35-.05q5.35-.15 9.25-3.7l1.65-1.6 1-1.35q2.55-3.6 3.05-7.95"/><path fill="url(#h)" d="M25.45 7.8v.05l.15 1.75q-.15 1.2.75 6.75l-.35-.7-.45-.25-.25.15-.15.1.15.75h-.05l-.35-.3q-.25.05-.25.15l.05.05.1.9-.5-.1q-.45.15-.7 1.15-.35.75-.25 1.4l-.2-.7q-.2-.7-.75-.7l-.1 1.35q-.3-.7-.6-.6-.2.7 0 1.8-.3-.85-.6-.95l.05 1.55q0 1.25.15 1.8l-.05.05-.6-1.4-1.05-1.75q-.65.55-1.35 3.05l-.2-.8-.15-.25-.1-.05-.75.8q-.25-.3-.45-.3-.2.35-.1 1.4h-.05l-.35-.5-.75-.6.3 1.35q-.4-1.4-.9-1.35l-1.3 1.55q-.65.8-.45 2.2l-1.1-2.15q-.65-1.05-1.15-.95l-.9.7q0-.15-.55-.4l-.4.75-.55-.9-.2.05L8 25.5l-.5-1.55q-.55-1.2-1-1.35l-.2 1.1Q5.7 22.4 5 22l.2 1.2q.25.65.15 1.35L4.8 22.8q-.35-.95-1.15-1.7-.15.4-.05.95l-.1-.55-.1-.35-.35.1L3 21l-.05-.2-.2-.25-.25-.3-.1.25-.05-.05-.3-.6-.35-.5-.1.2h-.15l-.2-.55-.3.35-.95-4 .9 1.35q1.45 1.85 3.6 3.15 3.2 1.9 6.65 2.1l3.35-.3.3-.1q4.5-1 7.4-4.4l1.15-1.5.65-1.2q1.65-3.2 1.45-6.65"/><path fill="none" stroke="#E5E5FA" stroke-width=".05" stroke-opacity=".278" stroke-linecap="round" stroke-linejoin="round" d="M17.5 23.5l.3-.05-.3-.05"/><path fill="none" stroke="#fff" stroke-width=".05" stroke-linecap="round" stroke-linejoin="round" d="M34 19.8l.05.45q0 1-.4 2.2-.55 1.4-.95 8.6l-.25-1.1-.5-.35-.3.1-.15.05v1h-.15q0-.45-.35-.45-.25 0-.25.1v.05q-.15.45-.15 1.2-.25-.3-.6-.3-.5 0-1.25 1.25-.5.85-.6 1.75v.9M34 19.8v-.05h.3l-.3.05-32.95 2.7.1 5.2.4-.4.15.7.1.1.2-.25.3.7.25.85v.1l.05-.05.1-.25.25.4.15.35V30.6h.5v1.35q0-.8.3-1.35.75 1.15.85 2.4L5 35.4l.25-1.75V32.1q.7.7 1.1 2.45l.6-1.3q.5.25.85 1.9.25 1.4.1 2.05.75-1.4.75-2.1h.3l.3 1.2.7-.75.6.6 1.25-.6q.65 0 1.1 1.5l.8 2.95q.1-1.75 1.15-2.6l2-1.55q.6.15.75 1.9v-1.7l.65.85.35.75m.05 0q.2-1.25.55-1.65l.45.45 1.1-.75.15.1.15.35v1q1.45-2.8 2.4-3.3l.85 2.4.25 1.85m.05 0l.4-2.25.35-2q.35.2.5 1.4.05-1.45.55-2.25.3 0 .5.9l.5-1.65q.55.15.7 1.1l.05 1M3.1 30.6l.5.45m21 7.1v-.05m0 .15v-.1m0 .1l-.05.2v-.35m-5.9-.45l-.05.15v-.15M22.65 32.35l.2-2.35.3-1.95q.3.2.5 1.35 0-1.4.4-2.2.3-.05.5.85l.4-1.7q.6.15.75 1.1l.05.95q.05-.85.55-1.75.55-1.2 1.05-1.25.3 0 .55.3-.05-.75.05-1.2v-.05q0-.1.25-.1.35-.05.35.4h.1v-.95l.15-.05.3-.1.5.35.25 1q.15-7.2.55-8.6l.25-2.2v-.1M.4 17.5H.35l.25 5.2.4-.4.1.7.15.15.15-.35.3.75.25.85.05.1v-.05l.1-.25.25.4.15.35v.6l.4-.05.05.45v.7q0-.7.25-1.15.8 1.15.95 2.4l.3 2.3.15-1.7-.05-1.6q.7.75 1.1 2.45l.5-1.3q.45.25.8 1.85.3 1.4.2 2.1.65-1.5.6-2.2h.3L8.4 31l.65-.8.55.6 1.15-.65q.55 0 1 1.5l.9 2.9q.05-1.75.95-2.6l1.75-1.65q.55.1.75 1.9l-.05-1.75.7.9.3.75v.15l.05-.15q.15-1.35.45-1.75l.45.45.95-.8.15.1.1.35.05 1.05q1.25-2.9 2.2-3.4.4.6.8 2.35l.35 1.9m.05 0v.1l-.05.2v-.3m3.2-3.05l-.05-.9M2.5 25.55l.45.4M21.3 23.2q-.15-.55-.15-1.8l-.05-1.55q.3.1.6.95-.2-1.1 0-1.8.3-.1.6.6l.1-1.35q.55 0 .75.7l.2.7q-.1-.65.25-1.4.25-1 .7-1.15l.5.1-.1-.9-.05-.05q0-.1.25-.15l.35.3h.05l-.15-.75.15-.1.25-.15.45.25.35.7q-.9-5.55-.75-6.75l-.15-1.75V7.8M0 15.35l.95 4 .3-.35.2.55h.15l.1-.2.35.5.3.6.1.1-.05-.05.1-.25.25.3.2.25.05.2.05.25.35-.1.1.35.1.55q-.1-.55.05-.95.8.75 1.15 1.7l.55 1.75q.1-.7-.15-1.35L5 22q.7.4 1.3 1.7l.2-1.1q.45.15 1 1.35L8 25.5l.15-1.8.2-.05.55.9.4-.75q.55.25.55.4l.9-.7q.5-.1 1.15.95L13 26.6q-.2-1.4.45-2.2l1.3-1.55q.5-.05.9 1.35l-.3-1.35.75.6.35.5v.15l.05-.15q-.1-1.05.1-1.4.2 0 .45.3l.75-.8.1.05.15.25.2.8q.7-2.5 1.35-3.05l1.05 1.75.6 1.4m.05-.05V23.5l-.05-.25m2.3-2.9l-.2-.7m-20.3 1.6l.45.25"/></svg>