<svg xmlns="http://www.w3.org/2000/svg" viewBox="0 0 21 21" preserveAspectRatio="xMinYMin">
    <path fill="none" stroke="#FFFFFF" stroke-width="1.5" stroke-linecap="round" stroke-linejoin="round" d="M17.3 2.95 Q17.7 4.3 17.5 6.1 L17.6 6.35 17.9 4.8 17.9 4.75 18.2 6.45 18.2 8.35 18.25 9.4 18.45 10.4 18.75 11.1 19.55 14.4 Q19.65 15.35 19.15 16 18.25 17.15 16.7 17.65 15.55 18.05 14.55 18.65 13.85 19.05 12.85 19.05 11.45 19.1 11.7 17.65 L11.7 17.55 Q11.35 17.95 11.3 18.55 L11.25 18.55 10.2 18.05 10.15 18 10.15 16.1 10.15 16.05 Q9.3 15.35 8.05 15.2 L8 15.15 Q7.35 15.6 7.35 16.7 L7.3 16.7 Q6.65 15.6 7.6 15 L7.65 15 9.7 15.1 Q10.8 15 11.5 14.55 L15.25 14.9 Q16.1 14.8 16.55 14.2 L17.5 14.35 17.55 14.35 16.95 13.65 16.9 13.65 17.4 10.15 17.5 8.6 17.5 8.2 17.05 6.8 17.05 10.15 16.7 8 16.75 11.85 Q16.6 13.8 15.2 14.45 L14.7 14.55 13.25 14.5 12.15 14.05 12 13.85 11.95 13.5 12 12.1 12.1 10.55 12.1 10.5 12.3 5.55 Q11.9 7.2 11.75 9.05 L11.75 9.5 11.75 9.55 Q11.55 11 11.5 12.55 L11.45 13.25 11.25 13.85 Q10.85 14.45 9.7 14.7 L9.65 14.7 Q8.1 14.85 7.5 14.05 L7.4 12.75 7.4 11.35 7.4 8.4 7.4 6.4 7.4 5.8 7.2 6.6 7 13.45 Q7 14.45 6.2 14.65 4.35 15.05 3.65 13.7 L3.65 11.75 Q3.6 8.85 3.85 6.15 3.25 7.35 3.3 9.15 L3.35 12.7 Q3.35 13.65 3 14.3 L1.9 14.35 1.15 13.95 Q0.35 12.8 0.45 10.85 L0.6 9.5 0.65 8.9 Q0.5 6.35 1.45 4.65 1.75 4.05 2.4 3.75 L3.9 3.55 4.15 4.1 4.15 4.15 Q4.45 2.75 5.4 2 L7.25 1.8 8.2 1.95 Q8.1 2.35 8.15 2.9 L8.15 2.95 Q8.55 1.25 9.95 0.65 L11.8 0.55 Q12.6 0.8 13.05 1.4 L13.2 1.9 Q13.8 0.75 15.3 1.1 16.9 1.45 17.3 2.95 M18.35 4.75 Q18.85 6.35 18.8 8.5 18.8 9.5 19.05 10.3 L19.85 13.05 Q20.2 14.45 19.75 15.75 19.45 16.65 18.6 17.1 L14.45 19.15 Q12.75 19.85 11.1 19.1 L7.9 17.65 Q6.4 17 6.65 15.15 L4.25 15 3.65 14.6 Q2.45 15.3 1.25 14.6 -0.25 13.75 0.05 11.1 L0.1 10.4 0.3 6.55 Q0.55 3.65 3.1 3.15 4 2.95 4.45 2.4 4.9 1.8 5.65 1.5 L7.9 1.2 8.3 1.1 9.55 0.35 12.05 0.25 13.15 0.65 14.75 0.75 16.4 1.05 Q17.9 2.1 18.25 4.35 L18.35 4.75"></path>
</svg>