<svg xmlns="http://www.w3.org/2000/svg" viewBox="0 0 20.0 17.4" width="20" height="17.4"><defs><linearGradient gradientUnits="userSpaceOnUse" x1="-819.2" x2="819.2" gradientTransform="matrix(.002 0 .002 -.008 16.45 10.75)" id="a"><stop offset="0" stop-color="#DEA265"/><stop offset="1" stop-color="#9F6224"/></linearGradient><linearGradient gradientUnits="userSpaceOnUse" x1="-819.2" x2="819.2" gradientTransform="matrix(-.002 0 -.002 .008 2.4 6.25)" id="b"><stop offset="0" stop-color="#DEA265"/><stop offset="1" stop-color="#9F6224"/></linearGradient><linearGradient gradientUnits="userSpaceOnUse" x1="-819.2" x2="819.2" gradientTransform="matrix(-.005 -.002 -.002 .007 8.3 8)" id="c"><stop offset="0" stop-color="#E0A56B"/><stop offset="1" stop-color="#AD6A27"/></linearGradient></defs><path fill="url(#a)" d="M15.95 4.6l.15-.2.6-.2q1.15-.2 3.3.9l-3.55 12.3-1.85-.25-1.6-.95-.25-.9 3.2-10.7"/><path fill="url(#b)" d="M4.05 12.55l-1 .85Q1.5 13.45.3 12.35L0 11.6 3.45 0H5.3l1.4.85.5 1.35-3.15 10.35"/><path fill="url(#c)" d="M4.05 12.55L7.2 2.2l8.75 2.4-3.2 10.7-8.7-2.75M12.6 9.8l-.75-1.9-1.45 1.25 1.45-1.25.75 1.9m-.8 1.9l-1.2.55-.35-.9.35.9 1.2-.55m2.05-4.65l-.7-1.75-1.5 1.35 1.5-1.35.7 1.75m-3.6-2.4l-.25.3.25-.3m-2.1 6.4l.3.2-.3-.2m-.45-2.2l-.05.5.05-.5m.9-2.45l-.35.5.35-.5m1.1 6.2l.9-.35.35.95-.35-.95-.9.35"/><path fill="none" stroke="#C7833F" stroke-width=".05" stroke-linecap="round" stroke-linejoin="round" d="M20 5.1q-2.15-1.1-3.3-.9l-.6.2-.15.2m-3.2 10.7l.25.9"/><path fill="none" stroke="#B97837" stroke-width=".05" stroke-linecap="round" stroke-linejoin="round" d="M13 16.2l1.6.95 1.85.25L20 5.1M4.05 12.55l-1 .85Q1.5 13.45.3 12.35L0 11.6 3.45 0H5.3l1.4.85.5 1.35 8.75 2.4M7.2 2.2L4.05 12.55l8.7 2.75"/><path fill="none" stroke="#D79A5F" stroke-width=".05" stroke-linecap="round" stroke-linejoin="round" d="M15.95 4.6l-3.2 10.7"/><path fill="none" stroke="#7A4A1B" stroke-linecap="round" stroke-linejoin="round" d="M10.25 11.35l.35.9 1.2-.55m-.85 1.5l-.35-.95-.9.35"/><path fill="none" stroke="#9A6A3B" stroke-linecap="round" stroke-linejoin="round" d="M10.4 9.15l1.45-1.25.75 1.9m-.95-3.15l1.5-1.35.7 1.75"/><path fill="none" stroke="#925921" stroke-linecap="round" stroke-linejoin="round" d="M8.25 6.9l.35-.5m-.95 2.95l.05-.5m.75 2.4l-.3-.2M10 4.95l.25-.3"/></svg>