<svg xmlns="http://www.w3.org/2000/svg" viewBox="0 0 334.3 287.4" width="334.3" height="287.4"><defs><linearGradient gradientUnits="userSpaceOnUse" x1="-819.2" x2="819.2" gradientTransform="matrix(-.017 -.012 .041 -.058 267.55 79.05)" id="a"><stop offset="0" stop-color="#ccc"/><stop offset="1" stop-color="#52483A"/></linearGradient><linearGradient gradientUnits="userSpaceOnUse" x1="-819.2" x2="819.2" gradientTransform="matrix(.01 .008 -.045 .053 246.8 50.65)" id="b"><stop offset="0" stop-color="#ccc"/><stop offset="1" stop-color="#52483A"/></linearGradient><linearGradient gradientUnits="userSpaceOnUse" x1="-819.2" x2="819.2" gradientTransform="matrix(.006 .005 -.033 .047 221.55 50.4)" id="c"><stop offset="0" stop-color="#ccc"/><stop offset="1" stop-color="#52483A"/></linearGradient><linearGradient gradientUnits="userSpaceOnUse" x1="-819.2" x2="819.2" gradientTransform="matrix(.005 .004 .102 -.118 122.25 171.8)" id="d"><stop offset="0" stop-color="#2B1E11"/><stop offset="1" stop-color="#A37243"/></linearGradient><linearGradient gradientUnits="userSpaceOnUse" x1="-819.2" x2="819.2" gradientTransform="matrix(.008 .007 .048 -.056 243.95 53.55)" id="e"><stop offset="0" stop-color="#2B1E11"/><stop offset="1" stop-color="#52483A"/></linearGradient><linearGradient gradientUnits="userSpaceOnUse" x1="-819.2" x2="819.2" gradientTransform="matrix(-.009 -.007 -.013 .017 10.95 265.4)" id="f"><stop offset="0" stop-color="#938675"/><stop offset="1" stop-color="#B8AEA5"/></linearGradient></defs><path fill="#eee" d="M318.8 44q7.55.2 15.5-1.95l-7.6 20.15-6.3 15.55q-3.75 8.75-7.55 14.7-24.2 37.65-77.75 49.85l1.05-13.75v-.1l.05-.15.25-.05q42.4-8.1 66.6-47 7.55-12.15 12.4-25.9L318.8 44"/><path fill="url(#a)" d="M318.8 44l-3.35 11.35q-4.85 13.75-12.4 25.9-24.2 38.9-66.6 47h-.25q.3-3.45 3.95-17 3.5-13 3.1-15.25-1-9.1-1.55-11.7-.75-3.8-4.1-5.2l43.15-38.35Q284.25 44 291.2 46q12.1 3.5 26.35-1l1.25-1"/><path fill="url(#b)" d="M237.6 79.1l-3.25 2.8-9.15 7.9-.1.05-2.95-.65-23.8-5.3q.55-3.9-1.2-6.25l-.3-.3 57-61.9L268.15 0l4.95 1.75q5.85 2.35 10.25 5.7 13.9 10.5 7.4 25.95l-10 7.35L237.6 79.1"/><path fill="url(#c)" d="M196.85 77.35q-3.75-4.2-14.75 3-1.8-4.8-.3-9.75 2.9-9.9 19.5-10.85.25-3.45 2.65-8.15 4.75-9.4 15.3-15.5l-.65-8.4 12-2.55 8.45-15.5 14.8 5.8-57 61.9"/><path fill="url(#d)" d="M222.15 89.2l-3.2.15L33.1 263.2l-.15.15q-1.3-2.05-3.7-5.05l-2-2.65L198.35 83.9l23.8 5.3"/><path fill="url(#e)" d="M225.15 89.85h-.05l.1-.05-.05.05"/><path fill="url(#f)" d="M33.05 263.45l1.9 2.85q.35.05.35.4-.3 1.75-8.8 10.25L15.75 287.4q-4.85-1-9.2-3.6-8.6-5.2-5.9-13.35l22.1-18.1 4.5 3.3 2 2.65q2.4 3 3.7 5.05l.05.1h.05"/><path fill="none" stroke="#ccc" stroke-width=".05" d="M318.8 44q7.55.2 15.5-1.95l-7.6 20.15-6.3 15.55q-3.75 8.75-7.55 14.7-24.2 37.65-77.75 49.85l1.05-13.75v-.1l.05-.15"/><path fill="none" stroke="#999" stroke-width=".05" d="M236.2 128.3v-.05q.3-3.45 3.95-17 3.5-13 3.1-15.25-1-9.1-1.55-11.7-.75-3.8-4.1-5.2l-3.25 2.8-2.9 2.55-6.3 5.4h-.05l-2.95-.65-3.2.15m-20.6-5.45q.55-3.9-1.2-6.25l-.3-.3q-3.75-4.2-14.75 3-1.8-4.8-.3-9.75 2.9-9.9 19.5-10.85.25-3.45 2.65-8.15 4.75-9.4 15.3-15.5l-.65-8.4 12-2.55 8.45-15.5 14.8 5.8L268.15 0l4.95 1.75q5.85 2.35 10.25 5.7 13.9 10.5 7.4 25.95l-10 7.35Q284.25 44 291.2 46q12.1 3.5 26.35-1l1.25-1m-93.6 45.8l-.05.05m-26.8-5.95l23.8 5.3"/><path fill="none" stroke="#666" stroke-width=".05" d="M33.1 263.2l-.05.25 1.9 2.85q.35.05.35.4-.3 1.75-8.8 10.25L15.75 287.4q-4.85-1-9.2-3.6-8.6-5.2-5.9-13.35l22.1-18.1 4.5 3.3m5.7 7.7q-1.3-2.05-3.7-5.05l-2-2.65m5.7 7.7l.05.1h.05"/><path fill="none" stroke="#2B1E11" stroke-width=".05" d="M218.95 89.35L33.1 263.2m-5.85-7.55L198.35 83.9"/></svg>