<svg xmlns="http://www.w3.org/2000/svg" viewBox="-46.1 27.8 476.9 313.6" width="476.9" height="313.6" preserveAspectRatio="xMinYMin"><defs><linearGradient gradientUnits="userSpaceOnUse" x1="-819.2" x2="819.2" gradientTransform="matrix(-.001 -.002 .208 -.161 231.6 126.8)" id="a"><stop offset="0" stop-color="#614327"/><stop offset="1" stop-color="#9D8837"/></linearGradient><linearGradient gradientUnits="userSpaceOnUse" x1="-819.2" x2="819.2" gradientTransform="matrix(.001 .002 -.266 .195 169.5 -21.1)" id="b"><stop offset="0" stop-color="#2B1E11"/><stop offset="1" stop-color="#514D4D"/></linearGradient><linearGradient gradientUnits="userSpaceOnUse" x1="-819.2" x2="819.2" gradientTransform="matrix(.001 .002 -.266 .195 168.15 174.1)" id="c"><stop offset="0" stop-color="#2B1E11"/><stop offset="1" stop-color="#514D4D"/></linearGradient><linearGradient gradientUnits="userSpaceOnUse" x1="-819.2" x2="819.2" gradientTransform="matrix(.066 -.05 .003 .004 8.25 299.3)" id="d"><stop offset="0" stop-color="#614327"/><stop offset="1" stop-color="#9D8837"/></linearGradient><linearGradient gradientUnits="userSpaceOnUse" x1="-819.2" x2="819.2" gradientTransform="matrix(.025 0 0 .025 60.7 282.75)" id="e"><stop offset="0" stop-color="#614327"/><stop offset="1" stop-color="#9D8837"/></linearGradient></defs><path fill="url(#a)" d="M429.5 30.95l-6.2.4q-83.35 5.8-149 63.9l-146.2 115-19.5 14.9-2.25 1.65-.9.65-3.35 2.6-21.45 16.4-18.1 13.9v-.05l-1.5-.4q-1.15-.75-.15-2.45l18.4-14.15 21.45-16.4 3.35-2.6.9-.65 2.25-1.65 19.5-14.9 146.2-115q66.2-58.55 150.35-64l4.8-.3q4.6.85 1.4 3.15m-321.3 192.2V223l-2.35 1.75 2.35-1.6"/><path fill="url(#b)" d="M109.55 27.95l-2.35 1.6 2.35-1.75v.15"/><path fill="url(#c)" d="M108.2 223.15l-2.35 1.6 2.35-1.75v.15"/><path fill="url(#d)" d="M60.9 257.45q-1 1.7.15 2.45l1.5.4v.05l-.3 1.1q-.65 1.9-2.55 3.35l-28.1 21.5-2.5-4.05-1.35-2.65 27.3-20.85q1.9-1.45 3.9-1.55l1.95.25m-52.3 36.8l4.85 2.75 1.05.55 1.4.7-54.5 41.6q-1.9 1.45-4 1.6-2.05.15-2.95-1.1l-.05-.05q-.95-1.2-.3-3.1.75-1.95 2.65-3.4L8.6 294.25"/><path fill="url(#e)" d="M46.45 296.95q-5.9-5.9-5.9-14.2 0-8.35 5.9-14.3 5.95-5.9 14.3-5.9 8.35 0 14.25 5.9 5.95 5.95 5.95 14.3 0 8.3-5.95 14.2-5.9 5.95-14.25 5.95t-14.3-5.95"/><path fill="none" stroke="#785D2D" stroke-width=".05" d="M62.55 260.35l18.1-13.9 21.45-16.4 3.35-2.6.9-.65 2.25-1.65 19.5-14.9 146.2-115q65.65-58.1 149-63.9l6.2-.4m-1.4-3.15l-4.8.3q-84.15 5.45-150.35 64l-146.2 115-19.5 14.9-2.25 1.65-.9.65-3.35 2.6-21.45 16.4-18.4 14.15"/><path fill="none" stroke="#785D2D" stroke-width=".05" stroke-linecap="round" stroke-linejoin="round" d="M429.5 30.95q3.2-2.3-1.4-3.15"/><path fill="none" stroke="#785D2D" stroke-width=".05" stroke-linecap="round" stroke-miterlimit="3" d="M60.9 257.45q-1 1.7.15 2.45l1.5.4v.05l-.3 1.1q-.65 1.9-2.55 3.35l-28.1 21.5m-3.85-6.7l27.3-20.85q1.9-1.45 3.9-1.55l1.95.25m-52.3 36.8l-51.85 39.55q-1.9 1.45-2.65 3.4-.65 1.9.3 3.1l.05.05q.9 1.25 2.95 1.1 2.1-.15 4-1.6l54.5-41.6"/><path fill="none" stroke="#785D2D" stroke-width=".05" stroke-linecap="round" stroke-linejoin="round" d="M46.45 296.95q-5.9-5.9-5.9-14.2 0-8.35 5.9-14.3 5.95-5.9 14.3-5.9 8.35 0 14.25 5.9 5.95 5.95 5.95 14.3 0 8.3-5.95 14.2-5.9 5.95-14.25 5.95t-14.3-5.95"/></svg>