<svg xmlns="http://www.w3.org/2000/svg" viewBox="-47 61.3 334.3 287.4" width="334.3" height="287.4" preserveAspectRatio="xMinYMin"><defs><linearGradient gradientUnits="userSpaceOnUse" x1="-819.2" x2="819.2" gradientTransform="matrix(.006 .005 -.033 .047 174.5 111.65)" id="a"><stop offset="0" stop-color="#ccc"/><stop offset="1" stop-color="#52483A"/></linearGradient><linearGradient gradientUnits="userSpaceOnUse" x1="-819.2" x2="819.2" gradientTransform="matrix(.01 .008 -.045 .053 199.75 111.9)" id="b"><stop offset="0" stop-color="#ccc"/><stop offset="1" stop-color="#52483A"/></linearGradient><linearGradient gradientUnits="userSpaceOnUse" x1="-819.2" x2="819.2" gradientTransform="matrix(-.017 -.012 .041 -.058 220.5 140.3)" id="c"><stop offset="0" stop-color="#ccc"/><stop offset="1" stop-color="#52483A"/></linearGradient><linearGradient gradientUnits="userSpaceOnUse" x1="-819.2" x2="819.2" gradientTransform="matrix(.005 .004 .102 -.118 75.2 233.05)" id="d"><stop offset="0" stop-color="#2B1E11"/><stop offset="1" stop-color="#A37243"/></linearGradient><linearGradient gradientUnits="userSpaceOnUse" x1="-819.2" x2="819.2" gradientTransform="matrix(.008 .007 .048 -.056 196.9 114.8)" id="e"><stop offset="0" stop-color="#2B1E11"/><stop offset="1" stop-color="#52483A"/></linearGradient><linearGradient gradientUnits="userSpaceOnUse" x1="-819.2" x2="819.2" gradientTransform="matrix(-.009 -.007 -.013 .017 -36.1 326.65)" id="f"><stop offset="0" stop-color="#938675"/><stop offset="1" stop-color="#B8AEA5"/></linearGradient></defs><path fill="url(#a)" d="M149.8 138.6q-3.75-4.2-14.75 3-1.8-4.8-.3-9.75 2.9-9.9 19.5-10.85.25-3.45 2.65-8.15 4.75-9.4 15.3-15.5l-.65-8.4 12-2.55L192 70.9l14.8 5.8-57 61.9"/><path fill="url(#b)" d="M149.8 138.6l57-61.9 14.3-15.45 4.95 1.75q5.85 2.35 10.25 5.7 13.9 10.5 7.4 25.95l-10 7.35-43.15 38.35-3.25 2.8-9.15 7.9-.1.05-2.95-.65-23.8-5.3q.55-3.9-1.2-6.25l-.3-.3"/><path fill="url(#c)" d="M233.7 102q3.5 3.25 10.45 5.25 12.1 3.5 26.35-1l1.25-1-3.35 11.35q-4.85 13.75-12.4 25.9-24.2 38.9-66.6 47h-.25q.3-3.45 3.95-17 3.5-13 3.1-15.25-1-9.1-1.55-11.7-.75-3.8-4.1-5.2L233.7 102"/><path fill="url(#d)" d="M175.1 150.45l-3.2.15L29.8 283.55l-.7-1.3-2.6-5.25-1.9-4.2-.15-.3L151.3 145.15l23.8 5.3M5.2 291.8q2.95 2.45 8.25 5.2l1.05.55.2.1-28.65 26.8-.15.15q-1.3-2.05-3.7-5.05l-2-2.65 25-25.1"/><path fill="url(#e)" d="M178.1 151.1h-.05l.1-.05-.05.05"/><path fill="#eee" d="M271.75 105.25q7.55.2 15.5-1.95l-7.6 20.15-6.3 15.55q-3.75 8.75-7.55 14.7-24.2 37.65-77.75 49.85l1.05-13.75v-.1l.05-.15.25-.05q42.4-8.1 66.6-47 7.55-12.15 12.4-25.9l3.35-11.35"/><path fill="url(#f)" d="M-19.8 316.9l2 2.65q2.4 3 3.7 5.05l.05.1h.05l1.9 2.85q.35.05.35.4-.3 1.75-8.8 10.2L-31.3 348.6q-4.85-1-9.2-3.6-8.6-5.2-5.9-13.3l22.1-18.1 4.5 3.3"/><path fill="none" stroke="#999" stroke-width=".05" d="M149.8 138.6q-3.75-4.2-14.75 3-1.8-4.8-.3-9.75 2.9-9.9 19.5-10.85.25-3.45 2.65-8.15 4.75-9.4 15.3-15.5l-.65-8.4 12-2.55L192 70.9l14.8 5.8 14.3-15.45 4.95 1.75q5.85 2.35 10.25 5.7 13.9 10.5 7.4 25.95l-10 7.35q3.5 3.25 10.45 5.25 12.1 3.5 26.35-1l1.25-1m-82.6 84.3v-.05q.3-3.45 3.95-17 3.5-13 3.1-15.25-1-9.1-1.55-11.7-.75-3.8-4.1-5.2l-3.25 2.8-2.9 2.55-6.3 5.4h-.05l-2.95-.65-3.2.15m-20.6-5.45q.55-3.9-1.2-6.25l-.3-.3m28.35 12.45l-.05.05m-26.8-5.95l23.8 5.3"/><path fill="none" stroke="#ccc" stroke-width=".05" d="M271.75 105.25q7.55.2 15.5-1.95l-7.6 20.15-6.3 15.55q-3.75 8.75-7.55 14.7-24.2 37.65-77.75 49.85l1.05-13.75v-.1l.05-.15"/><path fill="none" stroke="#666" stroke-width=".05" d="M-19.8 316.9l2 2.65q2.4 3 3.7 5.05l.05.1h.05l.05-.25m-.05.25l1.9 2.85q.35.05.35.4-.3 1.75-8.8 10.2L-31.3 348.6q-4.85-1-9.2-3.6-8.6-5.2-5.9-13.3l22.1-18.1 4.5 3.3"/><path fill="none" stroke="#2B1E11" stroke-width=".05" d="M171.9 150.6L29.8 283.55m-5.35-11.05L151.3 145.15M5.2 291.8l-25 25.1m5.85 7.55l28.65-26.8"/></svg>